G04 #@! TF.FileFunction,Legend,Bot*
%FSLAX46Y46*%
G04 Gerber Fmt 4.6, Leading zero omitted, Abs format (unit mm)*
G04 Created by KiCad (PCBNEW 4.0.1-stable) date 6/25/2016 6:01:51 PM*
%MOMM*%
G01*
G04 APERTURE LIST*
%ADD10C,0.100000*%
%ADD11C,0.150000*%
%ADD12C,0.160000*%
G04 APERTURE END LIST*
D10*
D11*
X209804000Y-96139000D02*
X211328000Y-96139000D01*
X209804000Y-32512000D02*
X211328000Y-32512000D01*
X149098000Y-96139000D02*
X209804000Y-96139000D01*
X209804000Y-32512000D02*
X149098000Y-32512000D01*
X211328000Y-32512000D02*
X211328000Y-96139000D01*
X149098000Y-96139000D02*
X149098000Y-32512000D01*
X158242000Y-46609000D02*
X157988000Y-46990000D01*
X157988000Y-46990000D02*
X157480000Y-46990000D01*
X158242000Y-46609000D02*
X157988000Y-46228000D01*
X157988000Y-46228000D02*
X157480000Y-46228000D01*
X167640000Y-48514000D02*
X163703000Y-43180000D01*
X163703000Y-43180000D02*
X158750000Y-46609000D01*
X158750000Y-46609000D02*
X158242000Y-46609000D01*
X168783000Y-48514000D02*
X166497000Y-48514000D01*
X166370000Y-51181000D02*
X180594000Y-51181000D01*
X180594000Y-48641000D02*
X166370000Y-48641000D01*
X181102000Y-40005000D02*
X181229000Y-40005000D01*
X181229000Y-49149000D02*
X180975000Y-49149000D01*
X173736000Y-42291000D02*
X174244000Y-42291000D01*
X172974000Y-42291000D02*
X173228000Y-42291000D01*
X173228000Y-42799000D02*
X173736000Y-42799000D01*
X173736000Y-42291000D02*
X173736000Y-41910000D01*
X173736000Y-41910000D02*
X173228000Y-41910000D01*
X173228000Y-41910000D02*
X173228000Y-42291000D01*
X172720000Y-42164000D02*
X172466000Y-42164000D01*
X172466000Y-42164000D02*
X172466000Y-41656000D01*
X172466000Y-41656000D02*
X172720000Y-41656000D01*
X172974000Y-42291000D02*
X172720000Y-42291000D01*
X172720000Y-42291000D02*
X172720000Y-41529000D01*
X172720000Y-41529000D02*
X173228000Y-41529000D01*
X172974000Y-41529000D02*
X174244000Y-41529000D01*
X174244000Y-41529000D02*
X174244000Y-42291000D01*
X173736000Y-48641000D02*
X173228000Y-48133000D01*
X173228000Y-48133000D02*
X173736000Y-47625000D01*
X173736000Y-47625000D02*
X173228000Y-47117000D01*
X173228000Y-47117000D02*
X173736000Y-46355000D01*
X173736000Y-46355000D02*
X173228000Y-45847000D01*
X173228000Y-45847000D02*
X173736000Y-45339000D01*
X173736000Y-45339000D02*
X173228000Y-44831000D01*
X173228000Y-44831000D02*
X173736000Y-44323000D01*
X173736000Y-44323000D02*
X173228000Y-43815000D01*
X173228000Y-43815000D02*
X173736000Y-43307000D01*
X173736000Y-43307000D02*
X173228000Y-42799000D01*
X173736000Y-48641000D02*
X173228000Y-48641000D01*
X173228000Y-48641000D02*
X173228000Y-42291000D01*
X173736000Y-42291000D02*
X173736000Y-48641000D01*
X180848000Y-49149000D02*
X181102000Y-49149000D01*
X181229000Y-49149000D02*
X181229000Y-40005000D01*
X181102000Y-40005000D02*
X180848000Y-40005000D01*
X180848000Y-40005000D02*
X180848000Y-48641000D01*
X180594000Y-49149000D02*
X180848000Y-49149000D01*
X180848000Y-49149000D02*
X180848000Y-48641000D01*
X180848000Y-48641000D02*
X180594000Y-48641000D01*
X168402000Y-53721000D02*
G75*
G03X168402000Y-53721000I-1270000J0D01*
G01*
X174752000Y-53721000D02*
G75*
G03X174752000Y-53721000I-1270000J0D01*
G01*
X181102000Y-53721000D02*
G75*
G03X181102000Y-53721000I-1270000J0D01*
G01*
X173482000Y-53721000D02*
X176530000Y-52451000D01*
X173482000Y-51181000D02*
X167132000Y-53721000D01*
X166370000Y-51181000D02*
X166370000Y-48641000D01*
X173482000Y-51181000D02*
X179832000Y-53721000D01*
X180594000Y-48641000D02*
X180594000Y-51181000D01*
X169052667Y-58745381D02*
X169052667Y-57745381D01*
X168719333Y-58459667D01*
X168386000Y-57745381D01*
X168386000Y-58745381D01*
X167957429Y-58459667D02*
X167481238Y-58459667D01*
X168052667Y-58745381D02*
X167719334Y-57745381D01*
X167386000Y-58745381D01*
X167195524Y-57745381D02*
X166862191Y-58745381D01*
X166528857Y-57745381D01*
X166290762Y-57745381D02*
X165671714Y-57745381D01*
X166005048Y-58126333D01*
X165862190Y-58126333D01*
X165766952Y-58173952D01*
X165719333Y-58221571D01*
X165671714Y-58316810D01*
X165671714Y-58554905D01*
X165719333Y-58650143D01*
X165766952Y-58697762D01*
X165862190Y-58745381D01*
X166147905Y-58745381D01*
X166243143Y-58697762D01*
X166290762Y-58650143D01*
D12*
X187688499Y-57483262D02*
X187688499Y-55483262D01*
X186688499Y-56911833D01*
X185688499Y-55483262D01*
X185688499Y-57483262D01*
X182117071Y-56911833D02*
X180688500Y-56911833D01*
X182402786Y-57483262D02*
X181402786Y-55483262D01*
X180402786Y-57483262D01*
X177545643Y-55483262D02*
X176545643Y-57483262D01*
X175545643Y-55483262D01*
X170545643Y-57483262D02*
X171545643Y-56530881D01*
X172259928Y-57483262D02*
X172259928Y-55483262D01*
X171117071Y-55483262D01*
X170831357Y-55578500D01*
X170688500Y-55673738D01*
X170545643Y-55864214D01*
X170545643Y-56149929D01*
X170688500Y-56340405D01*
X170831357Y-56435643D01*
X171117071Y-56530881D01*
X172259928Y-56530881D01*
X166974214Y-57483262D02*
X166974214Y-55483262D01*
X161545644Y-57292786D02*
X161688501Y-57388024D01*
X162117072Y-57483262D01*
X162402786Y-57483262D01*
X162831358Y-57388024D01*
X163117072Y-57197548D01*
X163259929Y-57007071D01*
X163402786Y-56626119D01*
X163402786Y-56340405D01*
X163259929Y-55959452D01*
X163117072Y-55768976D01*
X162831358Y-55578500D01*
X162402786Y-55483262D01*
X162117072Y-55483262D01*
X161688501Y-55578500D01*
X161545644Y-55673738D01*
M02*
