G04 #@! TF.FileFunction,Copper,L1,Top,Signal*
%FSLAX46Y46*%
G04 Gerber Fmt 4.6, Leading zero omitted, Abs format (unit mm)*
G04 Created by KiCad (PCBNEW 4.0.1-stable) date 6/25/2016 6:01:51 PM*
%MOMM*%
G01*
G04 APERTURE LIST*
%ADD10C,0.100000*%
%ADD11C,0.150000*%
%ADD12R,1.600200X2.600960*%
%ADD13R,2.600960X1.600200*%
%ADD14R,1.600000X2.000000*%
%ADD15R,1.500000X1.250000*%
%ADD16R,3.599180X1.600200*%
%ADD17R,1.597660X1.800860*%
%ADD18R,1.200000X0.280000*%
%ADD19R,0.280000X1.200000*%
%ADD20R,2.540000X1.021080*%
%ADD21R,3.500120X3.500120*%
%ADD22R,2.032000X2.032000*%
%ADD23O,2.032000X2.032000*%
%ADD24R,1.727200X2.032000*%
%ADD25O,1.727200X2.032000*%
%ADD26R,1.727200X1.727200*%
%ADD27O,1.727200X1.727200*%
%ADD28R,1.100000X0.400000*%
%ADD29R,3.200000X1.000000*%
%ADD30R,1.399540X1.800860*%
%ADD31R,2.032000X1.727200*%
%ADD32O,2.032000X1.727200*%
%ADD33R,1.300000X1.500000*%
%ADD34R,1.500000X1.300000*%
%ADD35R,3.657600X2.032000*%
%ADD36R,1.016000X2.032000*%
%ADD37C,0.600000*%
%ADD38C,0.500000*%
%ADD39C,0.200000*%
%ADD40C,0.250000*%
%ADD41C,0.750000*%
%ADD42C,1.250000*%
%ADD43C,2.100000*%
%ADD44C,1.000000*%
%ADD45C,0.254000*%
G04 APERTURE END LIST*
D10*
D11*
X209804000Y-96139000D02*
X211328000Y-96139000D01*
X209804000Y-32512000D02*
X211328000Y-32512000D01*
X149098000Y-96139000D02*
X209804000Y-96139000D01*
X209804000Y-32512000D02*
X149098000Y-32512000D01*
X211328000Y-32512000D02*
X211328000Y-96139000D01*
X149098000Y-96139000D02*
X149098000Y-32512000D01*
D12*
X169545000Y-58206640D03*
X169545000Y-61808360D03*
D13*
X178648360Y-68961000D03*
X175046640Y-68961000D03*
D14*
X197358000Y-66770000D03*
X197358000Y-62770000D03*
D15*
X202862500Y-54483000D03*
X200362500Y-54483000D03*
D16*
X186392820Y-45339000D03*
X180891180Y-45339000D03*
D17*
X153075640Y-57213500D03*
X155915360Y-57213500D03*
D18*
X184138500Y-72799000D03*
X184138500Y-73299000D03*
X184138500Y-73799000D03*
X184138500Y-74299000D03*
X184138500Y-74799000D03*
X184138500Y-75299000D03*
X184138500Y-75799000D03*
X184138500Y-76299000D03*
D19*
X185638500Y-77799000D03*
X186138500Y-77799000D03*
X186638500Y-77799000D03*
X187138500Y-77799000D03*
X187638500Y-77799000D03*
X188138500Y-77799000D03*
X188638500Y-77799000D03*
X189138500Y-77799000D03*
D18*
X190638500Y-76299000D03*
X190638500Y-75799000D03*
X190638500Y-75299000D03*
X190638500Y-74799000D03*
X190638500Y-74299000D03*
X190638500Y-73799000D03*
X190638500Y-73299000D03*
X190638500Y-72799000D03*
D19*
X189138500Y-71299000D03*
X188638500Y-71299000D03*
X188138500Y-71299000D03*
X187638500Y-71299000D03*
X187138500Y-71299000D03*
X186638500Y-71299000D03*
X186138500Y-71299000D03*
X185638500Y-71299000D03*
D20*
X192468500Y-67058540D03*
X192468500Y-64767460D03*
D21*
X164569140Y-63881000D03*
X158569660Y-63881000D03*
X161569400Y-68580000D03*
D22*
X190627000Y-83820000D03*
D23*
X190627000Y-86360000D03*
D21*
X164188140Y-76517500D03*
X158188660Y-76517500D03*
X161188400Y-81216500D03*
D22*
X186309000Y-64389000D03*
D23*
X186309000Y-66929000D03*
D24*
X173101000Y-94234000D03*
D25*
X175641000Y-94234000D03*
X178181000Y-94234000D03*
X180721000Y-94234000D03*
X183261000Y-94234000D03*
D24*
X195961000Y-94234000D03*
D25*
X193421000Y-94234000D03*
X190881000Y-94234000D03*
X188341000Y-94234000D03*
D26*
X203327000Y-84899500D03*
D27*
X203327000Y-87439500D03*
X200787000Y-84899500D03*
X200787000Y-87439500D03*
X198247000Y-84899500D03*
X198247000Y-87439500D03*
D28*
X186189500Y-51083500D03*
X186189500Y-51733500D03*
X186189500Y-52383500D03*
X186189500Y-53033500D03*
X186189500Y-53683500D03*
X186189500Y-54333500D03*
X186189500Y-54983500D03*
X186189500Y-55633500D03*
X186189500Y-56283500D03*
X186189500Y-56933500D03*
X186189500Y-57583500D03*
X186189500Y-58233500D03*
X186189500Y-58883500D03*
X186189500Y-59533500D03*
X191889500Y-59533500D03*
X191889500Y-58883500D03*
X191889500Y-58233500D03*
X191889500Y-57583500D03*
X191889500Y-56933500D03*
X191889500Y-56283500D03*
X191889500Y-55633500D03*
X191889500Y-54983500D03*
X191889500Y-54333500D03*
X191889500Y-53683500D03*
X191889500Y-53033500D03*
X191889500Y-52383500D03*
X191889500Y-51733500D03*
X191889500Y-51083500D03*
D29*
X159604500Y-52355500D03*
X166404500Y-52355500D03*
X166404500Y-48355500D03*
X159604500Y-48355500D03*
D30*
X177538380Y-79987140D03*
X177538380Y-75587860D03*
X175140620Y-75587860D03*
X175140620Y-79987140D03*
D31*
X207645000Y-53467000D03*
D32*
X207645000Y-56007000D03*
X207645000Y-58547000D03*
X207645000Y-61087000D03*
D31*
X174942500Y-34417000D03*
D32*
X174942500Y-36957000D03*
X174942500Y-39497000D03*
D31*
X178435000Y-34417000D03*
D32*
X178435000Y-36957000D03*
X178435000Y-39497000D03*
D31*
X171450000Y-34417000D03*
D32*
X171450000Y-36957000D03*
X171450000Y-39497000D03*
D31*
X167957500Y-34417000D03*
D32*
X167957500Y-36957000D03*
X167957500Y-39497000D03*
D31*
X164465000Y-34417000D03*
D32*
X164465000Y-36957000D03*
X164465000Y-39497000D03*
D31*
X160972500Y-34417000D03*
D32*
X160972500Y-36957000D03*
X160972500Y-39497000D03*
D31*
X157480000Y-34417000D03*
D32*
X157480000Y-36957000D03*
X157480000Y-39497000D03*
D31*
X153987500Y-34417000D03*
D32*
X153987500Y-36957000D03*
X153987500Y-39497000D03*
D31*
X207708500Y-34417000D03*
D32*
X207708500Y-36957000D03*
X207708500Y-39497000D03*
D31*
X204216000Y-34417000D03*
D32*
X204216000Y-36957000D03*
X204216000Y-39497000D03*
D31*
X200723500Y-34417000D03*
D32*
X200723500Y-36957000D03*
X200723500Y-39497000D03*
D31*
X197231000Y-34417000D03*
D32*
X197231000Y-36957000D03*
X197231000Y-39497000D03*
D31*
X193738500Y-34417000D03*
D32*
X193738500Y-36957000D03*
X193738500Y-39497000D03*
D31*
X190246000Y-34417000D03*
D32*
X190246000Y-36957000D03*
X190246000Y-39497000D03*
D31*
X186753500Y-34417000D03*
D32*
X186753500Y-36957000D03*
X186753500Y-39497000D03*
D31*
X183261000Y-34417000D03*
D32*
X183261000Y-36957000D03*
X183261000Y-39497000D03*
D33*
X170180000Y-49196000D03*
X170180000Y-51896000D03*
D15*
X174962500Y-73152000D03*
X177462500Y-73152000D03*
X177907000Y-82359500D03*
X175407000Y-82359500D03*
X200703500Y-78930500D03*
X198203500Y-78930500D03*
D34*
X160257500Y-57213500D03*
X162957500Y-57213500D03*
X200199000Y-56769000D03*
X202899000Y-56769000D03*
X200199000Y-59182000D03*
X202899000Y-59182000D03*
X188261000Y-48387000D03*
X190961000Y-48387000D03*
X202962500Y-49403000D03*
X200262500Y-49403000D03*
X202962500Y-51943000D03*
X200262500Y-51943000D03*
X203026000Y-46990000D03*
X200326000Y-46990000D03*
D26*
X173101000Y-91186000D03*
D27*
X173101000Y-88646000D03*
X175641000Y-91186000D03*
X175641000Y-88646000D03*
X178181000Y-91186000D03*
X178181000Y-88646000D03*
X180721000Y-91186000D03*
X180721000Y-88646000D03*
X183261000Y-91186000D03*
X183261000Y-88646000D03*
D26*
X205168500Y-67373500D03*
D27*
X207708500Y-67373500D03*
X205168500Y-69913500D03*
X207708500Y-69913500D03*
X205168500Y-72453500D03*
X207708500Y-72453500D03*
X205168500Y-74993500D03*
X207708500Y-74993500D03*
D35*
X176911000Y-57213500D03*
D36*
X176911000Y-63817500D03*
X179197000Y-63817500D03*
X174625000Y-63817500D03*
D37*
X205994000Y-89255600D03*
X190449200Y-89560400D03*
X194411600Y-63093600D03*
X205130400Y-54914800D03*
X198120000Y-59182000D03*
X194056000Y-81330800D03*
X191617600Y-80060800D03*
X194411600Y-92506800D03*
X192278000Y-92506800D03*
X205943200Y-63296800D03*
X203657200Y-62738000D03*
X185521600Y-86461600D03*
X183692800Y-71272400D03*
X186690000Y-74625200D03*
X188010800Y-59537600D03*
X186131200Y-61112400D03*
X165506400Y-57099200D03*
X162915600Y-48355500D03*
X203149200Y-42672000D03*
X181000400Y-39166800D03*
X181927500Y-72136000D03*
X181038500Y-74485500D03*
X195630800Y-60096400D03*
X192735200Y-62636400D03*
X199085200Y-53238400D03*
X190195200Y-46126400D03*
X205333600Y-52019200D03*
X181356000Y-60642500D03*
X183515000Y-48895000D03*
X195021200Y-76098400D03*
X195630800Y-74574400D03*
X198526400Y-74472800D03*
X190703200Y-67818000D03*
X172618400Y-54254400D03*
X187642500Y-73279000D03*
X200723500Y-77533500D03*
X185928000Y-75057000D03*
X183261000Y-86487000D03*
X174942500Y-86233000D03*
X178689000Y-86169500D03*
X187325000Y-75247500D03*
X188277500Y-75882500D03*
X203327000Y-82867500D03*
X194056000Y-82740500D03*
X195262500Y-81597500D03*
X200152000Y-81788000D03*
X199390000Y-74993500D03*
X193230500Y-70231000D03*
X189738000Y-69278500D03*
X194373500Y-68580000D03*
X188785500Y-51752500D03*
X189738000Y-52641500D03*
X189611000Y-56261000D03*
X203009500Y-61023500D03*
X186817000Y-73723500D03*
X193357500Y-89916000D03*
X198374000Y-46990000D03*
X190563500Y-54356000D03*
D38*
X190500000Y-89509600D02*
X190449200Y-89560400D01*
D39*
X194462400Y-63296800D02*
X194462400Y-63144400D01*
X194462400Y-63144400D02*
X194411600Y-63093600D01*
X197866000Y-59385200D02*
X197916800Y-59385200D01*
X197916800Y-59385200D02*
X198120000Y-59182000D01*
D40*
X192735200Y-80010000D02*
X194056000Y-81330800D01*
X191668400Y-80010000D02*
X192735200Y-80010000D01*
X191617600Y-80060800D02*
X191668400Y-80010000D01*
X191922400Y-89560400D02*
X191922400Y-92151200D01*
X203454000Y-91287600D02*
X203454000Y-89865200D01*
X202895200Y-91846400D02*
X203454000Y-91287600D01*
X195072000Y-91846400D02*
X202895200Y-91846400D01*
X194411600Y-92506800D02*
X195072000Y-91846400D01*
X191922400Y-92151200D02*
X192278000Y-92506800D01*
D41*
X174625000Y-63817500D02*
X174625000Y-61595000D01*
X171236640Y-58206640D02*
X169545000Y-58206640D01*
X174625000Y-61595000D02*
X171236640Y-58206640D01*
D42*
X158569660Y-63235840D02*
X162052000Y-59753500D01*
X168361360Y-58206640D02*
X169545000Y-58206640D01*
X166814500Y-59753500D02*
X168361360Y-58206640D01*
X162052000Y-59753500D02*
X166814500Y-59753500D01*
X158569660Y-63881000D02*
X158569660Y-63235840D01*
D40*
X197358000Y-62770000D02*
X203625200Y-62770000D01*
X205994000Y-63347600D02*
X206146400Y-63347600D01*
X205943200Y-63296800D02*
X205994000Y-63347600D01*
X203625200Y-62770000D02*
X203657200Y-62738000D01*
D41*
X190627000Y-83820000D02*
X188163200Y-83820000D01*
X188163200Y-83820000D02*
X185521600Y-86461600D01*
D39*
X190638500Y-74299000D02*
X187016200Y-74299000D01*
X187016200Y-74299000D02*
X186690000Y-74625200D01*
D40*
X186189500Y-59533500D02*
X188006700Y-59533500D01*
X188006700Y-59533500D02*
X188010800Y-59537600D01*
X186189500Y-59533500D02*
X186189500Y-61054100D01*
X186189500Y-61054100D02*
X186131200Y-61112400D01*
D38*
X162957500Y-57213500D02*
X165392100Y-57213500D01*
X165392100Y-57213500D02*
X165506400Y-57099200D01*
X166404500Y-48355500D02*
X162915600Y-48355500D01*
X162915600Y-48355500D02*
X159604500Y-48355500D01*
D39*
X200362500Y-54483000D02*
X201041000Y-54483000D01*
X201041000Y-54483000D02*
X201625200Y-53898800D01*
X201625200Y-53898800D02*
X201625200Y-47548800D01*
X201625200Y-47548800D02*
X202184000Y-46990000D01*
X202184000Y-46990000D02*
X203026000Y-46990000D01*
D38*
X203026000Y-46990000D02*
X203026000Y-42795200D01*
X203026000Y-42795200D02*
X203149200Y-42672000D01*
X180891180Y-45339000D02*
X180891180Y-39276020D01*
X180891180Y-39276020D02*
X181000400Y-39166800D01*
D39*
X184138500Y-73799000D02*
X183082500Y-73799000D01*
X181927500Y-72644000D02*
X181927500Y-72136000D01*
X183082500Y-73799000D02*
X181927500Y-72644000D01*
X184138500Y-74799000D02*
X181352000Y-74799000D01*
X181352000Y-74799000D02*
X181038500Y-74485500D01*
D43*
X157480000Y-34417000D02*
X160972500Y-34417000D01*
X160972500Y-34417000D02*
X164465000Y-34417000D01*
X164465000Y-34417000D02*
X167957500Y-34417000D01*
X167957500Y-34417000D02*
X171450000Y-34417000D01*
X171450000Y-34417000D02*
X174942500Y-34417000D01*
X174942500Y-34417000D02*
X178435000Y-34417000D01*
X178435000Y-34417000D02*
X183261000Y-34417000D01*
X183261000Y-34417000D02*
X186753500Y-34417000D01*
X186753500Y-34417000D02*
X190246000Y-34417000D01*
X190246000Y-34417000D02*
X193738500Y-34417000D01*
X193738500Y-34417000D02*
X197231000Y-34417000D01*
X197231000Y-34417000D02*
X200723500Y-34417000D01*
X200723500Y-34417000D02*
X204216000Y-34417000D01*
X204216000Y-34417000D02*
X207772000Y-34417000D01*
D41*
X175407000Y-82359500D02*
X173228000Y-82359500D01*
X174180500Y-73152000D02*
X174962500Y-73152000D01*
X173228000Y-74104500D02*
X174180500Y-73152000D01*
X173228000Y-82359500D02*
X173228000Y-74104500D01*
X175046640Y-68961000D02*
X175046640Y-73067860D01*
X175046640Y-73067860D02*
X174962500Y-73152000D01*
X175046640Y-68961000D02*
X175046640Y-67078860D01*
X175046640Y-67078860D02*
X175704500Y-66421000D01*
X169545000Y-61808360D02*
X169545000Y-64262000D01*
X176911000Y-65595500D02*
X176911000Y-63817500D01*
X176085500Y-66421000D02*
X176911000Y-65595500D01*
X171704000Y-66421000D02*
X175704500Y-66421000D01*
X175704500Y-66421000D02*
X176085500Y-66421000D01*
X169545000Y-64262000D02*
X171704000Y-66421000D01*
D42*
X164696140Y-75524360D02*
X166179500Y-74041000D01*
X166179500Y-74041000D02*
X166179500Y-65491360D01*
D43*
X175641000Y-91186000D02*
X178181000Y-91186000D01*
X178181000Y-91186000D02*
X180721000Y-91186000D01*
D42*
X164696140Y-76581000D02*
X165544500Y-76581000D01*
X164696140Y-76581000D02*
X164696140Y-75524360D01*
X166179500Y-65491360D02*
X164569140Y-63881000D01*
X164569140Y-63881000D02*
X167472360Y-63881000D01*
X167472360Y-63881000D02*
X169545000Y-61808360D01*
D40*
X192468500Y-64767460D02*
X192468500Y-62903100D01*
X199030600Y-60350400D02*
X200199000Y-59182000D01*
X195884800Y-60350400D02*
X199030600Y-60350400D01*
X195630800Y-60096400D02*
X195884800Y-60350400D01*
X192468500Y-62903100D02*
X192735200Y-62636400D01*
D38*
X200199000Y-56769000D02*
X199466200Y-56769000D01*
X199466200Y-56769000D02*
X199085200Y-56388000D01*
X199085200Y-56388000D02*
X199085200Y-53238400D01*
D41*
X205384400Y-51968400D02*
X205333600Y-52019200D01*
X190195200Y-46126400D02*
X190169800Y-46151800D01*
X190169800Y-46151800D02*
X190195200Y-46126400D01*
X190195200Y-46126400D02*
X190195200Y-46177200D01*
D39*
X182245000Y-74231500D02*
X182245000Y-74168000D01*
X182312500Y-74299000D02*
X182245000Y-74231500D01*
X184138500Y-74299000D02*
X182312500Y-74299000D01*
X182245000Y-74168000D02*
X181800500Y-73723500D01*
X184138500Y-75299000D02*
X180582000Y-75299000D01*
X180149500Y-74866500D02*
X180149500Y-74803000D01*
X180582000Y-75299000D02*
X180149500Y-74866500D01*
D41*
X179197000Y-63817500D02*
X179197000Y-62039500D01*
X179197000Y-62039500D02*
X180594000Y-60642500D01*
X180594000Y-60642500D02*
X181356000Y-60642500D01*
X183515000Y-48895000D02*
X183578500Y-48831500D01*
X178648360Y-68961000D02*
X178648360Y-64366140D01*
X178648360Y-64366140D02*
X179197000Y-63817500D01*
D40*
X190961000Y-48387000D02*
X190961000Y-50155000D01*
X190961000Y-50155000D02*
X191889500Y-51083500D01*
D44*
X186392820Y-45339000D02*
X189357000Y-45339000D01*
X190961000Y-46943000D02*
X190961000Y-48387000D01*
X189357000Y-45339000D02*
X190195200Y-46177200D01*
X190195200Y-46177200D02*
X190961000Y-46943000D01*
D40*
X192468500Y-67058540D02*
X197069460Y-67058540D01*
X197069460Y-67058540D02*
X197358000Y-66770000D01*
D39*
X192468500Y-67058540D02*
X191462660Y-67058540D01*
X191462660Y-67058540D02*
X190703200Y-67818000D01*
X194721800Y-75799000D02*
X190638500Y-75799000D01*
X195021200Y-76098400D02*
X194721800Y-75799000D01*
X198424800Y-74574400D02*
X195630800Y-74574400D01*
X198526400Y-74472800D02*
X198424800Y-74574400D01*
X197069460Y-67058540D02*
X197358000Y-66770000D01*
D40*
X184138500Y-75799000D02*
X177749520Y-75799000D01*
X177749520Y-75799000D02*
X177538380Y-75587860D01*
D38*
X177538380Y-75587860D02*
X177538380Y-73227880D01*
X177538380Y-73227880D02*
X177462500Y-73152000D01*
D40*
X177538380Y-79987140D02*
X178775360Y-79987140D01*
X182463500Y-76299000D02*
X184138500Y-76299000D01*
X178775360Y-79987140D02*
X182463500Y-76299000D01*
D38*
X177538380Y-79987140D02*
X177538380Y-81990880D01*
X177538380Y-81990880D02*
X177907000Y-82359500D01*
D39*
X172618400Y-54254400D02*
X170260000Y-51896000D01*
X170260000Y-51896000D02*
X170180000Y-51896000D01*
X159604500Y-52355500D02*
X166404500Y-52355500D01*
X166404500Y-52355500D02*
X169720500Y-52355500D01*
X169720500Y-52355500D02*
X170180000Y-51896000D01*
X200703500Y-78930500D02*
X200703500Y-77553500D01*
X187138500Y-72838500D02*
X187138500Y-71299000D01*
X187642500Y-73279000D02*
X187138500Y-72838500D01*
X200703500Y-77553500D02*
X200723500Y-77533500D01*
X198247000Y-84899500D02*
X198247000Y-78974000D01*
X198247000Y-78974000D02*
X198203500Y-78930500D01*
D40*
X202962500Y-51943000D02*
X203327000Y-51943000D01*
X203327000Y-51943000D02*
X206629000Y-48641000D01*
X207708500Y-41846500D02*
X207708500Y-39497000D01*
X206629000Y-42926000D02*
X207708500Y-41846500D01*
X206629000Y-48641000D02*
X206629000Y-42926000D01*
X202862500Y-54483000D02*
X202862500Y-52043000D01*
X202862500Y-52043000D02*
X202962500Y-51943000D01*
D38*
X155915360Y-57213500D02*
X160257500Y-57213500D01*
D11*
X183261000Y-88646000D02*
X183261000Y-86487000D01*
X185864500Y-72771000D02*
X184138500Y-72799000D01*
X185928000Y-75057000D02*
X185864500Y-72771000D01*
X179768500Y-83375500D02*
X183007000Y-83375500D01*
X175641000Y-87503000D02*
X179768500Y-83375500D01*
X175641000Y-88646000D02*
X175641000Y-87503000D01*
X185638500Y-80744000D02*
X185638500Y-77799000D01*
X183007000Y-83375500D02*
X185638500Y-80744000D01*
X173101000Y-88646000D02*
X173101000Y-88074500D01*
X173101000Y-88074500D02*
X174942500Y-86233000D01*
X178689000Y-86169500D02*
X180848000Y-84010500D01*
X180848000Y-84010500D02*
X183197500Y-84010500D01*
X183197500Y-84010500D02*
X186138500Y-81069500D01*
X186138500Y-81069500D02*
X186138500Y-77799000D01*
D39*
X186638500Y-75934000D02*
X186638500Y-77799000D01*
X187325000Y-75247500D02*
X186638500Y-75934000D01*
D11*
X187138500Y-77799000D02*
X187138500Y-76513500D01*
X187769500Y-75882500D02*
X188277500Y-75882500D01*
X187138500Y-76513500D02*
X187769500Y-75882500D01*
X178181000Y-88646000D02*
X178181000Y-88265000D01*
X178181000Y-88265000D02*
X181673500Y-84772500D01*
X181673500Y-84772500D02*
X184531000Y-84772500D01*
X184531000Y-84772500D02*
X187638500Y-81665000D01*
X187638500Y-81665000D02*
X187638500Y-77799000D01*
X180721000Y-88646000D02*
X180721000Y-87122000D01*
X188138500Y-81927000D02*
X188138500Y-77799000D01*
X184594500Y-85471000D02*
X188138500Y-81927000D01*
X182372000Y-85471000D02*
X184594500Y-85471000D01*
X180721000Y-87122000D02*
X182372000Y-85471000D01*
D39*
X200787000Y-87439500D02*
X200787000Y-88836500D01*
X188638500Y-80498000D02*
X188638500Y-77799000D01*
X189484000Y-81343500D02*
X188638500Y-80498000D01*
X192214500Y-81343500D02*
X189484000Y-81343500D01*
X193294000Y-82423000D02*
X192214500Y-81343500D01*
X193294000Y-87630000D02*
X193294000Y-82423000D01*
X195199000Y-89535000D02*
X193294000Y-87630000D01*
X200088500Y-89535000D02*
X195199000Y-89535000D01*
X200787000Y-88836500D02*
X200088500Y-89535000D01*
X189138500Y-77799000D02*
X189138500Y-80109000D01*
X203327000Y-82867500D02*
X203327000Y-84899500D01*
X194056000Y-82296000D02*
X194056000Y-82740500D01*
X192468500Y-80708500D02*
X194056000Y-82296000D01*
X189738000Y-80708500D02*
X192468500Y-80708500D01*
X189138500Y-80109000D02*
X189738000Y-80708500D01*
X200787000Y-84899500D02*
X200787000Y-82423000D01*
X191579500Y-76327000D02*
X190666500Y-76327000D01*
X191706500Y-76454000D02*
X191579500Y-76327000D01*
X192532000Y-77279500D02*
X191706500Y-76454000D01*
X192532000Y-78867000D02*
X192532000Y-77279500D01*
X195262500Y-81597500D02*
X192532000Y-78867000D01*
X200787000Y-82423000D02*
X200152000Y-81788000D01*
X190666500Y-76327000D02*
X190638500Y-76299000D01*
X190638500Y-75299000D02*
X199084500Y-75299000D01*
X199084500Y-75299000D02*
X199390000Y-74993500D01*
X190638500Y-73799000D02*
X199338500Y-73799000D01*
X209296000Y-74041000D02*
X207708500Y-72453500D01*
X209296000Y-76200000D02*
X209296000Y-74041000D01*
X207708500Y-77787500D02*
X209296000Y-76200000D01*
X203327000Y-77787500D02*
X207708500Y-77787500D01*
X199338500Y-73799000D02*
X203327000Y-77787500D01*
X190638500Y-73299000D02*
X192956500Y-73299000D01*
X203009500Y-67500500D02*
X205041500Y-67500500D01*
X201231500Y-69278500D02*
X203009500Y-67500500D01*
X200152000Y-70358000D02*
X201231500Y-69278500D01*
X199917002Y-70358000D02*
X200152000Y-70358000D01*
X195897500Y-70358000D02*
X199917002Y-70358000D01*
X192956500Y-73299000D02*
X195897500Y-70358000D01*
X205041500Y-67500500D02*
X205168500Y-67373500D01*
X190638500Y-72799000D02*
X192758000Y-72799000D01*
X207708500Y-65849500D02*
X207708500Y-67373500D01*
X206629000Y-64770000D02*
X207708500Y-65849500D01*
X202311000Y-64770000D02*
X206629000Y-64770000D01*
X200914000Y-66167000D02*
X202311000Y-64770000D01*
X200914000Y-68961000D02*
X200914000Y-66167000D01*
X200025000Y-69850000D02*
X200914000Y-68961000D01*
X195707000Y-69850000D02*
X200025000Y-69850000D01*
X192758000Y-72799000D02*
X195707000Y-69850000D01*
D40*
X189138500Y-71299000D02*
X189138500Y-70703500D01*
X189138500Y-70703500D02*
X189611000Y-70231000D01*
X189611000Y-70231000D02*
X193230500Y-70231000D01*
X189738000Y-69278500D02*
X188638500Y-69806500D01*
X188638500Y-69806500D02*
X188638500Y-71299000D01*
D39*
X191889500Y-51733500D02*
X188804500Y-51733500D01*
X188785500Y-51752500D02*
X188804500Y-51733500D01*
X205105000Y-56832500D02*
X206819500Y-56832500D01*
X206819500Y-56832500D02*
X207645000Y-56007000D01*
X202899000Y-56769000D02*
X205041500Y-56769000D01*
X205041500Y-56769000D02*
X205105000Y-56832500D01*
X191325500Y-68580000D02*
X194373500Y-68580000D01*
X194373500Y-68580000D02*
X199136000Y-68580000D01*
X205105000Y-56832500D02*
X205168500Y-56769000D01*
X205105000Y-62611000D02*
X205105000Y-56832500D01*
X203962000Y-63754000D02*
X205105000Y-62611000D01*
X202184000Y-63754000D02*
X203962000Y-63754000D01*
X200215500Y-65722500D02*
X202184000Y-63754000D01*
X200215500Y-67500500D02*
X200215500Y-65722500D01*
X199136000Y-68580000D02*
X200215500Y-67500500D01*
X188138500Y-71299000D02*
X188138500Y-69671500D01*
X191262000Y-68643500D02*
X191325500Y-68580000D01*
X191325500Y-68580000D02*
X191389000Y-68516500D01*
X189166500Y-68643500D02*
X191262000Y-68643500D01*
X188138500Y-69671500D02*
X189166500Y-68643500D01*
X191516000Y-61531500D02*
X189611000Y-59626500D01*
X189996000Y-52383500D02*
X191889500Y-52383500D01*
X189738000Y-52641500D02*
X189996000Y-52383500D01*
X189611000Y-59626500D02*
X189611000Y-56261000D01*
X189801500Y-68008500D02*
X189801500Y-63309500D01*
X202899000Y-60913000D02*
X202899000Y-59182000D01*
X203009500Y-61023500D02*
X202899000Y-60913000D01*
X195008500Y-61023500D02*
X203009500Y-61023500D01*
X194500500Y-61531500D02*
X195008500Y-61023500D01*
X191579500Y-61531500D02*
X191516000Y-61531500D01*
X191516000Y-61531500D02*
X194500500Y-61531500D01*
X189801500Y-63309500D02*
X191579500Y-61531500D01*
X187638500Y-71299000D02*
X187638500Y-69409500D01*
X189039500Y-68008500D02*
X189801500Y-68008500D01*
X189801500Y-68008500D02*
X189865000Y-68008500D01*
X187638500Y-69409500D02*
X189039500Y-68008500D01*
D40*
X186638500Y-71299000D02*
X186638500Y-69774500D01*
X187706000Y-64389000D02*
X186309000Y-64389000D01*
X188214000Y-64897000D02*
X187706000Y-64389000D01*
X188214000Y-68199000D02*
X188214000Y-64897000D01*
X186638500Y-69774500D02*
X188214000Y-68199000D01*
X186138500Y-71299000D02*
X186138500Y-67099500D01*
X186138500Y-67099500D02*
X186309000Y-66929000D01*
D11*
X193421000Y-94234000D02*
X193421000Y-89979500D01*
X185638500Y-72362000D02*
X185638500Y-71299000D01*
X185610500Y-72390000D02*
X185638500Y-72362000D01*
X186118500Y-72390000D02*
X185610500Y-72390000D01*
X186436000Y-72707500D02*
X186118500Y-72390000D01*
X186436000Y-73342500D02*
X186436000Y-72707500D01*
X186817000Y-73723500D02*
X186436000Y-73342500D01*
X193421000Y-89979500D02*
X193357500Y-89916000D01*
D43*
X158188660Y-76517500D02*
X157416500Y-76517500D01*
X157416500Y-76517500D02*
X155397200Y-78536800D01*
X165100000Y-94234000D02*
X173101000Y-94234000D01*
X161493200Y-90627200D02*
X165100000Y-94234000D01*
X161493200Y-88747600D02*
X161493200Y-90627200D01*
X155397200Y-82651600D02*
X161493200Y-88747600D01*
X155397200Y-78536800D02*
X155397200Y-82651600D01*
X158188660Y-76517500D02*
X158188660Y-76146660D01*
X158188660Y-76146660D02*
X150431500Y-68389500D01*
X151828500Y-36957000D02*
X153987500Y-36957000D01*
X150431500Y-38354000D02*
X151828500Y-36957000D01*
X150431500Y-68389500D02*
X150431500Y-38354000D01*
X204216000Y-36957000D02*
X207708500Y-36957000D01*
X173101000Y-94234000D02*
X175641000Y-94234000D01*
X175641000Y-94234000D02*
X178181000Y-94234000D01*
X178181000Y-94234000D02*
X180721000Y-94234000D01*
X180721000Y-94234000D02*
X183261000Y-94234000D01*
X158188660Y-76517500D02*
X158188660Y-76400660D01*
X153987500Y-36957000D02*
X157480000Y-36957000D01*
X157480000Y-36957000D02*
X160972500Y-36957000D01*
X160972500Y-36957000D02*
X164465000Y-36957000D01*
X164465000Y-36957000D02*
X167957500Y-36957000D01*
X167957500Y-36957000D02*
X171450000Y-36957000D01*
X171450000Y-36957000D02*
X174942500Y-36957000D01*
X174942500Y-36957000D02*
X178435000Y-36957000D01*
X178435000Y-36957000D02*
X183261000Y-36957000D01*
X183261000Y-36957000D02*
X186753500Y-36957000D01*
X186753500Y-36957000D02*
X190246000Y-36957000D01*
X190246000Y-36957000D02*
X193738500Y-36957000D01*
X193738500Y-36957000D02*
X197231000Y-36957000D01*
X197231000Y-36957000D02*
X200723500Y-36957000D01*
X200723500Y-36957000D02*
X204216000Y-36957000D01*
D39*
X186189500Y-54333500D02*
X185143500Y-54333500D01*
X178435000Y-47625000D02*
X178435000Y-39497000D01*
X185143500Y-54333500D02*
X178435000Y-47625000D01*
X186189500Y-54983500D02*
X184968000Y-54983500D01*
X174942500Y-44958000D02*
X174942500Y-39497000D01*
X184968000Y-54983500D02*
X174942500Y-44958000D01*
X186189500Y-55633500D02*
X184348000Y-55633500D01*
X171450000Y-42735500D02*
X171450000Y-39497000D01*
X184348000Y-55633500D02*
X171450000Y-42735500D01*
X186189500Y-56283500D02*
X183982000Y-56283500D01*
X167957500Y-41529000D02*
X167957500Y-39497000D01*
X168783000Y-42354500D02*
X167957500Y-41529000D01*
X170053000Y-42354500D02*
X168783000Y-42354500D01*
X183982000Y-56283500D02*
X170053000Y-42354500D01*
X186189500Y-56933500D02*
X183679500Y-56933500D01*
X164465000Y-41783000D02*
X164465000Y-39497000D01*
X165798500Y-43116500D02*
X164465000Y-41783000D01*
X169862500Y-43116500D02*
X165798500Y-43116500D01*
X183679500Y-56933500D02*
X169862500Y-43116500D01*
X186189500Y-57583500D02*
X183377000Y-57583500D01*
X160972500Y-41719500D02*
X160972500Y-39497000D01*
X163258500Y-44005500D02*
X160972500Y-41719500D01*
X169799000Y-44005500D02*
X163258500Y-44005500D01*
X183377000Y-57583500D02*
X169799000Y-44005500D01*
X186189500Y-58233500D02*
X183074500Y-58233500D01*
X157480000Y-41529000D02*
X157480000Y-39497000D01*
X160528000Y-44577000D02*
X157480000Y-41529000D01*
X169418000Y-44577000D02*
X160528000Y-44577000D01*
X183074500Y-58233500D02*
X169418000Y-44577000D01*
X186189500Y-58883500D02*
X182899000Y-58883500D01*
X153987500Y-41973500D02*
X153987500Y-39497000D01*
X157162500Y-45148500D02*
X153987500Y-41973500D01*
X169164000Y-45148500D02*
X157162500Y-45148500D01*
X182899000Y-58883500D02*
X169164000Y-45148500D01*
D40*
X202962500Y-49403000D02*
X204089000Y-49403000D01*
X204216000Y-42037000D02*
X204216000Y-39497000D01*
X205105000Y-42926000D02*
X204216000Y-42037000D01*
X205105000Y-48387000D02*
X205105000Y-42926000D01*
X204089000Y-49403000D02*
X205105000Y-48387000D01*
X191889500Y-58233500D02*
X194496500Y-58233500D01*
X200660000Y-41783000D02*
X200660000Y-39560500D01*
X200025000Y-42418000D02*
X200660000Y-41783000D01*
X198120000Y-42418000D02*
X200025000Y-42418000D01*
X197104000Y-43434000D02*
X198120000Y-42418000D01*
X197104000Y-55626000D02*
X197104000Y-43434000D01*
X194496500Y-58233500D02*
X197104000Y-55626000D01*
X200660000Y-39560500D02*
X200723500Y-39497000D01*
X191889500Y-57583500D02*
X194257500Y-57583500D01*
X197231000Y-42291000D02*
X197231000Y-39497000D01*
X196469000Y-43053000D02*
X197231000Y-42291000D01*
X196469000Y-55372000D02*
X196469000Y-43053000D01*
X194257500Y-57583500D02*
X196469000Y-55372000D01*
X191889500Y-56933500D02*
X194018500Y-56933500D01*
X193738500Y-44894500D02*
X193738500Y-39497000D01*
X195834000Y-46990000D02*
X193738500Y-44894500D01*
X195834000Y-55118000D02*
X195834000Y-46990000D01*
X194018500Y-56933500D02*
X195834000Y-55118000D01*
X191889500Y-56283500D02*
X193779500Y-56283500D01*
X190246000Y-42291000D02*
X190246000Y-39497000D01*
X195199000Y-47244000D02*
X190246000Y-42291000D01*
X195199000Y-54864000D02*
X195199000Y-47244000D01*
X193779500Y-56283500D02*
X195199000Y-54864000D01*
X191889500Y-55633500D02*
X193540500Y-55633500D01*
X186753500Y-41211500D02*
X186753500Y-39497000D01*
X188087000Y-42545000D02*
X186753500Y-41211500D01*
X189611000Y-42545000D02*
X188087000Y-42545000D01*
X194564000Y-47498000D02*
X189611000Y-42545000D01*
X194564000Y-54610000D02*
X194564000Y-47498000D01*
X193540500Y-55633500D02*
X194564000Y-54610000D01*
X191889500Y-54983500D02*
X193301500Y-54983500D01*
X183261000Y-42164000D02*
X183261000Y-39497000D01*
X184404000Y-43307000D02*
X183261000Y-42164000D01*
X189611000Y-43307000D02*
X184404000Y-43307000D01*
X193929000Y-47625000D02*
X189611000Y-43307000D01*
X193929000Y-54356000D02*
X193929000Y-47625000D01*
X193301500Y-54983500D02*
X193929000Y-54356000D01*
X191889500Y-59533500D02*
X195101500Y-59533500D01*
X199263000Y-51943000D02*
X200262500Y-51943000D01*
X198374000Y-52832000D02*
X199263000Y-51943000D01*
X198374000Y-56261000D02*
X198374000Y-52832000D01*
X195101500Y-59533500D02*
X198374000Y-56261000D01*
X191889500Y-58883500D02*
X194735500Y-58883500D01*
X198755000Y-49403000D02*
X200262500Y-49403000D01*
X197739000Y-50419000D02*
X198755000Y-49403000D01*
X197739000Y-55880000D02*
X197739000Y-50419000D01*
X194735500Y-58883500D02*
X197739000Y-55880000D01*
D11*
X191889500Y-54333500D02*
X190649500Y-54333500D01*
X198374000Y-46990000D02*
X200326000Y-46990000D01*
X190627000Y-54356000D02*
X190563500Y-54356000D01*
X190649500Y-54333500D02*
X190627000Y-54356000D01*
D40*
X186189500Y-51083500D02*
X186189500Y-50458500D01*
X186189500Y-50458500D02*
X188261000Y-48387000D01*
D11*
X191889500Y-53683500D02*
X186189500Y-53683500D01*
X186189500Y-53683500D02*
X186189500Y-53033500D01*
X186189500Y-53033500D02*
X186189500Y-52383500D01*
X186189500Y-52383500D02*
X186189500Y-51733500D01*
X186189500Y-51733500D02*
X186189500Y-51083500D01*
X186189500Y-51083500D02*
X186028500Y-51244500D01*
D45*
G36*
X210618000Y-51261840D02*
X210342147Y-63491287D01*
X210351036Y-63540910D01*
X210378531Y-63583165D01*
X210420300Y-63611395D01*
X210464089Y-63621052D01*
X210488884Y-63622034D01*
X210486066Y-63998952D01*
X210495702Y-64048436D01*
X210523830Y-64090272D01*
X210566020Y-64117868D01*
X210615621Y-64126876D01*
X210618000Y-64126344D01*
X210618000Y-90500200D01*
X210413980Y-90500200D01*
X210364570Y-90510206D01*
X210322945Y-90538647D01*
X210315272Y-90550571D01*
X194131000Y-90480205D01*
X194131000Y-90464986D01*
X194149692Y-90446327D01*
X194292338Y-90102799D01*
X194292662Y-89730833D01*
X194248496Y-89623943D01*
X194679277Y-90054724D01*
X194917728Y-90214051D01*
X195199000Y-90270000D01*
X200088500Y-90270000D01*
X200369772Y-90214051D01*
X200608223Y-90054723D01*
X201222179Y-89440767D01*
X205058838Y-89440767D01*
X205200883Y-89784543D01*
X205463673Y-90047792D01*
X205807201Y-90190438D01*
X206179167Y-90190762D01*
X206522943Y-90048717D01*
X206786192Y-89785927D01*
X206928838Y-89442399D01*
X206929162Y-89070433D01*
X206787117Y-88726657D01*
X206524327Y-88463408D01*
X206180799Y-88320762D01*
X205808833Y-88320438D01*
X205465057Y-88462483D01*
X205201808Y-88725273D01*
X205059162Y-89068801D01*
X205058838Y-89440767D01*
X201222179Y-89440767D01*
X201306723Y-89356224D01*
X201466051Y-89117772D01*
X201483220Y-89031457D01*
X201522000Y-88836500D01*
X201522000Y-88745467D01*
X201846670Y-88528529D01*
X202062664Y-88205272D01*
X202120179Y-88327990D01*
X202552053Y-88722188D01*
X202967974Y-88894458D01*
X203200000Y-88773317D01*
X203200000Y-87566500D01*
X203454000Y-87566500D01*
X203454000Y-88773317D01*
X203686026Y-88894458D01*
X204101947Y-88722188D01*
X204533821Y-88327990D01*
X204781968Y-87798527D01*
X204661469Y-87566500D01*
X203454000Y-87566500D01*
X203200000Y-87566500D01*
X203180000Y-87566500D01*
X203180000Y-87312500D01*
X203200000Y-87312500D01*
X203200000Y-87292500D01*
X203454000Y-87292500D01*
X203454000Y-87312500D01*
X204661469Y-87312500D01*
X204781968Y-87080473D01*
X204533821Y-86551010D01*
X204347567Y-86381005D01*
X204425917Y-86366262D01*
X204642041Y-86227190D01*
X204787031Y-86014990D01*
X204838040Y-85763100D01*
X204838040Y-84035900D01*
X204793762Y-83800583D01*
X204654690Y-83584459D01*
X204442490Y-83439469D01*
X204190600Y-83388460D01*
X204123082Y-83388460D01*
X204261838Y-83054299D01*
X204262162Y-82682333D01*
X204120117Y-82338557D01*
X203857327Y-82075308D01*
X203513799Y-81932662D01*
X203141833Y-81932338D01*
X202798057Y-82074383D01*
X202534808Y-82337173D01*
X202392162Y-82680701D01*
X202391838Y-83052667D01*
X202530584Y-83388460D01*
X202463400Y-83388460D01*
X202228083Y-83432738D01*
X202011959Y-83571810D01*
X201866969Y-83784010D01*
X201858136Y-83827631D01*
X201846670Y-83810471D01*
X201522000Y-83593533D01*
X201522000Y-82423000D01*
X201466051Y-82141728D01*
X201432022Y-82090800D01*
X201306724Y-81903277D01*
X201087092Y-81683645D01*
X201087162Y-81602833D01*
X200945117Y-81259057D01*
X200682327Y-80995808D01*
X200338799Y-80853162D01*
X199966833Y-80852838D01*
X199623057Y-80994883D01*
X199359808Y-81257673D01*
X199217162Y-81601201D01*
X199216838Y-81973167D01*
X199358883Y-82316943D01*
X199621673Y-82580192D01*
X199965201Y-82722838D01*
X200047463Y-82722910D01*
X200052000Y-82727447D01*
X200052000Y-83593533D01*
X199727330Y-83810471D01*
X199517000Y-84125252D01*
X199306670Y-83810471D01*
X198982000Y-83593533D01*
X198982000Y-80197577D01*
X199188817Y-80158662D01*
X199404941Y-80019590D01*
X199452634Y-79949789D01*
X199489410Y-80006941D01*
X199701610Y-80151931D01*
X199953500Y-80202940D01*
X201453500Y-80202940D01*
X201688817Y-80158662D01*
X201904941Y-80019590D01*
X202049931Y-79807390D01*
X202100940Y-79555500D01*
X202100940Y-78305500D01*
X202056662Y-78070183D01*
X201917590Y-77854059D01*
X201705390Y-77709069D01*
X201658356Y-77699544D01*
X201658662Y-77348333D01*
X201525071Y-77025018D01*
X202807277Y-78307224D01*
X202962256Y-78410777D01*
X203045728Y-78466551D01*
X203327000Y-78522500D01*
X207708500Y-78522500D01*
X207989772Y-78466551D01*
X208228223Y-78307223D01*
X209815723Y-76719724D01*
X209975051Y-76481272D01*
X209980531Y-76453723D01*
X210031000Y-76200000D01*
X210031000Y-74041000D01*
X209975051Y-73759728D01*
X209930671Y-73693308D01*
X209815723Y-73521276D01*
X209155410Y-72860963D01*
X209236459Y-72453500D01*
X209122385Y-71880011D01*
X208797529Y-71393830D01*
X208482748Y-71183500D01*
X208797529Y-70973170D01*
X209122385Y-70486989D01*
X209236459Y-69913500D01*
X209122385Y-69340011D01*
X208797529Y-68853830D01*
X208482748Y-68643500D01*
X208797529Y-68433170D01*
X209122385Y-67946989D01*
X209236459Y-67373500D01*
X209122385Y-66800011D01*
X208797529Y-66313830D01*
X208443500Y-66077275D01*
X208443500Y-65849500D01*
X208387551Y-65568228D01*
X208354063Y-65518110D01*
X208228224Y-65329777D01*
X207148723Y-64250277D01*
X206910272Y-64090949D01*
X206905084Y-64089917D01*
X206629000Y-64035000D01*
X206527156Y-64035000D01*
X206664494Y-63897902D01*
X206683801Y-63885001D01*
X206696589Y-63865862D01*
X206735392Y-63827127D01*
X206756604Y-63776044D01*
X206848548Y-63638439D01*
X206906400Y-63347600D01*
X206878280Y-63206230D01*
X206878362Y-63111633D01*
X206736317Y-62767857D01*
X206473527Y-62504608D01*
X206129999Y-62361962D01*
X205840000Y-62361709D01*
X205840000Y-57567500D01*
X206347017Y-57567500D01*
X206075729Y-57973511D01*
X205961655Y-58547000D01*
X206075729Y-59120489D01*
X206400585Y-59606670D01*
X206715366Y-59817000D01*
X206400585Y-60027330D01*
X206075729Y-60513511D01*
X205961655Y-61087000D01*
X206075729Y-61660489D01*
X206400585Y-62146670D01*
X206886766Y-62471526D01*
X207460255Y-62585600D01*
X207829745Y-62585600D01*
X208403234Y-62471526D01*
X208889415Y-62146670D01*
X209214271Y-61660489D01*
X209328345Y-61087000D01*
X209214271Y-60513511D01*
X208889415Y-60027330D01*
X208574634Y-59817000D01*
X208889415Y-59606670D01*
X209214271Y-59120489D01*
X209328345Y-58547000D01*
X209214271Y-57973511D01*
X208889415Y-57487330D01*
X208574634Y-57277000D01*
X208889415Y-57066670D01*
X209214271Y-56580489D01*
X209328345Y-56007000D01*
X209214271Y-55433511D01*
X208889415Y-54947330D01*
X208867220Y-54932500D01*
X209020698Y-54868927D01*
X209199327Y-54690299D01*
X209296000Y-54456910D01*
X209296000Y-53752750D01*
X209137250Y-53594000D01*
X207772000Y-53594000D01*
X207772000Y-53614000D01*
X207518000Y-53614000D01*
X207518000Y-53594000D01*
X206152750Y-53594000D01*
X205994000Y-53752750D01*
X205994000Y-54456910D01*
X206090673Y-54690299D01*
X206269302Y-54868927D01*
X206422780Y-54932500D01*
X206400585Y-54947330D01*
X206075729Y-55433511D01*
X205961655Y-56007000D01*
X205979657Y-56097500D01*
X205461074Y-56097500D01*
X205449773Y-56089949D01*
X205168500Y-56034000D01*
X205105000Y-56046631D01*
X205041500Y-56034000D01*
X204280446Y-56034000D01*
X204252162Y-55883683D01*
X204113090Y-55667559D01*
X204017296Y-55602106D01*
X204063941Y-55572090D01*
X204208931Y-55359890D01*
X204239751Y-55207697D01*
X204337283Y-55443743D01*
X204600073Y-55706992D01*
X204943601Y-55849638D01*
X205315567Y-55849962D01*
X205659343Y-55707917D01*
X205922592Y-55445127D01*
X206065238Y-55101599D01*
X206065562Y-54729633D01*
X205923517Y-54385857D01*
X205660727Y-54122608D01*
X205317199Y-53979962D01*
X204945233Y-53979638D01*
X204601457Y-54121683D01*
X204338208Y-54384473D01*
X204259940Y-54572962D01*
X204259940Y-53858000D01*
X204215662Y-53622683D01*
X204076590Y-53406559D01*
X203864390Y-53261569D01*
X203737149Y-53235802D01*
X203947817Y-53196162D01*
X204163941Y-53057090D01*
X204308931Y-52844890D01*
X204359940Y-52593000D01*
X204359940Y-52477090D01*
X205994000Y-52477090D01*
X205994000Y-53181250D01*
X206152750Y-53340000D01*
X207518000Y-53340000D01*
X207518000Y-52127150D01*
X207772000Y-52127150D01*
X207772000Y-53340000D01*
X209137250Y-53340000D01*
X209296000Y-53181250D01*
X209296000Y-52477090D01*
X209199327Y-52243701D01*
X209020698Y-52065073D01*
X208787309Y-51968400D01*
X207930750Y-51968400D01*
X207772000Y-52127150D01*
X207518000Y-52127150D01*
X207359250Y-51968400D01*
X206502691Y-51968400D01*
X206269302Y-52065073D01*
X206090673Y-52243701D01*
X205994000Y-52477090D01*
X204359940Y-52477090D01*
X204359940Y-51984862D01*
X205930604Y-50414198D01*
X210618000Y-50320450D01*
X210618000Y-51261840D01*
X210618000Y-51261840D01*
G37*
X210618000Y-51261840D02*
X210342147Y-63491287D01*
X210351036Y-63540910D01*
X210378531Y-63583165D01*
X210420300Y-63611395D01*
X210464089Y-63621052D01*
X210488884Y-63622034D01*
X210486066Y-63998952D01*
X210495702Y-64048436D01*
X210523830Y-64090272D01*
X210566020Y-64117868D01*
X210615621Y-64126876D01*
X210618000Y-64126344D01*
X210618000Y-90500200D01*
X210413980Y-90500200D01*
X210364570Y-90510206D01*
X210322945Y-90538647D01*
X210315272Y-90550571D01*
X194131000Y-90480205D01*
X194131000Y-90464986D01*
X194149692Y-90446327D01*
X194292338Y-90102799D01*
X194292662Y-89730833D01*
X194248496Y-89623943D01*
X194679277Y-90054724D01*
X194917728Y-90214051D01*
X195199000Y-90270000D01*
X200088500Y-90270000D01*
X200369772Y-90214051D01*
X200608223Y-90054723D01*
X201222179Y-89440767D01*
X205058838Y-89440767D01*
X205200883Y-89784543D01*
X205463673Y-90047792D01*
X205807201Y-90190438D01*
X206179167Y-90190762D01*
X206522943Y-90048717D01*
X206786192Y-89785927D01*
X206928838Y-89442399D01*
X206929162Y-89070433D01*
X206787117Y-88726657D01*
X206524327Y-88463408D01*
X206180799Y-88320762D01*
X205808833Y-88320438D01*
X205465057Y-88462483D01*
X205201808Y-88725273D01*
X205059162Y-89068801D01*
X205058838Y-89440767D01*
X201222179Y-89440767D01*
X201306723Y-89356224D01*
X201466051Y-89117772D01*
X201483220Y-89031457D01*
X201522000Y-88836500D01*
X201522000Y-88745467D01*
X201846670Y-88528529D01*
X202062664Y-88205272D01*
X202120179Y-88327990D01*
X202552053Y-88722188D01*
X202967974Y-88894458D01*
X203200000Y-88773317D01*
X203200000Y-87566500D01*
X203454000Y-87566500D01*
X203454000Y-88773317D01*
X203686026Y-88894458D01*
X204101947Y-88722188D01*
X204533821Y-88327990D01*
X204781968Y-87798527D01*
X204661469Y-87566500D01*
X203454000Y-87566500D01*
X203200000Y-87566500D01*
X203180000Y-87566500D01*
X203180000Y-87312500D01*
X203200000Y-87312500D01*
X203200000Y-87292500D01*
X203454000Y-87292500D01*
X203454000Y-87312500D01*
X204661469Y-87312500D01*
X204781968Y-87080473D01*
X204533821Y-86551010D01*
X204347567Y-86381005D01*
X204425917Y-86366262D01*
X204642041Y-86227190D01*
X204787031Y-86014990D01*
X204838040Y-85763100D01*
X204838040Y-84035900D01*
X204793762Y-83800583D01*
X204654690Y-83584459D01*
X204442490Y-83439469D01*
X204190600Y-83388460D01*
X204123082Y-83388460D01*
X204261838Y-83054299D01*
X204262162Y-82682333D01*
X204120117Y-82338557D01*
X203857327Y-82075308D01*
X203513799Y-81932662D01*
X203141833Y-81932338D01*
X202798057Y-82074383D01*
X202534808Y-82337173D01*
X202392162Y-82680701D01*
X202391838Y-83052667D01*
X202530584Y-83388460D01*
X202463400Y-83388460D01*
X202228083Y-83432738D01*
X202011959Y-83571810D01*
X201866969Y-83784010D01*
X201858136Y-83827631D01*
X201846670Y-83810471D01*
X201522000Y-83593533D01*
X201522000Y-82423000D01*
X201466051Y-82141728D01*
X201432022Y-82090800D01*
X201306724Y-81903277D01*
X201087092Y-81683645D01*
X201087162Y-81602833D01*
X200945117Y-81259057D01*
X200682327Y-80995808D01*
X200338799Y-80853162D01*
X199966833Y-80852838D01*
X199623057Y-80994883D01*
X199359808Y-81257673D01*
X199217162Y-81601201D01*
X199216838Y-81973167D01*
X199358883Y-82316943D01*
X199621673Y-82580192D01*
X199965201Y-82722838D01*
X200047463Y-82722910D01*
X200052000Y-82727447D01*
X200052000Y-83593533D01*
X199727330Y-83810471D01*
X199517000Y-84125252D01*
X199306670Y-83810471D01*
X198982000Y-83593533D01*
X198982000Y-80197577D01*
X199188817Y-80158662D01*
X199404941Y-80019590D01*
X199452634Y-79949789D01*
X199489410Y-80006941D01*
X199701610Y-80151931D01*
X199953500Y-80202940D01*
X201453500Y-80202940D01*
X201688817Y-80158662D01*
X201904941Y-80019590D01*
X202049931Y-79807390D01*
X202100940Y-79555500D01*
X202100940Y-78305500D01*
X202056662Y-78070183D01*
X201917590Y-77854059D01*
X201705390Y-77709069D01*
X201658356Y-77699544D01*
X201658662Y-77348333D01*
X201525071Y-77025018D01*
X202807277Y-78307224D01*
X202962256Y-78410777D01*
X203045728Y-78466551D01*
X203327000Y-78522500D01*
X207708500Y-78522500D01*
X207989772Y-78466551D01*
X208228223Y-78307223D01*
X209815723Y-76719724D01*
X209975051Y-76481272D01*
X209980531Y-76453723D01*
X210031000Y-76200000D01*
X210031000Y-74041000D01*
X209975051Y-73759728D01*
X209930671Y-73693308D01*
X209815723Y-73521276D01*
X209155410Y-72860963D01*
X209236459Y-72453500D01*
X209122385Y-71880011D01*
X208797529Y-71393830D01*
X208482748Y-71183500D01*
X208797529Y-70973170D01*
X209122385Y-70486989D01*
X209236459Y-69913500D01*
X209122385Y-69340011D01*
X208797529Y-68853830D01*
X208482748Y-68643500D01*
X208797529Y-68433170D01*
X209122385Y-67946989D01*
X209236459Y-67373500D01*
X209122385Y-66800011D01*
X208797529Y-66313830D01*
X208443500Y-66077275D01*
X208443500Y-65849500D01*
X208387551Y-65568228D01*
X208354063Y-65518110D01*
X208228224Y-65329777D01*
X207148723Y-64250277D01*
X206910272Y-64090949D01*
X206905084Y-64089917D01*
X206629000Y-64035000D01*
X206527156Y-64035000D01*
X206664494Y-63897902D01*
X206683801Y-63885001D01*
X206696589Y-63865862D01*
X206735392Y-63827127D01*
X206756604Y-63776044D01*
X206848548Y-63638439D01*
X206906400Y-63347600D01*
X206878280Y-63206230D01*
X206878362Y-63111633D01*
X206736317Y-62767857D01*
X206473527Y-62504608D01*
X206129999Y-62361962D01*
X205840000Y-62361709D01*
X205840000Y-57567500D01*
X206347017Y-57567500D01*
X206075729Y-57973511D01*
X205961655Y-58547000D01*
X206075729Y-59120489D01*
X206400585Y-59606670D01*
X206715366Y-59817000D01*
X206400585Y-60027330D01*
X206075729Y-60513511D01*
X205961655Y-61087000D01*
X206075729Y-61660489D01*
X206400585Y-62146670D01*
X206886766Y-62471526D01*
X207460255Y-62585600D01*
X207829745Y-62585600D01*
X208403234Y-62471526D01*
X208889415Y-62146670D01*
X209214271Y-61660489D01*
X209328345Y-61087000D01*
X209214271Y-60513511D01*
X208889415Y-60027330D01*
X208574634Y-59817000D01*
X208889415Y-59606670D01*
X209214271Y-59120489D01*
X209328345Y-58547000D01*
X209214271Y-57973511D01*
X208889415Y-57487330D01*
X208574634Y-57277000D01*
X208889415Y-57066670D01*
X209214271Y-56580489D01*
X209328345Y-56007000D01*
X209214271Y-55433511D01*
X208889415Y-54947330D01*
X208867220Y-54932500D01*
X209020698Y-54868927D01*
X209199327Y-54690299D01*
X209296000Y-54456910D01*
X209296000Y-53752750D01*
X209137250Y-53594000D01*
X207772000Y-53594000D01*
X207772000Y-53614000D01*
X207518000Y-53614000D01*
X207518000Y-53594000D01*
X206152750Y-53594000D01*
X205994000Y-53752750D01*
X205994000Y-54456910D01*
X206090673Y-54690299D01*
X206269302Y-54868927D01*
X206422780Y-54932500D01*
X206400585Y-54947330D01*
X206075729Y-55433511D01*
X205961655Y-56007000D01*
X205979657Y-56097500D01*
X205461074Y-56097500D01*
X205449773Y-56089949D01*
X205168500Y-56034000D01*
X205105000Y-56046631D01*
X205041500Y-56034000D01*
X204280446Y-56034000D01*
X204252162Y-55883683D01*
X204113090Y-55667559D01*
X204017296Y-55602106D01*
X204063941Y-55572090D01*
X204208931Y-55359890D01*
X204239751Y-55207697D01*
X204337283Y-55443743D01*
X204600073Y-55706992D01*
X204943601Y-55849638D01*
X205315567Y-55849962D01*
X205659343Y-55707917D01*
X205922592Y-55445127D01*
X206065238Y-55101599D01*
X206065562Y-54729633D01*
X205923517Y-54385857D01*
X205660727Y-54122608D01*
X205317199Y-53979962D01*
X204945233Y-53979638D01*
X204601457Y-54121683D01*
X204338208Y-54384473D01*
X204259940Y-54572962D01*
X204259940Y-53858000D01*
X204215662Y-53622683D01*
X204076590Y-53406559D01*
X203864390Y-53261569D01*
X203737149Y-53235802D01*
X203947817Y-53196162D01*
X204163941Y-53057090D01*
X204308931Y-52844890D01*
X204359940Y-52593000D01*
X204359940Y-52477090D01*
X205994000Y-52477090D01*
X205994000Y-53181250D01*
X206152750Y-53340000D01*
X207518000Y-53340000D01*
X207518000Y-52127150D01*
X207772000Y-52127150D01*
X207772000Y-53340000D01*
X209137250Y-53340000D01*
X209296000Y-53181250D01*
X209296000Y-52477090D01*
X209199327Y-52243701D01*
X209020698Y-52065073D01*
X208787309Y-51968400D01*
X207930750Y-51968400D01*
X207772000Y-52127150D01*
X207518000Y-52127150D01*
X207359250Y-51968400D01*
X206502691Y-51968400D01*
X206269302Y-52065073D01*
X206090673Y-52243701D01*
X205994000Y-52477090D01*
X204359940Y-52477090D01*
X204359940Y-51984862D01*
X205930604Y-50414198D01*
X210618000Y-50320450D01*
X210618000Y-51261840D01*
G36*
X188964277Y-81863224D02*
X189202728Y-82022551D01*
X189484000Y-82078500D01*
X191910054Y-82078500D01*
X192559000Y-82727447D01*
X192559000Y-87630000D01*
X192614949Y-87911272D01*
X192774277Y-88149723D01*
X193649327Y-89024774D01*
X193544299Y-88981162D01*
X193172333Y-88980838D01*
X192828557Y-89122883D01*
X192565308Y-89385673D01*
X192422662Y-89729201D01*
X192422338Y-90101167D01*
X192564383Y-90444943D01*
X192592907Y-90473517D01*
X190707558Y-90465320D01*
X190978143Y-90353517D01*
X191241392Y-90090727D01*
X191384038Y-89747199D01*
X191384242Y-89513417D01*
X191385001Y-89509600D01*
X191384248Y-89505816D01*
X191384362Y-89375233D01*
X191334054Y-89253478D01*
X191317633Y-89170926D01*
X191271281Y-89101555D01*
X191242317Y-89031457D01*
X191188260Y-88977306D01*
X191125789Y-88883811D01*
X191033111Y-88821886D01*
X190979527Y-88768208D01*
X190908862Y-88738865D01*
X190838674Y-88691967D01*
X190756604Y-88675642D01*
X190635999Y-88625562D01*
X190504264Y-88625447D01*
X190500000Y-88624599D01*
X190495773Y-88625440D01*
X190264033Y-88625238D01*
X189920257Y-88767283D01*
X189657008Y-89030073D01*
X189514362Y-89373601D01*
X189514038Y-89745567D01*
X189656083Y-90089343D01*
X189918873Y-90352592D01*
X190184878Y-90463048D01*
X184548901Y-90438543D01*
X184320670Y-90096971D01*
X184049828Y-89916000D01*
X184320670Y-89735029D01*
X184645526Y-89248848D01*
X184759600Y-88675359D01*
X184759600Y-88616641D01*
X184645526Y-88043152D01*
X184320670Y-87556971D01*
X183971000Y-87323329D01*
X183971000Y-87099376D01*
X184053192Y-87017327D01*
X184195838Y-86673799D01*
X184196162Y-86301833D01*
X184146235Y-86181000D01*
X184567415Y-86181000D01*
X184511600Y-86461600D01*
X184588482Y-86848110D01*
X184807422Y-87175778D01*
X185135090Y-87394718D01*
X185521600Y-87471600D01*
X185908110Y-87394718D01*
X186235778Y-87175778D01*
X186668612Y-86742944D01*
X189021025Y-86742944D01*
X189220615Y-87224818D01*
X189658621Y-87697188D01*
X190244054Y-87965983D01*
X190500000Y-87847367D01*
X190500000Y-86487000D01*
X190754000Y-86487000D01*
X190754000Y-87847367D01*
X191009946Y-87965983D01*
X191595379Y-87697188D01*
X192033385Y-87224818D01*
X192232975Y-86742944D01*
X192113836Y-86487000D01*
X190754000Y-86487000D01*
X190500000Y-86487000D01*
X189140164Y-86487000D01*
X189021025Y-86742944D01*
X186668612Y-86742944D01*
X188581556Y-84830000D01*
X188963560Y-84830000D01*
X188963560Y-84836000D01*
X189007838Y-85071317D01*
X189146910Y-85287441D01*
X189309948Y-85398840D01*
X189220615Y-85495182D01*
X189021025Y-85977056D01*
X189140164Y-86233000D01*
X190500000Y-86233000D01*
X190500000Y-86213000D01*
X190754000Y-86213000D01*
X190754000Y-86233000D01*
X192113836Y-86233000D01*
X192232975Y-85977056D01*
X192033385Y-85495182D01*
X191942903Y-85397602D01*
X192094441Y-85300090D01*
X192239431Y-85087890D01*
X192290440Y-84836000D01*
X192290440Y-82804000D01*
X192246162Y-82568683D01*
X192107090Y-82352559D01*
X191894890Y-82207569D01*
X191643000Y-82156560D01*
X189611000Y-82156560D01*
X189375683Y-82200838D01*
X189159559Y-82339910D01*
X189014569Y-82552110D01*
X188963560Y-82804000D01*
X188963560Y-82810000D01*
X188259592Y-82810000D01*
X188640546Y-82429046D01*
X188794454Y-82198705D01*
X188848500Y-81927000D01*
X188848500Y-81747447D01*
X188964277Y-81863224D01*
X188964277Y-81863224D01*
G37*
X188964277Y-81863224D02*
X189202728Y-82022551D01*
X189484000Y-82078500D01*
X191910054Y-82078500D01*
X192559000Y-82727447D01*
X192559000Y-87630000D01*
X192614949Y-87911272D01*
X192774277Y-88149723D01*
X193649327Y-89024774D01*
X193544299Y-88981162D01*
X193172333Y-88980838D01*
X192828557Y-89122883D01*
X192565308Y-89385673D01*
X192422662Y-89729201D01*
X192422338Y-90101167D01*
X192564383Y-90444943D01*
X192592907Y-90473517D01*
X190707558Y-90465320D01*
X190978143Y-90353517D01*
X191241392Y-90090727D01*
X191384038Y-89747199D01*
X191384242Y-89513417D01*
X191385001Y-89509600D01*
X191384248Y-89505816D01*
X191384362Y-89375233D01*
X191334054Y-89253478D01*
X191317633Y-89170926D01*
X191271281Y-89101555D01*
X191242317Y-89031457D01*
X191188260Y-88977306D01*
X191125789Y-88883811D01*
X191033111Y-88821886D01*
X190979527Y-88768208D01*
X190908862Y-88738865D01*
X190838674Y-88691967D01*
X190756604Y-88675642D01*
X190635999Y-88625562D01*
X190504264Y-88625447D01*
X190500000Y-88624599D01*
X190495773Y-88625440D01*
X190264033Y-88625238D01*
X189920257Y-88767283D01*
X189657008Y-89030073D01*
X189514362Y-89373601D01*
X189514038Y-89745567D01*
X189656083Y-90089343D01*
X189918873Y-90352592D01*
X190184878Y-90463048D01*
X184548901Y-90438543D01*
X184320670Y-90096971D01*
X184049828Y-89916000D01*
X184320670Y-89735029D01*
X184645526Y-89248848D01*
X184759600Y-88675359D01*
X184759600Y-88616641D01*
X184645526Y-88043152D01*
X184320670Y-87556971D01*
X183971000Y-87323329D01*
X183971000Y-87099376D01*
X184053192Y-87017327D01*
X184195838Y-86673799D01*
X184196162Y-86301833D01*
X184146235Y-86181000D01*
X184567415Y-86181000D01*
X184511600Y-86461600D01*
X184588482Y-86848110D01*
X184807422Y-87175778D01*
X185135090Y-87394718D01*
X185521600Y-87471600D01*
X185908110Y-87394718D01*
X186235778Y-87175778D01*
X186668612Y-86742944D01*
X189021025Y-86742944D01*
X189220615Y-87224818D01*
X189658621Y-87697188D01*
X190244054Y-87965983D01*
X190500000Y-87847367D01*
X190500000Y-86487000D01*
X190754000Y-86487000D01*
X190754000Y-87847367D01*
X191009946Y-87965983D01*
X191595379Y-87697188D01*
X192033385Y-87224818D01*
X192232975Y-86742944D01*
X192113836Y-86487000D01*
X190754000Y-86487000D01*
X190500000Y-86487000D01*
X189140164Y-86487000D01*
X189021025Y-86742944D01*
X186668612Y-86742944D01*
X188581556Y-84830000D01*
X188963560Y-84830000D01*
X188963560Y-84836000D01*
X189007838Y-85071317D01*
X189146910Y-85287441D01*
X189309948Y-85398840D01*
X189220615Y-85495182D01*
X189021025Y-85977056D01*
X189140164Y-86233000D01*
X190500000Y-86233000D01*
X190500000Y-86213000D01*
X190754000Y-86213000D01*
X190754000Y-86233000D01*
X192113836Y-86233000D01*
X192232975Y-85977056D01*
X192033385Y-85495182D01*
X191942903Y-85397602D01*
X192094441Y-85300090D01*
X192239431Y-85087890D01*
X192290440Y-84836000D01*
X192290440Y-82804000D01*
X192246162Y-82568683D01*
X192107090Y-82352559D01*
X191894890Y-82207569D01*
X191643000Y-82156560D01*
X189611000Y-82156560D01*
X189375683Y-82200838D01*
X189159559Y-82339910D01*
X189014569Y-82552110D01*
X188963560Y-82804000D01*
X188963560Y-82810000D01*
X188259592Y-82810000D01*
X188640546Y-82429046D01*
X188794454Y-82198705D01*
X188848500Y-81927000D01*
X188848500Y-81747447D01*
X188964277Y-81863224D01*
G36*
X170787054Y-47811000D02*
X170465750Y-47811000D01*
X170307000Y-47969750D01*
X170307000Y-49069000D01*
X171306250Y-49069000D01*
X171465000Y-48910250D01*
X171465000Y-48488946D01*
X178526113Y-55550060D01*
X175082200Y-55550060D01*
X174846883Y-55594338D01*
X174630759Y-55733410D01*
X174485769Y-55945610D01*
X174434760Y-56197500D01*
X174434760Y-58229500D01*
X174479038Y-58464817D01*
X174618110Y-58680941D01*
X174830310Y-58825931D01*
X175082200Y-58876940D01*
X178739800Y-58876940D01*
X178975117Y-58832662D01*
X179191241Y-58693590D01*
X179336231Y-58481390D01*
X179387240Y-58229500D01*
X179387240Y-56411187D01*
X182379276Y-59403223D01*
X182574250Y-59533500D01*
X182617728Y-59562551D01*
X182899000Y-59618500D01*
X184992060Y-59618500D01*
X184992060Y-59733500D01*
X185036338Y-59968817D01*
X185175410Y-60184941D01*
X185387610Y-60329931D01*
X185429500Y-60338414D01*
X185429500Y-60491739D01*
X185339008Y-60582073D01*
X185196362Y-60925601D01*
X185196038Y-61297567D01*
X185338083Y-61641343D01*
X185600873Y-61904592D01*
X185944401Y-62047238D01*
X186316367Y-62047562D01*
X186660143Y-61905517D01*
X186923392Y-61642727D01*
X187066038Y-61299199D01*
X187066362Y-60927233D01*
X186949500Y-60644405D01*
X186949500Y-60341426D01*
X186974817Y-60336662D01*
X187041893Y-60293500D01*
X187444244Y-60293500D01*
X187480473Y-60329792D01*
X187824001Y-60472438D01*
X188195967Y-60472762D01*
X188539743Y-60330717D01*
X188802992Y-60067927D01*
X188911721Y-59806080D01*
X188915353Y-59824339D01*
X188931949Y-59907772D01*
X189091277Y-60146223D01*
X190508303Y-61563250D01*
X189281777Y-62789777D01*
X189122449Y-63028228D01*
X189066500Y-63309500D01*
X189066500Y-67273500D01*
X189039500Y-67273500D01*
X188974000Y-67286529D01*
X188974000Y-64897000D01*
X188916148Y-64606161D01*
X188751401Y-64359599D01*
X188243401Y-63851599D01*
X187996839Y-63686852D01*
X187972440Y-63681999D01*
X187972440Y-63373000D01*
X187928162Y-63137683D01*
X187789090Y-62921559D01*
X187576890Y-62776569D01*
X187325000Y-62725560D01*
X185293000Y-62725560D01*
X185057683Y-62769838D01*
X184841559Y-62908910D01*
X184696569Y-63121110D01*
X184645560Y-63373000D01*
X184645560Y-65405000D01*
X184689838Y-65640317D01*
X184828910Y-65856441D01*
X184977837Y-65958198D01*
X184751330Y-66297190D01*
X184625655Y-66929000D01*
X184751330Y-67560810D01*
X185109222Y-68096433D01*
X185378500Y-68276359D01*
X185378500Y-70074140D01*
X185263183Y-70095838D01*
X185047059Y-70234910D01*
X184902069Y-70447110D01*
X184851060Y-70699000D01*
X184851060Y-71899000D01*
X184877538Y-72039716D01*
X184738500Y-72011560D01*
X184275794Y-72011560D01*
X184484992Y-71802727D01*
X184627638Y-71459199D01*
X184627962Y-71087233D01*
X184485917Y-70743457D01*
X184223127Y-70480208D01*
X183879599Y-70337562D01*
X183507633Y-70337238D01*
X183163857Y-70479283D01*
X182900608Y-70742073D01*
X182757962Y-71085601D01*
X182757638Y-71457567D01*
X182899683Y-71801343D01*
X183162473Y-72064592D01*
X183239727Y-72096671D01*
X183087059Y-72194910D01*
X182942069Y-72407110D01*
X182906366Y-72583419D01*
X182798789Y-72475842D01*
X182862338Y-72322799D01*
X182862662Y-71950833D01*
X182720617Y-71607057D01*
X182457827Y-71343808D01*
X182114299Y-71201162D01*
X181742333Y-71200838D01*
X181398557Y-71342883D01*
X181135308Y-71605673D01*
X180992662Y-71949201D01*
X180992338Y-72321167D01*
X181134383Y-72664943D01*
X181212165Y-72742861D01*
X181236270Y-72864046D01*
X181248449Y-72925272D01*
X181407777Y-73163723D01*
X182308053Y-74064000D01*
X181876011Y-74064000D01*
X181831617Y-73956557D01*
X181568827Y-73693308D01*
X181225299Y-73550662D01*
X180853333Y-73550338D01*
X180509557Y-73692383D01*
X180246308Y-73955173D01*
X180103662Y-74298701D01*
X180103338Y-74670667D01*
X180245383Y-75014443D01*
X180269897Y-75039000D01*
X178885590Y-75039000D01*
X178885590Y-74687430D01*
X178841312Y-74452113D01*
X178702240Y-74235989D01*
X178678507Y-74219773D01*
X178808931Y-74028890D01*
X178859940Y-73777000D01*
X178859940Y-72527000D01*
X178815662Y-72291683D01*
X178676590Y-72075559D01*
X178464390Y-71930569D01*
X178212500Y-71879560D01*
X176712500Y-71879560D01*
X176477183Y-71923838D01*
X176261059Y-72062910D01*
X176213366Y-72132711D01*
X176176590Y-72075559D01*
X176056640Y-71993601D01*
X176056640Y-70408540D01*
X176347120Y-70408540D01*
X176582437Y-70364262D01*
X176798561Y-70225190D01*
X176845397Y-70156643D01*
X176988182Y-70299427D01*
X177221571Y-70396100D01*
X178362610Y-70396100D01*
X178521360Y-70237350D01*
X178521360Y-69088000D01*
X178775360Y-69088000D01*
X178775360Y-70237350D01*
X178934110Y-70396100D01*
X180075149Y-70396100D01*
X180308538Y-70299427D01*
X180487167Y-70120799D01*
X180583840Y-69887410D01*
X180583840Y-69246750D01*
X180425090Y-69088000D01*
X178775360Y-69088000D01*
X178521360Y-69088000D01*
X178501360Y-69088000D01*
X178501360Y-68834000D01*
X178521360Y-68834000D01*
X178521360Y-67684650D01*
X178775360Y-67684650D01*
X178775360Y-68834000D01*
X180425090Y-68834000D01*
X180583840Y-68675250D01*
X180583840Y-68034590D01*
X180487167Y-67801201D01*
X180308538Y-67622573D01*
X180075149Y-67525900D01*
X178934110Y-67525900D01*
X178775360Y-67684650D01*
X178521360Y-67684650D01*
X178362610Y-67525900D01*
X177221571Y-67525900D01*
X176988182Y-67622573D01*
X176846482Y-67764273D01*
X176811210Y-67709459D01*
X176599010Y-67564469D01*
X176347120Y-67513460D01*
X176056640Y-67513460D01*
X176056640Y-67497216D01*
X176132132Y-67421724D01*
X176472010Y-67354118D01*
X176799678Y-67135178D01*
X177625178Y-66309678D01*
X177844118Y-65982010D01*
X177921000Y-65595500D01*
X177921000Y-65223594D01*
X178015431Y-65085390D01*
X178054000Y-64894931D01*
X178054000Y-64959810D01*
X178150673Y-65193199D01*
X178329302Y-65371827D01*
X178562691Y-65468500D01*
X178911250Y-65468500D01*
X179070000Y-65309750D01*
X179070000Y-63944500D01*
X179324000Y-63944500D01*
X179324000Y-65309750D01*
X179482750Y-65468500D01*
X179831309Y-65468500D01*
X180064698Y-65371827D01*
X180243327Y-65193199D01*
X180340000Y-64959810D01*
X180340000Y-64103250D01*
X180181250Y-63944500D01*
X179324000Y-63944500D01*
X179070000Y-63944500D01*
X179050000Y-63944500D01*
X179050000Y-63690500D01*
X179070000Y-63690500D01*
X179070000Y-62325250D01*
X179324000Y-62325250D01*
X179324000Y-63690500D01*
X180181250Y-63690500D01*
X180340000Y-63531750D01*
X180340000Y-62675190D01*
X180243327Y-62441801D01*
X180064698Y-62263173D01*
X179831309Y-62166500D01*
X179482750Y-62166500D01*
X179324000Y-62325250D01*
X179070000Y-62325250D01*
X178911250Y-62166500D01*
X178562691Y-62166500D01*
X178329302Y-62263173D01*
X178150673Y-62441801D01*
X178054000Y-62675190D01*
X178054000Y-62735387D01*
X178022162Y-62566183D01*
X177883090Y-62350059D01*
X177670890Y-62205069D01*
X177419000Y-62154060D01*
X176403000Y-62154060D01*
X176167683Y-62198338D01*
X175951559Y-62337410D01*
X175806569Y-62549610D01*
X175768457Y-62737814D01*
X175736162Y-62566183D01*
X175635000Y-62408973D01*
X175635000Y-61595000D01*
X175558118Y-61208490D01*
X175339178Y-60880822D01*
X171950818Y-57492462D01*
X171623150Y-57273522D01*
X171236640Y-57196640D01*
X170992540Y-57196640D01*
X170992540Y-56906160D01*
X170948262Y-56670843D01*
X170809190Y-56454719D01*
X170596990Y-56309729D01*
X170345100Y-56258720D01*
X168744900Y-56258720D01*
X168509583Y-56302998D01*
X168293459Y-56442070D01*
X168148469Y-56654270D01*
X168097460Y-56906160D01*
X168097460Y-56999133D01*
X167879179Y-57042552D01*
X167470405Y-57315685D01*
X167470403Y-57315688D01*
X166292590Y-58493500D01*
X163800185Y-58493500D01*
X163942817Y-58466662D01*
X164158941Y-58327590D01*
X164303931Y-58115390D01*
X164307351Y-58098500D01*
X165392095Y-58098500D01*
X165392100Y-58098501D01*
X165706005Y-58036060D01*
X165730775Y-58031133D01*
X165781646Y-57997142D01*
X166035343Y-57892317D01*
X166298592Y-57629527D01*
X166441238Y-57285999D01*
X166441562Y-56914033D01*
X166299517Y-56570257D01*
X166036727Y-56307008D01*
X165693199Y-56164362D01*
X165321233Y-56164038D01*
X164977457Y-56306083D01*
X164955001Y-56328500D01*
X164310722Y-56328500D01*
X164310662Y-56328183D01*
X164171590Y-56112059D01*
X163959390Y-55967069D01*
X163707500Y-55916060D01*
X162207500Y-55916060D01*
X161972183Y-55960338D01*
X161756059Y-56099410D01*
X161611069Y-56311610D01*
X161608419Y-56324697D01*
X161471590Y-56112059D01*
X161259390Y-55967069D01*
X161007500Y-55916060D01*
X159507500Y-55916060D01*
X159272183Y-55960338D01*
X159056059Y-56099410D01*
X158911069Y-56311610D01*
X158907649Y-56328500D01*
X157361630Y-56328500D01*
X157361630Y-56313070D01*
X157317352Y-56077753D01*
X157178280Y-55861629D01*
X156966080Y-55716639D01*
X156714190Y-55665630D01*
X155116530Y-55665630D01*
X154881213Y-55709908D01*
X154665089Y-55848980D01*
X154520099Y-56061180D01*
X154499529Y-56162759D01*
X154412797Y-55953371D01*
X154234168Y-55774743D01*
X154000779Y-55678070D01*
X153361390Y-55678070D01*
X153202640Y-55836820D01*
X153202640Y-57086500D01*
X153222640Y-57086500D01*
X153222640Y-57340500D01*
X153202640Y-57340500D01*
X153202640Y-58590180D01*
X153361390Y-58748930D01*
X154000779Y-58748930D01*
X154234168Y-58652257D01*
X154412797Y-58473629D01*
X154498046Y-58267819D01*
X154513368Y-58349247D01*
X154652440Y-58565371D01*
X154864640Y-58710361D01*
X155116530Y-58761370D01*
X156714190Y-58761370D01*
X156949507Y-58717092D01*
X157165631Y-58578020D01*
X157310621Y-58365820D01*
X157361630Y-58113930D01*
X157361630Y-58098500D01*
X158904278Y-58098500D01*
X158904338Y-58098817D01*
X159043410Y-58314941D01*
X159255610Y-58459931D01*
X159507500Y-58510940D01*
X161007500Y-58510940D01*
X161242817Y-58466662D01*
X161458941Y-58327590D01*
X161603931Y-58115390D01*
X161606581Y-58102303D01*
X161743410Y-58314941D01*
X161955610Y-58459931D01*
X162121379Y-58493500D01*
X162052000Y-58493500D01*
X161569819Y-58589412D01*
X161161045Y-58862545D01*
X161161043Y-58862548D01*
X158540090Y-61483500D01*
X156819600Y-61483500D01*
X156584283Y-61527778D01*
X156368159Y-61666850D01*
X156223169Y-61879050D01*
X156172160Y-62130940D01*
X156172160Y-65631060D01*
X156216438Y-65866377D01*
X156355510Y-66082501D01*
X156567710Y-66227491D01*
X156819600Y-66278500D01*
X159503645Y-66278500D01*
X159367899Y-66365850D01*
X159222909Y-66578050D01*
X159171900Y-66829940D01*
X159171900Y-70330060D01*
X159216178Y-70565377D01*
X159355250Y-70781501D01*
X159567450Y-70926491D01*
X159819340Y-70977500D01*
X163319460Y-70977500D01*
X163554777Y-70933222D01*
X163770901Y-70794150D01*
X163915891Y-70581950D01*
X163966900Y-70330060D01*
X163966900Y-66829940D01*
X163922622Y-66594623D01*
X163783550Y-66378499D01*
X163637197Y-66278500D01*
X164919500Y-66278500D01*
X164919500Y-73519091D01*
X164318590Y-74120000D01*
X162438080Y-74120000D01*
X162202763Y-74164278D01*
X161986639Y-74303350D01*
X161841649Y-74515550D01*
X161790640Y-74767440D01*
X161790640Y-78267560D01*
X161834918Y-78502877D01*
X161973990Y-78719001D01*
X162120343Y-78819000D01*
X160254415Y-78819000D01*
X160390161Y-78731650D01*
X160535151Y-78519450D01*
X160586160Y-78267560D01*
X160586160Y-74767440D01*
X160541882Y-74532123D01*
X160402810Y-74315999D01*
X160190610Y-74171009D01*
X159938720Y-74120000D01*
X158544950Y-74120000D01*
X152116500Y-67691550D01*
X152116500Y-58931509D01*
X152330855Y-58931509D01*
X152342223Y-58980623D01*
X152371802Y-59021446D01*
X152414934Y-59047545D01*
X152447379Y-59054571D01*
X158205614Y-59528971D01*
X158255679Y-59523056D01*
X158299498Y-59498129D01*
X158330167Y-59458118D01*
X158343042Y-59402639D01*
X158343934Y-58928239D01*
X158334021Y-58878810D01*
X158305658Y-58837132D01*
X158263315Y-58809772D01*
X158216934Y-58801000D01*
X152457807Y-58801000D01*
X152408397Y-58811006D01*
X152366772Y-58839447D01*
X152339492Y-58881841D01*
X152330855Y-58931509D01*
X152116500Y-58931509D01*
X152116500Y-58734846D01*
X152150501Y-58748930D01*
X152789890Y-58748930D01*
X152948640Y-58590180D01*
X152948640Y-57340500D01*
X152928640Y-57340500D01*
X152928640Y-57086500D01*
X152948640Y-57086500D01*
X152948640Y-55836820D01*
X152789890Y-55678070D01*
X152150501Y-55678070D01*
X152116500Y-55692154D01*
X152116500Y-51855500D01*
X157357060Y-51855500D01*
X157357060Y-52855500D01*
X157401338Y-53090817D01*
X157540410Y-53306941D01*
X157752610Y-53451931D01*
X158004500Y-53502940D01*
X161204500Y-53502940D01*
X161439817Y-53458662D01*
X161655941Y-53319590D01*
X161800931Y-53107390D01*
X161804351Y-53090500D01*
X164201278Y-53090500D01*
X164201338Y-53090817D01*
X164340410Y-53306941D01*
X164552610Y-53451931D01*
X164804500Y-53502940D01*
X168004500Y-53502940D01*
X168239817Y-53458662D01*
X168455941Y-53319590D01*
X168600931Y-53107390D01*
X168604351Y-53090500D01*
X169061444Y-53090500D01*
X169065910Y-53097441D01*
X169278110Y-53242431D01*
X169530000Y-53293440D01*
X170617994Y-53293440D01*
X171683308Y-54358755D01*
X171683238Y-54439567D01*
X171825283Y-54783343D01*
X172088073Y-55046592D01*
X172431601Y-55189238D01*
X172803567Y-55189562D01*
X173147343Y-55047517D01*
X173410592Y-54784727D01*
X173553238Y-54441199D01*
X173553562Y-54069233D01*
X173411517Y-53725457D01*
X173148727Y-53462208D01*
X172805199Y-53319562D01*
X172722937Y-53319490D01*
X171477440Y-52073994D01*
X171477440Y-51146000D01*
X171433162Y-50910683D01*
X171294090Y-50694559D01*
X171081890Y-50549569D01*
X171048510Y-50542809D01*
X171189699Y-50484327D01*
X171368327Y-50305698D01*
X171465000Y-50072309D01*
X171465000Y-49481750D01*
X171306250Y-49323000D01*
X170307000Y-49323000D01*
X170307000Y-49343000D01*
X170053000Y-49343000D01*
X170053000Y-49323000D01*
X169053750Y-49323000D01*
X168895000Y-49481750D01*
X168895000Y-50072309D01*
X168991673Y-50305698D01*
X169170301Y-50484327D01*
X169306287Y-50540654D01*
X169294683Y-50542838D01*
X169078559Y-50681910D01*
X168933569Y-50894110D01*
X168882560Y-51146000D01*
X168882560Y-51620500D01*
X168607722Y-51620500D01*
X168607662Y-51620183D01*
X168468590Y-51404059D01*
X168256390Y-51259069D01*
X168004500Y-51208060D01*
X164804500Y-51208060D01*
X164569183Y-51252338D01*
X164353059Y-51391410D01*
X164208069Y-51603610D01*
X164204649Y-51620500D01*
X161807722Y-51620500D01*
X161807662Y-51620183D01*
X161668590Y-51404059D01*
X161456390Y-51259069D01*
X161204500Y-51208060D01*
X158004500Y-51208060D01*
X157769183Y-51252338D01*
X157553059Y-51391410D01*
X157408069Y-51603610D01*
X157357060Y-51855500D01*
X152116500Y-51855500D01*
X152116500Y-50997224D01*
X158227968Y-51178753D01*
X158277654Y-51170219D01*
X158320104Y-51143026D01*
X158348631Y-51101460D01*
X158358739Y-51052048D01*
X158361651Y-49502940D01*
X161204500Y-49502940D01*
X161439817Y-49458662D01*
X161655941Y-49319590D01*
X161709981Y-49240500D01*
X162608778Y-49240500D01*
X162728801Y-49290338D01*
X163100767Y-49290662D01*
X163222169Y-49240500D01*
X164297656Y-49240500D01*
X164340410Y-49306941D01*
X164552610Y-49451931D01*
X164804500Y-49502940D01*
X168004500Y-49502940D01*
X168239817Y-49458662D01*
X168455941Y-49319590D01*
X168600931Y-49107390D01*
X168651940Y-48855500D01*
X168651940Y-48319691D01*
X168895000Y-48319691D01*
X168895000Y-48910250D01*
X169053750Y-49069000D01*
X170053000Y-49069000D01*
X170053000Y-47969750D01*
X169894250Y-47811000D01*
X169403690Y-47811000D01*
X169170301Y-47907673D01*
X168991673Y-48086302D01*
X168895000Y-48319691D01*
X168651940Y-48319691D01*
X168651940Y-47855500D01*
X168607662Y-47620183D01*
X168468590Y-47404059D01*
X168256390Y-47259069D01*
X168004500Y-47208060D01*
X164804500Y-47208060D01*
X164569183Y-47252338D01*
X164353059Y-47391410D01*
X164299019Y-47470500D01*
X163222422Y-47470500D01*
X163102399Y-47420662D01*
X162730433Y-47420338D01*
X162609031Y-47470500D01*
X161711344Y-47470500D01*
X161668590Y-47404059D01*
X161456390Y-47259069D01*
X161204500Y-47208060D01*
X158365964Y-47208060D01*
X158368454Y-45883500D01*
X168859554Y-45883500D01*
X170787054Y-47811000D01*
X170787054Y-47811000D01*
G37*
X170787054Y-47811000D02*
X170465750Y-47811000D01*
X170307000Y-47969750D01*
X170307000Y-49069000D01*
X171306250Y-49069000D01*
X171465000Y-48910250D01*
X171465000Y-48488946D01*
X178526113Y-55550060D01*
X175082200Y-55550060D01*
X174846883Y-55594338D01*
X174630759Y-55733410D01*
X174485769Y-55945610D01*
X174434760Y-56197500D01*
X174434760Y-58229500D01*
X174479038Y-58464817D01*
X174618110Y-58680941D01*
X174830310Y-58825931D01*
X175082200Y-58876940D01*
X178739800Y-58876940D01*
X178975117Y-58832662D01*
X179191241Y-58693590D01*
X179336231Y-58481390D01*
X179387240Y-58229500D01*
X179387240Y-56411187D01*
X182379276Y-59403223D01*
X182574250Y-59533500D01*
X182617728Y-59562551D01*
X182899000Y-59618500D01*
X184992060Y-59618500D01*
X184992060Y-59733500D01*
X185036338Y-59968817D01*
X185175410Y-60184941D01*
X185387610Y-60329931D01*
X185429500Y-60338414D01*
X185429500Y-60491739D01*
X185339008Y-60582073D01*
X185196362Y-60925601D01*
X185196038Y-61297567D01*
X185338083Y-61641343D01*
X185600873Y-61904592D01*
X185944401Y-62047238D01*
X186316367Y-62047562D01*
X186660143Y-61905517D01*
X186923392Y-61642727D01*
X187066038Y-61299199D01*
X187066362Y-60927233D01*
X186949500Y-60644405D01*
X186949500Y-60341426D01*
X186974817Y-60336662D01*
X187041893Y-60293500D01*
X187444244Y-60293500D01*
X187480473Y-60329792D01*
X187824001Y-60472438D01*
X188195967Y-60472762D01*
X188539743Y-60330717D01*
X188802992Y-60067927D01*
X188911721Y-59806080D01*
X188915353Y-59824339D01*
X188931949Y-59907772D01*
X189091277Y-60146223D01*
X190508303Y-61563250D01*
X189281777Y-62789777D01*
X189122449Y-63028228D01*
X189066500Y-63309500D01*
X189066500Y-67273500D01*
X189039500Y-67273500D01*
X188974000Y-67286529D01*
X188974000Y-64897000D01*
X188916148Y-64606161D01*
X188751401Y-64359599D01*
X188243401Y-63851599D01*
X187996839Y-63686852D01*
X187972440Y-63681999D01*
X187972440Y-63373000D01*
X187928162Y-63137683D01*
X187789090Y-62921559D01*
X187576890Y-62776569D01*
X187325000Y-62725560D01*
X185293000Y-62725560D01*
X185057683Y-62769838D01*
X184841559Y-62908910D01*
X184696569Y-63121110D01*
X184645560Y-63373000D01*
X184645560Y-65405000D01*
X184689838Y-65640317D01*
X184828910Y-65856441D01*
X184977837Y-65958198D01*
X184751330Y-66297190D01*
X184625655Y-66929000D01*
X184751330Y-67560810D01*
X185109222Y-68096433D01*
X185378500Y-68276359D01*
X185378500Y-70074140D01*
X185263183Y-70095838D01*
X185047059Y-70234910D01*
X184902069Y-70447110D01*
X184851060Y-70699000D01*
X184851060Y-71899000D01*
X184877538Y-72039716D01*
X184738500Y-72011560D01*
X184275794Y-72011560D01*
X184484992Y-71802727D01*
X184627638Y-71459199D01*
X184627962Y-71087233D01*
X184485917Y-70743457D01*
X184223127Y-70480208D01*
X183879599Y-70337562D01*
X183507633Y-70337238D01*
X183163857Y-70479283D01*
X182900608Y-70742073D01*
X182757962Y-71085601D01*
X182757638Y-71457567D01*
X182899683Y-71801343D01*
X183162473Y-72064592D01*
X183239727Y-72096671D01*
X183087059Y-72194910D01*
X182942069Y-72407110D01*
X182906366Y-72583419D01*
X182798789Y-72475842D01*
X182862338Y-72322799D01*
X182862662Y-71950833D01*
X182720617Y-71607057D01*
X182457827Y-71343808D01*
X182114299Y-71201162D01*
X181742333Y-71200838D01*
X181398557Y-71342883D01*
X181135308Y-71605673D01*
X180992662Y-71949201D01*
X180992338Y-72321167D01*
X181134383Y-72664943D01*
X181212165Y-72742861D01*
X181236270Y-72864046D01*
X181248449Y-72925272D01*
X181407777Y-73163723D01*
X182308053Y-74064000D01*
X181876011Y-74064000D01*
X181831617Y-73956557D01*
X181568827Y-73693308D01*
X181225299Y-73550662D01*
X180853333Y-73550338D01*
X180509557Y-73692383D01*
X180246308Y-73955173D01*
X180103662Y-74298701D01*
X180103338Y-74670667D01*
X180245383Y-75014443D01*
X180269897Y-75039000D01*
X178885590Y-75039000D01*
X178885590Y-74687430D01*
X178841312Y-74452113D01*
X178702240Y-74235989D01*
X178678507Y-74219773D01*
X178808931Y-74028890D01*
X178859940Y-73777000D01*
X178859940Y-72527000D01*
X178815662Y-72291683D01*
X178676590Y-72075559D01*
X178464390Y-71930569D01*
X178212500Y-71879560D01*
X176712500Y-71879560D01*
X176477183Y-71923838D01*
X176261059Y-72062910D01*
X176213366Y-72132711D01*
X176176590Y-72075559D01*
X176056640Y-71993601D01*
X176056640Y-70408540D01*
X176347120Y-70408540D01*
X176582437Y-70364262D01*
X176798561Y-70225190D01*
X176845397Y-70156643D01*
X176988182Y-70299427D01*
X177221571Y-70396100D01*
X178362610Y-70396100D01*
X178521360Y-70237350D01*
X178521360Y-69088000D01*
X178775360Y-69088000D01*
X178775360Y-70237350D01*
X178934110Y-70396100D01*
X180075149Y-70396100D01*
X180308538Y-70299427D01*
X180487167Y-70120799D01*
X180583840Y-69887410D01*
X180583840Y-69246750D01*
X180425090Y-69088000D01*
X178775360Y-69088000D01*
X178521360Y-69088000D01*
X178501360Y-69088000D01*
X178501360Y-68834000D01*
X178521360Y-68834000D01*
X178521360Y-67684650D01*
X178775360Y-67684650D01*
X178775360Y-68834000D01*
X180425090Y-68834000D01*
X180583840Y-68675250D01*
X180583840Y-68034590D01*
X180487167Y-67801201D01*
X180308538Y-67622573D01*
X180075149Y-67525900D01*
X178934110Y-67525900D01*
X178775360Y-67684650D01*
X178521360Y-67684650D01*
X178362610Y-67525900D01*
X177221571Y-67525900D01*
X176988182Y-67622573D01*
X176846482Y-67764273D01*
X176811210Y-67709459D01*
X176599010Y-67564469D01*
X176347120Y-67513460D01*
X176056640Y-67513460D01*
X176056640Y-67497216D01*
X176132132Y-67421724D01*
X176472010Y-67354118D01*
X176799678Y-67135178D01*
X177625178Y-66309678D01*
X177844118Y-65982010D01*
X177921000Y-65595500D01*
X177921000Y-65223594D01*
X178015431Y-65085390D01*
X178054000Y-64894931D01*
X178054000Y-64959810D01*
X178150673Y-65193199D01*
X178329302Y-65371827D01*
X178562691Y-65468500D01*
X178911250Y-65468500D01*
X179070000Y-65309750D01*
X179070000Y-63944500D01*
X179324000Y-63944500D01*
X179324000Y-65309750D01*
X179482750Y-65468500D01*
X179831309Y-65468500D01*
X180064698Y-65371827D01*
X180243327Y-65193199D01*
X180340000Y-64959810D01*
X180340000Y-64103250D01*
X180181250Y-63944500D01*
X179324000Y-63944500D01*
X179070000Y-63944500D01*
X179050000Y-63944500D01*
X179050000Y-63690500D01*
X179070000Y-63690500D01*
X179070000Y-62325250D01*
X179324000Y-62325250D01*
X179324000Y-63690500D01*
X180181250Y-63690500D01*
X180340000Y-63531750D01*
X180340000Y-62675190D01*
X180243327Y-62441801D01*
X180064698Y-62263173D01*
X179831309Y-62166500D01*
X179482750Y-62166500D01*
X179324000Y-62325250D01*
X179070000Y-62325250D01*
X178911250Y-62166500D01*
X178562691Y-62166500D01*
X178329302Y-62263173D01*
X178150673Y-62441801D01*
X178054000Y-62675190D01*
X178054000Y-62735387D01*
X178022162Y-62566183D01*
X177883090Y-62350059D01*
X177670890Y-62205069D01*
X177419000Y-62154060D01*
X176403000Y-62154060D01*
X176167683Y-62198338D01*
X175951559Y-62337410D01*
X175806569Y-62549610D01*
X175768457Y-62737814D01*
X175736162Y-62566183D01*
X175635000Y-62408973D01*
X175635000Y-61595000D01*
X175558118Y-61208490D01*
X175339178Y-60880822D01*
X171950818Y-57492462D01*
X171623150Y-57273522D01*
X171236640Y-57196640D01*
X170992540Y-57196640D01*
X170992540Y-56906160D01*
X170948262Y-56670843D01*
X170809190Y-56454719D01*
X170596990Y-56309729D01*
X170345100Y-56258720D01*
X168744900Y-56258720D01*
X168509583Y-56302998D01*
X168293459Y-56442070D01*
X168148469Y-56654270D01*
X168097460Y-56906160D01*
X168097460Y-56999133D01*
X167879179Y-57042552D01*
X167470405Y-57315685D01*
X167470403Y-57315688D01*
X166292590Y-58493500D01*
X163800185Y-58493500D01*
X163942817Y-58466662D01*
X164158941Y-58327590D01*
X164303931Y-58115390D01*
X164307351Y-58098500D01*
X165392095Y-58098500D01*
X165392100Y-58098501D01*
X165706005Y-58036060D01*
X165730775Y-58031133D01*
X165781646Y-57997142D01*
X166035343Y-57892317D01*
X166298592Y-57629527D01*
X166441238Y-57285999D01*
X166441562Y-56914033D01*
X166299517Y-56570257D01*
X166036727Y-56307008D01*
X165693199Y-56164362D01*
X165321233Y-56164038D01*
X164977457Y-56306083D01*
X164955001Y-56328500D01*
X164310722Y-56328500D01*
X164310662Y-56328183D01*
X164171590Y-56112059D01*
X163959390Y-55967069D01*
X163707500Y-55916060D01*
X162207500Y-55916060D01*
X161972183Y-55960338D01*
X161756059Y-56099410D01*
X161611069Y-56311610D01*
X161608419Y-56324697D01*
X161471590Y-56112059D01*
X161259390Y-55967069D01*
X161007500Y-55916060D01*
X159507500Y-55916060D01*
X159272183Y-55960338D01*
X159056059Y-56099410D01*
X158911069Y-56311610D01*
X158907649Y-56328500D01*
X157361630Y-56328500D01*
X157361630Y-56313070D01*
X157317352Y-56077753D01*
X157178280Y-55861629D01*
X156966080Y-55716639D01*
X156714190Y-55665630D01*
X155116530Y-55665630D01*
X154881213Y-55709908D01*
X154665089Y-55848980D01*
X154520099Y-56061180D01*
X154499529Y-56162759D01*
X154412797Y-55953371D01*
X154234168Y-55774743D01*
X154000779Y-55678070D01*
X153361390Y-55678070D01*
X153202640Y-55836820D01*
X153202640Y-57086500D01*
X153222640Y-57086500D01*
X153222640Y-57340500D01*
X153202640Y-57340500D01*
X153202640Y-58590180D01*
X153361390Y-58748930D01*
X154000779Y-58748930D01*
X154234168Y-58652257D01*
X154412797Y-58473629D01*
X154498046Y-58267819D01*
X154513368Y-58349247D01*
X154652440Y-58565371D01*
X154864640Y-58710361D01*
X155116530Y-58761370D01*
X156714190Y-58761370D01*
X156949507Y-58717092D01*
X157165631Y-58578020D01*
X157310621Y-58365820D01*
X157361630Y-58113930D01*
X157361630Y-58098500D01*
X158904278Y-58098500D01*
X158904338Y-58098817D01*
X159043410Y-58314941D01*
X159255610Y-58459931D01*
X159507500Y-58510940D01*
X161007500Y-58510940D01*
X161242817Y-58466662D01*
X161458941Y-58327590D01*
X161603931Y-58115390D01*
X161606581Y-58102303D01*
X161743410Y-58314941D01*
X161955610Y-58459931D01*
X162121379Y-58493500D01*
X162052000Y-58493500D01*
X161569819Y-58589412D01*
X161161045Y-58862545D01*
X161161043Y-58862548D01*
X158540090Y-61483500D01*
X156819600Y-61483500D01*
X156584283Y-61527778D01*
X156368159Y-61666850D01*
X156223169Y-61879050D01*
X156172160Y-62130940D01*
X156172160Y-65631060D01*
X156216438Y-65866377D01*
X156355510Y-66082501D01*
X156567710Y-66227491D01*
X156819600Y-66278500D01*
X159503645Y-66278500D01*
X159367899Y-66365850D01*
X159222909Y-66578050D01*
X159171900Y-66829940D01*
X159171900Y-70330060D01*
X159216178Y-70565377D01*
X159355250Y-70781501D01*
X159567450Y-70926491D01*
X159819340Y-70977500D01*
X163319460Y-70977500D01*
X163554777Y-70933222D01*
X163770901Y-70794150D01*
X163915891Y-70581950D01*
X163966900Y-70330060D01*
X163966900Y-66829940D01*
X163922622Y-66594623D01*
X163783550Y-66378499D01*
X163637197Y-66278500D01*
X164919500Y-66278500D01*
X164919500Y-73519091D01*
X164318590Y-74120000D01*
X162438080Y-74120000D01*
X162202763Y-74164278D01*
X161986639Y-74303350D01*
X161841649Y-74515550D01*
X161790640Y-74767440D01*
X161790640Y-78267560D01*
X161834918Y-78502877D01*
X161973990Y-78719001D01*
X162120343Y-78819000D01*
X160254415Y-78819000D01*
X160390161Y-78731650D01*
X160535151Y-78519450D01*
X160586160Y-78267560D01*
X160586160Y-74767440D01*
X160541882Y-74532123D01*
X160402810Y-74315999D01*
X160190610Y-74171009D01*
X159938720Y-74120000D01*
X158544950Y-74120000D01*
X152116500Y-67691550D01*
X152116500Y-58931509D01*
X152330855Y-58931509D01*
X152342223Y-58980623D01*
X152371802Y-59021446D01*
X152414934Y-59047545D01*
X152447379Y-59054571D01*
X158205614Y-59528971D01*
X158255679Y-59523056D01*
X158299498Y-59498129D01*
X158330167Y-59458118D01*
X158343042Y-59402639D01*
X158343934Y-58928239D01*
X158334021Y-58878810D01*
X158305658Y-58837132D01*
X158263315Y-58809772D01*
X158216934Y-58801000D01*
X152457807Y-58801000D01*
X152408397Y-58811006D01*
X152366772Y-58839447D01*
X152339492Y-58881841D01*
X152330855Y-58931509D01*
X152116500Y-58931509D01*
X152116500Y-58734846D01*
X152150501Y-58748930D01*
X152789890Y-58748930D01*
X152948640Y-58590180D01*
X152948640Y-57340500D01*
X152928640Y-57340500D01*
X152928640Y-57086500D01*
X152948640Y-57086500D01*
X152948640Y-55836820D01*
X152789890Y-55678070D01*
X152150501Y-55678070D01*
X152116500Y-55692154D01*
X152116500Y-51855500D01*
X157357060Y-51855500D01*
X157357060Y-52855500D01*
X157401338Y-53090817D01*
X157540410Y-53306941D01*
X157752610Y-53451931D01*
X158004500Y-53502940D01*
X161204500Y-53502940D01*
X161439817Y-53458662D01*
X161655941Y-53319590D01*
X161800931Y-53107390D01*
X161804351Y-53090500D01*
X164201278Y-53090500D01*
X164201338Y-53090817D01*
X164340410Y-53306941D01*
X164552610Y-53451931D01*
X164804500Y-53502940D01*
X168004500Y-53502940D01*
X168239817Y-53458662D01*
X168455941Y-53319590D01*
X168600931Y-53107390D01*
X168604351Y-53090500D01*
X169061444Y-53090500D01*
X169065910Y-53097441D01*
X169278110Y-53242431D01*
X169530000Y-53293440D01*
X170617994Y-53293440D01*
X171683308Y-54358755D01*
X171683238Y-54439567D01*
X171825283Y-54783343D01*
X172088073Y-55046592D01*
X172431601Y-55189238D01*
X172803567Y-55189562D01*
X173147343Y-55047517D01*
X173410592Y-54784727D01*
X173553238Y-54441199D01*
X173553562Y-54069233D01*
X173411517Y-53725457D01*
X173148727Y-53462208D01*
X172805199Y-53319562D01*
X172722937Y-53319490D01*
X171477440Y-52073994D01*
X171477440Y-51146000D01*
X171433162Y-50910683D01*
X171294090Y-50694559D01*
X171081890Y-50549569D01*
X171048510Y-50542809D01*
X171189699Y-50484327D01*
X171368327Y-50305698D01*
X171465000Y-50072309D01*
X171465000Y-49481750D01*
X171306250Y-49323000D01*
X170307000Y-49323000D01*
X170307000Y-49343000D01*
X170053000Y-49343000D01*
X170053000Y-49323000D01*
X169053750Y-49323000D01*
X168895000Y-49481750D01*
X168895000Y-50072309D01*
X168991673Y-50305698D01*
X169170301Y-50484327D01*
X169306287Y-50540654D01*
X169294683Y-50542838D01*
X169078559Y-50681910D01*
X168933569Y-50894110D01*
X168882560Y-51146000D01*
X168882560Y-51620500D01*
X168607722Y-51620500D01*
X168607662Y-51620183D01*
X168468590Y-51404059D01*
X168256390Y-51259069D01*
X168004500Y-51208060D01*
X164804500Y-51208060D01*
X164569183Y-51252338D01*
X164353059Y-51391410D01*
X164208069Y-51603610D01*
X164204649Y-51620500D01*
X161807722Y-51620500D01*
X161807662Y-51620183D01*
X161668590Y-51404059D01*
X161456390Y-51259069D01*
X161204500Y-51208060D01*
X158004500Y-51208060D01*
X157769183Y-51252338D01*
X157553059Y-51391410D01*
X157408069Y-51603610D01*
X157357060Y-51855500D01*
X152116500Y-51855500D01*
X152116500Y-50997224D01*
X158227968Y-51178753D01*
X158277654Y-51170219D01*
X158320104Y-51143026D01*
X158348631Y-51101460D01*
X158358739Y-51052048D01*
X158361651Y-49502940D01*
X161204500Y-49502940D01*
X161439817Y-49458662D01*
X161655941Y-49319590D01*
X161709981Y-49240500D01*
X162608778Y-49240500D01*
X162728801Y-49290338D01*
X163100767Y-49290662D01*
X163222169Y-49240500D01*
X164297656Y-49240500D01*
X164340410Y-49306941D01*
X164552610Y-49451931D01*
X164804500Y-49502940D01*
X168004500Y-49502940D01*
X168239817Y-49458662D01*
X168455941Y-49319590D01*
X168600931Y-49107390D01*
X168651940Y-48855500D01*
X168651940Y-48319691D01*
X168895000Y-48319691D01*
X168895000Y-48910250D01*
X169053750Y-49069000D01*
X170053000Y-49069000D01*
X170053000Y-47969750D01*
X169894250Y-47811000D01*
X169403690Y-47811000D01*
X169170301Y-47907673D01*
X168991673Y-48086302D01*
X168895000Y-48319691D01*
X168651940Y-48319691D01*
X168651940Y-47855500D01*
X168607662Y-47620183D01*
X168468590Y-47404059D01*
X168256390Y-47259069D01*
X168004500Y-47208060D01*
X164804500Y-47208060D01*
X164569183Y-47252338D01*
X164353059Y-47391410D01*
X164299019Y-47470500D01*
X163222422Y-47470500D01*
X163102399Y-47420662D01*
X162730433Y-47420338D01*
X162609031Y-47470500D01*
X161711344Y-47470500D01*
X161668590Y-47404059D01*
X161456390Y-47259069D01*
X161204500Y-47208060D01*
X158365964Y-47208060D01*
X158368454Y-45883500D01*
X168859554Y-45883500D01*
X170787054Y-47811000D01*
G36*
X195910560Y-61770000D02*
X195910560Y-63770000D01*
X195954838Y-64005317D01*
X196093910Y-64221441D01*
X196306110Y-64366431D01*
X196558000Y-64417440D01*
X198158000Y-64417440D01*
X198393317Y-64373162D01*
X198609441Y-64234090D01*
X198754431Y-64021890D01*
X198805440Y-63770000D01*
X198805440Y-63530000D01*
X201368553Y-63530000D01*
X199695777Y-65202777D01*
X199536449Y-65441228D01*
X199480500Y-65722500D01*
X199480500Y-67196053D01*
X198831554Y-67845000D01*
X198790252Y-67845000D01*
X198805440Y-67770000D01*
X198805440Y-65770000D01*
X198761162Y-65534683D01*
X198622090Y-65318559D01*
X198409890Y-65173569D01*
X198158000Y-65122560D01*
X196558000Y-65122560D01*
X196322683Y-65166838D01*
X196106559Y-65305910D01*
X195961569Y-65518110D01*
X195910560Y-65770000D01*
X195910560Y-66298540D01*
X194332561Y-66298540D01*
X194202590Y-66096559D01*
X193990390Y-65951569D01*
X193799931Y-65913000D01*
X193864810Y-65913000D01*
X194098199Y-65816327D01*
X194276827Y-65637698D01*
X194373500Y-65404309D01*
X194373500Y-65053210D01*
X194214750Y-64894460D01*
X192595500Y-64894460D01*
X192595500Y-64914460D01*
X192341500Y-64914460D01*
X192341500Y-64894460D01*
X190722250Y-64894460D01*
X190563500Y-65053210D01*
X190563500Y-65404309D01*
X190660173Y-65637698D01*
X190838801Y-65816327D01*
X191072190Y-65913000D01*
X191132387Y-65913000D01*
X190963183Y-65944838D01*
X190747059Y-66083910D01*
X190602069Y-66296110D01*
X190551060Y-66548000D01*
X190551060Y-66882867D01*
X190536500Y-66882854D01*
X190536500Y-64130611D01*
X190563500Y-64130611D01*
X190563500Y-64481710D01*
X190722250Y-64640460D01*
X192341500Y-64640460D01*
X192341500Y-63780670D01*
X192182750Y-63621920D01*
X191072190Y-63621920D01*
X190838801Y-63718593D01*
X190660173Y-63897222D01*
X190563500Y-64130611D01*
X190536500Y-64130611D01*
X190536500Y-63613946D01*
X191883947Y-62266500D01*
X193964902Y-62266500D01*
X193882657Y-62300483D01*
X193619408Y-62563273D01*
X193476762Y-62906801D01*
X193476438Y-63278767D01*
X193618226Y-63621920D01*
X192754250Y-63621920D01*
X192595500Y-63780670D01*
X192595500Y-64640460D01*
X194214750Y-64640460D01*
X194373500Y-64481710D01*
X194373500Y-64130611D01*
X194331217Y-64028531D01*
X194446469Y-64028631D01*
X194462400Y-64031800D01*
X194478192Y-64028659D01*
X194596767Y-64028762D01*
X194707323Y-63983081D01*
X194743672Y-63975851D01*
X194774218Y-63955441D01*
X194940543Y-63886717D01*
X195203792Y-63623927D01*
X195346438Y-63280399D01*
X195346762Y-62908433D01*
X195204717Y-62564657D01*
X194941927Y-62301408D01*
X194742117Y-62218439D01*
X194781772Y-62210551D01*
X195020223Y-62051223D01*
X195312947Y-61758500D01*
X195912889Y-61758500D01*
X195910560Y-61770000D01*
X195910560Y-61770000D01*
G37*
X195910560Y-61770000D02*
X195910560Y-63770000D01*
X195954838Y-64005317D01*
X196093910Y-64221441D01*
X196306110Y-64366431D01*
X196558000Y-64417440D01*
X198158000Y-64417440D01*
X198393317Y-64373162D01*
X198609441Y-64234090D01*
X198754431Y-64021890D01*
X198805440Y-63770000D01*
X198805440Y-63530000D01*
X201368553Y-63530000D01*
X199695777Y-65202777D01*
X199536449Y-65441228D01*
X199480500Y-65722500D01*
X199480500Y-67196053D01*
X198831554Y-67845000D01*
X198790252Y-67845000D01*
X198805440Y-67770000D01*
X198805440Y-65770000D01*
X198761162Y-65534683D01*
X198622090Y-65318559D01*
X198409890Y-65173569D01*
X198158000Y-65122560D01*
X196558000Y-65122560D01*
X196322683Y-65166838D01*
X196106559Y-65305910D01*
X195961569Y-65518110D01*
X195910560Y-65770000D01*
X195910560Y-66298540D01*
X194332561Y-66298540D01*
X194202590Y-66096559D01*
X193990390Y-65951569D01*
X193799931Y-65913000D01*
X193864810Y-65913000D01*
X194098199Y-65816327D01*
X194276827Y-65637698D01*
X194373500Y-65404309D01*
X194373500Y-65053210D01*
X194214750Y-64894460D01*
X192595500Y-64894460D01*
X192595500Y-64914460D01*
X192341500Y-64914460D01*
X192341500Y-64894460D01*
X190722250Y-64894460D01*
X190563500Y-65053210D01*
X190563500Y-65404309D01*
X190660173Y-65637698D01*
X190838801Y-65816327D01*
X191072190Y-65913000D01*
X191132387Y-65913000D01*
X190963183Y-65944838D01*
X190747059Y-66083910D01*
X190602069Y-66296110D01*
X190551060Y-66548000D01*
X190551060Y-66882867D01*
X190536500Y-66882854D01*
X190536500Y-64130611D01*
X190563500Y-64130611D01*
X190563500Y-64481710D01*
X190722250Y-64640460D01*
X192341500Y-64640460D01*
X192341500Y-63780670D01*
X192182750Y-63621920D01*
X191072190Y-63621920D01*
X190838801Y-63718593D01*
X190660173Y-63897222D01*
X190563500Y-64130611D01*
X190536500Y-64130611D01*
X190536500Y-63613946D01*
X191883947Y-62266500D01*
X193964902Y-62266500D01*
X193882657Y-62300483D01*
X193619408Y-62563273D01*
X193476762Y-62906801D01*
X193476438Y-63278767D01*
X193618226Y-63621920D01*
X192754250Y-63621920D01*
X192595500Y-63780670D01*
X192595500Y-64640460D01*
X194214750Y-64640460D01*
X194373500Y-64481710D01*
X194373500Y-64130611D01*
X194331217Y-64028531D01*
X194446469Y-64028631D01*
X194462400Y-64031800D01*
X194478192Y-64028659D01*
X194596767Y-64028762D01*
X194707323Y-63983081D01*
X194743672Y-63975851D01*
X194774218Y-63955441D01*
X194940543Y-63886717D01*
X195203792Y-63623927D01*
X195346438Y-63280399D01*
X195346762Y-62908433D01*
X195204717Y-62564657D01*
X194941927Y-62301408D01*
X194742117Y-62218439D01*
X194781772Y-62210551D01*
X195020223Y-62051223D01*
X195312947Y-61758500D01*
X195912889Y-61758500D01*
X195910560Y-61770000D01*
G36*
X198814000Y-56896002D02*
X198972748Y-56896002D01*
X198814000Y-57054750D01*
X198814000Y-57545310D01*
X198910673Y-57778699D01*
X199089302Y-57957327D01*
X199133175Y-57975500D01*
X199089302Y-57993673D01*
X198910673Y-58172301D01*
X198814000Y-58405690D01*
X198814000Y-58553767D01*
X198650327Y-58389808D01*
X198306799Y-58247162D01*
X197934833Y-58246838D01*
X197591057Y-58388883D01*
X197327808Y-58651673D01*
X197185162Y-58995201D01*
X197185059Y-59113429D01*
X197131000Y-59385200D01*
X197186949Y-59666472D01*
X197346277Y-59904923D01*
X197584728Y-60064251D01*
X197866000Y-60120200D01*
X197916800Y-60120200D01*
X197933700Y-60116838D01*
X198305167Y-60117162D01*
X198648943Y-59975117D01*
X198814000Y-59810348D01*
X198814000Y-59958310D01*
X198910673Y-60191699D01*
X199007475Y-60288500D01*
X195126636Y-60288500D01*
X195392339Y-60235648D01*
X195638901Y-60070901D01*
X198814000Y-56895802D01*
X198814000Y-56896002D01*
X198814000Y-56896002D01*
G37*
X198814000Y-56896002D02*
X198972748Y-56896002D01*
X198814000Y-57054750D01*
X198814000Y-57545310D01*
X198910673Y-57778699D01*
X199089302Y-57957327D01*
X199133175Y-57975500D01*
X199089302Y-57993673D01*
X198910673Y-58172301D01*
X198814000Y-58405690D01*
X198814000Y-58553767D01*
X198650327Y-58389808D01*
X198306799Y-58247162D01*
X197934833Y-58246838D01*
X197591057Y-58388883D01*
X197327808Y-58651673D01*
X197185162Y-58995201D01*
X197185059Y-59113429D01*
X197131000Y-59385200D01*
X197186949Y-59666472D01*
X197346277Y-59904923D01*
X197584728Y-60064251D01*
X197866000Y-60120200D01*
X197916800Y-60120200D01*
X197933700Y-60116838D01*
X198305167Y-60117162D01*
X198648943Y-59975117D01*
X198814000Y-59810348D01*
X198814000Y-59958310D01*
X198910673Y-60191699D01*
X199007475Y-60288500D01*
X195126636Y-60288500D01*
X195392339Y-60235648D01*
X195638901Y-60070901D01*
X198814000Y-56895802D01*
X198814000Y-56896002D01*
G36*
X200326000Y-56642000D02*
X200346000Y-56642000D01*
X200346000Y-56896000D01*
X200326000Y-56896000D01*
X200326000Y-57895250D01*
X200406250Y-57975500D01*
X200326000Y-58055750D01*
X200326000Y-59055000D01*
X200346000Y-59055000D01*
X200346000Y-59309000D01*
X200326000Y-59309000D01*
X200326000Y-59329000D01*
X200072000Y-59329000D01*
X200072000Y-59309000D01*
X200052000Y-59309000D01*
X200052000Y-59055000D01*
X200072000Y-59055000D01*
X200072000Y-58055750D01*
X199991750Y-57975500D01*
X200072000Y-57895250D01*
X200072000Y-56896000D01*
X200052000Y-56896000D01*
X200052000Y-56642000D01*
X200072000Y-56642000D01*
X200072000Y-56622000D01*
X200326000Y-56622000D01*
X200326000Y-56642000D01*
X200326000Y-56642000D01*
G37*
X200326000Y-56642000D02*
X200346000Y-56642000D01*
X200346000Y-56896000D01*
X200326000Y-56896000D01*
X200326000Y-57895250D01*
X200406250Y-57975500D01*
X200326000Y-58055750D01*
X200326000Y-59055000D01*
X200346000Y-59055000D01*
X200346000Y-59309000D01*
X200326000Y-59309000D01*
X200326000Y-59329000D01*
X200072000Y-59329000D01*
X200072000Y-59309000D01*
X200052000Y-59309000D01*
X200052000Y-59055000D01*
X200072000Y-59055000D01*
X200072000Y-58055750D01*
X199991750Y-57975500D01*
X200072000Y-57895250D01*
X200072000Y-56896000D01*
X200052000Y-56896000D01*
X200052000Y-56642000D01*
X200072000Y-56642000D01*
X200072000Y-56622000D01*
X200326000Y-56622000D01*
X200326000Y-56642000D01*
G36*
X183737445Y-43715247D02*
X183866599Y-43844401D01*
X184113161Y-44009148D01*
X184206409Y-44027696D01*
X184054903Y-44179201D01*
X183958230Y-44412590D01*
X183958230Y-45053250D01*
X184116980Y-45212000D01*
X186265820Y-45212000D01*
X186265820Y-45192000D01*
X186519820Y-45192000D01*
X186519820Y-45212000D01*
X188668660Y-45212000D01*
X188827410Y-45053250D01*
X188827410Y-44412590D01*
X188730737Y-44179201D01*
X188618535Y-44067000D01*
X189296198Y-44067000D01*
X193169000Y-47939802D01*
X193169000Y-54041198D01*
X193085318Y-54124880D01*
X193062556Y-54003911D01*
X193086940Y-53883500D01*
X193086940Y-53483500D01*
X193062556Y-53353911D01*
X193086940Y-53233500D01*
X193086940Y-52833500D01*
X193062556Y-52703911D01*
X193086940Y-52583500D01*
X193086940Y-52183500D01*
X193062556Y-52053911D01*
X193086940Y-51933500D01*
X193086940Y-51533500D01*
X193067050Y-51427795D01*
X193074500Y-51409810D01*
X193074500Y-51342250D01*
X193045496Y-51313246D01*
X193042662Y-51298183D01*
X192903590Y-51082059D01*
X192759344Y-50983500D01*
X192915750Y-50983500D01*
X193074500Y-50824750D01*
X193074500Y-50757190D01*
X192977827Y-50523801D01*
X192799198Y-50345173D01*
X192565809Y-50248500D01*
X192175250Y-50248500D01*
X192016500Y-50407250D01*
X192016500Y-50886060D01*
X191762500Y-50886060D01*
X191762500Y-50407250D01*
X191603750Y-50248500D01*
X191213191Y-50248500D01*
X190979802Y-50345173D01*
X190801173Y-50523801D01*
X190704500Y-50757190D01*
X190704500Y-50824750D01*
X190836248Y-50956498D01*
X190704500Y-50956498D01*
X190704500Y-50998500D01*
X189353952Y-50998500D01*
X189315827Y-50960308D01*
X188972299Y-50817662D01*
X188600333Y-50817338D01*
X188256557Y-50959383D01*
X187993308Y-51222173D01*
X187850662Y-51565701D01*
X187850338Y-51937667D01*
X187992383Y-52281443D01*
X188255173Y-52544692D01*
X188598701Y-52687338D01*
X188802959Y-52687516D01*
X188802838Y-52826667D01*
X188863508Y-52973500D01*
X187386940Y-52973500D01*
X187386940Y-52833500D01*
X187362556Y-52703911D01*
X187386940Y-52583500D01*
X187386940Y-52183500D01*
X187362556Y-52053911D01*
X187386940Y-51933500D01*
X187386940Y-51533500D01*
X187362556Y-51403911D01*
X187386940Y-51283500D01*
X187386940Y-50883500D01*
X187342662Y-50648183D01*
X187237714Y-50485088D01*
X188038362Y-49684440D01*
X189011000Y-49684440D01*
X189246317Y-49640162D01*
X189462441Y-49501090D01*
X189607431Y-49288890D01*
X189614191Y-49255510D01*
X189672673Y-49396699D01*
X189851302Y-49575327D01*
X190084691Y-49672000D01*
X190675250Y-49672000D01*
X190834000Y-49513250D01*
X190834000Y-48514000D01*
X191088000Y-48514000D01*
X191088000Y-49513250D01*
X191246750Y-49672000D01*
X191837309Y-49672000D01*
X192070698Y-49575327D01*
X192249327Y-49396699D01*
X192346000Y-49163310D01*
X192346000Y-48672750D01*
X192187250Y-48514000D01*
X191088000Y-48514000D01*
X190834000Y-48514000D01*
X190814000Y-48514000D01*
X190814000Y-48260000D01*
X190834000Y-48260000D01*
X190834000Y-47260750D01*
X191088000Y-47260750D01*
X191088000Y-48260000D01*
X192187250Y-48260000D01*
X192346000Y-48101250D01*
X192346000Y-47610690D01*
X192249327Y-47377301D01*
X192070698Y-47198673D01*
X191837309Y-47102000D01*
X191246750Y-47102000D01*
X191088000Y-47260750D01*
X190834000Y-47260750D01*
X190675250Y-47102000D01*
X190084691Y-47102000D01*
X189851302Y-47198673D01*
X189672673Y-47377301D01*
X189616346Y-47513287D01*
X189614162Y-47501683D01*
X189475090Y-47285559D01*
X189262890Y-47140569D01*
X189011000Y-47089560D01*
X187511000Y-47089560D01*
X187275683Y-47133838D01*
X187059559Y-47272910D01*
X186914569Y-47485110D01*
X186863560Y-47737000D01*
X186863560Y-48709638D01*
X185652099Y-49921099D01*
X185487352Y-50167661D01*
X185467301Y-50268461D01*
X185404183Y-50280338D01*
X185188059Y-50419410D01*
X185043069Y-50631610D01*
X184992060Y-50883500D01*
X184992060Y-51283500D01*
X185016444Y-51413089D01*
X184992060Y-51533500D01*
X184992060Y-51933500D01*
X185016444Y-52063089D01*
X184992060Y-52183500D01*
X184992060Y-52583500D01*
X185016444Y-52713089D01*
X184992060Y-52833500D01*
X184992060Y-53142613D01*
X179170000Y-47320554D01*
X179170000Y-46786540D01*
X182690770Y-46786540D01*
X182926087Y-46742262D01*
X183142211Y-46603190D01*
X183287201Y-46390990D01*
X183338210Y-46139100D01*
X183338210Y-45624750D01*
X183958230Y-45624750D01*
X183958230Y-46265410D01*
X184054903Y-46498799D01*
X184233532Y-46677427D01*
X184466921Y-46774100D01*
X186107070Y-46774100D01*
X186265820Y-46615350D01*
X186265820Y-45466000D01*
X186519820Y-45466000D01*
X186519820Y-46615350D01*
X186678570Y-46774100D01*
X188318719Y-46774100D01*
X188552108Y-46677427D01*
X188730737Y-46498799D01*
X188827410Y-46265410D01*
X188827410Y-45624750D01*
X188668660Y-45466000D01*
X186519820Y-45466000D01*
X186265820Y-45466000D01*
X184116980Y-45466000D01*
X183958230Y-45624750D01*
X183338210Y-45624750D01*
X183338210Y-44538900D01*
X183293932Y-44303583D01*
X183154860Y-44087459D01*
X182942660Y-43942469D01*
X182690770Y-43891460D01*
X181776180Y-43891460D01*
X181776180Y-43702594D01*
X183737445Y-43715247D01*
X183737445Y-43715247D01*
G37*
X183737445Y-43715247D02*
X183866599Y-43844401D01*
X184113161Y-44009148D01*
X184206409Y-44027696D01*
X184054903Y-44179201D01*
X183958230Y-44412590D01*
X183958230Y-45053250D01*
X184116980Y-45212000D01*
X186265820Y-45212000D01*
X186265820Y-45192000D01*
X186519820Y-45192000D01*
X186519820Y-45212000D01*
X188668660Y-45212000D01*
X188827410Y-45053250D01*
X188827410Y-44412590D01*
X188730737Y-44179201D01*
X188618535Y-44067000D01*
X189296198Y-44067000D01*
X193169000Y-47939802D01*
X193169000Y-54041198D01*
X193085318Y-54124880D01*
X193062556Y-54003911D01*
X193086940Y-53883500D01*
X193086940Y-53483500D01*
X193062556Y-53353911D01*
X193086940Y-53233500D01*
X193086940Y-52833500D01*
X193062556Y-52703911D01*
X193086940Y-52583500D01*
X193086940Y-52183500D01*
X193062556Y-52053911D01*
X193086940Y-51933500D01*
X193086940Y-51533500D01*
X193067050Y-51427795D01*
X193074500Y-51409810D01*
X193074500Y-51342250D01*
X193045496Y-51313246D01*
X193042662Y-51298183D01*
X192903590Y-51082059D01*
X192759344Y-50983500D01*
X192915750Y-50983500D01*
X193074500Y-50824750D01*
X193074500Y-50757190D01*
X192977827Y-50523801D01*
X192799198Y-50345173D01*
X192565809Y-50248500D01*
X192175250Y-50248500D01*
X192016500Y-50407250D01*
X192016500Y-50886060D01*
X191762500Y-50886060D01*
X191762500Y-50407250D01*
X191603750Y-50248500D01*
X191213191Y-50248500D01*
X190979802Y-50345173D01*
X190801173Y-50523801D01*
X190704500Y-50757190D01*
X190704500Y-50824750D01*
X190836248Y-50956498D01*
X190704500Y-50956498D01*
X190704500Y-50998500D01*
X189353952Y-50998500D01*
X189315827Y-50960308D01*
X188972299Y-50817662D01*
X188600333Y-50817338D01*
X188256557Y-50959383D01*
X187993308Y-51222173D01*
X187850662Y-51565701D01*
X187850338Y-51937667D01*
X187992383Y-52281443D01*
X188255173Y-52544692D01*
X188598701Y-52687338D01*
X188802959Y-52687516D01*
X188802838Y-52826667D01*
X188863508Y-52973500D01*
X187386940Y-52973500D01*
X187386940Y-52833500D01*
X187362556Y-52703911D01*
X187386940Y-52583500D01*
X187386940Y-52183500D01*
X187362556Y-52053911D01*
X187386940Y-51933500D01*
X187386940Y-51533500D01*
X187362556Y-51403911D01*
X187386940Y-51283500D01*
X187386940Y-50883500D01*
X187342662Y-50648183D01*
X187237714Y-50485088D01*
X188038362Y-49684440D01*
X189011000Y-49684440D01*
X189246317Y-49640162D01*
X189462441Y-49501090D01*
X189607431Y-49288890D01*
X189614191Y-49255510D01*
X189672673Y-49396699D01*
X189851302Y-49575327D01*
X190084691Y-49672000D01*
X190675250Y-49672000D01*
X190834000Y-49513250D01*
X190834000Y-48514000D01*
X191088000Y-48514000D01*
X191088000Y-49513250D01*
X191246750Y-49672000D01*
X191837309Y-49672000D01*
X192070698Y-49575327D01*
X192249327Y-49396699D01*
X192346000Y-49163310D01*
X192346000Y-48672750D01*
X192187250Y-48514000D01*
X191088000Y-48514000D01*
X190834000Y-48514000D01*
X190814000Y-48514000D01*
X190814000Y-48260000D01*
X190834000Y-48260000D01*
X190834000Y-47260750D01*
X191088000Y-47260750D01*
X191088000Y-48260000D01*
X192187250Y-48260000D01*
X192346000Y-48101250D01*
X192346000Y-47610690D01*
X192249327Y-47377301D01*
X192070698Y-47198673D01*
X191837309Y-47102000D01*
X191246750Y-47102000D01*
X191088000Y-47260750D01*
X190834000Y-47260750D01*
X190675250Y-47102000D01*
X190084691Y-47102000D01*
X189851302Y-47198673D01*
X189672673Y-47377301D01*
X189616346Y-47513287D01*
X189614162Y-47501683D01*
X189475090Y-47285559D01*
X189262890Y-47140569D01*
X189011000Y-47089560D01*
X187511000Y-47089560D01*
X187275683Y-47133838D01*
X187059559Y-47272910D01*
X186914569Y-47485110D01*
X186863560Y-47737000D01*
X186863560Y-48709638D01*
X185652099Y-49921099D01*
X185487352Y-50167661D01*
X185467301Y-50268461D01*
X185404183Y-50280338D01*
X185188059Y-50419410D01*
X185043069Y-50631610D01*
X184992060Y-50883500D01*
X184992060Y-51283500D01*
X185016444Y-51413089D01*
X184992060Y-51533500D01*
X184992060Y-51933500D01*
X185016444Y-52063089D01*
X184992060Y-52183500D01*
X184992060Y-52583500D01*
X185016444Y-52713089D01*
X184992060Y-52833500D01*
X184992060Y-53142613D01*
X179170000Y-47320554D01*
X179170000Y-46786540D01*
X182690770Y-46786540D01*
X182926087Y-46742262D01*
X183142211Y-46603190D01*
X183287201Y-46390990D01*
X183338210Y-46139100D01*
X183338210Y-45624750D01*
X183958230Y-45624750D01*
X183958230Y-46265410D01*
X184054903Y-46498799D01*
X184233532Y-46677427D01*
X184466921Y-46774100D01*
X186107070Y-46774100D01*
X186265820Y-46615350D01*
X186265820Y-45466000D01*
X186519820Y-45466000D01*
X186519820Y-46615350D01*
X186678570Y-46774100D01*
X188318719Y-46774100D01*
X188552108Y-46677427D01*
X188730737Y-46498799D01*
X188827410Y-46265410D01*
X188827410Y-45624750D01*
X188668660Y-45466000D01*
X186519820Y-45466000D01*
X186265820Y-45466000D01*
X184116980Y-45466000D01*
X183958230Y-45624750D01*
X183338210Y-45624750D01*
X183338210Y-44538900D01*
X183293932Y-44303583D01*
X183154860Y-44087459D01*
X182942660Y-43942469D01*
X182690770Y-43891460D01*
X181776180Y-43891460D01*
X181776180Y-43702594D01*
X183737445Y-43715247D01*
M02*
