M48
;DRILL file {KiCad 4.0.0-rc2-stable} date 7/13/2016 8:06:41 PM
;FORMAT={-:-/ absolute / inch / decimal}
FMAT,2
INCH,TZ
T1C0.016
T2C0.028
T3C0.039
T4C0.040
%
G90
G05
M72
T1
X6.414Y-1.9038
X6.516Y-2.248
X6.785Y-2.115
X6.955Y-3.37
X7.06Y-2.93
X7.075Y-3.045
X7.126Y-1.542
X7.135Y-2.4575
X7.14Y-2.3875
X7.17Y-2.7
X7.225Y-1.925
X7.225Y-3.405
X7.235Y-3.105
X7.26Y-2.99
X7.26Y-3.385
X7.295Y-3.3
X7.315Y-3.02
X7.328Y-2.406
X7.33Y-3.29
X7.375Y-3.075
X7.38Y-3.35
X7.402Y-2.344
X7.42Y-2.99
X7.4325Y-2.0375
X7.465Y-2.215
X7.465Y-3.385
X7.47Y-2.0725
X7.488Y-1.816
X7.498Y-3.526
X7.5025Y-2.14
X7.55Y-3.215
X7.55Y-3.255
X7.588Y-2.466
X7.6525Y-2.7
X7.654Y-2.484
X7.665Y-3.005
X7.7Y-2.665
X7.702Y-2.366
X7.745Y-3.045
X7.8Y-2.33
X7.81Y-1.85
X7.838Y-2.096
X7.855Y-3.045
X7.8725Y-2.735
X7.895Y-3.55
X7.905Y-3.215
X7.93Y-3.005
X7.935Y-2.88
X7.99Y-3.105
X7.9925Y-2.4025
X7.998Y-1.68
X8.018Y-2.47
X8.076Y-2.162
X8.084Y-2.048
X8.108Y-2.492
X8.11Y-3.514
T2
X7.875Y-2.93
T4
X6.0625Y-1.355
X6.0625Y-1.455
X6.0625Y-1.555
X6.2Y-1.355
X6.2Y-1.455
X6.2Y-1.555
X6.3375Y-1.355
X6.3375Y-1.455
X6.3375Y-1.555
X6.475Y-1.355
X6.475Y-1.455
X6.475Y-1.555
X6.6125Y-1.355
X6.6125Y-1.455
X6.6125Y-1.555
X6.75Y-1.355
X6.75Y-1.455
X6.75Y-1.555
X6.815Y-3.51
X6.815Y-3.61
X6.815Y-3.71
X6.8875Y-1.355
X6.8875Y-1.455
X6.8875Y-1.555
X6.915Y-3.51
X6.915Y-3.61
X6.915Y-3.71
X7.015Y-3.51
X7.015Y-3.61
X7.015Y-3.71
X7.025Y-1.355
X7.025Y-1.455
X7.025Y-1.555
X7.115Y-3.51
X7.115Y-3.61
X7.115Y-3.71
X7.215Y-1.355
X7.215Y-1.455
X7.215Y-1.555
X7.215Y-3.51
X7.215Y-3.61
X7.215Y-3.71
X7.335Y-2.535
X7.335Y-2.635
X7.3525Y-1.355
X7.3525Y-1.455
X7.3525Y-1.555
X7.415Y-3.71
X7.49Y-1.355
X7.49Y-1.455
X7.49Y-1.555
X7.515Y-3.71
X7.615Y-3.71
X7.6275Y-1.355
X7.6275Y-1.455
X7.6275Y-1.555
X7.715Y-3.71
X7.765Y-1.355
X7.765Y-1.455
X7.765Y-1.555
X7.805Y-3.3425
X7.805Y-3.4425
X7.9025Y-1.355
X7.9025Y-1.455
X7.9025Y-1.555
X7.905Y-3.3425
X7.905Y-3.4425
X8.005Y-3.3425
X8.005Y-3.4425
X8.04Y-1.355
X8.04Y-1.455
X8.04Y-1.555
X8.075Y-3.16
X8.0775Y-2.6525
X8.0775Y-2.7525
X8.0775Y-2.8525
X8.0775Y-2.9525
X8.175Y-2.105
X8.175Y-2.205
X8.175Y-2.305
X8.175Y-2.405
X8.175Y-3.16
X8.1775Y-1.355
X8.1775Y-1.455
X8.1775Y-1.555
X8.1775Y-2.6525
X8.1775Y-2.7525
X8.1775Y-2.8525
X8.1775Y-2.9525
T3
X6.2279Y-2.9731G85X6.2279Y-3.0518
G05
X6.2429Y-2.4756G85X6.2429Y-2.5543
G05
X6.3066Y-3.1975G85X6.3853Y-3.1975
G05
X6.3216Y-2.7G85X6.4003Y-2.7
G05
X6.4641Y-2.9731G85X6.4641Y-3.0518
G05
X6.4791Y-2.4756G85X6.4791Y-2.5543
G05
T0
M30
