G04 #@! TF.FileFunction,Copper,L2,Bot,Signal*
%FSLAX46Y46*%
G04 Gerber Fmt 4.6, Leading zero omitted, Abs format (unit mm)*
G04 Created by KiCad (PCBNEW 4.0.0-rc2-stable) date 7/13/2016 8:06:37 PM*
%MOMM*%
G01*
G04 APERTURE LIST*
%ADD10C,0.100000*%
%ADD11R,3.500120X3.500120*%
%ADD12R,2.032000X2.032000*%
%ADD13O,2.032000X2.032000*%
%ADD14R,1.727200X2.032000*%
%ADD15O,1.727200X2.032000*%
%ADD16R,1.727200X1.727200*%
%ADD17O,1.727200X1.727200*%
%ADD18R,2.032000X1.727200*%
%ADD19O,2.032000X1.727200*%
%ADD20R,1.600000X1.000000*%
%ADD21C,0.600000*%
%ADD22C,1.500000*%
%ADD23C,0.500000*%
%ADD24C,0.200000*%
%ADD25C,0.250000*%
%ADD26C,2.100000*%
%ADD27C,0.750000*%
%ADD28C,0.150000*%
%ADD29C,0.254000*%
G04 APERTURE END LIST*
D10*
D11*
X164569140Y-63881000D03*
X158569660Y-63881000D03*
X161569400Y-68580000D03*
D12*
X207645000Y-80264000D03*
D13*
X205105000Y-80264000D03*
D11*
X164188140Y-76517500D03*
X158188660Y-76517500D03*
X161188400Y-81216500D03*
D12*
X186309000Y-64389000D03*
D13*
X186309000Y-66929000D03*
D14*
X173101000Y-94234000D03*
D15*
X175641000Y-94234000D03*
X178181000Y-94234000D03*
X180721000Y-94234000D03*
X183261000Y-94234000D03*
D14*
X195961000Y-94234000D03*
D15*
X193421000Y-94234000D03*
X190881000Y-94234000D03*
X188341000Y-94234000D03*
D16*
X203327000Y-84899500D03*
D17*
X203327000Y-87439500D03*
X200787000Y-84899500D03*
X200787000Y-87439500D03*
X198247000Y-84899500D03*
X198247000Y-87439500D03*
D18*
X207645000Y-53467000D03*
D19*
X207645000Y-56007000D03*
X207645000Y-58547000D03*
X207645000Y-61087000D03*
D18*
X174942500Y-34417000D03*
D19*
X174942500Y-36957000D03*
X174942500Y-39497000D03*
D18*
X178435000Y-34417000D03*
D19*
X178435000Y-36957000D03*
X178435000Y-39497000D03*
D18*
X171450000Y-34417000D03*
D19*
X171450000Y-36957000D03*
X171450000Y-39497000D03*
D18*
X167957500Y-34417000D03*
D19*
X167957500Y-36957000D03*
X167957500Y-39497000D03*
D18*
X164465000Y-34417000D03*
D19*
X164465000Y-36957000D03*
X164465000Y-39497000D03*
D18*
X160972500Y-34417000D03*
D19*
X160972500Y-36957000D03*
X160972500Y-39497000D03*
D18*
X157480000Y-34417000D03*
D19*
X157480000Y-36957000D03*
X157480000Y-39497000D03*
D18*
X153987500Y-34417000D03*
D19*
X153987500Y-36957000D03*
X153987500Y-39497000D03*
D18*
X207708500Y-34417000D03*
D19*
X207708500Y-36957000D03*
X207708500Y-39497000D03*
D18*
X204216000Y-34417000D03*
D19*
X204216000Y-36957000D03*
X204216000Y-39497000D03*
D18*
X200723500Y-34417000D03*
D19*
X200723500Y-36957000D03*
X200723500Y-39497000D03*
D18*
X197231000Y-34417000D03*
D19*
X197231000Y-36957000D03*
X197231000Y-39497000D03*
D18*
X193738500Y-34417000D03*
D19*
X193738500Y-36957000D03*
X193738500Y-39497000D03*
D18*
X190246000Y-34417000D03*
D19*
X190246000Y-36957000D03*
X190246000Y-39497000D03*
D18*
X186753500Y-34417000D03*
D19*
X186753500Y-36957000D03*
X186753500Y-39497000D03*
D18*
X183261000Y-34417000D03*
D19*
X183261000Y-36957000D03*
X183261000Y-39497000D03*
D16*
X173101000Y-91694000D03*
D17*
X173101000Y-89154000D03*
X175641000Y-91694000D03*
X175641000Y-89154000D03*
X178181000Y-91694000D03*
X178181000Y-89154000D03*
X180721000Y-91694000D03*
X180721000Y-89154000D03*
X183261000Y-91694000D03*
X183261000Y-89154000D03*
D16*
X205168500Y-67373500D03*
D17*
X207708500Y-67373500D03*
X205168500Y-69913500D03*
X207708500Y-69913500D03*
X205168500Y-72453500D03*
X207708500Y-72453500D03*
X205168500Y-74993500D03*
X207708500Y-74993500D03*
D20*
X179705000Y-76097000D03*
X179705000Y-79097000D03*
X194056000Y-81002000D03*
X194056000Y-78002000D03*
X182245000Y-70128000D03*
X182245000Y-73128000D03*
D21*
X205994000Y-89255600D03*
X190449200Y-89560400D03*
X194411600Y-63093600D03*
X205130400Y-54914800D03*
X198120000Y-59182000D03*
X199517000Y-77343000D03*
X202946000Y-78867000D03*
X187325000Y-78105000D03*
X205943200Y-63296800D03*
X203657200Y-62738000D03*
X188010800Y-59537600D03*
X186131200Y-61112400D03*
X165506400Y-57099200D03*
X162915600Y-48355500D03*
X203149200Y-42672000D03*
X181000400Y-39166800D03*
D22*
X200025000Y-74422000D03*
D21*
X183769000Y-78867000D03*
X179705000Y-77343000D03*
X182118000Y-68580000D03*
X195630800Y-60096400D03*
X192735200Y-62636400D03*
X199085200Y-53238400D03*
X190195200Y-46126400D03*
X205333600Y-52019200D03*
X181356000Y-60642500D03*
X183515000Y-48895000D03*
X195580000Y-67691000D03*
X201549000Y-73152000D03*
X172339000Y-53721000D03*
X181229000Y-62420500D03*
X196723000Y-77343000D03*
X188468000Y-75946000D03*
X179324000Y-74422000D03*
X184404000Y-75946000D03*
X183515000Y-86487000D03*
X176657000Y-85598000D03*
X185293000Y-83820000D03*
X186182000Y-83566000D03*
X187452000Y-85090000D03*
X200533000Y-90170000D03*
X189611000Y-85979000D03*
X191770000Y-82677000D03*
X200787000Y-81661000D03*
X191770000Y-81661000D03*
X201422000Y-76327000D03*
X194691000Y-76327000D03*
X199961500Y-69469000D03*
X194373500Y-68580000D03*
X188785500Y-51752500D03*
X189738000Y-52641500D03*
X189611000Y-56261000D03*
X203009500Y-61023500D03*
X184404000Y-85979000D03*
X185801000Y-76708000D03*
X198374000Y-46990000D03*
X190563500Y-54356000D03*
D23*
X204216000Y-91033600D02*
X205994000Y-89255600D01*
X191922400Y-91033600D02*
X204216000Y-91033600D01*
X190449200Y-89560400D02*
X191922400Y-91033600D01*
D24*
X198120000Y-59385200D02*
X198120000Y-59182000D01*
X194411600Y-63093600D02*
X198120000Y-59385200D01*
X202387200Y-54914800D02*
X205130400Y-54914800D01*
X198120000Y-59182000D02*
X202387200Y-54914800D01*
D25*
X201422000Y-77343000D02*
X199517000Y-77343000D01*
X202946000Y-78867000D02*
X201422000Y-77343000D01*
D26*
X183261000Y-91694000D02*
X185801000Y-91694000D01*
X185801000Y-91694000D02*
X185864500Y-91757500D01*
X173101000Y-91694000D02*
X169481500Y-91694000D01*
X180721000Y-91694000D02*
X183261000Y-91694000D01*
X173101000Y-91694000D02*
X175641000Y-91694000D01*
X175641000Y-91694000D02*
X178181000Y-91694000D01*
X178181000Y-91694000D02*
X180721000Y-91694000D01*
X151638000Y-34417000D02*
X150431500Y-35623500D01*
X153987500Y-34417000D02*
X151638000Y-34417000D01*
D25*
X204216000Y-63296800D02*
X205943200Y-63296800D01*
X203657200Y-62738000D02*
X204216000Y-63296800D01*
D23*
X162915600Y-48355500D02*
X162915600Y-48361600D01*
X209169000Y-34417000D02*
X207708500Y-34417000D01*
X210108800Y-35356800D02*
X209169000Y-34417000D01*
X210108800Y-41046400D02*
X210108800Y-35356800D01*
X209042000Y-42113200D02*
X210108800Y-41046400D01*
X203708000Y-42113200D02*
X209042000Y-42113200D01*
X203149200Y-42672000D02*
X203708000Y-42113200D01*
X180898800Y-39065200D02*
X180898800Y-34417000D01*
X181000400Y-39166800D02*
X180898800Y-39065200D01*
D26*
X164569140Y-63881000D02*
X164569140Y-64747140D01*
X164569140Y-64747140D02*
X166179500Y-66357500D01*
X166179500Y-66357500D02*
X166179500Y-75097640D01*
X166179500Y-75097640D02*
X164696140Y-76581000D01*
X153987500Y-34417000D02*
X151638000Y-34417000D01*
X164569140Y-60873640D02*
X164569140Y-63881000D01*
X163830000Y-60134500D02*
X164569140Y-60873640D01*
X150812500Y-60134500D02*
X163830000Y-60134500D01*
X150431500Y-60515500D02*
X150812500Y-60134500D01*
X150431500Y-35623500D02*
X150431500Y-60515500D01*
X151638000Y-34417000D02*
X150431500Y-35623500D01*
X153987500Y-34417000D02*
X157480000Y-34417000D01*
X157480000Y-34417000D02*
X160972500Y-34417000D01*
X160972500Y-34417000D02*
X164465000Y-34417000D01*
X164465000Y-34417000D02*
X167957500Y-34417000D01*
X167957500Y-34417000D02*
X171450000Y-34417000D01*
X171450000Y-34417000D02*
X174942500Y-34417000D01*
X174942500Y-34417000D02*
X178435000Y-34417000D01*
X178435000Y-34417000D02*
X180898800Y-34417000D01*
X180898800Y-34417000D02*
X183261000Y-34417000D01*
X183261000Y-34417000D02*
X186753500Y-34417000D01*
X186753500Y-34417000D02*
X190246000Y-34417000D01*
X190246000Y-34417000D02*
X193738500Y-34417000D01*
X193738500Y-34417000D02*
X197231000Y-34417000D01*
X197231000Y-34417000D02*
X200723500Y-34417000D01*
X200723500Y-34417000D02*
X204216000Y-34417000D01*
X204216000Y-34417000D02*
X207708500Y-34417000D01*
D25*
X179705000Y-77343000D02*
X179705000Y-75438000D01*
X180594000Y-74549000D02*
X180594000Y-73914000D01*
X179705000Y-75438000D02*
X180594000Y-74549000D01*
D23*
X200025000Y-74422000D02*
X201803000Y-74422000D01*
D27*
X182245000Y-70128000D02*
X190397000Y-70128000D01*
X199263000Y-73660000D02*
X200025000Y-74422000D01*
X195326000Y-73660000D02*
X199263000Y-73660000D01*
X194691000Y-73025000D02*
X195326000Y-73660000D01*
X193294000Y-73025000D02*
X194691000Y-73025000D01*
X190397000Y-70128000D02*
X193294000Y-73025000D01*
D23*
X205105000Y-78486000D02*
X205105000Y-80264000D01*
X203835000Y-77216000D02*
X205105000Y-78486000D01*
X203835000Y-76454000D02*
X203835000Y-77216000D01*
X201803000Y-74422000D02*
X203835000Y-76454000D01*
D25*
X194056000Y-81002000D02*
X199287000Y-81002000D01*
X199771000Y-80518000D02*
X204851000Y-80518000D01*
X199287000Y-81002000D02*
X199771000Y-80518000D01*
X204851000Y-80518000D02*
X205105000Y-80264000D01*
X183769000Y-78867000D02*
X182626000Y-77724000D01*
X182626000Y-77724000D02*
X182626000Y-75946000D01*
X182626000Y-75946000D02*
X180594000Y-73914000D01*
X181205000Y-70128000D02*
X182245000Y-70128000D01*
X180594000Y-73914000D02*
X180340000Y-73660000D01*
X180340000Y-73660000D02*
X180340000Y-70993000D01*
X180340000Y-70993000D02*
X181205000Y-70128000D01*
X179705000Y-76097000D02*
X179705000Y-77343000D01*
X182245000Y-70128000D02*
X182245000Y-68707000D01*
X182245000Y-68707000D02*
X182118000Y-68580000D01*
X195275200Y-60096400D02*
X195630800Y-60096400D01*
X192735200Y-62636400D02*
X195275200Y-60096400D01*
D23*
X199085200Y-53238400D02*
X199136000Y-53289200D01*
X199136000Y-53289200D02*
X204063600Y-53289200D01*
X204063600Y-53289200D02*
X205333600Y-52019200D01*
D27*
X191719200Y-44602400D02*
X190195200Y-46126400D01*
X204216000Y-44602400D02*
X191719200Y-44602400D01*
X205587600Y-45974000D02*
X204216000Y-44602400D01*
X205587600Y-51765200D02*
X205587600Y-45974000D01*
X205333600Y-52019200D02*
X205587600Y-51765200D01*
X181356000Y-60642500D02*
X183515000Y-58483500D01*
X183515000Y-58483500D02*
X183515000Y-48895000D01*
D25*
X195580000Y-69596000D02*
X195580000Y-67691000D01*
X197739000Y-71755000D02*
X195580000Y-69596000D01*
X200152000Y-71755000D02*
X197739000Y-71755000D01*
X201549000Y-73152000D02*
X200152000Y-71755000D01*
X172529500Y-53721000D02*
X172339000Y-53721000D01*
X181229000Y-62420500D02*
X172529500Y-53721000D01*
X196723000Y-77539002D02*
X196723000Y-77343000D01*
X196215000Y-78047002D02*
X196723000Y-77539002D01*
X196215000Y-78740000D02*
X196215000Y-78047002D01*
X195580000Y-79375000D02*
X196215000Y-78740000D01*
X191897000Y-79375000D02*
X195580000Y-79375000D01*
X188468000Y-75946000D02*
X191897000Y-79375000D01*
X183261000Y-89154000D02*
X183261000Y-88900000D01*
X183261000Y-88900000D02*
X182562500Y-88201500D01*
X177165000Y-82804000D02*
X182562500Y-88201500D01*
X182562500Y-88201500D02*
X183261000Y-88900000D01*
X177165000Y-76581000D02*
X177165000Y-82804000D01*
X179324000Y-74422000D02*
X177165000Y-76581000D01*
X183261000Y-88900000D02*
X183261000Y-88963500D01*
X184531000Y-76073000D02*
X184404000Y-75946000D01*
X184531000Y-81845998D02*
X184531000Y-76073000D01*
X183007000Y-83369998D02*
X184531000Y-81845998D01*
X183007000Y-85979000D02*
X183007000Y-83369998D01*
X183515000Y-86487000D02*
X183007000Y-85979000D01*
X175641000Y-89154000D02*
X175641000Y-87884000D01*
X175641000Y-86614000D02*
X175641000Y-87884000D01*
X175641000Y-87884000D02*
X175641000Y-88963500D01*
X176657000Y-85598000D02*
X175641000Y-86614000D01*
X188341000Y-90551000D02*
X188341000Y-94234000D01*
X185547000Y-87757000D02*
X188341000Y-90551000D01*
X185547000Y-84074000D02*
X185547000Y-87757000D01*
X185293000Y-83820000D02*
X185547000Y-84074000D01*
X186182000Y-83820000D02*
X186182000Y-83566000D01*
X187452000Y-85090000D02*
X186182000Y-83820000D01*
X193802000Y-90170000D02*
X200533000Y-90170000D01*
X189611000Y-85979000D02*
X193802000Y-90170000D01*
X203327000Y-83566000D02*
X203327000Y-84899500D01*
X202565000Y-82804000D02*
X203327000Y-83566000D01*
X200406000Y-82804000D02*
X202565000Y-82804000D01*
X200279000Y-82677000D02*
X200406000Y-82804000D01*
X191770000Y-82677000D02*
X200279000Y-82677000D01*
X200221002Y-82226998D02*
X200787000Y-81661000D01*
X192659000Y-82226998D02*
X200221002Y-82226998D01*
X192347002Y-81915000D02*
X192659000Y-82226998D01*
X192024000Y-81915000D02*
X192347002Y-81915000D01*
X191770000Y-81661000D02*
X192024000Y-81915000D01*
X194691000Y-76327000D02*
X201422000Y-76327000D01*
X200406000Y-69913500D02*
X205168500Y-69913500D01*
X199961500Y-69469000D02*
X200406000Y-69913500D01*
X207708500Y-69913500D02*
X208216500Y-69913500D01*
D24*
X188722000Y-51816000D02*
X188785500Y-51752500D01*
X188722000Y-62928500D02*
X188722000Y-51816000D01*
X188722000Y-62928500D02*
X194373500Y-68580000D01*
X189738000Y-56134000D02*
X189738000Y-52641500D01*
X189611000Y-56261000D02*
X189738000Y-56134000D01*
X207645000Y-58547000D02*
X205486000Y-58547000D01*
X205486000Y-58547000D02*
X203009500Y-61023500D01*
D25*
X183515000Y-85090000D02*
X184404000Y-85979000D01*
X183515000Y-83693000D02*
X183515000Y-85090000D01*
X185039000Y-82169000D02*
X183515000Y-83693000D01*
X185039000Y-80391000D02*
X185039000Y-82169000D01*
X185801000Y-79629000D02*
X185039000Y-80391000D01*
X185801000Y-76708000D02*
X185801000Y-79629000D01*
D26*
X158188660Y-76517500D02*
X158188660Y-75999340D01*
D28*
X197929500Y-46990000D02*
X198374000Y-46990000D01*
X190563500Y-54356000D02*
X197929500Y-46990000D01*
D29*
G36*
X152336500Y-33427090D02*
X152336500Y-34131250D01*
X152495250Y-34290000D01*
X153860500Y-34290000D01*
X153860500Y-34270000D01*
X154114500Y-34270000D01*
X154114500Y-34290000D01*
X155479750Y-34290000D01*
X155638500Y-34131250D01*
X155638500Y-33427090D01*
X155553549Y-33222000D01*
X155913951Y-33222000D01*
X155829000Y-33427090D01*
X155829000Y-34131250D01*
X155987750Y-34290000D01*
X157353000Y-34290000D01*
X157353000Y-34270000D01*
X157607000Y-34270000D01*
X157607000Y-34290000D01*
X158972250Y-34290000D01*
X159131000Y-34131250D01*
X159131000Y-33427090D01*
X159046049Y-33222000D01*
X159406451Y-33222000D01*
X159321500Y-33427090D01*
X159321500Y-34131250D01*
X159480250Y-34290000D01*
X160845500Y-34290000D01*
X160845500Y-34270000D01*
X161099500Y-34270000D01*
X161099500Y-34290000D01*
X162464750Y-34290000D01*
X162623500Y-34131250D01*
X162623500Y-33427090D01*
X162538549Y-33222000D01*
X162898951Y-33222000D01*
X162814000Y-33427090D01*
X162814000Y-34131250D01*
X162972750Y-34290000D01*
X164338000Y-34290000D01*
X164338000Y-34270000D01*
X164592000Y-34270000D01*
X164592000Y-34290000D01*
X165957250Y-34290000D01*
X166116000Y-34131250D01*
X166116000Y-33427090D01*
X166031049Y-33222000D01*
X166391451Y-33222000D01*
X166306500Y-33427090D01*
X166306500Y-34131250D01*
X166465250Y-34290000D01*
X167830500Y-34290000D01*
X167830500Y-34270000D01*
X168084500Y-34270000D01*
X168084500Y-34290000D01*
X169449750Y-34290000D01*
X169608500Y-34131250D01*
X169608500Y-33427090D01*
X169523549Y-33222000D01*
X169883951Y-33222000D01*
X169799000Y-33427090D01*
X169799000Y-34131250D01*
X169957750Y-34290000D01*
X171323000Y-34290000D01*
X171323000Y-34270000D01*
X171577000Y-34270000D01*
X171577000Y-34290000D01*
X172942250Y-34290000D01*
X173101000Y-34131250D01*
X173101000Y-33427090D01*
X173016049Y-33222000D01*
X173376451Y-33222000D01*
X173291500Y-33427090D01*
X173291500Y-34131250D01*
X173450250Y-34290000D01*
X174815500Y-34290000D01*
X174815500Y-34270000D01*
X175069500Y-34270000D01*
X175069500Y-34290000D01*
X176434750Y-34290000D01*
X176593500Y-34131250D01*
X176593500Y-33427090D01*
X176508549Y-33222000D01*
X176868951Y-33222000D01*
X176784000Y-33427090D01*
X176784000Y-34131250D01*
X176942750Y-34290000D01*
X178308000Y-34290000D01*
X178308000Y-34270000D01*
X178562000Y-34270000D01*
X178562000Y-34290000D01*
X179927250Y-34290000D01*
X180086000Y-34131250D01*
X180086000Y-33427090D01*
X180001049Y-33222000D01*
X181694951Y-33222000D01*
X181610000Y-33427090D01*
X181610000Y-34131250D01*
X181768750Y-34290000D01*
X183134000Y-34290000D01*
X183134000Y-34270000D01*
X183388000Y-34270000D01*
X183388000Y-34290000D01*
X184753250Y-34290000D01*
X184912000Y-34131250D01*
X184912000Y-33427090D01*
X184827049Y-33222000D01*
X185187451Y-33222000D01*
X185102500Y-33427090D01*
X185102500Y-34131250D01*
X185261250Y-34290000D01*
X186626500Y-34290000D01*
X186626500Y-34270000D01*
X186880500Y-34270000D01*
X186880500Y-34290000D01*
X188245750Y-34290000D01*
X188404500Y-34131250D01*
X188404500Y-33427090D01*
X188319549Y-33222000D01*
X188679951Y-33222000D01*
X188595000Y-33427090D01*
X188595000Y-34131250D01*
X188753750Y-34290000D01*
X190119000Y-34290000D01*
X190119000Y-34270000D01*
X190373000Y-34270000D01*
X190373000Y-34290000D01*
X191738250Y-34290000D01*
X191897000Y-34131250D01*
X191897000Y-33427090D01*
X191812049Y-33222000D01*
X192172451Y-33222000D01*
X192087500Y-33427090D01*
X192087500Y-34131250D01*
X192246250Y-34290000D01*
X193611500Y-34290000D01*
X193611500Y-34270000D01*
X193865500Y-34270000D01*
X193865500Y-34290000D01*
X195230750Y-34290000D01*
X195389500Y-34131250D01*
X195389500Y-33427090D01*
X195304549Y-33222000D01*
X195664951Y-33222000D01*
X195580000Y-33427090D01*
X195580000Y-34131250D01*
X195738750Y-34290000D01*
X197104000Y-34290000D01*
X197104000Y-34270000D01*
X197358000Y-34270000D01*
X197358000Y-34290000D01*
X198723250Y-34290000D01*
X198882000Y-34131250D01*
X198882000Y-33427090D01*
X198797049Y-33222000D01*
X199157451Y-33222000D01*
X199072500Y-33427090D01*
X199072500Y-34131250D01*
X199231250Y-34290000D01*
X200596500Y-34290000D01*
X200596500Y-34270000D01*
X200850500Y-34270000D01*
X200850500Y-34290000D01*
X202215750Y-34290000D01*
X202374500Y-34131250D01*
X202374500Y-33427090D01*
X202289549Y-33222000D01*
X202649951Y-33222000D01*
X202565000Y-33427090D01*
X202565000Y-34131250D01*
X202723750Y-34290000D01*
X204089000Y-34290000D01*
X204089000Y-34270000D01*
X204343000Y-34270000D01*
X204343000Y-34290000D01*
X204363000Y-34290000D01*
X204363000Y-34544000D01*
X204343000Y-34544000D01*
X204343000Y-34564000D01*
X204089000Y-34564000D01*
X204089000Y-34544000D01*
X202723750Y-34544000D01*
X202565000Y-34702750D01*
X202565000Y-35406910D01*
X202661673Y-35640299D01*
X202840302Y-35818927D01*
X202993780Y-35882500D01*
X202971585Y-35897330D01*
X202646729Y-36383511D01*
X202532655Y-36957000D01*
X202646729Y-37530489D01*
X202971585Y-38016670D01*
X203286366Y-38227000D01*
X202971585Y-38437330D01*
X202646729Y-38923511D01*
X202532655Y-39497000D01*
X202646729Y-40070489D01*
X202971585Y-40556670D01*
X203457766Y-40881526D01*
X204031255Y-40995600D01*
X204400745Y-40995600D01*
X204974234Y-40881526D01*
X205460415Y-40556670D01*
X205772905Y-40088996D01*
X205745996Y-44704040D01*
X204930178Y-43888222D01*
X204602510Y-43669282D01*
X204216000Y-43592400D01*
X191719200Y-43592400D01*
X191332689Y-43669282D01*
X191005022Y-43888222D01*
X189481022Y-45412222D01*
X189262082Y-45739890D01*
X189185200Y-46126400D01*
X189262082Y-46512910D01*
X189481022Y-46840578D01*
X189808690Y-47059518D01*
X190195200Y-47136400D01*
X190581710Y-47059518D01*
X190909378Y-46840578D01*
X192137556Y-45612400D01*
X203797644Y-45612400D01*
X204577600Y-46392356D01*
X204577600Y-51367613D01*
X204400482Y-51632690D01*
X204383585Y-51717636D01*
X203697020Y-52404200D01*
X199514361Y-52404200D01*
X199271999Y-52303562D01*
X198900033Y-52303238D01*
X198556257Y-52445283D01*
X198293008Y-52708073D01*
X198150362Y-53051601D01*
X198150038Y-53423567D01*
X198292083Y-53767343D01*
X198554873Y-54030592D01*
X198898401Y-54173238D01*
X199132183Y-54173442D01*
X199136000Y-54174201D01*
X199136005Y-54174200D01*
X204063595Y-54174200D01*
X204063600Y-54174201D01*
X204346084Y-54118010D01*
X204402275Y-54106833D01*
X204689390Y-53914990D01*
X204689391Y-53914989D01*
X205635164Y-52969215D01*
X205720110Y-52952318D01*
X205981560Y-52777623D01*
X205981560Y-54330600D01*
X206025838Y-54565917D01*
X206164910Y-54782041D01*
X206377110Y-54927031D01*
X206418439Y-54935400D01*
X206400585Y-54947330D01*
X206075729Y-55433511D01*
X205961655Y-56007000D01*
X206075729Y-56580489D01*
X206400585Y-57066670D01*
X206715366Y-57277000D01*
X206400585Y-57487330D01*
X206183647Y-57812000D01*
X205486000Y-57812000D01*
X205204728Y-57867949D01*
X204966277Y-58027276D01*
X202905145Y-60088408D01*
X202824333Y-60088338D01*
X202480557Y-60230383D01*
X202217308Y-60493173D01*
X202074662Y-60836701D01*
X202074338Y-61208667D01*
X202216383Y-61552443D01*
X202479173Y-61815692D01*
X202822701Y-61958338D01*
X203194667Y-61958662D01*
X203538443Y-61816617D01*
X203801692Y-61553827D01*
X203846455Y-61446026D01*
X206037642Y-61446026D01*
X206040291Y-61461791D01*
X206294268Y-61989036D01*
X206730680Y-62378954D01*
X207283087Y-62572184D01*
X207518000Y-62427924D01*
X207518000Y-61214000D01*
X207772000Y-61214000D01*
X207772000Y-62427924D01*
X208006913Y-62572184D01*
X208559320Y-62378954D01*
X208995732Y-61989036D01*
X209249709Y-61461791D01*
X209252358Y-61446026D01*
X209131217Y-61214000D01*
X207772000Y-61214000D01*
X207518000Y-61214000D01*
X206158783Y-61214000D01*
X206037642Y-61446026D01*
X203846455Y-61446026D01*
X203944338Y-61210299D01*
X203944410Y-61128037D01*
X205790447Y-59282000D01*
X206183647Y-59282000D01*
X206400585Y-59606670D01*
X206710069Y-59813461D01*
X206294268Y-60184964D01*
X206040291Y-60712209D01*
X206037642Y-60727974D01*
X206158783Y-60960000D01*
X207518000Y-60960000D01*
X207518000Y-60940000D01*
X207772000Y-60940000D01*
X207772000Y-60960000D01*
X209131217Y-60960000D01*
X209252358Y-60727974D01*
X209249709Y-60712209D01*
X208995732Y-60184964D01*
X208579931Y-59813461D01*
X208889415Y-59606670D01*
X209214271Y-59120489D01*
X209328345Y-58547000D01*
X209214271Y-57973511D01*
X208889415Y-57487330D01*
X208574634Y-57277000D01*
X208889415Y-57066670D01*
X209214271Y-56580489D01*
X209328345Y-56007000D01*
X209214271Y-55433511D01*
X208889415Y-54947330D01*
X208875087Y-54937757D01*
X208896317Y-54933762D01*
X209112441Y-54794690D01*
X209257431Y-54582490D01*
X209308440Y-54330600D01*
X209308440Y-52603400D01*
X209264162Y-52368083D01*
X209125090Y-52151959D01*
X208912890Y-52006969D01*
X208661000Y-51955960D01*
X206629000Y-51955960D01*
X206556959Y-51969515D01*
X206597600Y-51765200D01*
X206597600Y-50211309D01*
X210591239Y-50166437D01*
X210540759Y-90398600D01*
X206102579Y-90398600D01*
X206402834Y-90098345D01*
X206522943Y-90048717D01*
X206786192Y-89785927D01*
X206928838Y-89442399D01*
X206929162Y-89070433D01*
X206787117Y-88726657D01*
X206524327Y-88463408D01*
X206180799Y-88320762D01*
X205808833Y-88320438D01*
X205465057Y-88462483D01*
X205201808Y-88725273D01*
X205151434Y-88846587D01*
X203849420Y-90148600D01*
X201468019Y-90148600D01*
X201468162Y-89984833D01*
X201326117Y-89641057D01*
X201063327Y-89377808D01*
X200719799Y-89235162D01*
X200347833Y-89234838D01*
X200004057Y-89376883D01*
X199970882Y-89410000D01*
X194116802Y-89410000D01*
X192505329Y-87798527D01*
X196792032Y-87798527D01*
X197040179Y-88327990D01*
X197472053Y-88722188D01*
X197887974Y-88894458D01*
X198120000Y-88773317D01*
X198120000Y-87566500D01*
X196912531Y-87566500D01*
X196792032Y-87798527D01*
X192505329Y-87798527D01*
X190546122Y-85839320D01*
X190546162Y-85793833D01*
X190404117Y-85450057D01*
X190141327Y-85186808D01*
X189797799Y-85044162D01*
X189425833Y-85043838D01*
X189082057Y-85185883D01*
X188818808Y-85448673D01*
X188676162Y-85792201D01*
X188675838Y-86164167D01*
X188817883Y-86507943D01*
X189080673Y-86771192D01*
X189424201Y-86913838D01*
X189471077Y-86913879D01*
X192705798Y-90148600D01*
X192288979Y-90148600D01*
X191291944Y-89151564D01*
X191242317Y-89031457D01*
X190979527Y-88768208D01*
X190635999Y-88625562D01*
X190264033Y-88625238D01*
X189920257Y-88767283D01*
X189657008Y-89030073D01*
X189514362Y-89373601D01*
X189514038Y-89745567D01*
X189656083Y-90089343D01*
X189918873Y-90352592D01*
X190040186Y-90402966D01*
X191296608Y-91659387D01*
X191296610Y-91659390D01*
X191583725Y-91851233D01*
X191922400Y-91918600D01*
X204215995Y-91918600D01*
X204216000Y-91918601D01*
X204498484Y-91862410D01*
X204554675Y-91851233D01*
X204841790Y-91659390D01*
X205460600Y-91040580D01*
X205460600Y-95429000D01*
X197435792Y-95429000D01*
X197472040Y-95250000D01*
X197472040Y-93218000D01*
X197427762Y-92982683D01*
X197288690Y-92766559D01*
X197076490Y-92621569D01*
X196824600Y-92570560D01*
X195097400Y-92570560D01*
X194862083Y-92614838D01*
X194645959Y-92753910D01*
X194500969Y-92966110D01*
X194492600Y-93007439D01*
X194480670Y-92989585D01*
X193994489Y-92664729D01*
X193421000Y-92550655D01*
X192847511Y-92664729D01*
X192361330Y-92989585D01*
X192151000Y-93304366D01*
X191940670Y-92989585D01*
X191454489Y-92664729D01*
X190881000Y-92550655D01*
X190307511Y-92664729D01*
X189821330Y-92989585D01*
X189611000Y-93304366D01*
X189400670Y-92989585D01*
X189101000Y-92789352D01*
X189101000Y-90551000D01*
X189043148Y-90260161D01*
X188878401Y-90013599D01*
X186307000Y-87442198D01*
X186307000Y-85019802D01*
X186516878Y-85229680D01*
X186516838Y-85275167D01*
X186658883Y-85618943D01*
X186921673Y-85882192D01*
X187265201Y-86024838D01*
X187637167Y-86025162D01*
X187980943Y-85883117D01*
X188244192Y-85620327D01*
X188386838Y-85276799D01*
X188387162Y-84904833D01*
X188245117Y-84561057D01*
X187982327Y-84297808D01*
X187638799Y-84155162D01*
X187591923Y-84155121D01*
X187116901Y-83680099D01*
X187117162Y-83380833D01*
X186975117Y-83037057D01*
X186712327Y-82773808D01*
X186368799Y-82631162D01*
X185996833Y-82630838D01*
X185653057Y-82772883D01*
X185522726Y-82902987D01*
X185479799Y-82885162D01*
X185397712Y-82885090D01*
X185576401Y-82706401D01*
X185741148Y-82459840D01*
X185750746Y-82411586D01*
X185799000Y-82169000D01*
X185799000Y-80705802D01*
X186338401Y-80166401D01*
X186503148Y-79919839D01*
X186561000Y-79629000D01*
X186561000Y-77270463D01*
X186593192Y-77238327D01*
X186735838Y-76894799D01*
X186736162Y-76522833D01*
X186594117Y-76179057D01*
X186331327Y-75915808D01*
X185987799Y-75773162D01*
X185615833Y-75772838D01*
X185339052Y-75887201D01*
X185339162Y-75760833D01*
X185197117Y-75417057D01*
X184934327Y-75153808D01*
X184590799Y-75011162D01*
X184218833Y-75010838D01*
X183875057Y-75152883D01*
X183611808Y-75415673D01*
X183469162Y-75759201D01*
X183468838Y-76131167D01*
X183610883Y-76474943D01*
X183771000Y-76635340D01*
X183771000Y-77794198D01*
X183386000Y-77409198D01*
X183386000Y-75946000D01*
X183328148Y-75655161D01*
X183163401Y-75408599D01*
X181988526Y-74233724D01*
X182118000Y-74104250D01*
X182118000Y-73255000D01*
X182372000Y-73255000D01*
X182372000Y-74104250D01*
X182530750Y-74263000D01*
X183171310Y-74263000D01*
X183404699Y-74166327D01*
X183583327Y-73987698D01*
X183680000Y-73754309D01*
X183680000Y-73413750D01*
X183521250Y-73255000D01*
X182372000Y-73255000D01*
X182118000Y-73255000D01*
X182098000Y-73255000D01*
X182098000Y-73001000D01*
X182118000Y-73001000D01*
X182118000Y-72151750D01*
X182372000Y-72151750D01*
X182372000Y-73001000D01*
X183521250Y-73001000D01*
X183680000Y-72842250D01*
X183680000Y-72501691D01*
X183583327Y-72268302D01*
X183404699Y-72089673D01*
X183171310Y-71993000D01*
X182530750Y-71993000D01*
X182372000Y-72151750D01*
X182118000Y-72151750D01*
X181959250Y-71993000D01*
X181318690Y-71993000D01*
X181100000Y-72083584D01*
X181100000Y-71307802D01*
X181187324Y-71220478D01*
X181193110Y-71224431D01*
X181445000Y-71275440D01*
X183045000Y-71275440D01*
X183280317Y-71231162D01*
X183425095Y-71138000D01*
X189978644Y-71138000D01*
X192579822Y-73739178D01*
X192907490Y-73958118D01*
X193294000Y-74035000D01*
X194272644Y-74035000D01*
X194611822Y-74374178D01*
X194939490Y-74593118D01*
X195326000Y-74670000D01*
X198639783Y-74670000D01*
X198639760Y-74696285D01*
X198850169Y-75205515D01*
X199211025Y-75567000D01*
X195253463Y-75567000D01*
X195221327Y-75534808D01*
X194877799Y-75392162D01*
X194505833Y-75391838D01*
X194162057Y-75533883D01*
X193898808Y-75796673D01*
X193756162Y-76140201D01*
X193755838Y-76512167D01*
X193897883Y-76855943D01*
X193928998Y-76887112D01*
X193928998Y-77025748D01*
X193770250Y-76867000D01*
X193129690Y-76867000D01*
X192896301Y-76963673D01*
X192717673Y-77142302D01*
X192621000Y-77375691D01*
X192621000Y-77716250D01*
X192779750Y-77875000D01*
X193929000Y-77875000D01*
X193929000Y-77855000D01*
X194183000Y-77855000D01*
X194183000Y-77875000D01*
X194203000Y-77875000D01*
X194203000Y-78129000D01*
X194183000Y-78129000D01*
X194183000Y-78149000D01*
X193929000Y-78149000D01*
X193929000Y-78129000D01*
X192779750Y-78129000D01*
X192621000Y-78287750D01*
X192621000Y-78615000D01*
X192211802Y-78615000D01*
X189403122Y-75806320D01*
X189403162Y-75760833D01*
X189261117Y-75417057D01*
X188998327Y-75153808D01*
X188654799Y-75011162D01*
X188282833Y-75010838D01*
X187939057Y-75152883D01*
X187675808Y-75415673D01*
X187533162Y-75759201D01*
X187532838Y-76131167D01*
X187674883Y-76474943D01*
X187937673Y-76738192D01*
X188281201Y-76880838D01*
X188328077Y-76880879D01*
X191359599Y-79912401D01*
X191606160Y-80077148D01*
X191897000Y-80135000D01*
X192738220Y-80135000D01*
X192659569Y-80250110D01*
X192608560Y-80502000D01*
X192608560Y-81207028D01*
X192592799Y-81203892D01*
X192563117Y-81132057D01*
X192300327Y-80868808D01*
X191956799Y-80726162D01*
X191584833Y-80725838D01*
X191241057Y-80867883D01*
X190977808Y-81130673D01*
X190835162Y-81474201D01*
X190834838Y-81846167D01*
X190968383Y-82169371D01*
X190835162Y-82490201D01*
X190834838Y-82862167D01*
X190976883Y-83205943D01*
X191239673Y-83469192D01*
X191583201Y-83611838D01*
X191955167Y-83612162D01*
X192298943Y-83470117D01*
X192332118Y-83437000D01*
X197917915Y-83437000D01*
X197673511Y-83485615D01*
X197187330Y-83810471D01*
X196862474Y-84296652D01*
X196748400Y-84870141D01*
X196748400Y-84928859D01*
X196862474Y-85502348D01*
X197187330Y-85988529D01*
X197458161Y-86169492D01*
X197040179Y-86551010D01*
X196792032Y-87080473D01*
X196912531Y-87312500D01*
X198120000Y-87312500D01*
X198120000Y-87292500D01*
X198374000Y-87292500D01*
X198374000Y-87312500D01*
X198394000Y-87312500D01*
X198394000Y-87566500D01*
X198374000Y-87566500D01*
X198374000Y-88773317D01*
X198606026Y-88894458D01*
X199021947Y-88722188D01*
X199453821Y-88327990D01*
X199511336Y-88205272D01*
X199727330Y-88528529D01*
X200213511Y-88853385D01*
X200787000Y-88967459D01*
X201360489Y-88853385D01*
X201846670Y-88528529D01*
X202057000Y-88213748D01*
X202267330Y-88528529D01*
X202753511Y-88853385D01*
X203327000Y-88967459D01*
X203900489Y-88853385D01*
X204386670Y-88528529D01*
X204711526Y-88042348D01*
X204825600Y-87468859D01*
X204825600Y-87410141D01*
X204711526Y-86836652D01*
X204400426Y-86371058D01*
X204425917Y-86366262D01*
X204642041Y-86227190D01*
X204787031Y-86014990D01*
X204838040Y-85763100D01*
X204838040Y-84035900D01*
X204793762Y-83800583D01*
X204654690Y-83584459D01*
X204442490Y-83439469D01*
X204190600Y-83388460D01*
X204051685Y-83388460D01*
X204029148Y-83275161D01*
X203864401Y-83028599D01*
X203102401Y-82266599D01*
X202855839Y-82101852D01*
X202565000Y-82044000D01*
X201640368Y-82044000D01*
X201721838Y-81847799D01*
X201722162Y-81475833D01*
X201640419Y-81278000D01*
X203813434Y-81278000D01*
X203937567Y-81463778D01*
X204473190Y-81821670D01*
X205105000Y-81947345D01*
X205736810Y-81821670D01*
X206073001Y-81597034D01*
X206090673Y-81639698D01*
X206269301Y-81818327D01*
X206502690Y-81915000D01*
X207359250Y-81915000D01*
X207518000Y-81756250D01*
X207518000Y-80391000D01*
X207772000Y-80391000D01*
X207772000Y-81756250D01*
X207930750Y-81915000D01*
X208787310Y-81915000D01*
X209020699Y-81818327D01*
X209199327Y-81639698D01*
X209296000Y-81406309D01*
X209296000Y-80549750D01*
X209137250Y-80391000D01*
X207772000Y-80391000D01*
X207518000Y-80391000D01*
X207498000Y-80391000D01*
X207498000Y-80137000D01*
X207518000Y-80137000D01*
X207518000Y-78771750D01*
X207772000Y-78771750D01*
X207772000Y-80137000D01*
X209137250Y-80137000D01*
X209296000Y-79978250D01*
X209296000Y-79121691D01*
X209199327Y-78888302D01*
X209020699Y-78709673D01*
X208787310Y-78613000D01*
X207930750Y-78613000D01*
X207772000Y-78771750D01*
X207518000Y-78771750D01*
X207359250Y-78613000D01*
X206502690Y-78613000D01*
X206269301Y-78709673D01*
X206090673Y-78888302D01*
X206073001Y-78930966D01*
X205990000Y-78875506D01*
X205990000Y-78486005D01*
X205990001Y-78486000D01*
X205922633Y-78147325D01*
X205891680Y-78101000D01*
X205730790Y-77860210D01*
X205730787Y-77860208D01*
X204720000Y-76849420D01*
X204720000Y-76454005D01*
X204720001Y-76454000D01*
X204709589Y-76401655D01*
X204809473Y-76448468D01*
X205041500Y-76327969D01*
X205041500Y-75120500D01*
X203834683Y-75120500D01*
X203806692Y-75174113D01*
X202428790Y-73796210D01*
X202343435Y-73739178D01*
X202307976Y-73715485D01*
X202341192Y-73682327D01*
X202483838Y-73338799D01*
X202484162Y-72966833D01*
X202342117Y-72623057D01*
X202079327Y-72359808D01*
X201735799Y-72217162D01*
X201688923Y-72217121D01*
X200689401Y-71217599D01*
X200442839Y-71052852D01*
X200152000Y-70995000D01*
X198053802Y-70995000D01*
X196712969Y-69654167D01*
X199026338Y-69654167D01*
X199168383Y-69997943D01*
X199431173Y-70261192D01*
X199774701Y-70403838D01*
X199821577Y-70403879D01*
X199868599Y-70450901D01*
X200115161Y-70615648D01*
X200406000Y-70673500D01*
X203879238Y-70673500D01*
X204079471Y-70973170D01*
X204394252Y-71183500D01*
X204079471Y-71393830D01*
X203754615Y-71880011D01*
X203640541Y-72453500D01*
X203754615Y-73026989D01*
X204079471Y-73513170D01*
X204402728Y-73729164D01*
X204280010Y-73786679D01*
X203885812Y-74218553D01*
X203713542Y-74634474D01*
X203834683Y-74866500D01*
X205041500Y-74866500D01*
X205041500Y-74846500D01*
X205295500Y-74846500D01*
X205295500Y-74866500D01*
X205315500Y-74866500D01*
X205315500Y-75120500D01*
X205295500Y-75120500D01*
X205295500Y-76327969D01*
X205527527Y-76448468D01*
X206056990Y-76200321D01*
X206438508Y-75782339D01*
X206619471Y-76053170D01*
X207105652Y-76378026D01*
X207679141Y-76492100D01*
X207737859Y-76492100D01*
X208311348Y-76378026D01*
X208797529Y-76053170D01*
X209122385Y-75566989D01*
X209236459Y-74993500D01*
X209122385Y-74420011D01*
X208797529Y-73933830D01*
X208482748Y-73723500D01*
X208797529Y-73513170D01*
X209122385Y-73026989D01*
X209236459Y-72453500D01*
X209122385Y-71880011D01*
X208797529Y-71393830D01*
X208482748Y-71183500D01*
X208797529Y-70973170D01*
X209122385Y-70486989D01*
X209236459Y-69913500D01*
X209122385Y-69340011D01*
X208797529Y-68853830D01*
X208482748Y-68643500D01*
X208797529Y-68433170D01*
X209122385Y-67946989D01*
X209236459Y-67373500D01*
X209122385Y-66800011D01*
X208797529Y-66313830D01*
X208311348Y-65988974D01*
X207737859Y-65874900D01*
X207679141Y-65874900D01*
X207105652Y-65988974D01*
X206640058Y-66300074D01*
X206635262Y-66274583D01*
X206496190Y-66058459D01*
X206283990Y-65913469D01*
X206032100Y-65862460D01*
X204304900Y-65862460D01*
X204069583Y-65906738D01*
X203853459Y-66045810D01*
X203708469Y-66258010D01*
X203657460Y-66509900D01*
X203657460Y-68237100D01*
X203701738Y-68472417D01*
X203840810Y-68688541D01*
X204053010Y-68833531D01*
X204096631Y-68842364D01*
X204079471Y-68853830D01*
X203879238Y-69153500D01*
X200842810Y-69153500D01*
X200754617Y-68940057D01*
X200491827Y-68676808D01*
X200148299Y-68534162D01*
X199776333Y-68533838D01*
X199432557Y-68675883D01*
X199169308Y-68938673D01*
X199026662Y-69282201D01*
X199026338Y-69654167D01*
X196712969Y-69654167D01*
X196340000Y-69281198D01*
X196340000Y-68253463D01*
X196372192Y-68221327D01*
X196514838Y-67877799D01*
X196515162Y-67505833D01*
X196373117Y-67162057D01*
X196110327Y-66898808D01*
X195766799Y-66756162D01*
X195394833Y-66755838D01*
X195051057Y-66897883D01*
X194787808Y-67160673D01*
X194645162Y-67504201D01*
X194645009Y-67680337D01*
X194560299Y-67645162D01*
X194478037Y-67645090D01*
X189654514Y-62821567D01*
X191800038Y-62821567D01*
X191942083Y-63165343D01*
X192204873Y-63428592D01*
X192548401Y-63571238D01*
X192920367Y-63571562D01*
X193264143Y-63429517D01*
X193476491Y-63217539D01*
X193476438Y-63278767D01*
X193618483Y-63622543D01*
X193881273Y-63885792D01*
X194224801Y-64028438D01*
X194596767Y-64028762D01*
X194940543Y-63886717D01*
X195203792Y-63623927D01*
X195346438Y-63280399D01*
X195346510Y-63198136D01*
X198513613Y-60031034D01*
X198648943Y-59975117D01*
X198912192Y-59712327D01*
X199054838Y-59368799D01*
X199054910Y-59286536D01*
X202691647Y-55649800D01*
X204542981Y-55649800D01*
X204600073Y-55706992D01*
X204943601Y-55849638D01*
X205315567Y-55849962D01*
X205659343Y-55707917D01*
X205922592Y-55445127D01*
X206065238Y-55101599D01*
X206065562Y-54729633D01*
X205923517Y-54385857D01*
X205660727Y-54122608D01*
X205317199Y-53979962D01*
X204945233Y-53979638D01*
X204601457Y-54121683D01*
X204543238Y-54179800D01*
X202387200Y-54179800D01*
X202105928Y-54235749D01*
X201867476Y-54395077D01*
X198015646Y-58246908D01*
X197934833Y-58246838D01*
X197591057Y-58388883D01*
X197327808Y-58651673D01*
X197185162Y-58995201D01*
X197184913Y-59280840D01*
X196562617Y-59903137D01*
X196423917Y-59567457D01*
X196161127Y-59304208D01*
X195817599Y-59161562D01*
X195445633Y-59161238D01*
X195101857Y-59303283D01*
X195017291Y-59387702D01*
X194984360Y-59394252D01*
X194737799Y-59558999D01*
X192595520Y-61701278D01*
X192550033Y-61701238D01*
X192206257Y-61843283D01*
X191943008Y-62106073D01*
X191800362Y-62449601D01*
X191800038Y-62821567D01*
X189654514Y-62821567D01*
X189457000Y-62624054D01*
X189457000Y-57195867D01*
X189796167Y-57196162D01*
X190139943Y-57054117D01*
X190403192Y-56791327D01*
X190545838Y-56447799D01*
X190546162Y-56075833D01*
X190473000Y-55898767D01*
X190473000Y-55290922D01*
X190748667Y-55291162D01*
X191092443Y-55149117D01*
X191355692Y-54886327D01*
X191498338Y-54542799D01*
X191498440Y-54425152D01*
X198054045Y-47869547D01*
X198187201Y-47924838D01*
X198559167Y-47925162D01*
X198902943Y-47783117D01*
X199166192Y-47520327D01*
X199308838Y-47176799D01*
X199309162Y-46804833D01*
X199167117Y-46461057D01*
X198904327Y-46197808D01*
X198560799Y-46055162D01*
X198188833Y-46054838D01*
X197845057Y-46196883D01*
X197720062Y-46321660D01*
X197657795Y-46334046D01*
X197427454Y-46487954D01*
X190494469Y-53420939D01*
X190473000Y-53420920D01*
X190473000Y-53228919D01*
X190530192Y-53171827D01*
X190672838Y-52828299D01*
X190673162Y-52456333D01*
X190531117Y-52112557D01*
X190268327Y-51849308D01*
X189924799Y-51706662D01*
X189720541Y-51706484D01*
X189720662Y-51567333D01*
X189578617Y-51223557D01*
X189315827Y-50960308D01*
X188972299Y-50817662D01*
X188600333Y-50817338D01*
X188256557Y-50959383D01*
X187993308Y-51222173D01*
X187850662Y-51565701D01*
X187850338Y-51937667D01*
X187987000Y-52268415D01*
X187987000Y-62928500D01*
X188034387Y-63166727D01*
X188042949Y-63209772D01*
X188202277Y-63448223D01*
X193438408Y-68684355D01*
X193438338Y-68765167D01*
X193580383Y-69108943D01*
X193843173Y-69372192D01*
X194186701Y-69514838D01*
X194558667Y-69515162D01*
X194820000Y-69407182D01*
X194820000Y-69596000D01*
X194877852Y-69886839D01*
X195042599Y-70133401D01*
X197201599Y-72292401D01*
X197448161Y-72457148D01*
X197739000Y-72515000D01*
X199837198Y-72515000D01*
X200400438Y-73078240D01*
X200301702Y-73037241D01*
X200068393Y-73037037D01*
X199977178Y-72945822D01*
X199649510Y-72726882D01*
X199263000Y-72650000D01*
X195744356Y-72650000D01*
X195405178Y-72310822D01*
X195077510Y-72091882D01*
X194691000Y-72015000D01*
X193712356Y-72015000D01*
X191111178Y-69413822D01*
X190783510Y-69194882D01*
X190397000Y-69118000D01*
X183423386Y-69118000D01*
X183296890Y-69031569D01*
X183045000Y-68980560D01*
X183005000Y-68980560D01*
X183005000Y-68882005D01*
X183052838Y-68766799D01*
X183053162Y-68394833D01*
X182911117Y-68051057D01*
X182648327Y-67787808D01*
X182304799Y-67645162D01*
X181932833Y-67644838D01*
X181589057Y-67786883D01*
X181325808Y-68049673D01*
X181183162Y-68393201D01*
X181182838Y-68765167D01*
X181284328Y-69010793D01*
X181209683Y-69024838D01*
X180993559Y-69163910D01*
X180848569Y-69376110D01*
X180826656Y-69484321D01*
X180667599Y-69590599D01*
X179802599Y-70455599D01*
X179637852Y-70702161D01*
X179580000Y-70993000D01*
X179580000Y-73515897D01*
X179510799Y-73487162D01*
X179138833Y-73486838D01*
X178795057Y-73628883D01*
X178531808Y-73891673D01*
X178389162Y-74235201D01*
X178389121Y-74282077D01*
X176627599Y-76043599D01*
X176462852Y-76290161D01*
X176405000Y-76581000D01*
X176405000Y-82804000D01*
X176462852Y-83094839D01*
X176627599Y-83341401D01*
X180959724Y-87673526D01*
X180721000Y-87626041D01*
X180147511Y-87740115D01*
X179661330Y-88064971D01*
X179451000Y-88379752D01*
X179240670Y-88064971D01*
X178754489Y-87740115D01*
X178181000Y-87626041D01*
X177607511Y-87740115D01*
X177121330Y-88064971D01*
X176911000Y-88379752D01*
X176700670Y-88064971D01*
X176401000Y-87864738D01*
X176401000Y-86928802D01*
X176796680Y-86533122D01*
X176842167Y-86533162D01*
X177185943Y-86391117D01*
X177449192Y-86128327D01*
X177591838Y-85784799D01*
X177592162Y-85412833D01*
X177450117Y-85069057D01*
X177187327Y-84805808D01*
X176843799Y-84663162D01*
X176471833Y-84662838D01*
X176128057Y-84804883D01*
X175864808Y-85067673D01*
X175722162Y-85411201D01*
X175722121Y-85458077D01*
X175103599Y-86076599D01*
X174938852Y-86323161D01*
X174881000Y-86614000D01*
X174881000Y-87864738D01*
X174581330Y-88064971D01*
X174371000Y-88379752D01*
X174160670Y-88064971D01*
X173674489Y-87740115D01*
X173101000Y-87626041D01*
X172527511Y-87740115D01*
X172041330Y-88064971D01*
X171716474Y-88551152D01*
X171602400Y-89124641D01*
X171602400Y-89183359D01*
X171716474Y-89756848D01*
X172031526Y-90228356D01*
X171877701Y-90292073D01*
X171699073Y-90470702D01*
X171602400Y-90704091D01*
X171602400Y-91408250D01*
X171761150Y-91567000D01*
X172974000Y-91567000D01*
X172974000Y-91547000D01*
X173228000Y-91547000D01*
X173228000Y-91567000D01*
X175514000Y-91567000D01*
X175514000Y-91547000D01*
X175768000Y-91547000D01*
X175768000Y-91567000D01*
X178054000Y-91567000D01*
X178054000Y-91547000D01*
X178308000Y-91547000D01*
X178308000Y-91567000D01*
X180594000Y-91567000D01*
X180594000Y-91547000D01*
X180848000Y-91547000D01*
X180848000Y-91567000D01*
X183134000Y-91567000D01*
X183134000Y-91547000D01*
X183388000Y-91547000D01*
X183388000Y-91567000D01*
X184595469Y-91567000D01*
X184715968Y-91334973D01*
X184467821Y-90805510D01*
X184049839Y-90423992D01*
X184320670Y-90243029D01*
X184645526Y-89756848D01*
X184759600Y-89183359D01*
X184759600Y-89124641D01*
X184645526Y-88551152D01*
X184320670Y-88064971D01*
X183834489Y-87740115D01*
X183261000Y-87626041D01*
X183094885Y-87659083D01*
X177925000Y-82489198D01*
X177925000Y-79382750D01*
X178270000Y-79382750D01*
X178270000Y-79723309D01*
X178366673Y-79956698D01*
X178545301Y-80135327D01*
X178778690Y-80232000D01*
X179419250Y-80232000D01*
X179578000Y-80073250D01*
X179578000Y-79224000D01*
X179832000Y-79224000D01*
X179832000Y-80073250D01*
X179990750Y-80232000D01*
X180631310Y-80232000D01*
X180864699Y-80135327D01*
X181043327Y-79956698D01*
X181140000Y-79723309D01*
X181140000Y-79382750D01*
X180981250Y-79224000D01*
X179832000Y-79224000D01*
X179578000Y-79224000D01*
X178428750Y-79224000D01*
X178270000Y-79382750D01*
X177925000Y-79382750D01*
X177925000Y-76895802D01*
X178257560Y-76563242D01*
X178257560Y-76597000D01*
X178301838Y-76832317D01*
X178440910Y-77048441D01*
X178653110Y-77193431D01*
X178770109Y-77217124D01*
X178769838Y-77528167D01*
X178911883Y-77871943D01*
X179001783Y-77962000D01*
X178778690Y-77962000D01*
X178545301Y-78058673D01*
X178366673Y-78237302D01*
X178270000Y-78470691D01*
X178270000Y-78811250D01*
X178428750Y-78970000D01*
X179578000Y-78970000D01*
X179578000Y-78950000D01*
X179832000Y-78950000D01*
X179832000Y-78970000D01*
X180981250Y-78970000D01*
X181140000Y-78811250D01*
X181140000Y-78470691D01*
X181043327Y-78237302D01*
X180864699Y-78058673D01*
X180631310Y-77962000D01*
X180408364Y-77962000D01*
X180497192Y-77873327D01*
X180639838Y-77529799D01*
X180640109Y-77219018D01*
X180740317Y-77200162D01*
X180956441Y-77061090D01*
X181101431Y-76848890D01*
X181152440Y-76597000D01*
X181152440Y-75597000D01*
X181140907Y-75535709D01*
X181866000Y-76260802D01*
X181866000Y-77724000D01*
X181923852Y-78014839D01*
X182088599Y-78261401D01*
X182833878Y-79006680D01*
X182833838Y-79052167D01*
X182975883Y-79395943D01*
X183238673Y-79659192D01*
X183582201Y-79801838D01*
X183771000Y-79802002D01*
X183771000Y-81531196D01*
X182469599Y-82832597D01*
X182304852Y-83079159D01*
X182247000Y-83369998D01*
X182247000Y-85979000D01*
X182304852Y-86269839D01*
X182469599Y-86516401D01*
X182579878Y-86626680D01*
X182579838Y-86672167D01*
X182721883Y-87015943D01*
X182984673Y-87279192D01*
X183328201Y-87421838D01*
X183700167Y-87422162D01*
X184043943Y-87280117D01*
X184307192Y-87017327D01*
X184350117Y-86913954D01*
X184589167Y-86914162D01*
X184787000Y-86832419D01*
X184787000Y-87757000D01*
X184844852Y-88047839D01*
X185009599Y-88294401D01*
X187581000Y-90865802D01*
X187581000Y-92789352D01*
X187281330Y-92989585D01*
X186956474Y-93475766D01*
X186842400Y-94049255D01*
X186842400Y-94418745D01*
X186956474Y-94992234D01*
X187248312Y-95429000D01*
X184353688Y-95429000D01*
X184645526Y-94992234D01*
X184759600Y-94418745D01*
X184759600Y-94049255D01*
X184645526Y-93475766D01*
X184320670Y-92989585D01*
X184148126Y-92874295D01*
X184467821Y-92582490D01*
X184715968Y-92053027D01*
X184595469Y-91821000D01*
X183388000Y-91821000D01*
X183388000Y-91841000D01*
X183134000Y-91841000D01*
X183134000Y-91821000D01*
X180848000Y-91821000D01*
X180848000Y-91841000D01*
X180594000Y-91841000D01*
X180594000Y-91821000D01*
X178308000Y-91821000D01*
X178308000Y-91841000D01*
X178054000Y-91841000D01*
X178054000Y-91821000D01*
X175768000Y-91821000D01*
X175768000Y-91841000D01*
X175514000Y-91841000D01*
X175514000Y-91821000D01*
X173228000Y-91821000D01*
X173228000Y-91841000D01*
X172974000Y-91841000D01*
X172974000Y-91821000D01*
X171761150Y-91821000D01*
X171602400Y-91979750D01*
X171602400Y-92683909D01*
X171689731Y-92894744D01*
X171640969Y-92966110D01*
X171589960Y-93218000D01*
X171589960Y-95250000D01*
X171623641Y-95429000D01*
X158624827Y-95429000D01*
X158673793Y-90679309D01*
X158664297Y-90629799D01*
X158636287Y-90587883D01*
X158594176Y-90560168D01*
X158549003Y-90551019D01*
X150185115Y-90405882D01*
X150141898Y-89411899D01*
X150151351Y-89403473D01*
X150181577Y-89363126D01*
X150193845Y-89308657D01*
X150192496Y-74767440D01*
X155791160Y-74767440D01*
X155791160Y-78267560D01*
X155835438Y-78502877D01*
X155974510Y-78719001D01*
X156186710Y-78863991D01*
X156438600Y-78915000D01*
X159122645Y-78915000D01*
X158986899Y-79002350D01*
X158841909Y-79214550D01*
X158790900Y-79466440D01*
X158790900Y-82966560D01*
X158835178Y-83201877D01*
X158974250Y-83418001D01*
X159186450Y-83562991D01*
X159438340Y-83614000D01*
X162938460Y-83614000D01*
X163173777Y-83569722D01*
X163389901Y-83430650D01*
X163534891Y-83218450D01*
X163585900Y-82966560D01*
X163585900Y-79466440D01*
X163541622Y-79231123D01*
X163402550Y-79014999D01*
X163237990Y-78902560D01*
X163902390Y-78902560D01*
X164061140Y-78743810D01*
X164061140Y-76644500D01*
X164315140Y-76644500D01*
X164315140Y-78743810D01*
X164473890Y-78902560D01*
X166064509Y-78902560D01*
X166297898Y-78805887D01*
X166476527Y-78627259D01*
X166573200Y-78393870D01*
X166573200Y-76803250D01*
X166414450Y-76644500D01*
X164315140Y-76644500D01*
X164061140Y-76644500D01*
X161961830Y-76644500D01*
X161803080Y-76803250D01*
X161803080Y-78393870D01*
X161899753Y-78627259D01*
X162078382Y-78805887D01*
X162110040Y-78819000D01*
X160254415Y-78819000D01*
X160390161Y-78731650D01*
X160535151Y-78519450D01*
X160586160Y-78267560D01*
X160586160Y-74767440D01*
X160562394Y-74641130D01*
X161803080Y-74641130D01*
X161803080Y-76231750D01*
X161961830Y-76390500D01*
X164061140Y-76390500D01*
X164061140Y-74291190D01*
X164315140Y-74291190D01*
X164315140Y-76390500D01*
X166414450Y-76390500D01*
X166573200Y-76231750D01*
X166573200Y-74641130D01*
X166476527Y-74407741D01*
X166297898Y-74229113D01*
X166064509Y-74132440D01*
X164473890Y-74132440D01*
X164315140Y-74291190D01*
X164061140Y-74291190D01*
X163902390Y-74132440D01*
X162311771Y-74132440D01*
X162078382Y-74229113D01*
X161899753Y-74407741D01*
X161803080Y-74641130D01*
X160562394Y-74641130D01*
X160541882Y-74532123D01*
X160402810Y-74315999D01*
X160190610Y-74171009D01*
X159938720Y-74120000D01*
X156438600Y-74120000D01*
X156203283Y-74164278D01*
X155987159Y-74303350D01*
X155842169Y-74515550D01*
X155791160Y-74767440D01*
X150192496Y-74767440D01*
X150191323Y-62130940D01*
X156172160Y-62130940D01*
X156172160Y-65631060D01*
X156216438Y-65866377D01*
X156355510Y-66082501D01*
X156567710Y-66227491D01*
X156819600Y-66278500D01*
X159503645Y-66278500D01*
X159367899Y-66365850D01*
X159222909Y-66578050D01*
X159171900Y-66829940D01*
X159171900Y-70330060D01*
X159216178Y-70565377D01*
X159355250Y-70781501D01*
X159567450Y-70926491D01*
X159819340Y-70977500D01*
X163319460Y-70977500D01*
X163554777Y-70933222D01*
X163770901Y-70794150D01*
X163915891Y-70581950D01*
X163966900Y-70330060D01*
X163966900Y-66929000D01*
X184625655Y-66929000D01*
X184751330Y-67560810D01*
X185109222Y-68096433D01*
X185644845Y-68454325D01*
X186276655Y-68580000D01*
X186341345Y-68580000D01*
X186973155Y-68454325D01*
X187508778Y-68096433D01*
X187866670Y-67560810D01*
X187992345Y-66929000D01*
X187866670Y-66297190D01*
X187639501Y-65957208D01*
X187776441Y-65869090D01*
X187921431Y-65656890D01*
X187972440Y-65405000D01*
X187972440Y-63373000D01*
X187928162Y-63137683D01*
X187789090Y-62921559D01*
X187576890Y-62776569D01*
X187325000Y-62725560D01*
X185293000Y-62725560D01*
X185057683Y-62769838D01*
X184841559Y-62908910D01*
X184696569Y-63121110D01*
X184645560Y-63373000D01*
X184645560Y-65405000D01*
X184689838Y-65640317D01*
X184828910Y-65856441D01*
X184977837Y-65958198D01*
X184751330Y-66297190D01*
X184625655Y-66929000D01*
X163966900Y-66929000D01*
X163966900Y-66829940D01*
X163922622Y-66594623D01*
X163783550Y-66378499D01*
X163618990Y-66266060D01*
X164283390Y-66266060D01*
X164442140Y-66107310D01*
X164442140Y-64008000D01*
X164696140Y-64008000D01*
X164696140Y-66107310D01*
X164854890Y-66266060D01*
X166445509Y-66266060D01*
X166678898Y-66169387D01*
X166857527Y-65990759D01*
X166954200Y-65757370D01*
X166954200Y-64166750D01*
X166795450Y-64008000D01*
X164696140Y-64008000D01*
X164442140Y-64008000D01*
X162342830Y-64008000D01*
X162184080Y-64166750D01*
X162184080Y-65757370D01*
X162280753Y-65990759D01*
X162459382Y-66169387D01*
X162491040Y-66182500D01*
X160635415Y-66182500D01*
X160771161Y-66095150D01*
X160916151Y-65882950D01*
X160967160Y-65631060D01*
X160967160Y-62130940D01*
X160943394Y-62004630D01*
X162184080Y-62004630D01*
X162184080Y-63595250D01*
X162342830Y-63754000D01*
X164442140Y-63754000D01*
X164442140Y-61654690D01*
X164696140Y-61654690D01*
X164696140Y-63754000D01*
X166795450Y-63754000D01*
X166954200Y-63595250D01*
X166954200Y-62004630D01*
X166857527Y-61771241D01*
X166678898Y-61592613D01*
X166445509Y-61495940D01*
X164854890Y-61495940D01*
X164696140Y-61654690D01*
X164442140Y-61654690D01*
X164283390Y-61495940D01*
X162692771Y-61495940D01*
X162459382Y-61592613D01*
X162280753Y-61771241D01*
X162184080Y-62004630D01*
X160943394Y-62004630D01*
X160922882Y-61895623D01*
X160783810Y-61679499D01*
X160571610Y-61534509D01*
X160319720Y-61483500D01*
X156819600Y-61483500D01*
X156584283Y-61527778D01*
X156368159Y-61666850D01*
X156223169Y-61879050D01*
X156172160Y-62130940D01*
X150191323Y-62130940D01*
X150190559Y-53906167D01*
X171403838Y-53906167D01*
X171545883Y-54249943D01*
X171808673Y-54513192D01*
X172152201Y-54655838D01*
X172389743Y-54656045D01*
X180293878Y-62560180D01*
X180293838Y-62605667D01*
X180435883Y-62949443D01*
X180698673Y-63212692D01*
X181042201Y-63355338D01*
X181414167Y-63355662D01*
X181757943Y-63213617D01*
X182021192Y-62950827D01*
X182163838Y-62607299D01*
X182164162Y-62235333D01*
X182022117Y-61891557D01*
X181759327Y-61628308D01*
X181668087Y-61590422D01*
X181742510Y-61575618D01*
X182070178Y-61356678D01*
X184229178Y-59197678D01*
X184448118Y-58870010D01*
X184525000Y-58483500D01*
X184525000Y-48895000D01*
X184448118Y-48508490D01*
X184229178Y-48180822D01*
X183901510Y-47961882D01*
X183515000Y-47885000D01*
X183128490Y-47961882D01*
X182800822Y-48180822D01*
X182581882Y-48508490D01*
X182505000Y-48895000D01*
X182505000Y-58065144D01*
X180641822Y-59928322D01*
X180422882Y-60255990D01*
X180375831Y-60492529D01*
X173172082Y-53288780D01*
X173132117Y-53192057D01*
X172869327Y-52928808D01*
X172525799Y-52786162D01*
X172153833Y-52785838D01*
X171810057Y-52927883D01*
X171546808Y-53190673D01*
X171404162Y-53534201D01*
X171403838Y-53906167D01*
X150190559Y-53906167D01*
X150190212Y-50171860D01*
X157778125Y-50571224D01*
X157827993Y-50563829D01*
X157871054Y-50537616D01*
X157900525Y-50496714D01*
X157911796Y-50445424D01*
X157962596Y-44146224D01*
X157952989Y-44096735D01*
X157924885Y-44054882D01*
X157882712Y-44027262D01*
X157836360Y-44018202D01*
X149808000Y-43970128D01*
X149808000Y-36957000D01*
X152304155Y-36957000D01*
X152418229Y-37530489D01*
X152743085Y-38016670D01*
X153057866Y-38227000D01*
X152743085Y-38437330D01*
X152418229Y-38923511D01*
X152304155Y-39497000D01*
X152418229Y-40070489D01*
X152743085Y-40556670D01*
X153229266Y-40881526D01*
X153802755Y-40995600D01*
X154172245Y-40995600D01*
X154745734Y-40881526D01*
X155231915Y-40556670D01*
X155556771Y-40070489D01*
X155670845Y-39497000D01*
X155556771Y-38923511D01*
X155231915Y-38437330D01*
X154917134Y-38227000D01*
X155231915Y-38016670D01*
X155556771Y-37530489D01*
X155670845Y-36957000D01*
X155796655Y-36957000D01*
X155910729Y-37530489D01*
X156235585Y-38016670D01*
X156550366Y-38227000D01*
X156235585Y-38437330D01*
X155910729Y-38923511D01*
X155796655Y-39497000D01*
X155910729Y-40070489D01*
X156235585Y-40556670D01*
X156721766Y-40881526D01*
X157295255Y-40995600D01*
X157664745Y-40995600D01*
X158238234Y-40881526D01*
X158724415Y-40556670D01*
X159049271Y-40070489D01*
X159163345Y-39497000D01*
X159049271Y-38923511D01*
X158724415Y-38437330D01*
X158409634Y-38227000D01*
X158724415Y-38016670D01*
X159049271Y-37530489D01*
X159163345Y-36957000D01*
X159289155Y-36957000D01*
X159403229Y-37530489D01*
X159728085Y-38016670D01*
X160042866Y-38227000D01*
X159728085Y-38437330D01*
X159403229Y-38923511D01*
X159289155Y-39497000D01*
X159403229Y-40070489D01*
X159728085Y-40556670D01*
X160214266Y-40881526D01*
X160787755Y-40995600D01*
X161157245Y-40995600D01*
X161730734Y-40881526D01*
X162216915Y-40556670D01*
X162541771Y-40070489D01*
X162655845Y-39497000D01*
X162541771Y-38923511D01*
X162216915Y-38437330D01*
X161902134Y-38227000D01*
X162216915Y-38016670D01*
X162541771Y-37530489D01*
X162655845Y-36957000D01*
X162781655Y-36957000D01*
X162895729Y-37530489D01*
X163220585Y-38016670D01*
X163535366Y-38227000D01*
X163220585Y-38437330D01*
X162895729Y-38923511D01*
X162781655Y-39497000D01*
X162895729Y-40070489D01*
X163220585Y-40556670D01*
X163706766Y-40881526D01*
X164280255Y-40995600D01*
X164649745Y-40995600D01*
X165223234Y-40881526D01*
X165709415Y-40556670D01*
X166034271Y-40070489D01*
X166148345Y-39497000D01*
X166034271Y-38923511D01*
X165709415Y-38437330D01*
X165394634Y-38227000D01*
X165709415Y-38016670D01*
X166034271Y-37530489D01*
X166148345Y-36957000D01*
X166274155Y-36957000D01*
X166388229Y-37530489D01*
X166713085Y-38016670D01*
X167027866Y-38227000D01*
X166713085Y-38437330D01*
X166388229Y-38923511D01*
X166274155Y-39497000D01*
X166388229Y-40070489D01*
X166713085Y-40556670D01*
X167199266Y-40881526D01*
X167772755Y-40995600D01*
X168142245Y-40995600D01*
X168715734Y-40881526D01*
X169201915Y-40556670D01*
X169526771Y-40070489D01*
X169640845Y-39497000D01*
X169526771Y-38923511D01*
X169201915Y-38437330D01*
X168887134Y-38227000D01*
X169201915Y-38016670D01*
X169526771Y-37530489D01*
X169640845Y-36957000D01*
X169766655Y-36957000D01*
X169880729Y-37530489D01*
X170205585Y-38016670D01*
X170520366Y-38227000D01*
X170205585Y-38437330D01*
X169880729Y-38923511D01*
X169766655Y-39497000D01*
X169880729Y-40070489D01*
X170205585Y-40556670D01*
X170691766Y-40881526D01*
X171265255Y-40995600D01*
X171634745Y-40995600D01*
X172208234Y-40881526D01*
X172694415Y-40556670D01*
X173019271Y-40070489D01*
X173133345Y-39497000D01*
X173019271Y-38923511D01*
X172694415Y-38437330D01*
X172379634Y-38227000D01*
X172694415Y-38016670D01*
X173019271Y-37530489D01*
X173133345Y-36957000D01*
X173259155Y-36957000D01*
X173373229Y-37530489D01*
X173698085Y-38016670D01*
X174012866Y-38227000D01*
X173698085Y-38437330D01*
X173373229Y-38923511D01*
X173259155Y-39497000D01*
X173373229Y-40070489D01*
X173698085Y-40556670D01*
X174184266Y-40881526D01*
X174757755Y-40995600D01*
X175127245Y-40995600D01*
X175700734Y-40881526D01*
X176186915Y-40556670D01*
X176511771Y-40070489D01*
X176625845Y-39497000D01*
X176511771Y-38923511D01*
X176186915Y-38437330D01*
X175872134Y-38227000D01*
X176186915Y-38016670D01*
X176511771Y-37530489D01*
X176625845Y-36957000D01*
X176751655Y-36957000D01*
X176865729Y-37530489D01*
X177190585Y-38016670D01*
X177505366Y-38227000D01*
X177190585Y-38437330D01*
X176865729Y-38923511D01*
X176751655Y-39497000D01*
X176865729Y-40070489D01*
X177190585Y-40556670D01*
X177676766Y-40881526D01*
X178250255Y-40995600D01*
X178619745Y-40995600D01*
X179193234Y-40881526D01*
X179679415Y-40556670D01*
X180004271Y-40070489D01*
X180118345Y-39497000D01*
X180004271Y-38923511D01*
X179679415Y-38437330D01*
X179364634Y-38227000D01*
X179679415Y-38016670D01*
X180004271Y-37530489D01*
X180118345Y-36957000D01*
X181577655Y-36957000D01*
X181691729Y-37530489D01*
X182016585Y-38016670D01*
X182331366Y-38227000D01*
X182016585Y-38437330D01*
X181691729Y-38923511D01*
X181577655Y-39497000D01*
X181691729Y-40070489D01*
X182016585Y-40556670D01*
X182502766Y-40881526D01*
X183076255Y-40995600D01*
X183445745Y-40995600D01*
X184019234Y-40881526D01*
X184505415Y-40556670D01*
X184830271Y-40070489D01*
X184944345Y-39497000D01*
X184830271Y-38923511D01*
X184505415Y-38437330D01*
X184190634Y-38227000D01*
X184505415Y-38016670D01*
X184830271Y-37530489D01*
X184944345Y-36957000D01*
X185070155Y-36957000D01*
X185184229Y-37530489D01*
X185509085Y-38016670D01*
X185823866Y-38227000D01*
X185509085Y-38437330D01*
X185184229Y-38923511D01*
X185070155Y-39497000D01*
X185184229Y-40070489D01*
X185509085Y-40556670D01*
X185995266Y-40881526D01*
X186568755Y-40995600D01*
X186938245Y-40995600D01*
X187511734Y-40881526D01*
X187997915Y-40556670D01*
X188322771Y-40070489D01*
X188436845Y-39497000D01*
X188322771Y-38923511D01*
X187997915Y-38437330D01*
X187683134Y-38227000D01*
X187997915Y-38016670D01*
X188322771Y-37530489D01*
X188436845Y-36957000D01*
X188562655Y-36957000D01*
X188676729Y-37530489D01*
X189001585Y-38016670D01*
X189316366Y-38227000D01*
X189001585Y-38437330D01*
X188676729Y-38923511D01*
X188562655Y-39497000D01*
X188676729Y-40070489D01*
X189001585Y-40556670D01*
X189487766Y-40881526D01*
X190061255Y-40995600D01*
X190430745Y-40995600D01*
X191004234Y-40881526D01*
X191490415Y-40556670D01*
X191815271Y-40070489D01*
X191929345Y-39497000D01*
X191815271Y-38923511D01*
X191490415Y-38437330D01*
X191175634Y-38227000D01*
X191490415Y-38016670D01*
X191815271Y-37530489D01*
X191929345Y-36957000D01*
X192055155Y-36957000D01*
X192169229Y-37530489D01*
X192494085Y-38016670D01*
X192808866Y-38227000D01*
X192494085Y-38437330D01*
X192169229Y-38923511D01*
X192055155Y-39497000D01*
X192169229Y-40070489D01*
X192494085Y-40556670D01*
X192980266Y-40881526D01*
X193553755Y-40995600D01*
X193923245Y-40995600D01*
X194496734Y-40881526D01*
X194982915Y-40556670D01*
X195307771Y-40070489D01*
X195421845Y-39497000D01*
X195307771Y-38923511D01*
X194982915Y-38437330D01*
X194668134Y-38227000D01*
X194982915Y-38016670D01*
X195307771Y-37530489D01*
X195421845Y-36957000D01*
X195547655Y-36957000D01*
X195661729Y-37530489D01*
X195986585Y-38016670D01*
X196301366Y-38227000D01*
X195986585Y-38437330D01*
X195661729Y-38923511D01*
X195547655Y-39497000D01*
X195661729Y-40070489D01*
X195986585Y-40556670D01*
X196472766Y-40881526D01*
X197046255Y-40995600D01*
X197415745Y-40995600D01*
X197989234Y-40881526D01*
X198475415Y-40556670D01*
X198800271Y-40070489D01*
X198914345Y-39497000D01*
X198800271Y-38923511D01*
X198475415Y-38437330D01*
X198160634Y-38227000D01*
X198475415Y-38016670D01*
X198800271Y-37530489D01*
X198914345Y-36957000D01*
X199040155Y-36957000D01*
X199154229Y-37530489D01*
X199479085Y-38016670D01*
X199793866Y-38227000D01*
X199479085Y-38437330D01*
X199154229Y-38923511D01*
X199040155Y-39497000D01*
X199154229Y-40070489D01*
X199479085Y-40556670D01*
X199965266Y-40881526D01*
X200538755Y-40995600D01*
X200908245Y-40995600D01*
X201481734Y-40881526D01*
X201967915Y-40556670D01*
X202292771Y-40070489D01*
X202406845Y-39497000D01*
X202292771Y-38923511D01*
X201967915Y-38437330D01*
X201653134Y-38227000D01*
X201967915Y-38016670D01*
X202292771Y-37530489D01*
X202406845Y-36957000D01*
X202292771Y-36383511D01*
X201967915Y-35897330D01*
X201945720Y-35882500D01*
X202099198Y-35818927D01*
X202277827Y-35640299D01*
X202374500Y-35406910D01*
X202374500Y-34702750D01*
X202215750Y-34544000D01*
X200850500Y-34544000D01*
X200850500Y-34564000D01*
X200596500Y-34564000D01*
X200596500Y-34544000D01*
X199231250Y-34544000D01*
X199072500Y-34702750D01*
X199072500Y-35406910D01*
X199169173Y-35640299D01*
X199347802Y-35818927D01*
X199501280Y-35882500D01*
X199479085Y-35897330D01*
X199154229Y-36383511D01*
X199040155Y-36957000D01*
X198914345Y-36957000D01*
X198800271Y-36383511D01*
X198475415Y-35897330D01*
X198453220Y-35882500D01*
X198606698Y-35818927D01*
X198785327Y-35640299D01*
X198882000Y-35406910D01*
X198882000Y-34702750D01*
X198723250Y-34544000D01*
X197358000Y-34544000D01*
X197358000Y-34564000D01*
X197104000Y-34564000D01*
X197104000Y-34544000D01*
X195738750Y-34544000D01*
X195580000Y-34702750D01*
X195580000Y-35406910D01*
X195676673Y-35640299D01*
X195855302Y-35818927D01*
X196008780Y-35882500D01*
X195986585Y-35897330D01*
X195661729Y-36383511D01*
X195547655Y-36957000D01*
X195421845Y-36957000D01*
X195307771Y-36383511D01*
X194982915Y-35897330D01*
X194960720Y-35882500D01*
X195114198Y-35818927D01*
X195292827Y-35640299D01*
X195389500Y-35406910D01*
X195389500Y-34702750D01*
X195230750Y-34544000D01*
X193865500Y-34544000D01*
X193865500Y-34564000D01*
X193611500Y-34564000D01*
X193611500Y-34544000D01*
X192246250Y-34544000D01*
X192087500Y-34702750D01*
X192087500Y-35406910D01*
X192184173Y-35640299D01*
X192362802Y-35818927D01*
X192516280Y-35882500D01*
X192494085Y-35897330D01*
X192169229Y-36383511D01*
X192055155Y-36957000D01*
X191929345Y-36957000D01*
X191815271Y-36383511D01*
X191490415Y-35897330D01*
X191468220Y-35882500D01*
X191621698Y-35818927D01*
X191800327Y-35640299D01*
X191897000Y-35406910D01*
X191897000Y-34702750D01*
X191738250Y-34544000D01*
X190373000Y-34544000D01*
X190373000Y-34564000D01*
X190119000Y-34564000D01*
X190119000Y-34544000D01*
X188753750Y-34544000D01*
X188595000Y-34702750D01*
X188595000Y-35406910D01*
X188691673Y-35640299D01*
X188870302Y-35818927D01*
X189023780Y-35882500D01*
X189001585Y-35897330D01*
X188676729Y-36383511D01*
X188562655Y-36957000D01*
X188436845Y-36957000D01*
X188322771Y-36383511D01*
X187997915Y-35897330D01*
X187975720Y-35882500D01*
X188129198Y-35818927D01*
X188307827Y-35640299D01*
X188404500Y-35406910D01*
X188404500Y-34702750D01*
X188245750Y-34544000D01*
X186880500Y-34544000D01*
X186880500Y-34564000D01*
X186626500Y-34564000D01*
X186626500Y-34544000D01*
X185261250Y-34544000D01*
X185102500Y-34702750D01*
X185102500Y-35406910D01*
X185199173Y-35640299D01*
X185377802Y-35818927D01*
X185531280Y-35882500D01*
X185509085Y-35897330D01*
X185184229Y-36383511D01*
X185070155Y-36957000D01*
X184944345Y-36957000D01*
X184830271Y-36383511D01*
X184505415Y-35897330D01*
X184483220Y-35882500D01*
X184636698Y-35818927D01*
X184815327Y-35640299D01*
X184912000Y-35406910D01*
X184912000Y-34702750D01*
X184753250Y-34544000D01*
X183388000Y-34544000D01*
X183388000Y-34564000D01*
X183134000Y-34564000D01*
X183134000Y-34544000D01*
X181768750Y-34544000D01*
X181610000Y-34702750D01*
X181610000Y-35406910D01*
X181706673Y-35640299D01*
X181885302Y-35818927D01*
X182038780Y-35882500D01*
X182016585Y-35897330D01*
X181691729Y-36383511D01*
X181577655Y-36957000D01*
X180118345Y-36957000D01*
X180004271Y-36383511D01*
X179679415Y-35897330D01*
X179657220Y-35882500D01*
X179810698Y-35818927D01*
X179989327Y-35640299D01*
X180086000Y-35406910D01*
X180086000Y-34702750D01*
X179927250Y-34544000D01*
X178562000Y-34544000D01*
X178562000Y-34564000D01*
X178308000Y-34564000D01*
X178308000Y-34544000D01*
X176942750Y-34544000D01*
X176784000Y-34702750D01*
X176784000Y-35406910D01*
X176880673Y-35640299D01*
X177059302Y-35818927D01*
X177212780Y-35882500D01*
X177190585Y-35897330D01*
X176865729Y-36383511D01*
X176751655Y-36957000D01*
X176625845Y-36957000D01*
X176511771Y-36383511D01*
X176186915Y-35897330D01*
X176164720Y-35882500D01*
X176318198Y-35818927D01*
X176496827Y-35640299D01*
X176593500Y-35406910D01*
X176593500Y-34702750D01*
X176434750Y-34544000D01*
X175069500Y-34544000D01*
X175069500Y-34564000D01*
X174815500Y-34564000D01*
X174815500Y-34544000D01*
X173450250Y-34544000D01*
X173291500Y-34702750D01*
X173291500Y-35406910D01*
X173388173Y-35640299D01*
X173566802Y-35818927D01*
X173720280Y-35882500D01*
X173698085Y-35897330D01*
X173373229Y-36383511D01*
X173259155Y-36957000D01*
X173133345Y-36957000D01*
X173019271Y-36383511D01*
X172694415Y-35897330D01*
X172672220Y-35882500D01*
X172825698Y-35818927D01*
X173004327Y-35640299D01*
X173101000Y-35406910D01*
X173101000Y-34702750D01*
X172942250Y-34544000D01*
X171577000Y-34544000D01*
X171577000Y-34564000D01*
X171323000Y-34564000D01*
X171323000Y-34544000D01*
X169957750Y-34544000D01*
X169799000Y-34702750D01*
X169799000Y-35406910D01*
X169895673Y-35640299D01*
X170074302Y-35818927D01*
X170227780Y-35882500D01*
X170205585Y-35897330D01*
X169880729Y-36383511D01*
X169766655Y-36957000D01*
X169640845Y-36957000D01*
X169526771Y-36383511D01*
X169201915Y-35897330D01*
X169179720Y-35882500D01*
X169333198Y-35818927D01*
X169511827Y-35640299D01*
X169608500Y-35406910D01*
X169608500Y-34702750D01*
X169449750Y-34544000D01*
X168084500Y-34544000D01*
X168084500Y-34564000D01*
X167830500Y-34564000D01*
X167830500Y-34544000D01*
X166465250Y-34544000D01*
X166306500Y-34702750D01*
X166306500Y-35406910D01*
X166403173Y-35640299D01*
X166581802Y-35818927D01*
X166735280Y-35882500D01*
X166713085Y-35897330D01*
X166388229Y-36383511D01*
X166274155Y-36957000D01*
X166148345Y-36957000D01*
X166034271Y-36383511D01*
X165709415Y-35897330D01*
X165687220Y-35882500D01*
X165840698Y-35818927D01*
X166019327Y-35640299D01*
X166116000Y-35406910D01*
X166116000Y-34702750D01*
X165957250Y-34544000D01*
X164592000Y-34544000D01*
X164592000Y-34564000D01*
X164338000Y-34564000D01*
X164338000Y-34544000D01*
X162972750Y-34544000D01*
X162814000Y-34702750D01*
X162814000Y-35406910D01*
X162910673Y-35640299D01*
X163089302Y-35818927D01*
X163242780Y-35882500D01*
X163220585Y-35897330D01*
X162895729Y-36383511D01*
X162781655Y-36957000D01*
X162655845Y-36957000D01*
X162541771Y-36383511D01*
X162216915Y-35897330D01*
X162194720Y-35882500D01*
X162348198Y-35818927D01*
X162526827Y-35640299D01*
X162623500Y-35406910D01*
X162623500Y-34702750D01*
X162464750Y-34544000D01*
X161099500Y-34544000D01*
X161099500Y-34564000D01*
X160845500Y-34564000D01*
X160845500Y-34544000D01*
X159480250Y-34544000D01*
X159321500Y-34702750D01*
X159321500Y-35406910D01*
X159418173Y-35640299D01*
X159596802Y-35818927D01*
X159750280Y-35882500D01*
X159728085Y-35897330D01*
X159403229Y-36383511D01*
X159289155Y-36957000D01*
X159163345Y-36957000D01*
X159049271Y-36383511D01*
X158724415Y-35897330D01*
X158702220Y-35882500D01*
X158855698Y-35818927D01*
X159034327Y-35640299D01*
X159131000Y-35406910D01*
X159131000Y-34702750D01*
X158972250Y-34544000D01*
X157607000Y-34544000D01*
X157607000Y-34564000D01*
X157353000Y-34564000D01*
X157353000Y-34544000D01*
X155987750Y-34544000D01*
X155829000Y-34702750D01*
X155829000Y-35406910D01*
X155925673Y-35640299D01*
X156104302Y-35818927D01*
X156257780Y-35882500D01*
X156235585Y-35897330D01*
X155910729Y-36383511D01*
X155796655Y-36957000D01*
X155670845Y-36957000D01*
X155556771Y-36383511D01*
X155231915Y-35897330D01*
X155209720Y-35882500D01*
X155363198Y-35818927D01*
X155541827Y-35640299D01*
X155638500Y-35406910D01*
X155638500Y-34702750D01*
X155479750Y-34544000D01*
X154114500Y-34544000D01*
X154114500Y-34564000D01*
X153860500Y-34564000D01*
X153860500Y-34544000D01*
X152495250Y-34544000D01*
X152336500Y-34702750D01*
X152336500Y-35406910D01*
X152433173Y-35640299D01*
X152611802Y-35818927D01*
X152765280Y-35882500D01*
X152743085Y-35897330D01*
X152418229Y-36383511D01*
X152304155Y-36957000D01*
X149808000Y-36957000D01*
X149808000Y-33222000D01*
X152421451Y-33222000D01*
X152336500Y-33427090D01*
X152336500Y-33427090D01*
G37*
X152336500Y-33427090D02*
X152336500Y-34131250D01*
X152495250Y-34290000D01*
X153860500Y-34290000D01*
X153860500Y-34270000D01*
X154114500Y-34270000D01*
X154114500Y-34290000D01*
X155479750Y-34290000D01*
X155638500Y-34131250D01*
X155638500Y-33427090D01*
X155553549Y-33222000D01*
X155913951Y-33222000D01*
X155829000Y-33427090D01*
X155829000Y-34131250D01*
X155987750Y-34290000D01*
X157353000Y-34290000D01*
X157353000Y-34270000D01*
X157607000Y-34270000D01*
X157607000Y-34290000D01*
X158972250Y-34290000D01*
X159131000Y-34131250D01*
X159131000Y-33427090D01*
X159046049Y-33222000D01*
X159406451Y-33222000D01*
X159321500Y-33427090D01*
X159321500Y-34131250D01*
X159480250Y-34290000D01*
X160845500Y-34290000D01*
X160845500Y-34270000D01*
X161099500Y-34270000D01*
X161099500Y-34290000D01*
X162464750Y-34290000D01*
X162623500Y-34131250D01*
X162623500Y-33427090D01*
X162538549Y-33222000D01*
X162898951Y-33222000D01*
X162814000Y-33427090D01*
X162814000Y-34131250D01*
X162972750Y-34290000D01*
X164338000Y-34290000D01*
X164338000Y-34270000D01*
X164592000Y-34270000D01*
X164592000Y-34290000D01*
X165957250Y-34290000D01*
X166116000Y-34131250D01*
X166116000Y-33427090D01*
X166031049Y-33222000D01*
X166391451Y-33222000D01*
X166306500Y-33427090D01*
X166306500Y-34131250D01*
X166465250Y-34290000D01*
X167830500Y-34290000D01*
X167830500Y-34270000D01*
X168084500Y-34270000D01*
X168084500Y-34290000D01*
X169449750Y-34290000D01*
X169608500Y-34131250D01*
X169608500Y-33427090D01*
X169523549Y-33222000D01*
X169883951Y-33222000D01*
X169799000Y-33427090D01*
X169799000Y-34131250D01*
X169957750Y-34290000D01*
X171323000Y-34290000D01*
X171323000Y-34270000D01*
X171577000Y-34270000D01*
X171577000Y-34290000D01*
X172942250Y-34290000D01*
X173101000Y-34131250D01*
X173101000Y-33427090D01*
X173016049Y-33222000D01*
X173376451Y-33222000D01*
X173291500Y-33427090D01*
X173291500Y-34131250D01*
X173450250Y-34290000D01*
X174815500Y-34290000D01*
X174815500Y-34270000D01*
X175069500Y-34270000D01*
X175069500Y-34290000D01*
X176434750Y-34290000D01*
X176593500Y-34131250D01*
X176593500Y-33427090D01*
X176508549Y-33222000D01*
X176868951Y-33222000D01*
X176784000Y-33427090D01*
X176784000Y-34131250D01*
X176942750Y-34290000D01*
X178308000Y-34290000D01*
X178308000Y-34270000D01*
X178562000Y-34270000D01*
X178562000Y-34290000D01*
X179927250Y-34290000D01*
X180086000Y-34131250D01*
X180086000Y-33427090D01*
X180001049Y-33222000D01*
X181694951Y-33222000D01*
X181610000Y-33427090D01*
X181610000Y-34131250D01*
X181768750Y-34290000D01*
X183134000Y-34290000D01*
X183134000Y-34270000D01*
X183388000Y-34270000D01*
X183388000Y-34290000D01*
X184753250Y-34290000D01*
X184912000Y-34131250D01*
X184912000Y-33427090D01*
X184827049Y-33222000D01*
X185187451Y-33222000D01*
X185102500Y-33427090D01*
X185102500Y-34131250D01*
X185261250Y-34290000D01*
X186626500Y-34290000D01*
X186626500Y-34270000D01*
X186880500Y-34270000D01*
X186880500Y-34290000D01*
X188245750Y-34290000D01*
X188404500Y-34131250D01*
X188404500Y-33427090D01*
X188319549Y-33222000D01*
X188679951Y-33222000D01*
X188595000Y-33427090D01*
X188595000Y-34131250D01*
X188753750Y-34290000D01*
X190119000Y-34290000D01*
X190119000Y-34270000D01*
X190373000Y-34270000D01*
X190373000Y-34290000D01*
X191738250Y-34290000D01*
X191897000Y-34131250D01*
X191897000Y-33427090D01*
X191812049Y-33222000D01*
X192172451Y-33222000D01*
X192087500Y-33427090D01*
X192087500Y-34131250D01*
X192246250Y-34290000D01*
X193611500Y-34290000D01*
X193611500Y-34270000D01*
X193865500Y-34270000D01*
X193865500Y-34290000D01*
X195230750Y-34290000D01*
X195389500Y-34131250D01*
X195389500Y-33427090D01*
X195304549Y-33222000D01*
X195664951Y-33222000D01*
X195580000Y-33427090D01*
X195580000Y-34131250D01*
X195738750Y-34290000D01*
X197104000Y-34290000D01*
X197104000Y-34270000D01*
X197358000Y-34270000D01*
X197358000Y-34290000D01*
X198723250Y-34290000D01*
X198882000Y-34131250D01*
X198882000Y-33427090D01*
X198797049Y-33222000D01*
X199157451Y-33222000D01*
X199072500Y-33427090D01*
X199072500Y-34131250D01*
X199231250Y-34290000D01*
X200596500Y-34290000D01*
X200596500Y-34270000D01*
X200850500Y-34270000D01*
X200850500Y-34290000D01*
X202215750Y-34290000D01*
X202374500Y-34131250D01*
X202374500Y-33427090D01*
X202289549Y-33222000D01*
X202649951Y-33222000D01*
X202565000Y-33427090D01*
X202565000Y-34131250D01*
X202723750Y-34290000D01*
X204089000Y-34290000D01*
X204089000Y-34270000D01*
X204343000Y-34270000D01*
X204343000Y-34290000D01*
X204363000Y-34290000D01*
X204363000Y-34544000D01*
X204343000Y-34544000D01*
X204343000Y-34564000D01*
X204089000Y-34564000D01*
X204089000Y-34544000D01*
X202723750Y-34544000D01*
X202565000Y-34702750D01*
X202565000Y-35406910D01*
X202661673Y-35640299D01*
X202840302Y-35818927D01*
X202993780Y-35882500D01*
X202971585Y-35897330D01*
X202646729Y-36383511D01*
X202532655Y-36957000D01*
X202646729Y-37530489D01*
X202971585Y-38016670D01*
X203286366Y-38227000D01*
X202971585Y-38437330D01*
X202646729Y-38923511D01*
X202532655Y-39497000D01*
X202646729Y-40070489D01*
X202971585Y-40556670D01*
X203457766Y-40881526D01*
X204031255Y-40995600D01*
X204400745Y-40995600D01*
X204974234Y-40881526D01*
X205460415Y-40556670D01*
X205772905Y-40088996D01*
X205745996Y-44704040D01*
X204930178Y-43888222D01*
X204602510Y-43669282D01*
X204216000Y-43592400D01*
X191719200Y-43592400D01*
X191332689Y-43669282D01*
X191005022Y-43888222D01*
X189481022Y-45412222D01*
X189262082Y-45739890D01*
X189185200Y-46126400D01*
X189262082Y-46512910D01*
X189481022Y-46840578D01*
X189808690Y-47059518D01*
X190195200Y-47136400D01*
X190581710Y-47059518D01*
X190909378Y-46840578D01*
X192137556Y-45612400D01*
X203797644Y-45612400D01*
X204577600Y-46392356D01*
X204577600Y-51367613D01*
X204400482Y-51632690D01*
X204383585Y-51717636D01*
X203697020Y-52404200D01*
X199514361Y-52404200D01*
X199271999Y-52303562D01*
X198900033Y-52303238D01*
X198556257Y-52445283D01*
X198293008Y-52708073D01*
X198150362Y-53051601D01*
X198150038Y-53423567D01*
X198292083Y-53767343D01*
X198554873Y-54030592D01*
X198898401Y-54173238D01*
X199132183Y-54173442D01*
X199136000Y-54174201D01*
X199136005Y-54174200D01*
X204063595Y-54174200D01*
X204063600Y-54174201D01*
X204346084Y-54118010D01*
X204402275Y-54106833D01*
X204689390Y-53914990D01*
X204689391Y-53914989D01*
X205635164Y-52969215D01*
X205720110Y-52952318D01*
X205981560Y-52777623D01*
X205981560Y-54330600D01*
X206025838Y-54565917D01*
X206164910Y-54782041D01*
X206377110Y-54927031D01*
X206418439Y-54935400D01*
X206400585Y-54947330D01*
X206075729Y-55433511D01*
X205961655Y-56007000D01*
X206075729Y-56580489D01*
X206400585Y-57066670D01*
X206715366Y-57277000D01*
X206400585Y-57487330D01*
X206183647Y-57812000D01*
X205486000Y-57812000D01*
X205204728Y-57867949D01*
X204966277Y-58027276D01*
X202905145Y-60088408D01*
X202824333Y-60088338D01*
X202480557Y-60230383D01*
X202217308Y-60493173D01*
X202074662Y-60836701D01*
X202074338Y-61208667D01*
X202216383Y-61552443D01*
X202479173Y-61815692D01*
X202822701Y-61958338D01*
X203194667Y-61958662D01*
X203538443Y-61816617D01*
X203801692Y-61553827D01*
X203846455Y-61446026D01*
X206037642Y-61446026D01*
X206040291Y-61461791D01*
X206294268Y-61989036D01*
X206730680Y-62378954D01*
X207283087Y-62572184D01*
X207518000Y-62427924D01*
X207518000Y-61214000D01*
X207772000Y-61214000D01*
X207772000Y-62427924D01*
X208006913Y-62572184D01*
X208559320Y-62378954D01*
X208995732Y-61989036D01*
X209249709Y-61461791D01*
X209252358Y-61446026D01*
X209131217Y-61214000D01*
X207772000Y-61214000D01*
X207518000Y-61214000D01*
X206158783Y-61214000D01*
X206037642Y-61446026D01*
X203846455Y-61446026D01*
X203944338Y-61210299D01*
X203944410Y-61128037D01*
X205790447Y-59282000D01*
X206183647Y-59282000D01*
X206400585Y-59606670D01*
X206710069Y-59813461D01*
X206294268Y-60184964D01*
X206040291Y-60712209D01*
X206037642Y-60727974D01*
X206158783Y-60960000D01*
X207518000Y-60960000D01*
X207518000Y-60940000D01*
X207772000Y-60940000D01*
X207772000Y-60960000D01*
X209131217Y-60960000D01*
X209252358Y-60727974D01*
X209249709Y-60712209D01*
X208995732Y-60184964D01*
X208579931Y-59813461D01*
X208889415Y-59606670D01*
X209214271Y-59120489D01*
X209328345Y-58547000D01*
X209214271Y-57973511D01*
X208889415Y-57487330D01*
X208574634Y-57277000D01*
X208889415Y-57066670D01*
X209214271Y-56580489D01*
X209328345Y-56007000D01*
X209214271Y-55433511D01*
X208889415Y-54947330D01*
X208875087Y-54937757D01*
X208896317Y-54933762D01*
X209112441Y-54794690D01*
X209257431Y-54582490D01*
X209308440Y-54330600D01*
X209308440Y-52603400D01*
X209264162Y-52368083D01*
X209125090Y-52151959D01*
X208912890Y-52006969D01*
X208661000Y-51955960D01*
X206629000Y-51955960D01*
X206556959Y-51969515D01*
X206597600Y-51765200D01*
X206597600Y-50211309D01*
X210591239Y-50166437D01*
X210540759Y-90398600D01*
X206102579Y-90398600D01*
X206402834Y-90098345D01*
X206522943Y-90048717D01*
X206786192Y-89785927D01*
X206928838Y-89442399D01*
X206929162Y-89070433D01*
X206787117Y-88726657D01*
X206524327Y-88463408D01*
X206180799Y-88320762D01*
X205808833Y-88320438D01*
X205465057Y-88462483D01*
X205201808Y-88725273D01*
X205151434Y-88846587D01*
X203849420Y-90148600D01*
X201468019Y-90148600D01*
X201468162Y-89984833D01*
X201326117Y-89641057D01*
X201063327Y-89377808D01*
X200719799Y-89235162D01*
X200347833Y-89234838D01*
X200004057Y-89376883D01*
X199970882Y-89410000D01*
X194116802Y-89410000D01*
X192505329Y-87798527D01*
X196792032Y-87798527D01*
X197040179Y-88327990D01*
X197472053Y-88722188D01*
X197887974Y-88894458D01*
X198120000Y-88773317D01*
X198120000Y-87566500D01*
X196912531Y-87566500D01*
X196792032Y-87798527D01*
X192505329Y-87798527D01*
X190546122Y-85839320D01*
X190546162Y-85793833D01*
X190404117Y-85450057D01*
X190141327Y-85186808D01*
X189797799Y-85044162D01*
X189425833Y-85043838D01*
X189082057Y-85185883D01*
X188818808Y-85448673D01*
X188676162Y-85792201D01*
X188675838Y-86164167D01*
X188817883Y-86507943D01*
X189080673Y-86771192D01*
X189424201Y-86913838D01*
X189471077Y-86913879D01*
X192705798Y-90148600D01*
X192288979Y-90148600D01*
X191291944Y-89151564D01*
X191242317Y-89031457D01*
X190979527Y-88768208D01*
X190635999Y-88625562D01*
X190264033Y-88625238D01*
X189920257Y-88767283D01*
X189657008Y-89030073D01*
X189514362Y-89373601D01*
X189514038Y-89745567D01*
X189656083Y-90089343D01*
X189918873Y-90352592D01*
X190040186Y-90402966D01*
X191296608Y-91659387D01*
X191296610Y-91659390D01*
X191583725Y-91851233D01*
X191922400Y-91918600D01*
X204215995Y-91918600D01*
X204216000Y-91918601D01*
X204498484Y-91862410D01*
X204554675Y-91851233D01*
X204841790Y-91659390D01*
X205460600Y-91040580D01*
X205460600Y-95429000D01*
X197435792Y-95429000D01*
X197472040Y-95250000D01*
X197472040Y-93218000D01*
X197427762Y-92982683D01*
X197288690Y-92766559D01*
X197076490Y-92621569D01*
X196824600Y-92570560D01*
X195097400Y-92570560D01*
X194862083Y-92614838D01*
X194645959Y-92753910D01*
X194500969Y-92966110D01*
X194492600Y-93007439D01*
X194480670Y-92989585D01*
X193994489Y-92664729D01*
X193421000Y-92550655D01*
X192847511Y-92664729D01*
X192361330Y-92989585D01*
X192151000Y-93304366D01*
X191940670Y-92989585D01*
X191454489Y-92664729D01*
X190881000Y-92550655D01*
X190307511Y-92664729D01*
X189821330Y-92989585D01*
X189611000Y-93304366D01*
X189400670Y-92989585D01*
X189101000Y-92789352D01*
X189101000Y-90551000D01*
X189043148Y-90260161D01*
X188878401Y-90013599D01*
X186307000Y-87442198D01*
X186307000Y-85019802D01*
X186516878Y-85229680D01*
X186516838Y-85275167D01*
X186658883Y-85618943D01*
X186921673Y-85882192D01*
X187265201Y-86024838D01*
X187637167Y-86025162D01*
X187980943Y-85883117D01*
X188244192Y-85620327D01*
X188386838Y-85276799D01*
X188387162Y-84904833D01*
X188245117Y-84561057D01*
X187982327Y-84297808D01*
X187638799Y-84155162D01*
X187591923Y-84155121D01*
X187116901Y-83680099D01*
X187117162Y-83380833D01*
X186975117Y-83037057D01*
X186712327Y-82773808D01*
X186368799Y-82631162D01*
X185996833Y-82630838D01*
X185653057Y-82772883D01*
X185522726Y-82902987D01*
X185479799Y-82885162D01*
X185397712Y-82885090D01*
X185576401Y-82706401D01*
X185741148Y-82459840D01*
X185750746Y-82411586D01*
X185799000Y-82169000D01*
X185799000Y-80705802D01*
X186338401Y-80166401D01*
X186503148Y-79919839D01*
X186561000Y-79629000D01*
X186561000Y-77270463D01*
X186593192Y-77238327D01*
X186735838Y-76894799D01*
X186736162Y-76522833D01*
X186594117Y-76179057D01*
X186331327Y-75915808D01*
X185987799Y-75773162D01*
X185615833Y-75772838D01*
X185339052Y-75887201D01*
X185339162Y-75760833D01*
X185197117Y-75417057D01*
X184934327Y-75153808D01*
X184590799Y-75011162D01*
X184218833Y-75010838D01*
X183875057Y-75152883D01*
X183611808Y-75415673D01*
X183469162Y-75759201D01*
X183468838Y-76131167D01*
X183610883Y-76474943D01*
X183771000Y-76635340D01*
X183771000Y-77794198D01*
X183386000Y-77409198D01*
X183386000Y-75946000D01*
X183328148Y-75655161D01*
X183163401Y-75408599D01*
X181988526Y-74233724D01*
X182118000Y-74104250D01*
X182118000Y-73255000D01*
X182372000Y-73255000D01*
X182372000Y-74104250D01*
X182530750Y-74263000D01*
X183171310Y-74263000D01*
X183404699Y-74166327D01*
X183583327Y-73987698D01*
X183680000Y-73754309D01*
X183680000Y-73413750D01*
X183521250Y-73255000D01*
X182372000Y-73255000D01*
X182118000Y-73255000D01*
X182098000Y-73255000D01*
X182098000Y-73001000D01*
X182118000Y-73001000D01*
X182118000Y-72151750D01*
X182372000Y-72151750D01*
X182372000Y-73001000D01*
X183521250Y-73001000D01*
X183680000Y-72842250D01*
X183680000Y-72501691D01*
X183583327Y-72268302D01*
X183404699Y-72089673D01*
X183171310Y-71993000D01*
X182530750Y-71993000D01*
X182372000Y-72151750D01*
X182118000Y-72151750D01*
X181959250Y-71993000D01*
X181318690Y-71993000D01*
X181100000Y-72083584D01*
X181100000Y-71307802D01*
X181187324Y-71220478D01*
X181193110Y-71224431D01*
X181445000Y-71275440D01*
X183045000Y-71275440D01*
X183280317Y-71231162D01*
X183425095Y-71138000D01*
X189978644Y-71138000D01*
X192579822Y-73739178D01*
X192907490Y-73958118D01*
X193294000Y-74035000D01*
X194272644Y-74035000D01*
X194611822Y-74374178D01*
X194939490Y-74593118D01*
X195326000Y-74670000D01*
X198639783Y-74670000D01*
X198639760Y-74696285D01*
X198850169Y-75205515D01*
X199211025Y-75567000D01*
X195253463Y-75567000D01*
X195221327Y-75534808D01*
X194877799Y-75392162D01*
X194505833Y-75391838D01*
X194162057Y-75533883D01*
X193898808Y-75796673D01*
X193756162Y-76140201D01*
X193755838Y-76512167D01*
X193897883Y-76855943D01*
X193928998Y-76887112D01*
X193928998Y-77025748D01*
X193770250Y-76867000D01*
X193129690Y-76867000D01*
X192896301Y-76963673D01*
X192717673Y-77142302D01*
X192621000Y-77375691D01*
X192621000Y-77716250D01*
X192779750Y-77875000D01*
X193929000Y-77875000D01*
X193929000Y-77855000D01*
X194183000Y-77855000D01*
X194183000Y-77875000D01*
X194203000Y-77875000D01*
X194203000Y-78129000D01*
X194183000Y-78129000D01*
X194183000Y-78149000D01*
X193929000Y-78149000D01*
X193929000Y-78129000D01*
X192779750Y-78129000D01*
X192621000Y-78287750D01*
X192621000Y-78615000D01*
X192211802Y-78615000D01*
X189403122Y-75806320D01*
X189403162Y-75760833D01*
X189261117Y-75417057D01*
X188998327Y-75153808D01*
X188654799Y-75011162D01*
X188282833Y-75010838D01*
X187939057Y-75152883D01*
X187675808Y-75415673D01*
X187533162Y-75759201D01*
X187532838Y-76131167D01*
X187674883Y-76474943D01*
X187937673Y-76738192D01*
X188281201Y-76880838D01*
X188328077Y-76880879D01*
X191359599Y-79912401D01*
X191606160Y-80077148D01*
X191897000Y-80135000D01*
X192738220Y-80135000D01*
X192659569Y-80250110D01*
X192608560Y-80502000D01*
X192608560Y-81207028D01*
X192592799Y-81203892D01*
X192563117Y-81132057D01*
X192300327Y-80868808D01*
X191956799Y-80726162D01*
X191584833Y-80725838D01*
X191241057Y-80867883D01*
X190977808Y-81130673D01*
X190835162Y-81474201D01*
X190834838Y-81846167D01*
X190968383Y-82169371D01*
X190835162Y-82490201D01*
X190834838Y-82862167D01*
X190976883Y-83205943D01*
X191239673Y-83469192D01*
X191583201Y-83611838D01*
X191955167Y-83612162D01*
X192298943Y-83470117D01*
X192332118Y-83437000D01*
X197917915Y-83437000D01*
X197673511Y-83485615D01*
X197187330Y-83810471D01*
X196862474Y-84296652D01*
X196748400Y-84870141D01*
X196748400Y-84928859D01*
X196862474Y-85502348D01*
X197187330Y-85988529D01*
X197458161Y-86169492D01*
X197040179Y-86551010D01*
X196792032Y-87080473D01*
X196912531Y-87312500D01*
X198120000Y-87312500D01*
X198120000Y-87292500D01*
X198374000Y-87292500D01*
X198374000Y-87312500D01*
X198394000Y-87312500D01*
X198394000Y-87566500D01*
X198374000Y-87566500D01*
X198374000Y-88773317D01*
X198606026Y-88894458D01*
X199021947Y-88722188D01*
X199453821Y-88327990D01*
X199511336Y-88205272D01*
X199727330Y-88528529D01*
X200213511Y-88853385D01*
X200787000Y-88967459D01*
X201360489Y-88853385D01*
X201846670Y-88528529D01*
X202057000Y-88213748D01*
X202267330Y-88528529D01*
X202753511Y-88853385D01*
X203327000Y-88967459D01*
X203900489Y-88853385D01*
X204386670Y-88528529D01*
X204711526Y-88042348D01*
X204825600Y-87468859D01*
X204825600Y-87410141D01*
X204711526Y-86836652D01*
X204400426Y-86371058D01*
X204425917Y-86366262D01*
X204642041Y-86227190D01*
X204787031Y-86014990D01*
X204838040Y-85763100D01*
X204838040Y-84035900D01*
X204793762Y-83800583D01*
X204654690Y-83584459D01*
X204442490Y-83439469D01*
X204190600Y-83388460D01*
X204051685Y-83388460D01*
X204029148Y-83275161D01*
X203864401Y-83028599D01*
X203102401Y-82266599D01*
X202855839Y-82101852D01*
X202565000Y-82044000D01*
X201640368Y-82044000D01*
X201721838Y-81847799D01*
X201722162Y-81475833D01*
X201640419Y-81278000D01*
X203813434Y-81278000D01*
X203937567Y-81463778D01*
X204473190Y-81821670D01*
X205105000Y-81947345D01*
X205736810Y-81821670D01*
X206073001Y-81597034D01*
X206090673Y-81639698D01*
X206269301Y-81818327D01*
X206502690Y-81915000D01*
X207359250Y-81915000D01*
X207518000Y-81756250D01*
X207518000Y-80391000D01*
X207772000Y-80391000D01*
X207772000Y-81756250D01*
X207930750Y-81915000D01*
X208787310Y-81915000D01*
X209020699Y-81818327D01*
X209199327Y-81639698D01*
X209296000Y-81406309D01*
X209296000Y-80549750D01*
X209137250Y-80391000D01*
X207772000Y-80391000D01*
X207518000Y-80391000D01*
X207498000Y-80391000D01*
X207498000Y-80137000D01*
X207518000Y-80137000D01*
X207518000Y-78771750D01*
X207772000Y-78771750D01*
X207772000Y-80137000D01*
X209137250Y-80137000D01*
X209296000Y-79978250D01*
X209296000Y-79121691D01*
X209199327Y-78888302D01*
X209020699Y-78709673D01*
X208787310Y-78613000D01*
X207930750Y-78613000D01*
X207772000Y-78771750D01*
X207518000Y-78771750D01*
X207359250Y-78613000D01*
X206502690Y-78613000D01*
X206269301Y-78709673D01*
X206090673Y-78888302D01*
X206073001Y-78930966D01*
X205990000Y-78875506D01*
X205990000Y-78486005D01*
X205990001Y-78486000D01*
X205922633Y-78147325D01*
X205891680Y-78101000D01*
X205730790Y-77860210D01*
X205730787Y-77860208D01*
X204720000Y-76849420D01*
X204720000Y-76454005D01*
X204720001Y-76454000D01*
X204709589Y-76401655D01*
X204809473Y-76448468D01*
X205041500Y-76327969D01*
X205041500Y-75120500D01*
X203834683Y-75120500D01*
X203806692Y-75174113D01*
X202428790Y-73796210D01*
X202343435Y-73739178D01*
X202307976Y-73715485D01*
X202341192Y-73682327D01*
X202483838Y-73338799D01*
X202484162Y-72966833D01*
X202342117Y-72623057D01*
X202079327Y-72359808D01*
X201735799Y-72217162D01*
X201688923Y-72217121D01*
X200689401Y-71217599D01*
X200442839Y-71052852D01*
X200152000Y-70995000D01*
X198053802Y-70995000D01*
X196712969Y-69654167D01*
X199026338Y-69654167D01*
X199168383Y-69997943D01*
X199431173Y-70261192D01*
X199774701Y-70403838D01*
X199821577Y-70403879D01*
X199868599Y-70450901D01*
X200115161Y-70615648D01*
X200406000Y-70673500D01*
X203879238Y-70673500D01*
X204079471Y-70973170D01*
X204394252Y-71183500D01*
X204079471Y-71393830D01*
X203754615Y-71880011D01*
X203640541Y-72453500D01*
X203754615Y-73026989D01*
X204079471Y-73513170D01*
X204402728Y-73729164D01*
X204280010Y-73786679D01*
X203885812Y-74218553D01*
X203713542Y-74634474D01*
X203834683Y-74866500D01*
X205041500Y-74866500D01*
X205041500Y-74846500D01*
X205295500Y-74846500D01*
X205295500Y-74866500D01*
X205315500Y-74866500D01*
X205315500Y-75120500D01*
X205295500Y-75120500D01*
X205295500Y-76327969D01*
X205527527Y-76448468D01*
X206056990Y-76200321D01*
X206438508Y-75782339D01*
X206619471Y-76053170D01*
X207105652Y-76378026D01*
X207679141Y-76492100D01*
X207737859Y-76492100D01*
X208311348Y-76378026D01*
X208797529Y-76053170D01*
X209122385Y-75566989D01*
X209236459Y-74993500D01*
X209122385Y-74420011D01*
X208797529Y-73933830D01*
X208482748Y-73723500D01*
X208797529Y-73513170D01*
X209122385Y-73026989D01*
X209236459Y-72453500D01*
X209122385Y-71880011D01*
X208797529Y-71393830D01*
X208482748Y-71183500D01*
X208797529Y-70973170D01*
X209122385Y-70486989D01*
X209236459Y-69913500D01*
X209122385Y-69340011D01*
X208797529Y-68853830D01*
X208482748Y-68643500D01*
X208797529Y-68433170D01*
X209122385Y-67946989D01*
X209236459Y-67373500D01*
X209122385Y-66800011D01*
X208797529Y-66313830D01*
X208311348Y-65988974D01*
X207737859Y-65874900D01*
X207679141Y-65874900D01*
X207105652Y-65988974D01*
X206640058Y-66300074D01*
X206635262Y-66274583D01*
X206496190Y-66058459D01*
X206283990Y-65913469D01*
X206032100Y-65862460D01*
X204304900Y-65862460D01*
X204069583Y-65906738D01*
X203853459Y-66045810D01*
X203708469Y-66258010D01*
X203657460Y-66509900D01*
X203657460Y-68237100D01*
X203701738Y-68472417D01*
X203840810Y-68688541D01*
X204053010Y-68833531D01*
X204096631Y-68842364D01*
X204079471Y-68853830D01*
X203879238Y-69153500D01*
X200842810Y-69153500D01*
X200754617Y-68940057D01*
X200491827Y-68676808D01*
X200148299Y-68534162D01*
X199776333Y-68533838D01*
X199432557Y-68675883D01*
X199169308Y-68938673D01*
X199026662Y-69282201D01*
X199026338Y-69654167D01*
X196712969Y-69654167D01*
X196340000Y-69281198D01*
X196340000Y-68253463D01*
X196372192Y-68221327D01*
X196514838Y-67877799D01*
X196515162Y-67505833D01*
X196373117Y-67162057D01*
X196110327Y-66898808D01*
X195766799Y-66756162D01*
X195394833Y-66755838D01*
X195051057Y-66897883D01*
X194787808Y-67160673D01*
X194645162Y-67504201D01*
X194645009Y-67680337D01*
X194560299Y-67645162D01*
X194478037Y-67645090D01*
X189654514Y-62821567D01*
X191800038Y-62821567D01*
X191942083Y-63165343D01*
X192204873Y-63428592D01*
X192548401Y-63571238D01*
X192920367Y-63571562D01*
X193264143Y-63429517D01*
X193476491Y-63217539D01*
X193476438Y-63278767D01*
X193618483Y-63622543D01*
X193881273Y-63885792D01*
X194224801Y-64028438D01*
X194596767Y-64028762D01*
X194940543Y-63886717D01*
X195203792Y-63623927D01*
X195346438Y-63280399D01*
X195346510Y-63198136D01*
X198513613Y-60031034D01*
X198648943Y-59975117D01*
X198912192Y-59712327D01*
X199054838Y-59368799D01*
X199054910Y-59286536D01*
X202691647Y-55649800D01*
X204542981Y-55649800D01*
X204600073Y-55706992D01*
X204943601Y-55849638D01*
X205315567Y-55849962D01*
X205659343Y-55707917D01*
X205922592Y-55445127D01*
X206065238Y-55101599D01*
X206065562Y-54729633D01*
X205923517Y-54385857D01*
X205660727Y-54122608D01*
X205317199Y-53979962D01*
X204945233Y-53979638D01*
X204601457Y-54121683D01*
X204543238Y-54179800D01*
X202387200Y-54179800D01*
X202105928Y-54235749D01*
X201867476Y-54395077D01*
X198015646Y-58246908D01*
X197934833Y-58246838D01*
X197591057Y-58388883D01*
X197327808Y-58651673D01*
X197185162Y-58995201D01*
X197184913Y-59280840D01*
X196562617Y-59903137D01*
X196423917Y-59567457D01*
X196161127Y-59304208D01*
X195817599Y-59161562D01*
X195445633Y-59161238D01*
X195101857Y-59303283D01*
X195017291Y-59387702D01*
X194984360Y-59394252D01*
X194737799Y-59558999D01*
X192595520Y-61701278D01*
X192550033Y-61701238D01*
X192206257Y-61843283D01*
X191943008Y-62106073D01*
X191800362Y-62449601D01*
X191800038Y-62821567D01*
X189654514Y-62821567D01*
X189457000Y-62624054D01*
X189457000Y-57195867D01*
X189796167Y-57196162D01*
X190139943Y-57054117D01*
X190403192Y-56791327D01*
X190545838Y-56447799D01*
X190546162Y-56075833D01*
X190473000Y-55898767D01*
X190473000Y-55290922D01*
X190748667Y-55291162D01*
X191092443Y-55149117D01*
X191355692Y-54886327D01*
X191498338Y-54542799D01*
X191498440Y-54425152D01*
X198054045Y-47869547D01*
X198187201Y-47924838D01*
X198559167Y-47925162D01*
X198902943Y-47783117D01*
X199166192Y-47520327D01*
X199308838Y-47176799D01*
X199309162Y-46804833D01*
X199167117Y-46461057D01*
X198904327Y-46197808D01*
X198560799Y-46055162D01*
X198188833Y-46054838D01*
X197845057Y-46196883D01*
X197720062Y-46321660D01*
X197657795Y-46334046D01*
X197427454Y-46487954D01*
X190494469Y-53420939D01*
X190473000Y-53420920D01*
X190473000Y-53228919D01*
X190530192Y-53171827D01*
X190672838Y-52828299D01*
X190673162Y-52456333D01*
X190531117Y-52112557D01*
X190268327Y-51849308D01*
X189924799Y-51706662D01*
X189720541Y-51706484D01*
X189720662Y-51567333D01*
X189578617Y-51223557D01*
X189315827Y-50960308D01*
X188972299Y-50817662D01*
X188600333Y-50817338D01*
X188256557Y-50959383D01*
X187993308Y-51222173D01*
X187850662Y-51565701D01*
X187850338Y-51937667D01*
X187987000Y-52268415D01*
X187987000Y-62928500D01*
X188034387Y-63166727D01*
X188042949Y-63209772D01*
X188202277Y-63448223D01*
X193438408Y-68684355D01*
X193438338Y-68765167D01*
X193580383Y-69108943D01*
X193843173Y-69372192D01*
X194186701Y-69514838D01*
X194558667Y-69515162D01*
X194820000Y-69407182D01*
X194820000Y-69596000D01*
X194877852Y-69886839D01*
X195042599Y-70133401D01*
X197201599Y-72292401D01*
X197448161Y-72457148D01*
X197739000Y-72515000D01*
X199837198Y-72515000D01*
X200400438Y-73078240D01*
X200301702Y-73037241D01*
X200068393Y-73037037D01*
X199977178Y-72945822D01*
X199649510Y-72726882D01*
X199263000Y-72650000D01*
X195744356Y-72650000D01*
X195405178Y-72310822D01*
X195077510Y-72091882D01*
X194691000Y-72015000D01*
X193712356Y-72015000D01*
X191111178Y-69413822D01*
X190783510Y-69194882D01*
X190397000Y-69118000D01*
X183423386Y-69118000D01*
X183296890Y-69031569D01*
X183045000Y-68980560D01*
X183005000Y-68980560D01*
X183005000Y-68882005D01*
X183052838Y-68766799D01*
X183053162Y-68394833D01*
X182911117Y-68051057D01*
X182648327Y-67787808D01*
X182304799Y-67645162D01*
X181932833Y-67644838D01*
X181589057Y-67786883D01*
X181325808Y-68049673D01*
X181183162Y-68393201D01*
X181182838Y-68765167D01*
X181284328Y-69010793D01*
X181209683Y-69024838D01*
X180993559Y-69163910D01*
X180848569Y-69376110D01*
X180826656Y-69484321D01*
X180667599Y-69590599D01*
X179802599Y-70455599D01*
X179637852Y-70702161D01*
X179580000Y-70993000D01*
X179580000Y-73515897D01*
X179510799Y-73487162D01*
X179138833Y-73486838D01*
X178795057Y-73628883D01*
X178531808Y-73891673D01*
X178389162Y-74235201D01*
X178389121Y-74282077D01*
X176627599Y-76043599D01*
X176462852Y-76290161D01*
X176405000Y-76581000D01*
X176405000Y-82804000D01*
X176462852Y-83094839D01*
X176627599Y-83341401D01*
X180959724Y-87673526D01*
X180721000Y-87626041D01*
X180147511Y-87740115D01*
X179661330Y-88064971D01*
X179451000Y-88379752D01*
X179240670Y-88064971D01*
X178754489Y-87740115D01*
X178181000Y-87626041D01*
X177607511Y-87740115D01*
X177121330Y-88064971D01*
X176911000Y-88379752D01*
X176700670Y-88064971D01*
X176401000Y-87864738D01*
X176401000Y-86928802D01*
X176796680Y-86533122D01*
X176842167Y-86533162D01*
X177185943Y-86391117D01*
X177449192Y-86128327D01*
X177591838Y-85784799D01*
X177592162Y-85412833D01*
X177450117Y-85069057D01*
X177187327Y-84805808D01*
X176843799Y-84663162D01*
X176471833Y-84662838D01*
X176128057Y-84804883D01*
X175864808Y-85067673D01*
X175722162Y-85411201D01*
X175722121Y-85458077D01*
X175103599Y-86076599D01*
X174938852Y-86323161D01*
X174881000Y-86614000D01*
X174881000Y-87864738D01*
X174581330Y-88064971D01*
X174371000Y-88379752D01*
X174160670Y-88064971D01*
X173674489Y-87740115D01*
X173101000Y-87626041D01*
X172527511Y-87740115D01*
X172041330Y-88064971D01*
X171716474Y-88551152D01*
X171602400Y-89124641D01*
X171602400Y-89183359D01*
X171716474Y-89756848D01*
X172031526Y-90228356D01*
X171877701Y-90292073D01*
X171699073Y-90470702D01*
X171602400Y-90704091D01*
X171602400Y-91408250D01*
X171761150Y-91567000D01*
X172974000Y-91567000D01*
X172974000Y-91547000D01*
X173228000Y-91547000D01*
X173228000Y-91567000D01*
X175514000Y-91567000D01*
X175514000Y-91547000D01*
X175768000Y-91547000D01*
X175768000Y-91567000D01*
X178054000Y-91567000D01*
X178054000Y-91547000D01*
X178308000Y-91547000D01*
X178308000Y-91567000D01*
X180594000Y-91567000D01*
X180594000Y-91547000D01*
X180848000Y-91547000D01*
X180848000Y-91567000D01*
X183134000Y-91567000D01*
X183134000Y-91547000D01*
X183388000Y-91547000D01*
X183388000Y-91567000D01*
X184595469Y-91567000D01*
X184715968Y-91334973D01*
X184467821Y-90805510D01*
X184049839Y-90423992D01*
X184320670Y-90243029D01*
X184645526Y-89756848D01*
X184759600Y-89183359D01*
X184759600Y-89124641D01*
X184645526Y-88551152D01*
X184320670Y-88064971D01*
X183834489Y-87740115D01*
X183261000Y-87626041D01*
X183094885Y-87659083D01*
X177925000Y-82489198D01*
X177925000Y-79382750D01*
X178270000Y-79382750D01*
X178270000Y-79723309D01*
X178366673Y-79956698D01*
X178545301Y-80135327D01*
X178778690Y-80232000D01*
X179419250Y-80232000D01*
X179578000Y-80073250D01*
X179578000Y-79224000D01*
X179832000Y-79224000D01*
X179832000Y-80073250D01*
X179990750Y-80232000D01*
X180631310Y-80232000D01*
X180864699Y-80135327D01*
X181043327Y-79956698D01*
X181140000Y-79723309D01*
X181140000Y-79382750D01*
X180981250Y-79224000D01*
X179832000Y-79224000D01*
X179578000Y-79224000D01*
X178428750Y-79224000D01*
X178270000Y-79382750D01*
X177925000Y-79382750D01*
X177925000Y-76895802D01*
X178257560Y-76563242D01*
X178257560Y-76597000D01*
X178301838Y-76832317D01*
X178440910Y-77048441D01*
X178653110Y-77193431D01*
X178770109Y-77217124D01*
X178769838Y-77528167D01*
X178911883Y-77871943D01*
X179001783Y-77962000D01*
X178778690Y-77962000D01*
X178545301Y-78058673D01*
X178366673Y-78237302D01*
X178270000Y-78470691D01*
X178270000Y-78811250D01*
X178428750Y-78970000D01*
X179578000Y-78970000D01*
X179578000Y-78950000D01*
X179832000Y-78950000D01*
X179832000Y-78970000D01*
X180981250Y-78970000D01*
X181140000Y-78811250D01*
X181140000Y-78470691D01*
X181043327Y-78237302D01*
X180864699Y-78058673D01*
X180631310Y-77962000D01*
X180408364Y-77962000D01*
X180497192Y-77873327D01*
X180639838Y-77529799D01*
X180640109Y-77219018D01*
X180740317Y-77200162D01*
X180956441Y-77061090D01*
X181101431Y-76848890D01*
X181152440Y-76597000D01*
X181152440Y-75597000D01*
X181140907Y-75535709D01*
X181866000Y-76260802D01*
X181866000Y-77724000D01*
X181923852Y-78014839D01*
X182088599Y-78261401D01*
X182833878Y-79006680D01*
X182833838Y-79052167D01*
X182975883Y-79395943D01*
X183238673Y-79659192D01*
X183582201Y-79801838D01*
X183771000Y-79802002D01*
X183771000Y-81531196D01*
X182469599Y-82832597D01*
X182304852Y-83079159D01*
X182247000Y-83369998D01*
X182247000Y-85979000D01*
X182304852Y-86269839D01*
X182469599Y-86516401D01*
X182579878Y-86626680D01*
X182579838Y-86672167D01*
X182721883Y-87015943D01*
X182984673Y-87279192D01*
X183328201Y-87421838D01*
X183700167Y-87422162D01*
X184043943Y-87280117D01*
X184307192Y-87017327D01*
X184350117Y-86913954D01*
X184589167Y-86914162D01*
X184787000Y-86832419D01*
X184787000Y-87757000D01*
X184844852Y-88047839D01*
X185009599Y-88294401D01*
X187581000Y-90865802D01*
X187581000Y-92789352D01*
X187281330Y-92989585D01*
X186956474Y-93475766D01*
X186842400Y-94049255D01*
X186842400Y-94418745D01*
X186956474Y-94992234D01*
X187248312Y-95429000D01*
X184353688Y-95429000D01*
X184645526Y-94992234D01*
X184759600Y-94418745D01*
X184759600Y-94049255D01*
X184645526Y-93475766D01*
X184320670Y-92989585D01*
X184148126Y-92874295D01*
X184467821Y-92582490D01*
X184715968Y-92053027D01*
X184595469Y-91821000D01*
X183388000Y-91821000D01*
X183388000Y-91841000D01*
X183134000Y-91841000D01*
X183134000Y-91821000D01*
X180848000Y-91821000D01*
X180848000Y-91841000D01*
X180594000Y-91841000D01*
X180594000Y-91821000D01*
X178308000Y-91821000D01*
X178308000Y-91841000D01*
X178054000Y-91841000D01*
X178054000Y-91821000D01*
X175768000Y-91821000D01*
X175768000Y-91841000D01*
X175514000Y-91841000D01*
X175514000Y-91821000D01*
X173228000Y-91821000D01*
X173228000Y-91841000D01*
X172974000Y-91841000D01*
X172974000Y-91821000D01*
X171761150Y-91821000D01*
X171602400Y-91979750D01*
X171602400Y-92683909D01*
X171689731Y-92894744D01*
X171640969Y-92966110D01*
X171589960Y-93218000D01*
X171589960Y-95250000D01*
X171623641Y-95429000D01*
X158624827Y-95429000D01*
X158673793Y-90679309D01*
X158664297Y-90629799D01*
X158636287Y-90587883D01*
X158594176Y-90560168D01*
X158549003Y-90551019D01*
X150185115Y-90405882D01*
X150141898Y-89411899D01*
X150151351Y-89403473D01*
X150181577Y-89363126D01*
X150193845Y-89308657D01*
X150192496Y-74767440D01*
X155791160Y-74767440D01*
X155791160Y-78267560D01*
X155835438Y-78502877D01*
X155974510Y-78719001D01*
X156186710Y-78863991D01*
X156438600Y-78915000D01*
X159122645Y-78915000D01*
X158986899Y-79002350D01*
X158841909Y-79214550D01*
X158790900Y-79466440D01*
X158790900Y-82966560D01*
X158835178Y-83201877D01*
X158974250Y-83418001D01*
X159186450Y-83562991D01*
X159438340Y-83614000D01*
X162938460Y-83614000D01*
X163173777Y-83569722D01*
X163389901Y-83430650D01*
X163534891Y-83218450D01*
X163585900Y-82966560D01*
X163585900Y-79466440D01*
X163541622Y-79231123D01*
X163402550Y-79014999D01*
X163237990Y-78902560D01*
X163902390Y-78902560D01*
X164061140Y-78743810D01*
X164061140Y-76644500D01*
X164315140Y-76644500D01*
X164315140Y-78743810D01*
X164473890Y-78902560D01*
X166064509Y-78902560D01*
X166297898Y-78805887D01*
X166476527Y-78627259D01*
X166573200Y-78393870D01*
X166573200Y-76803250D01*
X166414450Y-76644500D01*
X164315140Y-76644500D01*
X164061140Y-76644500D01*
X161961830Y-76644500D01*
X161803080Y-76803250D01*
X161803080Y-78393870D01*
X161899753Y-78627259D01*
X162078382Y-78805887D01*
X162110040Y-78819000D01*
X160254415Y-78819000D01*
X160390161Y-78731650D01*
X160535151Y-78519450D01*
X160586160Y-78267560D01*
X160586160Y-74767440D01*
X160562394Y-74641130D01*
X161803080Y-74641130D01*
X161803080Y-76231750D01*
X161961830Y-76390500D01*
X164061140Y-76390500D01*
X164061140Y-74291190D01*
X164315140Y-74291190D01*
X164315140Y-76390500D01*
X166414450Y-76390500D01*
X166573200Y-76231750D01*
X166573200Y-74641130D01*
X166476527Y-74407741D01*
X166297898Y-74229113D01*
X166064509Y-74132440D01*
X164473890Y-74132440D01*
X164315140Y-74291190D01*
X164061140Y-74291190D01*
X163902390Y-74132440D01*
X162311771Y-74132440D01*
X162078382Y-74229113D01*
X161899753Y-74407741D01*
X161803080Y-74641130D01*
X160562394Y-74641130D01*
X160541882Y-74532123D01*
X160402810Y-74315999D01*
X160190610Y-74171009D01*
X159938720Y-74120000D01*
X156438600Y-74120000D01*
X156203283Y-74164278D01*
X155987159Y-74303350D01*
X155842169Y-74515550D01*
X155791160Y-74767440D01*
X150192496Y-74767440D01*
X150191323Y-62130940D01*
X156172160Y-62130940D01*
X156172160Y-65631060D01*
X156216438Y-65866377D01*
X156355510Y-66082501D01*
X156567710Y-66227491D01*
X156819600Y-66278500D01*
X159503645Y-66278500D01*
X159367899Y-66365850D01*
X159222909Y-66578050D01*
X159171900Y-66829940D01*
X159171900Y-70330060D01*
X159216178Y-70565377D01*
X159355250Y-70781501D01*
X159567450Y-70926491D01*
X159819340Y-70977500D01*
X163319460Y-70977500D01*
X163554777Y-70933222D01*
X163770901Y-70794150D01*
X163915891Y-70581950D01*
X163966900Y-70330060D01*
X163966900Y-66929000D01*
X184625655Y-66929000D01*
X184751330Y-67560810D01*
X185109222Y-68096433D01*
X185644845Y-68454325D01*
X186276655Y-68580000D01*
X186341345Y-68580000D01*
X186973155Y-68454325D01*
X187508778Y-68096433D01*
X187866670Y-67560810D01*
X187992345Y-66929000D01*
X187866670Y-66297190D01*
X187639501Y-65957208D01*
X187776441Y-65869090D01*
X187921431Y-65656890D01*
X187972440Y-65405000D01*
X187972440Y-63373000D01*
X187928162Y-63137683D01*
X187789090Y-62921559D01*
X187576890Y-62776569D01*
X187325000Y-62725560D01*
X185293000Y-62725560D01*
X185057683Y-62769838D01*
X184841559Y-62908910D01*
X184696569Y-63121110D01*
X184645560Y-63373000D01*
X184645560Y-65405000D01*
X184689838Y-65640317D01*
X184828910Y-65856441D01*
X184977837Y-65958198D01*
X184751330Y-66297190D01*
X184625655Y-66929000D01*
X163966900Y-66929000D01*
X163966900Y-66829940D01*
X163922622Y-66594623D01*
X163783550Y-66378499D01*
X163618990Y-66266060D01*
X164283390Y-66266060D01*
X164442140Y-66107310D01*
X164442140Y-64008000D01*
X164696140Y-64008000D01*
X164696140Y-66107310D01*
X164854890Y-66266060D01*
X166445509Y-66266060D01*
X166678898Y-66169387D01*
X166857527Y-65990759D01*
X166954200Y-65757370D01*
X166954200Y-64166750D01*
X166795450Y-64008000D01*
X164696140Y-64008000D01*
X164442140Y-64008000D01*
X162342830Y-64008000D01*
X162184080Y-64166750D01*
X162184080Y-65757370D01*
X162280753Y-65990759D01*
X162459382Y-66169387D01*
X162491040Y-66182500D01*
X160635415Y-66182500D01*
X160771161Y-66095150D01*
X160916151Y-65882950D01*
X160967160Y-65631060D01*
X160967160Y-62130940D01*
X160943394Y-62004630D01*
X162184080Y-62004630D01*
X162184080Y-63595250D01*
X162342830Y-63754000D01*
X164442140Y-63754000D01*
X164442140Y-61654690D01*
X164696140Y-61654690D01*
X164696140Y-63754000D01*
X166795450Y-63754000D01*
X166954200Y-63595250D01*
X166954200Y-62004630D01*
X166857527Y-61771241D01*
X166678898Y-61592613D01*
X166445509Y-61495940D01*
X164854890Y-61495940D01*
X164696140Y-61654690D01*
X164442140Y-61654690D01*
X164283390Y-61495940D01*
X162692771Y-61495940D01*
X162459382Y-61592613D01*
X162280753Y-61771241D01*
X162184080Y-62004630D01*
X160943394Y-62004630D01*
X160922882Y-61895623D01*
X160783810Y-61679499D01*
X160571610Y-61534509D01*
X160319720Y-61483500D01*
X156819600Y-61483500D01*
X156584283Y-61527778D01*
X156368159Y-61666850D01*
X156223169Y-61879050D01*
X156172160Y-62130940D01*
X150191323Y-62130940D01*
X150190559Y-53906167D01*
X171403838Y-53906167D01*
X171545883Y-54249943D01*
X171808673Y-54513192D01*
X172152201Y-54655838D01*
X172389743Y-54656045D01*
X180293878Y-62560180D01*
X180293838Y-62605667D01*
X180435883Y-62949443D01*
X180698673Y-63212692D01*
X181042201Y-63355338D01*
X181414167Y-63355662D01*
X181757943Y-63213617D01*
X182021192Y-62950827D01*
X182163838Y-62607299D01*
X182164162Y-62235333D01*
X182022117Y-61891557D01*
X181759327Y-61628308D01*
X181668087Y-61590422D01*
X181742510Y-61575618D01*
X182070178Y-61356678D01*
X184229178Y-59197678D01*
X184448118Y-58870010D01*
X184525000Y-58483500D01*
X184525000Y-48895000D01*
X184448118Y-48508490D01*
X184229178Y-48180822D01*
X183901510Y-47961882D01*
X183515000Y-47885000D01*
X183128490Y-47961882D01*
X182800822Y-48180822D01*
X182581882Y-48508490D01*
X182505000Y-48895000D01*
X182505000Y-58065144D01*
X180641822Y-59928322D01*
X180422882Y-60255990D01*
X180375831Y-60492529D01*
X173172082Y-53288780D01*
X173132117Y-53192057D01*
X172869327Y-52928808D01*
X172525799Y-52786162D01*
X172153833Y-52785838D01*
X171810057Y-52927883D01*
X171546808Y-53190673D01*
X171404162Y-53534201D01*
X171403838Y-53906167D01*
X150190559Y-53906167D01*
X150190212Y-50171860D01*
X157778125Y-50571224D01*
X157827993Y-50563829D01*
X157871054Y-50537616D01*
X157900525Y-50496714D01*
X157911796Y-50445424D01*
X157962596Y-44146224D01*
X157952989Y-44096735D01*
X157924885Y-44054882D01*
X157882712Y-44027262D01*
X157836360Y-44018202D01*
X149808000Y-43970128D01*
X149808000Y-36957000D01*
X152304155Y-36957000D01*
X152418229Y-37530489D01*
X152743085Y-38016670D01*
X153057866Y-38227000D01*
X152743085Y-38437330D01*
X152418229Y-38923511D01*
X152304155Y-39497000D01*
X152418229Y-40070489D01*
X152743085Y-40556670D01*
X153229266Y-40881526D01*
X153802755Y-40995600D01*
X154172245Y-40995600D01*
X154745734Y-40881526D01*
X155231915Y-40556670D01*
X155556771Y-40070489D01*
X155670845Y-39497000D01*
X155556771Y-38923511D01*
X155231915Y-38437330D01*
X154917134Y-38227000D01*
X155231915Y-38016670D01*
X155556771Y-37530489D01*
X155670845Y-36957000D01*
X155796655Y-36957000D01*
X155910729Y-37530489D01*
X156235585Y-38016670D01*
X156550366Y-38227000D01*
X156235585Y-38437330D01*
X155910729Y-38923511D01*
X155796655Y-39497000D01*
X155910729Y-40070489D01*
X156235585Y-40556670D01*
X156721766Y-40881526D01*
X157295255Y-40995600D01*
X157664745Y-40995600D01*
X158238234Y-40881526D01*
X158724415Y-40556670D01*
X159049271Y-40070489D01*
X159163345Y-39497000D01*
X159049271Y-38923511D01*
X158724415Y-38437330D01*
X158409634Y-38227000D01*
X158724415Y-38016670D01*
X159049271Y-37530489D01*
X159163345Y-36957000D01*
X159289155Y-36957000D01*
X159403229Y-37530489D01*
X159728085Y-38016670D01*
X160042866Y-38227000D01*
X159728085Y-38437330D01*
X159403229Y-38923511D01*
X159289155Y-39497000D01*
X159403229Y-40070489D01*
X159728085Y-40556670D01*
X160214266Y-40881526D01*
X160787755Y-40995600D01*
X161157245Y-40995600D01*
X161730734Y-40881526D01*
X162216915Y-40556670D01*
X162541771Y-40070489D01*
X162655845Y-39497000D01*
X162541771Y-38923511D01*
X162216915Y-38437330D01*
X161902134Y-38227000D01*
X162216915Y-38016670D01*
X162541771Y-37530489D01*
X162655845Y-36957000D01*
X162781655Y-36957000D01*
X162895729Y-37530489D01*
X163220585Y-38016670D01*
X163535366Y-38227000D01*
X163220585Y-38437330D01*
X162895729Y-38923511D01*
X162781655Y-39497000D01*
X162895729Y-40070489D01*
X163220585Y-40556670D01*
X163706766Y-40881526D01*
X164280255Y-40995600D01*
X164649745Y-40995600D01*
X165223234Y-40881526D01*
X165709415Y-40556670D01*
X166034271Y-40070489D01*
X166148345Y-39497000D01*
X166034271Y-38923511D01*
X165709415Y-38437330D01*
X165394634Y-38227000D01*
X165709415Y-38016670D01*
X166034271Y-37530489D01*
X166148345Y-36957000D01*
X166274155Y-36957000D01*
X166388229Y-37530489D01*
X166713085Y-38016670D01*
X167027866Y-38227000D01*
X166713085Y-38437330D01*
X166388229Y-38923511D01*
X166274155Y-39497000D01*
X166388229Y-40070489D01*
X166713085Y-40556670D01*
X167199266Y-40881526D01*
X167772755Y-40995600D01*
X168142245Y-40995600D01*
X168715734Y-40881526D01*
X169201915Y-40556670D01*
X169526771Y-40070489D01*
X169640845Y-39497000D01*
X169526771Y-38923511D01*
X169201915Y-38437330D01*
X168887134Y-38227000D01*
X169201915Y-38016670D01*
X169526771Y-37530489D01*
X169640845Y-36957000D01*
X169766655Y-36957000D01*
X169880729Y-37530489D01*
X170205585Y-38016670D01*
X170520366Y-38227000D01*
X170205585Y-38437330D01*
X169880729Y-38923511D01*
X169766655Y-39497000D01*
X169880729Y-40070489D01*
X170205585Y-40556670D01*
X170691766Y-40881526D01*
X171265255Y-40995600D01*
X171634745Y-40995600D01*
X172208234Y-40881526D01*
X172694415Y-40556670D01*
X173019271Y-40070489D01*
X173133345Y-39497000D01*
X173019271Y-38923511D01*
X172694415Y-38437330D01*
X172379634Y-38227000D01*
X172694415Y-38016670D01*
X173019271Y-37530489D01*
X173133345Y-36957000D01*
X173259155Y-36957000D01*
X173373229Y-37530489D01*
X173698085Y-38016670D01*
X174012866Y-38227000D01*
X173698085Y-38437330D01*
X173373229Y-38923511D01*
X173259155Y-39497000D01*
X173373229Y-40070489D01*
X173698085Y-40556670D01*
X174184266Y-40881526D01*
X174757755Y-40995600D01*
X175127245Y-40995600D01*
X175700734Y-40881526D01*
X176186915Y-40556670D01*
X176511771Y-40070489D01*
X176625845Y-39497000D01*
X176511771Y-38923511D01*
X176186915Y-38437330D01*
X175872134Y-38227000D01*
X176186915Y-38016670D01*
X176511771Y-37530489D01*
X176625845Y-36957000D01*
X176751655Y-36957000D01*
X176865729Y-37530489D01*
X177190585Y-38016670D01*
X177505366Y-38227000D01*
X177190585Y-38437330D01*
X176865729Y-38923511D01*
X176751655Y-39497000D01*
X176865729Y-40070489D01*
X177190585Y-40556670D01*
X177676766Y-40881526D01*
X178250255Y-40995600D01*
X178619745Y-40995600D01*
X179193234Y-40881526D01*
X179679415Y-40556670D01*
X180004271Y-40070489D01*
X180118345Y-39497000D01*
X180004271Y-38923511D01*
X179679415Y-38437330D01*
X179364634Y-38227000D01*
X179679415Y-38016670D01*
X180004271Y-37530489D01*
X180118345Y-36957000D01*
X181577655Y-36957000D01*
X181691729Y-37530489D01*
X182016585Y-38016670D01*
X182331366Y-38227000D01*
X182016585Y-38437330D01*
X181691729Y-38923511D01*
X181577655Y-39497000D01*
X181691729Y-40070489D01*
X182016585Y-40556670D01*
X182502766Y-40881526D01*
X183076255Y-40995600D01*
X183445745Y-40995600D01*
X184019234Y-40881526D01*
X184505415Y-40556670D01*
X184830271Y-40070489D01*
X184944345Y-39497000D01*
X184830271Y-38923511D01*
X184505415Y-38437330D01*
X184190634Y-38227000D01*
X184505415Y-38016670D01*
X184830271Y-37530489D01*
X184944345Y-36957000D01*
X185070155Y-36957000D01*
X185184229Y-37530489D01*
X185509085Y-38016670D01*
X185823866Y-38227000D01*
X185509085Y-38437330D01*
X185184229Y-38923511D01*
X185070155Y-39497000D01*
X185184229Y-40070489D01*
X185509085Y-40556670D01*
X185995266Y-40881526D01*
X186568755Y-40995600D01*
X186938245Y-40995600D01*
X187511734Y-40881526D01*
X187997915Y-40556670D01*
X188322771Y-40070489D01*
X188436845Y-39497000D01*
X188322771Y-38923511D01*
X187997915Y-38437330D01*
X187683134Y-38227000D01*
X187997915Y-38016670D01*
X188322771Y-37530489D01*
X188436845Y-36957000D01*
X188562655Y-36957000D01*
X188676729Y-37530489D01*
X189001585Y-38016670D01*
X189316366Y-38227000D01*
X189001585Y-38437330D01*
X188676729Y-38923511D01*
X188562655Y-39497000D01*
X188676729Y-40070489D01*
X189001585Y-40556670D01*
X189487766Y-40881526D01*
X190061255Y-40995600D01*
X190430745Y-40995600D01*
X191004234Y-40881526D01*
X191490415Y-40556670D01*
X191815271Y-40070489D01*
X191929345Y-39497000D01*
X191815271Y-38923511D01*
X191490415Y-38437330D01*
X191175634Y-38227000D01*
X191490415Y-38016670D01*
X191815271Y-37530489D01*
X191929345Y-36957000D01*
X192055155Y-36957000D01*
X192169229Y-37530489D01*
X192494085Y-38016670D01*
X192808866Y-38227000D01*
X192494085Y-38437330D01*
X192169229Y-38923511D01*
X192055155Y-39497000D01*
X192169229Y-40070489D01*
X192494085Y-40556670D01*
X192980266Y-40881526D01*
X193553755Y-40995600D01*
X193923245Y-40995600D01*
X194496734Y-40881526D01*
X194982915Y-40556670D01*
X195307771Y-40070489D01*
X195421845Y-39497000D01*
X195307771Y-38923511D01*
X194982915Y-38437330D01*
X194668134Y-38227000D01*
X194982915Y-38016670D01*
X195307771Y-37530489D01*
X195421845Y-36957000D01*
X195547655Y-36957000D01*
X195661729Y-37530489D01*
X195986585Y-38016670D01*
X196301366Y-38227000D01*
X195986585Y-38437330D01*
X195661729Y-38923511D01*
X195547655Y-39497000D01*
X195661729Y-40070489D01*
X195986585Y-40556670D01*
X196472766Y-40881526D01*
X197046255Y-40995600D01*
X197415745Y-40995600D01*
X197989234Y-40881526D01*
X198475415Y-40556670D01*
X198800271Y-40070489D01*
X198914345Y-39497000D01*
X198800271Y-38923511D01*
X198475415Y-38437330D01*
X198160634Y-38227000D01*
X198475415Y-38016670D01*
X198800271Y-37530489D01*
X198914345Y-36957000D01*
X199040155Y-36957000D01*
X199154229Y-37530489D01*
X199479085Y-38016670D01*
X199793866Y-38227000D01*
X199479085Y-38437330D01*
X199154229Y-38923511D01*
X199040155Y-39497000D01*
X199154229Y-40070489D01*
X199479085Y-40556670D01*
X199965266Y-40881526D01*
X200538755Y-40995600D01*
X200908245Y-40995600D01*
X201481734Y-40881526D01*
X201967915Y-40556670D01*
X202292771Y-40070489D01*
X202406845Y-39497000D01*
X202292771Y-38923511D01*
X201967915Y-38437330D01*
X201653134Y-38227000D01*
X201967915Y-38016670D01*
X202292771Y-37530489D01*
X202406845Y-36957000D01*
X202292771Y-36383511D01*
X201967915Y-35897330D01*
X201945720Y-35882500D01*
X202099198Y-35818927D01*
X202277827Y-35640299D01*
X202374500Y-35406910D01*
X202374500Y-34702750D01*
X202215750Y-34544000D01*
X200850500Y-34544000D01*
X200850500Y-34564000D01*
X200596500Y-34564000D01*
X200596500Y-34544000D01*
X199231250Y-34544000D01*
X199072500Y-34702750D01*
X199072500Y-35406910D01*
X199169173Y-35640299D01*
X199347802Y-35818927D01*
X199501280Y-35882500D01*
X199479085Y-35897330D01*
X199154229Y-36383511D01*
X199040155Y-36957000D01*
X198914345Y-36957000D01*
X198800271Y-36383511D01*
X198475415Y-35897330D01*
X198453220Y-35882500D01*
X198606698Y-35818927D01*
X198785327Y-35640299D01*
X198882000Y-35406910D01*
X198882000Y-34702750D01*
X198723250Y-34544000D01*
X197358000Y-34544000D01*
X197358000Y-34564000D01*
X197104000Y-34564000D01*
X197104000Y-34544000D01*
X195738750Y-34544000D01*
X195580000Y-34702750D01*
X195580000Y-35406910D01*
X195676673Y-35640299D01*
X195855302Y-35818927D01*
X196008780Y-35882500D01*
X195986585Y-35897330D01*
X195661729Y-36383511D01*
X195547655Y-36957000D01*
X195421845Y-36957000D01*
X195307771Y-36383511D01*
X194982915Y-35897330D01*
X194960720Y-35882500D01*
X195114198Y-35818927D01*
X195292827Y-35640299D01*
X195389500Y-35406910D01*
X195389500Y-34702750D01*
X195230750Y-34544000D01*
X193865500Y-34544000D01*
X193865500Y-34564000D01*
X193611500Y-34564000D01*
X193611500Y-34544000D01*
X192246250Y-34544000D01*
X192087500Y-34702750D01*
X192087500Y-35406910D01*
X192184173Y-35640299D01*
X192362802Y-35818927D01*
X192516280Y-35882500D01*
X192494085Y-35897330D01*
X192169229Y-36383511D01*
X192055155Y-36957000D01*
X191929345Y-36957000D01*
X191815271Y-36383511D01*
X191490415Y-35897330D01*
X191468220Y-35882500D01*
X191621698Y-35818927D01*
X191800327Y-35640299D01*
X191897000Y-35406910D01*
X191897000Y-34702750D01*
X191738250Y-34544000D01*
X190373000Y-34544000D01*
X190373000Y-34564000D01*
X190119000Y-34564000D01*
X190119000Y-34544000D01*
X188753750Y-34544000D01*
X188595000Y-34702750D01*
X188595000Y-35406910D01*
X188691673Y-35640299D01*
X188870302Y-35818927D01*
X189023780Y-35882500D01*
X189001585Y-35897330D01*
X188676729Y-36383511D01*
X188562655Y-36957000D01*
X188436845Y-36957000D01*
X188322771Y-36383511D01*
X187997915Y-35897330D01*
X187975720Y-35882500D01*
X188129198Y-35818927D01*
X188307827Y-35640299D01*
X188404500Y-35406910D01*
X188404500Y-34702750D01*
X188245750Y-34544000D01*
X186880500Y-34544000D01*
X186880500Y-34564000D01*
X186626500Y-34564000D01*
X186626500Y-34544000D01*
X185261250Y-34544000D01*
X185102500Y-34702750D01*
X185102500Y-35406910D01*
X185199173Y-35640299D01*
X185377802Y-35818927D01*
X185531280Y-35882500D01*
X185509085Y-35897330D01*
X185184229Y-36383511D01*
X185070155Y-36957000D01*
X184944345Y-36957000D01*
X184830271Y-36383511D01*
X184505415Y-35897330D01*
X184483220Y-35882500D01*
X184636698Y-35818927D01*
X184815327Y-35640299D01*
X184912000Y-35406910D01*
X184912000Y-34702750D01*
X184753250Y-34544000D01*
X183388000Y-34544000D01*
X183388000Y-34564000D01*
X183134000Y-34564000D01*
X183134000Y-34544000D01*
X181768750Y-34544000D01*
X181610000Y-34702750D01*
X181610000Y-35406910D01*
X181706673Y-35640299D01*
X181885302Y-35818927D01*
X182038780Y-35882500D01*
X182016585Y-35897330D01*
X181691729Y-36383511D01*
X181577655Y-36957000D01*
X180118345Y-36957000D01*
X180004271Y-36383511D01*
X179679415Y-35897330D01*
X179657220Y-35882500D01*
X179810698Y-35818927D01*
X179989327Y-35640299D01*
X180086000Y-35406910D01*
X180086000Y-34702750D01*
X179927250Y-34544000D01*
X178562000Y-34544000D01*
X178562000Y-34564000D01*
X178308000Y-34564000D01*
X178308000Y-34544000D01*
X176942750Y-34544000D01*
X176784000Y-34702750D01*
X176784000Y-35406910D01*
X176880673Y-35640299D01*
X177059302Y-35818927D01*
X177212780Y-35882500D01*
X177190585Y-35897330D01*
X176865729Y-36383511D01*
X176751655Y-36957000D01*
X176625845Y-36957000D01*
X176511771Y-36383511D01*
X176186915Y-35897330D01*
X176164720Y-35882500D01*
X176318198Y-35818927D01*
X176496827Y-35640299D01*
X176593500Y-35406910D01*
X176593500Y-34702750D01*
X176434750Y-34544000D01*
X175069500Y-34544000D01*
X175069500Y-34564000D01*
X174815500Y-34564000D01*
X174815500Y-34544000D01*
X173450250Y-34544000D01*
X173291500Y-34702750D01*
X173291500Y-35406910D01*
X173388173Y-35640299D01*
X173566802Y-35818927D01*
X173720280Y-35882500D01*
X173698085Y-35897330D01*
X173373229Y-36383511D01*
X173259155Y-36957000D01*
X173133345Y-36957000D01*
X173019271Y-36383511D01*
X172694415Y-35897330D01*
X172672220Y-35882500D01*
X172825698Y-35818927D01*
X173004327Y-35640299D01*
X173101000Y-35406910D01*
X173101000Y-34702750D01*
X172942250Y-34544000D01*
X171577000Y-34544000D01*
X171577000Y-34564000D01*
X171323000Y-34564000D01*
X171323000Y-34544000D01*
X169957750Y-34544000D01*
X169799000Y-34702750D01*
X169799000Y-35406910D01*
X169895673Y-35640299D01*
X170074302Y-35818927D01*
X170227780Y-35882500D01*
X170205585Y-35897330D01*
X169880729Y-36383511D01*
X169766655Y-36957000D01*
X169640845Y-36957000D01*
X169526771Y-36383511D01*
X169201915Y-35897330D01*
X169179720Y-35882500D01*
X169333198Y-35818927D01*
X169511827Y-35640299D01*
X169608500Y-35406910D01*
X169608500Y-34702750D01*
X169449750Y-34544000D01*
X168084500Y-34544000D01*
X168084500Y-34564000D01*
X167830500Y-34564000D01*
X167830500Y-34544000D01*
X166465250Y-34544000D01*
X166306500Y-34702750D01*
X166306500Y-35406910D01*
X166403173Y-35640299D01*
X166581802Y-35818927D01*
X166735280Y-35882500D01*
X166713085Y-35897330D01*
X166388229Y-36383511D01*
X166274155Y-36957000D01*
X166148345Y-36957000D01*
X166034271Y-36383511D01*
X165709415Y-35897330D01*
X165687220Y-35882500D01*
X165840698Y-35818927D01*
X166019327Y-35640299D01*
X166116000Y-35406910D01*
X166116000Y-34702750D01*
X165957250Y-34544000D01*
X164592000Y-34544000D01*
X164592000Y-34564000D01*
X164338000Y-34564000D01*
X164338000Y-34544000D01*
X162972750Y-34544000D01*
X162814000Y-34702750D01*
X162814000Y-35406910D01*
X162910673Y-35640299D01*
X163089302Y-35818927D01*
X163242780Y-35882500D01*
X163220585Y-35897330D01*
X162895729Y-36383511D01*
X162781655Y-36957000D01*
X162655845Y-36957000D01*
X162541771Y-36383511D01*
X162216915Y-35897330D01*
X162194720Y-35882500D01*
X162348198Y-35818927D01*
X162526827Y-35640299D01*
X162623500Y-35406910D01*
X162623500Y-34702750D01*
X162464750Y-34544000D01*
X161099500Y-34544000D01*
X161099500Y-34564000D01*
X160845500Y-34564000D01*
X160845500Y-34544000D01*
X159480250Y-34544000D01*
X159321500Y-34702750D01*
X159321500Y-35406910D01*
X159418173Y-35640299D01*
X159596802Y-35818927D01*
X159750280Y-35882500D01*
X159728085Y-35897330D01*
X159403229Y-36383511D01*
X159289155Y-36957000D01*
X159163345Y-36957000D01*
X159049271Y-36383511D01*
X158724415Y-35897330D01*
X158702220Y-35882500D01*
X158855698Y-35818927D01*
X159034327Y-35640299D01*
X159131000Y-35406910D01*
X159131000Y-34702750D01*
X158972250Y-34544000D01*
X157607000Y-34544000D01*
X157607000Y-34564000D01*
X157353000Y-34564000D01*
X157353000Y-34544000D01*
X155987750Y-34544000D01*
X155829000Y-34702750D01*
X155829000Y-35406910D01*
X155925673Y-35640299D01*
X156104302Y-35818927D01*
X156257780Y-35882500D01*
X156235585Y-35897330D01*
X155910729Y-36383511D01*
X155796655Y-36957000D01*
X155670845Y-36957000D01*
X155556771Y-36383511D01*
X155231915Y-35897330D01*
X155209720Y-35882500D01*
X155363198Y-35818927D01*
X155541827Y-35640299D01*
X155638500Y-35406910D01*
X155638500Y-34702750D01*
X155479750Y-34544000D01*
X154114500Y-34544000D01*
X154114500Y-34564000D01*
X153860500Y-34564000D01*
X153860500Y-34544000D01*
X152495250Y-34544000D01*
X152336500Y-34702750D01*
X152336500Y-35406910D01*
X152433173Y-35640299D01*
X152611802Y-35818927D01*
X152765280Y-35882500D01*
X152743085Y-35897330D01*
X152418229Y-36383511D01*
X152304155Y-36957000D01*
X149808000Y-36957000D01*
X149808000Y-33222000D01*
X152421451Y-33222000D01*
X152336500Y-33427090D01*
M02*
