G04 #@! TF.FileFunction,Legend,Top*
%FSLAX46Y46*%
G04 Gerber Fmt 4.6, Leading zero omitted, Abs format (unit mm)*
G04 Created by KiCad (PCBNEW 4.0.0-rc2-stable) date 7/13/2016 8:06:37 PM*
%MOMM*%
G01*
G04 APERTURE LIST*
%ADD10C,0.100000*%
%ADD11C,0.300000*%
%ADD12C,0.150000*%
G04 APERTURE END LIST*
D10*
D11*
X209728643Y-39540643D02*
X209800072Y-39469214D01*
X209942929Y-39397786D01*
X210228643Y-39540643D01*
X210371500Y-39469214D01*
X210442929Y-39397786D01*
X209486572Y-37000643D02*
X210629429Y-37000643D01*
X210058000Y-37572071D02*
X210058000Y-36429214D01*
X209486572Y-34460643D02*
X210629429Y-34460643D01*
X150991143Y-39667643D02*
X151062572Y-39596214D01*
X151205429Y-39524786D01*
X151491143Y-39667643D01*
X151634000Y-39596214D01*
X151705429Y-39524786D01*
X150749072Y-34460643D02*
X151891929Y-34460643D01*
X150749072Y-37000643D02*
X151891929Y-37000643D01*
X151320500Y-37572071D02*
X151320500Y-36429214D01*
X150991143Y-39667643D02*
X151062572Y-39596214D01*
X151205429Y-39524786D01*
X151491143Y-39667643D01*
X151634000Y-39596214D01*
X151705429Y-39524786D01*
D10*
X154282001Y-85752971D02*
X154282001Y-84252971D01*
X154782001Y-85324400D01*
X155282001Y-84252971D01*
X155282001Y-85752971D01*
X157067715Y-85324400D02*
X157782001Y-85324400D01*
X156924858Y-85752971D02*
X157424858Y-84252971D01*
X157924858Y-85752971D01*
X159353429Y-84252971D02*
X159853429Y-85752971D01*
X160353429Y-84252971D01*
X162853429Y-85752971D02*
X162353429Y-85038686D01*
X161996286Y-85752971D02*
X161996286Y-84252971D01*
X162567714Y-84252971D01*
X162710572Y-84324400D01*
X162782000Y-84395829D01*
X162853429Y-84538686D01*
X162853429Y-84752971D01*
X162782000Y-84895829D01*
X162710572Y-84967257D01*
X162567714Y-85038686D01*
X161996286Y-85038686D01*
X164639143Y-85752971D02*
X164639143Y-84252971D01*
X167353429Y-85610114D02*
X167282000Y-85681543D01*
X167067714Y-85752971D01*
X166924857Y-85752971D01*
X166710572Y-85681543D01*
X166567714Y-85538686D01*
X166496286Y-85395829D01*
X166424857Y-85110114D01*
X166424857Y-84895829D01*
X166496286Y-84610114D01*
X166567714Y-84467257D01*
X166710572Y-84324400D01*
X166924857Y-84252971D01*
X167067714Y-84252971D01*
X167282000Y-84324400D01*
X167353429Y-84395829D01*
X150424858Y-87952971D02*
X150424858Y-86452971D01*
X150924858Y-87524400D01*
X151424858Y-86452971D01*
X151424858Y-87952971D01*
X152782001Y-87952971D02*
X152782001Y-87167257D01*
X152710572Y-87024400D01*
X152567715Y-86952971D01*
X152282001Y-86952971D01*
X152139144Y-87024400D01*
X152782001Y-87881543D02*
X152639144Y-87952971D01*
X152282001Y-87952971D01*
X152139144Y-87881543D01*
X152067715Y-87738686D01*
X152067715Y-87595829D01*
X152139144Y-87452971D01*
X152282001Y-87381543D01*
X152639144Y-87381543D01*
X152782001Y-87310114D01*
X153496287Y-87952971D02*
X153496287Y-86952971D01*
X153496287Y-86452971D02*
X153424858Y-86524400D01*
X153496287Y-86595829D01*
X153567715Y-86524400D01*
X153496287Y-86452971D01*
X153496287Y-86595829D01*
X154210573Y-86952971D02*
X154210573Y-87952971D01*
X154210573Y-87095829D02*
X154282001Y-87024400D01*
X154424859Y-86952971D01*
X154639144Y-86952971D01*
X154782001Y-87024400D01*
X154853430Y-87167257D01*
X154853430Y-87952971D01*
X157210573Y-87167257D02*
X157424859Y-87238686D01*
X157496287Y-87310114D01*
X157567716Y-87452971D01*
X157567716Y-87667257D01*
X157496287Y-87810114D01*
X157424859Y-87881543D01*
X157282001Y-87952971D01*
X156710573Y-87952971D01*
X156710573Y-86452971D01*
X157210573Y-86452971D01*
X157353430Y-86524400D01*
X157424859Y-86595829D01*
X157496287Y-86738686D01*
X157496287Y-86881543D01*
X157424859Y-87024400D01*
X157353430Y-87095829D01*
X157210573Y-87167257D01*
X156710573Y-87167257D01*
X158424859Y-87952971D02*
X158282001Y-87881543D01*
X158210573Y-87810114D01*
X158139144Y-87667257D01*
X158139144Y-87238686D01*
X158210573Y-87095829D01*
X158282001Y-87024400D01*
X158424859Y-86952971D01*
X158639144Y-86952971D01*
X158782001Y-87024400D01*
X158853430Y-87095829D01*
X158924859Y-87238686D01*
X158924859Y-87667257D01*
X158853430Y-87810114D01*
X158782001Y-87881543D01*
X158639144Y-87952971D01*
X158424859Y-87952971D01*
X160210573Y-87952971D02*
X160210573Y-87167257D01*
X160139144Y-87024400D01*
X159996287Y-86952971D01*
X159710573Y-86952971D01*
X159567716Y-87024400D01*
X160210573Y-87881543D02*
X160067716Y-87952971D01*
X159710573Y-87952971D01*
X159567716Y-87881543D01*
X159496287Y-87738686D01*
X159496287Y-87595829D01*
X159567716Y-87452971D01*
X159710573Y-87381543D01*
X160067716Y-87381543D01*
X160210573Y-87310114D01*
X160924859Y-87952971D02*
X160924859Y-86952971D01*
X160924859Y-87238686D02*
X160996287Y-87095829D01*
X161067716Y-87024400D01*
X161210573Y-86952971D01*
X161353430Y-86952971D01*
X162496287Y-87952971D02*
X162496287Y-86452971D01*
X162496287Y-87881543D02*
X162353430Y-87952971D01*
X162067716Y-87952971D01*
X161924858Y-87881543D01*
X161853430Y-87810114D01*
X161782001Y-87667257D01*
X161782001Y-87238686D01*
X161853430Y-87095829D01*
X161924858Y-87024400D01*
X162067716Y-86952971D01*
X162353430Y-86952971D01*
X162496287Y-87024400D01*
X165210573Y-87952971D02*
X164710573Y-87238686D01*
X164353430Y-87952971D02*
X164353430Y-86452971D01*
X164924858Y-86452971D01*
X165067716Y-86524400D01*
X165139144Y-86595829D01*
X165210573Y-86738686D01*
X165210573Y-86952971D01*
X165139144Y-87095829D01*
X165067716Y-87167257D01*
X164924858Y-87238686D01*
X164353430Y-87238686D01*
X166424858Y-87881543D02*
X166282001Y-87952971D01*
X165996287Y-87952971D01*
X165853430Y-87881543D01*
X165782001Y-87738686D01*
X165782001Y-87167257D01*
X165853430Y-87024400D01*
X165996287Y-86952971D01*
X166282001Y-86952971D01*
X166424858Y-87024400D01*
X166496287Y-87167257D01*
X166496287Y-87310114D01*
X165782001Y-87452971D01*
X166996287Y-86952971D02*
X167353430Y-87952971D01*
X167710572Y-86952971D01*
X169067715Y-87952971D02*
X168210572Y-87952971D01*
X168639144Y-87952971D02*
X168639144Y-86452971D01*
X168496287Y-86667257D01*
X168353429Y-86810114D01*
X168210572Y-86881543D01*
X169710572Y-87810114D02*
X169782000Y-87881543D01*
X169710572Y-87952971D01*
X169639143Y-87881543D01*
X169710572Y-87810114D01*
X169710572Y-87952971D01*
X170710572Y-86452971D02*
X170853429Y-86452971D01*
X170996286Y-86524400D01*
X171067715Y-86595829D01*
X171139144Y-86738686D01*
X171210572Y-87024400D01*
X171210572Y-87381543D01*
X171139144Y-87667257D01*
X171067715Y-87810114D01*
X170996286Y-87881543D01*
X170853429Y-87952971D01*
X170710572Y-87952971D01*
X170567715Y-87881543D01*
X170496286Y-87810114D01*
X170424858Y-87667257D01*
X170353429Y-87381543D01*
X170353429Y-87024400D01*
X170424858Y-86738686D01*
X170496286Y-86595829D01*
X170567715Y-86524400D01*
X170710572Y-86452971D01*
X153639143Y-90152971D02*
X153639143Y-88652971D01*
X153996286Y-88652971D01*
X154210571Y-88724400D01*
X154353429Y-88867257D01*
X154424857Y-89010114D01*
X154496286Y-89295829D01*
X154496286Y-89510114D01*
X154424857Y-89795829D01*
X154353429Y-89938686D01*
X154210571Y-90081543D01*
X153996286Y-90152971D01*
X153639143Y-90152971D01*
X155782000Y-90152971D02*
X155782000Y-89367257D01*
X155710571Y-89224400D01*
X155567714Y-89152971D01*
X155282000Y-89152971D01*
X155139143Y-89224400D01*
X155782000Y-90081543D02*
X155639143Y-90152971D01*
X155282000Y-90152971D01*
X155139143Y-90081543D01*
X155067714Y-89938686D01*
X155067714Y-89795829D01*
X155139143Y-89652971D01*
X155282000Y-89581543D01*
X155639143Y-89581543D01*
X155782000Y-89510114D01*
X156496286Y-89152971D02*
X156496286Y-90152971D01*
X156496286Y-89295829D02*
X156567714Y-89224400D01*
X156710572Y-89152971D01*
X156924857Y-89152971D01*
X157067714Y-89224400D01*
X157139143Y-89367257D01*
X157139143Y-90152971D01*
X157853429Y-89152971D02*
X157853429Y-90152971D01*
X157853429Y-89295829D02*
X157924857Y-89224400D01*
X158067715Y-89152971D01*
X158282000Y-89152971D01*
X158424857Y-89224400D01*
X158496286Y-89367257D01*
X158496286Y-90152971D01*
X159067715Y-89152971D02*
X159424858Y-90152971D01*
X159782000Y-89152971D02*
X159424858Y-90152971D01*
X159282000Y-90510114D01*
X159210572Y-90581543D01*
X159067715Y-90652971D01*
X161496286Y-90152971D02*
X161496286Y-88652971D01*
X161996286Y-89724400D01*
X162496286Y-88652971D01*
X162496286Y-90152971D01*
X163853429Y-90152971D02*
X163853429Y-89367257D01*
X163782000Y-89224400D01*
X163639143Y-89152971D01*
X163353429Y-89152971D01*
X163210572Y-89224400D01*
X163853429Y-90081543D02*
X163710572Y-90152971D01*
X163353429Y-90152971D01*
X163210572Y-90081543D01*
X163139143Y-89938686D01*
X163139143Y-89795829D01*
X163210572Y-89652971D01*
X163353429Y-89581543D01*
X163710572Y-89581543D01*
X163853429Y-89510114D01*
X164782001Y-90152971D02*
X164639143Y-90081543D01*
X164567715Y-89938686D01*
X164567715Y-88652971D01*
X165567715Y-90152971D02*
X165424857Y-90081543D01*
X165353429Y-89938686D01*
X165353429Y-88652971D01*
X166710571Y-90081543D02*
X166567714Y-90152971D01*
X166282000Y-90152971D01*
X166139143Y-90081543D01*
X166067714Y-89938686D01*
X166067714Y-89367257D01*
X166139143Y-89224400D01*
X166282000Y-89152971D01*
X166567714Y-89152971D01*
X166710571Y-89224400D01*
X166782000Y-89367257D01*
X166782000Y-89510114D01*
X166067714Y-89652971D01*
X167424857Y-90152971D02*
X167424857Y-88652971D01*
X167567714Y-89581543D02*
X167996285Y-90152971D01*
X167996285Y-89152971D02*
X167424857Y-89724400D01*
X201803047Y-75061000D02*
X201755428Y-75037190D01*
X201684000Y-75037190D01*
X201612571Y-75061000D01*
X201564952Y-75108619D01*
X201541143Y-75156238D01*
X201517333Y-75251476D01*
X201517333Y-75322905D01*
X201541143Y-75418143D01*
X201564952Y-75465762D01*
X201612571Y-75513381D01*
X201684000Y-75537190D01*
X201731619Y-75537190D01*
X201803047Y-75513381D01*
X201826857Y-75489571D01*
X201826857Y-75322905D01*
X201731619Y-75322905D01*
X202041143Y-75537190D02*
X202041143Y-75037190D01*
X202326857Y-75537190D01*
X202326857Y-75037190D01*
X202564953Y-75537190D02*
X202564953Y-75037190D01*
X202684000Y-75037190D01*
X202755429Y-75061000D01*
X202803048Y-75108619D01*
X202826857Y-75156238D01*
X202850667Y-75251476D01*
X202850667Y-75322905D01*
X202826857Y-75418143D01*
X202803048Y-75465762D01*
X202755429Y-75513381D01*
X202684000Y-75537190D01*
X202564953Y-75537190D01*
X200612525Y-72536833D02*
X200850620Y-72536833D01*
X200564906Y-72679690D02*
X200731573Y-72179690D01*
X200898239Y-72679690D01*
X201279191Y-72179690D02*
X201183953Y-72179690D01*
X201136334Y-72203500D01*
X201112525Y-72227310D01*
X201064906Y-72298738D01*
X201041096Y-72393976D01*
X201041096Y-72584452D01*
X201064906Y-72632071D01*
X201088715Y-72655881D01*
X201136334Y-72679690D01*
X201231572Y-72679690D01*
X201279191Y-72655881D01*
X201303001Y-72632071D01*
X201326810Y-72584452D01*
X201326810Y-72465405D01*
X201303001Y-72417786D01*
X201279191Y-72393976D01*
X201231572Y-72370167D01*
X201136334Y-72370167D01*
X201088715Y-72393976D01*
X201064906Y-72417786D01*
X201041096Y-72465405D01*
X202279190Y-72536833D02*
X202517285Y-72536833D01*
X202231571Y-72679690D02*
X202398238Y-72179690D01*
X202564904Y-72679690D01*
X202683952Y-72179690D02*
X203017285Y-72179690D01*
X202802999Y-72679690D01*
X200549025Y-70060333D02*
X200787120Y-70060333D01*
X200501406Y-70203190D02*
X200668073Y-69703190D01*
X200834739Y-70203190D01*
X200977596Y-69750810D02*
X201001406Y-69727000D01*
X201049025Y-69703190D01*
X201168072Y-69703190D01*
X201215691Y-69727000D01*
X201239501Y-69750810D01*
X201263310Y-69798429D01*
X201263310Y-69846048D01*
X201239501Y-69917476D01*
X200953787Y-70203190D01*
X201263310Y-70203190D01*
X202215690Y-70060333D02*
X202453785Y-70060333D01*
X202168071Y-70203190D02*
X202334738Y-69703190D01*
X202501404Y-70203190D01*
X202620452Y-69703190D02*
X202929975Y-69703190D01*
X202763309Y-69893667D01*
X202834737Y-69893667D01*
X202882356Y-69917476D01*
X202906166Y-69941286D01*
X202929975Y-69988905D01*
X202929975Y-70107952D01*
X202906166Y-70155571D01*
X202882356Y-70179381D01*
X202834737Y-70203190D01*
X202691880Y-70203190D01*
X202644261Y-70179381D01*
X202620452Y-70155571D01*
X200549025Y-67329833D02*
X200787120Y-67329833D01*
X200501406Y-67472690D02*
X200668073Y-66972690D01*
X200834739Y-67472690D01*
X201096644Y-66972690D02*
X201144263Y-66972690D01*
X201191882Y-66996500D01*
X201215691Y-67020310D01*
X201239501Y-67067929D01*
X201263310Y-67163167D01*
X201263310Y-67282214D01*
X201239501Y-67377452D01*
X201215691Y-67425071D01*
X201191882Y-67448881D01*
X201144263Y-67472690D01*
X201096644Y-67472690D01*
X201049025Y-67448881D01*
X201025215Y-67425071D01*
X201001406Y-67377452D01*
X200977596Y-67282214D01*
X200977596Y-67163167D01*
X201001406Y-67067929D01*
X201025215Y-67020310D01*
X201049025Y-66996500D01*
X201096644Y-66972690D01*
X202215690Y-67329833D02*
X202453785Y-67329833D01*
X202168071Y-67472690D02*
X202334738Y-66972690D01*
X202501404Y-67472690D01*
X202929975Y-67472690D02*
X202644261Y-67472690D01*
X202787118Y-67472690D02*
X202787118Y-66972690D01*
X202739499Y-67044119D01*
X202691880Y-67091738D01*
X202644261Y-67115548D01*
X198346190Y-82831690D02*
X198108095Y-82998357D01*
X198346190Y-83117404D02*
X197846190Y-83117404D01*
X197846190Y-82926928D01*
X197870000Y-82879309D01*
X197893810Y-82855500D01*
X197941429Y-82831690D01*
X198012857Y-82831690D01*
X198060476Y-82855500D01*
X198084286Y-82879309D01*
X198108095Y-82926928D01*
X198108095Y-83117404D01*
X198084286Y-82617404D02*
X198084286Y-82450738D01*
X198346190Y-82379309D02*
X198346190Y-82617404D01*
X197846190Y-82617404D01*
X197846190Y-82379309D01*
X198322381Y-82188833D02*
X198346190Y-82117404D01*
X198346190Y-81998357D01*
X198322381Y-81950738D01*
X198298571Y-81926928D01*
X198250952Y-81903119D01*
X198203333Y-81903119D01*
X198155714Y-81926928D01*
X198131905Y-81950738D01*
X198108095Y-81998357D01*
X198084286Y-82093595D01*
X198060476Y-82141214D01*
X198036667Y-82165023D01*
X197989048Y-82188833D01*
X197941429Y-82188833D01*
X197893810Y-82165023D01*
X197870000Y-82141214D01*
X197846190Y-82093595D01*
X197846190Y-81974547D01*
X197870000Y-81903119D01*
X198084286Y-81688833D02*
X198084286Y-81522167D01*
X198346190Y-81450738D02*
X198346190Y-81688833D01*
X197846190Y-81688833D01*
X197846190Y-81450738D01*
X197846190Y-81307881D02*
X197846190Y-81022167D01*
X198346190Y-81165024D02*
X197846190Y-81165024D01*
X203497690Y-89693737D02*
X203497690Y-89931832D01*
X203735786Y-89955642D01*
X203711976Y-89931832D01*
X203688167Y-89884213D01*
X203688167Y-89765166D01*
X203711976Y-89717547D01*
X203735786Y-89693737D01*
X203783405Y-89669928D01*
X203902452Y-89669928D01*
X203950071Y-89693737D01*
X203973881Y-89717547D01*
X203997690Y-89765166D01*
X203997690Y-89884213D01*
X203973881Y-89931832D01*
X203950071Y-89955642D01*
X203497690Y-89527071D02*
X203997690Y-89360404D01*
X203497690Y-89193738D01*
X198060500Y-90169953D02*
X198036690Y-90217572D01*
X198036690Y-90289000D01*
X198060500Y-90360429D01*
X198108119Y-90408048D01*
X198155738Y-90431857D01*
X198250976Y-90455667D01*
X198322405Y-90455667D01*
X198417643Y-90431857D01*
X198465262Y-90408048D01*
X198512881Y-90360429D01*
X198536690Y-90289000D01*
X198536690Y-90241381D01*
X198512881Y-90169953D01*
X198489071Y-90146143D01*
X198322405Y-90146143D01*
X198322405Y-90241381D01*
X198536690Y-89931857D02*
X198036690Y-89931857D01*
X198536690Y-89646143D01*
X198036690Y-89646143D01*
X198536690Y-89408047D02*
X198036690Y-89408047D01*
X198036690Y-89289000D01*
X198060500Y-89217571D01*
X198108119Y-89169952D01*
X198155738Y-89146143D01*
X198250976Y-89122333D01*
X198322405Y-89122333D01*
X198417643Y-89146143D01*
X198465262Y-89169952D01*
X198512881Y-89217571D01*
X198536690Y-89289000D01*
X198536690Y-89408047D01*
X201179881Y-83065857D02*
X201203690Y-82994428D01*
X201203690Y-82875381D01*
X201179881Y-82827762D01*
X201156071Y-82803952D01*
X201108452Y-82780143D01*
X201060833Y-82780143D01*
X201013214Y-82803952D01*
X200989405Y-82827762D01*
X200965595Y-82875381D01*
X200941786Y-82970619D01*
X200917976Y-83018238D01*
X200894167Y-83042047D01*
X200846548Y-83065857D01*
X200798929Y-83065857D01*
X200751310Y-83042047D01*
X200727500Y-83018238D01*
X200703690Y-82970619D01*
X200703690Y-82851571D01*
X200727500Y-82780143D01*
X201156071Y-82280143D02*
X201179881Y-82303953D01*
X201203690Y-82375381D01*
X201203690Y-82423000D01*
X201179881Y-82494429D01*
X201132262Y-82542048D01*
X201084643Y-82565857D01*
X200989405Y-82589667D01*
X200917976Y-82589667D01*
X200822738Y-82565857D01*
X200775119Y-82542048D01*
X200727500Y-82494429D01*
X200703690Y-82423000D01*
X200703690Y-82375381D01*
X200727500Y-82303953D01*
X200751310Y-82280143D01*
X201203690Y-82065857D02*
X200703690Y-82065857D01*
X201203690Y-81780143D02*
X200917976Y-81994429D01*
X200703690Y-81780143D02*
X200989405Y-82065857D01*
X204251690Y-82954714D02*
X203751690Y-82954714D01*
X204108833Y-82788048D01*
X203751690Y-82621381D01*
X204251690Y-82621381D01*
X204251690Y-82383285D02*
X203751690Y-82383285D01*
X204227881Y-82169000D02*
X204251690Y-82097571D01*
X204251690Y-81978524D01*
X204227881Y-81930905D01*
X204204071Y-81907095D01*
X204156452Y-81883286D01*
X204108833Y-81883286D01*
X204061214Y-81907095D01*
X204037405Y-81930905D01*
X204013595Y-81978524D01*
X203989786Y-82073762D01*
X203965976Y-82121381D01*
X203942167Y-82145190D01*
X203894548Y-82169000D01*
X203846929Y-82169000D01*
X203799310Y-82145190D01*
X203775500Y-82121381D01*
X203751690Y-82073762D01*
X203751690Y-81954714D01*
X203775500Y-81883286D01*
X203751690Y-81573762D02*
X203751690Y-81478524D01*
X203775500Y-81430905D01*
X203823119Y-81383286D01*
X203918357Y-81359477D01*
X204085024Y-81359477D01*
X204180262Y-81383286D01*
X204227881Y-81430905D01*
X204251690Y-81478524D01*
X204251690Y-81573762D01*
X204227881Y-81621381D01*
X204180262Y-81669000D01*
X204085024Y-81692810D01*
X203918357Y-81692810D01*
X203823119Y-81669000D01*
X203775500Y-81621381D01*
X203751690Y-81573762D01*
X201076690Y-90574714D02*
X200576690Y-90574714D01*
X200933833Y-90408048D01*
X200576690Y-90241381D01*
X201076690Y-90241381D01*
X200576690Y-89908047D02*
X200576690Y-89812809D01*
X200600500Y-89765190D01*
X200648119Y-89717571D01*
X200743357Y-89693762D01*
X200910024Y-89693762D01*
X201005262Y-89717571D01*
X201052881Y-89765190D01*
X201076690Y-89812809D01*
X201076690Y-89908047D01*
X201052881Y-89955666D01*
X201005262Y-90003285D01*
X200910024Y-90027095D01*
X200743357Y-90027095D01*
X200648119Y-90003285D01*
X200600500Y-89955666D01*
X200576690Y-89908047D01*
X201052881Y-89503285D02*
X201076690Y-89431856D01*
X201076690Y-89312809D01*
X201052881Y-89265190D01*
X201029071Y-89241380D01*
X200981452Y-89217571D01*
X200933833Y-89217571D01*
X200886214Y-89241380D01*
X200862405Y-89265190D01*
X200838595Y-89312809D01*
X200814786Y-89408047D01*
X200790976Y-89455666D01*
X200767167Y-89479475D01*
X200719548Y-89503285D01*
X200671929Y-89503285D01*
X200624310Y-89479475D01*
X200600500Y-89455666D01*
X200576690Y-89408047D01*
X200576690Y-89288999D01*
X200600500Y-89217571D01*
X201076690Y-89003285D02*
X200576690Y-89003285D01*
X204724047Y-60964000D02*
X204676428Y-60940190D01*
X204605000Y-60940190D01*
X204533571Y-60964000D01*
X204485952Y-61011619D01*
X204462143Y-61059238D01*
X204438333Y-61154476D01*
X204438333Y-61225905D01*
X204462143Y-61321143D01*
X204485952Y-61368762D01*
X204533571Y-61416381D01*
X204605000Y-61440190D01*
X204652619Y-61440190D01*
X204724047Y-61416381D01*
X204747857Y-61392571D01*
X204747857Y-61225905D01*
X204652619Y-61225905D01*
X204962143Y-61440190D02*
X204962143Y-60940190D01*
X205247857Y-61440190D01*
X205247857Y-60940190D01*
X205485953Y-61440190D02*
X205485953Y-60940190D01*
X205605000Y-60940190D01*
X205676429Y-60964000D01*
X205724048Y-61011619D01*
X205747857Y-61059238D01*
X205771667Y-61154476D01*
X205771667Y-61225905D01*
X205747857Y-61321143D01*
X205724048Y-61368762D01*
X205676429Y-61416381D01*
X205605000Y-61440190D01*
X205485953Y-61440190D01*
X204382762Y-58876381D02*
X204454191Y-58900190D01*
X204573238Y-58900190D01*
X204620857Y-58876381D01*
X204644667Y-58852571D01*
X204668476Y-58804952D01*
X204668476Y-58757333D01*
X204644667Y-58709714D01*
X204620857Y-58685905D01*
X204573238Y-58662095D01*
X204478000Y-58638286D01*
X204430381Y-58614476D01*
X204406572Y-58590667D01*
X204382762Y-58543048D01*
X204382762Y-58495429D01*
X204406572Y-58447810D01*
X204430381Y-58424000D01*
X204478000Y-58400190D01*
X204597048Y-58400190D01*
X204668476Y-58424000D01*
X205168476Y-58852571D02*
X205144666Y-58876381D01*
X205073238Y-58900190D01*
X205025619Y-58900190D01*
X204954190Y-58876381D01*
X204906571Y-58828762D01*
X204882762Y-58781143D01*
X204858952Y-58685905D01*
X204858952Y-58614476D01*
X204882762Y-58519238D01*
X204906571Y-58471619D01*
X204954190Y-58424000D01*
X205025619Y-58400190D01*
X205073238Y-58400190D01*
X205144666Y-58424000D01*
X205168476Y-58447810D01*
X205620857Y-58900190D02*
X205382762Y-58900190D01*
X205382762Y-58400190D01*
X204370858Y-56082381D02*
X204442287Y-56106190D01*
X204561334Y-56106190D01*
X204608953Y-56082381D01*
X204632763Y-56058571D01*
X204656572Y-56010952D01*
X204656572Y-55963333D01*
X204632763Y-55915714D01*
X204608953Y-55891905D01*
X204561334Y-55868095D01*
X204466096Y-55844286D01*
X204418477Y-55820476D01*
X204394668Y-55796667D01*
X204370858Y-55749048D01*
X204370858Y-55701429D01*
X204394668Y-55653810D01*
X204418477Y-55630000D01*
X204466096Y-55606190D01*
X204585144Y-55606190D01*
X204656572Y-55630000D01*
X204870858Y-56106190D02*
X204870858Y-55606190D01*
X204989905Y-55606190D01*
X205061334Y-55630000D01*
X205108953Y-55677619D01*
X205132762Y-55725238D01*
X205156572Y-55820476D01*
X205156572Y-55891905D01*
X205132762Y-55987143D01*
X205108953Y-56034762D01*
X205061334Y-56082381D01*
X204989905Y-56106190D01*
X204870858Y-56106190D01*
X205347048Y-55963333D02*
X205585143Y-55963333D01*
X205299429Y-56106190D02*
X205466096Y-55606190D01*
X205632762Y-56106190D01*
X205287572Y-53066190D02*
X205049477Y-53066190D01*
X205025667Y-53304286D01*
X205049477Y-53280476D01*
X205097096Y-53256667D01*
X205216143Y-53256667D01*
X205263762Y-53280476D01*
X205287572Y-53304286D01*
X205311381Y-53351905D01*
X205311381Y-53470952D01*
X205287572Y-53518571D01*
X205263762Y-53542381D01*
X205216143Y-53566190D01*
X205097096Y-53566190D01*
X205049477Y-53542381D01*
X205025667Y-53518571D01*
X205478048Y-53232857D02*
X205597095Y-53566190D01*
X205716143Y-53232857D01*
D11*
X182118143Y-66107571D02*
X182975286Y-66107571D01*
X182546715Y-67607571D02*
X182546715Y-66107571D01*
X183332429Y-66107571D02*
X184332429Y-67607571D01*
X184332429Y-66107571D02*
X183332429Y-67607571D01*
X182884001Y-64813571D02*
X182384001Y-64099286D01*
X182026858Y-64813571D02*
X182026858Y-63313571D01*
X182598286Y-63313571D01*
X182741144Y-63385000D01*
X182812572Y-63456429D01*
X182884001Y-63599286D01*
X182884001Y-63813571D01*
X182812572Y-63956429D01*
X182741144Y-64027857D01*
X182598286Y-64099286D01*
X182026858Y-64099286D01*
X183384001Y-63313571D02*
X184384001Y-64813571D01*
X184384001Y-63313571D02*
X183384001Y-64813571D01*
D12*
X169545000Y-58356500D02*
X169545000Y-59118500D01*
X169164000Y-58737500D02*
X169926000Y-58737500D01*
X171831000Y-58483500D02*
X171831000Y-62293500D01*
X168021000Y-57721500D02*
X171069000Y-57721500D01*
X171831000Y-58483500D02*
X171069000Y-57721500D01*
X167259000Y-58483500D02*
X167259000Y-62293500D01*
X167259000Y-58483500D02*
X168021000Y-57721500D01*
X169672000Y-62039500D02*
X169418000Y-62039500D01*
X168910000Y-61912500D02*
X170180000Y-61912500D01*
X170434000Y-61785500D02*
X168656000Y-61785500D01*
X170688000Y-61658500D02*
X168402000Y-61658500D01*
X168275000Y-61531500D02*
X170815000Y-61531500D01*
X170942000Y-61404500D02*
X168148000Y-61404500D01*
X168021000Y-61277500D02*
X171069000Y-61277500D01*
X167894000Y-61150500D02*
X171196000Y-61150500D01*
X167259000Y-62293500D02*
X171831000Y-62293500D01*
X171577000Y-60007500D02*
G75*
G03X171577000Y-60007500I-2032000J0D01*
G01*
X178498500Y-68961000D02*
X177736500Y-68961000D01*
X178117500Y-68580000D02*
X178117500Y-69342000D01*
X178371500Y-71247000D02*
X174561500Y-71247000D01*
X179133500Y-67437000D02*
X179133500Y-70485000D01*
X178371500Y-71247000D02*
X179133500Y-70485000D01*
X178371500Y-66675000D02*
X174561500Y-66675000D01*
X178371500Y-66675000D02*
X179133500Y-67437000D01*
X174815500Y-69088000D02*
X174815500Y-68834000D01*
X174942500Y-68326000D02*
X174942500Y-69596000D01*
X175069500Y-69850000D02*
X175069500Y-68072000D01*
X175196500Y-70104000D02*
X175196500Y-67818000D01*
X175323500Y-67691000D02*
X175323500Y-70231000D01*
X175450500Y-70358000D02*
X175450500Y-67564000D01*
X175577500Y-67437000D02*
X175577500Y-70485000D01*
X175704500Y-67310000D02*
X175704500Y-70612000D01*
X174561500Y-66675000D02*
X174561500Y-71247000D01*
X178879500Y-68961000D02*
G75*
G03X178879500Y-68961000I-2032000J0D01*
G01*
X196333000Y-63770000D02*
X196333000Y-65770000D01*
X198383000Y-65770000D02*
X198383000Y-63770000D01*
X201112500Y-55333000D02*
X202112500Y-55333000D01*
X202112500Y-53633000D02*
X201112500Y-53633000D01*
X180721000Y-44577000D02*
X180721000Y-46101000D01*
X180848000Y-46482000D02*
X180848000Y-44196000D01*
X180975000Y-43942000D02*
X180975000Y-46736000D01*
X181102000Y-46990000D02*
X181102000Y-43688000D01*
X181229000Y-43561000D02*
X181229000Y-47117000D01*
X180340000Y-42037000D02*
X180340000Y-48641000D01*
X180340000Y-48641000D02*
X186182000Y-48641000D01*
X186182000Y-48641000D02*
X186944000Y-47879000D01*
X186944000Y-47879000D02*
X186944000Y-42799000D01*
X186944000Y-42799000D02*
X186182000Y-42037000D01*
X186182000Y-42037000D02*
X180340000Y-42037000D01*
X185801000Y-45339000D02*
X185039000Y-45339000D01*
X185420000Y-44958000D02*
X185420000Y-45720000D01*
X186690000Y-45339000D02*
G75*
G03X186690000Y-45339000I-3048000J0D01*
G01*
X156645500Y-56163500D02*
X153045500Y-56163500D01*
X156645500Y-58263500D02*
X153045500Y-58263500D01*
X154595500Y-57513500D02*
X154595500Y-56913500D01*
X154595500Y-56913500D02*
X154895500Y-57213500D01*
X154895500Y-57213500D02*
X154695500Y-57413500D01*
X154695500Y-57413500D02*
X154695500Y-57163500D01*
X154695500Y-57163500D02*
X154745500Y-57213500D01*
X154995500Y-57713500D02*
X154995500Y-56713500D01*
X154495500Y-57213500D02*
X153995500Y-57213500D01*
X154995500Y-57213500D02*
X154495500Y-57713500D01*
X154495500Y-57713500D02*
X154495500Y-56713500D01*
X154495500Y-56713500D02*
X154995500Y-57213500D01*
X154368500Y-59380120D02*
X154368500Y-68381880D01*
X150868380Y-59380120D02*
X150868380Y-68381880D01*
X150868380Y-68381880D02*
X165369240Y-68381880D01*
X165369240Y-68381880D02*
X165369240Y-59380120D01*
X165369240Y-59380120D02*
X150868380Y-59380120D01*
X206375000Y-81534000D02*
X203835000Y-81534000D01*
X209195000Y-81814000D02*
X207645000Y-81814000D01*
X206375000Y-81534000D02*
X206375000Y-78994000D01*
X207645000Y-78714000D02*
X209195000Y-78714000D01*
X209195000Y-78714000D02*
X209195000Y-81814000D01*
X206375000Y-78994000D02*
X203835000Y-78994000D01*
X203835000Y-78994000D02*
X203835000Y-81534000D01*
X153987500Y-72016620D02*
X153987500Y-81018380D01*
X150487380Y-72016620D02*
X150487380Y-81018380D01*
X150487380Y-81018380D02*
X164988240Y-81018380D01*
X164988240Y-81018380D02*
X164988240Y-72016620D01*
X164988240Y-72016620D02*
X150487380Y-72016620D01*
X187579000Y-65659000D02*
X187579000Y-68199000D01*
X187859000Y-62839000D02*
X187859000Y-64389000D01*
X187579000Y-65659000D02*
X185039000Y-65659000D01*
X184759000Y-64389000D02*
X184759000Y-62839000D01*
X184759000Y-62839000D02*
X187859000Y-62839000D01*
X185039000Y-65659000D02*
X185039000Y-68199000D01*
X185039000Y-68199000D02*
X187579000Y-68199000D01*
X173101000Y-95784000D02*
X171551000Y-95784000D01*
X171551000Y-95784000D02*
X171551000Y-92684000D01*
X171551000Y-92684000D02*
X173101000Y-92684000D01*
X174371000Y-92964000D02*
X184531000Y-92964000D01*
X184531000Y-92964000D02*
X184531000Y-95504000D01*
X184531000Y-95504000D02*
X174371000Y-95504000D01*
X174371000Y-92964000D02*
X174371000Y-95504000D01*
X194691000Y-92964000D02*
X187071000Y-92964000D01*
X194691000Y-95504000D02*
X187071000Y-95504000D01*
X197511000Y-95784000D02*
X195961000Y-95784000D01*
X187071000Y-92964000D02*
X187071000Y-95504000D01*
X194691000Y-95504000D02*
X194691000Y-92964000D01*
X195961000Y-92684000D02*
X197511000Y-92684000D01*
X197511000Y-92684000D02*
X197511000Y-95784000D01*
X202057000Y-83629500D02*
X196977000Y-83629500D01*
X204877000Y-83349500D02*
X204877000Y-84899500D01*
X204597000Y-86169500D02*
X202057000Y-86169500D01*
X202057000Y-86169500D02*
X202057000Y-83629500D01*
X196977000Y-83629500D02*
X196977000Y-88709500D01*
X196977000Y-88709500D02*
X202057000Y-88709500D01*
X204877000Y-83349500D02*
X203327000Y-83349500D01*
X204597000Y-88709500D02*
X204597000Y-86169500D01*
X202057000Y-88709500D02*
X204597000Y-88709500D01*
X186714500Y-50333500D02*
X186714500Y-50658500D01*
X191364500Y-50333500D02*
X191364500Y-50658500D01*
X191364500Y-60283500D02*
X191364500Y-59958500D01*
X186714500Y-60283500D02*
X186714500Y-59958500D01*
X186714500Y-50333500D02*
X191364500Y-50333500D01*
X186714500Y-60283500D02*
X191364500Y-60283500D01*
X186714500Y-50658500D02*
X185639500Y-50658500D01*
X159754500Y-53355500D02*
X159754500Y-53155500D01*
X159754500Y-47355500D02*
X159754500Y-47555500D01*
X166254500Y-47355500D02*
X166254500Y-47555500D01*
X166254500Y-53355500D02*
X166254500Y-53155500D01*
X166254500Y-51555500D02*
X166254500Y-49155500D01*
X159754500Y-51555500D02*
X159754500Y-49155500D01*
X159754500Y-53355500D02*
X166254500Y-53355500D01*
X166254500Y-47355500D02*
X159754500Y-47355500D01*
X164004500Y-50355500D02*
G75*
G03X164004500Y-50355500I-1000000J0D01*
G01*
X164504500Y-50355500D02*
G75*
G03X164504500Y-50355500I-1500000J0D01*
G01*
X177431359Y-78287880D02*
G75*
G03X177431359Y-78287880I-141899J0D01*
G01*
X178188620Y-77086460D02*
X178188620Y-78488540D01*
X174490380Y-78488540D02*
X174490380Y-77086460D01*
X206375000Y-54737000D02*
X206375000Y-62357000D01*
X208915000Y-54737000D02*
X208915000Y-62357000D01*
X209195000Y-51917000D02*
X209195000Y-53467000D01*
X206375000Y-62357000D02*
X208915000Y-62357000D01*
X208915000Y-54737000D02*
X206375000Y-54737000D01*
X206095000Y-53467000D02*
X206095000Y-51917000D01*
X206095000Y-51917000D02*
X209195000Y-51917000D01*
X173672500Y-35687000D02*
X173672500Y-40767000D01*
X173672500Y-40767000D02*
X176212500Y-40767000D01*
X176212500Y-40767000D02*
X176212500Y-35687000D01*
X176492500Y-32867000D02*
X176492500Y-34417000D01*
X176212500Y-35687000D02*
X173672500Y-35687000D01*
X173392500Y-34417000D02*
X173392500Y-32867000D01*
X173392500Y-32867000D02*
X176492500Y-32867000D01*
X177165000Y-35687000D02*
X177165000Y-40767000D01*
X177165000Y-40767000D02*
X179705000Y-40767000D01*
X179705000Y-40767000D02*
X179705000Y-35687000D01*
X179985000Y-32867000D02*
X179985000Y-34417000D01*
X179705000Y-35687000D02*
X177165000Y-35687000D01*
X176885000Y-34417000D02*
X176885000Y-32867000D01*
X176885000Y-32867000D02*
X179985000Y-32867000D01*
X170180000Y-35687000D02*
X170180000Y-40767000D01*
X170180000Y-40767000D02*
X172720000Y-40767000D01*
X172720000Y-40767000D02*
X172720000Y-35687000D01*
X173000000Y-32867000D02*
X173000000Y-34417000D01*
X172720000Y-35687000D02*
X170180000Y-35687000D01*
X169900000Y-34417000D02*
X169900000Y-32867000D01*
X169900000Y-32867000D02*
X173000000Y-32867000D01*
X166687500Y-35687000D02*
X166687500Y-40767000D01*
X166687500Y-40767000D02*
X169227500Y-40767000D01*
X169227500Y-40767000D02*
X169227500Y-35687000D01*
X169507500Y-32867000D02*
X169507500Y-34417000D01*
X169227500Y-35687000D02*
X166687500Y-35687000D01*
X166407500Y-34417000D02*
X166407500Y-32867000D01*
X166407500Y-32867000D02*
X169507500Y-32867000D01*
X163195000Y-35687000D02*
X163195000Y-40767000D01*
X163195000Y-40767000D02*
X165735000Y-40767000D01*
X165735000Y-40767000D02*
X165735000Y-35687000D01*
X166015000Y-32867000D02*
X166015000Y-34417000D01*
X165735000Y-35687000D02*
X163195000Y-35687000D01*
X162915000Y-34417000D02*
X162915000Y-32867000D01*
X162915000Y-32867000D02*
X166015000Y-32867000D01*
X159702500Y-35687000D02*
X159702500Y-40767000D01*
X159702500Y-40767000D02*
X162242500Y-40767000D01*
X162242500Y-40767000D02*
X162242500Y-35687000D01*
X162522500Y-32867000D02*
X162522500Y-34417000D01*
X162242500Y-35687000D02*
X159702500Y-35687000D01*
X159422500Y-34417000D02*
X159422500Y-32867000D01*
X159422500Y-32867000D02*
X162522500Y-32867000D01*
X156210000Y-35687000D02*
X156210000Y-40767000D01*
X156210000Y-40767000D02*
X158750000Y-40767000D01*
X158750000Y-40767000D02*
X158750000Y-35687000D01*
X159030000Y-32867000D02*
X159030000Y-34417000D01*
X158750000Y-35687000D02*
X156210000Y-35687000D01*
X155930000Y-34417000D02*
X155930000Y-32867000D01*
X155930000Y-32867000D02*
X159030000Y-32867000D01*
X152717500Y-35687000D02*
X152717500Y-40767000D01*
X152717500Y-40767000D02*
X155257500Y-40767000D01*
X155257500Y-40767000D02*
X155257500Y-35687000D01*
X155537500Y-32867000D02*
X155537500Y-34417000D01*
X155257500Y-35687000D02*
X152717500Y-35687000D01*
X152437500Y-34417000D02*
X152437500Y-32867000D01*
X152437500Y-32867000D02*
X155537500Y-32867000D01*
X206438500Y-35687000D02*
X206438500Y-40767000D01*
X206438500Y-40767000D02*
X208978500Y-40767000D01*
X208978500Y-40767000D02*
X208978500Y-35687000D01*
X209258500Y-32867000D02*
X209258500Y-34417000D01*
X208978500Y-35687000D02*
X206438500Y-35687000D01*
X206158500Y-34417000D02*
X206158500Y-32867000D01*
X206158500Y-32867000D02*
X209258500Y-32867000D01*
X202946000Y-35687000D02*
X202946000Y-40767000D01*
X202946000Y-40767000D02*
X205486000Y-40767000D01*
X205486000Y-40767000D02*
X205486000Y-35687000D01*
X205766000Y-32867000D02*
X205766000Y-34417000D01*
X205486000Y-35687000D02*
X202946000Y-35687000D01*
X202666000Y-34417000D02*
X202666000Y-32867000D01*
X202666000Y-32867000D02*
X205766000Y-32867000D01*
X199453500Y-35687000D02*
X199453500Y-40767000D01*
X199453500Y-40767000D02*
X201993500Y-40767000D01*
X201993500Y-40767000D02*
X201993500Y-35687000D01*
X202273500Y-32867000D02*
X202273500Y-34417000D01*
X201993500Y-35687000D02*
X199453500Y-35687000D01*
X199173500Y-34417000D02*
X199173500Y-32867000D01*
X199173500Y-32867000D02*
X202273500Y-32867000D01*
X195961000Y-35687000D02*
X195961000Y-40767000D01*
X195961000Y-40767000D02*
X198501000Y-40767000D01*
X198501000Y-40767000D02*
X198501000Y-35687000D01*
X198781000Y-32867000D02*
X198781000Y-34417000D01*
X198501000Y-35687000D02*
X195961000Y-35687000D01*
X195681000Y-34417000D02*
X195681000Y-32867000D01*
X195681000Y-32867000D02*
X198781000Y-32867000D01*
X192468500Y-35687000D02*
X192468500Y-40767000D01*
X192468500Y-40767000D02*
X195008500Y-40767000D01*
X195008500Y-40767000D02*
X195008500Y-35687000D01*
X195288500Y-32867000D02*
X195288500Y-34417000D01*
X195008500Y-35687000D02*
X192468500Y-35687000D01*
X192188500Y-34417000D02*
X192188500Y-32867000D01*
X192188500Y-32867000D02*
X195288500Y-32867000D01*
X188976000Y-35687000D02*
X188976000Y-40767000D01*
X188976000Y-40767000D02*
X191516000Y-40767000D01*
X191516000Y-40767000D02*
X191516000Y-35687000D01*
X191796000Y-32867000D02*
X191796000Y-34417000D01*
X191516000Y-35687000D02*
X188976000Y-35687000D01*
X188696000Y-34417000D02*
X188696000Y-32867000D01*
X188696000Y-32867000D02*
X191796000Y-32867000D01*
X185483500Y-35687000D02*
X185483500Y-40767000D01*
X185483500Y-40767000D02*
X188023500Y-40767000D01*
X188023500Y-40767000D02*
X188023500Y-35687000D01*
X188303500Y-32867000D02*
X188303500Y-34417000D01*
X188023500Y-35687000D02*
X185483500Y-35687000D01*
X185203500Y-34417000D02*
X185203500Y-32867000D01*
X185203500Y-32867000D02*
X188303500Y-32867000D01*
X181991000Y-35687000D02*
X181991000Y-40767000D01*
X181991000Y-40767000D02*
X184531000Y-40767000D01*
X184531000Y-40767000D02*
X184531000Y-35687000D01*
X184811000Y-32867000D02*
X184811000Y-34417000D01*
X184531000Y-35687000D02*
X181991000Y-35687000D01*
X181711000Y-34417000D02*
X181711000Y-32867000D01*
X181711000Y-32867000D02*
X184811000Y-32867000D01*
X169305000Y-51146000D02*
X169305000Y-49946000D01*
X171055000Y-49946000D02*
X171055000Y-51146000D01*
X176712500Y-72302000D02*
X175712500Y-72302000D01*
X175712500Y-74002000D02*
X176712500Y-74002000D01*
X176157000Y-83209500D02*
X177157000Y-83209500D01*
X177157000Y-81509500D02*
X176157000Y-81509500D01*
X198953500Y-79780500D02*
X199953500Y-79780500D01*
X199953500Y-78080500D02*
X198953500Y-78080500D01*
X162207500Y-58088500D02*
X161007500Y-58088500D01*
X161007500Y-56338500D02*
X162207500Y-56338500D01*
X202149000Y-57644000D02*
X200949000Y-57644000D01*
X200949000Y-55894000D02*
X202149000Y-55894000D01*
X202149000Y-60057000D02*
X200949000Y-60057000D01*
X200949000Y-58307000D02*
X202149000Y-58307000D01*
X190211000Y-49262000D02*
X189011000Y-49262000D01*
X189011000Y-47512000D02*
X190211000Y-47512000D01*
X201012500Y-48528000D02*
X202212500Y-48528000D01*
X202212500Y-50278000D02*
X201012500Y-50278000D01*
X201012500Y-51068000D02*
X202212500Y-51068000D01*
X202212500Y-52818000D02*
X201012500Y-52818000D01*
X201076000Y-46115000D02*
X202276000Y-46115000D01*
X202276000Y-47865000D02*
X201076000Y-47865000D01*
X171831000Y-87884000D02*
X184531000Y-87884000D01*
X184531000Y-87884000D02*
X184531000Y-92964000D01*
X184531000Y-92964000D02*
X174371000Y-92964000D01*
X171831000Y-87884000D02*
X171831000Y-90424000D01*
X171551000Y-91694000D02*
X171551000Y-93244000D01*
X171831000Y-90424000D02*
X174371000Y-90424000D01*
X174371000Y-90424000D02*
X174371000Y-92964000D01*
X171551000Y-93244000D02*
X173101000Y-93244000D01*
X203898500Y-68643500D02*
X203898500Y-76263500D01*
X203898500Y-76263500D02*
X208978500Y-76263500D01*
X208978500Y-76263500D02*
X208978500Y-66103500D01*
X208978500Y-66103500D02*
X206438500Y-66103500D01*
X205168500Y-65823500D02*
X203618500Y-65823500D01*
X206438500Y-66103500D02*
X206438500Y-68643500D01*
X206438500Y-68643500D02*
X203898500Y-68643500D01*
X203618500Y-65823500D02*
X203618500Y-67373500D01*
X173355000Y-62039500D02*
X173355000Y-65087500D01*
X173355000Y-65087500D02*
X180467000Y-65087500D01*
X180467000Y-65087500D02*
X180467000Y-62039500D01*
X173355000Y-58991500D02*
X173355000Y-58229500D01*
X173355000Y-58229500D02*
X174879000Y-55943500D01*
X174879000Y-55943500D02*
X178943000Y-55943500D01*
X178943000Y-55943500D02*
X180467000Y-58229500D01*
X180467000Y-58229500D02*
X180467000Y-58991500D01*
X182938000Y-73972000D02*
X182938000Y-74297000D01*
X190188000Y-73972000D02*
X190188000Y-74297000D01*
X190188000Y-81222000D02*
X190188000Y-80897000D01*
X182938000Y-81222000D02*
X182938000Y-80897000D01*
X182938000Y-73972000D02*
X183263000Y-73972000D01*
X182938000Y-81222000D02*
X183263000Y-81222000D01*
X190188000Y-81222000D02*
X189863000Y-81222000D01*
X190188000Y-73972000D02*
X189863000Y-73972000D01*
X182938000Y-74297000D02*
X181513000Y-74297000D01*
X166727143Y-60174166D02*
X166774762Y-60221785D01*
X166822381Y-60364642D01*
X166822381Y-60459880D01*
X166774762Y-60602738D01*
X166679524Y-60697976D01*
X166584286Y-60745595D01*
X166393810Y-60793214D01*
X166250952Y-60793214D01*
X166060476Y-60745595D01*
X165965238Y-60697976D01*
X165870000Y-60602738D01*
X165822381Y-60459880D01*
X165822381Y-60364642D01*
X165870000Y-60221785D01*
X165917619Y-60174166D01*
X166822381Y-59221785D02*
X166822381Y-59793214D01*
X166822381Y-59507500D02*
X165822381Y-59507500D01*
X165965238Y-59602738D01*
X166060476Y-59697976D01*
X166108095Y-59793214D01*
X173251834Y-71350143D02*
X173204215Y-71397762D01*
X173061358Y-71445381D01*
X172966120Y-71445381D01*
X172823262Y-71397762D01*
X172728024Y-71302524D01*
X172680405Y-71207286D01*
X172632786Y-71016810D01*
X172632786Y-70873952D01*
X172680405Y-70683476D01*
X172728024Y-70588238D01*
X172823262Y-70493000D01*
X172966120Y-70445381D01*
X173061358Y-70445381D01*
X173204215Y-70493000D01*
X173251834Y-70540619D01*
X173632786Y-70540619D02*
X173680405Y-70493000D01*
X173775643Y-70445381D01*
X174013739Y-70445381D01*
X174108977Y-70493000D01*
X174156596Y-70540619D01*
X174204215Y-70635857D01*
X174204215Y-70731095D01*
X174156596Y-70873952D01*
X173585167Y-71445381D01*
X174204215Y-71445381D01*
X195415143Y-64936666D02*
X195462762Y-64984285D01*
X195510381Y-65127142D01*
X195510381Y-65222380D01*
X195462762Y-65365238D01*
X195367524Y-65460476D01*
X195272286Y-65508095D01*
X195081810Y-65555714D01*
X194938952Y-65555714D01*
X194748476Y-65508095D01*
X194653238Y-65460476D01*
X194558000Y-65365238D01*
X194510381Y-65222380D01*
X194510381Y-65127142D01*
X194558000Y-64984285D01*
X194605619Y-64936666D01*
X194510381Y-64603333D02*
X194510381Y-63984285D01*
X194891333Y-64317619D01*
X194891333Y-64174761D01*
X194938952Y-64079523D01*
X194986571Y-64031904D01*
X195081810Y-63984285D01*
X195319905Y-63984285D01*
X195415143Y-64031904D01*
X195462762Y-64079523D01*
X195510381Y-64174761D01*
X195510381Y-64460476D01*
X195462762Y-64555714D01*
X195415143Y-64603333D01*
X197699334Y-55094143D02*
X197651715Y-55141762D01*
X197508858Y-55189381D01*
X197413620Y-55189381D01*
X197270762Y-55141762D01*
X197175524Y-55046524D01*
X197127905Y-54951286D01*
X197080286Y-54760810D01*
X197080286Y-54617952D01*
X197127905Y-54427476D01*
X197175524Y-54332238D01*
X197270762Y-54237000D01*
X197413620Y-54189381D01*
X197508858Y-54189381D01*
X197651715Y-54237000D01*
X197699334Y-54284619D01*
X198032667Y-54189381D02*
X198699334Y-54189381D01*
X198270762Y-55189381D01*
X183030834Y-50204643D02*
X182983215Y-50252262D01*
X182840358Y-50299881D01*
X182745120Y-50299881D01*
X182602262Y-50252262D01*
X182507024Y-50157024D01*
X182459405Y-50061786D01*
X182411786Y-49871310D01*
X182411786Y-49728452D01*
X182459405Y-49537976D01*
X182507024Y-49442738D01*
X182602262Y-49347500D01*
X182745120Y-49299881D01*
X182840358Y-49299881D01*
X182983215Y-49347500D01*
X183030834Y-49395119D01*
X183602262Y-49728452D02*
X183507024Y-49680833D01*
X183459405Y-49633214D01*
X183411786Y-49537976D01*
X183411786Y-49490357D01*
X183459405Y-49395119D01*
X183507024Y-49347500D01*
X183602262Y-49299881D01*
X183792739Y-49299881D01*
X183887977Y-49347500D01*
X183935596Y-49395119D01*
X183983215Y-49490357D01*
X183983215Y-49537976D01*
X183935596Y-49633214D01*
X183887977Y-49680833D01*
X183792739Y-49728452D01*
X183602262Y-49728452D01*
X183507024Y-49776071D01*
X183459405Y-49823690D01*
X183411786Y-49918929D01*
X183411786Y-50109405D01*
X183459405Y-50204643D01*
X183507024Y-50252262D01*
X183602262Y-50299881D01*
X183792739Y-50299881D01*
X183887977Y-50252262D01*
X183935596Y-50204643D01*
X183983215Y-50109405D01*
X183983215Y-49918929D01*
X183935596Y-49823690D01*
X183887977Y-49776071D01*
X183792739Y-49728452D01*
X153884405Y-55570381D02*
X153884405Y-54570381D01*
X154122500Y-54570381D01*
X154265358Y-54618000D01*
X154360596Y-54713238D01*
X154408215Y-54808476D01*
X154455834Y-54998952D01*
X154455834Y-55141810D01*
X154408215Y-55332286D01*
X154360596Y-55427524D01*
X154265358Y-55522762D01*
X154122500Y-55570381D01*
X153884405Y-55570381D01*
X155408215Y-55570381D02*
X154836786Y-55570381D01*
X155122500Y-55570381D02*
X155122500Y-54570381D01*
X155027262Y-54713238D01*
X154932024Y-54808476D01*
X154836786Y-54856095D01*
X196121281Y-65879006D02*
X196121281Y-66355197D01*
X195121281Y-66355197D01*
X196121281Y-65021863D02*
X196121281Y-65593292D01*
X196121281Y-65307578D02*
X195121281Y-65307578D01*
X195264138Y-65402816D01*
X195359376Y-65498054D01*
X195406995Y-65593292D01*
X165250905Y-58872381D02*
X165250905Y-57872381D01*
X165631858Y-57872381D01*
X165727096Y-57920000D01*
X165774715Y-57967619D01*
X165822334Y-58062857D01*
X165822334Y-58205714D01*
X165774715Y-58300952D01*
X165727096Y-58348571D01*
X165631858Y-58396190D01*
X165250905Y-58396190D01*
X166774715Y-58872381D02*
X166203286Y-58872381D01*
X166489000Y-58872381D02*
X166489000Y-57872381D01*
X166393762Y-58015238D01*
X166298524Y-58110476D01*
X166203286Y-58158095D01*
X205811381Y-78652595D02*
X204811381Y-78652595D01*
X204811381Y-78271642D01*
X204859000Y-78176404D01*
X204906619Y-78128785D01*
X205001857Y-78081166D01*
X205144714Y-78081166D01*
X205239952Y-78128785D01*
X205287571Y-78176404D01*
X205335190Y-78271642D01*
X205335190Y-78652595D01*
X204811381Y-77747833D02*
X204811381Y-77128785D01*
X205192333Y-77462119D01*
X205192333Y-77319261D01*
X205239952Y-77224023D01*
X205287571Y-77176404D01*
X205382810Y-77128785D01*
X205620905Y-77128785D01*
X205716143Y-77176404D01*
X205763762Y-77224023D01*
X205811381Y-77319261D01*
X205811381Y-77604976D01*
X205763762Y-77700214D01*
X205716143Y-77747833D01*
X165504905Y-71699381D02*
X165504905Y-70699381D01*
X165885858Y-70699381D01*
X165981096Y-70747000D01*
X166028715Y-70794619D01*
X166076334Y-70889857D01*
X166076334Y-71032714D01*
X166028715Y-71127952D01*
X165981096Y-71175571D01*
X165885858Y-71223190D01*
X165504905Y-71223190D01*
X166933477Y-71032714D02*
X166933477Y-71699381D01*
X166695381Y-70651762D02*
X166457286Y-71366048D01*
X167076334Y-71366048D01*
X185570905Y-59741381D02*
X185570905Y-58741381D01*
X185951858Y-58741381D01*
X186047096Y-58789000D01*
X186094715Y-58836619D01*
X186142334Y-58931857D01*
X186142334Y-59074714D01*
X186094715Y-59169952D01*
X186047096Y-59217571D01*
X185951858Y-59265190D01*
X185570905Y-59265190D01*
X186475667Y-58741381D02*
X187142334Y-58741381D01*
X186713762Y-59741381D01*
X171038781Y-94921295D02*
X170038781Y-94921295D01*
X170038781Y-94540342D01*
X170086400Y-94445104D01*
X170134019Y-94397485D01*
X170229257Y-94349866D01*
X170372114Y-94349866D01*
X170467352Y-94397485D01*
X170514971Y-94445104D01*
X170562590Y-94540342D01*
X170562590Y-94921295D01*
X170467352Y-93778438D02*
X170419733Y-93873676D01*
X170372114Y-93921295D01*
X170276876Y-93968914D01*
X170229257Y-93968914D01*
X170134019Y-93921295D01*
X170086400Y-93873676D01*
X170038781Y-93778438D01*
X170038781Y-93587961D01*
X170086400Y-93492723D01*
X170134019Y-93445104D01*
X170229257Y-93397485D01*
X170276876Y-93397485D01*
X170372114Y-93445104D01*
X170419733Y-93492723D01*
X170467352Y-93587961D01*
X170467352Y-93778438D01*
X170514971Y-93873676D01*
X170562590Y-93921295D01*
X170657829Y-93968914D01*
X170848305Y-93968914D01*
X170943543Y-93921295D01*
X170991162Y-93873676D01*
X171038781Y-93778438D01*
X171038781Y-93587961D01*
X170991162Y-93492723D01*
X170943543Y-93445104D01*
X170848305Y-93397485D01*
X170657829Y-93397485D01*
X170562590Y-93445104D01*
X170514971Y-93492723D01*
X170467352Y-93587961D01*
X199207381Y-95003809D02*
X198207381Y-95003809D01*
X198207381Y-94765714D01*
X198255000Y-94622856D01*
X198350238Y-94527618D01*
X198445476Y-94479999D01*
X198635952Y-94432380D01*
X198778810Y-94432380D01*
X198969286Y-94479999D01*
X199064524Y-94527618D01*
X199159762Y-94622856D01*
X199207381Y-94765714D01*
X199207381Y-95003809D01*
X199207381Y-94003809D02*
X198207381Y-94003809D01*
X198207381Y-93337143D02*
X198207381Y-93146666D01*
X198255000Y-93051428D01*
X198350238Y-92956190D01*
X198540714Y-92908571D01*
X198874048Y-92908571D01*
X199064524Y-92956190D01*
X199159762Y-93051428D01*
X199207381Y-93146666D01*
X199207381Y-93337143D01*
X199159762Y-93432381D01*
X199064524Y-93527619D01*
X198874048Y-93575238D01*
X198540714Y-93575238D01*
X198350238Y-93527619D01*
X198255000Y-93432381D01*
X198207381Y-93337143D01*
X206319381Y-87590190D02*
X205319381Y-87590190D01*
X206271762Y-87161619D02*
X206319381Y-87018762D01*
X206319381Y-86780666D01*
X206271762Y-86685428D01*
X206224143Y-86637809D01*
X206128905Y-86590190D01*
X206033667Y-86590190D01*
X205938429Y-86637809D01*
X205890810Y-86685428D01*
X205843190Y-86780666D01*
X205795571Y-86971143D01*
X205747952Y-87066381D01*
X205700333Y-87114000D01*
X205605095Y-87161619D01*
X205509857Y-87161619D01*
X205414619Y-87114000D01*
X205367000Y-87066381D01*
X205319381Y-86971143D01*
X205319381Y-86733047D01*
X205367000Y-86590190D01*
X206319381Y-86161619D02*
X205319381Y-86161619D01*
X205319381Y-85780666D01*
X205367000Y-85685428D01*
X205414619Y-85637809D01*
X205509857Y-85590190D01*
X205652714Y-85590190D01*
X205747952Y-85637809D01*
X205795571Y-85685428D01*
X205843190Y-85780666D01*
X205843190Y-86161619D01*
X187222048Y-55570381D02*
X187222048Y-54570381D01*
X187603001Y-54570381D01*
X187698239Y-54618000D01*
X187745858Y-54665619D01*
X187793477Y-54760857D01*
X187793477Y-54903714D01*
X187745858Y-54998952D01*
X187698239Y-55046571D01*
X187603001Y-55094190D01*
X187222048Y-55094190D01*
X188126810Y-54570381D02*
X188364905Y-55570381D01*
X188555382Y-54856095D01*
X188745858Y-55570381D01*
X188983953Y-54570381D01*
X189364905Y-55570381D02*
X189364905Y-54570381D01*
X189698239Y-55284667D01*
X190031572Y-54570381D01*
X190031572Y-55570381D01*
X191031572Y-55570381D02*
X190460143Y-55570381D01*
X190745857Y-55570381D02*
X190745857Y-54570381D01*
X190650619Y-54713238D01*
X190555381Y-54808476D01*
X190460143Y-54856095D01*
X162671167Y-54760262D02*
X162814024Y-54807881D01*
X163052120Y-54807881D01*
X163147358Y-54760262D01*
X163194977Y-54712643D01*
X163242596Y-54617405D01*
X163242596Y-54522167D01*
X163194977Y-54426929D01*
X163147358Y-54379310D01*
X163052120Y-54331690D01*
X162861643Y-54284071D01*
X162766405Y-54236452D01*
X162718786Y-54188833D01*
X162671167Y-54093595D01*
X162671167Y-53998357D01*
X162718786Y-53903119D01*
X162766405Y-53855500D01*
X162861643Y-53807881D01*
X163099739Y-53807881D01*
X163242596Y-53855500D01*
X163575929Y-53807881D02*
X163814024Y-54807881D01*
X164004501Y-54093595D01*
X164194977Y-54807881D01*
X164433072Y-53807881D01*
X165337834Y-54807881D02*
X164766405Y-54807881D01*
X165052119Y-54807881D02*
X165052119Y-53807881D01*
X164956881Y-53950738D01*
X164861643Y-54045976D01*
X164766405Y-54093595D01*
X172870881Y-78533524D02*
X173870881Y-77866857D01*
X172870881Y-77866857D02*
X173870881Y-78533524D01*
X173870881Y-76962095D02*
X173870881Y-77533524D01*
X173870881Y-77247810D02*
X172870881Y-77247810D01*
X173013738Y-77343048D01*
X173108976Y-77438286D01*
X173156595Y-77533524D01*
X207049810Y-51252381D02*
X207049810Y-50252381D01*
X207478381Y-50347619D02*
X207526000Y-50300000D01*
X207621238Y-50252381D01*
X207859334Y-50252381D01*
X207954572Y-50300000D01*
X208002191Y-50347619D01*
X208049810Y-50442857D01*
X208049810Y-50538095D01*
X208002191Y-50680952D01*
X207430762Y-51252381D01*
X208049810Y-51252381D01*
X209049810Y-51157143D02*
X209002191Y-51204762D01*
X208859334Y-51252381D01*
X208764096Y-51252381D01*
X208621238Y-51204762D01*
X208526000Y-51109524D01*
X208478381Y-51014286D01*
X208430762Y-50823810D01*
X208430762Y-50680952D01*
X208478381Y-50490476D01*
X208526000Y-50395238D01*
X208621238Y-50300000D01*
X208764096Y-50252381D01*
X208859334Y-50252381D01*
X209002191Y-50300000D01*
X209049810Y-50347619D01*
X175394881Y-45314952D02*
X174394881Y-45314952D01*
X174394881Y-44933999D01*
X174442500Y-44838761D01*
X174490119Y-44791142D01*
X174585357Y-44743523D01*
X174728214Y-44743523D01*
X174823452Y-44791142D01*
X174871071Y-44838761D01*
X174918690Y-44933999D01*
X174918690Y-45314952D01*
X174394881Y-44410190D02*
X175394881Y-44172095D01*
X174680595Y-43981618D01*
X175394881Y-43791142D01*
X174394881Y-43553047D01*
X175394881Y-43172095D02*
X174394881Y-43172095D01*
X175109167Y-42838761D01*
X174394881Y-42505428D01*
X175394881Y-42505428D01*
X175394881Y-41505428D02*
X175394881Y-42076857D01*
X175394881Y-41791143D02*
X174394881Y-41791143D01*
X174537738Y-41886381D01*
X174632976Y-41981619D01*
X174680595Y-42076857D01*
X178315881Y-45378452D02*
X177315881Y-45378452D01*
X177315881Y-44997499D01*
X177363500Y-44902261D01*
X177411119Y-44854642D01*
X177506357Y-44807023D01*
X177649214Y-44807023D01*
X177744452Y-44854642D01*
X177792071Y-44902261D01*
X177839690Y-44997499D01*
X177839690Y-45378452D01*
X177315881Y-44473690D02*
X178315881Y-44235595D01*
X177601595Y-44045118D01*
X178315881Y-43854642D01*
X177315881Y-43616547D01*
X178315881Y-43235595D02*
X177315881Y-43235595D01*
X178030167Y-42902261D01*
X177315881Y-42568928D01*
X178315881Y-42568928D01*
X177315881Y-41902262D02*
X177315881Y-41807023D01*
X177363500Y-41711785D01*
X177411119Y-41664166D01*
X177506357Y-41616547D01*
X177696833Y-41568928D01*
X177934929Y-41568928D01*
X178125405Y-41616547D01*
X178220643Y-41664166D01*
X178268262Y-41711785D01*
X178315881Y-41807023D01*
X178315881Y-41902262D01*
X178268262Y-41997500D01*
X178220643Y-42045119D01*
X178125405Y-42092738D01*
X177934929Y-42140357D01*
X177696833Y-42140357D01*
X177506357Y-42092738D01*
X177411119Y-42045119D01*
X177363500Y-41997500D01*
X177315881Y-41902262D01*
X171902381Y-45314952D02*
X170902381Y-45314952D01*
X170902381Y-44933999D01*
X170950000Y-44838761D01*
X170997619Y-44791142D01*
X171092857Y-44743523D01*
X171235714Y-44743523D01*
X171330952Y-44791142D01*
X171378571Y-44838761D01*
X171426190Y-44933999D01*
X171426190Y-45314952D01*
X170902381Y-44410190D02*
X171902381Y-44172095D01*
X171188095Y-43981618D01*
X171902381Y-43791142D01*
X170902381Y-43553047D01*
X171902381Y-43172095D02*
X170902381Y-43172095D01*
X171616667Y-42838761D01*
X170902381Y-42505428D01*
X171902381Y-42505428D01*
X170997619Y-42076857D02*
X170950000Y-42029238D01*
X170902381Y-41934000D01*
X170902381Y-41695904D01*
X170950000Y-41600666D01*
X170997619Y-41553047D01*
X171092857Y-41505428D01*
X171188095Y-41505428D01*
X171330952Y-41553047D01*
X171902381Y-42124476D01*
X171902381Y-41505428D01*
X168409881Y-45187952D02*
X167409881Y-45187952D01*
X167409881Y-44806999D01*
X167457500Y-44711761D01*
X167505119Y-44664142D01*
X167600357Y-44616523D01*
X167743214Y-44616523D01*
X167838452Y-44664142D01*
X167886071Y-44711761D01*
X167933690Y-44806999D01*
X167933690Y-45187952D01*
X167409881Y-44283190D02*
X168409881Y-44045095D01*
X167695595Y-43854618D01*
X168409881Y-43664142D01*
X167409881Y-43426047D01*
X168409881Y-43045095D02*
X167409881Y-43045095D01*
X168124167Y-42711761D01*
X167409881Y-42378428D01*
X168409881Y-42378428D01*
X167409881Y-41997476D02*
X167409881Y-41378428D01*
X167790833Y-41711762D01*
X167790833Y-41568904D01*
X167838452Y-41473666D01*
X167886071Y-41426047D01*
X167981310Y-41378428D01*
X168219405Y-41378428D01*
X168314643Y-41426047D01*
X168362262Y-41473666D01*
X168409881Y-41568904D01*
X168409881Y-41854619D01*
X168362262Y-41949857D01*
X168314643Y-41997476D01*
X164853881Y-45314952D02*
X163853881Y-45314952D01*
X163853881Y-44933999D01*
X163901500Y-44838761D01*
X163949119Y-44791142D01*
X164044357Y-44743523D01*
X164187214Y-44743523D01*
X164282452Y-44791142D01*
X164330071Y-44838761D01*
X164377690Y-44933999D01*
X164377690Y-45314952D01*
X163853881Y-44410190D02*
X164853881Y-44172095D01*
X164139595Y-43981618D01*
X164853881Y-43791142D01*
X163853881Y-43553047D01*
X164853881Y-43172095D02*
X163853881Y-43172095D01*
X164568167Y-42838761D01*
X163853881Y-42505428D01*
X164853881Y-42505428D01*
X164187214Y-41600666D02*
X164853881Y-41600666D01*
X163806262Y-41838762D02*
X164520548Y-42076857D01*
X164520548Y-41457809D01*
X161361381Y-45187952D02*
X160361381Y-45187952D01*
X160361381Y-44806999D01*
X160409000Y-44711761D01*
X160456619Y-44664142D01*
X160551857Y-44616523D01*
X160694714Y-44616523D01*
X160789952Y-44664142D01*
X160837571Y-44711761D01*
X160885190Y-44806999D01*
X160885190Y-45187952D01*
X160361381Y-44283190D02*
X161361381Y-44045095D01*
X160647095Y-43854618D01*
X161361381Y-43664142D01*
X160361381Y-43426047D01*
X161361381Y-43045095D02*
X160361381Y-43045095D01*
X161075667Y-42711761D01*
X160361381Y-42378428D01*
X161361381Y-42378428D01*
X160361381Y-41426047D02*
X160361381Y-41902238D01*
X160837571Y-41949857D01*
X160789952Y-41902238D01*
X160742333Y-41807000D01*
X160742333Y-41568904D01*
X160789952Y-41473666D01*
X160837571Y-41426047D01*
X160932810Y-41378428D01*
X161170905Y-41378428D01*
X161266143Y-41426047D01*
X161313762Y-41473666D01*
X161361381Y-41568904D01*
X161361381Y-41807000D01*
X161313762Y-41902238D01*
X161266143Y-41949857D01*
X157932381Y-45441952D02*
X156932381Y-45441952D01*
X156932381Y-45060999D01*
X156980000Y-44965761D01*
X157027619Y-44918142D01*
X157122857Y-44870523D01*
X157265714Y-44870523D01*
X157360952Y-44918142D01*
X157408571Y-44965761D01*
X157456190Y-45060999D01*
X157456190Y-45441952D01*
X156932381Y-44537190D02*
X157932381Y-44299095D01*
X157218095Y-44108618D01*
X157932381Y-43918142D01*
X156932381Y-43680047D01*
X157932381Y-43299095D02*
X156932381Y-43299095D01*
X157646667Y-42965761D01*
X156932381Y-42632428D01*
X157932381Y-42632428D01*
X156932381Y-41727666D02*
X156932381Y-41918143D01*
X156980000Y-42013381D01*
X157027619Y-42061000D01*
X157170476Y-42156238D01*
X157360952Y-42203857D01*
X157741905Y-42203857D01*
X157837143Y-42156238D01*
X157884762Y-42108619D01*
X157932381Y-42013381D01*
X157932381Y-41822904D01*
X157884762Y-41727666D01*
X157837143Y-41680047D01*
X157741905Y-41632428D01*
X157503810Y-41632428D01*
X157408571Y-41680047D01*
X157360952Y-41727666D01*
X157313333Y-41822904D01*
X157313333Y-42013381D01*
X157360952Y-42108619D01*
X157408571Y-42156238D01*
X157503810Y-42203857D01*
X154439881Y-45505452D02*
X153439881Y-45505452D01*
X153439881Y-45124499D01*
X153487500Y-45029261D01*
X153535119Y-44981642D01*
X153630357Y-44934023D01*
X153773214Y-44934023D01*
X153868452Y-44981642D01*
X153916071Y-45029261D01*
X153963690Y-45124499D01*
X153963690Y-45505452D01*
X153439881Y-44600690D02*
X154439881Y-44362595D01*
X153725595Y-44172118D01*
X154439881Y-43981642D01*
X153439881Y-43743547D01*
X154439881Y-43362595D02*
X153439881Y-43362595D01*
X154154167Y-43029261D01*
X153439881Y-42695928D01*
X154439881Y-42695928D01*
X153439881Y-42314976D02*
X153439881Y-41648309D01*
X154439881Y-42076881D01*
X208414881Y-45251452D02*
X207414881Y-45251452D01*
X207414881Y-44870499D01*
X207462500Y-44775261D01*
X207510119Y-44727642D01*
X207605357Y-44680023D01*
X207748214Y-44680023D01*
X207843452Y-44727642D01*
X207891071Y-44775261D01*
X207938690Y-44870499D01*
X207938690Y-45251452D01*
X207414881Y-44346690D02*
X208414881Y-44108595D01*
X207700595Y-43918118D01*
X208414881Y-43727642D01*
X207414881Y-43489547D01*
X208414881Y-43108595D02*
X207414881Y-43108595D01*
X208129167Y-42775261D01*
X207414881Y-42441928D01*
X208414881Y-42441928D01*
X207843452Y-41822881D02*
X207795833Y-41918119D01*
X207748214Y-41965738D01*
X207652976Y-42013357D01*
X207605357Y-42013357D01*
X207510119Y-41965738D01*
X207462500Y-41918119D01*
X207414881Y-41822881D01*
X207414881Y-41632404D01*
X207462500Y-41537166D01*
X207510119Y-41489547D01*
X207605357Y-41441928D01*
X207652976Y-41441928D01*
X207748214Y-41489547D01*
X207795833Y-41537166D01*
X207843452Y-41632404D01*
X207843452Y-41822881D01*
X207891071Y-41918119D01*
X207938690Y-41965738D01*
X208033929Y-42013357D01*
X208224405Y-42013357D01*
X208319643Y-41965738D01*
X208367262Y-41918119D01*
X208414881Y-41822881D01*
X208414881Y-41632404D01*
X208367262Y-41537166D01*
X208319643Y-41489547D01*
X208224405Y-41441928D01*
X208033929Y-41441928D01*
X207938690Y-41489547D01*
X207891071Y-41537166D01*
X207843452Y-41632404D01*
X204604881Y-45251452D02*
X203604881Y-45251452D01*
X203604881Y-44870499D01*
X203652500Y-44775261D01*
X203700119Y-44727642D01*
X203795357Y-44680023D01*
X203938214Y-44680023D01*
X204033452Y-44727642D01*
X204081071Y-44775261D01*
X204128690Y-44870499D01*
X204128690Y-45251452D01*
X203604881Y-44346690D02*
X204604881Y-44108595D01*
X203890595Y-43918118D01*
X204604881Y-43727642D01*
X203604881Y-43489547D01*
X204604881Y-43108595D02*
X203604881Y-43108595D01*
X204319167Y-42775261D01*
X203604881Y-42441928D01*
X204604881Y-42441928D01*
X204604881Y-41918119D02*
X204604881Y-41727643D01*
X204557262Y-41632404D01*
X204509643Y-41584785D01*
X204366786Y-41489547D01*
X204176310Y-41441928D01*
X203795357Y-41441928D01*
X203700119Y-41489547D01*
X203652500Y-41537166D01*
X203604881Y-41632404D01*
X203604881Y-41822881D01*
X203652500Y-41918119D01*
X203700119Y-41965738D01*
X203795357Y-42013357D01*
X204033452Y-42013357D01*
X204128690Y-41965738D01*
X204176310Y-41918119D01*
X204223929Y-41822881D01*
X204223929Y-41632404D01*
X204176310Y-41537166D01*
X204128690Y-41489547D01*
X204033452Y-41441928D01*
X201112381Y-45727643D02*
X200112381Y-45727643D01*
X200112381Y-45346690D01*
X200160000Y-45251452D01*
X200207619Y-45203833D01*
X200302857Y-45156214D01*
X200445714Y-45156214D01*
X200540952Y-45203833D01*
X200588571Y-45251452D01*
X200636190Y-45346690D01*
X200636190Y-45727643D01*
X200112381Y-44822881D02*
X201112381Y-44584786D01*
X200398095Y-44394309D01*
X201112381Y-44203833D01*
X200112381Y-43965738D01*
X201112381Y-43584786D02*
X200112381Y-43584786D01*
X200826667Y-43251452D01*
X200112381Y-42918119D01*
X201112381Y-42918119D01*
X201112381Y-41918119D02*
X201112381Y-42489548D01*
X201112381Y-42203834D02*
X200112381Y-42203834D01*
X200255238Y-42299072D01*
X200350476Y-42394310D01*
X200398095Y-42489548D01*
X200112381Y-41299072D02*
X200112381Y-41203833D01*
X200160000Y-41108595D01*
X200207619Y-41060976D01*
X200302857Y-41013357D01*
X200493333Y-40965738D01*
X200731429Y-40965738D01*
X200921905Y-41013357D01*
X201017143Y-41060976D01*
X201064762Y-41108595D01*
X201112381Y-41203833D01*
X201112381Y-41299072D01*
X201064762Y-41394310D01*
X201017143Y-41441929D01*
X200921905Y-41489548D01*
X200731429Y-41537167D01*
X200493333Y-41537167D01*
X200302857Y-41489548D01*
X200207619Y-41441929D01*
X200160000Y-41394310D01*
X200112381Y-41299072D01*
X197683381Y-46299143D02*
X196683381Y-46299143D01*
X196683381Y-45918190D01*
X196731000Y-45822952D01*
X196778619Y-45775333D01*
X196873857Y-45727714D01*
X197016714Y-45727714D01*
X197111952Y-45775333D01*
X197159571Y-45822952D01*
X197207190Y-45918190D01*
X197207190Y-46299143D01*
X196683381Y-45394381D02*
X197683381Y-45156286D01*
X196969095Y-44965809D01*
X197683381Y-44775333D01*
X196683381Y-44537238D01*
X197683381Y-44156286D02*
X196683381Y-44156286D01*
X197397667Y-43822952D01*
X196683381Y-43489619D01*
X197683381Y-43489619D01*
X197683381Y-42489619D02*
X197683381Y-43061048D01*
X197683381Y-42775334D02*
X196683381Y-42775334D01*
X196826238Y-42870572D01*
X196921476Y-42965810D01*
X196969095Y-43061048D01*
X197683381Y-41537238D02*
X197683381Y-42108667D01*
X197683381Y-41822953D02*
X196683381Y-41822953D01*
X196826238Y-41918191D01*
X196921476Y-42013429D01*
X196969095Y-42108667D01*
X194190881Y-46426143D02*
X193190881Y-46426143D01*
X193190881Y-46045190D01*
X193238500Y-45949952D01*
X193286119Y-45902333D01*
X193381357Y-45854714D01*
X193524214Y-45854714D01*
X193619452Y-45902333D01*
X193667071Y-45949952D01*
X193714690Y-46045190D01*
X193714690Y-46426143D01*
X193190881Y-45521381D02*
X194190881Y-45283286D01*
X193476595Y-45092809D01*
X194190881Y-44902333D01*
X193190881Y-44664238D01*
X194190881Y-44283286D02*
X193190881Y-44283286D01*
X193905167Y-43949952D01*
X193190881Y-43616619D01*
X194190881Y-43616619D01*
X194190881Y-42616619D02*
X194190881Y-43188048D01*
X194190881Y-42902334D02*
X193190881Y-42902334D01*
X193333738Y-42997572D01*
X193428976Y-43092810D01*
X193476595Y-43188048D01*
X193286119Y-42235667D02*
X193238500Y-42188048D01*
X193190881Y-42092810D01*
X193190881Y-41854714D01*
X193238500Y-41759476D01*
X193286119Y-41711857D01*
X193381357Y-41664238D01*
X193476595Y-41664238D01*
X193619452Y-41711857D01*
X194190881Y-42283286D01*
X194190881Y-41664238D01*
X190761881Y-46299143D02*
X189761881Y-46299143D01*
X189761881Y-45918190D01*
X189809500Y-45822952D01*
X189857119Y-45775333D01*
X189952357Y-45727714D01*
X190095214Y-45727714D01*
X190190452Y-45775333D01*
X190238071Y-45822952D01*
X190285690Y-45918190D01*
X190285690Y-46299143D01*
X189761881Y-45394381D02*
X190761881Y-45156286D01*
X190047595Y-44965809D01*
X190761881Y-44775333D01*
X189761881Y-44537238D01*
X190761881Y-44156286D02*
X189761881Y-44156286D01*
X190476167Y-43822952D01*
X189761881Y-43489619D01*
X190761881Y-43489619D01*
X190761881Y-42489619D02*
X190761881Y-43061048D01*
X190761881Y-42775334D02*
X189761881Y-42775334D01*
X189904738Y-42870572D01*
X189999976Y-42965810D01*
X190047595Y-43061048D01*
X189761881Y-42156286D02*
X189761881Y-41537238D01*
X190142833Y-41870572D01*
X190142833Y-41727714D01*
X190190452Y-41632476D01*
X190238071Y-41584857D01*
X190333310Y-41537238D01*
X190571405Y-41537238D01*
X190666643Y-41584857D01*
X190714262Y-41632476D01*
X190761881Y-41727714D01*
X190761881Y-42013429D01*
X190714262Y-42108667D01*
X190666643Y-42156286D01*
X183634357Y-42997381D02*
X183634357Y-41997381D01*
X184015310Y-41997381D01*
X184110548Y-42045000D01*
X184158167Y-42092619D01*
X184205786Y-42187857D01*
X184205786Y-42330714D01*
X184158167Y-42425952D01*
X184110548Y-42473571D01*
X184015310Y-42521190D01*
X183634357Y-42521190D01*
X184539119Y-41997381D02*
X184777214Y-42997381D01*
X184967691Y-42283095D01*
X185158167Y-42997381D01*
X185396262Y-41997381D01*
X185777214Y-42997381D02*
X185777214Y-41997381D01*
X186110548Y-42711667D01*
X186443881Y-41997381D01*
X186443881Y-42997381D01*
X187443881Y-42997381D02*
X186872452Y-42997381D01*
X187158166Y-42997381D02*
X187158166Y-41997381D01*
X187062928Y-42140238D01*
X186967690Y-42235476D01*
X186872452Y-42283095D01*
X188301024Y-42330714D02*
X188301024Y-42997381D01*
X188062928Y-41949762D02*
X187824833Y-42664048D01*
X188443881Y-42664048D01*
X181554381Y-40076143D02*
X180554381Y-40076143D01*
X180554381Y-39695190D01*
X180602000Y-39599952D01*
X180649619Y-39552333D01*
X180744857Y-39504714D01*
X180887714Y-39504714D01*
X180982952Y-39552333D01*
X181030571Y-39599952D01*
X181078190Y-39695190D01*
X181078190Y-40076143D01*
X180554381Y-39171381D02*
X181554381Y-38933286D01*
X180840095Y-38742809D01*
X181554381Y-38552333D01*
X180554381Y-38314238D01*
X181554381Y-37933286D02*
X180554381Y-37933286D01*
X181268667Y-37599952D01*
X180554381Y-37266619D01*
X181554381Y-37266619D01*
X181554381Y-36266619D02*
X181554381Y-36838048D01*
X181554381Y-36552334D02*
X180554381Y-36552334D01*
X180697238Y-36647572D01*
X180792476Y-36742810D01*
X180840095Y-36838048D01*
X180554381Y-35361857D02*
X180554381Y-35838048D01*
X181030571Y-35885667D01*
X180982952Y-35838048D01*
X180935333Y-35742810D01*
X180935333Y-35504714D01*
X180982952Y-35409476D01*
X181030571Y-35361857D01*
X181125810Y-35314238D01*
X181363905Y-35314238D01*
X181459143Y-35361857D01*
X181506762Y-35409476D01*
X181554381Y-35504714D01*
X181554381Y-35742810D01*
X181506762Y-35838048D01*
X181459143Y-35885667D01*
X170822881Y-54141666D02*
X170346690Y-54475000D01*
X170822881Y-54713095D02*
X169822881Y-54713095D01*
X169822881Y-54332142D01*
X169870500Y-54236904D01*
X169918119Y-54189285D01*
X170013357Y-54141666D01*
X170156214Y-54141666D01*
X170251452Y-54189285D01*
X170299071Y-54236904D01*
X170346690Y-54332142D01*
X170346690Y-54713095D01*
X169918119Y-53760714D02*
X169870500Y-53713095D01*
X169822881Y-53617857D01*
X169822881Y-53379761D01*
X169870500Y-53284523D01*
X169918119Y-53236904D01*
X170013357Y-53189285D01*
X170108595Y-53189285D01*
X170251452Y-53236904D01*
X170822881Y-53808333D01*
X170822881Y-53189285D01*
X179284334Y-73445643D02*
X179236715Y-73493262D01*
X179093858Y-73540881D01*
X178998620Y-73540881D01*
X178855762Y-73493262D01*
X178760524Y-73398024D01*
X178712905Y-73302786D01*
X178665286Y-73112310D01*
X178665286Y-72969452D01*
X178712905Y-72778976D01*
X178760524Y-72683738D01*
X178855762Y-72588500D01*
X178998620Y-72540881D01*
X179093858Y-72540881D01*
X179236715Y-72588500D01*
X179284334Y-72636119D01*
X180141477Y-72874214D02*
X180141477Y-73540881D01*
X179903381Y-72493262D02*
X179665286Y-73207548D01*
X180284334Y-73207548D01*
X179855834Y-82653143D02*
X179808215Y-82700762D01*
X179665358Y-82748381D01*
X179570120Y-82748381D01*
X179427262Y-82700762D01*
X179332024Y-82605524D01*
X179284405Y-82510286D01*
X179236786Y-82319810D01*
X179236786Y-82176952D01*
X179284405Y-81986476D01*
X179332024Y-81891238D01*
X179427262Y-81796000D01*
X179570120Y-81748381D01*
X179665358Y-81748381D01*
X179808215Y-81796000D01*
X179855834Y-81843619D01*
X180760596Y-81748381D02*
X180284405Y-81748381D01*
X180236786Y-82224571D01*
X180284405Y-82176952D01*
X180379643Y-82129333D01*
X180617739Y-82129333D01*
X180712977Y-82176952D01*
X180760596Y-82224571D01*
X180808215Y-82319810D01*
X180808215Y-82557905D01*
X180760596Y-82653143D01*
X180712977Y-82700762D01*
X180617739Y-82748381D01*
X180379643Y-82748381D01*
X180284405Y-82700762D01*
X180236786Y-82653143D01*
X202588834Y-79414643D02*
X202541215Y-79462262D01*
X202398358Y-79509881D01*
X202303120Y-79509881D01*
X202160262Y-79462262D01*
X202065024Y-79367024D01*
X202017405Y-79271786D01*
X201969786Y-79081310D01*
X201969786Y-78938452D01*
X202017405Y-78747976D01*
X202065024Y-78652738D01*
X202160262Y-78557500D01*
X202303120Y-78509881D01*
X202398358Y-78509881D01*
X202541215Y-78557500D01*
X202588834Y-78605119D01*
X203445977Y-78509881D02*
X203255500Y-78509881D01*
X203160262Y-78557500D01*
X203112643Y-78605119D01*
X203017405Y-78747976D01*
X202969786Y-78938452D01*
X202969786Y-79319405D01*
X203017405Y-79414643D01*
X203065024Y-79462262D01*
X203160262Y-79509881D01*
X203350739Y-79509881D01*
X203445977Y-79462262D01*
X203493596Y-79414643D01*
X203541215Y-79319405D01*
X203541215Y-79081310D01*
X203493596Y-78986071D01*
X203445977Y-78938452D01*
X203350739Y-78890833D01*
X203160262Y-78890833D01*
X203065024Y-78938452D01*
X203017405Y-78986071D01*
X202969786Y-79081310D01*
X164869834Y-56713381D02*
X164536500Y-56237190D01*
X164298405Y-56713381D02*
X164298405Y-55713381D01*
X164679358Y-55713381D01*
X164774596Y-55761000D01*
X164822215Y-55808619D01*
X164869834Y-55903857D01*
X164869834Y-56046714D01*
X164822215Y-56141952D01*
X164774596Y-56189571D01*
X164679358Y-56237190D01*
X164298405Y-56237190D01*
X165822215Y-56713381D02*
X165250786Y-56713381D01*
X165536500Y-56713381D02*
X165536500Y-55713381D01*
X165441262Y-55856238D01*
X165346024Y-55951476D01*
X165250786Y-55999095D01*
X201382334Y-55121381D02*
X201049000Y-54645190D01*
X200810905Y-55121381D02*
X200810905Y-54121381D01*
X201191858Y-54121381D01*
X201287096Y-54169000D01*
X201334715Y-54216619D01*
X201382334Y-54311857D01*
X201382334Y-54454714D01*
X201334715Y-54549952D01*
X201287096Y-54597571D01*
X201191858Y-54645190D01*
X200810905Y-54645190D01*
X201715667Y-54121381D02*
X202334715Y-54121381D01*
X202001381Y-54502333D01*
X202144239Y-54502333D01*
X202239477Y-54549952D01*
X202287096Y-54597571D01*
X202334715Y-54692810D01*
X202334715Y-54930905D01*
X202287096Y-55026143D01*
X202239477Y-55073762D01*
X202144239Y-55121381D01*
X201858524Y-55121381D01*
X201763286Y-55073762D01*
X201715667Y-55026143D01*
X201382334Y-57534381D02*
X201049000Y-57058190D01*
X200810905Y-57534381D02*
X200810905Y-56534381D01*
X201191858Y-56534381D01*
X201287096Y-56582000D01*
X201334715Y-56629619D01*
X201382334Y-56724857D01*
X201382334Y-56867714D01*
X201334715Y-56962952D01*
X201287096Y-57010571D01*
X201191858Y-57058190D01*
X200810905Y-57058190D01*
X202239477Y-56867714D02*
X202239477Y-57534381D01*
X202001381Y-56486762D02*
X201763286Y-57201048D01*
X202382334Y-57201048D01*
X193000334Y-48712381D02*
X192667000Y-48236190D01*
X192428905Y-48712381D02*
X192428905Y-47712381D01*
X192809858Y-47712381D01*
X192905096Y-47760000D01*
X192952715Y-47807619D01*
X193000334Y-47902857D01*
X193000334Y-48045714D01*
X192952715Y-48140952D01*
X192905096Y-48188571D01*
X192809858Y-48236190D01*
X192428905Y-48236190D01*
X193905096Y-47712381D02*
X193428905Y-47712381D01*
X193381286Y-48188571D01*
X193428905Y-48140952D01*
X193524143Y-48093333D01*
X193762239Y-48093333D01*
X193857477Y-48140952D01*
X193905096Y-48188571D01*
X193952715Y-48283810D01*
X193952715Y-48521905D01*
X193905096Y-48617143D01*
X193857477Y-48664762D01*
X193762239Y-48712381D01*
X193524143Y-48712381D01*
X193428905Y-48664762D01*
X193381286Y-48617143D01*
X205097143Y-49728381D02*
X204763809Y-49252190D01*
X204525714Y-49728381D02*
X204525714Y-48728381D01*
X204906667Y-48728381D01*
X205001905Y-48776000D01*
X205049524Y-48823619D01*
X205097143Y-48918857D01*
X205097143Y-49061714D01*
X205049524Y-49156952D01*
X205001905Y-49204571D01*
X204906667Y-49252190D01*
X204525714Y-49252190D01*
X206049524Y-49728381D02*
X205478095Y-49728381D01*
X205763809Y-49728381D02*
X205763809Y-48728381D01*
X205668571Y-48871238D01*
X205573333Y-48966476D01*
X205478095Y-49014095D01*
X207001905Y-49728381D02*
X206430476Y-49728381D01*
X206716190Y-49728381D02*
X206716190Y-48728381D01*
X206620952Y-48871238D01*
X206525714Y-48966476D01*
X206430476Y-49014095D01*
X196969143Y-52522381D02*
X196635809Y-52046190D01*
X196397714Y-52522381D02*
X196397714Y-51522381D01*
X196778667Y-51522381D01*
X196873905Y-51570000D01*
X196921524Y-51617619D01*
X196969143Y-51712857D01*
X196969143Y-51855714D01*
X196921524Y-51950952D01*
X196873905Y-51998571D01*
X196778667Y-52046190D01*
X196397714Y-52046190D01*
X197921524Y-52522381D02*
X197350095Y-52522381D01*
X197635809Y-52522381D02*
X197635809Y-51522381D01*
X197540571Y-51665238D01*
X197445333Y-51760476D01*
X197350095Y-51808095D01*
X198302476Y-51617619D02*
X198350095Y-51570000D01*
X198445333Y-51522381D01*
X198683429Y-51522381D01*
X198778667Y-51570000D01*
X198826286Y-51617619D01*
X198873905Y-51712857D01*
X198873905Y-51808095D01*
X198826286Y-51950952D01*
X198254857Y-52522381D01*
X198873905Y-52522381D01*
X205033643Y-47442381D02*
X204700309Y-46966190D01*
X204462214Y-47442381D02*
X204462214Y-46442381D01*
X204843167Y-46442381D01*
X204938405Y-46490000D01*
X204986024Y-46537619D01*
X205033643Y-46632857D01*
X205033643Y-46775714D01*
X204986024Y-46870952D01*
X204938405Y-46918571D01*
X204843167Y-46966190D01*
X204462214Y-46966190D01*
X205986024Y-47442381D02*
X205414595Y-47442381D01*
X205700309Y-47442381D02*
X205700309Y-46442381D01*
X205605071Y-46585238D01*
X205509833Y-46680476D01*
X205414595Y-46728095D01*
X206319357Y-46442381D02*
X206938405Y-46442381D01*
X206605071Y-46823333D01*
X206747929Y-46823333D01*
X206843167Y-46870952D01*
X206890786Y-46918571D01*
X206938405Y-47013810D01*
X206938405Y-47251905D01*
X206890786Y-47347143D01*
X206843167Y-47394762D01*
X206747929Y-47442381D01*
X206462214Y-47442381D01*
X206366976Y-47394762D01*
X206319357Y-47347143D01*
X171292781Y-92533695D02*
X170292781Y-92533695D01*
X170292781Y-92152742D01*
X170340400Y-92057504D01*
X170388019Y-92009885D01*
X170483257Y-91962266D01*
X170626114Y-91962266D01*
X170721352Y-92009885D01*
X170768971Y-92057504D01*
X170816590Y-92152742D01*
X170816590Y-92533695D01*
X170292781Y-91057504D02*
X170292781Y-91533695D01*
X170768971Y-91581314D01*
X170721352Y-91533695D01*
X170673733Y-91438457D01*
X170673733Y-91200361D01*
X170721352Y-91105123D01*
X170768971Y-91057504D01*
X170864210Y-91009885D01*
X171102305Y-91009885D01*
X171197543Y-91057504D01*
X171245162Y-91105123D01*
X171292781Y-91200361D01*
X171292781Y-91438457D01*
X171245162Y-91533695D01*
X171197543Y-91581314D01*
X204430405Y-62725881D02*
X204430405Y-61725881D01*
X204811358Y-61725881D01*
X204906596Y-61773500D01*
X204954215Y-61821119D01*
X205001834Y-61916357D01*
X205001834Y-62059214D01*
X204954215Y-62154452D01*
X204906596Y-62202071D01*
X204811358Y-62249690D01*
X204430405Y-62249690D01*
X205858977Y-61725881D02*
X205668500Y-61725881D01*
X205573262Y-61773500D01*
X205525643Y-61821119D01*
X205430405Y-61963976D01*
X205382786Y-62154452D01*
X205382786Y-62535405D01*
X205430405Y-62630643D01*
X205478024Y-62678262D01*
X205573262Y-62725881D01*
X205763739Y-62725881D01*
X205858977Y-62678262D01*
X205906596Y-62630643D01*
X205954215Y-62535405D01*
X205954215Y-62297310D01*
X205906596Y-62202071D01*
X205858977Y-62154452D01*
X205763739Y-62106833D01*
X205573262Y-62106833D01*
X205478024Y-62154452D01*
X205430405Y-62202071D01*
X205382786Y-62297310D01*
X176149095Y-59205881D02*
X176149095Y-60015405D01*
X176196714Y-60110643D01*
X176244333Y-60158262D01*
X176339571Y-60205881D01*
X176530048Y-60205881D01*
X176625286Y-60158262D01*
X176672905Y-60110643D01*
X176720524Y-60015405D01*
X176720524Y-59205881D01*
X177720524Y-60205881D02*
X177149095Y-60205881D01*
X177434809Y-60205881D02*
X177434809Y-59205881D01*
X177339571Y-59348738D01*
X177244333Y-59443976D01*
X177149095Y-59491595D01*
X185586810Y-71999381D02*
X185586810Y-70999381D01*
X186634429Y-71904143D02*
X186586810Y-71951762D01*
X186443953Y-71999381D01*
X186348715Y-71999381D01*
X186205857Y-71951762D01*
X186110619Y-71856524D01*
X186063000Y-71761286D01*
X186015381Y-71570810D01*
X186015381Y-71427952D01*
X186063000Y-71237476D01*
X186110619Y-71142238D01*
X186205857Y-71047000D01*
X186348715Y-70999381D01*
X186443953Y-70999381D01*
X186586810Y-71047000D01*
X186634429Y-71094619D01*
X187586810Y-71999381D02*
X187015381Y-71999381D01*
X187301095Y-71999381D02*
X187301095Y-70999381D01*
X187205857Y-71142238D01*
X187110619Y-71237476D01*
X187015381Y-71285095D01*
M02*
