G04 #@! TF.FileFunction,Legend,Bot*
%FSLAX46Y46*%
G04 Gerber Fmt 4.6, Leading zero omitted, Abs format (unit mm)*
G04 Created by KiCad (PCBNEW 4.0.0-rc2-stable) date 7/13/2016 8:06:37 PM*
%MOMM*%
G01*
G04 APERTURE LIST*
%ADD10C,0.100000*%
%ADD11C,0.150000*%
%ADD12C,0.160000*%
G04 APERTURE END LIST*
D10*
D11*
X158242000Y-46609000D02*
X157988000Y-46990000D01*
X157988000Y-46990000D02*
X157480000Y-46990000D01*
X158242000Y-46609000D02*
X157988000Y-46228000D01*
X157988000Y-46228000D02*
X157480000Y-46228000D01*
X167640000Y-48514000D02*
X163703000Y-43180000D01*
X163703000Y-43180000D02*
X158750000Y-46609000D01*
X158750000Y-46609000D02*
X158242000Y-46609000D01*
X168783000Y-48514000D02*
X166497000Y-48514000D01*
X166370000Y-51181000D02*
X180594000Y-51181000D01*
X180594000Y-48641000D02*
X166370000Y-48641000D01*
X181102000Y-40005000D02*
X181229000Y-40005000D01*
X181229000Y-49149000D02*
X180975000Y-49149000D01*
X173736000Y-42291000D02*
X174244000Y-42291000D01*
X172974000Y-42291000D02*
X173228000Y-42291000D01*
X173228000Y-42799000D02*
X173736000Y-42799000D01*
X173736000Y-42291000D02*
X173736000Y-41910000D01*
X173736000Y-41910000D02*
X173228000Y-41910000D01*
X173228000Y-41910000D02*
X173228000Y-42291000D01*
X172720000Y-42164000D02*
X172466000Y-42164000D01*
X172466000Y-42164000D02*
X172466000Y-41656000D01*
X172466000Y-41656000D02*
X172720000Y-41656000D01*
X172974000Y-42291000D02*
X172720000Y-42291000D01*
X172720000Y-42291000D02*
X172720000Y-41529000D01*
X172720000Y-41529000D02*
X173228000Y-41529000D01*
X172974000Y-41529000D02*
X174244000Y-41529000D01*
X174244000Y-41529000D02*
X174244000Y-42291000D01*
X173736000Y-48641000D02*
X173228000Y-48133000D01*
X173228000Y-48133000D02*
X173736000Y-47625000D01*
X173736000Y-47625000D02*
X173228000Y-47117000D01*
X173228000Y-47117000D02*
X173736000Y-46355000D01*
X173736000Y-46355000D02*
X173228000Y-45847000D01*
X173228000Y-45847000D02*
X173736000Y-45339000D01*
X173736000Y-45339000D02*
X173228000Y-44831000D01*
X173228000Y-44831000D02*
X173736000Y-44323000D01*
X173736000Y-44323000D02*
X173228000Y-43815000D01*
X173228000Y-43815000D02*
X173736000Y-43307000D01*
X173736000Y-43307000D02*
X173228000Y-42799000D01*
X173736000Y-48641000D02*
X173228000Y-48641000D01*
X173228000Y-48641000D02*
X173228000Y-42291000D01*
X173736000Y-42291000D02*
X173736000Y-48641000D01*
X180848000Y-49149000D02*
X181102000Y-49149000D01*
X181229000Y-49149000D02*
X181229000Y-40005000D01*
X181102000Y-40005000D02*
X180848000Y-40005000D01*
X180848000Y-40005000D02*
X180848000Y-48641000D01*
X180594000Y-49149000D02*
X180848000Y-49149000D01*
X180848000Y-49149000D02*
X180848000Y-48641000D01*
X180848000Y-48641000D02*
X180594000Y-48641000D01*
X168402000Y-53721000D02*
G75*
G03X168402000Y-53721000I-1270000J0D01*
G01*
X174752000Y-53721000D02*
G75*
G03X174752000Y-53721000I-1270000J0D01*
G01*
X181102000Y-53721000D02*
G75*
G03X181102000Y-53721000I-1270000J0D01*
G01*
X173482000Y-53721000D02*
X176530000Y-52451000D01*
X173482000Y-51181000D02*
X167132000Y-53721000D01*
X166370000Y-51181000D02*
X166370000Y-48641000D01*
X173482000Y-51181000D02*
X179832000Y-53721000D01*
X180594000Y-48641000D02*
X180594000Y-51181000D01*
X178680000Y-78597000D02*
X178680000Y-76597000D01*
X180730000Y-76597000D02*
X180730000Y-78597000D01*
X195081000Y-78502000D02*
X195081000Y-80502000D01*
X193031000Y-80502000D02*
X193031000Y-78502000D01*
X181220000Y-72628000D02*
X181220000Y-70628000D01*
X183270000Y-70628000D02*
X183270000Y-72628000D01*
X169052667Y-58745381D02*
X169052667Y-57745381D01*
X168719333Y-58459667D01*
X168386000Y-57745381D01*
X168386000Y-58745381D01*
X167957429Y-58459667D02*
X167481238Y-58459667D01*
X168052667Y-58745381D02*
X167719334Y-57745381D01*
X167386000Y-58745381D01*
X167195524Y-57745381D02*
X166862191Y-58745381D01*
X166528857Y-57745381D01*
X166290762Y-57745381D02*
X165671714Y-57745381D01*
X166005048Y-58126333D01*
X165862190Y-58126333D01*
X165766952Y-58173952D01*
X165719333Y-58221571D01*
X165671714Y-58316810D01*
X165671714Y-58554905D01*
X165719333Y-58650143D01*
X165766952Y-58697762D01*
X165862190Y-58745381D01*
X166147905Y-58745381D01*
X166243143Y-58697762D01*
X166290762Y-58650143D01*
D12*
X187688499Y-57483262D02*
X187688499Y-55483262D01*
X186688499Y-56911833D01*
X185688499Y-55483262D01*
X185688499Y-57483262D01*
X182117071Y-56911833D02*
X180688500Y-56911833D01*
X182402786Y-57483262D02*
X181402786Y-55483262D01*
X180402786Y-57483262D01*
X177545643Y-55483262D02*
X176545643Y-57483262D01*
X175545643Y-55483262D01*
X170545643Y-57483262D02*
X171545643Y-56530881D01*
X172259928Y-57483262D02*
X172259928Y-55483262D01*
X171117071Y-55483262D01*
X170831357Y-55578500D01*
X170688500Y-55673738D01*
X170545643Y-55864214D01*
X170545643Y-56149929D01*
X170688500Y-56340405D01*
X170831357Y-56435643D01*
X171117071Y-56530881D01*
X172259928Y-56530881D01*
X166974214Y-57483262D02*
X166974214Y-55483262D01*
X161545644Y-57292786D02*
X161688501Y-57388024D01*
X162117072Y-57483262D01*
X162402786Y-57483262D01*
X162831358Y-57388024D01*
X163117072Y-57197548D01*
X163259929Y-57007071D01*
X163402786Y-56626119D01*
X163402786Y-56340405D01*
X163259929Y-55959452D01*
X163117072Y-55768976D01*
X162831358Y-55578500D01*
X162402786Y-55483262D01*
X162117072Y-55483262D01*
X161688501Y-55578500D01*
X161545644Y-55673738D01*
D11*
X177762143Y-77430334D02*
X177809762Y-77382715D01*
X177857381Y-77239858D01*
X177857381Y-77144620D01*
X177809762Y-77001762D01*
X177714524Y-76906524D01*
X177619286Y-76858905D01*
X177428810Y-76811286D01*
X177285952Y-76811286D01*
X177095476Y-76858905D01*
X177000238Y-76906524D01*
X176905000Y-77001762D01*
X176857381Y-77144620D01*
X176857381Y-77239858D01*
X176905000Y-77382715D01*
X176952619Y-77430334D01*
X177857381Y-77906524D02*
X177857381Y-78097000D01*
X177809762Y-78192239D01*
X177762143Y-78239858D01*
X177619286Y-78335096D01*
X177428810Y-78382715D01*
X177047857Y-78382715D01*
X176952619Y-78335096D01*
X176905000Y-78287477D01*
X176857381Y-78192239D01*
X176857381Y-78001762D01*
X176905000Y-77906524D01*
X176952619Y-77858905D01*
X177047857Y-77811286D01*
X177285952Y-77811286D01*
X177381190Y-77858905D01*
X177428810Y-77906524D01*
X177476429Y-78001762D01*
X177476429Y-78192239D01*
X177428810Y-78287477D01*
X177381190Y-78335096D01*
X177285952Y-78382715D01*
X196713143Y-78859143D02*
X196760762Y-78811524D01*
X196808381Y-78668667D01*
X196808381Y-78573429D01*
X196760762Y-78430571D01*
X196665524Y-78335333D01*
X196570286Y-78287714D01*
X196379810Y-78240095D01*
X196236952Y-78240095D01*
X196046476Y-78287714D01*
X195951238Y-78335333D01*
X195856000Y-78430571D01*
X195808381Y-78573429D01*
X195808381Y-78668667D01*
X195856000Y-78811524D01*
X195903619Y-78859143D01*
X196808381Y-79811524D02*
X196808381Y-79240095D01*
X196808381Y-79525809D02*
X195808381Y-79525809D01*
X195951238Y-79430571D01*
X196046476Y-79335333D01*
X196094095Y-79240095D01*
X195808381Y-80430571D02*
X195808381Y-80525810D01*
X195856000Y-80621048D01*
X195903619Y-80668667D01*
X195998857Y-80716286D01*
X196189333Y-80763905D01*
X196427429Y-80763905D01*
X196617905Y-80716286D01*
X196713143Y-80668667D01*
X196760762Y-80621048D01*
X196808381Y-80525810D01*
X196808381Y-80430571D01*
X196760762Y-80335333D01*
X196713143Y-80287714D01*
X196617905Y-80240095D01*
X196427429Y-80192476D01*
X196189333Y-80192476D01*
X195998857Y-80240095D01*
X195903619Y-80287714D01*
X195856000Y-80335333D01*
X195808381Y-80430571D01*
X180302143Y-70985143D02*
X180349762Y-70937524D01*
X180397381Y-70794667D01*
X180397381Y-70699429D01*
X180349762Y-70556571D01*
X180254524Y-70461333D01*
X180159286Y-70413714D01*
X179968810Y-70366095D01*
X179825952Y-70366095D01*
X179635476Y-70413714D01*
X179540238Y-70461333D01*
X179445000Y-70556571D01*
X179397381Y-70699429D01*
X179397381Y-70794667D01*
X179445000Y-70937524D01*
X179492619Y-70985143D01*
X180397381Y-71937524D02*
X180397381Y-71366095D01*
X180397381Y-71651809D02*
X179397381Y-71651809D01*
X179540238Y-71556571D01*
X179635476Y-71461333D01*
X179683095Y-71366095D01*
X180397381Y-72889905D02*
X180397381Y-72318476D01*
X180397381Y-72604190D02*
X179397381Y-72604190D01*
X179540238Y-72508952D01*
X179635476Y-72413714D01*
X179683095Y-72318476D01*
M02*
