G04 #@! TF.FileFunction,Soldermask,Bot*
%FSLAX46Y46*%
G04 Gerber Fmt 4.6, Leading zero omitted, Abs format (unit mm)*
G04 Created by KiCad (PCBNEW 4.0.0-rc2-stable) date 7/14/2016 8:37:10 PM*
%MOMM*%
G01*
G04 APERTURE LIST*
%ADD10C,0.100000*%
%ADD11C,0.300000*%
%ADD12C,2.600000*%
%ADD13R,3.900120X3.900120*%
%ADD14R,2.432000X2.432000*%
%ADD15O,2.432000X2.432000*%
%ADD16R,2.127200X2.432000*%
%ADD17O,2.127200X2.432000*%
%ADD18R,2.127200X2.127200*%
%ADD19O,2.127200X2.127200*%
%ADD20R,2.432000X2.127200*%
%ADD21O,2.432000X2.127200*%
%ADD22R,2.000000X1.400000*%
%ADD23R,1.600000X1.150000*%
%ADD24R,1.150000X1.600000*%
%ADD25R,2.400000X2.000000*%
%ADD26R,1.300000X1.600000*%
%ADD27C,4.200000*%
%ADD28C,4.400000*%
G04 APERTURE END LIST*
D10*
D11*
X-345054343Y118795848D02*
X-345054343Y117129181D01*
X-342435295Y116414895D02*
X-342435295Y118795848D01*
X-347435295Y118795848D01*
X-347435295Y116414895D01*
X-342435295Y114748228D02*
X-345768629Y112129181D01*
X-345768629Y114748228D02*
X-342435295Y112129181D01*
X-345768629Y110224419D02*
X-340768629Y110224419D01*
X-345530533Y110224419D02*
X-345768629Y109748228D01*
X-345768629Y108795847D01*
X-345530533Y108319657D01*
X-345292438Y108081562D01*
X-344816248Y107843466D01*
X-343387676Y107843466D01*
X-342911486Y108081562D01*
X-342673390Y108319657D01*
X-342435295Y108795847D01*
X-342435295Y109748228D01*
X-342673390Y110224419D01*
X-342435295Y104986323D02*
X-342673390Y105462514D01*
X-343149581Y105700609D01*
X-347435295Y105700609D01*
X-342435295Y102367275D02*
X-342673390Y102843466D01*
X-342911486Y103081561D01*
X-343387676Y103319656D01*
X-344816248Y103319656D01*
X-345292438Y103081561D01*
X-345530533Y102843466D01*
X-345768629Y102367275D01*
X-345768629Y101652989D01*
X-345530533Y101176799D01*
X-345292438Y100938704D01*
X-344816248Y100700608D01*
X-343387676Y100700608D01*
X-342911486Y100938704D01*
X-342673390Y101176799D01*
X-342435295Y101652989D01*
X-342435295Y102367275D01*
X-342435295Y98557751D02*
X-345768629Y98557751D01*
X-344816248Y98557751D02*
X-345292438Y98319656D01*
X-345530533Y98081560D01*
X-345768629Y97605370D01*
X-345768629Y97129179D01*
X-342673390Y93557751D02*
X-342435295Y94033941D01*
X-342435295Y94986322D01*
X-342673390Y95462513D01*
X-343149581Y95700608D01*
X-345054343Y95700608D01*
X-345530533Y95462513D01*
X-345768629Y94986322D01*
X-345768629Y94033941D01*
X-345530533Y93557751D01*
X-345054343Y93319656D01*
X-344578152Y93319656D01*
X-344101962Y95700608D01*
X-320746543Y118414848D02*
X-320746543Y116748181D01*
X-318127495Y116033895D02*
X-318127495Y118414848D01*
X-323127495Y118414848D01*
X-323127495Y116033895D01*
X-318127495Y114367228D02*
X-321460829Y111748181D01*
X-321460829Y114367228D02*
X-318127495Y111748181D01*
X-321460829Y109843419D02*
X-316460829Y109843419D01*
X-321222733Y109843419D02*
X-321460829Y109367228D01*
X-321460829Y108414847D01*
X-321222733Y107938657D01*
X-320984638Y107700562D01*
X-320508448Y107462466D01*
X-319079876Y107462466D01*
X-318603686Y107700562D01*
X-318365590Y107938657D01*
X-318127495Y108414847D01*
X-318127495Y109367228D01*
X-318365590Y109843419D01*
X-318127495Y104605323D02*
X-318365590Y105081514D01*
X-318841781Y105319609D01*
X-323127495Y105319609D01*
X-318127495Y101986275D02*
X-318365590Y102462466D01*
X-318603686Y102700561D01*
X-319079876Y102938656D01*
X-320508448Y102938656D01*
X-320984638Y102700561D01*
X-321222733Y102462466D01*
X-321460829Y101986275D01*
X-321460829Y101271989D01*
X-321222733Y100795799D01*
X-320984638Y100557704D01*
X-320508448Y100319608D01*
X-319079876Y100319608D01*
X-318603686Y100557704D01*
X-318365590Y100795799D01*
X-318127495Y101271989D01*
X-318127495Y101986275D01*
X-318127495Y98176751D02*
X-321460829Y98176751D01*
X-320508448Y98176751D02*
X-320984638Y97938656D01*
X-321222733Y97700560D01*
X-321460829Y97224370D01*
X-321460829Y96748179D01*
X-318365590Y93176751D02*
X-318127495Y93652941D01*
X-318127495Y94605322D01*
X-318365590Y95081513D01*
X-318841781Y95319608D01*
X-320746543Y95319608D01*
X-321222733Y95081513D01*
X-321460829Y94605322D01*
X-321460829Y93652941D01*
X-321222733Y93176751D01*
X-320746543Y92938656D01*
X-320270352Y92938656D01*
X-319794162Y95319608D01*
D12*
X-490270800Y-12382500D03*
D13*
X-480387660Y17145000D03*
X-486387140Y17145000D03*
X-483387400Y12446000D03*
D14*
X-437311800Y762000D03*
D15*
X-439851800Y762000D03*
D13*
X-480768660Y4508500D03*
X-486768140Y4508500D03*
X-483768400Y-190500D03*
D14*
X-458647800Y16637000D03*
D15*
X-458647800Y14097000D03*
D16*
X-471855800Y-13208000D03*
D17*
X-469315800Y-13208000D03*
X-466775800Y-13208000D03*
X-464235800Y-13208000D03*
X-461695800Y-13208000D03*
D16*
X-448995800Y-13208000D03*
D17*
X-451535800Y-13208000D03*
X-454075800Y-13208000D03*
X-456615800Y-13208000D03*
D18*
X-441629800Y-3873500D03*
D19*
X-441629800Y-6413500D03*
X-444169800Y-3873500D03*
X-444169800Y-6413500D03*
X-446709800Y-3873500D03*
X-446709800Y-6413500D03*
D20*
X-437311800Y27559000D03*
D21*
X-437311800Y25019000D03*
X-437311800Y22479000D03*
X-437311800Y19939000D03*
D20*
X-470014300Y46609000D03*
D21*
X-470014300Y44069000D03*
X-470014300Y41529000D03*
D20*
X-466521800Y46609000D03*
D21*
X-466521800Y44069000D03*
X-466521800Y41529000D03*
D20*
X-473506800Y46609000D03*
D21*
X-473506800Y44069000D03*
X-473506800Y41529000D03*
D20*
X-476999300Y46609000D03*
D21*
X-476999300Y44069000D03*
X-476999300Y41529000D03*
D20*
X-480491800Y46609000D03*
D21*
X-480491800Y44069000D03*
X-480491800Y41529000D03*
D20*
X-483984300Y46609000D03*
D21*
X-483984300Y44069000D03*
X-483984300Y41529000D03*
D20*
X-487476800Y46609000D03*
D21*
X-487476800Y44069000D03*
X-487476800Y41529000D03*
D20*
X-490969300Y46609000D03*
D21*
X-490969300Y44069000D03*
X-490969300Y41529000D03*
D20*
X-437248300Y46609000D03*
D21*
X-437248300Y44069000D03*
X-437248300Y41529000D03*
D20*
X-440740800Y46609000D03*
D21*
X-440740800Y44069000D03*
X-440740800Y41529000D03*
D20*
X-444233300Y46609000D03*
D21*
X-444233300Y44069000D03*
X-444233300Y41529000D03*
D20*
X-447725800Y46609000D03*
D21*
X-447725800Y44069000D03*
X-447725800Y41529000D03*
D20*
X-451218300Y46609000D03*
D21*
X-451218300Y44069000D03*
X-451218300Y41529000D03*
D20*
X-454710800Y46609000D03*
D21*
X-454710800Y44069000D03*
X-454710800Y41529000D03*
D20*
X-458203300Y46609000D03*
D21*
X-458203300Y44069000D03*
X-458203300Y41529000D03*
D20*
X-461695800Y46609000D03*
D21*
X-461695800Y44069000D03*
X-461695800Y41529000D03*
D18*
X-471855800Y-10668000D03*
D19*
X-471855800Y-8128000D03*
X-469315800Y-10668000D03*
X-469315800Y-8128000D03*
X-466775800Y-10668000D03*
X-466775800Y-8128000D03*
X-464235800Y-10668000D03*
X-464235800Y-8128000D03*
X-461695800Y-10668000D03*
X-461695800Y-8128000D03*
D18*
X-439788300Y13652500D03*
D19*
X-437248300Y13652500D03*
X-439788300Y11112500D03*
X-437248300Y11112500D03*
X-439788300Y8572500D03*
X-437248300Y8572500D03*
X-439788300Y6032500D03*
X-437248300Y6032500D03*
D12*
X-436359300Y-12382500D03*
X-490270800Y33591500D03*
X-436359300Y33591500D03*
D22*
X-465251800Y4929000D03*
X-465251800Y1929000D03*
X-450900800Y24000D03*
X-450900800Y3024000D03*
X-462711800Y10898000D03*
X-462711800Y7898000D03*
D23*
X-396478800Y-3454400D03*
X-394578800Y-3454400D03*
X-402320800Y-3454400D03*
X-400420800Y-3454400D03*
D24*
X-400862800Y1437600D03*
X-400862800Y3337600D03*
X-402386800Y7025600D03*
X-402386800Y8925600D03*
D23*
X-402828800Y13309600D03*
X-400928800Y13309600D03*
D24*
X-402386800Y1437600D03*
X-402386800Y3337600D03*
X-390702800Y7787600D03*
X-390702800Y9687600D03*
X-388670800Y7787600D03*
X-388670800Y9687600D03*
D25*
X-404386800Y-5994400D03*
X-400386800Y-5994400D03*
D14*
X-374700800Y10922000D03*
D15*
X-372160800Y10922000D03*
D14*
X-374700800Y7874000D03*
D15*
X-372160800Y7874000D03*
D14*
X-374700800Y4826000D03*
D15*
X-372160800Y4826000D03*
D14*
X-374700800Y1778000D03*
D15*
X-372160800Y1778000D03*
D14*
X-414324800Y-9550400D03*
D15*
X-414324800Y-12090400D03*
D14*
X-417372800Y-9550400D03*
D15*
X-417372800Y-12090400D03*
D14*
X-420420800Y-9550400D03*
D15*
X-420420800Y-12090400D03*
D14*
X-423468800Y-9550400D03*
D15*
X-423468800Y-12090400D03*
D14*
X-374700800Y23114000D03*
D15*
X-372160800Y23114000D03*
D14*
X-374700800Y20066000D03*
D15*
X-372160800Y20066000D03*
D14*
X-374700800Y17018000D03*
D15*
X-372160800Y17018000D03*
D14*
X-374700800Y13970000D03*
D15*
X-372160800Y13970000D03*
D16*
X-389331200Y19761200D03*
D17*
X-391871200Y19761200D03*
X-394411200Y19761200D03*
X-396951200Y19761200D03*
D16*
X-397306800Y23977600D03*
D17*
X-394766800Y23977600D03*
X-392226800Y23977600D03*
X-389686800Y23977600D03*
D14*
X-424738800Y10007600D03*
D15*
X-424738800Y7467600D03*
D26*
X-403453600Y19997600D03*
X-403453600Y17797600D03*
X-400862800Y20048400D03*
X-400862800Y17848400D03*
D14*
X-390550400Y-10414000D03*
D15*
X-390550400Y-7874000D03*
D14*
X-384962400Y-10464800D03*
D15*
X-384962400Y-7924800D03*
D14*
X-374700800Y-1320800D03*
D15*
X-372160800Y-1320800D03*
D14*
X-374700800Y-4419600D03*
D15*
X-372160800Y-4419600D03*
D14*
X-374700800Y-7518400D03*
D15*
X-372160800Y-7518400D03*
D14*
X-374700800Y-10617200D03*
D15*
X-372160800Y-10617200D03*
D23*
X-396275600Y43078400D03*
X-394375600Y43078400D03*
X-402117600Y43078400D03*
X-400217600Y43078400D03*
D24*
X-400659600Y47970400D03*
X-400659600Y49870400D03*
X-402183600Y53558400D03*
X-402183600Y55458400D03*
D23*
X-402625600Y59842400D03*
X-400725600Y59842400D03*
D24*
X-402183600Y47970400D03*
X-402183600Y49870400D03*
X-390499600Y54320400D03*
X-390499600Y56220400D03*
X-388467600Y54320400D03*
X-388467600Y56220400D03*
D25*
X-404183600Y40538400D03*
X-400183600Y40538400D03*
D14*
X-374497600Y57454800D03*
D15*
X-371957600Y57454800D03*
D14*
X-374497600Y54406800D03*
D15*
X-371957600Y54406800D03*
D14*
X-374497600Y51358800D03*
D15*
X-371957600Y51358800D03*
D14*
X-374497600Y48310800D03*
D15*
X-371957600Y48310800D03*
D14*
X-414121600Y36982400D03*
D15*
X-414121600Y34442400D03*
D14*
X-417169600Y36982400D03*
D15*
X-417169600Y34442400D03*
D14*
X-420217600Y36982400D03*
D15*
X-420217600Y34442400D03*
D14*
X-423265600Y36982400D03*
D15*
X-423265600Y34442400D03*
D14*
X-374497600Y69646800D03*
D15*
X-371957600Y69646800D03*
D14*
X-374497600Y66598800D03*
D15*
X-371957600Y66598800D03*
D14*
X-374497600Y63550800D03*
D15*
X-371957600Y63550800D03*
D14*
X-374497600Y60502800D03*
D15*
X-371957600Y60502800D03*
D16*
X-389128000Y66294000D03*
D17*
X-391668000Y66294000D03*
X-394208000Y66294000D03*
X-396748000Y66294000D03*
D16*
X-397103600Y70510400D03*
D17*
X-394563600Y70510400D03*
X-392023600Y70510400D03*
X-389483600Y70510400D03*
D14*
X-424535600Y56540400D03*
D15*
X-424535600Y54000400D03*
D26*
X-403250400Y66530400D03*
X-403250400Y64330400D03*
X-400659600Y66581200D03*
X-400659600Y64381200D03*
D14*
X-390347200Y36118800D03*
D15*
X-390347200Y38658800D03*
D14*
X-384759200Y36068000D03*
D15*
X-384759200Y38608000D03*
D14*
X-374497600Y45212000D03*
D15*
X-371957600Y45212000D03*
D14*
X-374497600Y42113200D03*
D15*
X-371957600Y42113200D03*
D14*
X-374497600Y39014400D03*
D15*
X-371957600Y39014400D03*
D14*
X-374497600Y35915600D03*
D15*
X-371957600Y35915600D03*
D12*
X-490372400Y55333900D03*
D13*
X-480489260Y84861400D03*
X-486488740Y84861400D03*
X-483489000Y80162400D03*
D14*
X-437413400Y68478400D03*
D15*
X-439953400Y68478400D03*
D13*
X-480870260Y72224900D03*
X-486869740Y72224900D03*
X-483870000Y67525900D03*
D14*
X-458749400Y84353400D03*
D15*
X-458749400Y81813400D03*
D16*
X-471957400Y54508400D03*
D17*
X-469417400Y54508400D03*
X-466877400Y54508400D03*
X-464337400Y54508400D03*
X-461797400Y54508400D03*
D16*
X-449097400Y54508400D03*
D17*
X-451637400Y54508400D03*
X-454177400Y54508400D03*
X-456717400Y54508400D03*
D18*
X-441731400Y63842900D03*
D19*
X-441731400Y61302900D03*
X-444271400Y63842900D03*
X-444271400Y61302900D03*
X-446811400Y63842900D03*
X-446811400Y61302900D03*
D20*
X-437413400Y95275400D03*
D21*
X-437413400Y92735400D03*
X-437413400Y90195400D03*
X-437413400Y87655400D03*
D20*
X-470115900Y114325400D03*
D21*
X-470115900Y111785400D03*
X-470115900Y109245400D03*
D20*
X-466623400Y114325400D03*
D21*
X-466623400Y111785400D03*
X-466623400Y109245400D03*
D20*
X-473608400Y114325400D03*
D21*
X-473608400Y111785400D03*
X-473608400Y109245400D03*
D20*
X-477100900Y114325400D03*
D21*
X-477100900Y111785400D03*
X-477100900Y109245400D03*
D20*
X-480593400Y114325400D03*
D21*
X-480593400Y111785400D03*
X-480593400Y109245400D03*
D20*
X-484085900Y114325400D03*
D21*
X-484085900Y111785400D03*
X-484085900Y109245400D03*
D20*
X-487578400Y114325400D03*
D21*
X-487578400Y111785400D03*
X-487578400Y109245400D03*
D20*
X-491070900Y114325400D03*
D21*
X-491070900Y111785400D03*
X-491070900Y109245400D03*
D20*
X-437349900Y114325400D03*
D21*
X-437349900Y111785400D03*
X-437349900Y109245400D03*
D20*
X-440842400Y114325400D03*
D21*
X-440842400Y111785400D03*
X-440842400Y109245400D03*
D20*
X-444334900Y114325400D03*
D21*
X-444334900Y111785400D03*
X-444334900Y109245400D03*
D20*
X-447827400Y114325400D03*
D21*
X-447827400Y111785400D03*
X-447827400Y109245400D03*
D20*
X-451319900Y114325400D03*
D21*
X-451319900Y111785400D03*
X-451319900Y109245400D03*
D20*
X-454812400Y114325400D03*
D21*
X-454812400Y111785400D03*
X-454812400Y109245400D03*
D20*
X-458304900Y114325400D03*
D21*
X-458304900Y111785400D03*
X-458304900Y109245400D03*
D20*
X-461797400Y114325400D03*
D21*
X-461797400Y111785400D03*
X-461797400Y109245400D03*
D18*
X-471957400Y57048400D03*
D19*
X-471957400Y59588400D03*
X-469417400Y57048400D03*
X-469417400Y59588400D03*
X-466877400Y57048400D03*
X-466877400Y59588400D03*
X-464337400Y57048400D03*
X-464337400Y59588400D03*
X-461797400Y57048400D03*
X-461797400Y59588400D03*
D18*
X-439889900Y81368900D03*
D19*
X-437349900Y81368900D03*
X-439889900Y78828900D03*
X-437349900Y78828900D03*
X-439889900Y76288900D03*
X-437349900Y76288900D03*
X-439889900Y73748900D03*
X-437349900Y73748900D03*
D12*
X-436460900Y55333900D03*
X-490372400Y101307900D03*
X-436460900Y101307900D03*
D22*
X-465353400Y72645400D03*
X-465353400Y69645400D03*
X-451002400Y67740400D03*
X-451002400Y70740400D03*
X-462813400Y78614400D03*
X-462813400Y75614400D03*
D20*
X-375818400Y98501200D03*
D21*
X-375818400Y95961200D03*
X-375818400Y93421200D03*
X-375818400Y90881200D03*
D20*
X-372719600Y98501200D03*
D21*
X-372719600Y95961200D03*
X-372719600Y93421200D03*
X-372719600Y90881200D03*
D14*
X-372922800Y83159600D03*
D15*
X-372922800Y80619600D03*
D14*
X-400710400Y108305600D03*
D15*
X-400710400Y110845600D03*
D14*
X-406908000Y108305600D03*
D15*
X-406908000Y110845600D03*
D14*
X-410006800Y108305600D03*
D15*
X-410006800Y110845600D03*
D14*
X-413105600Y108305600D03*
D15*
X-413105600Y110845600D03*
D14*
X-416204400Y108305600D03*
D15*
X-416204400Y110845600D03*
D14*
X-419303200Y108305600D03*
D15*
X-419303200Y110845600D03*
D14*
X-422402000Y108305600D03*
D15*
X-422402000Y110845600D03*
D14*
X-375920000Y108305600D03*
D15*
X-375920000Y110845600D03*
D14*
X-379018800Y108305600D03*
D15*
X-379018800Y110845600D03*
D14*
X-382117600Y108305600D03*
D15*
X-382117600Y110845600D03*
D14*
X-385216400Y108305600D03*
D15*
X-385216400Y110845600D03*
D14*
X-388315200Y108305600D03*
D15*
X-388315200Y110845600D03*
D14*
X-391414000Y108305600D03*
D15*
X-391414000Y110845600D03*
D14*
X-394512800Y108305600D03*
D15*
X-394512800Y110845600D03*
D14*
X-397611600Y108305600D03*
D15*
X-397611600Y110845600D03*
D14*
X-403809200Y108305600D03*
D15*
X-403809200Y110845600D03*
D20*
X-376021600Y140208000D03*
D21*
X-376021600Y137668000D03*
X-376021600Y135128000D03*
X-376021600Y132588000D03*
D20*
X-372922800Y140208000D03*
D21*
X-372922800Y137668000D03*
X-372922800Y135128000D03*
X-372922800Y132588000D03*
D14*
X-373126000Y124866400D03*
D15*
X-373126000Y122326400D03*
D14*
X-400913600Y150012400D03*
D15*
X-400913600Y152552400D03*
D14*
X-407111200Y150012400D03*
D15*
X-407111200Y152552400D03*
D14*
X-410210000Y150012400D03*
D15*
X-410210000Y152552400D03*
D14*
X-413308800Y150012400D03*
D15*
X-413308800Y152552400D03*
D14*
X-416407600Y150012400D03*
D15*
X-416407600Y152552400D03*
D14*
X-419506400Y150012400D03*
D15*
X-419506400Y152552400D03*
D14*
X-422605200Y150012400D03*
D15*
X-422605200Y152552400D03*
D14*
X-376123200Y150012400D03*
D15*
X-376123200Y152552400D03*
D14*
X-379222000Y150012400D03*
D15*
X-379222000Y152552400D03*
D14*
X-382320800Y150012400D03*
D15*
X-382320800Y152552400D03*
D14*
X-385419600Y150012400D03*
D15*
X-385419600Y152552400D03*
D14*
X-388518400Y150012400D03*
D15*
X-388518400Y152552400D03*
D14*
X-391617200Y150012400D03*
D15*
X-391617200Y152552400D03*
D14*
X-394716000Y150012400D03*
D15*
X-394716000Y152552400D03*
D14*
X-397814800Y150012400D03*
D15*
X-397814800Y152552400D03*
D14*
X-404012400Y150012400D03*
D15*
X-404012400Y152552400D03*
D14*
X-459867000Y130606800D03*
D15*
X-459867000Y128066800D03*
D14*
X-460121000Y140131800D03*
D15*
X-460121000Y137591800D03*
D18*
X-458978000Y158546800D03*
D19*
X-458978000Y161086800D03*
X-456438000Y158546800D03*
X-456438000Y161086800D03*
X-453898000Y158546800D03*
X-453898000Y161086800D03*
X-451358000Y158546800D03*
X-451358000Y161086800D03*
D18*
X-445579500Y158610300D03*
D19*
X-445579500Y161150300D03*
X-443039500Y158610300D03*
X-443039500Y161150300D03*
X-440499500Y158610300D03*
X-440499500Y161150300D03*
X-437959500Y158610300D03*
X-437959500Y161150300D03*
D27*
X-448818000Y128574800D03*
X-448818000Y150164800D03*
D14*
X-492582200Y130556000D03*
D15*
X-492582200Y128016000D03*
D14*
X-492836200Y140081000D03*
D15*
X-492836200Y137541000D03*
D18*
X-491693200Y158496000D03*
D19*
X-491693200Y161036000D03*
X-489153200Y158496000D03*
X-489153200Y161036000D03*
X-486613200Y158496000D03*
X-486613200Y161036000D03*
X-484073200Y158496000D03*
X-484073200Y161036000D03*
D18*
X-478294700Y158559500D03*
D19*
X-478294700Y161099500D03*
X-475754700Y158559500D03*
X-475754700Y161099500D03*
X-473214700Y158559500D03*
X-473214700Y161099500D03*
X-470674700Y158559500D03*
X-470674700Y161099500D03*
D27*
X-481533200Y128524000D03*
X-481533200Y150114000D03*
D14*
X-321491650Y129485350D03*
D15*
X-318951650Y129485350D03*
D14*
X-331016650Y129231350D03*
D15*
X-328476650Y129231350D03*
D18*
X-349431650Y130374350D03*
D19*
X-351971650Y130374350D03*
X-349431650Y132914350D03*
X-351971650Y132914350D03*
X-349431650Y135454350D03*
X-351971650Y135454350D03*
X-349431650Y137994350D03*
X-351971650Y137994350D03*
D18*
X-349495150Y143772850D03*
D19*
X-352035150Y143772850D03*
X-349495150Y146312850D03*
X-352035150Y146312850D03*
X-349495150Y148852850D03*
X-352035150Y148852850D03*
X-349495150Y151392850D03*
X-352035150Y151392850D03*
D27*
X-319459650Y140534350D03*
X-341049650Y140534350D03*
D28*
X-344947200Y62876800D03*
X-320639400Y62495800D03*
D20*
X-311048400Y41960800D03*
D21*
X-311048400Y39420800D03*
X-311048400Y36880800D03*
X-311048400Y34340800D03*
D20*
X-307949600Y41960800D03*
D21*
X-307949600Y39420800D03*
X-307949600Y36880800D03*
X-307949600Y34340800D03*
D14*
X-308152800Y26619200D03*
D15*
X-308152800Y24079200D03*
D14*
X-335940400Y51765200D03*
D15*
X-335940400Y54305200D03*
D14*
X-342138000Y51765200D03*
D15*
X-342138000Y54305200D03*
D14*
X-345236800Y51765200D03*
D15*
X-345236800Y54305200D03*
D14*
X-348335600Y51765200D03*
D15*
X-348335600Y54305200D03*
D14*
X-351434400Y51765200D03*
D15*
X-351434400Y54305200D03*
D14*
X-354533200Y51765200D03*
D15*
X-354533200Y54305200D03*
D14*
X-357632000Y51765200D03*
D15*
X-357632000Y54305200D03*
D14*
X-311150000Y51765200D03*
D15*
X-311150000Y54305200D03*
D14*
X-314248800Y51765200D03*
D15*
X-314248800Y54305200D03*
D14*
X-317347600Y51765200D03*
D15*
X-317347600Y54305200D03*
D14*
X-320446400Y51765200D03*
D15*
X-320446400Y54305200D03*
D14*
X-323545200Y51765200D03*
D15*
X-323545200Y54305200D03*
D14*
X-326644000Y51765200D03*
D15*
X-326644000Y54305200D03*
D14*
X-329742800Y51765200D03*
D15*
X-329742800Y54305200D03*
D14*
X-332841600Y51765200D03*
D15*
X-332841600Y54305200D03*
D14*
X-339039200Y51765200D03*
D15*
X-339039200Y54305200D03*
D23*
X-330591200Y-10820400D03*
X-328691200Y-10820400D03*
X-336433200Y-10820400D03*
X-334533200Y-10820400D03*
D24*
X-334975200Y-5928400D03*
X-334975200Y-4028400D03*
X-336499200Y-340400D03*
X-336499200Y1559600D03*
D23*
X-336941200Y5943600D03*
X-335041200Y5943600D03*
D24*
X-336499200Y-5928400D03*
X-336499200Y-4028400D03*
X-324815200Y421600D03*
X-324815200Y2321600D03*
X-322783200Y421600D03*
X-322783200Y2321600D03*
D25*
X-338499200Y-13360400D03*
X-334499200Y-13360400D03*
D14*
X-308813200Y3556000D03*
D15*
X-306273200Y3556000D03*
D14*
X-308813200Y508000D03*
D15*
X-306273200Y508000D03*
D14*
X-308813200Y-2540000D03*
D15*
X-306273200Y-2540000D03*
D14*
X-308813200Y-5588000D03*
D15*
X-306273200Y-5588000D03*
D14*
X-348437200Y-16916400D03*
D15*
X-348437200Y-19456400D03*
D14*
X-351485200Y-16916400D03*
D15*
X-351485200Y-19456400D03*
D14*
X-354533200Y-16916400D03*
D15*
X-354533200Y-19456400D03*
D14*
X-357581200Y-16916400D03*
D15*
X-357581200Y-19456400D03*
D14*
X-308813200Y15748000D03*
D15*
X-306273200Y15748000D03*
D14*
X-308813200Y12700000D03*
D15*
X-306273200Y12700000D03*
D14*
X-308813200Y9652000D03*
D15*
X-306273200Y9652000D03*
D14*
X-308813200Y6604000D03*
D15*
X-306273200Y6604000D03*
D16*
X-323443600Y12395200D03*
D17*
X-325983600Y12395200D03*
X-328523600Y12395200D03*
X-331063600Y12395200D03*
D16*
X-331419200Y16611600D03*
D17*
X-328879200Y16611600D03*
X-326339200Y16611600D03*
X-323799200Y16611600D03*
D14*
X-358851200Y2641600D03*
D15*
X-358851200Y101600D03*
D26*
X-337566000Y12631600D03*
X-337566000Y10431600D03*
X-334975200Y12682400D03*
X-334975200Y10482400D03*
D14*
X-324662800Y-17780000D03*
D15*
X-324662800Y-15240000D03*
D14*
X-319074800Y-17830800D03*
D15*
X-319074800Y-15290800D03*
D14*
X-308813200Y-8686800D03*
D15*
X-306273200Y-8686800D03*
D14*
X-308813200Y-11785600D03*
D15*
X-306273200Y-11785600D03*
D14*
X-308813200Y-14884400D03*
D15*
X-306273200Y-14884400D03*
D14*
X-308813200Y-17983200D03*
D15*
X-306273200Y-17983200D03*
M02*
