G04 #@! TF.FileFunction,Profile,NP*
%FSLAX46Y46*%
G04 Gerber Fmt 4.6, Leading zero omitted, Abs format (unit mm)*
G04 Created by KiCad (PCBNEW 4.0.0-rc2-stable) date 7/14/2016 8:37:10 PM*
%MOMM*%
G01*
G04 APERTURE LIST*
%ADD10C,0.100000*%
%ADD11C,0.150000*%
G04 APERTURE END LIST*
D10*
D11*
X-499719600Y166471600D02*
X-499719600Y-22504400D01*
X-303123600Y166471600D02*
X-499719600Y166471600D01*
X-303123600Y-22504400D02*
X-303123600Y166471600D01*
X-499719600Y-22504400D02*
X-303123600Y-22504400D01*
X-435152800Y-15113000D02*
X-433628800Y-15113000D01*
X-435254400Y52603400D02*
X-433730400Y52603400D01*
X-335447200Y120426800D02*
X-335447200Y115926800D01*
X-354947200Y120426800D02*
X-354947200Y115926800D01*
X-335447200Y115926800D02*
X-335447200Y60426800D01*
X-353197200Y122176800D02*
X-337197200Y122176800D01*
X-354947200Y60426800D02*
X-354947200Y115926800D01*
X-337197200Y58676800D02*
X-353197200Y58676800D01*
X-335447200Y120426800D02*
G75*
G03X-337197200Y122176800I-1750000J0D01*
G01*
X-337197200Y58676800D02*
G75*
G03X-335447200Y60426800I0J1750000D01*
G01*
X-353197200Y122176800D02*
G75*
G03X-354947200Y120426800I0J-1750000D01*
G01*
X-354947200Y60426800D02*
G75*
G03X-353197200Y58676800I1750000J0D01*
G01*
X-311139400Y120045800D02*
X-311139400Y115545800D01*
X-330639400Y120045800D02*
X-330639400Y115545800D01*
X-311139400Y115545800D02*
X-311139400Y60045800D01*
X-328889400Y121795800D02*
X-312889400Y121795800D01*
X-330639400Y60045800D02*
X-330639400Y115545800D01*
X-312889400Y58295800D02*
X-328889400Y58295800D01*
X-311139400Y120045800D02*
G75*
G03X-312889400Y121795800I-1750000J0D01*
G01*
X-312889400Y58295800D02*
G75*
G03X-311139400Y60045800I0J1750000D01*
G01*
X-328889400Y121795800D02*
G75*
G03X-330639400Y120045800I0J-1750000D01*
G01*
X-330639400Y60045800D02*
G75*
G03X-328889400Y58295800I1750000J0D01*
G01*
X-303174400Y-22250400D02*
X-361645200Y-22250400D01*
X-303174400Y-22250400D02*
X-303174400Y18643600D01*
M02*
