M48
;DRILL file {KiCad 4.0.0-rc2-stable} date 7/14/2016 8:06:35 PM
;FORMAT={-:-/ absolute / inch / decimal}
FMAT,2
INCH,TZ
T1C0.016
T2C0.024
T3C0.028
T4C0.039
T5C0.040
T6C0.087
T7C0.130
%
G90
G05
M72
T1
X-19.433Y6.
X-19.428Y6.04
X-19.348Y5.87
X-19.263Y5.985
X-19.243Y5.88
X-19.168Y5.855
X-19.078Y5.96
X-18.982Y3.9522
X-18.978Y1.2862
X-18.88Y3.608
X-18.876Y0.942
X-18.833Y6.085
X-18.828Y6.04
X-18.818Y5.925
X-18.788Y5.895
X-18.611Y3.741
X-18.607Y1.075
X-18.468Y5.985
X-18.441Y2.486
X-18.437Y-0.18
X-18.336Y2.926
X-18.332Y0.26
X-18.321Y2.811
X-18.317Y0.145
X-18.27Y4.314
X-18.266Y1.648
X-18.261Y3.3985
X-18.257Y0.7325
X-18.256Y3.4685
X-18.252Y0.8025
X-18.226Y3.156
X-18.222Y0.49
X-18.171Y3.931
X-18.171Y2.451
X-18.167Y1.265
X-18.167Y-0.215
X-18.161Y2.751
X-18.157Y0.085
X-18.145Y6.002
X-18.14Y6.042
X-18.136Y2.866
X-18.136Y2.471
X-18.132Y0.2
X-18.132Y-0.195
X-18.101Y2.556
X-18.097Y-0.11
X-18.081Y2.836
X-18.077Y0.17
X-18.068Y3.45
X-18.066Y2.566
X-18.064Y0.784
X-18.062Y-0.1
X-18.06Y5.872
X-18.021Y2.781
X-18.017Y0.115
X-18.016Y2.506
X-18.012Y-0.16
X-17.994Y3.512
X-17.99Y0.846
X-17.976Y2.866
X-17.975Y5.987
X-17.972Y0.2
X-17.9635Y3.8185
X-17.9595Y1.1525
X-17.955Y5.882
X-17.931Y3.641
X-17.931Y2.471
X-17.927Y0.975
X-17.927Y-0.195
X-17.926Y3.7835
X-17.922Y1.1175
X-17.908Y4.04
X-17.904Y1.374
X-17.898Y2.33
X-17.894Y-0.336
X-17.8935Y3.716
X-17.8895Y1.05
X-17.88Y5.857
X-17.846Y2.641
X-17.846Y2.601
X-17.842Y-0.025
X-17.842Y-0.065
X-17.808Y3.39
X-17.804Y0.724
X-17.79Y5.962
X-17.7435Y3.156
X-17.742Y3.372
X-17.7395Y0.49
X-17.738Y0.706
X-17.731Y2.851
X-17.727Y0.185
X-17.696Y3.191
X-17.694Y3.49
X-17.692Y0.525
X-17.69Y0.824
X-17.651Y2.811
X-17.647Y0.145
X-17.596Y3.526
X-17.592Y0.86
X-17.586Y4.006
X-17.582Y1.34
X-17.558Y3.76
X-17.554Y1.094
X-17.545Y6.087
X-17.541Y2.811
X-17.54Y6.042
X-17.537Y0.145
X-17.53Y5.927
X-17.5235Y3.121
X-17.5195Y0.455
X-17.501Y2.306
X-17.5Y5.897
X-17.497Y-0.36
X-17.491Y2.641
X-17.487Y-0.025
X-17.466Y2.851
X-17.462Y0.185
X-17.461Y2.976
X-17.457Y0.31
X-17.406Y2.751
X-17.4035Y3.4535
X-17.402Y0.085
X-17.3995Y0.7875
X-17.398Y4.176
X-17.394Y1.51
X-17.378Y3.386
X-17.374Y0.72
X-17.32Y3.694
X-17.316Y1.028
X-17.312Y3.808
X-17.308Y1.142
X-17.288Y3.364
X-17.286Y2.342
X-17.284Y0.698
X-17.282Y-0.324
X-17.18Y5.987
X-16.752Y5.39
X-16.744Y3.748
X-16.742Y0.534
X-16.734Y2.366
X-16.636Y5.652
X-16.628Y4.01
X-16.43Y5.312
X-16.422Y3.67
X-16.352Y5.2
X-16.344Y3.558
X-16.32Y0.3
X-16.312Y2.132
X-16.292Y5.39
X-16.284Y3.748
X-16.274Y5.75
X-16.266Y4.108
X-16.262Y5.32
X-16.262Y0.124
X-16.254Y3.678
X-16.254Y1.956
X-16.252Y5.54
X-16.252Y0.914
X-16.244Y3.898
X-16.244Y2.746
X-16.072Y0.664
X-16.064Y2.496
X-16.048Y5.268
X-16.042Y5.62
X-16.04Y3.626
X-16.034Y3.978
X-16.012Y0.304
X-16.012Y0.214
X-16.004Y2.136
X-16.004Y2.046
X-15.982Y0.134
X-15.974Y1.966
X-15.974Y0.38
X-15.966Y2.212
X-15.892Y0.574
X-15.884Y2.406
X-15.872Y0.354
X-15.872Y0.114
X-15.864Y2.186
X-15.864Y1.946
X-15.862Y0.616
X-15.862Y0.474
X-15.854Y2.448
X-15.854Y2.306
X-15.846Y5.112
X-15.842Y-0.11
X-15.838Y3.47
X-15.834Y1.722
X-15.82Y0.622
X-15.812Y2.454
X-15.8Y-0.096
X-15.792Y1.736
X-15.782Y0.304
X-15.774Y2.136
X-15.756Y0.242
X-15.748Y2.074
X-15.74Y0.212
X-15.732Y2.044
X-15.732Y0.334
X-15.724Y2.166
X-15.722Y0.054
X-15.716Y0.184
X-15.714Y1.886
X-15.714Y0.512
X-15.712Y0.674
X-15.708Y2.016
X-15.706Y2.344
X-15.704Y2.506
X-15.694Y0.154
X-15.686Y1.986
X-15.682Y5.204
X-15.674Y3.562
X-15.672Y0.304
X-15.664Y2.136
X-15.6395Y0.274
X-15.6315Y2.106
X-15.624Y0.58
X-15.616Y2.412
X-15.6145Y0.4865
X-15.6145Y0.1515
X-15.612Y-0.086
X-15.6065Y2.3185
X-15.6065Y1.9835
X-15.604Y5.242
X-15.604Y1.746
X-15.596Y3.6
X-15.594Y0.35
X-15.586Y2.182
X-15.5745Y0.294
X-15.5665Y2.126
X-15.546Y0.494
X-15.538Y2.326
X-15.532Y-0.086
X-15.53Y0.314
X-15.524Y1.746
X-15.522Y2.146
X-15.522Y-0.326
X-15.514Y1.506
X-15.422Y0.044
X-15.414Y1.876
X-15.354Y-0.012
X-15.346Y1.82
X-15.342Y0.3815
X-15.342Y0.304
X-15.334Y2.2135
X-15.334Y2.136
X-15.324Y5.168
X-15.316Y3.526
X-15.312Y-0.014
X-15.31Y-0.16
X-15.304Y1.818
X-15.302Y1.672
X-15.27Y-0.016
X-15.264Y0.134
X-15.262Y1.816
X-15.256Y1.966
X-15.252Y0.096
X-15.244Y1.928
X-15.242Y0.4365
X-15.236Y0.38
X-15.234Y2.2685
X-15.228Y2.212
X-15.228Y-0.02
X-15.22Y1.812
X-15.2195Y0.3065
X-15.2115Y2.1385
X-15.168Y0.408
X-15.16Y2.24
X-15.13Y0.402
X-15.122Y2.234
X-14.194Y1.522
X-14.148Y0.244
X-14.078Y1.784
X-13.872Y1.444
X-13.794Y1.332
X-13.734Y1.522
X-13.726Y0.01
X-13.716Y1.882
X-13.704Y1.452
X-13.694Y1.672
X-13.668Y-0.166
X-13.658Y0.624
X-13.6022Y5.6578
X-13.5572Y5.6628
X-13.5572Y5.0628
X-13.5172Y5.0578
X-13.5022Y6.0228
X-13.5022Y5.2278
X-13.49Y1.4
X-13.484Y1.752
X-13.478Y0.374
X-13.4772Y5.4128
X-13.4422Y5.6728
X-13.418Y0.014
X-13.418Y-0.076
X-13.4122Y5.7028
X-13.3972Y5.2478
X-13.388Y-0.156
X-13.3872Y5.1428
X-13.38Y0.09
X-13.3722Y5.3228
X-13.298Y0.284
X-13.288Y1.244
X-13.278Y0.064
X-13.278Y-0.176
X-13.268Y0.326
X-13.268Y0.184
X-13.248Y-0.4
X-13.226Y0.332
X-13.206Y-0.386
X-13.188Y0.014
X-13.162Y-0.048
X-13.146Y-0.078
X-13.138Y0.044
X-13.128Y-0.236
X-13.124Y1.336
X-13.122Y-0.106
X-13.12Y0.222
X-13.118Y0.384
X-13.1Y-0.136
X-13.078Y0.014
X-13.046Y1.374
X-13.0455Y-0.016
X-13.03Y0.29
X-13.0205Y0.1965
X-13.0205Y-0.1385
X-13.018Y-0.376
X-13.Y0.06
X-12.9805Y0.004
X-12.952Y0.204
X-12.938Y-0.376
X-12.936Y0.024
X-12.928Y-0.616
X-12.828Y-0.246
X-12.766Y1.3
X-12.76Y-0.302
X-12.748Y0.0915
X-12.748Y0.014
X-12.718Y-0.304
X-12.716Y-0.45
X-12.676Y-0.306
X-12.67Y-0.156
X-12.658Y-0.194
X-12.648Y0.1465
X-12.642Y0.09
X-12.634Y-0.31
X-12.6255Y0.0165
X-12.574Y0.118
X-12.536Y0.112
T2
X-19.1743Y5.6913
X-18.883Y5.265
X-18.678Y5.6
X-18.558Y5.225
X-18.5543Y5.7063
X-18.478Y5.29
X-17.8863Y5.6933
X-17.595Y5.267
X-17.39Y5.602
X-17.27Y5.227
X-17.2663Y5.7083
X-17.19Y5.292
X-16.746Y4.858
X-16.738Y3.216
X-16.57Y5.374
X-16.562Y3.732
X-16.512Y5.072
X-16.504Y3.43
X-16.332Y0.694
X-16.332Y0.544
X-16.324Y2.526
X-16.324Y2.376
X-16.312Y0.614
X-16.304Y2.446
X-16.048Y-0.384
X-16.04Y1.448
X-15.88Y5.6
X-15.88Y5.428
X-15.872Y3.958
X-15.872Y3.786
X-15.706Y-0.52
X-15.698Y1.312
X-15.677Y0.619
X-15.669Y2.451
X-15.4795Y0.669
X-15.4715Y2.501
X-15.362Y0.689
X-15.354Y2.521
X-14.188Y0.99
X-14.012Y1.506
X-13.954Y1.204
X-13.738Y0.404
X-13.738Y0.254
X-13.718Y0.324
X-13.454Y-0.674
X-13.322Y1.732
X-13.322Y1.56
X-13.2234Y5.9366
X-13.2084Y5.3166
X-13.1172Y5.8128
X-13.112Y-0.81
X-13.083Y0.329
X-12.8855Y0.379
X-12.8072Y6.0128
X-12.7822Y5.6078
X-12.768Y0.399
X-12.7422Y5.9328
T3
X-17.521Y2.926
X-17.517Y0.26
T5
X-19.403Y5.515
X-19.403Y5.415
X-19.393Y5.14
X-19.393Y5.04
X-19.358Y6.34
X-19.358Y6.24
X-19.3335Y4.501
X-19.3335Y4.401
X-19.3335Y4.301
X-19.3295Y1.835
X-19.3295Y1.735
X-19.3295Y1.635
X-19.258Y6.34
X-19.258Y6.24
X-19.196Y4.501
X-19.196Y4.401
X-19.196Y4.301
X-19.192Y1.835
X-19.192Y1.735
X-19.192Y1.635
X-19.158Y6.34
X-19.158Y6.24
X-19.0585Y4.501
X-19.0585Y4.401
X-19.0585Y4.301
X-19.058Y6.34
X-19.058Y6.24
X-19.0545Y1.835
X-19.0545Y1.735
X-19.0545Y1.635
X-18.921Y4.501
X-18.921Y4.401
X-18.921Y4.301
X-18.917Y1.835
X-18.917Y1.735
X-18.917Y1.635
X-18.8305Y6.3425
X-18.8305Y6.2425
X-18.7835Y4.501
X-18.7835Y4.401
X-18.7835Y4.301
X-18.7795Y1.835
X-18.7795Y1.735
X-18.7795Y1.635
X-18.7305Y6.3425
X-18.7305Y6.2425
X-18.646Y4.501
X-18.646Y4.401
X-18.646Y4.301
X-18.642Y1.835
X-18.642Y1.735
X-18.642Y1.635
X-18.6305Y6.3425
X-18.6305Y6.2425
X-18.581Y2.346
X-18.581Y2.246
X-18.581Y2.146
X-18.577Y-0.32
X-18.577Y-0.42
X-18.577Y-0.52
X-18.5305Y6.3425
X-18.5305Y6.2425
X-18.5085Y4.501
X-18.5085Y4.401
X-18.5085Y4.301
X-18.5045Y1.835
X-18.5045Y1.735
X-18.5045Y1.635
X-18.481Y2.346
X-18.481Y2.246
X-18.481Y2.146
X-18.477Y-0.32
X-18.477Y-0.42
X-18.477Y-0.52
X-18.381Y2.346
X-18.381Y2.246
X-18.381Y2.146
X-18.377Y-0.32
X-18.377Y-0.42
X-18.377Y-0.52
X-18.371Y4.501
X-18.371Y4.401
X-18.371Y4.301
X-18.367Y1.835
X-18.367Y1.735
X-18.367Y1.635
X-18.281Y2.346
X-18.281Y2.246
X-18.281Y2.146
X-18.277Y-0.32
X-18.277Y-0.42
X-18.277Y-0.52
X-18.181Y4.501
X-18.181Y4.401
X-18.181Y4.301
X-18.181Y2.346
X-18.181Y2.246
X-18.181Y2.146
X-18.177Y1.835
X-18.177Y1.735
X-18.177Y1.635
X-18.177Y-0.32
X-18.177Y-0.42
X-18.177Y-0.52
X-18.115Y5.517
X-18.115Y5.417
X-18.105Y5.142
X-18.105Y5.042
X-18.07Y6.342
X-18.07Y6.242
X-18.061Y3.321
X-18.061Y3.221
X-18.057Y0.655
X-18.057Y0.555
X-18.0435Y4.501
X-18.0435Y4.401
X-18.0435Y4.301
X-18.0395Y1.835
X-18.0395Y1.735
X-18.0395Y1.635
X-17.981Y2.146
X-17.977Y-0.52
X-17.97Y6.342
X-17.97Y6.242
X-17.906Y4.501
X-17.906Y4.401
X-17.906Y4.301
X-17.902Y1.835
X-17.902Y1.735
X-17.902Y1.635
X-17.881Y2.146
X-17.877Y-0.52
X-17.87Y6.342
X-17.87Y6.242
X-17.781Y2.146
X-17.777Y-0.52
X-17.77Y6.342
X-17.77Y6.242
X-17.7685Y4.501
X-17.7685Y4.401
X-17.7685Y4.301
X-17.7645Y1.835
X-17.7645Y1.735
X-17.7645Y1.635
X-17.681Y2.146
X-17.677Y-0.52
X-17.631Y4.501
X-17.631Y4.401
X-17.631Y4.301
X-17.627Y1.835
X-17.627Y1.735
X-17.627Y1.635
X-17.591Y2.5135
X-17.591Y2.4135
X-17.587Y-0.1525
X-17.587Y-0.2525
X-17.5425Y6.3445
X-17.5425Y6.2445
X-17.4935Y4.501
X-17.4935Y4.401
X-17.4935Y4.301
X-17.491Y2.5135
X-17.491Y2.4135
X-17.4895Y1.835
X-17.4895Y1.735
X-17.4895Y1.635
X-17.487Y-0.1525
X-17.487Y-0.2525
X-17.4425Y6.3445
X-17.4425Y6.2445
X-17.391Y2.5135
X-17.391Y2.4135
X-17.387Y-0.1525
X-17.387Y-0.2525
X-17.356Y4.501
X-17.356Y4.401
X-17.356Y4.301
X-17.352Y1.835
X-17.352Y1.735
X-17.352Y1.635
X-17.3425Y6.3445
X-17.3425Y6.2445
X-17.321Y2.696
X-17.3185Y3.2035
X-17.3185Y3.1035
X-17.3185Y3.0035
X-17.3185Y2.9035
X-17.317Y0.03
X-17.3145Y0.5375
X-17.3145Y0.4375
X-17.3145Y0.3375
X-17.3145Y0.2375
X-17.2425Y6.3445
X-17.2425Y6.2445
X-17.221Y3.751
X-17.221Y3.651
X-17.221Y3.551
X-17.221Y3.451
X-17.221Y2.696
X-17.2185Y4.501
X-17.2185Y4.401
X-17.2185Y4.301
X-17.2185Y3.2035
X-17.2185Y3.1035
X-17.2185Y3.0035
X-17.2185Y2.9035
X-17.217Y1.085
X-17.217Y0.985
X-17.217Y0.885
X-17.217Y0.785
X-17.217Y0.03
X-17.2145Y1.835
X-17.2145Y1.735
X-17.2145Y1.635
X-17.2145Y0.5375
X-17.2145Y0.4375
X-17.2145Y0.3375
X-17.2145Y0.2375
X-16.722Y0.394
X-16.722Y0.294
X-16.714Y2.226
X-16.714Y2.126
X-16.672Y-0.376
X-16.672Y-0.476
X-16.664Y1.456
X-16.664Y1.356
X-16.638Y6.006
X-16.638Y5.906
X-16.63Y4.364
X-16.63Y4.264
X-16.552Y-0.376
X-16.552Y-0.476
X-16.544Y1.456
X-16.544Y1.356
X-16.516Y6.006
X-16.516Y5.906
X-16.508Y4.364
X-16.508Y4.264
X-16.432Y-0.376
X-16.432Y-0.476
X-16.424Y1.456
X-16.424Y1.356
X-16.394Y6.006
X-16.394Y5.906
X-16.386Y4.364
X-16.386Y4.264
X-16.312Y-0.376
X-16.312Y-0.476
X-16.304Y1.456
X-16.304Y1.356
X-16.272Y6.006
X-16.272Y5.906
X-16.264Y4.364
X-16.264Y4.264
X-16.15Y6.006
X-16.15Y5.906
X-16.142Y4.364
X-16.142Y4.264
X-16.028Y6.006
X-16.028Y5.906
X-16.02Y4.364
X-16.02Y4.264
X-15.906Y6.006
X-15.906Y5.906
X-15.898Y4.364
X-15.898Y4.264
X-15.784Y6.006
X-15.784Y5.906
X-15.776Y4.364
X-15.776Y4.264
X-15.662Y6.006
X-15.662Y5.906
X-15.654Y4.364
X-15.654Y4.264
X-15.642Y0.944
X-15.634Y2.776
X-15.628Y0.778
X-15.62Y2.61
X-15.542Y0.944
X-15.54Y6.006
X-15.54Y5.906
X-15.534Y2.776
X-15.532Y4.364
X-15.532Y4.264
X-15.528Y0.778
X-15.52Y2.61
X-15.442Y0.944
X-15.434Y2.776
X-15.428Y0.778
X-15.42Y2.61
X-15.418Y6.006
X-15.418Y5.906
X-15.41Y4.364
X-15.41Y4.264
X-15.376Y-0.31
X-15.376Y-0.41
X-15.368Y1.522
X-15.368Y1.422
X-15.342Y0.944
X-15.334Y2.776
X-15.328Y0.778
X-15.32Y2.61
X-15.296Y6.006
X-15.296Y5.906
X-15.288Y4.364
X-15.288Y4.264
X-15.174Y6.006
X-15.174Y5.906
X-15.166Y4.364
X-15.166Y4.264
X-15.156Y-0.312
X-15.156Y-0.412
X-15.148Y1.52
X-15.148Y1.42
X-15.052Y6.006
X-15.052Y5.906
X-15.044Y4.364
X-15.044Y4.264
X-14.93Y6.006
X-14.93Y5.906
X-14.922Y4.364
X-14.922Y4.264
X-14.808Y6.006
X-14.808Y5.906
X-14.804Y5.52
X-14.804Y5.42
X-14.804Y5.32
X-14.804Y5.22
X-14.8Y4.364
X-14.8Y4.264
X-14.796Y3.878
X-14.796Y3.778
X-14.796Y3.678
X-14.796Y3.578
X-14.752Y0.91
X-14.752Y0.79
X-14.752Y0.67
X-14.752Y0.55
X-14.752Y0.43
X-14.752Y0.31
X-14.752Y0.19
X-14.752Y0.07
X-14.752Y-0.052
X-14.752Y-0.174
X-14.752Y-0.296
X-14.752Y-0.418
X-14.744Y2.742
X-14.744Y2.622
X-14.744Y2.502
X-14.744Y2.382
X-14.744Y2.262
X-14.744Y2.142
X-14.744Y2.022
X-14.744Y1.902
X-14.744Y1.78
X-14.744Y1.658
X-14.744Y1.536
X-14.744Y1.414
X-14.69Y4.916
X-14.69Y4.816
X-14.682Y5.52
X-14.682Y5.42
X-14.682Y5.32
X-14.682Y5.22
X-14.682Y3.274
X-14.682Y3.174
X-14.674Y3.878
X-14.674Y3.778
X-14.674Y3.678
X-14.674Y3.578
X-14.652Y0.91
X-14.652Y0.79
X-14.652Y0.67
X-14.652Y0.55
X-14.652Y0.43
X-14.652Y0.31
X-14.652Y0.19
X-14.652Y0.07
X-14.652Y-0.052
X-14.652Y-0.174
X-14.652Y-0.296
X-14.652Y-0.418
X-14.644Y2.742
X-14.644Y2.622
X-14.644Y2.502
X-14.644Y2.382
X-14.644Y2.262
X-14.644Y2.142
X-14.644Y2.022
X-14.644Y1.902
X-14.644Y1.78
X-14.644Y1.658
X-14.644Y1.536
X-14.644Y1.414
X-14.128Y0.104
X-14.128Y0.004
X-14.08Y2.138
X-14.08Y2.038
X-14.078Y-0.666
X-14.078Y-0.766
X-13.958Y2.138
X-13.958Y2.038
X-13.958Y-0.666
X-13.958Y-0.766
X-13.8597Y5.9603
X-13.8597Y5.8603
X-13.8597Y5.7603
X-13.8597Y5.6603
X-13.8572Y5.4328
X-13.8572Y5.3328
X-13.8572Y5.2328
X-13.8572Y5.1328
X-13.838Y-0.666
X-13.838Y-0.766
X-13.836Y2.138
X-13.836Y2.038
X-13.7597Y5.9603
X-13.7597Y5.8603
X-13.7597Y5.7603
X-13.7597Y5.6603
X-13.7572Y5.4328
X-13.7572Y5.3328
X-13.7572Y5.2328
X-13.7572Y5.1328
X-13.718Y-0.666
X-13.718Y-0.766
X-13.714Y2.138
X-13.714Y2.038
X-13.592Y2.138
X-13.592Y2.038
X-13.47Y2.138
X-13.47Y2.038
X-13.348Y2.138
X-13.348Y2.038
X-13.226Y2.138
X-13.226Y2.038
X-13.104Y2.138
X-13.104Y2.038
X-13.048Y0.654
X-13.034Y0.488
X-13.0322Y5.0878
X-12.982Y2.138
X-12.982Y2.038
X-12.948Y0.654
X-12.934Y0.488
X-12.9322Y5.0878
X-12.86Y2.138
X-12.86Y2.038
X-12.848Y0.654
X-12.834Y0.488
X-12.782Y-0.6
X-12.782Y-0.7
X-12.748Y0.654
X-12.738Y2.138
X-12.738Y2.038
X-12.734Y0.488
X-12.6572Y5.0978
X-12.616Y2.138
X-12.616Y2.038
X-12.562Y-0.602
X-12.562Y-0.702
X-12.5572Y5.0978
X-12.494Y2.138
X-12.494Y2.038
X-12.372Y2.138
X-12.372Y2.038
X-12.25Y2.138
X-12.25Y2.038
X-12.246Y1.652
X-12.246Y1.552
X-12.246Y1.452
X-12.246Y1.352
X-12.158Y0.62
X-12.158Y0.5
X-12.158Y0.38
X-12.158Y0.26
X-12.158Y0.14
X-12.158Y0.02
X-12.158Y-0.1
X-12.158Y-0.22
X-12.158Y-0.342
X-12.158Y-0.464
X-12.158Y-0.586
X-12.158Y-0.708
X-12.132Y1.048
X-12.132Y0.948
X-12.124Y1.652
X-12.124Y1.552
X-12.124Y1.452
X-12.124Y1.352
X-12.058Y0.62
X-12.058Y0.5
X-12.058Y0.38
X-12.058Y0.26
X-12.058Y0.14
X-12.058Y0.02
X-12.058Y-0.1
X-12.058Y-0.22
X-12.058Y-0.342
X-12.058Y-0.464
X-12.058Y-0.586
X-12.058Y-0.708
T6
X-18.958Y5.91
X-18.958Y5.06
X-17.67Y5.912
X-17.67Y5.062
X-13.4272Y5.5328
X-12.5772Y5.5328
T7
X-13.5806Y2.4755
X-12.6236Y2.4605
T4
X-19.1681Y2.8828G85X-19.1681Y2.8041
G05
X-19.1641Y0.2168G85X-19.1641Y0.1381
G05
X-19.1531Y3.3803G85X-19.1531Y3.3016
G05
X-19.1491Y0.7143G85X-19.1491Y0.6356
G05
X-19.0893Y2.6585G85X-19.0106Y2.6585
G05
X-19.0853Y-0.0075G85X-19.0067Y-0.0075
G05
X-19.0743Y3.156G85X-18.9957Y3.156
G05
X-19.0704Y0.49G85X-18.9916Y0.49
G05
X-18.9319Y2.8828G85X-18.9319Y2.8041
G05
X-18.9279Y0.2168G85X-18.9279Y0.1381
G05
X-18.9169Y3.3803G85X-18.9169Y3.3016
G05
X-18.9129Y0.7143G85X-18.9129Y0.6356
G05
T0
M30
