G04 #@! TF.FileFunction,Legend,Bot*
%FSLAX46Y46*%
G04 Gerber Fmt 4.6, Leading zero omitted, Abs format (unit mm)*
G04 Created by KiCad (PCBNEW 4.0.0-rc2-stable) date 7/14/2016 8:37:10 PM*
%MOMM*%
G01*
G04 APERTURE LIST*
%ADD10C,0.100000*%
%ADD11C,0.150000*%
%ADD12C,0.160000*%
%ADD13C,0.300000*%
%ADD14C,2.600000*%
%ADD15R,3.900120X3.900120*%
%ADD16R,2.432000X2.432000*%
%ADD17O,2.432000X2.432000*%
%ADD18R,2.127200X2.432000*%
%ADD19O,2.127200X2.432000*%
%ADD20R,2.127200X2.127200*%
%ADD21O,2.127200X2.127200*%
%ADD22R,2.432000X2.127200*%
%ADD23O,2.432000X2.127200*%
%ADD24R,2.000000X1.400000*%
%ADD25R,1.600000X1.150000*%
%ADD26R,1.150000X1.600000*%
%ADD27R,2.400000X2.000000*%
%ADD28R,1.300000X1.600000*%
%ADD29C,4.200000*%
%ADD30C,4.400000*%
G04 APERTURE END LIST*
D10*
D11*
X-414458799Y23994743D02*
X-414458799Y25194743D01*
X-414858799Y24337600D01*
X-415258799Y25194743D01*
X-415258799Y23994743D01*
X-416687371Y24337600D02*
X-417258800Y24337600D01*
X-416573086Y23994743D02*
X-416973086Y25194743D01*
X-417373086Y23994743D01*
X-418515943Y25194743D02*
X-418915943Y23994743D01*
X-419315943Y25194743D01*
X-421315943Y23994743D02*
X-420915943Y24566171D01*
X-420630228Y23994743D02*
X-420630228Y25194743D01*
X-421087371Y25194743D01*
X-421201657Y25137600D01*
X-421258800Y25080457D01*
X-421315943Y24966171D01*
X-421315943Y24794743D01*
X-421258800Y24680457D01*
X-421201657Y24623314D01*
X-421087371Y24566171D01*
X-420630228Y24566171D01*
X-422744514Y23994743D02*
X-422744514Y25194743D01*
X-424915944Y24109029D02*
X-424858801Y24051886D01*
X-424687372Y23994743D01*
X-424573086Y23994743D01*
X-424401658Y24051886D01*
X-424287372Y24166171D01*
X-424230229Y24280457D01*
X-424173086Y24509029D01*
X-424173086Y24680457D01*
X-424230229Y24909029D01*
X-424287372Y25023314D01*
X-424401658Y25137600D01*
X-424573086Y25194743D01*
X-424687372Y25194743D01*
X-424858801Y25137600D01*
X-424915944Y25080457D01*
X-413944515Y22164743D02*
X-413944515Y23364743D01*
X-414230230Y23364743D01*
X-414401658Y23307600D01*
X-414515944Y23193314D01*
X-414573087Y23079029D01*
X-414630230Y22850457D01*
X-414630230Y22679029D01*
X-414573087Y22450457D01*
X-414515944Y22336171D01*
X-414401658Y22221886D01*
X-414230230Y22164743D01*
X-413944515Y22164743D01*
X-415658801Y22164743D02*
X-415658801Y22793314D01*
X-415601658Y22907600D01*
X-415487372Y22964743D01*
X-415258801Y22964743D01*
X-415144515Y22907600D01*
X-415658801Y22221886D02*
X-415544515Y22164743D01*
X-415258801Y22164743D01*
X-415144515Y22221886D01*
X-415087372Y22336171D01*
X-415087372Y22450457D01*
X-415144515Y22564743D01*
X-415258801Y22621886D01*
X-415544515Y22621886D01*
X-415658801Y22679029D01*
X-416230229Y22964743D02*
X-416230229Y22164743D01*
X-416230229Y22850457D02*
X-416287372Y22907600D01*
X-416401658Y22964743D01*
X-416573086Y22964743D01*
X-416687372Y22907600D01*
X-416744515Y22793314D01*
X-416744515Y22164743D01*
X-417315943Y22964743D02*
X-417315943Y22164743D01*
X-417315943Y22850457D02*
X-417373086Y22907600D01*
X-417487372Y22964743D01*
X-417658800Y22964743D01*
X-417773086Y22907600D01*
X-417830229Y22793314D01*
X-417830229Y22164743D01*
X-418287372Y22964743D02*
X-418573086Y22164743D01*
X-418858800Y22964743D02*
X-418573086Y22164743D01*
X-418458800Y21879029D01*
X-418401657Y21821886D01*
X-418287372Y21764743D01*
X-420230229Y22164743D02*
X-420230229Y23364743D01*
X-420630229Y22507600D01*
X-421030229Y23364743D01*
X-421030229Y22164743D01*
X-422115944Y22164743D02*
X-422115944Y22793314D01*
X-422058801Y22907600D01*
X-421944515Y22964743D01*
X-421715944Y22964743D01*
X-421601658Y22907600D01*
X-422115944Y22221886D02*
X-422001658Y22164743D01*
X-421715944Y22164743D01*
X-421601658Y22221886D01*
X-421544515Y22336171D01*
X-421544515Y22450457D01*
X-421601658Y22564743D01*
X-421715944Y22621886D01*
X-422001658Y22621886D01*
X-422115944Y22679029D01*
X-422858801Y22164743D02*
X-422744515Y22221886D01*
X-422687372Y22336171D01*
X-422687372Y23364743D01*
X-423487372Y22164743D02*
X-423373086Y22221886D01*
X-423315943Y22336171D01*
X-423315943Y23364743D01*
X-424401657Y22221886D02*
X-424287371Y22164743D01*
X-424058800Y22164743D01*
X-423944514Y22221886D01*
X-423887371Y22336171D01*
X-423887371Y22793314D01*
X-423944514Y22907600D01*
X-424058800Y22964743D01*
X-424287371Y22964743D01*
X-424401657Y22907600D01*
X-424458800Y22793314D01*
X-424458800Y22679029D01*
X-423887371Y22564743D01*
X-424973085Y22164743D02*
X-424973085Y23364743D01*
X-425087371Y22621886D02*
X-425430228Y22164743D01*
X-425430228Y22964743D02*
X-424973085Y22507600D01*
X-417601657Y21420457D02*
X-417658800Y21477600D01*
X-417773086Y21534743D01*
X-418058800Y21534743D01*
X-418173086Y21477600D01*
X-418230229Y21420457D01*
X-418287372Y21306171D01*
X-418287372Y21191886D01*
X-418230229Y21020457D01*
X-417544515Y20334743D01*
X-418287372Y20334743D01*
X-419030229Y21534743D02*
X-419144514Y21534743D01*
X-419258800Y21477600D01*
X-419315943Y21420457D01*
X-419373086Y21306171D01*
X-419430229Y21077600D01*
X-419430229Y20791886D01*
X-419373086Y20563314D01*
X-419315943Y20449029D01*
X-419258800Y20391886D01*
X-419144514Y20334743D01*
X-419030229Y20334743D01*
X-418915943Y20391886D01*
X-418858800Y20449029D01*
X-418801657Y20563314D01*
X-418744514Y20791886D01*
X-418744514Y21077600D01*
X-418801657Y21306171D01*
X-418858800Y21420457D01*
X-418915943Y21477600D01*
X-419030229Y21534743D01*
X-420573086Y20334743D02*
X-419887371Y20334743D01*
X-420230229Y20334743D02*
X-420230229Y21534743D01*
X-420115943Y21363314D01*
X-420001657Y21249029D01*
X-419887371Y21191886D01*
X-421601657Y21534743D02*
X-421373086Y21534743D01*
X-421258800Y21477600D01*
X-421201657Y21420457D01*
X-421087371Y21249029D01*
X-421030228Y21020457D01*
X-421030228Y20563314D01*
X-421087371Y20449029D01*
X-421144514Y20391886D01*
X-421258800Y20334743D01*
X-421487371Y20334743D01*
X-421601657Y20391886D01*
X-421658800Y20449029D01*
X-421715943Y20563314D01*
X-421715943Y20849029D01*
X-421658800Y20963314D01*
X-421601657Y21020457D01*
X-421487371Y21077600D01*
X-421258800Y21077600D01*
X-421144514Y21020457D01*
X-421087371Y20963314D01*
X-421030228Y20849029D01*
X-414255599Y70527543D02*
X-414255599Y71727543D01*
X-414655599Y70870400D01*
X-415055599Y71727543D01*
X-415055599Y70527543D01*
X-416484171Y70870400D02*
X-417055600Y70870400D01*
X-416369886Y70527543D02*
X-416769886Y71727543D01*
X-417169886Y70527543D01*
X-418312743Y71727543D02*
X-418712743Y70527543D01*
X-419112743Y71727543D01*
X-421112743Y70527543D02*
X-420712743Y71098971D01*
X-420427028Y70527543D02*
X-420427028Y71727543D01*
X-420884171Y71727543D01*
X-420998457Y71670400D01*
X-421055600Y71613257D01*
X-421112743Y71498971D01*
X-421112743Y71327543D01*
X-421055600Y71213257D01*
X-420998457Y71156114D01*
X-420884171Y71098971D01*
X-420427028Y71098971D01*
X-422541314Y70527543D02*
X-422541314Y71727543D01*
X-424712744Y70641829D02*
X-424655601Y70584686D01*
X-424484172Y70527543D01*
X-424369886Y70527543D01*
X-424198458Y70584686D01*
X-424084172Y70698971D01*
X-424027029Y70813257D01*
X-423969886Y71041829D01*
X-423969886Y71213257D01*
X-424027029Y71441829D01*
X-424084172Y71556114D01*
X-424198458Y71670400D01*
X-424369886Y71727543D01*
X-424484172Y71727543D01*
X-424655601Y71670400D01*
X-424712744Y71613257D01*
X-413741315Y68697543D02*
X-413741315Y69897543D01*
X-414027030Y69897543D01*
X-414198458Y69840400D01*
X-414312744Y69726114D01*
X-414369887Y69611829D01*
X-414427030Y69383257D01*
X-414427030Y69211829D01*
X-414369887Y68983257D01*
X-414312744Y68868971D01*
X-414198458Y68754686D01*
X-414027030Y68697543D01*
X-413741315Y68697543D01*
X-415455601Y68697543D02*
X-415455601Y69326114D01*
X-415398458Y69440400D01*
X-415284172Y69497543D01*
X-415055601Y69497543D01*
X-414941315Y69440400D01*
X-415455601Y68754686D02*
X-415341315Y68697543D01*
X-415055601Y68697543D01*
X-414941315Y68754686D01*
X-414884172Y68868971D01*
X-414884172Y68983257D01*
X-414941315Y69097543D01*
X-415055601Y69154686D01*
X-415341315Y69154686D01*
X-415455601Y69211829D01*
X-416027029Y69497543D02*
X-416027029Y68697543D01*
X-416027029Y69383257D02*
X-416084172Y69440400D01*
X-416198458Y69497543D01*
X-416369886Y69497543D01*
X-416484172Y69440400D01*
X-416541315Y69326114D01*
X-416541315Y68697543D01*
X-417112743Y69497543D02*
X-417112743Y68697543D01*
X-417112743Y69383257D02*
X-417169886Y69440400D01*
X-417284172Y69497543D01*
X-417455600Y69497543D01*
X-417569886Y69440400D01*
X-417627029Y69326114D01*
X-417627029Y68697543D01*
X-418084172Y69497543D02*
X-418369886Y68697543D01*
X-418655600Y69497543D02*
X-418369886Y68697543D01*
X-418255600Y68411829D01*
X-418198457Y68354686D01*
X-418084172Y68297543D01*
X-420027029Y68697543D02*
X-420027029Y69897543D01*
X-420427029Y69040400D01*
X-420827029Y69897543D01*
X-420827029Y68697543D01*
X-421912744Y68697543D02*
X-421912744Y69326114D01*
X-421855601Y69440400D01*
X-421741315Y69497543D01*
X-421512744Y69497543D01*
X-421398458Y69440400D01*
X-421912744Y68754686D02*
X-421798458Y68697543D01*
X-421512744Y68697543D01*
X-421398458Y68754686D01*
X-421341315Y68868971D01*
X-421341315Y68983257D01*
X-421398458Y69097543D01*
X-421512744Y69154686D01*
X-421798458Y69154686D01*
X-421912744Y69211829D01*
X-422655601Y68697543D02*
X-422541315Y68754686D01*
X-422484172Y68868971D01*
X-422484172Y69897543D01*
X-423284172Y68697543D02*
X-423169886Y68754686D01*
X-423112743Y68868971D01*
X-423112743Y69897543D01*
X-424198457Y68754686D02*
X-424084171Y68697543D01*
X-423855600Y68697543D01*
X-423741314Y68754686D01*
X-423684171Y68868971D01*
X-423684171Y69326114D01*
X-423741314Y69440400D01*
X-423855600Y69497543D01*
X-424084171Y69497543D01*
X-424198457Y69440400D01*
X-424255600Y69326114D01*
X-424255600Y69211829D01*
X-423684171Y69097543D01*
X-424769885Y68697543D02*
X-424769885Y69897543D01*
X-424884171Y69154686D02*
X-425227028Y68697543D01*
X-425227028Y69497543D02*
X-424769885Y69040400D01*
X-417398457Y67953257D02*
X-417455600Y68010400D01*
X-417569886Y68067543D01*
X-417855600Y68067543D01*
X-417969886Y68010400D01*
X-418027029Y67953257D01*
X-418084172Y67838971D01*
X-418084172Y67724686D01*
X-418027029Y67553257D01*
X-417341315Y66867543D01*
X-418084172Y66867543D01*
X-418827029Y68067543D02*
X-418941314Y68067543D01*
X-419055600Y68010400D01*
X-419112743Y67953257D01*
X-419169886Y67838971D01*
X-419227029Y67610400D01*
X-419227029Y67324686D01*
X-419169886Y67096114D01*
X-419112743Y66981829D01*
X-419055600Y66924686D01*
X-418941314Y66867543D01*
X-418827029Y66867543D01*
X-418712743Y66924686D01*
X-418655600Y66981829D01*
X-418598457Y67096114D01*
X-418541314Y67324686D01*
X-418541314Y67610400D01*
X-418598457Y67838971D01*
X-418655600Y67953257D01*
X-418712743Y68010400D01*
X-418827029Y68067543D01*
X-420369886Y66867543D02*
X-419684171Y66867543D01*
X-420027029Y66867543D02*
X-420027029Y68067543D01*
X-419912743Y67896114D01*
X-419798457Y67781829D01*
X-419684171Y67724686D01*
X-421398457Y68067543D02*
X-421169886Y68067543D01*
X-421055600Y68010400D01*
X-420998457Y67953257D01*
X-420884171Y67781829D01*
X-420827028Y67553257D01*
X-420827028Y67096114D01*
X-420884171Y66981829D01*
X-420941314Y66924686D01*
X-421055600Y66867543D01*
X-421284171Y66867543D01*
X-421398457Y66924686D01*
X-421455600Y66981829D01*
X-421512743Y67096114D01*
X-421512743Y67381829D01*
X-421455600Y67496114D01*
X-421398457Y67553257D01*
X-421284171Y67610400D01*
X-421055600Y67610400D01*
X-420941314Y67553257D01*
X-420884171Y67496114D01*
X-420827028Y67381829D01*
X-459925381Y142608894D02*
X-458925381Y142608894D01*
X-458925381Y142846989D01*
X-458973000Y142989847D01*
X-459068238Y143085085D01*
X-459163476Y143132704D01*
X-459353952Y143180323D01*
X-459496810Y143180323D01*
X-459687286Y143132704D01*
X-459782524Y143085085D01*
X-459877762Y142989847D01*
X-459925381Y142846989D01*
X-459925381Y142608894D01*
X-459925381Y144037466D02*
X-459401571Y144037466D01*
X-459306333Y143989847D01*
X-459258714Y143894609D01*
X-459258714Y143704132D01*
X-459306333Y143608894D01*
X-459877762Y144037466D02*
X-459925381Y143942228D01*
X-459925381Y143704132D01*
X-459877762Y143608894D01*
X-459782524Y143561275D01*
X-459687286Y143561275D01*
X-459592048Y143608894D01*
X-459544429Y143704132D01*
X-459544429Y143942228D01*
X-459496810Y144037466D01*
X-459258714Y144513656D02*
X-459925381Y144513656D01*
X-459353952Y144513656D02*
X-459306333Y144561275D01*
X-459258714Y144656513D01*
X-459258714Y144799371D01*
X-459306333Y144894609D01*
X-459401571Y144942228D01*
X-459925381Y144942228D01*
X-459258714Y145418418D02*
X-459925381Y145418418D01*
X-459353952Y145418418D02*
X-459306333Y145466037D01*
X-459258714Y145561275D01*
X-459258714Y145704133D01*
X-459306333Y145799371D01*
X-459401571Y145846990D01*
X-459925381Y145846990D01*
X-459258714Y146227942D02*
X-459925381Y146466037D01*
X-459258714Y146704133D02*
X-459925381Y146466037D01*
X-460163476Y146370799D01*
X-460211095Y146323180D01*
X-460258714Y146227942D01*
X-459925381Y147846990D02*
X-458925381Y147846990D01*
X-459639667Y148180324D01*
X-458925381Y148513657D01*
X-459925381Y148513657D01*
X-459925381Y149418419D02*
X-459401571Y149418419D01*
X-459306333Y149370800D01*
X-459258714Y149275562D01*
X-459258714Y149085085D01*
X-459306333Y148989847D01*
X-459877762Y149418419D02*
X-459925381Y149323181D01*
X-459925381Y149085085D01*
X-459877762Y148989847D01*
X-459782524Y148942228D01*
X-459687286Y148942228D01*
X-459592048Y148989847D01*
X-459544429Y149085085D01*
X-459544429Y149323181D01*
X-459496810Y149418419D01*
X-459925381Y150037466D02*
X-459877762Y149942228D01*
X-459782524Y149894609D01*
X-458925381Y149894609D01*
X-459925381Y150561276D02*
X-459877762Y150466038D01*
X-459782524Y150418419D01*
X-458925381Y150418419D01*
X-459877762Y151323182D02*
X-459925381Y151227944D01*
X-459925381Y151037467D01*
X-459877762Y150942229D01*
X-459782524Y150894610D01*
X-459401571Y150894610D01*
X-459306333Y150942229D01*
X-459258714Y151037467D01*
X-459258714Y151227944D01*
X-459306333Y151323182D01*
X-459401571Y151370801D01*
X-459496810Y151370801D01*
X-459592048Y150894610D01*
X-459925381Y151799372D02*
X-458925381Y151799372D01*
X-459544429Y151894610D02*
X-459925381Y152180325D01*
X-459258714Y152180325D02*
X-459639667Y151799372D01*
X-460570619Y145656514D02*
X-460523000Y145704133D01*
X-460475381Y145799371D01*
X-460475381Y146037467D01*
X-460523000Y146132705D01*
X-460570619Y146180324D01*
X-460665857Y146227943D01*
X-460761095Y146227943D01*
X-460903952Y146180324D01*
X-461475381Y145608895D01*
X-461475381Y146227943D01*
X-460475381Y146846990D02*
X-460475381Y146942229D01*
X-460523000Y147037467D01*
X-460570619Y147085086D01*
X-460665857Y147132705D01*
X-460856333Y147180324D01*
X-461094429Y147180324D01*
X-461284905Y147132705D01*
X-461380143Y147085086D01*
X-461427762Y147037467D01*
X-461475381Y146942229D01*
X-461475381Y146846990D01*
X-461427762Y146751752D01*
X-461380143Y146704133D01*
X-461284905Y146656514D01*
X-461094429Y146608895D01*
X-460856333Y146608895D01*
X-460665857Y146656514D01*
X-460570619Y146704133D01*
X-460523000Y146751752D01*
X-460475381Y146846990D01*
X-461475381Y148132705D02*
X-461475381Y147561276D01*
X-461475381Y147846990D02*
X-460475381Y147846990D01*
X-460618238Y147751752D01*
X-460713476Y147656514D01*
X-460761095Y147561276D01*
X-460475381Y148989848D02*
X-460475381Y148799371D01*
X-460523000Y148704133D01*
X-460570619Y148656514D01*
X-460713476Y148561276D01*
X-460903952Y148513657D01*
X-461284905Y148513657D01*
X-461380143Y148561276D01*
X-461427762Y148608895D01*
X-461475381Y148704133D01*
X-461475381Y148894610D01*
X-461427762Y148989848D01*
X-461380143Y149037467D01*
X-461284905Y149085086D01*
X-461046810Y149085086D01*
X-460951571Y149037467D01*
X-460903952Y148989848D01*
X-460856333Y148894610D01*
X-460856333Y148704133D01*
X-460903952Y148608895D01*
X-460951571Y148561276D01*
X-461046810Y148513657D01*
X-454070381Y135417466D02*
X-453070381Y135417466D01*
X-453784667Y135750800D01*
X-453070381Y136084133D01*
X-454070381Y136084133D01*
X-453784667Y137274609D02*
X-453784667Y137750800D01*
X-454070381Y137179371D02*
X-453070381Y137512704D01*
X-454070381Y137846038D01*
X-453070381Y138798419D02*
X-454070381Y139131752D01*
X-453070381Y139465086D01*
X-454070381Y141131753D02*
X-453594190Y140798419D01*
X-454070381Y140560324D02*
X-453070381Y140560324D01*
X-453070381Y140941277D01*
X-453118000Y141036515D01*
X-453165619Y141084134D01*
X-453260857Y141131753D01*
X-453403714Y141131753D01*
X-453498952Y141084134D01*
X-453546571Y141036515D01*
X-453594190Y140941277D01*
X-453594190Y140560324D01*
X-454070381Y142322229D02*
X-453070381Y142322229D01*
X-453975143Y144131753D02*
X-454022762Y144084134D01*
X-454070381Y143941277D01*
X-454070381Y143846039D01*
X-454022762Y143703181D01*
X-453927524Y143607943D01*
X-453832286Y143560324D01*
X-453641810Y143512705D01*
X-453498952Y143512705D01*
X-453308476Y143560324D01*
X-453213238Y143607943D01*
X-453118000Y143703181D01*
X-453070381Y143846039D01*
X-453070381Y143941277D01*
X-453118000Y144084134D01*
X-453165619Y144131753D01*
X-455334667Y131988894D02*
X-455334667Y132465085D01*
X-455620381Y131893656D02*
X-454620381Y132226989D01*
X-455620381Y132560323D01*
X-454953714Y132893656D02*
X-455620381Y132893656D01*
X-455048952Y132893656D02*
X-455001333Y132941275D01*
X-454953714Y133036513D01*
X-454953714Y133179371D01*
X-455001333Y133274609D01*
X-455096571Y133322228D01*
X-455620381Y133322228D01*
X-455620381Y134226990D02*
X-455096571Y134226990D01*
X-455001333Y134179371D01*
X-454953714Y134084133D01*
X-454953714Y133893656D01*
X-455001333Y133798418D01*
X-455572762Y134226990D02*
X-455620381Y134131752D01*
X-455620381Y133893656D01*
X-455572762Y133798418D01*
X-455477524Y133750799D01*
X-455382286Y133750799D01*
X-455287048Y133798418D01*
X-455239429Y133893656D01*
X-455239429Y134131752D01*
X-455191810Y134226990D01*
X-455620381Y134846037D02*
X-455572762Y134750799D01*
X-455477524Y134703180D01*
X-454620381Y134703180D01*
X-455620381Y135369847D02*
X-455572762Y135274609D01*
X-455525143Y135226990D01*
X-455429905Y135179371D01*
X-455144190Y135179371D01*
X-455048952Y135226990D01*
X-455001333Y135274609D01*
X-454953714Y135369847D01*
X-454953714Y135512705D01*
X-455001333Y135607943D01*
X-455048952Y135655562D01*
X-455144190Y135703181D01*
X-455429905Y135703181D01*
X-455525143Y135655562D01*
X-455572762Y135607943D01*
X-455620381Y135512705D01*
X-455620381Y135369847D01*
X-454953714Y136560324D02*
X-455763238Y136560324D01*
X-455858476Y136512705D01*
X-455906095Y136465086D01*
X-455953714Y136369847D01*
X-455953714Y136226990D01*
X-455906095Y136131752D01*
X-455572762Y136560324D02*
X-455620381Y136465086D01*
X-455620381Y136274609D01*
X-455572762Y136179371D01*
X-455525143Y136131752D01*
X-455429905Y136084133D01*
X-455144190Y136084133D01*
X-455048952Y136131752D01*
X-455001333Y136179371D01*
X-454953714Y136274609D01*
X-454953714Y136465086D01*
X-455001333Y136560324D01*
X-455572762Y137750800D02*
X-455620381Y137893657D01*
X-455620381Y138131753D01*
X-455572762Y138226991D01*
X-455525143Y138274610D01*
X-455429905Y138322229D01*
X-455334667Y138322229D01*
X-455239429Y138274610D01*
X-455191810Y138226991D01*
X-455144190Y138131753D01*
X-455096571Y137941276D01*
X-455048952Y137846038D01*
X-455001333Y137798419D01*
X-454906095Y137750800D01*
X-454810857Y137750800D01*
X-454715619Y137798419D01*
X-454668000Y137846038D01*
X-454620381Y137941276D01*
X-454620381Y138179372D01*
X-454668000Y138322229D01*
X-455572762Y139131753D02*
X-455620381Y139036515D01*
X-455620381Y138846038D01*
X-455572762Y138750800D01*
X-455477524Y138703181D01*
X-455096571Y138703181D01*
X-455001333Y138750800D01*
X-454953714Y138846038D01*
X-454953714Y139036515D01*
X-455001333Y139131753D01*
X-455096571Y139179372D01*
X-455191810Y139179372D01*
X-455287048Y138703181D01*
X-454953714Y139607943D02*
X-455620381Y139607943D01*
X-455048952Y139607943D02*
X-455001333Y139655562D01*
X-454953714Y139750800D01*
X-454953714Y139893658D01*
X-455001333Y139988896D01*
X-455096571Y140036515D01*
X-455620381Y140036515D01*
X-455572762Y140465086D02*
X-455620381Y140560324D01*
X-455620381Y140750800D01*
X-455572762Y140846039D01*
X-455477524Y140893658D01*
X-455429905Y140893658D01*
X-455334667Y140846039D01*
X-455287048Y140750800D01*
X-455287048Y140607943D01*
X-455239429Y140512705D01*
X-455144190Y140465086D01*
X-455096571Y140465086D01*
X-455001333Y140512705D01*
X-454953714Y140607943D01*
X-454953714Y140750800D01*
X-455001333Y140846039D01*
X-455620381Y141465086D02*
X-455572762Y141369848D01*
X-455525143Y141322229D01*
X-455429905Y141274610D01*
X-455144190Y141274610D01*
X-455048952Y141322229D01*
X-455001333Y141369848D01*
X-454953714Y141465086D01*
X-454953714Y141607944D01*
X-455001333Y141703182D01*
X-455048952Y141750801D01*
X-455144190Y141798420D01*
X-455429905Y141798420D01*
X-455525143Y141750801D01*
X-455572762Y141703182D01*
X-455620381Y141607944D01*
X-455620381Y141465086D01*
X-455620381Y142226991D02*
X-454953714Y142226991D01*
X-455144190Y142226991D02*
X-455048952Y142274610D01*
X-455001333Y142322229D01*
X-454953714Y142417467D01*
X-454953714Y142512706D01*
X-455096571Y143941278D02*
X-455144190Y144084135D01*
X-455191810Y144131754D01*
X-455287048Y144179373D01*
X-455429905Y144179373D01*
X-455525143Y144131754D01*
X-455572762Y144084135D01*
X-455620381Y143988897D01*
X-455620381Y143607944D01*
X-454620381Y143607944D01*
X-454620381Y143941278D01*
X-454668000Y144036516D01*
X-454715619Y144084135D01*
X-454810857Y144131754D01*
X-454906095Y144131754D01*
X-455001333Y144084135D01*
X-455048952Y144036516D01*
X-455096571Y143941278D01*
X-455096571Y143607944D01*
X-455620381Y144750801D02*
X-455572762Y144655563D01*
X-455525143Y144607944D01*
X-455429905Y144560325D01*
X-455144190Y144560325D01*
X-455048952Y144607944D01*
X-455001333Y144655563D01*
X-454953714Y144750801D01*
X-454953714Y144893659D01*
X-455001333Y144988897D01*
X-455048952Y145036516D01*
X-455144190Y145084135D01*
X-455429905Y145084135D01*
X-455525143Y145036516D01*
X-455572762Y144988897D01*
X-455620381Y144893659D01*
X-455620381Y144750801D01*
X-455620381Y145941278D02*
X-455096571Y145941278D01*
X-455001333Y145893659D01*
X-454953714Y145798421D01*
X-454953714Y145607944D01*
X-455001333Y145512706D01*
X-455572762Y145941278D02*
X-455620381Y145846040D01*
X-455620381Y145607944D01*
X-455572762Y145512706D01*
X-455477524Y145465087D01*
X-455382286Y145465087D01*
X-455287048Y145512706D01*
X-455239429Y145607944D01*
X-455239429Y145846040D01*
X-455191810Y145941278D01*
X-455620381Y146417468D02*
X-454953714Y146417468D01*
X-455144190Y146417468D02*
X-455048952Y146465087D01*
X-455001333Y146512706D01*
X-454953714Y146607944D01*
X-454953714Y146703183D01*
X-455620381Y147465088D02*
X-454620381Y147465088D01*
X-455572762Y147465088D02*
X-455620381Y147369850D01*
X-455620381Y147179373D01*
X-455572762Y147084135D01*
X-455525143Y147036516D01*
X-455429905Y146988897D01*
X-455144190Y146988897D01*
X-455048952Y147036516D01*
X-455001333Y147084135D01*
X-454953714Y147179373D01*
X-454953714Y147369850D01*
X-455001333Y147465088D01*
X-457170381Y138060324D02*
X-456694190Y137726990D01*
X-457170381Y137488895D02*
X-456170381Y137488895D01*
X-456170381Y137869848D01*
X-456218000Y137965086D01*
X-456265619Y138012705D01*
X-456360857Y138060324D01*
X-456503714Y138060324D01*
X-456598952Y138012705D01*
X-456646571Y137965086D01*
X-456694190Y137869848D01*
X-456694190Y137488895D01*
X-457122762Y138869848D02*
X-457170381Y138774610D01*
X-457170381Y138584133D01*
X-457122762Y138488895D01*
X-457027524Y138441276D01*
X-456646571Y138441276D01*
X-456551333Y138488895D01*
X-456503714Y138584133D01*
X-456503714Y138774610D01*
X-456551333Y138869848D01*
X-456646571Y138917467D01*
X-456741810Y138917467D01*
X-456837048Y138441276D01*
X-456503714Y139250800D02*
X-457170381Y139488895D01*
X-456503714Y139726991D01*
X-457170381Y140631753D02*
X-457170381Y140060324D01*
X-457170381Y140346038D02*
X-456170381Y140346038D01*
X-456313238Y140250800D01*
X-456408476Y140155562D01*
X-456456095Y140060324D01*
X-457075143Y141060324D02*
X-457122762Y141107943D01*
X-457170381Y141060324D01*
X-457122762Y141012705D01*
X-457075143Y141060324D01*
X-457170381Y141060324D01*
X-456170381Y141726990D02*
X-456170381Y141822229D01*
X-456218000Y141917467D01*
X-456265619Y141965086D01*
X-456360857Y142012705D01*
X-456551333Y142060324D01*
X-456789429Y142060324D01*
X-456979905Y142012705D01*
X-457075143Y141965086D01*
X-457122762Y141917467D01*
X-457170381Y141822229D01*
X-457170381Y141726990D01*
X-457122762Y141631752D01*
X-457075143Y141584133D01*
X-456979905Y141536514D01*
X-456789429Y141488895D01*
X-456551333Y141488895D01*
X-456360857Y141536514D01*
X-456265619Y141584133D01*
X-456218000Y141631752D01*
X-456170381Y141726990D01*
X-492640581Y142558094D02*
X-491640581Y142558094D01*
X-491640581Y142796189D01*
X-491688200Y142939047D01*
X-491783438Y143034285D01*
X-491878676Y143081904D01*
X-492069152Y143129523D01*
X-492212010Y143129523D01*
X-492402486Y143081904D01*
X-492497724Y143034285D01*
X-492592962Y142939047D01*
X-492640581Y142796189D01*
X-492640581Y142558094D01*
X-492640581Y143986666D02*
X-492116771Y143986666D01*
X-492021533Y143939047D01*
X-491973914Y143843809D01*
X-491973914Y143653332D01*
X-492021533Y143558094D01*
X-492592962Y143986666D02*
X-492640581Y143891428D01*
X-492640581Y143653332D01*
X-492592962Y143558094D01*
X-492497724Y143510475D01*
X-492402486Y143510475D01*
X-492307248Y143558094D01*
X-492259629Y143653332D01*
X-492259629Y143891428D01*
X-492212010Y143986666D01*
X-491973914Y144462856D02*
X-492640581Y144462856D01*
X-492069152Y144462856D02*
X-492021533Y144510475D01*
X-491973914Y144605713D01*
X-491973914Y144748571D01*
X-492021533Y144843809D01*
X-492116771Y144891428D01*
X-492640581Y144891428D01*
X-491973914Y145367618D02*
X-492640581Y145367618D01*
X-492069152Y145367618D02*
X-492021533Y145415237D01*
X-491973914Y145510475D01*
X-491973914Y145653333D01*
X-492021533Y145748571D01*
X-492116771Y145796190D01*
X-492640581Y145796190D01*
X-491973914Y146177142D02*
X-492640581Y146415237D01*
X-491973914Y146653333D02*
X-492640581Y146415237D01*
X-492878676Y146319999D01*
X-492926295Y146272380D01*
X-492973914Y146177142D01*
X-492640581Y147796190D02*
X-491640581Y147796190D01*
X-492354867Y148129524D01*
X-491640581Y148462857D01*
X-492640581Y148462857D01*
X-492640581Y149367619D02*
X-492116771Y149367619D01*
X-492021533Y149320000D01*
X-491973914Y149224762D01*
X-491973914Y149034285D01*
X-492021533Y148939047D01*
X-492592962Y149367619D02*
X-492640581Y149272381D01*
X-492640581Y149034285D01*
X-492592962Y148939047D01*
X-492497724Y148891428D01*
X-492402486Y148891428D01*
X-492307248Y148939047D01*
X-492259629Y149034285D01*
X-492259629Y149272381D01*
X-492212010Y149367619D01*
X-492640581Y149986666D02*
X-492592962Y149891428D01*
X-492497724Y149843809D01*
X-491640581Y149843809D01*
X-492640581Y150510476D02*
X-492592962Y150415238D01*
X-492497724Y150367619D01*
X-491640581Y150367619D01*
X-492592962Y151272382D02*
X-492640581Y151177144D01*
X-492640581Y150986667D01*
X-492592962Y150891429D01*
X-492497724Y150843810D01*
X-492116771Y150843810D01*
X-492021533Y150891429D01*
X-491973914Y150986667D01*
X-491973914Y151177144D01*
X-492021533Y151272382D01*
X-492116771Y151320001D01*
X-492212010Y151320001D01*
X-492307248Y150843810D01*
X-492640581Y151748572D02*
X-491640581Y151748572D01*
X-492259629Y151843810D02*
X-492640581Y152129525D01*
X-491973914Y152129525D02*
X-492354867Y151748572D01*
X-493285819Y145605714D02*
X-493238200Y145653333D01*
X-493190581Y145748571D01*
X-493190581Y145986667D01*
X-493238200Y146081905D01*
X-493285819Y146129524D01*
X-493381057Y146177143D01*
X-493476295Y146177143D01*
X-493619152Y146129524D01*
X-494190581Y145558095D01*
X-494190581Y146177143D01*
X-493190581Y146796190D02*
X-493190581Y146891429D01*
X-493238200Y146986667D01*
X-493285819Y147034286D01*
X-493381057Y147081905D01*
X-493571533Y147129524D01*
X-493809629Y147129524D01*
X-494000105Y147081905D01*
X-494095343Y147034286D01*
X-494142962Y146986667D01*
X-494190581Y146891429D01*
X-494190581Y146796190D01*
X-494142962Y146700952D01*
X-494095343Y146653333D01*
X-494000105Y146605714D01*
X-493809629Y146558095D01*
X-493571533Y146558095D01*
X-493381057Y146605714D01*
X-493285819Y146653333D01*
X-493238200Y146700952D01*
X-493190581Y146796190D01*
X-494190581Y148081905D02*
X-494190581Y147510476D01*
X-494190581Y147796190D02*
X-493190581Y147796190D01*
X-493333438Y147700952D01*
X-493428676Y147605714D01*
X-493476295Y147510476D01*
X-493190581Y148939048D02*
X-493190581Y148748571D01*
X-493238200Y148653333D01*
X-493285819Y148605714D01*
X-493428676Y148510476D01*
X-493619152Y148462857D01*
X-494000105Y148462857D01*
X-494095343Y148510476D01*
X-494142962Y148558095D01*
X-494190581Y148653333D01*
X-494190581Y148843810D01*
X-494142962Y148939048D01*
X-494095343Y148986667D01*
X-494000105Y149034286D01*
X-493762010Y149034286D01*
X-493666771Y148986667D01*
X-493619152Y148939048D01*
X-493571533Y148843810D01*
X-493571533Y148653333D01*
X-493619152Y148558095D01*
X-493666771Y148510476D01*
X-493762010Y148462857D01*
X-486785581Y135366666D02*
X-485785581Y135366666D01*
X-486499867Y135700000D01*
X-485785581Y136033333D01*
X-486785581Y136033333D01*
X-486499867Y137223809D02*
X-486499867Y137700000D01*
X-486785581Y137128571D02*
X-485785581Y137461904D01*
X-486785581Y137795238D01*
X-485785581Y138747619D02*
X-486785581Y139080952D01*
X-485785581Y139414286D01*
X-486785581Y141080953D02*
X-486309390Y140747619D01*
X-486785581Y140509524D02*
X-485785581Y140509524D01*
X-485785581Y140890477D01*
X-485833200Y140985715D01*
X-485880819Y141033334D01*
X-485976057Y141080953D01*
X-486118914Y141080953D01*
X-486214152Y141033334D01*
X-486261771Y140985715D01*
X-486309390Y140890477D01*
X-486309390Y140509524D01*
X-486785581Y142271429D02*
X-485785581Y142271429D01*
X-486690343Y144080953D02*
X-486737962Y144033334D01*
X-486785581Y143890477D01*
X-486785581Y143795239D01*
X-486737962Y143652381D01*
X-486642724Y143557143D01*
X-486547486Y143509524D01*
X-486357010Y143461905D01*
X-486214152Y143461905D01*
X-486023676Y143509524D01*
X-485928438Y143557143D01*
X-485833200Y143652381D01*
X-485785581Y143795239D01*
X-485785581Y143890477D01*
X-485833200Y144033334D01*
X-485880819Y144080953D01*
X-488287962Y132080952D02*
X-488335581Y132223809D01*
X-488335581Y132461905D01*
X-488287962Y132557143D01*
X-488240343Y132604762D01*
X-488145105Y132652381D01*
X-488049867Y132652381D01*
X-487954629Y132604762D01*
X-487907010Y132557143D01*
X-487859390Y132461905D01*
X-487811771Y132271428D01*
X-487764152Y132176190D01*
X-487716533Y132128571D01*
X-487621295Y132080952D01*
X-487526057Y132080952D01*
X-487430819Y132128571D01*
X-487383200Y132176190D01*
X-487335581Y132271428D01*
X-487335581Y132509524D01*
X-487383200Y132652381D01*
X-488335581Y133223809D02*
X-488287962Y133128571D01*
X-488240343Y133080952D01*
X-488145105Y133033333D01*
X-487859390Y133033333D01*
X-487764152Y133080952D01*
X-487716533Y133128571D01*
X-487668914Y133223809D01*
X-487668914Y133366667D01*
X-487716533Y133461905D01*
X-487764152Y133509524D01*
X-487859390Y133557143D01*
X-488145105Y133557143D01*
X-488240343Y133509524D01*
X-488287962Y133461905D01*
X-488335581Y133366667D01*
X-488335581Y133223809D01*
X-488335581Y133985714D02*
X-487668914Y133985714D01*
X-487335581Y133985714D02*
X-487383200Y133938095D01*
X-487430819Y133985714D01*
X-487383200Y134033333D01*
X-487335581Y133985714D01*
X-487430819Y133985714D01*
X-488335581Y134604761D02*
X-488287962Y134509523D01*
X-488192724Y134461904D01*
X-487335581Y134461904D01*
X-488287962Y135700000D02*
X-488335581Y135842857D01*
X-488335581Y136080953D01*
X-488287962Y136176191D01*
X-488240343Y136223810D01*
X-488145105Y136271429D01*
X-488049867Y136271429D01*
X-487954629Y136223810D01*
X-487907010Y136176191D01*
X-487859390Y136080953D01*
X-487811771Y135890476D01*
X-487764152Y135795238D01*
X-487716533Y135747619D01*
X-487621295Y135700000D01*
X-487526057Y135700000D01*
X-487430819Y135747619D01*
X-487383200Y135795238D01*
X-487335581Y135890476D01*
X-487335581Y136128572D01*
X-487383200Y136271429D01*
X-488335581Y137128572D02*
X-487811771Y137128572D01*
X-487716533Y137080953D01*
X-487668914Y136985715D01*
X-487668914Y136795238D01*
X-487716533Y136700000D01*
X-488287962Y137128572D02*
X-488335581Y137033334D01*
X-488335581Y136795238D01*
X-488287962Y136700000D01*
X-488192724Y136652381D01*
X-488097486Y136652381D01*
X-488002248Y136700000D01*
X-487954629Y136795238D01*
X-487954629Y137033334D01*
X-487907010Y137128572D01*
X-488335581Y137604762D02*
X-487668914Y137604762D01*
X-487764152Y137604762D02*
X-487716533Y137652381D01*
X-487668914Y137747619D01*
X-487668914Y137890477D01*
X-487716533Y137985715D01*
X-487811771Y138033334D01*
X-488335581Y138033334D01*
X-487811771Y138033334D02*
X-487716533Y138080953D01*
X-487668914Y138176191D01*
X-487668914Y138319048D01*
X-487716533Y138414286D01*
X-487811771Y138461905D01*
X-488335581Y138461905D01*
X-487668914Y138938095D02*
X-488668914Y138938095D01*
X-487716533Y138938095D02*
X-487668914Y139033333D01*
X-487668914Y139223810D01*
X-487716533Y139319048D01*
X-487764152Y139366667D01*
X-487859390Y139414286D01*
X-488145105Y139414286D01*
X-488240343Y139366667D01*
X-488287962Y139319048D01*
X-488335581Y139223810D01*
X-488335581Y139033333D01*
X-488287962Y138938095D01*
X-488335581Y139985714D02*
X-488287962Y139890476D01*
X-488192724Y139842857D01*
X-487335581Y139842857D01*
X-488335581Y140366667D02*
X-487668914Y140366667D01*
X-487335581Y140366667D02*
X-487383200Y140319048D01*
X-487430819Y140366667D01*
X-487383200Y140414286D01*
X-487335581Y140366667D01*
X-487430819Y140366667D01*
X-487668914Y140842857D02*
X-488335581Y140842857D01*
X-487764152Y140842857D02*
X-487716533Y140890476D01*
X-487668914Y140985714D01*
X-487668914Y141128572D01*
X-487716533Y141223810D01*
X-487811771Y141271429D01*
X-488335581Y141271429D01*
X-487668914Y142176191D02*
X-488478438Y142176191D01*
X-488573676Y142128572D01*
X-488621295Y142080953D01*
X-488668914Y141985714D01*
X-488668914Y141842857D01*
X-488621295Y141747619D01*
X-488287962Y142176191D02*
X-488335581Y142080953D01*
X-488335581Y141890476D01*
X-488287962Y141795238D01*
X-488240343Y141747619D01*
X-488145105Y141700000D01*
X-487859390Y141700000D01*
X-487764152Y141747619D01*
X-487716533Y141795238D01*
X-487668914Y141890476D01*
X-487668914Y142080953D01*
X-487716533Y142176191D01*
X-487811771Y143747620D02*
X-487859390Y143890477D01*
X-487907010Y143938096D01*
X-488002248Y143985715D01*
X-488145105Y143985715D01*
X-488240343Y143938096D01*
X-488287962Y143890477D01*
X-488335581Y143795239D01*
X-488335581Y143414286D01*
X-487335581Y143414286D01*
X-487335581Y143747620D01*
X-487383200Y143842858D01*
X-487430819Y143890477D01*
X-487526057Y143938096D01*
X-487621295Y143938096D01*
X-487716533Y143890477D01*
X-487764152Y143842858D01*
X-487811771Y143747620D01*
X-487811771Y143414286D01*
X-488335581Y144557143D02*
X-488287962Y144461905D01*
X-488240343Y144414286D01*
X-488145105Y144366667D01*
X-487859390Y144366667D01*
X-487764152Y144414286D01*
X-487716533Y144461905D01*
X-487668914Y144557143D01*
X-487668914Y144700001D01*
X-487716533Y144795239D01*
X-487764152Y144842858D01*
X-487859390Y144890477D01*
X-488145105Y144890477D01*
X-488240343Y144842858D01*
X-488287962Y144795239D01*
X-488335581Y144700001D01*
X-488335581Y144557143D01*
X-488335581Y145747620D02*
X-487811771Y145747620D01*
X-487716533Y145700001D01*
X-487668914Y145604763D01*
X-487668914Y145414286D01*
X-487716533Y145319048D01*
X-488287962Y145747620D02*
X-488335581Y145652382D01*
X-488335581Y145414286D01*
X-488287962Y145319048D01*
X-488192724Y145271429D01*
X-488097486Y145271429D01*
X-488002248Y145319048D01*
X-487954629Y145414286D01*
X-487954629Y145652382D01*
X-487907010Y145747620D01*
X-488335581Y146223810D02*
X-487668914Y146223810D01*
X-487859390Y146223810D02*
X-487764152Y146271429D01*
X-487716533Y146319048D01*
X-487668914Y146414286D01*
X-487668914Y146509525D01*
X-488335581Y147271430D02*
X-487335581Y147271430D01*
X-488287962Y147271430D02*
X-488335581Y147176192D01*
X-488335581Y146985715D01*
X-488287962Y146890477D01*
X-488240343Y146842858D01*
X-488145105Y146795239D01*
X-487859390Y146795239D01*
X-487764152Y146842858D01*
X-487716533Y146890477D01*
X-487668914Y146985715D01*
X-487668914Y147176192D01*
X-487716533Y147271430D01*
X-489885581Y138009524D02*
X-489409390Y137676190D01*
X-489885581Y137438095D02*
X-488885581Y137438095D01*
X-488885581Y137819048D01*
X-488933200Y137914286D01*
X-488980819Y137961905D01*
X-489076057Y138009524D01*
X-489218914Y138009524D01*
X-489314152Y137961905D01*
X-489361771Y137914286D01*
X-489409390Y137819048D01*
X-489409390Y137438095D01*
X-489837962Y138819048D02*
X-489885581Y138723810D01*
X-489885581Y138533333D01*
X-489837962Y138438095D01*
X-489742724Y138390476D01*
X-489361771Y138390476D01*
X-489266533Y138438095D01*
X-489218914Y138533333D01*
X-489218914Y138723810D01*
X-489266533Y138819048D01*
X-489361771Y138866667D01*
X-489457010Y138866667D01*
X-489552248Y138390476D01*
X-489218914Y139200000D02*
X-489885581Y139438095D01*
X-489218914Y139676191D01*
X-489885581Y140580953D02*
X-489885581Y140009524D01*
X-489885581Y140295238D02*
X-488885581Y140295238D01*
X-489028438Y140200000D01*
X-489123676Y140104762D01*
X-489171295Y140009524D01*
X-489790343Y141009524D02*
X-489837962Y141057143D01*
X-489885581Y141009524D01*
X-489837962Y140961905D01*
X-489790343Y141009524D01*
X-489885581Y141009524D01*
X-488885581Y141676190D02*
X-488885581Y141771429D01*
X-488933200Y141866667D01*
X-488980819Y141914286D01*
X-489076057Y141961905D01*
X-489266533Y142009524D01*
X-489504629Y142009524D01*
X-489695105Y141961905D01*
X-489790343Y141914286D01*
X-489837962Y141866667D01*
X-489885581Y141771429D01*
X-489885581Y141676190D01*
X-489837962Y141580952D01*
X-489790343Y141533333D01*
X-489695105Y141485714D01*
X-489504629Y141438095D01*
X-489266533Y141438095D01*
X-489076057Y141485714D01*
X-488980819Y141533333D01*
X-488933200Y141580952D01*
X-488885581Y141676190D01*
X-333493744Y129426969D02*
X-333493744Y130426969D01*
X-333731839Y130426969D01*
X-333874697Y130379350D01*
X-333969935Y130284112D01*
X-334017554Y130188874D01*
X-334065173Y129998398D01*
X-334065173Y129855540D01*
X-334017554Y129665064D01*
X-333969935Y129569826D01*
X-333874697Y129474588D01*
X-333731839Y129426969D01*
X-333493744Y129426969D01*
X-334922316Y129426969D02*
X-334922316Y129950779D01*
X-334874697Y130046017D01*
X-334779459Y130093636D01*
X-334588982Y130093636D01*
X-334493744Y130046017D01*
X-334922316Y129474588D02*
X-334827078Y129426969D01*
X-334588982Y129426969D01*
X-334493744Y129474588D01*
X-334446125Y129569826D01*
X-334446125Y129665064D01*
X-334493744Y129760302D01*
X-334588982Y129807921D01*
X-334827078Y129807921D01*
X-334922316Y129855540D01*
X-335398506Y130093636D02*
X-335398506Y129426969D01*
X-335398506Y129998398D02*
X-335446125Y130046017D01*
X-335541363Y130093636D01*
X-335684221Y130093636D01*
X-335779459Y130046017D01*
X-335827078Y129950779D01*
X-335827078Y129426969D01*
X-336303268Y130093636D02*
X-336303268Y129426969D01*
X-336303268Y129998398D02*
X-336350887Y130046017D01*
X-336446125Y130093636D01*
X-336588983Y130093636D01*
X-336684221Y130046017D01*
X-336731840Y129950779D01*
X-336731840Y129426969D01*
X-337112792Y130093636D02*
X-337350887Y129426969D01*
X-337588983Y130093636D02*
X-337350887Y129426969D01*
X-337255649Y129188874D01*
X-337208030Y129141255D01*
X-337112792Y129093636D01*
X-338731840Y129426969D02*
X-338731840Y130426969D01*
X-339065174Y129712683D01*
X-339398507Y130426969D01*
X-339398507Y129426969D01*
X-340303269Y129426969D02*
X-340303269Y129950779D01*
X-340255650Y130046017D01*
X-340160412Y130093636D01*
X-339969935Y130093636D01*
X-339874697Y130046017D01*
X-340303269Y129474588D02*
X-340208031Y129426969D01*
X-339969935Y129426969D01*
X-339874697Y129474588D01*
X-339827078Y129569826D01*
X-339827078Y129665064D01*
X-339874697Y129760302D01*
X-339969935Y129807921D01*
X-340208031Y129807921D01*
X-340303269Y129855540D01*
X-340922316Y129426969D02*
X-340827078Y129474588D01*
X-340779459Y129569826D01*
X-340779459Y130426969D01*
X-341446126Y129426969D02*
X-341350888Y129474588D01*
X-341303269Y129569826D01*
X-341303269Y130426969D01*
X-342208032Y129474588D02*
X-342112794Y129426969D01*
X-341922317Y129426969D01*
X-341827079Y129474588D01*
X-341779460Y129569826D01*
X-341779460Y129950779D01*
X-341827079Y130046017D01*
X-341922317Y130093636D01*
X-342112794Y130093636D01*
X-342208032Y130046017D01*
X-342255651Y129950779D01*
X-342255651Y129855540D01*
X-341779460Y129760302D01*
X-342684222Y129426969D02*
X-342684222Y130426969D01*
X-342779460Y129807921D02*
X-343065175Y129426969D01*
X-343065175Y130093636D02*
X-342684222Y129712683D01*
X-336541364Y128781731D02*
X-336588983Y128829350D01*
X-336684221Y128876969D01*
X-336922317Y128876969D01*
X-337017555Y128829350D01*
X-337065174Y128781731D01*
X-337112793Y128686493D01*
X-337112793Y128591255D01*
X-337065174Y128448398D01*
X-336493745Y127876969D01*
X-337112793Y127876969D01*
X-337731840Y128876969D02*
X-337827079Y128876969D01*
X-337922317Y128829350D01*
X-337969936Y128781731D01*
X-338017555Y128686493D01*
X-338065174Y128496017D01*
X-338065174Y128257921D01*
X-338017555Y128067445D01*
X-337969936Y127972207D01*
X-337922317Y127924588D01*
X-337827079Y127876969D01*
X-337731840Y127876969D01*
X-337636602Y127924588D01*
X-337588983Y127972207D01*
X-337541364Y128067445D01*
X-337493745Y128257921D01*
X-337493745Y128496017D01*
X-337541364Y128686493D01*
X-337588983Y128781731D01*
X-337636602Y128829350D01*
X-337731840Y128876969D01*
X-339017555Y127876969D02*
X-338446126Y127876969D01*
X-338731840Y127876969D02*
X-338731840Y128876969D01*
X-338636602Y128734112D01*
X-338541364Y128638874D01*
X-338446126Y128591255D01*
X-339874698Y128876969D02*
X-339684221Y128876969D01*
X-339588983Y128829350D01*
X-339541364Y128781731D01*
X-339446126Y128638874D01*
X-339398507Y128448398D01*
X-339398507Y128067445D01*
X-339446126Y127972207D01*
X-339493745Y127924588D01*
X-339588983Y127876969D01*
X-339779460Y127876969D01*
X-339874698Y127924588D01*
X-339922317Y127972207D01*
X-339969936Y128067445D01*
X-339969936Y128305540D01*
X-339922317Y128400779D01*
X-339874698Y128448398D01*
X-339779460Y128496017D01*
X-339588983Y128496017D01*
X-339493745Y128448398D01*
X-339446126Y128400779D01*
X-339398507Y128305540D01*
X-326302316Y135281969D02*
X-326302316Y136281969D01*
X-326635650Y135567683D01*
X-326968983Y136281969D01*
X-326968983Y135281969D01*
X-328159459Y135567683D02*
X-328635650Y135567683D01*
X-328064221Y135281969D02*
X-328397554Y136281969D01*
X-328730888Y135281969D01*
X-329683269Y136281969D02*
X-330016602Y135281969D01*
X-330349936Y136281969D01*
X-332016603Y135281969D02*
X-331683269Y135758160D01*
X-331445174Y135281969D02*
X-331445174Y136281969D01*
X-331826127Y136281969D01*
X-331921365Y136234350D01*
X-331968984Y136186731D01*
X-332016603Y136091493D01*
X-332016603Y135948636D01*
X-331968984Y135853398D01*
X-331921365Y135805779D01*
X-331826127Y135758160D01*
X-331445174Y135758160D01*
X-333207079Y135281969D02*
X-333207079Y136281969D01*
X-335016603Y135377207D02*
X-334968984Y135329588D01*
X-334826127Y135281969D01*
X-334730889Y135281969D01*
X-334588031Y135329588D01*
X-334492793Y135424826D01*
X-334445174Y135520064D01*
X-334397555Y135710540D01*
X-334397555Y135853398D01*
X-334445174Y136043874D01*
X-334492793Y136139112D01*
X-334588031Y136234350D01*
X-334730889Y136281969D01*
X-334826127Y136281969D01*
X-334968984Y136234350D01*
X-335016603Y136186731D01*
X-322873744Y134017683D02*
X-323349935Y134017683D01*
X-322778506Y133731969D02*
X-323111839Y134731969D01*
X-323445173Y133731969D01*
X-323778506Y134398636D02*
X-323778506Y133731969D01*
X-323778506Y134303398D02*
X-323826125Y134351017D01*
X-323921363Y134398636D01*
X-324064221Y134398636D01*
X-324159459Y134351017D01*
X-324207078Y134255779D01*
X-324207078Y133731969D01*
X-325111840Y133731969D02*
X-325111840Y134255779D01*
X-325064221Y134351017D01*
X-324968983Y134398636D01*
X-324778506Y134398636D01*
X-324683268Y134351017D01*
X-325111840Y133779588D02*
X-325016602Y133731969D01*
X-324778506Y133731969D01*
X-324683268Y133779588D01*
X-324635649Y133874826D01*
X-324635649Y133970064D01*
X-324683268Y134065302D01*
X-324778506Y134112921D01*
X-325016602Y134112921D01*
X-325111840Y134160540D01*
X-325730887Y133731969D02*
X-325635649Y133779588D01*
X-325588030Y133874826D01*
X-325588030Y134731969D01*
X-326254697Y133731969D02*
X-326159459Y133779588D01*
X-326111840Y133827207D01*
X-326064221Y133922445D01*
X-326064221Y134208160D01*
X-326111840Y134303398D01*
X-326159459Y134351017D01*
X-326254697Y134398636D01*
X-326397555Y134398636D01*
X-326492793Y134351017D01*
X-326540412Y134303398D01*
X-326588031Y134208160D01*
X-326588031Y133922445D01*
X-326540412Y133827207D01*
X-326492793Y133779588D01*
X-326397555Y133731969D01*
X-326254697Y133731969D01*
X-327445174Y134398636D02*
X-327445174Y133589112D01*
X-327397555Y133493874D01*
X-327349936Y133446255D01*
X-327254697Y133398636D01*
X-327111840Y133398636D01*
X-327016602Y133446255D01*
X-327445174Y133779588D02*
X-327349936Y133731969D01*
X-327159459Y133731969D01*
X-327064221Y133779588D01*
X-327016602Y133827207D01*
X-326968983Y133922445D01*
X-326968983Y134208160D01*
X-327016602Y134303398D01*
X-327064221Y134351017D01*
X-327159459Y134398636D01*
X-327349936Y134398636D01*
X-327445174Y134351017D01*
X-328635650Y133779588D02*
X-328778507Y133731969D01*
X-329016603Y133731969D01*
X-329111841Y133779588D01*
X-329159460Y133827207D01*
X-329207079Y133922445D01*
X-329207079Y134017683D01*
X-329159460Y134112921D01*
X-329111841Y134160540D01*
X-329016603Y134208160D01*
X-328826126Y134255779D01*
X-328730888Y134303398D01*
X-328683269Y134351017D01*
X-328635650Y134446255D01*
X-328635650Y134541493D01*
X-328683269Y134636731D01*
X-328730888Y134684350D01*
X-328826126Y134731969D01*
X-329064222Y134731969D01*
X-329207079Y134684350D01*
X-330016603Y133779588D02*
X-329921365Y133731969D01*
X-329730888Y133731969D01*
X-329635650Y133779588D01*
X-329588031Y133874826D01*
X-329588031Y134255779D01*
X-329635650Y134351017D01*
X-329730888Y134398636D01*
X-329921365Y134398636D01*
X-330016603Y134351017D01*
X-330064222Y134255779D01*
X-330064222Y134160540D01*
X-329588031Y134065302D01*
X-330492793Y134398636D02*
X-330492793Y133731969D01*
X-330492793Y134303398D02*
X-330540412Y134351017D01*
X-330635650Y134398636D01*
X-330778508Y134398636D01*
X-330873746Y134351017D01*
X-330921365Y134255779D01*
X-330921365Y133731969D01*
X-331349936Y133779588D02*
X-331445174Y133731969D01*
X-331635650Y133731969D01*
X-331730889Y133779588D01*
X-331778508Y133874826D01*
X-331778508Y133922445D01*
X-331730889Y134017683D01*
X-331635650Y134065302D01*
X-331492793Y134065302D01*
X-331397555Y134112921D01*
X-331349936Y134208160D01*
X-331349936Y134255779D01*
X-331397555Y134351017D01*
X-331492793Y134398636D01*
X-331635650Y134398636D01*
X-331730889Y134351017D01*
X-332349936Y133731969D02*
X-332254698Y133779588D01*
X-332207079Y133827207D01*
X-332159460Y133922445D01*
X-332159460Y134208160D01*
X-332207079Y134303398D01*
X-332254698Y134351017D01*
X-332349936Y134398636D01*
X-332492794Y134398636D01*
X-332588032Y134351017D01*
X-332635651Y134303398D01*
X-332683270Y134208160D01*
X-332683270Y133922445D01*
X-332635651Y133827207D01*
X-332588032Y133779588D01*
X-332492794Y133731969D01*
X-332349936Y133731969D01*
X-333111841Y133731969D02*
X-333111841Y134398636D01*
X-333111841Y134208160D02*
X-333159460Y134303398D01*
X-333207079Y134351017D01*
X-333302317Y134398636D01*
X-333397556Y134398636D01*
X-334826128Y134255779D02*
X-334968985Y134208160D01*
X-335016604Y134160540D01*
X-335064223Y134065302D01*
X-335064223Y133922445D01*
X-335016604Y133827207D01*
X-334968985Y133779588D01*
X-334873747Y133731969D01*
X-334492794Y133731969D01*
X-334492794Y134731969D01*
X-334826128Y134731969D01*
X-334921366Y134684350D01*
X-334968985Y134636731D01*
X-335016604Y134541493D01*
X-335016604Y134446255D01*
X-334968985Y134351017D01*
X-334921366Y134303398D01*
X-334826128Y134255779D01*
X-334492794Y134255779D01*
X-335635651Y133731969D02*
X-335540413Y133779588D01*
X-335492794Y133827207D01*
X-335445175Y133922445D01*
X-335445175Y134208160D01*
X-335492794Y134303398D01*
X-335540413Y134351017D01*
X-335635651Y134398636D01*
X-335778509Y134398636D01*
X-335873747Y134351017D01*
X-335921366Y134303398D01*
X-335968985Y134208160D01*
X-335968985Y133922445D01*
X-335921366Y133827207D01*
X-335873747Y133779588D01*
X-335778509Y133731969D01*
X-335635651Y133731969D01*
X-336826128Y133731969D02*
X-336826128Y134255779D01*
X-336778509Y134351017D01*
X-336683271Y134398636D01*
X-336492794Y134398636D01*
X-336397556Y134351017D01*
X-336826128Y133779588D02*
X-336730890Y133731969D01*
X-336492794Y133731969D01*
X-336397556Y133779588D01*
X-336349937Y133874826D01*
X-336349937Y133970064D01*
X-336397556Y134065302D01*
X-336492794Y134112921D01*
X-336730890Y134112921D01*
X-336826128Y134160540D01*
X-337302318Y133731969D02*
X-337302318Y134398636D01*
X-337302318Y134208160D02*
X-337349937Y134303398D01*
X-337397556Y134351017D01*
X-337492794Y134398636D01*
X-337588033Y134398636D01*
X-338349938Y133731969D02*
X-338349938Y134731969D01*
X-338349938Y133779588D02*
X-338254700Y133731969D01*
X-338064223Y133731969D01*
X-337968985Y133779588D01*
X-337921366Y133827207D01*
X-337873747Y133922445D01*
X-337873747Y134208160D01*
X-337921366Y134303398D01*
X-337968985Y134351017D01*
X-338064223Y134398636D01*
X-338254700Y134398636D01*
X-338349938Y134351017D01*
X-328945174Y132181969D02*
X-328611840Y132658160D01*
X-328373745Y132181969D02*
X-328373745Y133181969D01*
X-328754698Y133181969D01*
X-328849936Y133134350D01*
X-328897555Y133086731D01*
X-328945174Y132991493D01*
X-328945174Y132848636D01*
X-328897555Y132753398D01*
X-328849936Y132705779D01*
X-328754698Y132658160D01*
X-328373745Y132658160D01*
X-329754698Y132229588D02*
X-329659460Y132181969D01*
X-329468983Y132181969D01*
X-329373745Y132229588D01*
X-329326126Y132324826D01*
X-329326126Y132705779D01*
X-329373745Y132801017D01*
X-329468983Y132848636D01*
X-329659460Y132848636D01*
X-329754698Y132801017D01*
X-329802317Y132705779D01*
X-329802317Y132610540D01*
X-329326126Y132515302D01*
X-330135650Y132848636D02*
X-330373745Y132181969D01*
X-330611841Y132848636D01*
X-331516603Y132181969D02*
X-330945174Y132181969D01*
X-331230888Y132181969D02*
X-331230888Y133181969D01*
X-331135650Y133039112D01*
X-331040412Y132943874D01*
X-330945174Y132896255D01*
X-331945174Y132277207D02*
X-331992793Y132229588D01*
X-331945174Y132181969D01*
X-331897555Y132229588D01*
X-331945174Y132277207D01*
X-331945174Y132181969D01*
X-332611840Y133181969D02*
X-332707079Y133181969D01*
X-332802317Y133134350D01*
X-332849936Y133086731D01*
X-332897555Y132991493D01*
X-332945174Y132801017D01*
X-332945174Y132562921D01*
X-332897555Y132372445D01*
X-332849936Y132277207D01*
X-332802317Y132229588D01*
X-332707079Y132181969D01*
X-332611840Y132181969D01*
X-332516602Y132229588D01*
X-332468983Y132277207D01*
X-332421364Y132372445D01*
X-332373745Y132562921D01*
X-332373745Y132801017D01*
X-332421364Y132991493D01*
X-332468983Y133086731D01*
X-332516602Y133134350D01*
X-332611840Y133181969D01*
X-348571199Y16628743D02*
X-348571199Y17828743D01*
X-348971199Y16971600D01*
X-349371199Y17828743D01*
X-349371199Y16628743D01*
X-350799771Y16971600D02*
X-351371200Y16971600D01*
X-350685486Y16628743D02*
X-351085486Y17828743D01*
X-351485486Y16628743D01*
X-352628343Y17828743D02*
X-353028343Y16628743D01*
X-353428343Y17828743D01*
X-355428343Y16628743D02*
X-355028343Y17200171D01*
X-354742628Y16628743D02*
X-354742628Y17828743D01*
X-355199771Y17828743D01*
X-355314057Y17771600D01*
X-355371200Y17714457D01*
X-355428343Y17600171D01*
X-355428343Y17428743D01*
X-355371200Y17314457D01*
X-355314057Y17257314D01*
X-355199771Y17200171D01*
X-354742628Y17200171D01*
X-356856914Y16628743D02*
X-356856914Y17828743D01*
X-359028344Y16743029D02*
X-358971201Y16685886D01*
X-358799772Y16628743D01*
X-358685486Y16628743D01*
X-358514058Y16685886D01*
X-358399772Y16800171D01*
X-358342629Y16914457D01*
X-358285486Y17143029D01*
X-358285486Y17314457D01*
X-358342629Y17543029D01*
X-358399772Y17657314D01*
X-358514058Y17771600D01*
X-358685486Y17828743D01*
X-358799772Y17828743D01*
X-358971201Y17771600D01*
X-359028344Y17714457D01*
X-348056915Y14798743D02*
X-348056915Y15998743D01*
X-348342630Y15998743D01*
X-348514058Y15941600D01*
X-348628344Y15827314D01*
X-348685487Y15713029D01*
X-348742630Y15484457D01*
X-348742630Y15313029D01*
X-348685487Y15084457D01*
X-348628344Y14970171D01*
X-348514058Y14855886D01*
X-348342630Y14798743D01*
X-348056915Y14798743D01*
X-349771201Y14798743D02*
X-349771201Y15427314D01*
X-349714058Y15541600D01*
X-349599772Y15598743D01*
X-349371201Y15598743D01*
X-349256915Y15541600D01*
X-349771201Y14855886D02*
X-349656915Y14798743D01*
X-349371201Y14798743D01*
X-349256915Y14855886D01*
X-349199772Y14970171D01*
X-349199772Y15084457D01*
X-349256915Y15198743D01*
X-349371201Y15255886D01*
X-349656915Y15255886D01*
X-349771201Y15313029D01*
X-350342629Y15598743D02*
X-350342629Y14798743D01*
X-350342629Y15484457D02*
X-350399772Y15541600D01*
X-350514058Y15598743D01*
X-350685486Y15598743D01*
X-350799772Y15541600D01*
X-350856915Y15427314D01*
X-350856915Y14798743D01*
X-351428343Y15598743D02*
X-351428343Y14798743D01*
X-351428343Y15484457D02*
X-351485486Y15541600D01*
X-351599772Y15598743D01*
X-351771200Y15598743D01*
X-351885486Y15541600D01*
X-351942629Y15427314D01*
X-351942629Y14798743D01*
X-352399772Y15598743D02*
X-352685486Y14798743D01*
X-352971200Y15598743D02*
X-352685486Y14798743D01*
X-352571200Y14513029D01*
X-352514057Y14455886D01*
X-352399772Y14398743D01*
X-354342629Y14798743D02*
X-354342629Y15998743D01*
X-354742629Y15141600D01*
X-355142629Y15998743D01*
X-355142629Y14798743D01*
X-356228344Y14798743D02*
X-356228344Y15427314D01*
X-356171201Y15541600D01*
X-356056915Y15598743D01*
X-355828344Y15598743D01*
X-355714058Y15541600D01*
X-356228344Y14855886D02*
X-356114058Y14798743D01*
X-355828344Y14798743D01*
X-355714058Y14855886D01*
X-355656915Y14970171D01*
X-355656915Y15084457D01*
X-355714058Y15198743D01*
X-355828344Y15255886D01*
X-356114058Y15255886D01*
X-356228344Y15313029D01*
X-356971201Y14798743D02*
X-356856915Y14855886D01*
X-356799772Y14970171D01*
X-356799772Y15998743D01*
X-357599772Y14798743D02*
X-357485486Y14855886D01*
X-357428343Y14970171D01*
X-357428343Y15998743D01*
X-358514057Y14855886D02*
X-358399771Y14798743D01*
X-358171200Y14798743D01*
X-358056914Y14855886D01*
X-357999771Y14970171D01*
X-357999771Y15427314D01*
X-358056914Y15541600D01*
X-358171200Y15598743D01*
X-358399771Y15598743D01*
X-358514057Y15541600D01*
X-358571200Y15427314D01*
X-358571200Y15313029D01*
X-357999771Y15198743D01*
X-359085485Y14798743D02*
X-359085485Y15998743D01*
X-359199771Y15255886D02*
X-359542628Y14798743D01*
X-359542628Y15598743D02*
X-359085485Y15141600D01*
X-351714057Y14054457D02*
X-351771200Y14111600D01*
X-351885486Y14168743D01*
X-352171200Y14168743D01*
X-352285486Y14111600D01*
X-352342629Y14054457D01*
X-352399772Y13940171D01*
X-352399772Y13825886D01*
X-352342629Y13654457D01*
X-351656915Y12968743D01*
X-352399772Y12968743D01*
X-353142629Y14168743D02*
X-353256914Y14168743D01*
X-353371200Y14111600D01*
X-353428343Y14054457D01*
X-353485486Y13940171D01*
X-353542629Y13711600D01*
X-353542629Y13425886D01*
X-353485486Y13197314D01*
X-353428343Y13083029D01*
X-353371200Y13025886D01*
X-353256914Y12968743D01*
X-353142629Y12968743D01*
X-353028343Y13025886D01*
X-352971200Y13083029D01*
X-352914057Y13197314D01*
X-352856914Y13425886D01*
X-352856914Y13711600D01*
X-352914057Y13940171D01*
X-352971200Y14054457D01*
X-353028343Y14111600D01*
X-353142629Y14168743D01*
X-354685486Y12968743D02*
X-353999771Y12968743D01*
X-354342629Y12968743D02*
X-354342629Y14168743D01*
X-354228343Y13997314D01*
X-354114057Y13883029D01*
X-353999771Y13825886D01*
X-355714057Y14168743D02*
X-355485486Y14168743D01*
X-355371200Y14111600D01*
X-355314057Y14054457D01*
X-355199771Y13883029D01*
X-355142628Y13654457D01*
X-355142628Y13197314D01*
X-355199771Y13083029D01*
X-355256914Y13025886D01*
X-355371200Y12968743D01*
X-355599771Y12968743D01*
X-355714057Y13025886D01*
X-355771200Y13083029D01*
X-355828343Y13197314D01*
X-355828343Y13483029D01*
X-355771200Y13597314D01*
X-355714057Y13654457D01*
X-355599771Y13711600D01*
X-355371200Y13711600D01*
X-355256914Y13654457D01*
X-355199771Y13597314D01*
X-355142628Y13483029D01*
X-486714800Y34417000D02*
X-486968800Y34036000D01*
X-486968800Y34036000D02*
X-487476800Y34036000D01*
X-486714800Y34417000D02*
X-486968800Y34798000D01*
X-486968800Y34798000D02*
X-487476800Y34798000D01*
X-477316800Y32512000D02*
X-481253800Y37846000D01*
X-481253800Y37846000D02*
X-486206800Y34417000D01*
X-486206800Y34417000D02*
X-486714800Y34417000D01*
X-476173800Y32512000D02*
X-478459800Y32512000D01*
X-478586800Y29845000D02*
X-464362800Y29845000D01*
X-464362800Y32385000D02*
X-478586800Y32385000D01*
X-463854800Y41021000D02*
X-463727800Y41021000D01*
X-463727800Y31877000D02*
X-463981800Y31877000D01*
X-471220800Y38735000D02*
X-470712800Y38735000D01*
X-471982800Y38735000D02*
X-471728800Y38735000D01*
X-471728800Y38227000D02*
X-471220800Y38227000D01*
X-471220800Y38735000D02*
X-471220800Y39116000D01*
X-471220800Y39116000D02*
X-471728800Y39116000D01*
X-471728800Y39116000D02*
X-471728800Y38735000D01*
X-472236800Y38862000D02*
X-472490800Y38862000D01*
X-472490800Y38862000D02*
X-472490800Y39370000D01*
X-472490800Y39370000D02*
X-472236800Y39370000D01*
X-471982800Y38735000D02*
X-472236800Y38735000D01*
X-472236800Y38735000D02*
X-472236800Y39497000D01*
X-472236800Y39497000D02*
X-471728800Y39497000D01*
X-471982800Y39497000D02*
X-470712800Y39497000D01*
X-470712800Y39497000D02*
X-470712800Y38735000D01*
X-471220800Y32385000D02*
X-471728800Y32893000D01*
X-471728800Y32893000D02*
X-471220800Y33401000D01*
X-471220800Y33401000D02*
X-471728800Y33909000D01*
X-471728800Y33909000D02*
X-471220800Y34671000D01*
X-471220800Y34671000D02*
X-471728800Y35179000D01*
X-471728800Y35179000D02*
X-471220800Y35687000D01*
X-471220800Y35687000D02*
X-471728800Y36195000D01*
X-471728800Y36195000D02*
X-471220800Y36703000D01*
X-471220800Y36703000D02*
X-471728800Y37211000D01*
X-471728800Y37211000D02*
X-471220800Y37719000D01*
X-471220800Y37719000D02*
X-471728800Y38227000D01*
X-471220800Y32385000D02*
X-471728800Y32385000D01*
X-471728800Y32385000D02*
X-471728800Y38735000D01*
X-471220800Y38735000D02*
X-471220800Y32385000D01*
X-464108800Y31877000D02*
X-463854800Y31877000D01*
X-463727800Y31877000D02*
X-463727800Y41021000D01*
X-463854800Y41021000D02*
X-464108800Y41021000D01*
X-464108800Y41021000D02*
X-464108800Y32385000D01*
X-464362800Y31877000D02*
X-464108800Y31877000D01*
X-464108800Y31877000D02*
X-464108800Y32385000D01*
X-464108800Y32385000D02*
X-464362800Y32385000D01*
X-476554800Y27305000D02*
G75*
G03X-476554800Y27305000I-1270000J0D01*
G01*
X-470204800Y27305000D02*
G75*
G03X-470204800Y27305000I-1270000J0D01*
G01*
X-463854800Y27305000D02*
G75*
G03X-463854800Y27305000I-1270000J0D01*
G01*
X-471474800Y27305000D02*
X-468426800Y28575000D01*
X-471474800Y29845000D02*
X-477824800Y27305000D01*
X-478586800Y29845000D02*
X-478586800Y32385000D01*
X-471474800Y29845000D02*
X-465124800Y27305000D01*
X-464362800Y32385000D02*
X-464362800Y29845000D01*
X-466276800Y2429000D02*
X-466276800Y4429000D01*
X-464226800Y4429000D02*
X-464226800Y2429000D01*
X-449875800Y2524000D02*
X-449875800Y524000D01*
X-451925800Y524000D02*
X-451925800Y2524000D01*
X-463736800Y8398000D02*
X-463736800Y10398000D01*
X-461686800Y10398000D02*
X-461686800Y8398000D01*
X-395878800Y-4054400D02*
X-395178800Y-4054400D01*
X-395178800Y-2854400D02*
X-395878800Y-2854400D01*
X-401720800Y-4054400D02*
X-401020800Y-4054400D01*
X-401020800Y-2854400D02*
X-401720800Y-2854400D01*
X-400262800Y2037600D02*
X-400262800Y2737600D01*
X-401462800Y2737600D02*
X-401462800Y2037600D01*
X-401786800Y7625600D02*
X-401786800Y8325600D01*
X-402986800Y8325600D02*
X-402986800Y7625600D01*
X-402228800Y12709600D02*
X-401528800Y12709600D01*
X-401528800Y13909600D02*
X-402228800Y13909600D01*
X-401786800Y2037600D02*
X-401786800Y2737600D01*
X-402986800Y2737600D02*
X-402986800Y2037600D01*
X-390102800Y8387600D02*
X-390102800Y9087600D01*
X-391302800Y9087600D02*
X-391302800Y8387600D01*
X-388070800Y8387600D02*
X-388070800Y9087600D01*
X-389270800Y9087600D02*
X-389270800Y8387600D01*
X-401386800Y-7019400D02*
X-403386800Y-7019400D01*
X-403386800Y-4969400D02*
X-401386800Y-4969400D01*
X-402778600Y18397600D02*
X-402778600Y19397600D01*
X-404128600Y19397600D02*
X-404128600Y18397600D01*
X-400187800Y18448400D02*
X-400187800Y19448400D01*
X-401537800Y19448400D02*
X-401537800Y18448400D01*
X-414832800Y-6502400D02*
X-414451800Y-6756400D01*
X-414451800Y-6756400D02*
X-414451800Y-7264400D01*
X-414832800Y-6502400D02*
X-415213800Y-6756400D01*
X-415213800Y-6756400D02*
X-415213800Y-7264400D01*
X-412927800Y2895600D02*
X-418261800Y-1041400D01*
X-418261800Y-1041400D02*
X-414832800Y-5994400D01*
X-414832800Y-5994400D02*
X-414832800Y-6502400D01*
X-412927800Y4038600D02*
X-412927800Y1752600D01*
X-410260800Y1625600D02*
X-410260800Y15849600D01*
X-412800800Y15849600D02*
X-412800800Y1625600D01*
X-421436800Y16357600D02*
X-421436800Y16484600D01*
X-412292800Y16484600D02*
X-412292800Y16230600D01*
X-419150800Y8991600D02*
X-419150800Y9499600D01*
X-419150800Y8229600D02*
X-419150800Y8483600D01*
X-418642800Y8483600D02*
X-418642800Y8991600D01*
X-419150800Y8991600D02*
X-419531800Y8991600D01*
X-419531800Y8991600D02*
X-419531800Y8483600D01*
X-419531800Y8483600D02*
X-419150800Y8483600D01*
X-419277800Y7975600D02*
X-419277800Y7721600D01*
X-419277800Y7721600D02*
X-419785800Y7721600D01*
X-419785800Y7721600D02*
X-419785800Y7975600D01*
X-419150800Y8229600D02*
X-419150800Y7975600D01*
X-419150800Y7975600D02*
X-419912800Y7975600D01*
X-419912800Y7975600D02*
X-419912800Y8483600D01*
X-419912800Y8229600D02*
X-419912800Y9499600D01*
X-419912800Y9499600D02*
X-419150800Y9499600D01*
X-412800800Y8991600D02*
X-413308800Y8483600D01*
X-413308800Y8483600D02*
X-413816800Y8991600D01*
X-413816800Y8991600D02*
X-414324800Y8483600D01*
X-414324800Y8483600D02*
X-415086800Y8991600D01*
X-415086800Y8991600D02*
X-415594800Y8483600D01*
X-415594800Y8483600D02*
X-416102800Y8991600D01*
X-416102800Y8991600D02*
X-416610800Y8483600D01*
X-416610800Y8483600D02*
X-417118800Y8991600D01*
X-417118800Y8991600D02*
X-417626800Y8483600D01*
X-417626800Y8483600D02*
X-418134800Y8991600D01*
X-418134800Y8991600D02*
X-418642800Y8483600D01*
X-412800800Y8991600D02*
X-412800800Y8483600D01*
X-412800800Y8483600D02*
X-419150800Y8483600D01*
X-419150800Y8991600D02*
X-412800800Y8991600D01*
X-412292800Y16103600D02*
X-412292800Y16357600D01*
X-412292800Y16484600D02*
X-421436800Y16484600D01*
X-421436800Y16357600D02*
X-421436800Y16103600D01*
X-421436800Y16103600D02*
X-412800800Y16103600D01*
X-412292800Y15849600D02*
X-412292800Y16103600D01*
X-412292800Y16103600D02*
X-412800800Y16103600D01*
X-412800800Y16103600D02*
X-412800800Y15849600D01*
X-406450800Y2387600D02*
G75*
G03X-406450800Y2387600I-1270000J0D01*
G01*
X-406450800Y8737600D02*
G75*
G03X-406450800Y8737600I-1270000J0D01*
G01*
X-406450800Y15087600D02*
G75*
G03X-406450800Y15087600I-1270000J0D01*
G01*
X-407720800Y8737600D02*
X-408990800Y11785600D01*
X-410260800Y8737600D02*
X-407720800Y2387600D01*
X-410260800Y1625600D02*
X-412800800Y1625600D01*
X-410260800Y8737600D02*
X-407720800Y15087600D01*
X-412800800Y15849600D02*
X-410260800Y15849600D01*
X-395675600Y42478400D02*
X-394975600Y42478400D01*
X-394975600Y43678400D02*
X-395675600Y43678400D01*
X-401517600Y42478400D02*
X-400817600Y42478400D01*
X-400817600Y43678400D02*
X-401517600Y43678400D01*
X-400059600Y48570400D02*
X-400059600Y49270400D01*
X-401259600Y49270400D02*
X-401259600Y48570400D01*
X-401583600Y54158400D02*
X-401583600Y54858400D01*
X-402783600Y54858400D02*
X-402783600Y54158400D01*
X-402025600Y59242400D02*
X-401325600Y59242400D01*
X-401325600Y60442400D02*
X-402025600Y60442400D01*
X-401583600Y48570400D02*
X-401583600Y49270400D01*
X-402783600Y49270400D02*
X-402783600Y48570400D01*
X-389899600Y54920400D02*
X-389899600Y55620400D01*
X-391099600Y55620400D02*
X-391099600Y54920400D01*
X-387867600Y54920400D02*
X-387867600Y55620400D01*
X-389067600Y55620400D02*
X-389067600Y54920400D01*
X-401183600Y39513400D02*
X-403183600Y39513400D01*
X-403183600Y41563400D02*
X-401183600Y41563400D01*
X-402575400Y64930400D02*
X-402575400Y65930400D01*
X-403925400Y65930400D02*
X-403925400Y64930400D01*
X-399984600Y64981200D02*
X-399984600Y65981200D01*
X-401334600Y65981200D02*
X-401334600Y64981200D01*
X-414629600Y40030400D02*
X-414248600Y39776400D01*
X-414248600Y39776400D02*
X-414248600Y39268400D01*
X-414629600Y40030400D02*
X-415010600Y39776400D01*
X-415010600Y39776400D02*
X-415010600Y39268400D01*
X-412724600Y49428400D02*
X-418058600Y45491400D01*
X-418058600Y45491400D02*
X-414629600Y40538400D01*
X-414629600Y40538400D02*
X-414629600Y40030400D01*
X-412724600Y50571400D02*
X-412724600Y48285400D01*
X-410057600Y48158400D02*
X-410057600Y62382400D01*
X-412597600Y62382400D02*
X-412597600Y48158400D01*
X-421233600Y62890400D02*
X-421233600Y63017400D01*
X-412089600Y63017400D02*
X-412089600Y62763400D01*
X-418947600Y55524400D02*
X-418947600Y56032400D01*
X-418947600Y54762400D02*
X-418947600Y55016400D01*
X-418439600Y55016400D02*
X-418439600Y55524400D01*
X-418947600Y55524400D02*
X-419328600Y55524400D01*
X-419328600Y55524400D02*
X-419328600Y55016400D01*
X-419328600Y55016400D02*
X-418947600Y55016400D01*
X-419074600Y54508400D02*
X-419074600Y54254400D01*
X-419074600Y54254400D02*
X-419582600Y54254400D01*
X-419582600Y54254400D02*
X-419582600Y54508400D01*
X-418947600Y54762400D02*
X-418947600Y54508400D01*
X-418947600Y54508400D02*
X-419709600Y54508400D01*
X-419709600Y54508400D02*
X-419709600Y55016400D01*
X-419709600Y54762400D02*
X-419709600Y56032400D01*
X-419709600Y56032400D02*
X-418947600Y56032400D01*
X-412597600Y55524400D02*
X-413105600Y55016400D01*
X-413105600Y55016400D02*
X-413613600Y55524400D01*
X-413613600Y55524400D02*
X-414121600Y55016400D01*
X-414121600Y55016400D02*
X-414883600Y55524400D01*
X-414883600Y55524400D02*
X-415391600Y55016400D01*
X-415391600Y55016400D02*
X-415899600Y55524400D01*
X-415899600Y55524400D02*
X-416407600Y55016400D01*
X-416407600Y55016400D02*
X-416915600Y55524400D01*
X-416915600Y55524400D02*
X-417423600Y55016400D01*
X-417423600Y55016400D02*
X-417931600Y55524400D01*
X-417931600Y55524400D02*
X-418439600Y55016400D01*
X-412597600Y55524400D02*
X-412597600Y55016400D01*
X-412597600Y55016400D02*
X-418947600Y55016400D01*
X-418947600Y55524400D02*
X-412597600Y55524400D01*
X-412089600Y62636400D02*
X-412089600Y62890400D01*
X-412089600Y63017400D02*
X-421233600Y63017400D01*
X-421233600Y62890400D02*
X-421233600Y62636400D01*
X-421233600Y62636400D02*
X-412597600Y62636400D01*
X-412089600Y62382400D02*
X-412089600Y62636400D01*
X-412089600Y62636400D02*
X-412597600Y62636400D01*
X-412597600Y62636400D02*
X-412597600Y62382400D01*
X-406247600Y48920400D02*
G75*
G03X-406247600Y48920400I-1270000J0D01*
G01*
X-406247600Y55270400D02*
G75*
G03X-406247600Y55270400I-1270000J0D01*
G01*
X-406247600Y61620400D02*
G75*
G03X-406247600Y61620400I-1270000J0D01*
G01*
X-407517600Y55270400D02*
X-408787600Y58318400D01*
X-410057600Y55270400D02*
X-407517600Y48920400D01*
X-410057600Y48158400D02*
X-412597600Y48158400D01*
X-410057600Y55270400D02*
X-407517600Y61620400D01*
X-412597600Y62382400D02*
X-410057600Y62382400D01*
X-486816400Y102133400D02*
X-487070400Y101752400D01*
X-487070400Y101752400D02*
X-487578400Y101752400D01*
X-486816400Y102133400D02*
X-487070400Y102514400D01*
X-487070400Y102514400D02*
X-487578400Y102514400D01*
X-477418400Y100228400D02*
X-481355400Y105562400D01*
X-481355400Y105562400D02*
X-486308400Y102133400D01*
X-486308400Y102133400D02*
X-486816400Y102133400D01*
X-476275400Y100228400D02*
X-478561400Y100228400D01*
X-478688400Y97561400D02*
X-464464400Y97561400D01*
X-464464400Y100101400D02*
X-478688400Y100101400D01*
X-463956400Y108737400D02*
X-463829400Y108737400D01*
X-463829400Y99593400D02*
X-464083400Y99593400D01*
X-471322400Y106451400D02*
X-470814400Y106451400D01*
X-472084400Y106451400D02*
X-471830400Y106451400D01*
X-471830400Y105943400D02*
X-471322400Y105943400D01*
X-471322400Y106451400D02*
X-471322400Y106832400D01*
X-471322400Y106832400D02*
X-471830400Y106832400D01*
X-471830400Y106832400D02*
X-471830400Y106451400D01*
X-472338400Y106578400D02*
X-472592400Y106578400D01*
X-472592400Y106578400D02*
X-472592400Y107086400D01*
X-472592400Y107086400D02*
X-472338400Y107086400D01*
X-472084400Y106451400D02*
X-472338400Y106451400D01*
X-472338400Y106451400D02*
X-472338400Y107213400D01*
X-472338400Y107213400D02*
X-471830400Y107213400D01*
X-472084400Y107213400D02*
X-470814400Y107213400D01*
X-470814400Y107213400D02*
X-470814400Y106451400D01*
X-471322400Y100101400D02*
X-471830400Y100609400D01*
X-471830400Y100609400D02*
X-471322400Y101117400D01*
X-471322400Y101117400D02*
X-471830400Y101625400D01*
X-471830400Y101625400D02*
X-471322400Y102387400D01*
X-471322400Y102387400D02*
X-471830400Y102895400D01*
X-471830400Y102895400D02*
X-471322400Y103403400D01*
X-471322400Y103403400D02*
X-471830400Y103911400D01*
X-471830400Y103911400D02*
X-471322400Y104419400D01*
X-471322400Y104419400D02*
X-471830400Y104927400D01*
X-471830400Y104927400D02*
X-471322400Y105435400D01*
X-471322400Y105435400D02*
X-471830400Y105943400D01*
X-471322400Y100101400D02*
X-471830400Y100101400D01*
X-471830400Y100101400D02*
X-471830400Y106451400D01*
X-471322400Y106451400D02*
X-471322400Y100101400D01*
X-464210400Y99593400D02*
X-463956400Y99593400D01*
X-463829400Y99593400D02*
X-463829400Y108737400D01*
X-463956400Y108737400D02*
X-464210400Y108737400D01*
X-464210400Y108737400D02*
X-464210400Y100101400D01*
X-464464400Y99593400D02*
X-464210400Y99593400D01*
X-464210400Y99593400D02*
X-464210400Y100101400D01*
X-464210400Y100101400D02*
X-464464400Y100101400D01*
X-476656400Y95021400D02*
G75*
G03X-476656400Y95021400I-1270000J0D01*
G01*
X-470306400Y95021400D02*
G75*
G03X-470306400Y95021400I-1270000J0D01*
G01*
X-463956400Y95021400D02*
G75*
G03X-463956400Y95021400I-1270000J0D01*
G01*
X-471576400Y95021400D02*
X-468528400Y96291400D01*
X-471576400Y97561400D02*
X-477926400Y95021400D01*
X-478688400Y97561400D02*
X-478688400Y100101400D01*
X-471576400Y97561400D02*
X-465226400Y95021400D01*
X-464464400Y100101400D02*
X-464464400Y97561400D01*
X-466378400Y70145400D02*
X-466378400Y72145400D01*
X-464328400Y72145400D02*
X-464328400Y70145400D01*
X-449977400Y70240400D02*
X-449977400Y68240400D01*
X-452027400Y68240400D02*
X-452027400Y70240400D01*
X-463838400Y76114400D02*
X-463838400Y78114400D01*
X-461788400Y78114400D02*
X-461788400Y76114400D01*
X-415290000Y87934800D02*
X-415544000Y87553800D01*
X-415544000Y87553800D02*
X-416052000Y87553800D01*
X-415290000Y87934800D02*
X-415544000Y88315800D01*
X-415544000Y88315800D02*
X-416052000Y88315800D01*
X-405892000Y86029800D02*
X-409829000Y91363800D01*
X-409829000Y91363800D02*
X-414782000Y87934800D01*
X-414782000Y87934800D02*
X-415290000Y87934800D01*
X-404749000Y86029800D02*
X-407035000Y86029800D01*
X-407162000Y83362800D02*
X-392938000Y83362800D01*
X-392938000Y85902800D02*
X-407162000Y85902800D01*
X-392430000Y94538800D02*
X-392303000Y94538800D01*
X-392303000Y85394800D02*
X-392557000Y85394800D01*
X-399796000Y92252800D02*
X-399288000Y92252800D01*
X-400558000Y92252800D02*
X-400304000Y92252800D01*
X-400304000Y91744800D02*
X-399796000Y91744800D01*
X-399796000Y92252800D02*
X-399796000Y92633800D01*
X-399796000Y92633800D02*
X-400304000Y92633800D01*
X-400304000Y92633800D02*
X-400304000Y92252800D01*
X-400812000Y92379800D02*
X-401066000Y92379800D01*
X-401066000Y92379800D02*
X-401066000Y92887800D01*
X-401066000Y92887800D02*
X-400812000Y92887800D01*
X-400558000Y92252800D02*
X-400812000Y92252800D01*
X-400812000Y92252800D02*
X-400812000Y93014800D01*
X-400812000Y93014800D02*
X-400304000Y93014800D01*
X-400558000Y93014800D02*
X-399288000Y93014800D01*
X-399288000Y93014800D02*
X-399288000Y92252800D01*
X-399796000Y85902800D02*
X-400304000Y86410800D01*
X-400304000Y86410800D02*
X-399796000Y86918800D01*
X-399796000Y86918800D02*
X-400304000Y87426800D01*
X-400304000Y87426800D02*
X-399796000Y88188800D01*
X-399796000Y88188800D02*
X-400304000Y88696800D01*
X-400304000Y88696800D02*
X-399796000Y89204800D01*
X-399796000Y89204800D02*
X-400304000Y89712800D01*
X-400304000Y89712800D02*
X-399796000Y90220800D01*
X-399796000Y90220800D02*
X-400304000Y90728800D01*
X-400304000Y90728800D02*
X-399796000Y91236800D01*
X-399796000Y91236800D02*
X-400304000Y91744800D01*
X-399796000Y85902800D02*
X-400304000Y85902800D01*
X-400304000Y85902800D02*
X-400304000Y92252800D01*
X-399796000Y92252800D02*
X-399796000Y85902800D01*
X-392684000Y85394800D02*
X-392430000Y85394800D01*
X-392303000Y85394800D02*
X-392303000Y94538800D01*
X-392430000Y94538800D02*
X-392684000Y94538800D01*
X-392684000Y94538800D02*
X-392684000Y85902800D01*
X-392938000Y85394800D02*
X-392684000Y85394800D01*
X-392684000Y85394800D02*
X-392684000Y85902800D01*
X-392684000Y85902800D02*
X-392938000Y85902800D01*
X-405130000Y80822800D02*
G75*
G03X-405130000Y80822800I-1270000J0D01*
G01*
X-398780000Y80822800D02*
G75*
G03X-398780000Y80822800I-1270000J0D01*
G01*
X-392430000Y80822800D02*
G75*
G03X-392430000Y80822800I-1270000J0D01*
G01*
X-400050000Y80822800D02*
X-397002000Y82092800D01*
X-400050000Y83362800D02*
X-406400000Y80822800D01*
X-407162000Y83362800D02*
X-407162000Y85902800D01*
X-400050000Y83362800D02*
X-393700000Y80822800D01*
X-392938000Y85902800D02*
X-392938000Y83362800D01*
X-415493200Y129641600D02*
X-415747200Y129260600D01*
X-415747200Y129260600D02*
X-416255200Y129260600D01*
X-415493200Y129641600D02*
X-415747200Y130022600D01*
X-415747200Y130022600D02*
X-416255200Y130022600D01*
X-406095200Y127736600D02*
X-410032200Y133070600D01*
X-410032200Y133070600D02*
X-414985200Y129641600D01*
X-414985200Y129641600D02*
X-415493200Y129641600D01*
X-404952200Y127736600D02*
X-407238200Y127736600D01*
X-407365200Y125069600D02*
X-393141200Y125069600D01*
X-393141200Y127609600D02*
X-407365200Y127609600D01*
X-392633200Y136245600D02*
X-392506200Y136245600D01*
X-392506200Y127101600D02*
X-392760200Y127101600D01*
X-399999200Y133959600D02*
X-399491200Y133959600D01*
X-400761200Y133959600D02*
X-400507200Y133959600D01*
X-400507200Y133451600D02*
X-399999200Y133451600D01*
X-399999200Y133959600D02*
X-399999200Y134340600D01*
X-399999200Y134340600D02*
X-400507200Y134340600D01*
X-400507200Y134340600D02*
X-400507200Y133959600D01*
X-401015200Y134086600D02*
X-401269200Y134086600D01*
X-401269200Y134086600D02*
X-401269200Y134594600D01*
X-401269200Y134594600D02*
X-401015200Y134594600D01*
X-400761200Y133959600D02*
X-401015200Y133959600D01*
X-401015200Y133959600D02*
X-401015200Y134721600D01*
X-401015200Y134721600D02*
X-400507200Y134721600D01*
X-400761200Y134721600D02*
X-399491200Y134721600D01*
X-399491200Y134721600D02*
X-399491200Y133959600D01*
X-399999200Y127609600D02*
X-400507200Y128117600D01*
X-400507200Y128117600D02*
X-399999200Y128625600D01*
X-399999200Y128625600D02*
X-400507200Y129133600D01*
X-400507200Y129133600D02*
X-399999200Y129895600D01*
X-399999200Y129895600D02*
X-400507200Y130403600D01*
X-400507200Y130403600D02*
X-399999200Y130911600D01*
X-399999200Y130911600D02*
X-400507200Y131419600D01*
X-400507200Y131419600D02*
X-399999200Y131927600D01*
X-399999200Y131927600D02*
X-400507200Y132435600D01*
X-400507200Y132435600D02*
X-399999200Y132943600D01*
X-399999200Y132943600D02*
X-400507200Y133451600D01*
X-399999200Y127609600D02*
X-400507200Y127609600D01*
X-400507200Y127609600D02*
X-400507200Y133959600D01*
X-399999200Y133959600D02*
X-399999200Y127609600D01*
X-392887200Y127101600D02*
X-392633200Y127101600D01*
X-392506200Y127101600D02*
X-392506200Y136245600D01*
X-392633200Y136245600D02*
X-392887200Y136245600D01*
X-392887200Y136245600D02*
X-392887200Y127609600D01*
X-393141200Y127101600D02*
X-392887200Y127101600D01*
X-392887200Y127101600D02*
X-392887200Y127609600D01*
X-392887200Y127609600D02*
X-393141200Y127609600D01*
X-405333200Y122529600D02*
G75*
G03X-405333200Y122529600I-1270000J0D01*
G01*
X-398983200Y122529600D02*
G75*
G03X-398983200Y122529600I-1270000J0D01*
G01*
X-392633200Y122529600D02*
G75*
G03X-392633200Y122529600I-1270000J0D01*
G01*
X-400253200Y122529600D02*
X-397205200Y123799600D01*
X-400253200Y125069600D02*
X-406603200Y122529600D01*
X-407365200Y125069600D02*
X-407365200Y127609600D01*
X-400253200Y125069600D02*
X-393903200Y122529600D01*
X-393141200Y127609600D02*
X-393141200Y125069600D01*
X-443611000Y153974800D02*
X-443992000Y154228800D01*
X-443992000Y154228800D02*
X-443992000Y154736800D01*
X-443611000Y153974800D02*
X-443230000Y154228800D01*
X-443230000Y154228800D02*
X-443230000Y154736800D01*
X-445516000Y144576800D02*
X-440182000Y148513800D01*
X-440182000Y148513800D02*
X-443611000Y153466800D01*
X-443611000Y153466800D02*
X-443611000Y153974800D01*
X-445516000Y143433800D02*
X-445516000Y145719800D01*
X-448183000Y145846800D02*
X-448183000Y131622800D01*
X-445643000Y131622800D02*
X-445643000Y145846800D01*
X-437007000Y131114800D02*
X-437007000Y130987800D01*
X-446151000Y130987800D02*
X-446151000Y131241800D01*
X-439293000Y138480800D02*
X-439293000Y137972800D01*
X-439293000Y139242800D02*
X-439293000Y138988800D01*
X-439801000Y138988800D02*
X-439801000Y138480800D01*
X-439293000Y138480800D02*
X-438912000Y138480800D01*
X-438912000Y138480800D02*
X-438912000Y138988800D01*
X-438912000Y138988800D02*
X-439293000Y138988800D01*
X-439166000Y139496800D02*
X-439166000Y139750800D01*
X-439166000Y139750800D02*
X-438658000Y139750800D01*
X-438658000Y139750800D02*
X-438658000Y139496800D01*
X-439293000Y139242800D02*
X-439293000Y139496800D01*
X-439293000Y139496800D02*
X-438531000Y139496800D01*
X-438531000Y139496800D02*
X-438531000Y138988800D01*
X-438531000Y139242800D02*
X-438531000Y137972800D01*
X-438531000Y137972800D02*
X-439293000Y137972800D01*
X-445643000Y138480800D02*
X-445135000Y138988800D01*
X-445135000Y138988800D02*
X-444627000Y138480800D01*
X-444627000Y138480800D02*
X-444119000Y138988800D01*
X-444119000Y138988800D02*
X-443357000Y138480800D01*
X-443357000Y138480800D02*
X-442849000Y138988800D01*
X-442849000Y138988800D02*
X-442341000Y138480800D01*
X-442341000Y138480800D02*
X-441833000Y138988800D01*
X-441833000Y138988800D02*
X-441325000Y138480800D01*
X-441325000Y138480800D02*
X-440817000Y138988800D01*
X-440817000Y138988800D02*
X-440309000Y138480800D01*
X-440309000Y138480800D02*
X-439801000Y138988800D01*
X-445643000Y138480800D02*
X-445643000Y138988800D01*
X-445643000Y138988800D02*
X-439293000Y138988800D01*
X-439293000Y138480800D02*
X-445643000Y138480800D01*
X-446151000Y131368800D02*
X-446151000Y131114800D01*
X-446151000Y130987800D02*
X-437007000Y130987800D01*
X-437007000Y131114800D02*
X-437007000Y131368800D01*
X-437007000Y131368800D02*
X-445643000Y131368800D01*
X-446151000Y131622800D02*
X-446151000Y131368800D01*
X-446151000Y131368800D02*
X-445643000Y131368800D01*
X-445643000Y131368800D02*
X-445643000Y131622800D01*
X-449453000Y145084800D02*
G75*
G03X-449453000Y145084800I-1270000J0D01*
G01*
X-449453000Y138734800D02*
G75*
G03X-449453000Y138734800I-1270000J0D01*
G01*
X-449453000Y132384800D02*
G75*
G03X-449453000Y132384800I-1270000J0D01*
G01*
X-450723000Y138734800D02*
X-449453000Y135686800D01*
X-448183000Y138734800D02*
X-450723000Y145084800D01*
X-448183000Y145846800D02*
X-445643000Y145846800D01*
X-448183000Y138734800D02*
X-450723000Y132384800D01*
X-445643000Y131622800D02*
X-448183000Y131622800D01*
X-476326200Y153924000D02*
X-476707200Y154178000D01*
X-476707200Y154178000D02*
X-476707200Y154686000D01*
X-476326200Y153924000D02*
X-475945200Y154178000D01*
X-475945200Y154178000D02*
X-475945200Y154686000D01*
X-478231200Y144526000D02*
X-472897200Y148463000D01*
X-472897200Y148463000D02*
X-476326200Y153416000D01*
X-476326200Y153416000D02*
X-476326200Y153924000D01*
X-478231200Y143383000D02*
X-478231200Y145669000D01*
X-480898200Y145796000D02*
X-480898200Y131572000D01*
X-478358200Y131572000D02*
X-478358200Y145796000D01*
X-469722200Y131064000D02*
X-469722200Y130937000D01*
X-478866200Y130937000D02*
X-478866200Y131191000D01*
X-472008200Y138430000D02*
X-472008200Y137922000D01*
X-472008200Y139192000D02*
X-472008200Y138938000D01*
X-472516200Y138938000D02*
X-472516200Y138430000D01*
X-472008200Y138430000D02*
X-471627200Y138430000D01*
X-471627200Y138430000D02*
X-471627200Y138938000D01*
X-471627200Y138938000D02*
X-472008200Y138938000D01*
X-471881200Y139446000D02*
X-471881200Y139700000D01*
X-471881200Y139700000D02*
X-471373200Y139700000D01*
X-471373200Y139700000D02*
X-471373200Y139446000D01*
X-472008200Y139192000D02*
X-472008200Y139446000D01*
X-472008200Y139446000D02*
X-471246200Y139446000D01*
X-471246200Y139446000D02*
X-471246200Y138938000D01*
X-471246200Y139192000D02*
X-471246200Y137922000D01*
X-471246200Y137922000D02*
X-472008200Y137922000D01*
X-478358200Y138430000D02*
X-477850200Y138938000D01*
X-477850200Y138938000D02*
X-477342200Y138430000D01*
X-477342200Y138430000D02*
X-476834200Y138938000D01*
X-476834200Y138938000D02*
X-476072200Y138430000D01*
X-476072200Y138430000D02*
X-475564200Y138938000D01*
X-475564200Y138938000D02*
X-475056200Y138430000D01*
X-475056200Y138430000D02*
X-474548200Y138938000D01*
X-474548200Y138938000D02*
X-474040200Y138430000D01*
X-474040200Y138430000D02*
X-473532200Y138938000D01*
X-473532200Y138938000D02*
X-473024200Y138430000D01*
X-473024200Y138430000D02*
X-472516200Y138938000D01*
X-478358200Y138430000D02*
X-478358200Y138938000D01*
X-478358200Y138938000D02*
X-472008200Y138938000D01*
X-472008200Y138430000D02*
X-478358200Y138430000D01*
X-478866200Y131318000D02*
X-478866200Y131064000D01*
X-478866200Y130937000D02*
X-469722200Y130937000D01*
X-469722200Y131064000D02*
X-469722200Y131318000D01*
X-469722200Y131318000D02*
X-478358200Y131318000D01*
X-478866200Y131572000D02*
X-478866200Y131318000D01*
X-478866200Y131318000D02*
X-478358200Y131318000D01*
X-478358200Y131318000D02*
X-478358200Y131572000D01*
X-482168200Y145034000D02*
G75*
G03X-482168200Y145034000I-1270000J0D01*
G01*
X-482168200Y138684000D02*
G75*
G03X-482168200Y138684000I-1270000J0D01*
G01*
X-482168200Y132334000D02*
G75*
G03X-482168200Y132334000I-1270000J0D01*
G01*
X-483438200Y138684000D02*
X-482168200Y135636000D01*
X-480898200Y138684000D02*
X-483438200Y145034000D01*
X-480898200Y145796000D02*
X-478358200Y145796000D01*
X-480898200Y138684000D02*
X-483438200Y132334000D01*
X-478358200Y131572000D02*
X-480898200Y131572000D01*
X-344859650Y145741350D02*
X-345113650Y145360350D01*
X-345113650Y145360350D02*
X-345621650Y145360350D01*
X-344859650Y145741350D02*
X-345113650Y146122350D01*
X-345113650Y146122350D02*
X-345621650Y146122350D01*
X-335461650Y143836350D02*
X-339398650Y149170350D01*
X-339398650Y149170350D02*
X-344351650Y145741350D01*
X-344351650Y145741350D02*
X-344859650Y145741350D01*
X-334318650Y143836350D02*
X-336604650Y143836350D01*
X-336731650Y141169350D02*
X-322507650Y141169350D01*
X-322507650Y143709350D02*
X-336731650Y143709350D01*
X-321999650Y152345350D02*
X-321872650Y152345350D01*
X-321872650Y143201350D02*
X-322126650Y143201350D01*
X-329365650Y150059350D02*
X-328857650Y150059350D01*
X-330127650Y150059350D02*
X-329873650Y150059350D01*
X-329873650Y149551350D02*
X-329365650Y149551350D01*
X-329365650Y150059350D02*
X-329365650Y150440350D01*
X-329365650Y150440350D02*
X-329873650Y150440350D01*
X-329873650Y150440350D02*
X-329873650Y150059350D01*
X-330381650Y150186350D02*
X-330635650Y150186350D01*
X-330635650Y150186350D02*
X-330635650Y150694350D01*
X-330635650Y150694350D02*
X-330381650Y150694350D01*
X-330127650Y150059350D02*
X-330381650Y150059350D01*
X-330381650Y150059350D02*
X-330381650Y150821350D01*
X-330381650Y150821350D02*
X-329873650Y150821350D01*
X-330127650Y150821350D02*
X-328857650Y150821350D01*
X-328857650Y150821350D02*
X-328857650Y150059350D01*
X-329365650Y143709350D02*
X-329873650Y144217350D01*
X-329873650Y144217350D02*
X-329365650Y144725350D01*
X-329365650Y144725350D02*
X-329873650Y145233350D01*
X-329873650Y145233350D02*
X-329365650Y145995350D01*
X-329365650Y145995350D02*
X-329873650Y146503350D01*
X-329873650Y146503350D02*
X-329365650Y147011350D01*
X-329365650Y147011350D02*
X-329873650Y147519350D01*
X-329873650Y147519350D02*
X-329365650Y148027350D01*
X-329365650Y148027350D02*
X-329873650Y148535350D01*
X-329873650Y148535350D02*
X-329365650Y149043350D01*
X-329365650Y149043350D02*
X-329873650Y149551350D01*
X-329365650Y143709350D02*
X-329873650Y143709350D01*
X-329873650Y143709350D02*
X-329873650Y150059350D01*
X-329365650Y150059350D02*
X-329365650Y143709350D01*
X-322253650Y143201350D02*
X-321999650Y143201350D01*
X-321872650Y143201350D02*
X-321872650Y152345350D01*
X-321999650Y152345350D02*
X-322253650Y152345350D01*
X-322253650Y152345350D02*
X-322253650Y143709350D01*
X-322507650Y143201350D02*
X-322253650Y143201350D01*
X-322253650Y143201350D02*
X-322253650Y143709350D01*
X-322253650Y143709350D02*
X-322507650Y143709350D01*
X-334699650Y138629350D02*
G75*
G03X-334699650Y138629350I-1270000J0D01*
G01*
X-328349650Y138629350D02*
G75*
G03X-328349650Y138629350I-1270000J0D01*
G01*
X-321999650Y138629350D02*
G75*
G03X-321999650Y138629350I-1270000J0D01*
G01*
X-329619650Y138629350D02*
X-326571650Y139899350D01*
X-329619650Y141169350D02*
X-335969650Y138629350D01*
X-336731650Y141169350D02*
X-336731650Y143709350D01*
X-329619650Y141169350D02*
X-323269650Y138629350D01*
X-322507650Y143709350D02*
X-322507650Y141169350D01*
X-344247200Y81876800D02*
X-344747200Y82376800D01*
X-344747200Y82376800D02*
X-345247200Y81876800D01*
X-345247200Y81876800D02*
X-345747200Y82376800D01*
X-345747200Y82376800D02*
X-346247200Y81876800D01*
X-346247200Y81876800D02*
X-346747200Y82376800D01*
X-346747200Y82376800D02*
X-347247200Y81876800D01*
X-347247200Y81876800D02*
X-347747200Y82376800D01*
X-347747200Y82376800D02*
X-348247200Y81876800D01*
X-348247200Y81876800D02*
X-348747200Y82376800D01*
X-348747200Y82376800D02*
X-349247200Y81876800D01*
X-349497200Y82126800D02*
X-349747200Y82376800D01*
X-349497200Y82126800D02*
X-349747200Y81876800D01*
X-350497200Y82376800D02*
X-350747200Y82126800D01*
X-350747200Y82126800D02*
X-350497200Y81876800D01*
X-349247200Y81876800D02*
X-349497200Y81876800D01*
X-349247200Y82376800D02*
X-349497200Y82376800D01*
X-349247200Y82126800D02*
X-349497200Y82126800D01*
X-350247200Y81126800D02*
X-350247200Y81876800D01*
X-350247200Y83126800D02*
X-350247200Y82376800D01*
X-351497200Y83126800D02*
X-350247200Y83126800D01*
X-351497200Y83126800D02*
X-351497200Y81126800D01*
X-351497200Y81126800D02*
X-350247200Y81126800D01*
X-350747200Y81876800D02*
X-349497200Y81876800D01*
X-350747200Y82376800D02*
X-349497200Y82376800D01*
X-349247200Y81626800D02*
X-349497200Y81626800D01*
X-349497200Y81626800D02*
X-349497200Y82626800D01*
X-349497200Y82626800D02*
X-349247200Y82626800D01*
X-349247200Y82626800D02*
X-349247200Y82376800D01*
X-350747200Y82376800D02*
X-350747200Y81876800D01*
X-351247200Y81126800D02*
X-351247200Y80626800D01*
X-351247200Y80626800D02*
X-350497200Y80626800D01*
X-350497200Y80626800D02*
X-350497200Y81126800D01*
X-349247200Y82626800D02*
X-349247200Y81626800D01*
X-344747200Y66376800D02*
X-344747200Y66126800D01*
X-345247200Y66876800D02*
X-345747200Y66876800D01*
X-345747200Y66876800D02*
X-345747200Y66126800D01*
X-345247200Y68126800D02*
X-345247200Y66876800D01*
X-345247200Y66876800D02*
X-344747200Y66876800D01*
X-344747200Y66876800D02*
X-344747200Y66376800D01*
X-340747200Y85126800D02*
X-339247200Y82126800D01*
X-344247200Y81876800D02*
X-349247200Y81876800D01*
X-349247200Y81876800D02*
X-349247200Y82376800D01*
X-349247200Y82376800D02*
X-344247200Y82376800D01*
X-343747200Y89626800D02*
X-343747200Y90126800D01*
X-343747200Y90126800D02*
X-352247200Y90126800D01*
X-352247200Y90126800D02*
X-352247200Y89626800D01*
X-352247200Y89626800D02*
X-344247200Y89626800D01*
X-344247200Y89126800D02*
X-343747200Y89126800D01*
X-343747200Y89126800D02*
X-343747200Y89626800D01*
X-343747200Y89626800D02*
X-344247200Y89626800D01*
X-344247200Y89626800D02*
X-344247200Y88626800D01*
X-350247200Y72126800D02*
X-345247200Y68126800D01*
X-344247200Y77126800D02*
X-350247200Y72126800D01*
X-337832986Y88126800D02*
G75*
G03X-337832986Y88126800I-1414214J0D01*
G01*
X-337832986Y82126800D02*
G75*
G03X-337832986Y82126800I-1414214J0D01*
G01*
X-337832986Y76126800D02*
G75*
G03X-337832986Y76126800I-1414214J0D01*
G01*
X-340247200Y86126800D02*
X-339247200Y88126800D01*
X-342247200Y82126800D02*
X-340247200Y86126800D01*
X-342247200Y82126800D02*
X-339247200Y76126800D01*
X-344247200Y75126800D02*
X-344247200Y89126800D01*
X-344247200Y89126800D02*
X-342247200Y89126800D01*
X-342247200Y89126800D02*
X-342247200Y75126800D01*
X-342247200Y75126800D02*
X-344247200Y75126800D01*
X-319939400Y81495800D02*
X-320439400Y81995800D01*
X-320439400Y81995800D02*
X-320939400Y81495800D01*
X-320939400Y81495800D02*
X-321439400Y81995800D01*
X-321439400Y81995800D02*
X-321939400Y81495800D01*
X-321939400Y81495800D02*
X-322439400Y81995800D01*
X-322439400Y81995800D02*
X-322939400Y81495800D01*
X-322939400Y81495800D02*
X-323439400Y81995800D01*
X-323439400Y81995800D02*
X-323939400Y81495800D01*
X-323939400Y81495800D02*
X-324439400Y81995800D01*
X-324439400Y81995800D02*
X-324939400Y81495800D01*
X-325189400Y81745800D02*
X-325439400Y81995800D01*
X-325189400Y81745800D02*
X-325439400Y81495800D01*
X-326189400Y81995800D02*
X-326439400Y81745800D01*
X-326439400Y81745800D02*
X-326189400Y81495800D01*
X-324939400Y81495800D02*
X-325189400Y81495800D01*
X-324939400Y81995800D02*
X-325189400Y81995800D01*
X-324939400Y81745800D02*
X-325189400Y81745800D01*
X-325939400Y80745800D02*
X-325939400Y81495800D01*
X-325939400Y82745800D02*
X-325939400Y81995800D01*
X-327189400Y82745800D02*
X-325939400Y82745800D01*
X-327189400Y82745800D02*
X-327189400Y80745800D01*
X-327189400Y80745800D02*
X-325939400Y80745800D01*
X-326439400Y81495800D02*
X-325189400Y81495800D01*
X-326439400Y81995800D02*
X-325189400Y81995800D01*
X-324939400Y81245800D02*
X-325189400Y81245800D01*
X-325189400Y81245800D02*
X-325189400Y82245800D01*
X-325189400Y82245800D02*
X-324939400Y82245800D01*
X-324939400Y82245800D02*
X-324939400Y81995800D01*
X-326439400Y81995800D02*
X-326439400Y81495800D01*
X-326939400Y80745800D02*
X-326939400Y80245800D01*
X-326939400Y80245800D02*
X-326189400Y80245800D01*
X-326189400Y80245800D02*
X-326189400Y80745800D01*
X-324939400Y82245800D02*
X-324939400Y81245800D01*
X-320439400Y65995800D02*
X-320439400Y65745800D01*
X-320939400Y66495800D02*
X-321439400Y66495800D01*
X-321439400Y66495800D02*
X-321439400Y65745800D01*
X-320939400Y67745800D02*
X-320939400Y66495800D01*
X-320939400Y66495800D02*
X-320439400Y66495800D01*
X-320439400Y66495800D02*
X-320439400Y65995800D01*
X-316439400Y84745800D02*
X-314939400Y81745800D01*
X-319939400Y81495800D02*
X-324939400Y81495800D01*
X-324939400Y81495800D02*
X-324939400Y81995800D01*
X-324939400Y81995800D02*
X-319939400Y81995800D01*
X-319439400Y89245800D02*
X-319439400Y89745800D01*
X-319439400Y89745800D02*
X-327939400Y89745800D01*
X-327939400Y89745800D02*
X-327939400Y89245800D01*
X-327939400Y89245800D02*
X-319939400Y89245800D01*
X-319939400Y88745800D02*
X-319439400Y88745800D01*
X-319439400Y88745800D02*
X-319439400Y89245800D01*
X-319439400Y89245800D02*
X-319939400Y89245800D01*
X-319939400Y89245800D02*
X-319939400Y88245800D01*
X-325939400Y71745800D02*
X-320939400Y67745800D01*
X-319939400Y76745800D02*
X-325939400Y71745800D01*
X-313525186Y87745800D02*
G75*
G03X-313525186Y87745800I-1414214J0D01*
G01*
X-313525186Y81745800D02*
G75*
G03X-313525186Y81745800I-1414214J0D01*
G01*
X-313525186Y75745800D02*
G75*
G03X-313525186Y75745800I-1414214J0D01*
G01*
X-315939400Y85745800D02*
X-314939400Y87745800D01*
X-317939400Y81745800D02*
X-315939400Y85745800D01*
X-317939400Y81745800D02*
X-314939400Y75745800D01*
X-319939400Y74745800D02*
X-319939400Y88745800D01*
X-319939400Y88745800D02*
X-317939400Y88745800D01*
X-317939400Y88745800D02*
X-317939400Y74745800D01*
X-317939400Y74745800D02*
X-319939400Y74745800D01*
X-350520000Y31394400D02*
X-350774000Y31013400D01*
X-350774000Y31013400D02*
X-351282000Y31013400D01*
X-350520000Y31394400D02*
X-350774000Y31775400D01*
X-350774000Y31775400D02*
X-351282000Y31775400D01*
X-341122000Y29489400D02*
X-345059000Y34823400D01*
X-345059000Y34823400D02*
X-350012000Y31394400D01*
X-350012000Y31394400D02*
X-350520000Y31394400D01*
X-339979000Y29489400D02*
X-342265000Y29489400D01*
X-342392000Y26822400D02*
X-328168000Y26822400D01*
X-328168000Y29362400D02*
X-342392000Y29362400D01*
X-327660000Y37998400D02*
X-327533000Y37998400D01*
X-327533000Y28854400D02*
X-327787000Y28854400D01*
X-335026000Y35712400D02*
X-334518000Y35712400D01*
X-335788000Y35712400D02*
X-335534000Y35712400D01*
X-335534000Y35204400D02*
X-335026000Y35204400D01*
X-335026000Y35712400D02*
X-335026000Y36093400D01*
X-335026000Y36093400D02*
X-335534000Y36093400D01*
X-335534000Y36093400D02*
X-335534000Y35712400D01*
X-336042000Y35839400D02*
X-336296000Y35839400D01*
X-336296000Y35839400D02*
X-336296000Y36347400D01*
X-336296000Y36347400D02*
X-336042000Y36347400D01*
X-335788000Y35712400D02*
X-336042000Y35712400D01*
X-336042000Y35712400D02*
X-336042000Y36474400D01*
X-336042000Y36474400D02*
X-335534000Y36474400D01*
X-335788000Y36474400D02*
X-334518000Y36474400D01*
X-334518000Y36474400D02*
X-334518000Y35712400D01*
X-335026000Y29362400D02*
X-335534000Y29870400D01*
X-335534000Y29870400D02*
X-335026000Y30378400D01*
X-335026000Y30378400D02*
X-335534000Y30886400D01*
X-335534000Y30886400D02*
X-335026000Y31648400D01*
X-335026000Y31648400D02*
X-335534000Y32156400D01*
X-335534000Y32156400D02*
X-335026000Y32664400D01*
X-335026000Y32664400D02*
X-335534000Y33172400D01*
X-335534000Y33172400D02*
X-335026000Y33680400D01*
X-335026000Y33680400D02*
X-335534000Y34188400D01*
X-335534000Y34188400D02*
X-335026000Y34696400D01*
X-335026000Y34696400D02*
X-335534000Y35204400D01*
X-335026000Y29362400D02*
X-335534000Y29362400D01*
X-335534000Y29362400D02*
X-335534000Y35712400D01*
X-335026000Y35712400D02*
X-335026000Y29362400D01*
X-327914000Y28854400D02*
X-327660000Y28854400D01*
X-327533000Y28854400D02*
X-327533000Y37998400D01*
X-327660000Y37998400D02*
X-327914000Y37998400D01*
X-327914000Y37998400D02*
X-327914000Y29362400D01*
X-328168000Y28854400D02*
X-327914000Y28854400D01*
X-327914000Y28854400D02*
X-327914000Y29362400D01*
X-327914000Y29362400D02*
X-328168000Y29362400D01*
X-340360000Y24282400D02*
G75*
G03X-340360000Y24282400I-1270000J0D01*
G01*
X-334010000Y24282400D02*
G75*
G03X-334010000Y24282400I-1270000J0D01*
G01*
X-327660000Y24282400D02*
G75*
G03X-327660000Y24282400I-1270000J0D01*
G01*
X-335280000Y24282400D02*
X-332232000Y25552400D01*
X-335280000Y26822400D02*
X-341630000Y24282400D01*
X-342392000Y26822400D02*
X-342392000Y29362400D01*
X-335280000Y26822400D02*
X-328930000Y24282400D01*
X-328168000Y29362400D02*
X-328168000Y26822400D01*
X-329991200Y-11420400D02*
X-329291200Y-11420400D01*
X-329291200Y-10220400D02*
X-329991200Y-10220400D01*
X-335833200Y-11420400D02*
X-335133200Y-11420400D01*
X-335133200Y-10220400D02*
X-335833200Y-10220400D01*
X-334375200Y-5328400D02*
X-334375200Y-4628400D01*
X-335575200Y-4628400D02*
X-335575200Y-5328400D01*
X-335899200Y259600D02*
X-335899200Y959600D01*
X-337099200Y959600D02*
X-337099200Y259600D01*
X-336341200Y5343600D02*
X-335641200Y5343600D01*
X-335641200Y6543600D02*
X-336341200Y6543600D01*
X-335899200Y-5328400D02*
X-335899200Y-4628400D01*
X-337099200Y-4628400D02*
X-337099200Y-5328400D01*
X-324215200Y1021600D02*
X-324215200Y1721600D01*
X-325415200Y1721600D02*
X-325415200Y1021600D01*
X-322183200Y1021600D02*
X-322183200Y1721600D01*
X-323383200Y1721600D02*
X-323383200Y1021600D01*
X-335499200Y-14385400D02*
X-337499200Y-14385400D01*
X-337499200Y-12335400D02*
X-335499200Y-12335400D01*
X-336891000Y11031600D02*
X-336891000Y12031600D01*
X-338241000Y12031600D02*
X-338241000Y11031600D01*
X-334300200Y11082400D02*
X-334300200Y12082400D01*
X-335650200Y12082400D02*
X-335650200Y11082400D01*
X-348945200Y-13868400D02*
X-348564200Y-14122400D01*
X-348564200Y-14122400D02*
X-348564200Y-14630400D01*
X-348945200Y-13868400D02*
X-349326200Y-14122400D01*
X-349326200Y-14122400D02*
X-349326200Y-14630400D01*
X-347040200Y-4470400D02*
X-352374200Y-8407400D01*
X-352374200Y-8407400D02*
X-348945200Y-13360400D01*
X-348945200Y-13360400D02*
X-348945200Y-13868400D01*
X-347040200Y-3327400D02*
X-347040200Y-5613400D01*
X-344373200Y-5740400D02*
X-344373200Y8483600D01*
X-346913200Y8483600D02*
X-346913200Y-5740400D01*
X-355549200Y8991600D02*
X-355549200Y9118600D01*
X-346405200Y9118600D02*
X-346405200Y8864600D01*
X-353263200Y1625600D02*
X-353263200Y2133600D01*
X-353263200Y863600D02*
X-353263200Y1117600D01*
X-352755200Y1117600D02*
X-352755200Y1625600D01*
X-353263200Y1625600D02*
X-353644200Y1625600D01*
X-353644200Y1625600D02*
X-353644200Y1117600D01*
X-353644200Y1117600D02*
X-353263200Y1117600D01*
X-353390200Y609600D02*
X-353390200Y355600D01*
X-353390200Y355600D02*
X-353898200Y355600D01*
X-353898200Y355600D02*
X-353898200Y609600D01*
X-353263200Y863600D02*
X-353263200Y609600D01*
X-353263200Y609600D02*
X-354025200Y609600D01*
X-354025200Y609600D02*
X-354025200Y1117600D01*
X-354025200Y863600D02*
X-354025200Y2133600D01*
X-354025200Y2133600D02*
X-353263200Y2133600D01*
X-346913200Y1625600D02*
X-347421200Y1117600D01*
X-347421200Y1117600D02*
X-347929200Y1625600D01*
X-347929200Y1625600D02*
X-348437200Y1117600D01*
X-348437200Y1117600D02*
X-349199200Y1625600D01*
X-349199200Y1625600D02*
X-349707200Y1117600D01*
X-349707200Y1117600D02*
X-350215200Y1625600D01*
X-350215200Y1625600D02*
X-350723200Y1117600D01*
X-350723200Y1117600D02*
X-351231200Y1625600D01*
X-351231200Y1625600D02*
X-351739200Y1117600D01*
X-351739200Y1117600D02*
X-352247200Y1625600D01*
X-352247200Y1625600D02*
X-352755200Y1117600D01*
X-346913200Y1625600D02*
X-346913200Y1117600D01*
X-346913200Y1117600D02*
X-353263200Y1117600D01*
X-353263200Y1625600D02*
X-346913200Y1625600D01*
X-346405200Y8737600D02*
X-346405200Y8991600D01*
X-346405200Y9118600D02*
X-355549200Y9118600D01*
X-355549200Y8991600D02*
X-355549200Y8737600D01*
X-355549200Y8737600D02*
X-346913200Y8737600D01*
X-346405200Y8483600D02*
X-346405200Y8737600D01*
X-346405200Y8737600D02*
X-346913200Y8737600D01*
X-346913200Y8737600D02*
X-346913200Y8483600D01*
X-340563200Y-4978400D02*
G75*
G03X-340563200Y-4978400I-1270000J0D01*
G01*
X-340563200Y1371600D02*
G75*
G03X-340563200Y1371600I-1270000J0D01*
G01*
X-340563200Y7721600D02*
G75*
G03X-340563200Y7721600I-1270000J0D01*
G01*
X-341833200Y1371600D02*
X-343103200Y4419600D01*
X-344373200Y1371600D02*
X-341833200Y-4978400D01*
X-344373200Y-5740400D02*
X-346913200Y-5740400D01*
X-344373200Y1371600D02*
X-341833200Y7721600D01*
X-346913200Y8483600D02*
X-344373200Y8483600D01*
X-475904133Y22280619D02*
X-475904133Y23280619D01*
X-476237467Y22566333D01*
X-476570800Y23280619D01*
X-476570800Y22280619D01*
X-476999371Y22566333D02*
X-477475562Y22566333D01*
X-476904133Y22280619D02*
X-477237466Y23280619D01*
X-477570800Y22280619D01*
X-477761276Y23280619D02*
X-478094609Y22280619D01*
X-478427943Y23280619D01*
X-478666038Y23280619D02*
X-479285086Y23280619D01*
X-478951752Y22899667D01*
X-479094610Y22899667D01*
X-479189848Y22852048D01*
X-479237467Y22804429D01*
X-479285086Y22709190D01*
X-479285086Y22471095D01*
X-479237467Y22375857D01*
X-479189848Y22328238D01*
X-479094610Y22280619D01*
X-478808895Y22280619D01*
X-478713657Y22328238D01*
X-478666038Y22375857D01*
D12*
X-457268301Y23542738D02*
X-457268301Y25542738D01*
X-458268301Y24114167D01*
X-459268301Y25542738D01*
X-459268301Y23542738D01*
X-462839729Y24114167D02*
X-464268300Y24114167D01*
X-462554014Y23542738D02*
X-463554014Y25542738D01*
X-464554014Y23542738D01*
X-467411157Y25542738D02*
X-468411157Y23542738D01*
X-469411157Y25542738D01*
X-474411157Y23542738D02*
X-473411157Y24495119D01*
X-472696872Y23542738D02*
X-472696872Y25542738D01*
X-473839729Y25542738D01*
X-474125443Y25447500D01*
X-474268300Y25352262D01*
X-474411157Y25161786D01*
X-474411157Y24876071D01*
X-474268300Y24685595D01*
X-474125443Y24590357D01*
X-473839729Y24495119D01*
X-472696872Y24495119D01*
X-477982586Y23542738D02*
X-477982586Y25542738D01*
X-483411156Y23733214D02*
X-483268299Y23637976D01*
X-482839728Y23542738D01*
X-482554014Y23542738D01*
X-482125442Y23637976D01*
X-481839728Y23828452D01*
X-481696871Y24018929D01*
X-481554014Y24399881D01*
X-481554014Y24685595D01*
X-481696871Y25066548D01*
X-481839728Y25257024D01*
X-482125442Y25447500D01*
X-482554014Y25542738D01*
X-482839728Y25542738D01*
X-483268299Y25447500D01*
X-483411156Y25352262D01*
D11*
X-467194657Y3595666D02*
X-467147038Y3643285D01*
X-467099419Y3786142D01*
X-467099419Y3881380D01*
X-467147038Y4024238D01*
X-467242276Y4119476D01*
X-467337514Y4167095D01*
X-467527990Y4214714D01*
X-467670848Y4214714D01*
X-467861324Y4167095D01*
X-467956562Y4119476D01*
X-468051800Y4024238D01*
X-468099419Y3881380D01*
X-468099419Y3786142D01*
X-468051800Y3643285D01*
X-468004181Y3595666D01*
X-467099419Y3119476D02*
X-467099419Y2929000D01*
X-467147038Y2833761D01*
X-467194657Y2786142D01*
X-467337514Y2690904D01*
X-467527990Y2643285D01*
X-467908943Y2643285D01*
X-468004181Y2690904D01*
X-468051800Y2738523D01*
X-468099419Y2833761D01*
X-468099419Y3024238D01*
X-468051800Y3119476D01*
X-468004181Y3167095D01*
X-467908943Y3214714D01*
X-467670848Y3214714D01*
X-467575610Y3167095D01*
X-467527990Y3119476D01*
X-467480371Y3024238D01*
X-467480371Y2833761D01*
X-467527990Y2738523D01*
X-467575610Y2690904D01*
X-467670848Y2643285D01*
X-448243657Y2166857D02*
X-448196038Y2214476D01*
X-448148419Y2357333D01*
X-448148419Y2452571D01*
X-448196038Y2595429D01*
X-448291276Y2690667D01*
X-448386514Y2738286D01*
X-448576990Y2785905D01*
X-448719848Y2785905D01*
X-448910324Y2738286D01*
X-449005562Y2690667D01*
X-449100800Y2595429D01*
X-449148419Y2452571D01*
X-449148419Y2357333D01*
X-449100800Y2214476D01*
X-449053181Y2166857D01*
X-448148419Y1214476D02*
X-448148419Y1785905D01*
X-448148419Y1500191D02*
X-449148419Y1500191D01*
X-449005562Y1595429D01*
X-448910324Y1690667D01*
X-448862705Y1785905D01*
X-449148419Y595429D02*
X-449148419Y500190D01*
X-449100800Y404952D01*
X-449053181Y357333D01*
X-448957943Y309714D01*
X-448767467Y262095D01*
X-448529371Y262095D01*
X-448338895Y309714D01*
X-448243657Y357333D01*
X-448196038Y404952D01*
X-448148419Y500190D01*
X-448148419Y595429D01*
X-448196038Y690667D01*
X-448243657Y738286D01*
X-448338895Y785905D01*
X-448529371Y833524D01*
X-448767467Y833524D01*
X-448957943Y785905D01*
X-449053181Y738286D01*
X-449100800Y690667D01*
X-449148419Y595429D01*
X-464654657Y10040857D02*
X-464607038Y10088476D01*
X-464559419Y10231333D01*
X-464559419Y10326571D01*
X-464607038Y10469429D01*
X-464702276Y10564667D01*
X-464797514Y10612286D01*
X-464987990Y10659905D01*
X-465130848Y10659905D01*
X-465321324Y10612286D01*
X-465416562Y10564667D01*
X-465511800Y10469429D01*
X-465559419Y10326571D01*
X-465559419Y10231333D01*
X-465511800Y10088476D01*
X-465464181Y10040857D01*
X-464559419Y9088476D02*
X-464559419Y9659905D01*
X-464559419Y9374191D02*
X-465559419Y9374191D01*
X-465416562Y9469429D01*
X-465321324Y9564667D01*
X-465273705Y9659905D01*
X-464559419Y8136095D02*
X-464559419Y8707524D01*
X-464559419Y8421810D02*
X-465559419Y8421810D01*
X-465416562Y8517048D01*
X-465321324Y8612286D01*
X-465273705Y8707524D01*
X-395362134Y-5711543D02*
X-395314515Y-5759162D01*
X-395171658Y-5806781D01*
X-395076420Y-5806781D01*
X-394933562Y-5759162D01*
X-394838324Y-5663924D01*
X-394790705Y-5568686D01*
X-394743086Y-5378210D01*
X-394743086Y-5235352D01*
X-394790705Y-5044876D01*
X-394838324Y-4949638D01*
X-394933562Y-4854400D01*
X-395076420Y-4806781D01*
X-395171658Y-4806781D01*
X-395314515Y-4854400D01*
X-395362134Y-4902019D01*
X-396314515Y-5806781D02*
X-395743086Y-5806781D01*
X-396028800Y-5806781D02*
X-396028800Y-4806781D01*
X-395933562Y-4949638D01*
X-395838324Y-5044876D01*
X-395743086Y-5092495D01*
X-401204134Y-5711543D02*
X-401156515Y-5759162D01*
X-401013658Y-5806781D01*
X-400918420Y-5806781D01*
X-400775562Y-5759162D01*
X-400680324Y-5663924D01*
X-400632705Y-5568686D01*
X-400585086Y-5378210D01*
X-400585086Y-5235352D01*
X-400632705Y-5044876D01*
X-400680324Y-4949638D01*
X-400775562Y-4854400D01*
X-400918420Y-4806781D01*
X-401013658Y-4806781D01*
X-401156515Y-4854400D01*
X-401204134Y-4902019D01*
X-401585086Y-4902019D02*
X-401632705Y-4854400D01*
X-401727943Y-4806781D01*
X-401966039Y-4806781D01*
X-402061277Y-4854400D01*
X-402108896Y-4902019D01*
X-402156515Y-4997257D01*
X-402156515Y-5092495D01*
X-402108896Y-5235352D01*
X-401537467Y-5806781D01*
X-402156515Y-5806781D01*
X-400505657Y-493734D02*
X-400458038Y-446115D01*
X-400410419Y-303258D01*
X-400410419Y-208020D01*
X-400458038Y-65162D01*
X-400553276Y30076D01*
X-400648514Y77695D01*
X-400838990Y125314D01*
X-400981848Y125314D01*
X-401172324Y77695D01*
X-401267562Y30076D01*
X-401362800Y-65162D01*
X-401410419Y-208020D01*
X-401410419Y-303258D01*
X-401362800Y-446115D01*
X-401315181Y-493734D01*
X-401410419Y-827067D02*
X-401410419Y-1446115D01*
X-401029467Y-1112781D01*
X-401029467Y-1255639D01*
X-400981848Y-1350877D01*
X-400934229Y-1398496D01*
X-400838990Y-1446115D01*
X-400600895Y-1446115D01*
X-400505657Y-1398496D01*
X-400458038Y-1350877D01*
X-400410419Y-1255639D01*
X-400410419Y-969924D01*
X-400458038Y-874686D01*
X-400505657Y-827067D01*
X-400129657Y8142266D02*
X-400082038Y8189885D01*
X-400034419Y8332742D01*
X-400034419Y8427980D01*
X-400082038Y8570838D01*
X-400177276Y8666076D01*
X-400272514Y8713695D01*
X-400462990Y8761314D01*
X-400605848Y8761314D01*
X-400796324Y8713695D01*
X-400891562Y8666076D01*
X-400986800Y8570838D01*
X-401034419Y8427980D01*
X-401034419Y8332742D01*
X-400986800Y8189885D01*
X-400939181Y8142266D01*
X-400701086Y7285123D02*
X-400034419Y7285123D01*
X-401082038Y7523219D02*
X-400367752Y7761314D01*
X-400367752Y7142266D01*
X-401712134Y11052457D02*
X-401664515Y11004838D01*
X-401521658Y10957219D01*
X-401426420Y10957219D01*
X-401283562Y11004838D01*
X-401188324Y11100076D01*
X-401140705Y11195314D01*
X-401093086Y11385790D01*
X-401093086Y11528648D01*
X-401140705Y11719124D01*
X-401188324Y11814362D01*
X-401283562Y11909600D01*
X-401426420Y11957219D01*
X-401521658Y11957219D01*
X-401664515Y11909600D01*
X-401712134Y11861981D01*
X-402616896Y11957219D02*
X-402140705Y11957219D01*
X-402093086Y11481029D01*
X-402140705Y11528648D01*
X-402235943Y11576267D01*
X-402474039Y11576267D01*
X-402569277Y11528648D01*
X-402616896Y11481029D01*
X-402664515Y11385790D01*
X-402664515Y11147695D01*
X-402616896Y11052457D01*
X-402569277Y11004838D01*
X-402474039Y10957219D01*
X-402235943Y10957219D01*
X-402140705Y11004838D01*
X-402093086Y11052457D01*
X-402029657Y-239734D02*
X-401982038Y-192115D01*
X-401934419Y-49258D01*
X-401934419Y45980D01*
X-401982038Y188838D01*
X-402077276Y284076D01*
X-402172514Y331695D01*
X-402362990Y379314D01*
X-402505848Y379314D01*
X-402696324Y331695D01*
X-402791562Y284076D01*
X-402886800Y188838D01*
X-402934419Y45980D01*
X-402934419Y-49258D01*
X-402886800Y-192115D01*
X-402839181Y-239734D01*
X-402934419Y-1096877D02*
X-402934419Y-906400D01*
X-402886800Y-811162D01*
X-402839181Y-763543D01*
X-402696324Y-668305D01*
X-402505848Y-620686D01*
X-402124895Y-620686D01*
X-402029657Y-668305D01*
X-401982038Y-715924D01*
X-401934419Y-811162D01*
X-401934419Y-1001639D01*
X-401982038Y-1096877D01*
X-402029657Y-1144496D01*
X-402124895Y-1192115D01*
X-402362990Y-1192115D01*
X-402458229Y-1144496D01*
X-402505848Y-1096877D01*
X-402553467Y-1001639D01*
X-402553467Y-811162D01*
X-402505848Y-715924D01*
X-402458229Y-668305D01*
X-402362990Y-620686D01*
X-388445657Y8904266D02*
X-388398038Y8951885D01*
X-388350419Y9094742D01*
X-388350419Y9189980D01*
X-388398038Y9332838D01*
X-388493276Y9428076D01*
X-388588514Y9475695D01*
X-388778990Y9523314D01*
X-388921848Y9523314D01*
X-389112324Y9475695D01*
X-389207562Y9428076D01*
X-389302800Y9332838D01*
X-389350419Y9189980D01*
X-389350419Y9094742D01*
X-389302800Y8951885D01*
X-389255181Y8904266D01*
X-389350419Y8570933D02*
X-389350419Y7904266D01*
X-388350419Y8332838D01*
X-386413657Y8904266D02*
X-386366038Y8951885D01*
X-386318419Y9094742D01*
X-386318419Y9189980D01*
X-386366038Y9332838D01*
X-386461276Y9428076D01*
X-386556514Y9475695D01*
X-386746990Y9523314D01*
X-386889848Y9523314D01*
X-387080324Y9475695D01*
X-387175562Y9428076D01*
X-387270800Y9332838D01*
X-387318419Y9189980D01*
X-387318419Y9094742D01*
X-387270800Y8951885D01*
X-387223181Y8904266D01*
X-386318419Y8428076D02*
X-386318419Y8237600D01*
X-386366038Y8142361D01*
X-386413657Y8094742D01*
X-386556514Y7999504D01*
X-386746990Y7951885D01*
X-387127943Y7951885D01*
X-387223181Y7999504D01*
X-387270800Y8047123D01*
X-387318419Y8142361D01*
X-387318419Y8332838D01*
X-387270800Y8428076D01*
X-387223181Y8475695D01*
X-387127943Y8523314D01*
X-386889848Y8523314D01*
X-386794610Y8475695D01*
X-386746990Y8428076D01*
X-386699371Y8332838D01*
X-386699371Y8142361D01*
X-386746990Y8047123D01*
X-386794610Y7999504D01*
X-386889848Y7951885D01*
X-401743943Y-8651543D02*
X-401696324Y-8699162D01*
X-401553467Y-8746781D01*
X-401458229Y-8746781D01*
X-401315371Y-8699162D01*
X-401220133Y-8603924D01*
X-401172514Y-8508686D01*
X-401124895Y-8318210D01*
X-401124895Y-8175352D01*
X-401172514Y-7984876D01*
X-401220133Y-7889638D01*
X-401315371Y-7794400D01*
X-401458229Y-7746781D01*
X-401553467Y-7746781D01*
X-401696324Y-7794400D01*
X-401743943Y-7842019D01*
X-402696324Y-8746781D02*
X-402124895Y-8746781D01*
X-402410609Y-8746781D02*
X-402410609Y-7746781D01*
X-402315371Y-7889638D01*
X-402220133Y-7984876D01*
X-402124895Y-8032495D01*
X-403315371Y-7746781D02*
X-403410610Y-7746781D01*
X-403505848Y-7794400D01*
X-403553467Y-7842019D01*
X-403601086Y-7937257D01*
X-403648705Y-8127733D01*
X-403648705Y-8365829D01*
X-403601086Y-8556305D01*
X-403553467Y-8651543D01*
X-403505848Y-8699162D01*
X-403410610Y-8746781D01*
X-403315371Y-8746781D01*
X-403220133Y-8699162D01*
X-403172514Y-8651543D01*
X-403124895Y-8556305D01*
X-403077276Y-8365829D01*
X-403077276Y-8127733D01*
X-403124895Y-7937257D01*
X-403172514Y-7842019D01*
X-403220133Y-7794400D01*
X-403315371Y-7746781D01*
X-403001219Y22366266D02*
X-403477410Y22699600D01*
X-403001219Y22937695D02*
X-404001219Y22937695D01*
X-404001219Y22556742D01*
X-403953600Y22461504D01*
X-403905981Y22413885D01*
X-403810743Y22366266D01*
X-403667886Y22366266D01*
X-403572648Y22413885D01*
X-403525029Y22461504D01*
X-403477410Y22556742D01*
X-403477410Y22937695D01*
X-404001219Y22032933D02*
X-404001219Y21413885D01*
X-403620267Y21747219D01*
X-403620267Y21604361D01*
X-403572648Y21509123D01*
X-403525029Y21461504D01*
X-403429790Y21413885D01*
X-403191695Y21413885D01*
X-403096457Y21461504D01*
X-403048838Y21509123D01*
X-403001219Y21604361D01*
X-403001219Y21890076D01*
X-403048838Y21985314D01*
X-403096457Y22032933D01*
X-400410419Y22417066D02*
X-400886610Y22750400D01*
X-400410419Y22988495D02*
X-401410419Y22988495D01*
X-401410419Y22607542D01*
X-401362800Y22512304D01*
X-401315181Y22464685D01*
X-401219943Y22417066D01*
X-401077086Y22417066D01*
X-400981848Y22464685D01*
X-400934229Y22512304D01*
X-400886610Y22607542D01*
X-400886610Y22988495D01*
X-401077086Y21559923D02*
X-400410419Y21559923D01*
X-401458038Y21798019D02*
X-400743752Y22036114D01*
X-400743752Y21417066D01*
X-402696419Y4308267D02*
X-403696419Y4308267D01*
X-402982133Y3974933D01*
X-403696419Y3641600D01*
X-402696419Y3641600D01*
X-402982133Y3213029D02*
X-402982133Y2736838D01*
X-402696419Y3308267D02*
X-403696419Y2974934D01*
X-402696419Y2641600D01*
X-403696419Y2451124D02*
X-402696419Y2117791D01*
X-403696419Y1784457D01*
X-403696419Y1546362D02*
X-403696419Y927314D01*
X-403315467Y1260648D01*
X-403315467Y1117790D01*
X-403267848Y1022552D01*
X-403220229Y974933D01*
X-403124990Y927314D01*
X-402886895Y927314D01*
X-402791657Y974933D01*
X-402744038Y1022552D01*
X-402696419Y1117790D01*
X-402696419Y1403505D01*
X-402744038Y1498743D01*
X-402791657Y1546362D01*
X-395158934Y40821257D02*
X-395111315Y40773638D01*
X-394968458Y40726019D01*
X-394873220Y40726019D01*
X-394730362Y40773638D01*
X-394635124Y40868876D01*
X-394587505Y40964114D01*
X-394539886Y41154590D01*
X-394539886Y41297448D01*
X-394587505Y41487924D01*
X-394635124Y41583162D01*
X-394730362Y41678400D01*
X-394873220Y41726019D01*
X-394968458Y41726019D01*
X-395111315Y41678400D01*
X-395158934Y41630781D01*
X-396111315Y40726019D02*
X-395539886Y40726019D01*
X-395825600Y40726019D02*
X-395825600Y41726019D01*
X-395730362Y41583162D01*
X-395635124Y41487924D01*
X-395539886Y41440305D01*
X-401000934Y40821257D02*
X-400953315Y40773638D01*
X-400810458Y40726019D01*
X-400715220Y40726019D01*
X-400572362Y40773638D01*
X-400477124Y40868876D01*
X-400429505Y40964114D01*
X-400381886Y41154590D01*
X-400381886Y41297448D01*
X-400429505Y41487924D01*
X-400477124Y41583162D01*
X-400572362Y41678400D01*
X-400715220Y41726019D01*
X-400810458Y41726019D01*
X-400953315Y41678400D01*
X-401000934Y41630781D01*
X-401381886Y41630781D02*
X-401429505Y41678400D01*
X-401524743Y41726019D01*
X-401762839Y41726019D01*
X-401858077Y41678400D01*
X-401905696Y41630781D01*
X-401953315Y41535543D01*
X-401953315Y41440305D01*
X-401905696Y41297448D01*
X-401334267Y40726019D01*
X-401953315Y40726019D01*
X-400302457Y46039066D02*
X-400254838Y46086685D01*
X-400207219Y46229542D01*
X-400207219Y46324780D01*
X-400254838Y46467638D01*
X-400350076Y46562876D01*
X-400445314Y46610495D01*
X-400635790Y46658114D01*
X-400778648Y46658114D01*
X-400969124Y46610495D01*
X-401064362Y46562876D01*
X-401159600Y46467638D01*
X-401207219Y46324780D01*
X-401207219Y46229542D01*
X-401159600Y46086685D01*
X-401111981Y46039066D01*
X-401207219Y45705733D02*
X-401207219Y45086685D01*
X-400826267Y45420019D01*
X-400826267Y45277161D01*
X-400778648Y45181923D01*
X-400731029Y45134304D01*
X-400635790Y45086685D01*
X-400397695Y45086685D01*
X-400302457Y45134304D01*
X-400254838Y45181923D01*
X-400207219Y45277161D01*
X-400207219Y45562876D01*
X-400254838Y45658114D01*
X-400302457Y45705733D01*
X-399926457Y54675066D02*
X-399878838Y54722685D01*
X-399831219Y54865542D01*
X-399831219Y54960780D01*
X-399878838Y55103638D01*
X-399974076Y55198876D01*
X-400069314Y55246495D01*
X-400259790Y55294114D01*
X-400402648Y55294114D01*
X-400593124Y55246495D01*
X-400688362Y55198876D01*
X-400783600Y55103638D01*
X-400831219Y54960780D01*
X-400831219Y54865542D01*
X-400783600Y54722685D01*
X-400735981Y54675066D01*
X-400497886Y53817923D02*
X-399831219Y53817923D01*
X-400878838Y54056019D02*
X-400164552Y54294114D01*
X-400164552Y53675066D01*
X-401508934Y57585257D02*
X-401461315Y57537638D01*
X-401318458Y57490019D01*
X-401223220Y57490019D01*
X-401080362Y57537638D01*
X-400985124Y57632876D01*
X-400937505Y57728114D01*
X-400889886Y57918590D01*
X-400889886Y58061448D01*
X-400937505Y58251924D01*
X-400985124Y58347162D01*
X-401080362Y58442400D01*
X-401223220Y58490019D01*
X-401318458Y58490019D01*
X-401461315Y58442400D01*
X-401508934Y58394781D01*
X-402413696Y58490019D02*
X-401937505Y58490019D01*
X-401889886Y58013829D01*
X-401937505Y58061448D01*
X-402032743Y58109067D01*
X-402270839Y58109067D01*
X-402366077Y58061448D01*
X-402413696Y58013829D01*
X-402461315Y57918590D01*
X-402461315Y57680495D01*
X-402413696Y57585257D01*
X-402366077Y57537638D01*
X-402270839Y57490019D01*
X-402032743Y57490019D01*
X-401937505Y57537638D01*
X-401889886Y57585257D01*
X-401826457Y46293066D02*
X-401778838Y46340685D01*
X-401731219Y46483542D01*
X-401731219Y46578780D01*
X-401778838Y46721638D01*
X-401874076Y46816876D01*
X-401969314Y46864495D01*
X-402159790Y46912114D01*
X-402302648Y46912114D01*
X-402493124Y46864495D01*
X-402588362Y46816876D01*
X-402683600Y46721638D01*
X-402731219Y46578780D01*
X-402731219Y46483542D01*
X-402683600Y46340685D01*
X-402635981Y46293066D01*
X-402731219Y45435923D02*
X-402731219Y45626400D01*
X-402683600Y45721638D01*
X-402635981Y45769257D01*
X-402493124Y45864495D01*
X-402302648Y45912114D01*
X-401921695Y45912114D01*
X-401826457Y45864495D01*
X-401778838Y45816876D01*
X-401731219Y45721638D01*
X-401731219Y45531161D01*
X-401778838Y45435923D01*
X-401826457Y45388304D01*
X-401921695Y45340685D01*
X-402159790Y45340685D01*
X-402255029Y45388304D01*
X-402302648Y45435923D01*
X-402350267Y45531161D01*
X-402350267Y45721638D01*
X-402302648Y45816876D01*
X-402255029Y45864495D01*
X-402159790Y45912114D01*
X-388242457Y55437066D02*
X-388194838Y55484685D01*
X-388147219Y55627542D01*
X-388147219Y55722780D01*
X-388194838Y55865638D01*
X-388290076Y55960876D01*
X-388385314Y56008495D01*
X-388575790Y56056114D01*
X-388718648Y56056114D01*
X-388909124Y56008495D01*
X-389004362Y55960876D01*
X-389099600Y55865638D01*
X-389147219Y55722780D01*
X-389147219Y55627542D01*
X-389099600Y55484685D01*
X-389051981Y55437066D01*
X-389147219Y55103733D02*
X-389147219Y54437066D01*
X-388147219Y54865638D01*
X-386210457Y55437066D02*
X-386162838Y55484685D01*
X-386115219Y55627542D01*
X-386115219Y55722780D01*
X-386162838Y55865638D01*
X-386258076Y55960876D01*
X-386353314Y56008495D01*
X-386543790Y56056114D01*
X-386686648Y56056114D01*
X-386877124Y56008495D01*
X-386972362Y55960876D01*
X-387067600Y55865638D01*
X-387115219Y55722780D01*
X-387115219Y55627542D01*
X-387067600Y55484685D01*
X-387019981Y55437066D01*
X-386115219Y54960876D02*
X-386115219Y54770400D01*
X-386162838Y54675161D01*
X-386210457Y54627542D01*
X-386353314Y54532304D01*
X-386543790Y54484685D01*
X-386924743Y54484685D01*
X-387019981Y54532304D01*
X-387067600Y54579923D01*
X-387115219Y54675161D01*
X-387115219Y54865638D01*
X-387067600Y54960876D01*
X-387019981Y55008495D01*
X-386924743Y55056114D01*
X-386686648Y55056114D01*
X-386591410Y55008495D01*
X-386543790Y54960876D01*
X-386496171Y54865638D01*
X-386496171Y54675161D01*
X-386543790Y54579923D01*
X-386591410Y54532304D01*
X-386686648Y54484685D01*
X-401540743Y37881257D02*
X-401493124Y37833638D01*
X-401350267Y37786019D01*
X-401255029Y37786019D01*
X-401112171Y37833638D01*
X-401016933Y37928876D01*
X-400969314Y38024114D01*
X-400921695Y38214590D01*
X-400921695Y38357448D01*
X-400969314Y38547924D01*
X-401016933Y38643162D01*
X-401112171Y38738400D01*
X-401255029Y38786019D01*
X-401350267Y38786019D01*
X-401493124Y38738400D01*
X-401540743Y38690781D01*
X-402493124Y37786019D02*
X-401921695Y37786019D01*
X-402207409Y37786019D02*
X-402207409Y38786019D01*
X-402112171Y38643162D01*
X-402016933Y38547924D01*
X-401921695Y38500305D01*
X-403112171Y38786019D02*
X-403207410Y38786019D01*
X-403302648Y38738400D01*
X-403350267Y38690781D01*
X-403397886Y38595543D01*
X-403445505Y38405067D01*
X-403445505Y38166971D01*
X-403397886Y37976495D01*
X-403350267Y37881257D01*
X-403302648Y37833638D01*
X-403207410Y37786019D01*
X-403112171Y37786019D01*
X-403016933Y37833638D01*
X-402969314Y37881257D01*
X-402921695Y37976495D01*
X-402874076Y38166971D01*
X-402874076Y38405067D01*
X-402921695Y38595543D01*
X-402969314Y38690781D01*
X-403016933Y38738400D01*
X-403112171Y38786019D01*
X-402798019Y68899066D02*
X-403274210Y69232400D01*
X-402798019Y69470495D02*
X-403798019Y69470495D01*
X-403798019Y69089542D01*
X-403750400Y68994304D01*
X-403702781Y68946685D01*
X-403607543Y68899066D01*
X-403464686Y68899066D01*
X-403369448Y68946685D01*
X-403321829Y68994304D01*
X-403274210Y69089542D01*
X-403274210Y69470495D01*
X-403798019Y68565733D02*
X-403798019Y67946685D01*
X-403417067Y68280019D01*
X-403417067Y68137161D01*
X-403369448Y68041923D01*
X-403321829Y67994304D01*
X-403226590Y67946685D01*
X-402988495Y67946685D01*
X-402893257Y67994304D01*
X-402845638Y68041923D01*
X-402798019Y68137161D01*
X-402798019Y68422876D01*
X-402845638Y68518114D01*
X-402893257Y68565733D01*
X-400207219Y68949866D02*
X-400683410Y69283200D01*
X-400207219Y69521295D02*
X-401207219Y69521295D01*
X-401207219Y69140342D01*
X-401159600Y69045104D01*
X-401111981Y68997485D01*
X-401016743Y68949866D01*
X-400873886Y68949866D01*
X-400778648Y68997485D01*
X-400731029Y69045104D01*
X-400683410Y69140342D01*
X-400683410Y69521295D01*
X-400873886Y68092723D02*
X-400207219Y68092723D01*
X-401254838Y68330819D02*
X-400540552Y68568914D01*
X-400540552Y67949866D01*
X-402493219Y50841067D02*
X-403493219Y50841067D01*
X-402778933Y50507733D01*
X-403493219Y50174400D01*
X-402493219Y50174400D01*
X-402778933Y49745829D02*
X-402778933Y49269638D01*
X-402493219Y49841067D02*
X-403493219Y49507734D01*
X-402493219Y49174400D01*
X-403493219Y48983924D02*
X-402493219Y48650591D01*
X-403493219Y48317257D01*
X-403493219Y48079162D02*
X-403493219Y47460114D01*
X-403112267Y47793448D01*
X-403112267Y47650590D01*
X-403064648Y47555352D01*
X-403017029Y47507733D01*
X-402921790Y47460114D01*
X-402683695Y47460114D01*
X-402588457Y47507733D01*
X-402540838Y47555352D01*
X-402493219Y47650590D01*
X-402493219Y47936305D01*
X-402540838Y48031543D01*
X-402588457Y48079162D01*
X-476005733Y89997019D02*
X-476005733Y90997019D01*
X-476339067Y90282733D01*
X-476672400Y90997019D01*
X-476672400Y89997019D01*
X-477100971Y90282733D02*
X-477577162Y90282733D01*
X-477005733Y89997019D02*
X-477339066Y90997019D01*
X-477672400Y89997019D01*
X-477862876Y90997019D02*
X-478196209Y89997019D01*
X-478529543Y90997019D01*
X-478767638Y90997019D02*
X-479386686Y90997019D01*
X-479053352Y90616067D01*
X-479196210Y90616067D01*
X-479291448Y90568448D01*
X-479339067Y90520829D01*
X-479386686Y90425590D01*
X-479386686Y90187495D01*
X-479339067Y90092257D01*
X-479291448Y90044638D01*
X-479196210Y89997019D01*
X-478910495Y89997019D01*
X-478815257Y90044638D01*
X-478767638Y90092257D01*
D12*
X-457369901Y91259138D02*
X-457369901Y93259138D01*
X-458369901Y91830567D01*
X-459369901Y93259138D01*
X-459369901Y91259138D01*
X-462941329Y91830567D02*
X-464369900Y91830567D01*
X-462655614Y91259138D02*
X-463655614Y93259138D01*
X-464655614Y91259138D01*
X-467512757Y93259138D02*
X-468512757Y91259138D01*
X-469512757Y93259138D01*
X-474512757Y91259138D02*
X-473512757Y92211519D01*
X-472798472Y91259138D02*
X-472798472Y93259138D01*
X-473941329Y93259138D01*
X-474227043Y93163900D01*
X-474369900Y93068662D01*
X-474512757Y92878186D01*
X-474512757Y92592471D01*
X-474369900Y92401995D01*
X-474227043Y92306757D01*
X-473941329Y92211519D01*
X-472798472Y92211519D01*
X-478084186Y91259138D02*
X-478084186Y93259138D01*
X-483512756Y91449614D02*
X-483369899Y91354376D01*
X-482941328Y91259138D01*
X-482655614Y91259138D01*
X-482227042Y91354376D01*
X-481941328Y91544852D01*
X-481798471Y91735329D01*
X-481655614Y92116281D01*
X-481655614Y92401995D01*
X-481798471Y92782948D01*
X-481941328Y92973424D01*
X-482227042Y93163900D01*
X-482655614Y93259138D01*
X-482941328Y93259138D01*
X-483369899Y93163900D01*
X-483512756Y93068662D01*
D11*
X-467296257Y71312066D02*
X-467248638Y71359685D01*
X-467201019Y71502542D01*
X-467201019Y71597780D01*
X-467248638Y71740638D01*
X-467343876Y71835876D01*
X-467439114Y71883495D01*
X-467629590Y71931114D01*
X-467772448Y71931114D01*
X-467962924Y71883495D01*
X-468058162Y71835876D01*
X-468153400Y71740638D01*
X-468201019Y71597780D01*
X-468201019Y71502542D01*
X-468153400Y71359685D01*
X-468105781Y71312066D01*
X-467201019Y70835876D02*
X-467201019Y70645400D01*
X-467248638Y70550161D01*
X-467296257Y70502542D01*
X-467439114Y70407304D01*
X-467629590Y70359685D01*
X-468010543Y70359685D01*
X-468105781Y70407304D01*
X-468153400Y70454923D01*
X-468201019Y70550161D01*
X-468201019Y70740638D01*
X-468153400Y70835876D01*
X-468105781Y70883495D01*
X-468010543Y70931114D01*
X-467772448Y70931114D01*
X-467677210Y70883495D01*
X-467629590Y70835876D01*
X-467581971Y70740638D01*
X-467581971Y70550161D01*
X-467629590Y70454923D01*
X-467677210Y70407304D01*
X-467772448Y70359685D01*
X-448345257Y69883257D02*
X-448297638Y69930876D01*
X-448250019Y70073733D01*
X-448250019Y70168971D01*
X-448297638Y70311829D01*
X-448392876Y70407067D01*
X-448488114Y70454686D01*
X-448678590Y70502305D01*
X-448821448Y70502305D01*
X-449011924Y70454686D01*
X-449107162Y70407067D01*
X-449202400Y70311829D01*
X-449250019Y70168971D01*
X-449250019Y70073733D01*
X-449202400Y69930876D01*
X-449154781Y69883257D01*
X-448250019Y68930876D02*
X-448250019Y69502305D01*
X-448250019Y69216591D02*
X-449250019Y69216591D01*
X-449107162Y69311829D01*
X-449011924Y69407067D01*
X-448964305Y69502305D01*
X-449250019Y68311829D02*
X-449250019Y68216590D01*
X-449202400Y68121352D01*
X-449154781Y68073733D01*
X-449059543Y68026114D01*
X-448869067Y67978495D01*
X-448630971Y67978495D01*
X-448440495Y68026114D01*
X-448345257Y68073733D01*
X-448297638Y68121352D01*
X-448250019Y68216590D01*
X-448250019Y68311829D01*
X-448297638Y68407067D01*
X-448345257Y68454686D01*
X-448440495Y68502305D01*
X-448630971Y68549924D01*
X-448869067Y68549924D01*
X-449059543Y68502305D01*
X-449154781Y68454686D01*
X-449202400Y68407067D01*
X-449250019Y68311829D01*
X-464756257Y77757257D02*
X-464708638Y77804876D01*
X-464661019Y77947733D01*
X-464661019Y78042971D01*
X-464708638Y78185829D01*
X-464803876Y78281067D01*
X-464899114Y78328686D01*
X-465089590Y78376305D01*
X-465232448Y78376305D01*
X-465422924Y78328686D01*
X-465518162Y78281067D01*
X-465613400Y78185829D01*
X-465661019Y78042971D01*
X-465661019Y77947733D01*
X-465613400Y77804876D01*
X-465565781Y77757257D01*
X-464661019Y76804876D02*
X-464661019Y77376305D01*
X-464661019Y77090591D02*
X-465661019Y77090591D01*
X-465518162Y77185829D01*
X-465422924Y77281067D01*
X-465375305Y77376305D01*
X-464661019Y75852495D02*
X-464661019Y76423924D01*
X-464661019Y76138210D02*
X-465661019Y76138210D01*
X-465518162Y76233448D01*
X-465422924Y76328686D01*
X-465375305Y76423924D01*
X-401736133Y78389219D02*
X-401736133Y79389219D01*
X-402069467Y78674933D01*
X-402402800Y79389219D01*
X-402402800Y78389219D01*
X-402831371Y78674933D02*
X-403307562Y78674933D01*
X-402736133Y78389219D02*
X-403069466Y79389219D01*
X-403402800Y78389219D01*
X-403593276Y79389219D02*
X-403926609Y78389219D01*
X-404259943Y79389219D01*
X-404498038Y79389219D02*
X-405117086Y79389219D01*
X-404783752Y79008267D01*
X-404926610Y79008267D01*
X-405021848Y78960648D01*
X-405069467Y78913029D01*
X-405117086Y78817790D01*
X-405117086Y78579695D01*
X-405069467Y78484457D01*
X-405021848Y78436838D01*
X-404926610Y78389219D01*
X-404640895Y78389219D01*
X-404545657Y78436838D01*
X-404498038Y78484457D01*
X-401939333Y120096019D02*
X-401939333Y121096019D01*
X-402272667Y120381733D01*
X-402606000Y121096019D01*
X-402606000Y120096019D01*
X-403034571Y120381733D02*
X-403510762Y120381733D01*
X-402939333Y120096019D02*
X-403272666Y121096019D01*
X-403606000Y120096019D01*
X-403796476Y121096019D02*
X-404129809Y120096019D01*
X-404463143Y121096019D01*
X-404701238Y121096019D02*
X-405320286Y121096019D01*
X-404986952Y120715067D01*
X-405129810Y120715067D01*
X-405225048Y120667448D01*
X-405272667Y120619829D01*
X-405320286Y120524590D01*
X-405320286Y120286495D01*
X-405272667Y120191257D01*
X-405225048Y120143638D01*
X-405129810Y120096019D01*
X-404844095Y120096019D01*
X-404748857Y120143638D01*
X-404701238Y120191257D01*
X-435411619Y161483467D02*
X-436411619Y161483467D01*
X-435697333Y161150133D01*
X-436411619Y160816800D01*
X-435411619Y160816800D01*
X-435697333Y160388229D02*
X-435697333Y159912038D01*
X-435411619Y160483467D02*
X-436411619Y160150134D01*
X-435411619Y159816800D01*
X-436411619Y159626324D02*
X-435411619Y159292991D01*
X-436411619Y158959657D01*
X-436411619Y158721562D02*
X-436411619Y158102514D01*
X-436030667Y158435848D01*
X-436030667Y158292990D01*
X-435983048Y158197752D01*
X-435935429Y158150133D01*
X-435840190Y158102514D01*
X-435602095Y158102514D01*
X-435506857Y158150133D01*
X-435459238Y158197752D01*
X-435411619Y158292990D01*
X-435411619Y158578705D01*
X-435459238Y158673943D01*
X-435506857Y158721562D01*
X-468126819Y161432667D02*
X-469126819Y161432667D01*
X-468412533Y161099333D01*
X-469126819Y160766000D01*
X-468126819Y160766000D01*
X-468412533Y160337429D02*
X-468412533Y159861238D01*
X-468126819Y160432667D02*
X-469126819Y160099334D01*
X-468126819Y159766000D01*
X-469126819Y159575524D02*
X-468126819Y159242191D01*
X-469126819Y158908857D01*
X-469126819Y158670762D02*
X-469126819Y158051714D01*
X-468745867Y158385048D01*
X-468745867Y158242190D01*
X-468698248Y158146952D01*
X-468650629Y158099333D01*
X-468555390Y158051714D01*
X-468317295Y158051714D01*
X-468222057Y158099333D01*
X-468174438Y158146952D01*
X-468126819Y158242190D01*
X-468126819Y158527905D01*
X-468174438Y158623143D01*
X-468222057Y158670762D01*
X-349034983Y153035969D02*
X-349034983Y154035969D01*
X-349368317Y153321683D01*
X-349701650Y154035969D01*
X-349701650Y153035969D01*
X-350130221Y153321683D02*
X-350606412Y153321683D01*
X-350034983Y153035969D02*
X-350368316Y154035969D01*
X-350701650Y153035969D01*
X-350892126Y154035969D02*
X-351225459Y153035969D01*
X-351558793Y154035969D01*
X-351796888Y154035969D02*
X-352415936Y154035969D01*
X-352082602Y153655017D01*
X-352225460Y153655017D01*
X-352320698Y153607398D01*
X-352368317Y153559779D01*
X-352415936Y153464540D01*
X-352415936Y153226445D01*
X-352368317Y153131207D01*
X-352320698Y153083588D01*
X-352225460Y153035969D01*
X-351939745Y153035969D01*
X-351844507Y153083588D01*
X-351796888Y153131207D01*
X-335794819Y83793467D02*
X-336271010Y84126801D01*
X-335794819Y84364896D02*
X-336794819Y84364896D01*
X-336794819Y83983943D01*
X-336747200Y83888705D01*
X-336699581Y83841086D01*
X-336604343Y83793467D01*
X-336461486Y83793467D01*
X-336366248Y83841086D01*
X-336318629Y83888705D01*
X-336271010Y83983943D01*
X-336271010Y84364896D01*
X-335842438Y82983943D02*
X-335794819Y83079181D01*
X-335794819Y83269658D01*
X-335842438Y83364896D01*
X-335937676Y83412515D01*
X-336318629Y83412515D01*
X-336413867Y83364896D01*
X-336461486Y83269658D01*
X-336461486Y83079181D01*
X-336413867Y82983943D01*
X-336318629Y82936324D01*
X-336223390Y82936324D01*
X-336128152Y83412515D01*
X-336461486Y82650610D02*
X-336461486Y82269658D01*
X-335794819Y82507753D02*
X-336651962Y82507753D01*
X-336747200Y82460134D01*
X-336794819Y82364896D01*
X-336794819Y82269658D01*
X-336794819Y81793467D02*
X-336556724Y81793467D01*
X-336651962Y82031562D02*
X-336556724Y81793467D01*
X-336651962Y81555371D01*
X-336366248Y81936324D02*
X-336556724Y81793467D01*
X-336366248Y81650609D01*
X-336794819Y81031562D02*
X-336556724Y81031562D01*
X-336651962Y81269657D02*
X-336556724Y81031562D01*
X-336651962Y80793466D01*
X-336366248Y81174419D02*
X-336556724Y81031562D01*
X-336366248Y80888704D01*
X-311487019Y83412467D02*
X-311963210Y83745801D01*
X-311487019Y83983896D02*
X-312487019Y83983896D01*
X-312487019Y83602943D01*
X-312439400Y83507705D01*
X-312391781Y83460086D01*
X-312296543Y83412467D01*
X-312153686Y83412467D01*
X-312058448Y83460086D01*
X-312010829Y83507705D01*
X-311963210Y83602943D01*
X-311963210Y83983896D01*
X-311534638Y82602943D02*
X-311487019Y82698181D01*
X-311487019Y82888658D01*
X-311534638Y82983896D01*
X-311629876Y83031515D01*
X-312010829Y83031515D01*
X-312106067Y82983896D01*
X-312153686Y82888658D01*
X-312153686Y82698181D01*
X-312106067Y82602943D01*
X-312010829Y82555324D01*
X-311915590Y82555324D01*
X-311820352Y83031515D01*
X-312153686Y82269610D02*
X-312153686Y81888658D01*
X-311487019Y82126753D02*
X-312344162Y82126753D01*
X-312439400Y82079134D01*
X-312487019Y81983896D01*
X-312487019Y81888658D01*
X-312487019Y81412467D02*
X-312248924Y81412467D01*
X-312344162Y81650562D02*
X-312248924Y81412467D01*
X-312344162Y81174371D01*
X-312058448Y81555324D02*
X-312248924Y81412467D01*
X-312058448Y81269609D01*
X-312487019Y80650562D02*
X-312248924Y80650562D01*
X-312344162Y80888657D02*
X-312248924Y80650562D01*
X-312344162Y80412466D01*
X-312058448Y80793419D02*
X-312248924Y80650562D01*
X-312058448Y80507704D01*
X-336966133Y21848819D02*
X-336966133Y22848819D01*
X-337299467Y22134533D01*
X-337632800Y22848819D01*
X-337632800Y21848819D01*
X-338061371Y22134533D02*
X-338537562Y22134533D01*
X-337966133Y21848819D02*
X-338299466Y22848819D01*
X-338632800Y21848819D01*
X-338823276Y22848819D02*
X-339156609Y21848819D01*
X-339489943Y22848819D01*
X-339728038Y22848819D02*
X-340347086Y22848819D01*
X-340013752Y22467867D01*
X-340156610Y22467867D01*
X-340251848Y22420248D01*
X-340299467Y22372629D01*
X-340347086Y22277390D01*
X-340347086Y22039295D01*
X-340299467Y21944057D01*
X-340251848Y21896438D01*
X-340156610Y21848819D01*
X-339870895Y21848819D01*
X-339775657Y21896438D01*
X-339728038Y21944057D01*
X-329474534Y-13077543D02*
X-329426915Y-13125162D01*
X-329284058Y-13172781D01*
X-329188820Y-13172781D01*
X-329045962Y-13125162D01*
X-328950724Y-13029924D01*
X-328903105Y-12934686D01*
X-328855486Y-12744210D01*
X-328855486Y-12601352D01*
X-328903105Y-12410876D01*
X-328950724Y-12315638D01*
X-329045962Y-12220400D01*
X-329188820Y-12172781D01*
X-329284058Y-12172781D01*
X-329426915Y-12220400D01*
X-329474534Y-12268019D01*
X-330426915Y-13172781D02*
X-329855486Y-13172781D01*
X-330141200Y-13172781D02*
X-330141200Y-12172781D01*
X-330045962Y-12315638D01*
X-329950724Y-12410876D01*
X-329855486Y-12458495D01*
X-335316534Y-13077543D02*
X-335268915Y-13125162D01*
X-335126058Y-13172781D01*
X-335030820Y-13172781D01*
X-334887962Y-13125162D01*
X-334792724Y-13029924D01*
X-334745105Y-12934686D01*
X-334697486Y-12744210D01*
X-334697486Y-12601352D01*
X-334745105Y-12410876D01*
X-334792724Y-12315638D01*
X-334887962Y-12220400D01*
X-335030820Y-12172781D01*
X-335126058Y-12172781D01*
X-335268915Y-12220400D01*
X-335316534Y-12268019D01*
X-335697486Y-12268019D02*
X-335745105Y-12220400D01*
X-335840343Y-12172781D01*
X-336078439Y-12172781D01*
X-336173677Y-12220400D01*
X-336221296Y-12268019D01*
X-336268915Y-12363257D01*
X-336268915Y-12458495D01*
X-336221296Y-12601352D01*
X-335649867Y-13172781D01*
X-336268915Y-13172781D01*
X-334618057Y-7859734D02*
X-334570438Y-7812115D01*
X-334522819Y-7669258D01*
X-334522819Y-7574020D01*
X-334570438Y-7431162D01*
X-334665676Y-7335924D01*
X-334760914Y-7288305D01*
X-334951390Y-7240686D01*
X-335094248Y-7240686D01*
X-335284724Y-7288305D01*
X-335379962Y-7335924D01*
X-335475200Y-7431162D01*
X-335522819Y-7574020D01*
X-335522819Y-7669258D01*
X-335475200Y-7812115D01*
X-335427581Y-7859734D01*
X-335522819Y-8193067D02*
X-335522819Y-8812115D01*
X-335141867Y-8478781D01*
X-335141867Y-8621639D01*
X-335094248Y-8716877D01*
X-335046629Y-8764496D01*
X-334951390Y-8812115D01*
X-334713295Y-8812115D01*
X-334618057Y-8764496D01*
X-334570438Y-8716877D01*
X-334522819Y-8621639D01*
X-334522819Y-8335924D01*
X-334570438Y-8240686D01*
X-334618057Y-8193067D01*
X-334242057Y776266D02*
X-334194438Y823885D01*
X-334146819Y966742D01*
X-334146819Y1061980D01*
X-334194438Y1204838D01*
X-334289676Y1300076D01*
X-334384914Y1347695D01*
X-334575390Y1395314D01*
X-334718248Y1395314D01*
X-334908724Y1347695D01*
X-335003962Y1300076D01*
X-335099200Y1204838D01*
X-335146819Y1061980D01*
X-335146819Y966742D01*
X-335099200Y823885D01*
X-335051581Y776266D01*
X-334813486Y-80877D02*
X-334146819Y-80877D01*
X-335194438Y157219D02*
X-334480152Y395314D01*
X-334480152Y-223734D01*
X-335824534Y3686457D02*
X-335776915Y3638838D01*
X-335634058Y3591219D01*
X-335538820Y3591219D01*
X-335395962Y3638838D01*
X-335300724Y3734076D01*
X-335253105Y3829314D01*
X-335205486Y4019790D01*
X-335205486Y4162648D01*
X-335253105Y4353124D01*
X-335300724Y4448362D01*
X-335395962Y4543600D01*
X-335538820Y4591219D01*
X-335634058Y4591219D01*
X-335776915Y4543600D01*
X-335824534Y4495981D01*
X-336729296Y4591219D02*
X-336253105Y4591219D01*
X-336205486Y4115029D01*
X-336253105Y4162648D01*
X-336348343Y4210267D01*
X-336586439Y4210267D01*
X-336681677Y4162648D01*
X-336729296Y4115029D01*
X-336776915Y4019790D01*
X-336776915Y3781695D01*
X-336729296Y3686457D01*
X-336681677Y3638838D01*
X-336586439Y3591219D01*
X-336348343Y3591219D01*
X-336253105Y3638838D01*
X-336205486Y3686457D01*
X-336142057Y-7605734D02*
X-336094438Y-7558115D01*
X-336046819Y-7415258D01*
X-336046819Y-7320020D01*
X-336094438Y-7177162D01*
X-336189676Y-7081924D01*
X-336284914Y-7034305D01*
X-336475390Y-6986686D01*
X-336618248Y-6986686D01*
X-336808724Y-7034305D01*
X-336903962Y-7081924D01*
X-336999200Y-7177162D01*
X-337046819Y-7320020D01*
X-337046819Y-7415258D01*
X-336999200Y-7558115D01*
X-336951581Y-7605734D01*
X-337046819Y-8462877D02*
X-337046819Y-8272400D01*
X-336999200Y-8177162D01*
X-336951581Y-8129543D01*
X-336808724Y-8034305D01*
X-336618248Y-7986686D01*
X-336237295Y-7986686D01*
X-336142057Y-8034305D01*
X-336094438Y-8081924D01*
X-336046819Y-8177162D01*
X-336046819Y-8367639D01*
X-336094438Y-8462877D01*
X-336142057Y-8510496D01*
X-336237295Y-8558115D01*
X-336475390Y-8558115D01*
X-336570629Y-8510496D01*
X-336618248Y-8462877D01*
X-336665867Y-8367639D01*
X-336665867Y-8177162D01*
X-336618248Y-8081924D01*
X-336570629Y-8034305D01*
X-336475390Y-7986686D01*
X-322558057Y1538266D02*
X-322510438Y1585885D01*
X-322462819Y1728742D01*
X-322462819Y1823980D01*
X-322510438Y1966838D01*
X-322605676Y2062076D01*
X-322700914Y2109695D01*
X-322891390Y2157314D01*
X-323034248Y2157314D01*
X-323224724Y2109695D01*
X-323319962Y2062076D01*
X-323415200Y1966838D01*
X-323462819Y1823980D01*
X-323462819Y1728742D01*
X-323415200Y1585885D01*
X-323367581Y1538266D01*
X-323462819Y1204933D02*
X-323462819Y538266D01*
X-322462819Y966838D01*
X-320526057Y1538266D02*
X-320478438Y1585885D01*
X-320430819Y1728742D01*
X-320430819Y1823980D01*
X-320478438Y1966838D01*
X-320573676Y2062076D01*
X-320668914Y2109695D01*
X-320859390Y2157314D01*
X-321002248Y2157314D01*
X-321192724Y2109695D01*
X-321287962Y2062076D01*
X-321383200Y1966838D01*
X-321430819Y1823980D01*
X-321430819Y1728742D01*
X-321383200Y1585885D01*
X-321335581Y1538266D01*
X-320430819Y1062076D02*
X-320430819Y871600D01*
X-320478438Y776361D01*
X-320526057Y728742D01*
X-320668914Y633504D01*
X-320859390Y585885D01*
X-321240343Y585885D01*
X-321335581Y633504D01*
X-321383200Y681123D01*
X-321430819Y776361D01*
X-321430819Y966838D01*
X-321383200Y1062076D01*
X-321335581Y1109695D01*
X-321240343Y1157314D01*
X-321002248Y1157314D01*
X-320907010Y1109695D01*
X-320859390Y1062076D01*
X-320811771Y966838D01*
X-320811771Y776361D01*
X-320859390Y681123D01*
X-320907010Y633504D01*
X-321002248Y585885D01*
X-335856343Y-16017543D02*
X-335808724Y-16065162D01*
X-335665867Y-16112781D01*
X-335570629Y-16112781D01*
X-335427771Y-16065162D01*
X-335332533Y-15969924D01*
X-335284914Y-15874686D01*
X-335237295Y-15684210D01*
X-335237295Y-15541352D01*
X-335284914Y-15350876D01*
X-335332533Y-15255638D01*
X-335427771Y-15160400D01*
X-335570629Y-15112781D01*
X-335665867Y-15112781D01*
X-335808724Y-15160400D01*
X-335856343Y-15208019D01*
X-336808724Y-16112781D02*
X-336237295Y-16112781D01*
X-336523009Y-16112781D02*
X-336523009Y-15112781D01*
X-336427771Y-15255638D01*
X-336332533Y-15350876D01*
X-336237295Y-15398495D01*
X-337427771Y-15112781D02*
X-337523010Y-15112781D01*
X-337618248Y-15160400D01*
X-337665867Y-15208019D01*
X-337713486Y-15303257D01*
X-337761105Y-15493733D01*
X-337761105Y-15731829D01*
X-337713486Y-15922305D01*
X-337665867Y-16017543D01*
X-337618248Y-16065162D01*
X-337523010Y-16112781D01*
X-337427771Y-16112781D01*
X-337332533Y-16065162D01*
X-337284914Y-16017543D01*
X-337237295Y-15922305D01*
X-337189676Y-15731829D01*
X-337189676Y-15493733D01*
X-337237295Y-15303257D01*
X-337284914Y-15208019D01*
X-337332533Y-15160400D01*
X-337427771Y-15112781D01*
X-337113619Y15000266D02*
X-337589810Y15333600D01*
X-337113619Y15571695D02*
X-338113619Y15571695D01*
X-338113619Y15190742D01*
X-338066000Y15095504D01*
X-338018381Y15047885D01*
X-337923143Y15000266D01*
X-337780286Y15000266D01*
X-337685048Y15047885D01*
X-337637429Y15095504D01*
X-337589810Y15190742D01*
X-337589810Y15571695D01*
X-338113619Y14666933D02*
X-338113619Y14047885D01*
X-337732667Y14381219D01*
X-337732667Y14238361D01*
X-337685048Y14143123D01*
X-337637429Y14095504D01*
X-337542190Y14047885D01*
X-337304095Y14047885D01*
X-337208857Y14095504D01*
X-337161238Y14143123D01*
X-337113619Y14238361D01*
X-337113619Y14524076D01*
X-337161238Y14619314D01*
X-337208857Y14666933D01*
X-334522819Y15051066D02*
X-334999010Y15384400D01*
X-334522819Y15622495D02*
X-335522819Y15622495D01*
X-335522819Y15241542D01*
X-335475200Y15146304D01*
X-335427581Y15098685D01*
X-335332343Y15051066D01*
X-335189486Y15051066D01*
X-335094248Y15098685D01*
X-335046629Y15146304D01*
X-334999010Y15241542D01*
X-334999010Y15622495D01*
X-335189486Y14193923D02*
X-334522819Y14193923D01*
X-335570438Y14432019D02*
X-334856152Y14670114D01*
X-334856152Y14051066D01*
X-336808819Y-3057733D02*
X-337808819Y-3057733D01*
X-337094533Y-3391067D01*
X-337808819Y-3724400D01*
X-336808819Y-3724400D01*
X-337094533Y-4152971D02*
X-337094533Y-4629162D01*
X-336808819Y-4057733D02*
X-337808819Y-4391066D01*
X-336808819Y-4724400D01*
X-337808819Y-4914876D02*
X-336808819Y-5248209D01*
X-337808819Y-5581543D01*
X-337808819Y-5819638D02*
X-337808819Y-6438686D01*
X-337427867Y-6105352D01*
X-337427867Y-6248210D01*
X-337380248Y-6343448D01*
X-337332629Y-6391067D01*
X-337237390Y-6438686D01*
X-336999295Y-6438686D01*
X-336904057Y-6391067D01*
X-336856438Y-6343448D01*
X-336808819Y-6248210D01*
X-336808819Y-5962495D01*
X-336856438Y-5867257D01*
X-336904057Y-5819638D01*
%LPC*%
D13*
X-345054343Y118795848D02*
X-345054343Y117129181D01*
X-342435295Y116414895D02*
X-342435295Y118795848D01*
X-347435295Y118795848D01*
X-347435295Y116414895D01*
X-342435295Y114748228D02*
X-345768629Y112129181D01*
X-345768629Y114748228D02*
X-342435295Y112129181D01*
X-345768629Y110224419D02*
X-340768629Y110224419D01*
X-345530533Y110224419D02*
X-345768629Y109748228D01*
X-345768629Y108795847D01*
X-345530533Y108319657D01*
X-345292438Y108081562D01*
X-344816248Y107843466D01*
X-343387676Y107843466D01*
X-342911486Y108081562D01*
X-342673390Y108319657D01*
X-342435295Y108795847D01*
X-342435295Y109748228D01*
X-342673390Y110224419D01*
X-342435295Y104986323D02*
X-342673390Y105462514D01*
X-343149581Y105700609D01*
X-347435295Y105700609D01*
X-342435295Y102367275D02*
X-342673390Y102843466D01*
X-342911486Y103081561D01*
X-343387676Y103319656D01*
X-344816248Y103319656D01*
X-345292438Y103081561D01*
X-345530533Y102843466D01*
X-345768629Y102367275D01*
X-345768629Y101652989D01*
X-345530533Y101176799D01*
X-345292438Y100938704D01*
X-344816248Y100700608D01*
X-343387676Y100700608D01*
X-342911486Y100938704D01*
X-342673390Y101176799D01*
X-342435295Y101652989D01*
X-342435295Y102367275D01*
X-342435295Y98557751D02*
X-345768629Y98557751D01*
X-344816248Y98557751D02*
X-345292438Y98319656D01*
X-345530533Y98081560D01*
X-345768629Y97605370D01*
X-345768629Y97129179D01*
X-342673390Y93557751D02*
X-342435295Y94033941D01*
X-342435295Y94986322D01*
X-342673390Y95462513D01*
X-343149581Y95700608D01*
X-345054343Y95700608D01*
X-345530533Y95462513D01*
X-345768629Y94986322D01*
X-345768629Y94033941D01*
X-345530533Y93557751D01*
X-345054343Y93319656D01*
X-344578152Y93319656D01*
X-344101962Y95700608D01*
X-320746543Y118414848D02*
X-320746543Y116748181D01*
X-318127495Y116033895D02*
X-318127495Y118414848D01*
X-323127495Y118414848D01*
X-323127495Y116033895D01*
X-318127495Y114367228D02*
X-321460829Y111748181D01*
X-321460829Y114367228D02*
X-318127495Y111748181D01*
X-321460829Y109843419D02*
X-316460829Y109843419D01*
X-321222733Y109843419D02*
X-321460829Y109367228D01*
X-321460829Y108414847D01*
X-321222733Y107938657D01*
X-320984638Y107700562D01*
X-320508448Y107462466D01*
X-319079876Y107462466D01*
X-318603686Y107700562D01*
X-318365590Y107938657D01*
X-318127495Y108414847D01*
X-318127495Y109367228D01*
X-318365590Y109843419D01*
X-318127495Y104605323D02*
X-318365590Y105081514D01*
X-318841781Y105319609D01*
X-323127495Y105319609D01*
X-318127495Y101986275D02*
X-318365590Y102462466D01*
X-318603686Y102700561D01*
X-319079876Y102938656D01*
X-320508448Y102938656D01*
X-320984638Y102700561D01*
X-321222733Y102462466D01*
X-321460829Y101986275D01*
X-321460829Y101271989D01*
X-321222733Y100795799D01*
X-320984638Y100557704D01*
X-320508448Y100319608D01*
X-319079876Y100319608D01*
X-318603686Y100557704D01*
X-318365590Y100795799D01*
X-318127495Y101271989D01*
X-318127495Y101986275D01*
X-318127495Y98176751D02*
X-321460829Y98176751D01*
X-320508448Y98176751D02*
X-320984638Y97938656D01*
X-321222733Y97700560D01*
X-321460829Y97224370D01*
X-321460829Y96748179D01*
X-318365590Y93176751D02*
X-318127495Y93652941D01*
X-318127495Y94605322D01*
X-318365590Y95081513D01*
X-318841781Y95319608D01*
X-320746543Y95319608D01*
X-321222733Y95081513D01*
X-321460829Y94605322D01*
X-321460829Y93652941D01*
X-321222733Y93176751D01*
X-320746543Y92938656D01*
X-320270352Y92938656D01*
X-319794162Y95319608D01*
D14*
X-490270800Y-12382500D03*
D15*
X-480387660Y17145000D03*
X-486387140Y17145000D03*
X-483387400Y12446000D03*
D16*
X-437311800Y762000D03*
D17*
X-439851800Y762000D03*
D15*
X-480768660Y4508500D03*
X-486768140Y4508500D03*
X-483768400Y-190500D03*
D16*
X-458647800Y16637000D03*
D17*
X-458647800Y14097000D03*
D18*
X-471855800Y-13208000D03*
D19*
X-469315800Y-13208000D03*
X-466775800Y-13208000D03*
X-464235800Y-13208000D03*
X-461695800Y-13208000D03*
D18*
X-448995800Y-13208000D03*
D19*
X-451535800Y-13208000D03*
X-454075800Y-13208000D03*
X-456615800Y-13208000D03*
D20*
X-441629800Y-3873500D03*
D21*
X-441629800Y-6413500D03*
X-444169800Y-3873500D03*
X-444169800Y-6413500D03*
X-446709800Y-3873500D03*
X-446709800Y-6413500D03*
D22*
X-437311800Y27559000D03*
D23*
X-437311800Y25019000D03*
X-437311800Y22479000D03*
X-437311800Y19939000D03*
D22*
X-470014300Y46609000D03*
D23*
X-470014300Y44069000D03*
X-470014300Y41529000D03*
D22*
X-466521800Y46609000D03*
D23*
X-466521800Y44069000D03*
X-466521800Y41529000D03*
D22*
X-473506800Y46609000D03*
D23*
X-473506800Y44069000D03*
X-473506800Y41529000D03*
D22*
X-476999300Y46609000D03*
D23*
X-476999300Y44069000D03*
X-476999300Y41529000D03*
D22*
X-480491800Y46609000D03*
D23*
X-480491800Y44069000D03*
X-480491800Y41529000D03*
D22*
X-483984300Y46609000D03*
D23*
X-483984300Y44069000D03*
X-483984300Y41529000D03*
D22*
X-487476800Y46609000D03*
D23*
X-487476800Y44069000D03*
X-487476800Y41529000D03*
D22*
X-490969300Y46609000D03*
D23*
X-490969300Y44069000D03*
X-490969300Y41529000D03*
D22*
X-437248300Y46609000D03*
D23*
X-437248300Y44069000D03*
X-437248300Y41529000D03*
D22*
X-440740800Y46609000D03*
D23*
X-440740800Y44069000D03*
X-440740800Y41529000D03*
D22*
X-444233300Y46609000D03*
D23*
X-444233300Y44069000D03*
X-444233300Y41529000D03*
D22*
X-447725800Y46609000D03*
D23*
X-447725800Y44069000D03*
X-447725800Y41529000D03*
D22*
X-451218300Y46609000D03*
D23*
X-451218300Y44069000D03*
X-451218300Y41529000D03*
D22*
X-454710800Y46609000D03*
D23*
X-454710800Y44069000D03*
X-454710800Y41529000D03*
D22*
X-458203300Y46609000D03*
D23*
X-458203300Y44069000D03*
X-458203300Y41529000D03*
D22*
X-461695800Y46609000D03*
D23*
X-461695800Y44069000D03*
X-461695800Y41529000D03*
D20*
X-471855800Y-10668000D03*
D21*
X-471855800Y-8128000D03*
X-469315800Y-10668000D03*
X-469315800Y-8128000D03*
X-466775800Y-10668000D03*
X-466775800Y-8128000D03*
X-464235800Y-10668000D03*
X-464235800Y-8128000D03*
X-461695800Y-10668000D03*
X-461695800Y-8128000D03*
D20*
X-439788300Y13652500D03*
D21*
X-437248300Y13652500D03*
X-439788300Y11112500D03*
X-437248300Y11112500D03*
X-439788300Y8572500D03*
X-437248300Y8572500D03*
X-439788300Y6032500D03*
X-437248300Y6032500D03*
D14*
X-436359300Y-12382500D03*
X-490270800Y33591500D03*
X-436359300Y33591500D03*
D24*
X-465251800Y4929000D03*
X-465251800Y1929000D03*
X-450900800Y24000D03*
X-450900800Y3024000D03*
X-462711800Y10898000D03*
X-462711800Y7898000D03*
D25*
X-396478800Y-3454400D03*
X-394578800Y-3454400D03*
X-402320800Y-3454400D03*
X-400420800Y-3454400D03*
D26*
X-400862800Y1437600D03*
X-400862800Y3337600D03*
X-402386800Y7025600D03*
X-402386800Y8925600D03*
D25*
X-402828800Y13309600D03*
X-400928800Y13309600D03*
D26*
X-402386800Y1437600D03*
X-402386800Y3337600D03*
X-390702800Y7787600D03*
X-390702800Y9687600D03*
X-388670800Y7787600D03*
X-388670800Y9687600D03*
D27*
X-404386800Y-5994400D03*
X-400386800Y-5994400D03*
D16*
X-374700800Y10922000D03*
D17*
X-372160800Y10922000D03*
D16*
X-374700800Y7874000D03*
D17*
X-372160800Y7874000D03*
D16*
X-374700800Y4826000D03*
D17*
X-372160800Y4826000D03*
D16*
X-374700800Y1778000D03*
D17*
X-372160800Y1778000D03*
D16*
X-414324800Y-9550400D03*
D17*
X-414324800Y-12090400D03*
D16*
X-417372800Y-9550400D03*
D17*
X-417372800Y-12090400D03*
D16*
X-420420800Y-9550400D03*
D17*
X-420420800Y-12090400D03*
D16*
X-423468800Y-9550400D03*
D17*
X-423468800Y-12090400D03*
D16*
X-374700800Y23114000D03*
D17*
X-372160800Y23114000D03*
D16*
X-374700800Y20066000D03*
D17*
X-372160800Y20066000D03*
D16*
X-374700800Y17018000D03*
D17*
X-372160800Y17018000D03*
D16*
X-374700800Y13970000D03*
D17*
X-372160800Y13970000D03*
D18*
X-389331200Y19761200D03*
D19*
X-391871200Y19761200D03*
X-394411200Y19761200D03*
X-396951200Y19761200D03*
D18*
X-397306800Y23977600D03*
D19*
X-394766800Y23977600D03*
X-392226800Y23977600D03*
X-389686800Y23977600D03*
D16*
X-424738800Y10007600D03*
D17*
X-424738800Y7467600D03*
D28*
X-403453600Y19997600D03*
X-403453600Y17797600D03*
X-400862800Y20048400D03*
X-400862800Y17848400D03*
D16*
X-390550400Y-10414000D03*
D17*
X-390550400Y-7874000D03*
D16*
X-384962400Y-10464800D03*
D17*
X-384962400Y-7924800D03*
D16*
X-374700800Y-1320800D03*
D17*
X-372160800Y-1320800D03*
D16*
X-374700800Y-4419600D03*
D17*
X-372160800Y-4419600D03*
D16*
X-374700800Y-7518400D03*
D17*
X-372160800Y-7518400D03*
D16*
X-374700800Y-10617200D03*
D17*
X-372160800Y-10617200D03*
D25*
X-396275600Y43078400D03*
X-394375600Y43078400D03*
X-402117600Y43078400D03*
X-400217600Y43078400D03*
D26*
X-400659600Y47970400D03*
X-400659600Y49870400D03*
X-402183600Y53558400D03*
X-402183600Y55458400D03*
D25*
X-402625600Y59842400D03*
X-400725600Y59842400D03*
D26*
X-402183600Y47970400D03*
X-402183600Y49870400D03*
X-390499600Y54320400D03*
X-390499600Y56220400D03*
X-388467600Y54320400D03*
X-388467600Y56220400D03*
D27*
X-404183600Y40538400D03*
X-400183600Y40538400D03*
D16*
X-374497600Y57454800D03*
D17*
X-371957600Y57454800D03*
D16*
X-374497600Y54406800D03*
D17*
X-371957600Y54406800D03*
D16*
X-374497600Y51358800D03*
D17*
X-371957600Y51358800D03*
D16*
X-374497600Y48310800D03*
D17*
X-371957600Y48310800D03*
D16*
X-414121600Y36982400D03*
D17*
X-414121600Y34442400D03*
D16*
X-417169600Y36982400D03*
D17*
X-417169600Y34442400D03*
D16*
X-420217600Y36982400D03*
D17*
X-420217600Y34442400D03*
D16*
X-423265600Y36982400D03*
D17*
X-423265600Y34442400D03*
D16*
X-374497600Y69646800D03*
D17*
X-371957600Y69646800D03*
D16*
X-374497600Y66598800D03*
D17*
X-371957600Y66598800D03*
D16*
X-374497600Y63550800D03*
D17*
X-371957600Y63550800D03*
D16*
X-374497600Y60502800D03*
D17*
X-371957600Y60502800D03*
D18*
X-389128000Y66294000D03*
D19*
X-391668000Y66294000D03*
X-394208000Y66294000D03*
X-396748000Y66294000D03*
D18*
X-397103600Y70510400D03*
D19*
X-394563600Y70510400D03*
X-392023600Y70510400D03*
X-389483600Y70510400D03*
D16*
X-424535600Y56540400D03*
D17*
X-424535600Y54000400D03*
D28*
X-403250400Y66530400D03*
X-403250400Y64330400D03*
X-400659600Y66581200D03*
X-400659600Y64381200D03*
D16*
X-390347200Y36118800D03*
D17*
X-390347200Y38658800D03*
D16*
X-384759200Y36068000D03*
D17*
X-384759200Y38608000D03*
D16*
X-374497600Y45212000D03*
D17*
X-371957600Y45212000D03*
D16*
X-374497600Y42113200D03*
D17*
X-371957600Y42113200D03*
D16*
X-374497600Y39014400D03*
D17*
X-371957600Y39014400D03*
D16*
X-374497600Y35915600D03*
D17*
X-371957600Y35915600D03*
D14*
X-490372400Y55333900D03*
D15*
X-480489260Y84861400D03*
X-486488740Y84861400D03*
X-483489000Y80162400D03*
D16*
X-437413400Y68478400D03*
D17*
X-439953400Y68478400D03*
D15*
X-480870260Y72224900D03*
X-486869740Y72224900D03*
X-483870000Y67525900D03*
D16*
X-458749400Y84353400D03*
D17*
X-458749400Y81813400D03*
D18*
X-471957400Y54508400D03*
D19*
X-469417400Y54508400D03*
X-466877400Y54508400D03*
X-464337400Y54508400D03*
X-461797400Y54508400D03*
D18*
X-449097400Y54508400D03*
D19*
X-451637400Y54508400D03*
X-454177400Y54508400D03*
X-456717400Y54508400D03*
D20*
X-441731400Y63842900D03*
D21*
X-441731400Y61302900D03*
X-444271400Y63842900D03*
X-444271400Y61302900D03*
X-446811400Y63842900D03*
X-446811400Y61302900D03*
D22*
X-437413400Y95275400D03*
D23*
X-437413400Y92735400D03*
X-437413400Y90195400D03*
X-437413400Y87655400D03*
D22*
X-470115900Y114325400D03*
D23*
X-470115900Y111785400D03*
X-470115900Y109245400D03*
D22*
X-466623400Y114325400D03*
D23*
X-466623400Y111785400D03*
X-466623400Y109245400D03*
D22*
X-473608400Y114325400D03*
D23*
X-473608400Y111785400D03*
X-473608400Y109245400D03*
D22*
X-477100900Y114325400D03*
D23*
X-477100900Y111785400D03*
X-477100900Y109245400D03*
D22*
X-480593400Y114325400D03*
D23*
X-480593400Y111785400D03*
X-480593400Y109245400D03*
D22*
X-484085900Y114325400D03*
D23*
X-484085900Y111785400D03*
X-484085900Y109245400D03*
D22*
X-487578400Y114325400D03*
D23*
X-487578400Y111785400D03*
X-487578400Y109245400D03*
D22*
X-491070900Y114325400D03*
D23*
X-491070900Y111785400D03*
X-491070900Y109245400D03*
D22*
X-437349900Y114325400D03*
D23*
X-437349900Y111785400D03*
X-437349900Y109245400D03*
D22*
X-440842400Y114325400D03*
D23*
X-440842400Y111785400D03*
X-440842400Y109245400D03*
D22*
X-444334900Y114325400D03*
D23*
X-444334900Y111785400D03*
X-444334900Y109245400D03*
D22*
X-447827400Y114325400D03*
D23*
X-447827400Y111785400D03*
X-447827400Y109245400D03*
D22*
X-451319900Y114325400D03*
D23*
X-451319900Y111785400D03*
X-451319900Y109245400D03*
D22*
X-454812400Y114325400D03*
D23*
X-454812400Y111785400D03*
X-454812400Y109245400D03*
D22*
X-458304900Y114325400D03*
D23*
X-458304900Y111785400D03*
X-458304900Y109245400D03*
D22*
X-461797400Y114325400D03*
D23*
X-461797400Y111785400D03*
X-461797400Y109245400D03*
D20*
X-471957400Y57048400D03*
D21*
X-471957400Y59588400D03*
X-469417400Y57048400D03*
X-469417400Y59588400D03*
X-466877400Y57048400D03*
X-466877400Y59588400D03*
X-464337400Y57048400D03*
X-464337400Y59588400D03*
X-461797400Y57048400D03*
X-461797400Y59588400D03*
D20*
X-439889900Y81368900D03*
D21*
X-437349900Y81368900D03*
X-439889900Y78828900D03*
X-437349900Y78828900D03*
X-439889900Y76288900D03*
X-437349900Y76288900D03*
X-439889900Y73748900D03*
X-437349900Y73748900D03*
D14*
X-436460900Y55333900D03*
X-490372400Y101307900D03*
X-436460900Y101307900D03*
D24*
X-465353400Y72645400D03*
X-465353400Y69645400D03*
X-451002400Y67740400D03*
X-451002400Y70740400D03*
X-462813400Y78614400D03*
X-462813400Y75614400D03*
D22*
X-375818400Y98501200D03*
D23*
X-375818400Y95961200D03*
X-375818400Y93421200D03*
X-375818400Y90881200D03*
D22*
X-372719600Y98501200D03*
D23*
X-372719600Y95961200D03*
X-372719600Y93421200D03*
X-372719600Y90881200D03*
D16*
X-372922800Y83159600D03*
D17*
X-372922800Y80619600D03*
D16*
X-400710400Y108305600D03*
D17*
X-400710400Y110845600D03*
D16*
X-406908000Y108305600D03*
D17*
X-406908000Y110845600D03*
D16*
X-410006800Y108305600D03*
D17*
X-410006800Y110845600D03*
D16*
X-413105600Y108305600D03*
D17*
X-413105600Y110845600D03*
D16*
X-416204400Y108305600D03*
D17*
X-416204400Y110845600D03*
D16*
X-419303200Y108305600D03*
D17*
X-419303200Y110845600D03*
D16*
X-422402000Y108305600D03*
D17*
X-422402000Y110845600D03*
D16*
X-375920000Y108305600D03*
D17*
X-375920000Y110845600D03*
D16*
X-379018800Y108305600D03*
D17*
X-379018800Y110845600D03*
D16*
X-382117600Y108305600D03*
D17*
X-382117600Y110845600D03*
D16*
X-385216400Y108305600D03*
D17*
X-385216400Y110845600D03*
D16*
X-388315200Y108305600D03*
D17*
X-388315200Y110845600D03*
D16*
X-391414000Y108305600D03*
D17*
X-391414000Y110845600D03*
D16*
X-394512800Y108305600D03*
D17*
X-394512800Y110845600D03*
D16*
X-397611600Y108305600D03*
D17*
X-397611600Y110845600D03*
D16*
X-403809200Y108305600D03*
D17*
X-403809200Y110845600D03*
D22*
X-376021600Y140208000D03*
D23*
X-376021600Y137668000D03*
X-376021600Y135128000D03*
X-376021600Y132588000D03*
D22*
X-372922800Y140208000D03*
D23*
X-372922800Y137668000D03*
X-372922800Y135128000D03*
X-372922800Y132588000D03*
D16*
X-373126000Y124866400D03*
D17*
X-373126000Y122326400D03*
D16*
X-400913600Y150012400D03*
D17*
X-400913600Y152552400D03*
D16*
X-407111200Y150012400D03*
D17*
X-407111200Y152552400D03*
D16*
X-410210000Y150012400D03*
D17*
X-410210000Y152552400D03*
D16*
X-413308800Y150012400D03*
D17*
X-413308800Y152552400D03*
D16*
X-416407600Y150012400D03*
D17*
X-416407600Y152552400D03*
D16*
X-419506400Y150012400D03*
D17*
X-419506400Y152552400D03*
D16*
X-422605200Y150012400D03*
D17*
X-422605200Y152552400D03*
D16*
X-376123200Y150012400D03*
D17*
X-376123200Y152552400D03*
D16*
X-379222000Y150012400D03*
D17*
X-379222000Y152552400D03*
D16*
X-382320800Y150012400D03*
D17*
X-382320800Y152552400D03*
D16*
X-385419600Y150012400D03*
D17*
X-385419600Y152552400D03*
D16*
X-388518400Y150012400D03*
D17*
X-388518400Y152552400D03*
D16*
X-391617200Y150012400D03*
D17*
X-391617200Y152552400D03*
D16*
X-394716000Y150012400D03*
D17*
X-394716000Y152552400D03*
D16*
X-397814800Y150012400D03*
D17*
X-397814800Y152552400D03*
D16*
X-404012400Y150012400D03*
D17*
X-404012400Y152552400D03*
D16*
X-459867000Y130606800D03*
D17*
X-459867000Y128066800D03*
D16*
X-460121000Y140131800D03*
D17*
X-460121000Y137591800D03*
D20*
X-458978000Y158546800D03*
D21*
X-458978000Y161086800D03*
X-456438000Y158546800D03*
X-456438000Y161086800D03*
X-453898000Y158546800D03*
X-453898000Y161086800D03*
X-451358000Y158546800D03*
X-451358000Y161086800D03*
D20*
X-445579500Y158610300D03*
D21*
X-445579500Y161150300D03*
X-443039500Y158610300D03*
X-443039500Y161150300D03*
X-440499500Y158610300D03*
X-440499500Y161150300D03*
X-437959500Y158610300D03*
X-437959500Y161150300D03*
D29*
X-448818000Y128574800D03*
X-448818000Y150164800D03*
D16*
X-492582200Y130556000D03*
D17*
X-492582200Y128016000D03*
D16*
X-492836200Y140081000D03*
D17*
X-492836200Y137541000D03*
D20*
X-491693200Y158496000D03*
D21*
X-491693200Y161036000D03*
X-489153200Y158496000D03*
X-489153200Y161036000D03*
X-486613200Y158496000D03*
X-486613200Y161036000D03*
X-484073200Y158496000D03*
X-484073200Y161036000D03*
D20*
X-478294700Y158559500D03*
D21*
X-478294700Y161099500D03*
X-475754700Y158559500D03*
X-475754700Y161099500D03*
X-473214700Y158559500D03*
X-473214700Y161099500D03*
X-470674700Y158559500D03*
X-470674700Y161099500D03*
D29*
X-481533200Y128524000D03*
X-481533200Y150114000D03*
D16*
X-321491650Y129485350D03*
D17*
X-318951650Y129485350D03*
D16*
X-331016650Y129231350D03*
D17*
X-328476650Y129231350D03*
D20*
X-349431650Y130374350D03*
D21*
X-351971650Y130374350D03*
X-349431650Y132914350D03*
X-351971650Y132914350D03*
X-349431650Y135454350D03*
X-351971650Y135454350D03*
X-349431650Y137994350D03*
X-351971650Y137994350D03*
D20*
X-349495150Y143772850D03*
D21*
X-352035150Y143772850D03*
X-349495150Y146312850D03*
X-352035150Y146312850D03*
X-349495150Y148852850D03*
X-352035150Y148852850D03*
X-349495150Y151392850D03*
X-352035150Y151392850D03*
D29*
X-319459650Y140534350D03*
X-341049650Y140534350D03*
D30*
X-344947200Y62876800D03*
X-320639400Y62495800D03*
D22*
X-311048400Y41960800D03*
D23*
X-311048400Y39420800D03*
X-311048400Y36880800D03*
X-311048400Y34340800D03*
D22*
X-307949600Y41960800D03*
D23*
X-307949600Y39420800D03*
X-307949600Y36880800D03*
X-307949600Y34340800D03*
D16*
X-308152800Y26619200D03*
D17*
X-308152800Y24079200D03*
D16*
X-335940400Y51765200D03*
D17*
X-335940400Y54305200D03*
D16*
X-342138000Y51765200D03*
D17*
X-342138000Y54305200D03*
D16*
X-345236800Y51765200D03*
D17*
X-345236800Y54305200D03*
D16*
X-348335600Y51765200D03*
D17*
X-348335600Y54305200D03*
D16*
X-351434400Y51765200D03*
D17*
X-351434400Y54305200D03*
D16*
X-354533200Y51765200D03*
D17*
X-354533200Y54305200D03*
D16*
X-357632000Y51765200D03*
D17*
X-357632000Y54305200D03*
D16*
X-311150000Y51765200D03*
D17*
X-311150000Y54305200D03*
D16*
X-314248800Y51765200D03*
D17*
X-314248800Y54305200D03*
D16*
X-317347600Y51765200D03*
D17*
X-317347600Y54305200D03*
D16*
X-320446400Y51765200D03*
D17*
X-320446400Y54305200D03*
D16*
X-323545200Y51765200D03*
D17*
X-323545200Y54305200D03*
D16*
X-326644000Y51765200D03*
D17*
X-326644000Y54305200D03*
D16*
X-329742800Y51765200D03*
D17*
X-329742800Y54305200D03*
D16*
X-332841600Y51765200D03*
D17*
X-332841600Y54305200D03*
D16*
X-339039200Y51765200D03*
D17*
X-339039200Y54305200D03*
D25*
X-330591200Y-10820400D03*
X-328691200Y-10820400D03*
X-336433200Y-10820400D03*
X-334533200Y-10820400D03*
D26*
X-334975200Y-5928400D03*
X-334975200Y-4028400D03*
X-336499200Y-340400D03*
X-336499200Y1559600D03*
D25*
X-336941200Y5943600D03*
X-335041200Y5943600D03*
D26*
X-336499200Y-5928400D03*
X-336499200Y-4028400D03*
X-324815200Y421600D03*
X-324815200Y2321600D03*
X-322783200Y421600D03*
X-322783200Y2321600D03*
D27*
X-338499200Y-13360400D03*
X-334499200Y-13360400D03*
D16*
X-308813200Y3556000D03*
D17*
X-306273200Y3556000D03*
D16*
X-308813200Y508000D03*
D17*
X-306273200Y508000D03*
D16*
X-308813200Y-2540000D03*
D17*
X-306273200Y-2540000D03*
D16*
X-308813200Y-5588000D03*
D17*
X-306273200Y-5588000D03*
D16*
X-348437200Y-16916400D03*
D17*
X-348437200Y-19456400D03*
D16*
X-351485200Y-16916400D03*
D17*
X-351485200Y-19456400D03*
D16*
X-354533200Y-16916400D03*
D17*
X-354533200Y-19456400D03*
D16*
X-357581200Y-16916400D03*
D17*
X-357581200Y-19456400D03*
D16*
X-308813200Y15748000D03*
D17*
X-306273200Y15748000D03*
D16*
X-308813200Y12700000D03*
D17*
X-306273200Y12700000D03*
D16*
X-308813200Y9652000D03*
D17*
X-306273200Y9652000D03*
D16*
X-308813200Y6604000D03*
D17*
X-306273200Y6604000D03*
D18*
X-323443600Y12395200D03*
D19*
X-325983600Y12395200D03*
X-328523600Y12395200D03*
X-331063600Y12395200D03*
D18*
X-331419200Y16611600D03*
D19*
X-328879200Y16611600D03*
X-326339200Y16611600D03*
X-323799200Y16611600D03*
D16*
X-358851200Y2641600D03*
D17*
X-358851200Y101600D03*
D28*
X-337566000Y12631600D03*
X-337566000Y10431600D03*
X-334975200Y12682400D03*
X-334975200Y10482400D03*
D16*
X-324662800Y-17780000D03*
D17*
X-324662800Y-15240000D03*
D16*
X-319074800Y-17830800D03*
D17*
X-319074800Y-15290800D03*
D16*
X-308813200Y-8686800D03*
D17*
X-306273200Y-8686800D03*
D16*
X-308813200Y-11785600D03*
D17*
X-306273200Y-11785600D03*
D16*
X-308813200Y-14884400D03*
D17*
X-306273200Y-14884400D03*
D16*
X-308813200Y-17983200D03*
D17*
X-306273200Y-17983200D03*
M02*
