G04 #@! TF.FileFunction,Soldermask,Bot*
%FSLAX46Y46*%
G04 Gerber Fmt 4.6, Leading zero omitted, Abs format (unit mm)*
G04 Created by KiCad (PCBNEW 4.0.1-stable) date 6/25/2016 6:05:23 PM*
%MOMM*%
G01*
G04 APERTURE LIST*
%ADD10C,0.100000*%
%ADD11C,0.150000*%
%ADD12C,2.600000*%
%ADD13R,3.900120X3.900120*%
%ADD14R,2.432000X2.432000*%
%ADD15O,2.432000X2.432000*%
%ADD16R,2.127200X2.432000*%
%ADD17O,2.127200X2.432000*%
%ADD18R,2.127200X2.127200*%
%ADD19O,2.127200X2.127200*%
%ADD20R,2.432000X2.127200*%
%ADD21O,2.432000X2.127200*%
G04 APERTURE END LIST*
D10*
D11*
X209804000Y-96139000D02*
X211328000Y-96139000D01*
X209804000Y-32512000D02*
X211328000Y-32512000D01*
X149098000Y-96139000D02*
X209804000Y-96139000D01*
X209804000Y-32512000D02*
X149098000Y-32512000D01*
X211328000Y-32512000D02*
X211328000Y-96139000D01*
X149098000Y-96139000D02*
X149098000Y-32512000D01*
D12*
X154686000Y-93408500D03*
D13*
X164569140Y-63881000D03*
X158569660Y-63881000D03*
X161569400Y-68580000D03*
D14*
X190627000Y-83820000D03*
D15*
X190627000Y-86360000D03*
D13*
X164188140Y-76517500D03*
X158188660Y-76517500D03*
X161188400Y-81216500D03*
D14*
X186309000Y-64389000D03*
D15*
X186309000Y-66929000D03*
D16*
X173101000Y-94234000D03*
D17*
X175641000Y-94234000D03*
X178181000Y-94234000D03*
X180721000Y-94234000D03*
X183261000Y-94234000D03*
D16*
X195961000Y-94234000D03*
D17*
X193421000Y-94234000D03*
X190881000Y-94234000D03*
X188341000Y-94234000D03*
D18*
X203327000Y-84899500D03*
D19*
X203327000Y-87439500D03*
X200787000Y-84899500D03*
X200787000Y-87439500D03*
X198247000Y-84899500D03*
X198247000Y-87439500D03*
D20*
X207645000Y-53467000D03*
D21*
X207645000Y-56007000D03*
X207645000Y-58547000D03*
X207645000Y-61087000D03*
D20*
X174942500Y-34417000D03*
D21*
X174942500Y-36957000D03*
X174942500Y-39497000D03*
D20*
X178435000Y-34417000D03*
D21*
X178435000Y-36957000D03*
X178435000Y-39497000D03*
D20*
X171450000Y-34417000D03*
D21*
X171450000Y-36957000D03*
X171450000Y-39497000D03*
D20*
X167957500Y-34417000D03*
D21*
X167957500Y-36957000D03*
X167957500Y-39497000D03*
D20*
X164465000Y-34417000D03*
D21*
X164465000Y-36957000D03*
X164465000Y-39497000D03*
D20*
X160972500Y-34417000D03*
D21*
X160972500Y-36957000D03*
X160972500Y-39497000D03*
D20*
X157480000Y-34417000D03*
D21*
X157480000Y-36957000D03*
X157480000Y-39497000D03*
D20*
X153987500Y-34417000D03*
D21*
X153987500Y-36957000D03*
X153987500Y-39497000D03*
D20*
X207708500Y-34417000D03*
D21*
X207708500Y-36957000D03*
X207708500Y-39497000D03*
D20*
X204216000Y-34417000D03*
D21*
X204216000Y-36957000D03*
X204216000Y-39497000D03*
D20*
X200723500Y-34417000D03*
D21*
X200723500Y-36957000D03*
X200723500Y-39497000D03*
D20*
X197231000Y-34417000D03*
D21*
X197231000Y-36957000D03*
X197231000Y-39497000D03*
D20*
X193738500Y-34417000D03*
D21*
X193738500Y-36957000D03*
X193738500Y-39497000D03*
D20*
X190246000Y-34417000D03*
D21*
X190246000Y-36957000D03*
X190246000Y-39497000D03*
D20*
X186753500Y-34417000D03*
D21*
X186753500Y-36957000D03*
X186753500Y-39497000D03*
D20*
X183261000Y-34417000D03*
D21*
X183261000Y-36957000D03*
X183261000Y-39497000D03*
D18*
X173101000Y-91186000D03*
D19*
X173101000Y-88646000D03*
X175641000Y-91186000D03*
X175641000Y-88646000D03*
X178181000Y-91186000D03*
X178181000Y-88646000D03*
X180721000Y-91186000D03*
X180721000Y-88646000D03*
X183261000Y-91186000D03*
X183261000Y-88646000D03*
D18*
X205168500Y-67373500D03*
D19*
X207708500Y-67373500D03*
X205168500Y-69913500D03*
X207708500Y-69913500D03*
X205168500Y-72453500D03*
X207708500Y-72453500D03*
X205168500Y-74993500D03*
X207708500Y-74993500D03*
D12*
X208597500Y-93408500D03*
X154686000Y-47434500D03*
X208597500Y-47434500D03*
M02*
