M48
INCH,TZ
T1C0.016
T2C0.039
T3C0.040
%
G90
G05
T1
X64140Y-19038
X65160Y-22480
X67960Y-21360
X68875Y-33950
X70350Y-33925
X71260Y-15420
X71275Y-29325
X71400Y-23875
X71625Y-28400
X72150Y-34050
X72250Y-19250
X72320Y-28060
X73040Y-34040
X73200Y-29550
X73280Y-24060
X73500Y-29380
X73550Y-29025
X73750Y-29625
X73875Y-28850
X74020Y-23440
X74125Y-29875
X74325Y-20375
X74650Y-22150
X74700Y-20725
X74700Y-27275
X74880Y-18160
X74980Y-35260
X75025Y-21400
X75080Y-26700
X75440Y-31520
X75700Y-36420
X75880Y-24660
X76075Y-27650
X76125Y-35400
X76400Y-32020
X76400Y-32575
X76525Y-27000
X76540Y-24840
X76540Y-36420
X76780Y-29960
X76875Y-32125
X77020Y-23660
X77020Y-29360
X78000Y-23300
X78100Y-18500
X78160Y-29320
X78380Y-20960
X78500Y-29525
X78800Y-32200
X79025Y-30525
X79925Y-24025
X79980Y-16800
X80050Y-32625
X80180Y-24700
X80760Y-21620
X80840Y-20480
X81080Y-24920
X81100Y-35140
T3
X60625Y-13550
X60625Y-14550
X60625Y-15550
X62000Y-13550
X62000Y-14550
X62000Y-15550
X63375Y-13550
X63375Y-14550
X63375Y-15550
X64750Y-13550
X64750Y-14550
X64750Y-15550
X66125Y-13550
X66125Y-14550
X66125Y-15550
X67500Y-13550
X67500Y-14550
X67500Y-15550
X68150Y-34900
X68150Y-35900
X68150Y-37100
X68875Y-13550
X68875Y-14550
X68875Y-15550
X69150Y-34900
X69150Y-35900
X69150Y-37100
X70150Y-34900
X70150Y-35900
X70150Y-37100
X70250Y-13550
X70250Y-14550
X70250Y-15550
X71150Y-34900
X71150Y-35900
X71150Y-37100
X72150Y-13550
X72150Y-14550
X72150Y-15550
X72150Y-34900
X72150Y-35900
X72150Y-37100
X73350Y-25350
X73350Y-26350
X73525Y-13550
X73525Y-14550
X73525Y-15550
X74150Y-37100
X74900Y-13550
X74900Y-14550
X74900Y-15550
X75050Y-33000
X75050Y-34000
X75150Y-37100
X76150Y-37100
X76275Y-13550
X76275Y-14550
X76275Y-15550
X77150Y-37100
X77650Y-13550
X77650Y-14550
X77650Y-15550
X78050Y-33425
X78050Y-34425
X79025Y-13550
X79025Y-14550
X79025Y-15550
X79050Y-33425
X79050Y-34425
X80050Y-33425
X80050Y-34425
X80400Y-13550
X80400Y-14550
X80400Y-15550
X80775Y-26525
X80775Y-27525
X80775Y-28525
X80775Y-29525
X81750Y-21050
X81750Y-22050
X81750Y-23050
X81750Y-24050
X81775Y-13550
X81775Y-14550
X81775Y-15550
X81775Y-26525
X81775Y-27525
X81775Y-28525
X81775Y-29525
T2
X62279Y-29732G85X62279Y-30519
G05
X62429Y-24757G85X62429Y-25544
G05
X63067Y-31975G85X63853Y-31975
G05
X63217Y-27000G85X64004Y-27000
G05
X64641Y-29732G85X64641Y-30519
G05
X64791Y-24757G85X64791Y-25544
G05
T0
M30
