G04 #@! TF.FileFunction,Copper,L2,Bot,Signal*
%FSLAX46Y46*%
G04 Gerber Fmt 4.6, Leading zero omitted, Abs format (unit mm)*
G04 Created by KiCad (PCBNEW 4.0.1-stable) date 6/25/2016 6:05:23 PM*
%MOMM*%
G01*
G04 APERTURE LIST*
%ADD10C,0.100000*%
%ADD11C,0.150000*%
%ADD12R,3.500120X3.500120*%
%ADD13R,2.032000X2.032000*%
%ADD14O,2.032000X2.032000*%
%ADD15R,1.727200X2.032000*%
%ADD16O,1.727200X2.032000*%
%ADD17R,1.727200X1.727200*%
%ADD18O,1.727200X1.727200*%
%ADD19R,2.032000X1.727200*%
%ADD20O,2.032000X1.727200*%
%ADD21C,0.600000*%
%ADD22C,0.500000*%
%ADD23C,0.200000*%
%ADD24C,0.250000*%
%ADD25C,2.100000*%
%ADD26C,0.750000*%
%ADD27C,0.254000*%
G04 APERTURE END LIST*
D10*
D11*
X209804000Y-96139000D02*
X211328000Y-96139000D01*
X209804000Y-32512000D02*
X211328000Y-32512000D01*
X149098000Y-96139000D02*
X209804000Y-96139000D01*
X209804000Y-32512000D02*
X149098000Y-32512000D01*
X211328000Y-32512000D02*
X211328000Y-96139000D01*
X149098000Y-96139000D02*
X149098000Y-32512000D01*
D12*
X164569140Y-63881000D03*
X158569660Y-63881000D03*
X161569400Y-68580000D03*
D13*
X190627000Y-83820000D03*
D14*
X190627000Y-86360000D03*
D12*
X164188140Y-76517500D03*
X158188660Y-76517500D03*
X161188400Y-81216500D03*
D13*
X186309000Y-64389000D03*
D14*
X186309000Y-66929000D03*
D15*
X173101000Y-94234000D03*
D16*
X175641000Y-94234000D03*
X178181000Y-94234000D03*
X180721000Y-94234000D03*
X183261000Y-94234000D03*
D15*
X195961000Y-94234000D03*
D16*
X193421000Y-94234000D03*
X190881000Y-94234000D03*
X188341000Y-94234000D03*
D17*
X203327000Y-84899500D03*
D18*
X203327000Y-87439500D03*
X200787000Y-84899500D03*
X200787000Y-87439500D03*
X198247000Y-84899500D03*
X198247000Y-87439500D03*
D19*
X207645000Y-53467000D03*
D20*
X207645000Y-56007000D03*
X207645000Y-58547000D03*
X207645000Y-61087000D03*
D19*
X174942500Y-34417000D03*
D20*
X174942500Y-36957000D03*
X174942500Y-39497000D03*
D19*
X178435000Y-34417000D03*
D20*
X178435000Y-36957000D03*
X178435000Y-39497000D03*
D19*
X171450000Y-34417000D03*
D20*
X171450000Y-36957000D03*
X171450000Y-39497000D03*
D19*
X167957500Y-34417000D03*
D20*
X167957500Y-36957000D03*
X167957500Y-39497000D03*
D19*
X164465000Y-34417000D03*
D20*
X164465000Y-36957000D03*
X164465000Y-39497000D03*
D19*
X160972500Y-34417000D03*
D20*
X160972500Y-36957000D03*
X160972500Y-39497000D03*
D19*
X157480000Y-34417000D03*
D20*
X157480000Y-36957000D03*
X157480000Y-39497000D03*
D19*
X153987500Y-34417000D03*
D20*
X153987500Y-36957000D03*
X153987500Y-39497000D03*
D19*
X207708500Y-34417000D03*
D20*
X207708500Y-36957000D03*
X207708500Y-39497000D03*
D19*
X204216000Y-34417000D03*
D20*
X204216000Y-36957000D03*
X204216000Y-39497000D03*
D19*
X200723500Y-34417000D03*
D20*
X200723500Y-36957000D03*
X200723500Y-39497000D03*
D19*
X197231000Y-34417000D03*
D20*
X197231000Y-36957000D03*
X197231000Y-39497000D03*
D19*
X193738500Y-34417000D03*
D20*
X193738500Y-36957000D03*
X193738500Y-39497000D03*
D19*
X190246000Y-34417000D03*
D20*
X190246000Y-36957000D03*
X190246000Y-39497000D03*
D19*
X186753500Y-34417000D03*
D20*
X186753500Y-36957000D03*
X186753500Y-39497000D03*
D19*
X183261000Y-34417000D03*
D20*
X183261000Y-36957000D03*
X183261000Y-39497000D03*
D17*
X173101000Y-91186000D03*
D18*
X173101000Y-88646000D03*
X175641000Y-91186000D03*
X175641000Y-88646000D03*
X178181000Y-91186000D03*
X178181000Y-88646000D03*
X180721000Y-91186000D03*
X180721000Y-88646000D03*
X183261000Y-91186000D03*
X183261000Y-88646000D03*
D17*
X205168500Y-67373500D03*
D18*
X207708500Y-67373500D03*
X205168500Y-69913500D03*
X207708500Y-69913500D03*
X205168500Y-72453500D03*
X207708500Y-72453500D03*
X205168500Y-74993500D03*
X207708500Y-74993500D03*
D21*
X205994000Y-89255600D03*
X190449200Y-89560400D03*
X194411600Y-63093600D03*
X205130400Y-54914800D03*
X198120000Y-59182000D03*
X194056000Y-81330800D03*
X191617600Y-80060800D03*
X194411600Y-92506800D03*
X192278000Y-92506800D03*
X205943200Y-63296800D03*
X203657200Y-62738000D03*
X185521600Y-86461600D03*
X183692800Y-71272400D03*
X186690000Y-74625200D03*
X188010800Y-59537600D03*
X186131200Y-61112400D03*
X165506400Y-57099200D03*
X162915600Y-48355500D03*
X203149200Y-42672000D03*
X181000400Y-39166800D03*
X181927500Y-72136000D03*
X181038500Y-74485500D03*
X195630800Y-60096400D03*
X192735200Y-62636400D03*
X199085200Y-53238400D03*
X190195200Y-46126400D03*
X205333600Y-52019200D03*
X181356000Y-60642500D03*
X183515000Y-48895000D03*
X195021200Y-76098400D03*
X195630800Y-74574400D03*
X198526400Y-74472800D03*
X190703200Y-67818000D03*
X172618400Y-54254400D03*
X187642500Y-73279000D03*
X200723500Y-77533500D03*
X185928000Y-75057000D03*
X183261000Y-86487000D03*
X174942500Y-86233000D03*
X178689000Y-86169500D03*
X187325000Y-75247500D03*
X188277500Y-75882500D03*
X203327000Y-82867500D03*
X194056000Y-82740500D03*
X195262500Y-81597500D03*
X200152000Y-81788000D03*
X199390000Y-74993500D03*
X193230500Y-70231000D03*
X189738000Y-69278500D03*
X194373500Y-68580000D03*
X188785500Y-51752500D03*
X189738000Y-52641500D03*
X189611000Y-56261000D03*
X203009500Y-61023500D03*
X186817000Y-73723500D03*
X193357500Y-89916000D03*
X198374000Y-46990000D03*
X190563500Y-54356000D03*
D22*
X204216000Y-91033600D02*
X205994000Y-89255600D01*
X191922400Y-91033600D02*
X204216000Y-91033600D01*
X190449200Y-89560400D02*
X191922400Y-91033600D01*
D23*
X198120000Y-59385200D02*
X198120000Y-59182000D01*
X194411600Y-63093600D02*
X198120000Y-59385200D01*
X202387200Y-54914800D02*
X205130400Y-54914800D01*
X198120000Y-59182000D02*
X202387200Y-54914800D01*
D24*
X191414400Y-80010000D02*
X191566800Y-80010000D01*
X191566800Y-80010000D02*
X191617600Y-80060800D01*
X192278000Y-92506800D02*
X194411600Y-92506800D01*
X204216000Y-63296800D02*
X205943200Y-63296800D01*
X203657200Y-62738000D02*
X204216000Y-63296800D01*
D25*
X183261000Y-91186000D02*
X185267600Y-91186000D01*
X185267600Y-91186000D02*
X185318400Y-91135200D01*
X180721000Y-91186000D02*
X183261000Y-91186000D01*
X173101000Y-91186000D02*
X175641000Y-91186000D01*
X175641000Y-91186000D02*
X178181000Y-91186000D01*
X178181000Y-91186000D02*
X180721000Y-91186000D01*
X173101000Y-91186000D02*
X169418000Y-91186000D01*
X169418000Y-91186000D02*
X169265600Y-91033600D01*
D23*
X185267600Y-72847200D02*
X183692800Y-71272400D01*
X185267600Y-73152000D02*
X185267600Y-72847200D01*
X186588400Y-74472800D02*
X185267600Y-73152000D01*
X186588400Y-74726800D02*
X186588400Y-74472800D01*
X186690000Y-74625200D02*
X186588400Y-74726800D01*
D22*
X162915600Y-48355500D02*
X162915600Y-48361600D01*
X209169000Y-34417000D02*
X207708500Y-34417000D01*
X210108800Y-35356800D02*
X209169000Y-34417000D01*
X210108800Y-41046400D02*
X210108800Y-35356800D01*
X209042000Y-42113200D02*
X210108800Y-41046400D01*
X203708000Y-42113200D02*
X209042000Y-42113200D01*
X203149200Y-42672000D02*
X203708000Y-42113200D01*
X180898800Y-39065200D02*
X180898800Y-34417000D01*
X181000400Y-39166800D02*
X180898800Y-39065200D01*
D25*
X164569140Y-63881000D02*
X164569140Y-64747140D01*
X164569140Y-64747140D02*
X166179500Y-66357500D01*
X166179500Y-66357500D02*
X166179500Y-75097640D01*
X166179500Y-75097640D02*
X164696140Y-76581000D01*
X153987500Y-34417000D02*
X151638000Y-34417000D01*
X164569140Y-60873640D02*
X164569140Y-63881000D01*
X163830000Y-60134500D02*
X164569140Y-60873640D01*
X150812500Y-60134500D02*
X163830000Y-60134500D01*
X150431500Y-60515500D02*
X150812500Y-60134500D01*
X150431500Y-35623500D02*
X150431500Y-60515500D01*
X151638000Y-34417000D02*
X150431500Y-35623500D01*
X153987500Y-34417000D02*
X157480000Y-34417000D01*
X157480000Y-34417000D02*
X160972500Y-34417000D01*
X160972500Y-34417000D02*
X164465000Y-34417000D01*
X164465000Y-34417000D02*
X167957500Y-34417000D01*
X167957500Y-34417000D02*
X171450000Y-34417000D01*
X171450000Y-34417000D02*
X174942500Y-34417000D01*
X174942500Y-34417000D02*
X178435000Y-34417000D01*
X178435000Y-34417000D02*
X180898800Y-34417000D01*
X180898800Y-34417000D02*
X183261000Y-34417000D01*
X183261000Y-34417000D02*
X186753500Y-34417000D01*
X186753500Y-34417000D02*
X190246000Y-34417000D01*
X190246000Y-34417000D02*
X193738500Y-34417000D01*
X193738500Y-34417000D02*
X197231000Y-34417000D01*
X197231000Y-34417000D02*
X200723500Y-34417000D01*
X200723500Y-34417000D02*
X204216000Y-34417000D01*
X204216000Y-34417000D02*
X207708500Y-34417000D01*
D24*
X195275200Y-60096400D02*
X195630800Y-60096400D01*
X192735200Y-62636400D02*
X195275200Y-60096400D01*
D22*
X199085200Y-53238400D02*
X199136000Y-53289200D01*
X199136000Y-53289200D02*
X204063600Y-53289200D01*
X204063600Y-53289200D02*
X205333600Y-52019200D01*
D26*
X191719200Y-44602400D02*
X190195200Y-46126400D01*
X204216000Y-44602400D02*
X191719200Y-44602400D01*
X205587600Y-45974000D02*
X204216000Y-44602400D01*
X205587600Y-51765200D02*
X205587600Y-45974000D01*
X205333600Y-52019200D02*
X205587600Y-51765200D01*
X181356000Y-60642500D02*
X183515000Y-58483500D01*
X183515000Y-58483500D02*
X183515000Y-48895000D01*
D23*
X194919600Y-75996800D02*
X195021200Y-76098400D01*
X194919600Y-75895200D02*
X194919600Y-75996800D01*
X195122800Y-75692000D02*
X194919600Y-75895200D01*
X195122800Y-75082400D02*
X195122800Y-75692000D01*
X195630800Y-74574400D02*
X195122800Y-75082400D01*
X198526400Y-72644000D02*
X198526400Y-74472800D01*
X197815200Y-71932800D02*
X198526400Y-72644000D01*
X189788800Y-71932800D02*
X197815200Y-71932800D01*
X187909200Y-70053200D02*
X189788800Y-71932800D01*
X187909200Y-69189600D02*
X187909200Y-70053200D01*
X189230000Y-67868800D02*
X187909200Y-69189600D01*
X190652400Y-67868800D02*
X189230000Y-67868800D01*
X190703200Y-67818000D02*
X190652400Y-67868800D01*
X187642500Y-73279000D02*
X187642500Y-71615300D01*
X172770800Y-54254400D02*
X172618400Y-54254400D01*
X182473600Y-63957200D02*
X172770800Y-54254400D01*
X182473600Y-66446400D02*
X182473600Y-63957200D01*
X187642500Y-71615300D02*
X182473600Y-66446400D01*
X188277500Y-73279000D02*
X187642500Y-73279000D01*
X196024500Y-73279000D02*
X188277500Y-73279000D01*
X200723500Y-77533500D02*
X196024500Y-73279000D01*
D11*
X186055000Y-75184000D02*
X185928000Y-75057000D01*
X186055000Y-83121500D02*
X186055000Y-75184000D01*
X183261000Y-86487000D02*
X186055000Y-83121500D01*
X174942500Y-86233000D02*
X178562000Y-86233000D01*
X178562000Y-86233000D02*
X178625500Y-86169500D01*
X178625500Y-86169500D02*
X178689000Y-86169500D01*
D23*
X188341000Y-94234000D02*
X188341000Y-92456000D01*
X187452000Y-75374500D02*
X187325000Y-75247500D01*
X187452000Y-91567000D02*
X187452000Y-75374500D01*
X188341000Y-92456000D02*
X187452000Y-91567000D01*
D11*
X195961000Y-92900500D02*
X195961000Y-94234000D01*
X194818000Y-91757500D02*
X195961000Y-92900500D01*
X189611000Y-91757500D02*
X194818000Y-91757500D01*
X188658500Y-90805000D02*
X189611000Y-91757500D01*
X188658500Y-76263500D02*
X188658500Y-90805000D01*
X188277500Y-75882500D02*
X188658500Y-76263500D01*
D23*
X194183000Y-82867500D02*
X203327000Y-82867500D01*
X194056000Y-82740500D02*
X194183000Y-82867500D01*
X195389500Y-81724500D02*
X195262500Y-81597500D01*
X200088500Y-81724500D02*
X195389500Y-81724500D01*
X200152000Y-81788000D02*
X200088500Y-81724500D01*
X201930000Y-72453500D02*
X205168500Y-72453500D01*
X199390000Y-74993500D02*
X201930000Y-72453500D01*
D24*
X193230500Y-70231000D02*
X193548000Y-69913500D01*
X193548000Y-69913500D02*
X205168500Y-69913500D01*
X207708500Y-69913500D02*
X208216500Y-69913500D01*
X208216500Y-69913500D02*
X209296000Y-68834000D01*
X209296000Y-68834000D02*
X209296000Y-66040000D01*
X209296000Y-66040000D02*
X208343500Y-65087500D01*
X208343500Y-65087500D02*
X203136500Y-65087500D01*
X203136500Y-65087500D02*
X201358500Y-66865500D01*
X201358500Y-66865500D02*
X201358500Y-67945000D01*
X201358500Y-67945000D02*
X200025000Y-69278500D01*
X200025000Y-69278500D02*
X189738000Y-69278500D01*
D23*
X188722000Y-51816000D02*
X188785500Y-51752500D01*
X188722000Y-62928500D02*
X188722000Y-51816000D01*
X188722000Y-62928500D02*
X194373500Y-68580000D01*
X189738000Y-56134000D02*
X189738000Y-52641500D01*
X189611000Y-56261000D02*
X189738000Y-56134000D01*
X207645000Y-58547000D02*
X205486000Y-58547000D01*
X205486000Y-58547000D02*
X203009500Y-61023500D01*
D11*
X187579000Y-74485500D02*
X186817000Y-73723500D01*
X188341000Y-74485500D02*
X187579000Y-74485500D01*
X193040000Y-79184500D02*
X188341000Y-74485500D01*
X193040000Y-89598500D02*
X193040000Y-79184500D01*
X193357500Y-89916000D02*
X193040000Y-89598500D01*
D25*
X158188660Y-76517500D02*
X158188660Y-75999340D01*
D11*
X197929500Y-46990000D02*
X198374000Y-46990000D01*
X190563500Y-54356000D02*
X197929500Y-46990000D01*
D27*
G36*
X152336500Y-33427090D02*
X152336500Y-34131250D01*
X152495250Y-34290000D01*
X153860500Y-34290000D01*
X153860500Y-34270000D01*
X154114500Y-34270000D01*
X154114500Y-34290000D01*
X155479750Y-34290000D01*
X155638500Y-34131250D01*
X155638500Y-33427090D01*
X155553549Y-33222000D01*
X155913951Y-33222000D01*
X155829000Y-33427090D01*
X155829000Y-34131250D01*
X155987750Y-34290000D01*
X157353000Y-34290000D01*
X157353000Y-34270000D01*
X157607000Y-34270000D01*
X157607000Y-34290000D01*
X158972250Y-34290000D01*
X159131000Y-34131250D01*
X159131000Y-33427090D01*
X159046049Y-33222000D01*
X159406451Y-33222000D01*
X159321500Y-33427090D01*
X159321500Y-34131250D01*
X159480250Y-34290000D01*
X160845500Y-34290000D01*
X160845500Y-34270000D01*
X161099500Y-34270000D01*
X161099500Y-34290000D01*
X162464750Y-34290000D01*
X162623500Y-34131250D01*
X162623500Y-33427090D01*
X162538549Y-33222000D01*
X162898951Y-33222000D01*
X162814000Y-33427090D01*
X162814000Y-34131250D01*
X162972750Y-34290000D01*
X164338000Y-34290000D01*
X164338000Y-34270000D01*
X164592000Y-34270000D01*
X164592000Y-34290000D01*
X165957250Y-34290000D01*
X166116000Y-34131250D01*
X166116000Y-33427090D01*
X166031049Y-33222000D01*
X166391451Y-33222000D01*
X166306500Y-33427090D01*
X166306500Y-34131250D01*
X166465250Y-34290000D01*
X167830500Y-34290000D01*
X167830500Y-34270000D01*
X168084500Y-34270000D01*
X168084500Y-34290000D01*
X169449750Y-34290000D01*
X169608500Y-34131250D01*
X169608500Y-33427090D01*
X169523549Y-33222000D01*
X169883951Y-33222000D01*
X169799000Y-33427090D01*
X169799000Y-34131250D01*
X169957750Y-34290000D01*
X171323000Y-34290000D01*
X171323000Y-34270000D01*
X171577000Y-34270000D01*
X171577000Y-34290000D01*
X172942250Y-34290000D01*
X173101000Y-34131250D01*
X173101000Y-33427090D01*
X173016049Y-33222000D01*
X173376451Y-33222000D01*
X173291500Y-33427090D01*
X173291500Y-34131250D01*
X173450250Y-34290000D01*
X174815500Y-34290000D01*
X174815500Y-34270000D01*
X175069500Y-34270000D01*
X175069500Y-34290000D01*
X176434750Y-34290000D01*
X176593500Y-34131250D01*
X176593500Y-33427090D01*
X176508549Y-33222000D01*
X176868951Y-33222000D01*
X176784000Y-33427090D01*
X176784000Y-34131250D01*
X176942750Y-34290000D01*
X178308000Y-34290000D01*
X178308000Y-34270000D01*
X178562000Y-34270000D01*
X178562000Y-34290000D01*
X179927250Y-34290000D01*
X180086000Y-34131250D01*
X180086000Y-33427090D01*
X180001049Y-33222000D01*
X181694951Y-33222000D01*
X181610000Y-33427090D01*
X181610000Y-34131250D01*
X181768750Y-34290000D01*
X183134000Y-34290000D01*
X183134000Y-34270000D01*
X183388000Y-34270000D01*
X183388000Y-34290000D01*
X184753250Y-34290000D01*
X184912000Y-34131250D01*
X184912000Y-33427090D01*
X184827049Y-33222000D01*
X185187451Y-33222000D01*
X185102500Y-33427090D01*
X185102500Y-34131250D01*
X185261250Y-34290000D01*
X186626500Y-34290000D01*
X186626500Y-34270000D01*
X186880500Y-34270000D01*
X186880500Y-34290000D01*
X188245750Y-34290000D01*
X188404500Y-34131250D01*
X188404500Y-33427090D01*
X188319549Y-33222000D01*
X188679951Y-33222000D01*
X188595000Y-33427090D01*
X188595000Y-34131250D01*
X188753750Y-34290000D01*
X190119000Y-34290000D01*
X190119000Y-34270000D01*
X190373000Y-34270000D01*
X190373000Y-34290000D01*
X191738250Y-34290000D01*
X191897000Y-34131250D01*
X191897000Y-33427090D01*
X191812049Y-33222000D01*
X192172451Y-33222000D01*
X192087500Y-33427090D01*
X192087500Y-34131250D01*
X192246250Y-34290000D01*
X193611500Y-34290000D01*
X193611500Y-34270000D01*
X193865500Y-34270000D01*
X193865500Y-34290000D01*
X195230750Y-34290000D01*
X195389500Y-34131250D01*
X195389500Y-33427090D01*
X195304549Y-33222000D01*
X195664951Y-33222000D01*
X195580000Y-33427090D01*
X195580000Y-34131250D01*
X195738750Y-34290000D01*
X197104000Y-34290000D01*
X197104000Y-34270000D01*
X197358000Y-34270000D01*
X197358000Y-34290000D01*
X198723250Y-34290000D01*
X198882000Y-34131250D01*
X198882000Y-33427090D01*
X198797049Y-33222000D01*
X199157451Y-33222000D01*
X199072500Y-33427090D01*
X199072500Y-34131250D01*
X199231250Y-34290000D01*
X200596500Y-34290000D01*
X200596500Y-34270000D01*
X200850500Y-34270000D01*
X200850500Y-34290000D01*
X202215750Y-34290000D01*
X202374500Y-34131250D01*
X202374500Y-33427090D01*
X202289549Y-33222000D01*
X202649951Y-33222000D01*
X202565000Y-33427090D01*
X202565000Y-34131250D01*
X202723750Y-34290000D01*
X204089000Y-34290000D01*
X204089000Y-34270000D01*
X204343000Y-34270000D01*
X204343000Y-34290000D01*
X204363000Y-34290000D01*
X204363000Y-34544000D01*
X204343000Y-34544000D01*
X204343000Y-34564000D01*
X204089000Y-34564000D01*
X204089000Y-34544000D01*
X202723750Y-34544000D01*
X202565000Y-34702750D01*
X202565000Y-35406910D01*
X202661673Y-35640299D01*
X202840302Y-35818927D01*
X202993780Y-35882500D01*
X202971585Y-35897330D01*
X202646729Y-36383511D01*
X202532655Y-36957000D01*
X202646729Y-37530489D01*
X202971585Y-38016670D01*
X203286366Y-38227000D01*
X202971585Y-38437330D01*
X202646729Y-38923511D01*
X202532655Y-39497000D01*
X202646729Y-40070489D01*
X202971585Y-40556670D01*
X203457766Y-40881526D01*
X204031255Y-40995600D01*
X204400745Y-40995600D01*
X204974234Y-40881526D01*
X205460415Y-40556670D01*
X205772905Y-40088996D01*
X205745996Y-44704040D01*
X204930178Y-43888222D01*
X204602510Y-43669282D01*
X204216000Y-43592400D01*
X191719200Y-43592400D01*
X191332689Y-43669282D01*
X191005022Y-43888222D01*
X189481022Y-45412222D01*
X189262082Y-45739890D01*
X189185200Y-46126400D01*
X189262082Y-46512910D01*
X189481022Y-46840578D01*
X189808690Y-47059518D01*
X190195200Y-47136400D01*
X190581710Y-47059518D01*
X190909378Y-46840578D01*
X192137556Y-45612400D01*
X203797644Y-45612400D01*
X204577600Y-46392356D01*
X204577600Y-51367613D01*
X204400482Y-51632690D01*
X204383585Y-51717636D01*
X203697020Y-52404200D01*
X199514361Y-52404200D01*
X199271999Y-52303562D01*
X198900033Y-52303238D01*
X198556257Y-52445283D01*
X198293008Y-52708073D01*
X198150362Y-53051601D01*
X198150038Y-53423567D01*
X198292083Y-53767343D01*
X198554873Y-54030592D01*
X198898401Y-54173238D01*
X199132183Y-54173442D01*
X199136000Y-54174201D01*
X199136005Y-54174200D01*
X204063595Y-54174200D01*
X204063600Y-54174201D01*
X204346084Y-54118010D01*
X204402275Y-54106833D01*
X204689390Y-53914990D01*
X204689391Y-53914989D01*
X205635164Y-52969215D01*
X205720110Y-52952318D01*
X205981560Y-52777623D01*
X205981560Y-54330600D01*
X206025838Y-54565917D01*
X206164910Y-54782041D01*
X206377110Y-54927031D01*
X206418439Y-54935400D01*
X206400585Y-54947330D01*
X206075729Y-55433511D01*
X205961655Y-56007000D01*
X206075729Y-56580489D01*
X206400585Y-57066670D01*
X206715366Y-57277000D01*
X206400585Y-57487330D01*
X206183647Y-57812000D01*
X205486000Y-57812000D01*
X205204728Y-57867949D01*
X204966277Y-58027276D01*
X202905145Y-60088408D01*
X202824333Y-60088338D01*
X202480557Y-60230383D01*
X202217308Y-60493173D01*
X202074662Y-60836701D01*
X202074338Y-61208667D01*
X202216383Y-61552443D01*
X202479173Y-61815692D01*
X202822701Y-61958338D01*
X203194667Y-61958662D01*
X203538443Y-61816617D01*
X203801692Y-61553827D01*
X203846455Y-61446026D01*
X206037642Y-61446026D01*
X206040291Y-61461791D01*
X206294268Y-61989036D01*
X206730680Y-62378954D01*
X207283087Y-62572184D01*
X207518000Y-62427924D01*
X207518000Y-61214000D01*
X207772000Y-61214000D01*
X207772000Y-62427924D01*
X208006913Y-62572184D01*
X208559320Y-62378954D01*
X208995732Y-61989036D01*
X209249709Y-61461791D01*
X209252358Y-61446026D01*
X209131217Y-61214000D01*
X207772000Y-61214000D01*
X207518000Y-61214000D01*
X206158783Y-61214000D01*
X206037642Y-61446026D01*
X203846455Y-61446026D01*
X203944338Y-61210299D01*
X203944410Y-61128037D01*
X205790447Y-59282000D01*
X206183647Y-59282000D01*
X206400585Y-59606670D01*
X206710069Y-59813461D01*
X206294268Y-60184964D01*
X206040291Y-60712209D01*
X206037642Y-60727974D01*
X206158783Y-60960000D01*
X207518000Y-60960000D01*
X207518000Y-60940000D01*
X207772000Y-60940000D01*
X207772000Y-60960000D01*
X209131217Y-60960000D01*
X209252358Y-60727974D01*
X209249709Y-60712209D01*
X208995732Y-60184964D01*
X208579931Y-59813461D01*
X208889415Y-59606670D01*
X209214271Y-59120489D01*
X209328345Y-58547000D01*
X209214271Y-57973511D01*
X208889415Y-57487330D01*
X208574634Y-57277000D01*
X208889415Y-57066670D01*
X209214271Y-56580489D01*
X209328345Y-56007000D01*
X209214271Y-55433511D01*
X208889415Y-54947330D01*
X208875087Y-54937757D01*
X208896317Y-54933762D01*
X209112441Y-54794690D01*
X209257431Y-54582490D01*
X209308440Y-54330600D01*
X209308440Y-52603400D01*
X209264162Y-52368083D01*
X209125090Y-52151959D01*
X208912890Y-52006969D01*
X208661000Y-51955960D01*
X206629000Y-51955960D01*
X206556959Y-51969515D01*
X206597600Y-51765200D01*
X206597600Y-50211309D01*
X210591239Y-50166437D01*
X210540759Y-90398600D01*
X206102579Y-90398600D01*
X206402834Y-90098345D01*
X206522943Y-90048717D01*
X206786192Y-89785927D01*
X206928838Y-89442399D01*
X206929162Y-89070433D01*
X206787117Y-88726657D01*
X206524327Y-88463408D01*
X206180799Y-88320762D01*
X205808833Y-88320438D01*
X205465057Y-88462483D01*
X205201808Y-88725273D01*
X205151434Y-88846587D01*
X203849420Y-90148600D01*
X194273320Y-90148600D01*
X194292338Y-90102799D01*
X194292662Y-89730833D01*
X194150617Y-89387057D01*
X193887827Y-89123808D01*
X193750000Y-89066577D01*
X193750000Y-87798527D01*
X196792032Y-87798527D01*
X197040179Y-88327990D01*
X197472053Y-88722188D01*
X197887974Y-88894458D01*
X198120000Y-88773317D01*
X198120000Y-87566500D01*
X196912531Y-87566500D01*
X196792032Y-87798527D01*
X193750000Y-87798527D01*
X193750000Y-83625841D01*
X193869201Y-83675338D01*
X194241167Y-83675662D01*
X194418233Y-83602500D01*
X197498580Y-83602500D01*
X197187330Y-83810471D01*
X196862474Y-84296652D01*
X196748400Y-84870141D01*
X196748400Y-84928859D01*
X196862474Y-85502348D01*
X197187330Y-85988529D01*
X197458161Y-86169492D01*
X197040179Y-86551010D01*
X196792032Y-87080473D01*
X196912531Y-87312500D01*
X198120000Y-87312500D01*
X198120000Y-87292500D01*
X198374000Y-87292500D01*
X198374000Y-87312500D01*
X198394000Y-87312500D01*
X198394000Y-87566500D01*
X198374000Y-87566500D01*
X198374000Y-88773317D01*
X198606026Y-88894458D01*
X199021947Y-88722188D01*
X199453821Y-88327990D01*
X199511336Y-88205272D01*
X199727330Y-88528529D01*
X200213511Y-88853385D01*
X200787000Y-88967459D01*
X201360489Y-88853385D01*
X201846670Y-88528529D01*
X202057000Y-88213748D01*
X202267330Y-88528529D01*
X202753511Y-88853385D01*
X203327000Y-88967459D01*
X203900489Y-88853385D01*
X204386670Y-88528529D01*
X204711526Y-88042348D01*
X204825600Y-87468859D01*
X204825600Y-87410141D01*
X204711526Y-86836652D01*
X204400426Y-86371058D01*
X204425917Y-86366262D01*
X204642041Y-86227190D01*
X204787031Y-86014990D01*
X204838040Y-85763100D01*
X204838040Y-84035900D01*
X204793762Y-83800583D01*
X204654690Y-83584459D01*
X204442490Y-83439469D01*
X204190600Y-83388460D01*
X204123082Y-83388460D01*
X204261838Y-83054299D01*
X204262162Y-82682333D01*
X204120117Y-82338557D01*
X203857327Y-82075308D01*
X203513799Y-81932662D01*
X203141833Y-81932338D01*
X202798057Y-82074383D01*
X202739838Y-82132500D01*
X201021354Y-82132500D01*
X201086838Y-81974799D01*
X201087162Y-81602833D01*
X200945117Y-81259057D01*
X200682327Y-80995808D01*
X200338799Y-80853162D01*
X199966833Y-80852838D01*
X199636085Y-80989500D01*
X195976698Y-80989500D01*
X195792827Y-80805308D01*
X195449299Y-80662662D01*
X195077333Y-80662338D01*
X194817156Y-80769841D01*
X194586327Y-80538608D01*
X194242799Y-80395962D01*
X193870833Y-80395638D01*
X193750000Y-80445565D01*
X193750000Y-79184505D01*
X193750001Y-79184500D01*
X193695954Y-78912795D01*
X193662868Y-78863278D01*
X193542046Y-78682454D01*
X193542043Y-78682452D01*
X188873592Y-74014000D01*
X194868734Y-74014000D01*
X194838608Y-74044073D01*
X194695962Y-74387601D01*
X194695890Y-74469863D01*
X194603077Y-74562677D01*
X194443749Y-74801128D01*
X194387800Y-75082400D01*
X194387800Y-75393551D01*
X194355681Y-75441621D01*
X194229008Y-75568073D01*
X194086362Y-75911601D01*
X194086038Y-76283567D01*
X194228083Y-76627343D01*
X194490873Y-76890592D01*
X194834401Y-77033238D01*
X195206367Y-77033562D01*
X195550143Y-76891517D01*
X195813392Y-76628727D01*
X195956038Y-76285199D01*
X195956362Y-75913233D01*
X195857800Y-75674694D01*
X195857800Y-75492277D01*
X196159743Y-75367517D01*
X196422992Y-75104727D01*
X196565638Y-74761199D01*
X196565639Y-74760453D01*
X199788373Y-77678334D01*
X199788338Y-77718667D01*
X199930383Y-78062443D01*
X200193173Y-78325692D01*
X200536701Y-78468338D01*
X200908667Y-78468662D01*
X201252443Y-78326617D01*
X201515692Y-78063827D01*
X201658338Y-77720299D01*
X201658662Y-77348333D01*
X201516617Y-77004557D01*
X201253827Y-76741308D01*
X200910299Y-76598662D01*
X200785966Y-76598554D01*
X199898520Y-75795056D01*
X199918943Y-75786617D01*
X200182192Y-75523827D01*
X200253322Y-75352526D01*
X203713542Y-75352526D01*
X203885812Y-75768447D01*
X204280010Y-76200321D01*
X204809473Y-76448468D01*
X205041500Y-76327969D01*
X205041500Y-75120500D01*
X203834683Y-75120500D01*
X203713542Y-75352526D01*
X200253322Y-75352526D01*
X200324838Y-75180299D01*
X200324910Y-75098037D01*
X202234447Y-73188500D01*
X203862533Y-73188500D01*
X204079471Y-73513170D01*
X204402728Y-73729164D01*
X204280010Y-73786679D01*
X203885812Y-74218553D01*
X203713542Y-74634474D01*
X203834683Y-74866500D01*
X205041500Y-74866500D01*
X205041500Y-74846500D01*
X205295500Y-74846500D01*
X205295500Y-74866500D01*
X205315500Y-74866500D01*
X205315500Y-75120500D01*
X205295500Y-75120500D01*
X205295500Y-76327969D01*
X205527527Y-76448468D01*
X206056990Y-76200321D01*
X206438508Y-75782339D01*
X206619471Y-76053170D01*
X207105652Y-76378026D01*
X207679141Y-76492100D01*
X207737859Y-76492100D01*
X208311348Y-76378026D01*
X208797529Y-76053170D01*
X209122385Y-75566989D01*
X209236459Y-74993500D01*
X209122385Y-74420011D01*
X208797529Y-73933830D01*
X208482748Y-73723500D01*
X208797529Y-73513170D01*
X209122385Y-73026989D01*
X209236459Y-72453500D01*
X209122385Y-71880011D01*
X208797529Y-71393830D01*
X208482748Y-71183500D01*
X208797529Y-70973170D01*
X209122385Y-70486989D01*
X209222841Y-69981961D01*
X209833401Y-69371401D01*
X209998148Y-69124839D01*
X210056000Y-68834000D01*
X210056000Y-66040000D01*
X209998148Y-65749161D01*
X209998148Y-65749160D01*
X209833401Y-65502599D01*
X208880901Y-64550099D01*
X208634339Y-64385352D01*
X208343500Y-64327500D01*
X203136500Y-64327500D01*
X202845661Y-64385352D01*
X202599099Y-64550099D01*
X200821099Y-66328099D01*
X200656352Y-66574661D01*
X200598500Y-66865500D01*
X200598500Y-67630198D01*
X199710198Y-68518500D01*
X195308554Y-68518500D01*
X195308662Y-68394833D01*
X195166617Y-68051057D01*
X194903827Y-67787808D01*
X194560299Y-67645162D01*
X194478037Y-67645090D01*
X189654514Y-62821567D01*
X191800038Y-62821567D01*
X191942083Y-63165343D01*
X192204873Y-63428592D01*
X192548401Y-63571238D01*
X192920367Y-63571562D01*
X193264143Y-63429517D01*
X193476491Y-63217539D01*
X193476438Y-63278767D01*
X193618483Y-63622543D01*
X193881273Y-63885792D01*
X194224801Y-64028438D01*
X194596767Y-64028762D01*
X194940543Y-63886717D01*
X195203792Y-63623927D01*
X195346438Y-63280399D01*
X195346510Y-63198136D01*
X198513613Y-60031034D01*
X198648943Y-59975117D01*
X198912192Y-59712327D01*
X199054838Y-59368799D01*
X199054910Y-59286536D01*
X202691647Y-55649800D01*
X204542981Y-55649800D01*
X204600073Y-55706992D01*
X204943601Y-55849638D01*
X205315567Y-55849962D01*
X205659343Y-55707917D01*
X205922592Y-55445127D01*
X206065238Y-55101599D01*
X206065562Y-54729633D01*
X205923517Y-54385857D01*
X205660727Y-54122608D01*
X205317199Y-53979962D01*
X204945233Y-53979638D01*
X204601457Y-54121683D01*
X204543238Y-54179800D01*
X202387200Y-54179800D01*
X202105928Y-54235749D01*
X201867476Y-54395077D01*
X198015646Y-58246908D01*
X197934833Y-58246838D01*
X197591057Y-58388883D01*
X197327808Y-58651673D01*
X197185162Y-58995201D01*
X197184913Y-59280840D01*
X196562617Y-59903137D01*
X196423917Y-59567457D01*
X196161127Y-59304208D01*
X195817599Y-59161562D01*
X195445633Y-59161238D01*
X195101857Y-59303283D01*
X195017291Y-59387702D01*
X194984360Y-59394252D01*
X194737799Y-59558999D01*
X192595520Y-61701278D01*
X192550033Y-61701238D01*
X192206257Y-61843283D01*
X191943008Y-62106073D01*
X191800362Y-62449601D01*
X191800038Y-62821567D01*
X189654514Y-62821567D01*
X189457000Y-62624054D01*
X189457000Y-57195867D01*
X189796167Y-57196162D01*
X190139943Y-57054117D01*
X190403192Y-56791327D01*
X190545838Y-56447799D01*
X190546162Y-56075833D01*
X190473000Y-55898767D01*
X190473000Y-55290922D01*
X190748667Y-55291162D01*
X191092443Y-55149117D01*
X191355692Y-54886327D01*
X191498338Y-54542799D01*
X191498440Y-54425152D01*
X198054045Y-47869547D01*
X198187201Y-47924838D01*
X198559167Y-47925162D01*
X198902943Y-47783117D01*
X199166192Y-47520327D01*
X199308838Y-47176799D01*
X199309162Y-46804833D01*
X199167117Y-46461057D01*
X198904327Y-46197808D01*
X198560799Y-46055162D01*
X198188833Y-46054838D01*
X197845057Y-46196883D01*
X197720062Y-46321660D01*
X197657795Y-46334046D01*
X197427454Y-46487954D01*
X190494469Y-53420939D01*
X190473000Y-53420920D01*
X190473000Y-53228919D01*
X190530192Y-53171827D01*
X190672838Y-52828299D01*
X190673162Y-52456333D01*
X190531117Y-52112557D01*
X190268327Y-51849308D01*
X189924799Y-51706662D01*
X189720541Y-51706484D01*
X189720662Y-51567333D01*
X189578617Y-51223557D01*
X189315827Y-50960308D01*
X188972299Y-50817662D01*
X188600333Y-50817338D01*
X188256557Y-50959383D01*
X187993308Y-51222173D01*
X187850662Y-51565701D01*
X187850338Y-51937667D01*
X187987000Y-52268415D01*
X187987000Y-62928500D01*
X188034387Y-63166727D01*
X188042949Y-63209772D01*
X188202277Y-63448223D01*
X193272553Y-68518500D01*
X191324922Y-68518500D01*
X191495392Y-68348327D01*
X191638038Y-68004799D01*
X191638362Y-67632833D01*
X191496317Y-67289057D01*
X191233527Y-67025808D01*
X190889999Y-66883162D01*
X190518033Y-66882838D01*
X190174257Y-67024883D01*
X190065150Y-67133800D01*
X189230000Y-67133800D01*
X188972603Y-67185000D01*
X188948728Y-67189749D01*
X188710276Y-67349077D01*
X187389477Y-68669877D01*
X187230149Y-68908328D01*
X187174200Y-69189600D01*
X187174200Y-70053200D01*
X187187696Y-70121049D01*
X185271531Y-68204884D01*
X185644845Y-68454325D01*
X186276655Y-68580000D01*
X186341345Y-68580000D01*
X186973155Y-68454325D01*
X187508778Y-68096433D01*
X187866670Y-67560810D01*
X187992345Y-66929000D01*
X187866670Y-66297190D01*
X187639501Y-65957208D01*
X187776441Y-65869090D01*
X187921431Y-65656890D01*
X187972440Y-65405000D01*
X187972440Y-63373000D01*
X187928162Y-63137683D01*
X187789090Y-62921559D01*
X187576890Y-62776569D01*
X187325000Y-62725560D01*
X185293000Y-62725560D01*
X185057683Y-62769838D01*
X184841559Y-62908910D01*
X184696569Y-63121110D01*
X184645560Y-63373000D01*
X184645560Y-65405000D01*
X184689838Y-65640317D01*
X184828910Y-65856441D01*
X184977837Y-65958198D01*
X184751330Y-66297190D01*
X184625655Y-66929000D01*
X184751330Y-67560810D01*
X185000771Y-67934124D01*
X183208600Y-66141954D01*
X183208600Y-63957200D01*
X183152651Y-63675928D01*
X183082916Y-63571562D01*
X182993323Y-63437476D01*
X181171684Y-61615837D01*
X181356000Y-61652500D01*
X181742510Y-61575618D01*
X182070178Y-61356678D01*
X184229178Y-59197678D01*
X184448118Y-58870010D01*
X184525000Y-58483500D01*
X184525000Y-48895000D01*
X184448118Y-48508490D01*
X184229178Y-48180822D01*
X183901510Y-47961882D01*
X183515000Y-47885000D01*
X183128490Y-47961882D01*
X182800822Y-48180822D01*
X182581882Y-48508490D01*
X182505000Y-48895000D01*
X182505000Y-58065144D01*
X180641822Y-59928322D01*
X180422882Y-60255990D01*
X180346000Y-60642500D01*
X180382663Y-60826816D01*
X173503205Y-53947359D01*
X173411517Y-53725457D01*
X173148727Y-53462208D01*
X172805199Y-53319562D01*
X172433233Y-53319238D01*
X172089457Y-53461283D01*
X171826208Y-53724073D01*
X171683562Y-54067601D01*
X171683238Y-54439567D01*
X171825283Y-54783343D01*
X172088073Y-55046592D01*
X172431601Y-55189238D01*
X172666396Y-55189443D01*
X181738600Y-64261647D01*
X181738600Y-66446400D01*
X181768084Y-66594623D01*
X181794549Y-66727672D01*
X181953877Y-66966123D01*
X186907500Y-71919747D01*
X186907500Y-72691581D01*
X186850308Y-72748673D01*
X186833765Y-72788514D01*
X186631833Y-72788338D01*
X186288057Y-72930383D01*
X186024808Y-73193173D01*
X185882162Y-73536701D01*
X185881838Y-73908667D01*
X185970000Y-74122036D01*
X185742833Y-74121838D01*
X185399057Y-74263883D01*
X185135808Y-74526673D01*
X184993162Y-74870201D01*
X184992838Y-75242167D01*
X185134883Y-75585943D01*
X185345000Y-75796427D01*
X185345000Y-82865191D01*
X183114548Y-85551872D01*
X183075833Y-85551838D01*
X182732057Y-85693883D01*
X182468808Y-85956673D01*
X182326162Y-86300201D01*
X182325838Y-86672167D01*
X182467883Y-87015943D01*
X182685212Y-87233651D01*
X182201330Y-87556971D01*
X181991000Y-87871752D01*
X181780670Y-87556971D01*
X181294489Y-87232115D01*
X180721000Y-87118041D01*
X180147511Y-87232115D01*
X179661330Y-87556971D01*
X179451000Y-87871752D01*
X179240670Y-87556971D01*
X178754489Y-87232115D01*
X178181000Y-87118041D01*
X177607511Y-87232115D01*
X177121330Y-87556971D01*
X176911000Y-87871752D01*
X176700670Y-87556971D01*
X176214489Y-87232115D01*
X175641000Y-87118041D01*
X175067511Y-87232115D01*
X174581330Y-87556971D01*
X174371000Y-87871752D01*
X174160670Y-87556971D01*
X173674489Y-87232115D01*
X173101000Y-87118041D01*
X172527511Y-87232115D01*
X172041330Y-87556971D01*
X171716474Y-88043152D01*
X171602400Y-88616641D01*
X171602400Y-88675359D01*
X171716474Y-89248848D01*
X172031526Y-89720356D01*
X171877701Y-89784073D01*
X171699073Y-89962702D01*
X171602400Y-90196091D01*
X171602400Y-90900250D01*
X171761150Y-91059000D01*
X172974000Y-91059000D01*
X172974000Y-91039000D01*
X173228000Y-91039000D01*
X173228000Y-91059000D01*
X175514000Y-91059000D01*
X175514000Y-91039000D01*
X175768000Y-91039000D01*
X175768000Y-91059000D01*
X178054000Y-91059000D01*
X178054000Y-91039000D01*
X178308000Y-91039000D01*
X178308000Y-91059000D01*
X180594000Y-91059000D01*
X180594000Y-91039000D01*
X180848000Y-91039000D01*
X180848000Y-91059000D01*
X183134000Y-91059000D01*
X183134000Y-91039000D01*
X183388000Y-91039000D01*
X183388000Y-91059000D01*
X184595469Y-91059000D01*
X184715968Y-90826973D01*
X184467821Y-90297510D01*
X184049839Y-89915992D01*
X184320670Y-89735029D01*
X184645526Y-89248848D01*
X184759600Y-88675359D01*
X184759600Y-88616641D01*
X184645526Y-88043152D01*
X184320670Y-87556971D01*
X183836609Y-87233532D01*
X184053192Y-87017327D01*
X184195838Y-86673799D01*
X184196014Y-86472270D01*
X186601281Y-83575017D01*
X186651910Y-83481571D01*
X186710954Y-83393205D01*
X186717000Y-83362810D01*
X186717000Y-91567000D01*
X186772949Y-91848272D01*
X186932277Y-92086723D01*
X187606000Y-92760447D01*
X187606000Y-92772647D01*
X187281330Y-92989585D01*
X186956474Y-93475766D01*
X186842400Y-94049255D01*
X186842400Y-94418745D01*
X186956474Y-94992234D01*
X187248312Y-95429000D01*
X184353688Y-95429000D01*
X184645526Y-94992234D01*
X184759600Y-94418745D01*
X184759600Y-94049255D01*
X184645526Y-93475766D01*
X184320670Y-92989585D01*
X183834489Y-92664729D01*
X183650834Y-92628198D01*
X184035947Y-92468688D01*
X184467821Y-92074490D01*
X184715968Y-91545027D01*
X184595469Y-91313000D01*
X183388000Y-91313000D01*
X183388000Y-91333000D01*
X183134000Y-91333000D01*
X183134000Y-91313000D01*
X180848000Y-91313000D01*
X180848000Y-91333000D01*
X180594000Y-91333000D01*
X180594000Y-91313000D01*
X178308000Y-91313000D01*
X178308000Y-91333000D01*
X178054000Y-91333000D01*
X178054000Y-91313000D01*
X175768000Y-91313000D01*
X175768000Y-91333000D01*
X175514000Y-91333000D01*
X175514000Y-91313000D01*
X173228000Y-91313000D01*
X173228000Y-91333000D01*
X172974000Y-91333000D01*
X172974000Y-91313000D01*
X171761150Y-91313000D01*
X171602400Y-91471750D01*
X171602400Y-92175909D01*
X171699073Y-92409298D01*
X171877701Y-92587927D01*
X171978816Y-92629810D01*
X171785959Y-92753910D01*
X171640969Y-92966110D01*
X171589960Y-93218000D01*
X171589960Y-95250000D01*
X171623641Y-95429000D01*
X158624827Y-95429000D01*
X158673793Y-90679309D01*
X158664297Y-90629799D01*
X158636287Y-90587883D01*
X158594176Y-90560168D01*
X158549003Y-90551019D01*
X150185115Y-90405882D01*
X150141898Y-89411899D01*
X150151351Y-89403473D01*
X150181577Y-89363126D01*
X150193845Y-89308657D01*
X150193577Y-86418167D01*
X174007338Y-86418167D01*
X174149383Y-86761943D01*
X174412173Y-87025192D01*
X174755701Y-87167838D01*
X175127667Y-87168162D01*
X175471443Y-87026117D01*
X175554705Y-86943000D01*
X178140014Y-86943000D01*
X178158673Y-86961692D01*
X178502201Y-87104338D01*
X178874167Y-87104662D01*
X179217943Y-86962617D01*
X179481192Y-86699827D01*
X179623838Y-86356299D01*
X179624162Y-85984333D01*
X179482117Y-85640557D01*
X179219327Y-85377308D01*
X178875799Y-85234662D01*
X178503833Y-85234338D01*
X178160057Y-85376383D01*
X178013184Y-85523000D01*
X175554876Y-85523000D01*
X175472827Y-85440808D01*
X175129299Y-85298162D01*
X174757333Y-85297838D01*
X174413557Y-85439883D01*
X174150308Y-85702673D01*
X174007662Y-86046201D01*
X174007338Y-86418167D01*
X150193577Y-86418167D01*
X150192496Y-74767440D01*
X155791160Y-74767440D01*
X155791160Y-78267560D01*
X155835438Y-78502877D01*
X155974510Y-78719001D01*
X156186710Y-78863991D01*
X156438600Y-78915000D01*
X159122645Y-78915000D01*
X158986899Y-79002350D01*
X158841909Y-79214550D01*
X158790900Y-79466440D01*
X158790900Y-82966560D01*
X158835178Y-83201877D01*
X158974250Y-83418001D01*
X159186450Y-83562991D01*
X159438340Y-83614000D01*
X162938460Y-83614000D01*
X163173777Y-83569722D01*
X163389901Y-83430650D01*
X163534891Y-83218450D01*
X163585900Y-82966560D01*
X163585900Y-79466440D01*
X163541622Y-79231123D01*
X163402550Y-79014999D01*
X163237990Y-78902560D01*
X163902390Y-78902560D01*
X164061140Y-78743810D01*
X164061140Y-76644500D01*
X164315140Y-76644500D01*
X164315140Y-78743810D01*
X164473890Y-78902560D01*
X166064509Y-78902560D01*
X166297898Y-78805887D01*
X166476527Y-78627259D01*
X166573200Y-78393870D01*
X166573200Y-76803250D01*
X166414450Y-76644500D01*
X164315140Y-76644500D01*
X164061140Y-76644500D01*
X161961830Y-76644500D01*
X161803080Y-76803250D01*
X161803080Y-78393870D01*
X161899753Y-78627259D01*
X162078382Y-78805887D01*
X162110040Y-78819000D01*
X160254415Y-78819000D01*
X160390161Y-78731650D01*
X160535151Y-78519450D01*
X160586160Y-78267560D01*
X160586160Y-74767440D01*
X160562394Y-74641130D01*
X161803080Y-74641130D01*
X161803080Y-76231750D01*
X161961830Y-76390500D01*
X164061140Y-76390500D01*
X164061140Y-74291190D01*
X164315140Y-74291190D01*
X164315140Y-76390500D01*
X166414450Y-76390500D01*
X166573200Y-76231750D01*
X166573200Y-74641130D01*
X166476527Y-74407741D01*
X166297898Y-74229113D01*
X166064509Y-74132440D01*
X164473890Y-74132440D01*
X164315140Y-74291190D01*
X164061140Y-74291190D01*
X163902390Y-74132440D01*
X162311771Y-74132440D01*
X162078382Y-74229113D01*
X161899753Y-74407741D01*
X161803080Y-74641130D01*
X160562394Y-74641130D01*
X160541882Y-74532123D01*
X160402810Y-74315999D01*
X160190610Y-74171009D01*
X159938720Y-74120000D01*
X156438600Y-74120000D01*
X156203283Y-74164278D01*
X155987159Y-74303350D01*
X155842169Y-74515550D01*
X155791160Y-74767440D01*
X150192496Y-74767440D01*
X150191323Y-62130940D01*
X156172160Y-62130940D01*
X156172160Y-65631060D01*
X156216438Y-65866377D01*
X156355510Y-66082501D01*
X156567710Y-66227491D01*
X156819600Y-66278500D01*
X159503645Y-66278500D01*
X159367899Y-66365850D01*
X159222909Y-66578050D01*
X159171900Y-66829940D01*
X159171900Y-70330060D01*
X159216178Y-70565377D01*
X159355250Y-70781501D01*
X159567450Y-70926491D01*
X159819340Y-70977500D01*
X163319460Y-70977500D01*
X163554777Y-70933222D01*
X163770901Y-70794150D01*
X163915891Y-70581950D01*
X163966900Y-70330060D01*
X163966900Y-66829940D01*
X163922622Y-66594623D01*
X163783550Y-66378499D01*
X163618990Y-66266060D01*
X164283390Y-66266060D01*
X164442140Y-66107310D01*
X164442140Y-64008000D01*
X164696140Y-64008000D01*
X164696140Y-66107310D01*
X164854890Y-66266060D01*
X166445509Y-66266060D01*
X166678898Y-66169387D01*
X166857527Y-65990759D01*
X166954200Y-65757370D01*
X166954200Y-64166750D01*
X166795450Y-64008000D01*
X164696140Y-64008000D01*
X164442140Y-64008000D01*
X162342830Y-64008000D01*
X162184080Y-64166750D01*
X162184080Y-65757370D01*
X162280753Y-65990759D01*
X162459382Y-66169387D01*
X162491040Y-66182500D01*
X160635415Y-66182500D01*
X160771161Y-66095150D01*
X160916151Y-65882950D01*
X160967160Y-65631060D01*
X160967160Y-62130940D01*
X160943394Y-62004630D01*
X162184080Y-62004630D01*
X162184080Y-63595250D01*
X162342830Y-63754000D01*
X164442140Y-63754000D01*
X164442140Y-61654690D01*
X164696140Y-61654690D01*
X164696140Y-63754000D01*
X166795450Y-63754000D01*
X166954200Y-63595250D01*
X166954200Y-62004630D01*
X166857527Y-61771241D01*
X166678898Y-61592613D01*
X166445509Y-61495940D01*
X164854890Y-61495940D01*
X164696140Y-61654690D01*
X164442140Y-61654690D01*
X164283390Y-61495940D01*
X162692771Y-61495940D01*
X162459382Y-61592613D01*
X162280753Y-61771241D01*
X162184080Y-62004630D01*
X160943394Y-62004630D01*
X160922882Y-61895623D01*
X160783810Y-61679499D01*
X160571610Y-61534509D01*
X160319720Y-61483500D01*
X156819600Y-61483500D01*
X156584283Y-61527778D01*
X156368159Y-61666850D01*
X156223169Y-61879050D01*
X156172160Y-62130940D01*
X150191323Y-62130940D01*
X150190212Y-50171860D01*
X157778125Y-50571224D01*
X157827993Y-50563829D01*
X157871054Y-50537616D01*
X157900525Y-50496714D01*
X157911796Y-50445424D01*
X157962596Y-44146224D01*
X157952989Y-44096735D01*
X157924885Y-44054882D01*
X157882712Y-44027262D01*
X157836360Y-44018202D01*
X149808000Y-43970128D01*
X149808000Y-36957000D01*
X152304155Y-36957000D01*
X152418229Y-37530489D01*
X152743085Y-38016670D01*
X153057866Y-38227000D01*
X152743085Y-38437330D01*
X152418229Y-38923511D01*
X152304155Y-39497000D01*
X152418229Y-40070489D01*
X152743085Y-40556670D01*
X153229266Y-40881526D01*
X153802755Y-40995600D01*
X154172245Y-40995600D01*
X154745734Y-40881526D01*
X155231915Y-40556670D01*
X155556771Y-40070489D01*
X155670845Y-39497000D01*
X155556771Y-38923511D01*
X155231915Y-38437330D01*
X154917134Y-38227000D01*
X155231915Y-38016670D01*
X155556771Y-37530489D01*
X155670845Y-36957000D01*
X155796655Y-36957000D01*
X155910729Y-37530489D01*
X156235585Y-38016670D01*
X156550366Y-38227000D01*
X156235585Y-38437330D01*
X155910729Y-38923511D01*
X155796655Y-39497000D01*
X155910729Y-40070489D01*
X156235585Y-40556670D01*
X156721766Y-40881526D01*
X157295255Y-40995600D01*
X157664745Y-40995600D01*
X158238234Y-40881526D01*
X158724415Y-40556670D01*
X159049271Y-40070489D01*
X159163345Y-39497000D01*
X159049271Y-38923511D01*
X158724415Y-38437330D01*
X158409634Y-38227000D01*
X158724415Y-38016670D01*
X159049271Y-37530489D01*
X159163345Y-36957000D01*
X159289155Y-36957000D01*
X159403229Y-37530489D01*
X159728085Y-38016670D01*
X160042866Y-38227000D01*
X159728085Y-38437330D01*
X159403229Y-38923511D01*
X159289155Y-39497000D01*
X159403229Y-40070489D01*
X159728085Y-40556670D01*
X160214266Y-40881526D01*
X160787755Y-40995600D01*
X161157245Y-40995600D01*
X161730734Y-40881526D01*
X162216915Y-40556670D01*
X162541771Y-40070489D01*
X162655845Y-39497000D01*
X162541771Y-38923511D01*
X162216915Y-38437330D01*
X161902134Y-38227000D01*
X162216915Y-38016670D01*
X162541771Y-37530489D01*
X162655845Y-36957000D01*
X162781655Y-36957000D01*
X162895729Y-37530489D01*
X163220585Y-38016670D01*
X163535366Y-38227000D01*
X163220585Y-38437330D01*
X162895729Y-38923511D01*
X162781655Y-39497000D01*
X162895729Y-40070489D01*
X163220585Y-40556670D01*
X163706766Y-40881526D01*
X164280255Y-40995600D01*
X164649745Y-40995600D01*
X165223234Y-40881526D01*
X165709415Y-40556670D01*
X166034271Y-40070489D01*
X166148345Y-39497000D01*
X166034271Y-38923511D01*
X165709415Y-38437330D01*
X165394634Y-38227000D01*
X165709415Y-38016670D01*
X166034271Y-37530489D01*
X166148345Y-36957000D01*
X166274155Y-36957000D01*
X166388229Y-37530489D01*
X166713085Y-38016670D01*
X167027866Y-38227000D01*
X166713085Y-38437330D01*
X166388229Y-38923511D01*
X166274155Y-39497000D01*
X166388229Y-40070489D01*
X166713085Y-40556670D01*
X167199266Y-40881526D01*
X167772755Y-40995600D01*
X168142245Y-40995600D01*
X168715734Y-40881526D01*
X169201915Y-40556670D01*
X169526771Y-40070489D01*
X169640845Y-39497000D01*
X169526771Y-38923511D01*
X169201915Y-38437330D01*
X168887134Y-38227000D01*
X169201915Y-38016670D01*
X169526771Y-37530489D01*
X169640845Y-36957000D01*
X169766655Y-36957000D01*
X169880729Y-37530489D01*
X170205585Y-38016670D01*
X170520366Y-38227000D01*
X170205585Y-38437330D01*
X169880729Y-38923511D01*
X169766655Y-39497000D01*
X169880729Y-40070489D01*
X170205585Y-40556670D01*
X170691766Y-40881526D01*
X171265255Y-40995600D01*
X171634745Y-40995600D01*
X172208234Y-40881526D01*
X172694415Y-40556670D01*
X173019271Y-40070489D01*
X173133345Y-39497000D01*
X173019271Y-38923511D01*
X172694415Y-38437330D01*
X172379634Y-38227000D01*
X172694415Y-38016670D01*
X173019271Y-37530489D01*
X173133345Y-36957000D01*
X173259155Y-36957000D01*
X173373229Y-37530489D01*
X173698085Y-38016670D01*
X174012866Y-38227000D01*
X173698085Y-38437330D01*
X173373229Y-38923511D01*
X173259155Y-39497000D01*
X173373229Y-40070489D01*
X173698085Y-40556670D01*
X174184266Y-40881526D01*
X174757755Y-40995600D01*
X175127245Y-40995600D01*
X175700734Y-40881526D01*
X176186915Y-40556670D01*
X176511771Y-40070489D01*
X176625845Y-39497000D01*
X176511771Y-38923511D01*
X176186915Y-38437330D01*
X175872134Y-38227000D01*
X176186915Y-38016670D01*
X176511771Y-37530489D01*
X176625845Y-36957000D01*
X176751655Y-36957000D01*
X176865729Y-37530489D01*
X177190585Y-38016670D01*
X177505366Y-38227000D01*
X177190585Y-38437330D01*
X176865729Y-38923511D01*
X176751655Y-39497000D01*
X176865729Y-40070489D01*
X177190585Y-40556670D01*
X177676766Y-40881526D01*
X178250255Y-40995600D01*
X178619745Y-40995600D01*
X179193234Y-40881526D01*
X179679415Y-40556670D01*
X180004271Y-40070489D01*
X180118345Y-39497000D01*
X180004271Y-38923511D01*
X179679415Y-38437330D01*
X179364634Y-38227000D01*
X179679415Y-38016670D01*
X180004271Y-37530489D01*
X180118345Y-36957000D01*
X181577655Y-36957000D01*
X181691729Y-37530489D01*
X182016585Y-38016670D01*
X182331366Y-38227000D01*
X182016585Y-38437330D01*
X181691729Y-38923511D01*
X181577655Y-39497000D01*
X181691729Y-40070489D01*
X182016585Y-40556670D01*
X182502766Y-40881526D01*
X183076255Y-40995600D01*
X183445745Y-40995600D01*
X184019234Y-40881526D01*
X184505415Y-40556670D01*
X184830271Y-40070489D01*
X184944345Y-39497000D01*
X184830271Y-38923511D01*
X184505415Y-38437330D01*
X184190634Y-38227000D01*
X184505415Y-38016670D01*
X184830271Y-37530489D01*
X184944345Y-36957000D01*
X185070155Y-36957000D01*
X185184229Y-37530489D01*
X185509085Y-38016670D01*
X185823866Y-38227000D01*
X185509085Y-38437330D01*
X185184229Y-38923511D01*
X185070155Y-39497000D01*
X185184229Y-40070489D01*
X185509085Y-40556670D01*
X185995266Y-40881526D01*
X186568755Y-40995600D01*
X186938245Y-40995600D01*
X187511734Y-40881526D01*
X187997915Y-40556670D01*
X188322771Y-40070489D01*
X188436845Y-39497000D01*
X188322771Y-38923511D01*
X187997915Y-38437330D01*
X187683134Y-38227000D01*
X187997915Y-38016670D01*
X188322771Y-37530489D01*
X188436845Y-36957000D01*
X188562655Y-36957000D01*
X188676729Y-37530489D01*
X189001585Y-38016670D01*
X189316366Y-38227000D01*
X189001585Y-38437330D01*
X188676729Y-38923511D01*
X188562655Y-39497000D01*
X188676729Y-40070489D01*
X189001585Y-40556670D01*
X189487766Y-40881526D01*
X190061255Y-40995600D01*
X190430745Y-40995600D01*
X191004234Y-40881526D01*
X191490415Y-40556670D01*
X191815271Y-40070489D01*
X191929345Y-39497000D01*
X191815271Y-38923511D01*
X191490415Y-38437330D01*
X191175634Y-38227000D01*
X191490415Y-38016670D01*
X191815271Y-37530489D01*
X191929345Y-36957000D01*
X192055155Y-36957000D01*
X192169229Y-37530489D01*
X192494085Y-38016670D01*
X192808866Y-38227000D01*
X192494085Y-38437330D01*
X192169229Y-38923511D01*
X192055155Y-39497000D01*
X192169229Y-40070489D01*
X192494085Y-40556670D01*
X192980266Y-40881526D01*
X193553755Y-40995600D01*
X193923245Y-40995600D01*
X194496734Y-40881526D01*
X194982915Y-40556670D01*
X195307771Y-40070489D01*
X195421845Y-39497000D01*
X195307771Y-38923511D01*
X194982915Y-38437330D01*
X194668134Y-38227000D01*
X194982915Y-38016670D01*
X195307771Y-37530489D01*
X195421845Y-36957000D01*
X195547655Y-36957000D01*
X195661729Y-37530489D01*
X195986585Y-38016670D01*
X196301366Y-38227000D01*
X195986585Y-38437330D01*
X195661729Y-38923511D01*
X195547655Y-39497000D01*
X195661729Y-40070489D01*
X195986585Y-40556670D01*
X196472766Y-40881526D01*
X197046255Y-40995600D01*
X197415745Y-40995600D01*
X197989234Y-40881526D01*
X198475415Y-40556670D01*
X198800271Y-40070489D01*
X198914345Y-39497000D01*
X198800271Y-38923511D01*
X198475415Y-38437330D01*
X198160634Y-38227000D01*
X198475415Y-38016670D01*
X198800271Y-37530489D01*
X198914345Y-36957000D01*
X199040155Y-36957000D01*
X199154229Y-37530489D01*
X199479085Y-38016670D01*
X199793866Y-38227000D01*
X199479085Y-38437330D01*
X199154229Y-38923511D01*
X199040155Y-39497000D01*
X199154229Y-40070489D01*
X199479085Y-40556670D01*
X199965266Y-40881526D01*
X200538755Y-40995600D01*
X200908245Y-40995600D01*
X201481734Y-40881526D01*
X201967915Y-40556670D01*
X202292771Y-40070489D01*
X202406845Y-39497000D01*
X202292771Y-38923511D01*
X201967915Y-38437330D01*
X201653134Y-38227000D01*
X201967915Y-38016670D01*
X202292771Y-37530489D01*
X202406845Y-36957000D01*
X202292771Y-36383511D01*
X201967915Y-35897330D01*
X201945720Y-35882500D01*
X202099198Y-35818927D01*
X202277827Y-35640299D01*
X202374500Y-35406910D01*
X202374500Y-34702750D01*
X202215750Y-34544000D01*
X200850500Y-34544000D01*
X200850500Y-34564000D01*
X200596500Y-34564000D01*
X200596500Y-34544000D01*
X199231250Y-34544000D01*
X199072500Y-34702750D01*
X199072500Y-35406910D01*
X199169173Y-35640299D01*
X199347802Y-35818927D01*
X199501280Y-35882500D01*
X199479085Y-35897330D01*
X199154229Y-36383511D01*
X199040155Y-36957000D01*
X198914345Y-36957000D01*
X198800271Y-36383511D01*
X198475415Y-35897330D01*
X198453220Y-35882500D01*
X198606698Y-35818927D01*
X198785327Y-35640299D01*
X198882000Y-35406910D01*
X198882000Y-34702750D01*
X198723250Y-34544000D01*
X197358000Y-34544000D01*
X197358000Y-34564000D01*
X197104000Y-34564000D01*
X197104000Y-34544000D01*
X195738750Y-34544000D01*
X195580000Y-34702750D01*
X195580000Y-35406910D01*
X195676673Y-35640299D01*
X195855302Y-35818927D01*
X196008780Y-35882500D01*
X195986585Y-35897330D01*
X195661729Y-36383511D01*
X195547655Y-36957000D01*
X195421845Y-36957000D01*
X195307771Y-36383511D01*
X194982915Y-35897330D01*
X194960720Y-35882500D01*
X195114198Y-35818927D01*
X195292827Y-35640299D01*
X195389500Y-35406910D01*
X195389500Y-34702750D01*
X195230750Y-34544000D01*
X193865500Y-34544000D01*
X193865500Y-34564000D01*
X193611500Y-34564000D01*
X193611500Y-34544000D01*
X192246250Y-34544000D01*
X192087500Y-34702750D01*
X192087500Y-35406910D01*
X192184173Y-35640299D01*
X192362802Y-35818927D01*
X192516280Y-35882500D01*
X192494085Y-35897330D01*
X192169229Y-36383511D01*
X192055155Y-36957000D01*
X191929345Y-36957000D01*
X191815271Y-36383511D01*
X191490415Y-35897330D01*
X191468220Y-35882500D01*
X191621698Y-35818927D01*
X191800327Y-35640299D01*
X191897000Y-35406910D01*
X191897000Y-34702750D01*
X191738250Y-34544000D01*
X190373000Y-34544000D01*
X190373000Y-34564000D01*
X190119000Y-34564000D01*
X190119000Y-34544000D01*
X188753750Y-34544000D01*
X188595000Y-34702750D01*
X188595000Y-35406910D01*
X188691673Y-35640299D01*
X188870302Y-35818927D01*
X189023780Y-35882500D01*
X189001585Y-35897330D01*
X188676729Y-36383511D01*
X188562655Y-36957000D01*
X188436845Y-36957000D01*
X188322771Y-36383511D01*
X187997915Y-35897330D01*
X187975720Y-35882500D01*
X188129198Y-35818927D01*
X188307827Y-35640299D01*
X188404500Y-35406910D01*
X188404500Y-34702750D01*
X188245750Y-34544000D01*
X186880500Y-34544000D01*
X186880500Y-34564000D01*
X186626500Y-34564000D01*
X186626500Y-34544000D01*
X185261250Y-34544000D01*
X185102500Y-34702750D01*
X185102500Y-35406910D01*
X185199173Y-35640299D01*
X185377802Y-35818927D01*
X185531280Y-35882500D01*
X185509085Y-35897330D01*
X185184229Y-36383511D01*
X185070155Y-36957000D01*
X184944345Y-36957000D01*
X184830271Y-36383511D01*
X184505415Y-35897330D01*
X184483220Y-35882500D01*
X184636698Y-35818927D01*
X184815327Y-35640299D01*
X184912000Y-35406910D01*
X184912000Y-34702750D01*
X184753250Y-34544000D01*
X183388000Y-34544000D01*
X183388000Y-34564000D01*
X183134000Y-34564000D01*
X183134000Y-34544000D01*
X181768750Y-34544000D01*
X181610000Y-34702750D01*
X181610000Y-35406910D01*
X181706673Y-35640299D01*
X181885302Y-35818927D01*
X182038780Y-35882500D01*
X182016585Y-35897330D01*
X181691729Y-36383511D01*
X181577655Y-36957000D01*
X180118345Y-36957000D01*
X180004271Y-36383511D01*
X179679415Y-35897330D01*
X179657220Y-35882500D01*
X179810698Y-35818927D01*
X179989327Y-35640299D01*
X180086000Y-35406910D01*
X180086000Y-34702750D01*
X179927250Y-34544000D01*
X178562000Y-34544000D01*
X178562000Y-34564000D01*
X178308000Y-34564000D01*
X178308000Y-34544000D01*
X176942750Y-34544000D01*
X176784000Y-34702750D01*
X176784000Y-35406910D01*
X176880673Y-35640299D01*
X177059302Y-35818927D01*
X177212780Y-35882500D01*
X177190585Y-35897330D01*
X176865729Y-36383511D01*
X176751655Y-36957000D01*
X176625845Y-36957000D01*
X176511771Y-36383511D01*
X176186915Y-35897330D01*
X176164720Y-35882500D01*
X176318198Y-35818927D01*
X176496827Y-35640299D01*
X176593500Y-35406910D01*
X176593500Y-34702750D01*
X176434750Y-34544000D01*
X175069500Y-34544000D01*
X175069500Y-34564000D01*
X174815500Y-34564000D01*
X174815500Y-34544000D01*
X173450250Y-34544000D01*
X173291500Y-34702750D01*
X173291500Y-35406910D01*
X173388173Y-35640299D01*
X173566802Y-35818927D01*
X173720280Y-35882500D01*
X173698085Y-35897330D01*
X173373229Y-36383511D01*
X173259155Y-36957000D01*
X173133345Y-36957000D01*
X173019271Y-36383511D01*
X172694415Y-35897330D01*
X172672220Y-35882500D01*
X172825698Y-35818927D01*
X173004327Y-35640299D01*
X173101000Y-35406910D01*
X173101000Y-34702750D01*
X172942250Y-34544000D01*
X171577000Y-34544000D01*
X171577000Y-34564000D01*
X171323000Y-34564000D01*
X171323000Y-34544000D01*
X169957750Y-34544000D01*
X169799000Y-34702750D01*
X169799000Y-35406910D01*
X169895673Y-35640299D01*
X170074302Y-35818927D01*
X170227780Y-35882500D01*
X170205585Y-35897330D01*
X169880729Y-36383511D01*
X169766655Y-36957000D01*
X169640845Y-36957000D01*
X169526771Y-36383511D01*
X169201915Y-35897330D01*
X169179720Y-35882500D01*
X169333198Y-35818927D01*
X169511827Y-35640299D01*
X169608500Y-35406910D01*
X169608500Y-34702750D01*
X169449750Y-34544000D01*
X168084500Y-34544000D01*
X168084500Y-34564000D01*
X167830500Y-34564000D01*
X167830500Y-34544000D01*
X166465250Y-34544000D01*
X166306500Y-34702750D01*
X166306500Y-35406910D01*
X166403173Y-35640299D01*
X166581802Y-35818927D01*
X166735280Y-35882500D01*
X166713085Y-35897330D01*
X166388229Y-36383511D01*
X166274155Y-36957000D01*
X166148345Y-36957000D01*
X166034271Y-36383511D01*
X165709415Y-35897330D01*
X165687220Y-35882500D01*
X165840698Y-35818927D01*
X166019327Y-35640299D01*
X166116000Y-35406910D01*
X166116000Y-34702750D01*
X165957250Y-34544000D01*
X164592000Y-34544000D01*
X164592000Y-34564000D01*
X164338000Y-34564000D01*
X164338000Y-34544000D01*
X162972750Y-34544000D01*
X162814000Y-34702750D01*
X162814000Y-35406910D01*
X162910673Y-35640299D01*
X163089302Y-35818927D01*
X163242780Y-35882500D01*
X163220585Y-35897330D01*
X162895729Y-36383511D01*
X162781655Y-36957000D01*
X162655845Y-36957000D01*
X162541771Y-36383511D01*
X162216915Y-35897330D01*
X162194720Y-35882500D01*
X162348198Y-35818927D01*
X162526827Y-35640299D01*
X162623500Y-35406910D01*
X162623500Y-34702750D01*
X162464750Y-34544000D01*
X161099500Y-34544000D01*
X161099500Y-34564000D01*
X160845500Y-34564000D01*
X160845500Y-34544000D01*
X159480250Y-34544000D01*
X159321500Y-34702750D01*
X159321500Y-35406910D01*
X159418173Y-35640299D01*
X159596802Y-35818927D01*
X159750280Y-35882500D01*
X159728085Y-35897330D01*
X159403229Y-36383511D01*
X159289155Y-36957000D01*
X159163345Y-36957000D01*
X159049271Y-36383511D01*
X158724415Y-35897330D01*
X158702220Y-35882500D01*
X158855698Y-35818927D01*
X159034327Y-35640299D01*
X159131000Y-35406910D01*
X159131000Y-34702750D01*
X158972250Y-34544000D01*
X157607000Y-34544000D01*
X157607000Y-34564000D01*
X157353000Y-34564000D01*
X157353000Y-34544000D01*
X155987750Y-34544000D01*
X155829000Y-34702750D01*
X155829000Y-35406910D01*
X155925673Y-35640299D01*
X156104302Y-35818927D01*
X156257780Y-35882500D01*
X156235585Y-35897330D01*
X155910729Y-36383511D01*
X155796655Y-36957000D01*
X155670845Y-36957000D01*
X155556771Y-36383511D01*
X155231915Y-35897330D01*
X155209720Y-35882500D01*
X155363198Y-35818927D01*
X155541827Y-35640299D01*
X155638500Y-35406910D01*
X155638500Y-34702750D01*
X155479750Y-34544000D01*
X154114500Y-34544000D01*
X154114500Y-34564000D01*
X153860500Y-34564000D01*
X153860500Y-34544000D01*
X152495250Y-34544000D01*
X152336500Y-34702750D01*
X152336500Y-35406910D01*
X152433173Y-35640299D01*
X152611802Y-35818927D01*
X152765280Y-35882500D01*
X152743085Y-35897330D01*
X152418229Y-36383511D01*
X152304155Y-36957000D01*
X149808000Y-36957000D01*
X149808000Y-33222000D01*
X152421451Y-33222000D01*
X152336500Y-33427090D01*
X152336500Y-33427090D01*
G37*
X152336500Y-33427090D02*
X152336500Y-34131250D01*
X152495250Y-34290000D01*
X153860500Y-34290000D01*
X153860500Y-34270000D01*
X154114500Y-34270000D01*
X154114500Y-34290000D01*
X155479750Y-34290000D01*
X155638500Y-34131250D01*
X155638500Y-33427090D01*
X155553549Y-33222000D01*
X155913951Y-33222000D01*
X155829000Y-33427090D01*
X155829000Y-34131250D01*
X155987750Y-34290000D01*
X157353000Y-34290000D01*
X157353000Y-34270000D01*
X157607000Y-34270000D01*
X157607000Y-34290000D01*
X158972250Y-34290000D01*
X159131000Y-34131250D01*
X159131000Y-33427090D01*
X159046049Y-33222000D01*
X159406451Y-33222000D01*
X159321500Y-33427090D01*
X159321500Y-34131250D01*
X159480250Y-34290000D01*
X160845500Y-34290000D01*
X160845500Y-34270000D01*
X161099500Y-34270000D01*
X161099500Y-34290000D01*
X162464750Y-34290000D01*
X162623500Y-34131250D01*
X162623500Y-33427090D01*
X162538549Y-33222000D01*
X162898951Y-33222000D01*
X162814000Y-33427090D01*
X162814000Y-34131250D01*
X162972750Y-34290000D01*
X164338000Y-34290000D01*
X164338000Y-34270000D01*
X164592000Y-34270000D01*
X164592000Y-34290000D01*
X165957250Y-34290000D01*
X166116000Y-34131250D01*
X166116000Y-33427090D01*
X166031049Y-33222000D01*
X166391451Y-33222000D01*
X166306500Y-33427090D01*
X166306500Y-34131250D01*
X166465250Y-34290000D01*
X167830500Y-34290000D01*
X167830500Y-34270000D01*
X168084500Y-34270000D01*
X168084500Y-34290000D01*
X169449750Y-34290000D01*
X169608500Y-34131250D01*
X169608500Y-33427090D01*
X169523549Y-33222000D01*
X169883951Y-33222000D01*
X169799000Y-33427090D01*
X169799000Y-34131250D01*
X169957750Y-34290000D01*
X171323000Y-34290000D01*
X171323000Y-34270000D01*
X171577000Y-34270000D01*
X171577000Y-34290000D01*
X172942250Y-34290000D01*
X173101000Y-34131250D01*
X173101000Y-33427090D01*
X173016049Y-33222000D01*
X173376451Y-33222000D01*
X173291500Y-33427090D01*
X173291500Y-34131250D01*
X173450250Y-34290000D01*
X174815500Y-34290000D01*
X174815500Y-34270000D01*
X175069500Y-34270000D01*
X175069500Y-34290000D01*
X176434750Y-34290000D01*
X176593500Y-34131250D01*
X176593500Y-33427090D01*
X176508549Y-33222000D01*
X176868951Y-33222000D01*
X176784000Y-33427090D01*
X176784000Y-34131250D01*
X176942750Y-34290000D01*
X178308000Y-34290000D01*
X178308000Y-34270000D01*
X178562000Y-34270000D01*
X178562000Y-34290000D01*
X179927250Y-34290000D01*
X180086000Y-34131250D01*
X180086000Y-33427090D01*
X180001049Y-33222000D01*
X181694951Y-33222000D01*
X181610000Y-33427090D01*
X181610000Y-34131250D01*
X181768750Y-34290000D01*
X183134000Y-34290000D01*
X183134000Y-34270000D01*
X183388000Y-34270000D01*
X183388000Y-34290000D01*
X184753250Y-34290000D01*
X184912000Y-34131250D01*
X184912000Y-33427090D01*
X184827049Y-33222000D01*
X185187451Y-33222000D01*
X185102500Y-33427090D01*
X185102500Y-34131250D01*
X185261250Y-34290000D01*
X186626500Y-34290000D01*
X186626500Y-34270000D01*
X186880500Y-34270000D01*
X186880500Y-34290000D01*
X188245750Y-34290000D01*
X188404500Y-34131250D01*
X188404500Y-33427090D01*
X188319549Y-33222000D01*
X188679951Y-33222000D01*
X188595000Y-33427090D01*
X188595000Y-34131250D01*
X188753750Y-34290000D01*
X190119000Y-34290000D01*
X190119000Y-34270000D01*
X190373000Y-34270000D01*
X190373000Y-34290000D01*
X191738250Y-34290000D01*
X191897000Y-34131250D01*
X191897000Y-33427090D01*
X191812049Y-33222000D01*
X192172451Y-33222000D01*
X192087500Y-33427090D01*
X192087500Y-34131250D01*
X192246250Y-34290000D01*
X193611500Y-34290000D01*
X193611500Y-34270000D01*
X193865500Y-34270000D01*
X193865500Y-34290000D01*
X195230750Y-34290000D01*
X195389500Y-34131250D01*
X195389500Y-33427090D01*
X195304549Y-33222000D01*
X195664951Y-33222000D01*
X195580000Y-33427090D01*
X195580000Y-34131250D01*
X195738750Y-34290000D01*
X197104000Y-34290000D01*
X197104000Y-34270000D01*
X197358000Y-34270000D01*
X197358000Y-34290000D01*
X198723250Y-34290000D01*
X198882000Y-34131250D01*
X198882000Y-33427090D01*
X198797049Y-33222000D01*
X199157451Y-33222000D01*
X199072500Y-33427090D01*
X199072500Y-34131250D01*
X199231250Y-34290000D01*
X200596500Y-34290000D01*
X200596500Y-34270000D01*
X200850500Y-34270000D01*
X200850500Y-34290000D01*
X202215750Y-34290000D01*
X202374500Y-34131250D01*
X202374500Y-33427090D01*
X202289549Y-33222000D01*
X202649951Y-33222000D01*
X202565000Y-33427090D01*
X202565000Y-34131250D01*
X202723750Y-34290000D01*
X204089000Y-34290000D01*
X204089000Y-34270000D01*
X204343000Y-34270000D01*
X204343000Y-34290000D01*
X204363000Y-34290000D01*
X204363000Y-34544000D01*
X204343000Y-34544000D01*
X204343000Y-34564000D01*
X204089000Y-34564000D01*
X204089000Y-34544000D01*
X202723750Y-34544000D01*
X202565000Y-34702750D01*
X202565000Y-35406910D01*
X202661673Y-35640299D01*
X202840302Y-35818927D01*
X202993780Y-35882500D01*
X202971585Y-35897330D01*
X202646729Y-36383511D01*
X202532655Y-36957000D01*
X202646729Y-37530489D01*
X202971585Y-38016670D01*
X203286366Y-38227000D01*
X202971585Y-38437330D01*
X202646729Y-38923511D01*
X202532655Y-39497000D01*
X202646729Y-40070489D01*
X202971585Y-40556670D01*
X203457766Y-40881526D01*
X204031255Y-40995600D01*
X204400745Y-40995600D01*
X204974234Y-40881526D01*
X205460415Y-40556670D01*
X205772905Y-40088996D01*
X205745996Y-44704040D01*
X204930178Y-43888222D01*
X204602510Y-43669282D01*
X204216000Y-43592400D01*
X191719200Y-43592400D01*
X191332689Y-43669282D01*
X191005022Y-43888222D01*
X189481022Y-45412222D01*
X189262082Y-45739890D01*
X189185200Y-46126400D01*
X189262082Y-46512910D01*
X189481022Y-46840578D01*
X189808690Y-47059518D01*
X190195200Y-47136400D01*
X190581710Y-47059518D01*
X190909378Y-46840578D01*
X192137556Y-45612400D01*
X203797644Y-45612400D01*
X204577600Y-46392356D01*
X204577600Y-51367613D01*
X204400482Y-51632690D01*
X204383585Y-51717636D01*
X203697020Y-52404200D01*
X199514361Y-52404200D01*
X199271999Y-52303562D01*
X198900033Y-52303238D01*
X198556257Y-52445283D01*
X198293008Y-52708073D01*
X198150362Y-53051601D01*
X198150038Y-53423567D01*
X198292083Y-53767343D01*
X198554873Y-54030592D01*
X198898401Y-54173238D01*
X199132183Y-54173442D01*
X199136000Y-54174201D01*
X199136005Y-54174200D01*
X204063595Y-54174200D01*
X204063600Y-54174201D01*
X204346084Y-54118010D01*
X204402275Y-54106833D01*
X204689390Y-53914990D01*
X204689391Y-53914989D01*
X205635164Y-52969215D01*
X205720110Y-52952318D01*
X205981560Y-52777623D01*
X205981560Y-54330600D01*
X206025838Y-54565917D01*
X206164910Y-54782041D01*
X206377110Y-54927031D01*
X206418439Y-54935400D01*
X206400585Y-54947330D01*
X206075729Y-55433511D01*
X205961655Y-56007000D01*
X206075729Y-56580489D01*
X206400585Y-57066670D01*
X206715366Y-57277000D01*
X206400585Y-57487330D01*
X206183647Y-57812000D01*
X205486000Y-57812000D01*
X205204728Y-57867949D01*
X204966277Y-58027276D01*
X202905145Y-60088408D01*
X202824333Y-60088338D01*
X202480557Y-60230383D01*
X202217308Y-60493173D01*
X202074662Y-60836701D01*
X202074338Y-61208667D01*
X202216383Y-61552443D01*
X202479173Y-61815692D01*
X202822701Y-61958338D01*
X203194667Y-61958662D01*
X203538443Y-61816617D01*
X203801692Y-61553827D01*
X203846455Y-61446026D01*
X206037642Y-61446026D01*
X206040291Y-61461791D01*
X206294268Y-61989036D01*
X206730680Y-62378954D01*
X207283087Y-62572184D01*
X207518000Y-62427924D01*
X207518000Y-61214000D01*
X207772000Y-61214000D01*
X207772000Y-62427924D01*
X208006913Y-62572184D01*
X208559320Y-62378954D01*
X208995732Y-61989036D01*
X209249709Y-61461791D01*
X209252358Y-61446026D01*
X209131217Y-61214000D01*
X207772000Y-61214000D01*
X207518000Y-61214000D01*
X206158783Y-61214000D01*
X206037642Y-61446026D01*
X203846455Y-61446026D01*
X203944338Y-61210299D01*
X203944410Y-61128037D01*
X205790447Y-59282000D01*
X206183647Y-59282000D01*
X206400585Y-59606670D01*
X206710069Y-59813461D01*
X206294268Y-60184964D01*
X206040291Y-60712209D01*
X206037642Y-60727974D01*
X206158783Y-60960000D01*
X207518000Y-60960000D01*
X207518000Y-60940000D01*
X207772000Y-60940000D01*
X207772000Y-60960000D01*
X209131217Y-60960000D01*
X209252358Y-60727974D01*
X209249709Y-60712209D01*
X208995732Y-60184964D01*
X208579931Y-59813461D01*
X208889415Y-59606670D01*
X209214271Y-59120489D01*
X209328345Y-58547000D01*
X209214271Y-57973511D01*
X208889415Y-57487330D01*
X208574634Y-57277000D01*
X208889415Y-57066670D01*
X209214271Y-56580489D01*
X209328345Y-56007000D01*
X209214271Y-55433511D01*
X208889415Y-54947330D01*
X208875087Y-54937757D01*
X208896317Y-54933762D01*
X209112441Y-54794690D01*
X209257431Y-54582490D01*
X209308440Y-54330600D01*
X209308440Y-52603400D01*
X209264162Y-52368083D01*
X209125090Y-52151959D01*
X208912890Y-52006969D01*
X208661000Y-51955960D01*
X206629000Y-51955960D01*
X206556959Y-51969515D01*
X206597600Y-51765200D01*
X206597600Y-50211309D01*
X210591239Y-50166437D01*
X210540759Y-90398600D01*
X206102579Y-90398600D01*
X206402834Y-90098345D01*
X206522943Y-90048717D01*
X206786192Y-89785927D01*
X206928838Y-89442399D01*
X206929162Y-89070433D01*
X206787117Y-88726657D01*
X206524327Y-88463408D01*
X206180799Y-88320762D01*
X205808833Y-88320438D01*
X205465057Y-88462483D01*
X205201808Y-88725273D01*
X205151434Y-88846587D01*
X203849420Y-90148600D01*
X194273320Y-90148600D01*
X194292338Y-90102799D01*
X194292662Y-89730833D01*
X194150617Y-89387057D01*
X193887827Y-89123808D01*
X193750000Y-89066577D01*
X193750000Y-87798527D01*
X196792032Y-87798527D01*
X197040179Y-88327990D01*
X197472053Y-88722188D01*
X197887974Y-88894458D01*
X198120000Y-88773317D01*
X198120000Y-87566500D01*
X196912531Y-87566500D01*
X196792032Y-87798527D01*
X193750000Y-87798527D01*
X193750000Y-83625841D01*
X193869201Y-83675338D01*
X194241167Y-83675662D01*
X194418233Y-83602500D01*
X197498580Y-83602500D01*
X197187330Y-83810471D01*
X196862474Y-84296652D01*
X196748400Y-84870141D01*
X196748400Y-84928859D01*
X196862474Y-85502348D01*
X197187330Y-85988529D01*
X197458161Y-86169492D01*
X197040179Y-86551010D01*
X196792032Y-87080473D01*
X196912531Y-87312500D01*
X198120000Y-87312500D01*
X198120000Y-87292500D01*
X198374000Y-87292500D01*
X198374000Y-87312500D01*
X198394000Y-87312500D01*
X198394000Y-87566500D01*
X198374000Y-87566500D01*
X198374000Y-88773317D01*
X198606026Y-88894458D01*
X199021947Y-88722188D01*
X199453821Y-88327990D01*
X199511336Y-88205272D01*
X199727330Y-88528529D01*
X200213511Y-88853385D01*
X200787000Y-88967459D01*
X201360489Y-88853385D01*
X201846670Y-88528529D01*
X202057000Y-88213748D01*
X202267330Y-88528529D01*
X202753511Y-88853385D01*
X203327000Y-88967459D01*
X203900489Y-88853385D01*
X204386670Y-88528529D01*
X204711526Y-88042348D01*
X204825600Y-87468859D01*
X204825600Y-87410141D01*
X204711526Y-86836652D01*
X204400426Y-86371058D01*
X204425917Y-86366262D01*
X204642041Y-86227190D01*
X204787031Y-86014990D01*
X204838040Y-85763100D01*
X204838040Y-84035900D01*
X204793762Y-83800583D01*
X204654690Y-83584459D01*
X204442490Y-83439469D01*
X204190600Y-83388460D01*
X204123082Y-83388460D01*
X204261838Y-83054299D01*
X204262162Y-82682333D01*
X204120117Y-82338557D01*
X203857327Y-82075308D01*
X203513799Y-81932662D01*
X203141833Y-81932338D01*
X202798057Y-82074383D01*
X202739838Y-82132500D01*
X201021354Y-82132500D01*
X201086838Y-81974799D01*
X201087162Y-81602833D01*
X200945117Y-81259057D01*
X200682327Y-80995808D01*
X200338799Y-80853162D01*
X199966833Y-80852838D01*
X199636085Y-80989500D01*
X195976698Y-80989500D01*
X195792827Y-80805308D01*
X195449299Y-80662662D01*
X195077333Y-80662338D01*
X194817156Y-80769841D01*
X194586327Y-80538608D01*
X194242799Y-80395962D01*
X193870833Y-80395638D01*
X193750000Y-80445565D01*
X193750000Y-79184505D01*
X193750001Y-79184500D01*
X193695954Y-78912795D01*
X193662868Y-78863278D01*
X193542046Y-78682454D01*
X193542043Y-78682452D01*
X188873592Y-74014000D01*
X194868734Y-74014000D01*
X194838608Y-74044073D01*
X194695962Y-74387601D01*
X194695890Y-74469863D01*
X194603077Y-74562677D01*
X194443749Y-74801128D01*
X194387800Y-75082400D01*
X194387800Y-75393551D01*
X194355681Y-75441621D01*
X194229008Y-75568073D01*
X194086362Y-75911601D01*
X194086038Y-76283567D01*
X194228083Y-76627343D01*
X194490873Y-76890592D01*
X194834401Y-77033238D01*
X195206367Y-77033562D01*
X195550143Y-76891517D01*
X195813392Y-76628727D01*
X195956038Y-76285199D01*
X195956362Y-75913233D01*
X195857800Y-75674694D01*
X195857800Y-75492277D01*
X196159743Y-75367517D01*
X196422992Y-75104727D01*
X196565638Y-74761199D01*
X196565639Y-74760453D01*
X199788373Y-77678334D01*
X199788338Y-77718667D01*
X199930383Y-78062443D01*
X200193173Y-78325692D01*
X200536701Y-78468338D01*
X200908667Y-78468662D01*
X201252443Y-78326617D01*
X201515692Y-78063827D01*
X201658338Y-77720299D01*
X201658662Y-77348333D01*
X201516617Y-77004557D01*
X201253827Y-76741308D01*
X200910299Y-76598662D01*
X200785966Y-76598554D01*
X199898520Y-75795056D01*
X199918943Y-75786617D01*
X200182192Y-75523827D01*
X200253322Y-75352526D01*
X203713542Y-75352526D01*
X203885812Y-75768447D01*
X204280010Y-76200321D01*
X204809473Y-76448468D01*
X205041500Y-76327969D01*
X205041500Y-75120500D01*
X203834683Y-75120500D01*
X203713542Y-75352526D01*
X200253322Y-75352526D01*
X200324838Y-75180299D01*
X200324910Y-75098037D01*
X202234447Y-73188500D01*
X203862533Y-73188500D01*
X204079471Y-73513170D01*
X204402728Y-73729164D01*
X204280010Y-73786679D01*
X203885812Y-74218553D01*
X203713542Y-74634474D01*
X203834683Y-74866500D01*
X205041500Y-74866500D01*
X205041500Y-74846500D01*
X205295500Y-74846500D01*
X205295500Y-74866500D01*
X205315500Y-74866500D01*
X205315500Y-75120500D01*
X205295500Y-75120500D01*
X205295500Y-76327969D01*
X205527527Y-76448468D01*
X206056990Y-76200321D01*
X206438508Y-75782339D01*
X206619471Y-76053170D01*
X207105652Y-76378026D01*
X207679141Y-76492100D01*
X207737859Y-76492100D01*
X208311348Y-76378026D01*
X208797529Y-76053170D01*
X209122385Y-75566989D01*
X209236459Y-74993500D01*
X209122385Y-74420011D01*
X208797529Y-73933830D01*
X208482748Y-73723500D01*
X208797529Y-73513170D01*
X209122385Y-73026989D01*
X209236459Y-72453500D01*
X209122385Y-71880011D01*
X208797529Y-71393830D01*
X208482748Y-71183500D01*
X208797529Y-70973170D01*
X209122385Y-70486989D01*
X209222841Y-69981961D01*
X209833401Y-69371401D01*
X209998148Y-69124839D01*
X210056000Y-68834000D01*
X210056000Y-66040000D01*
X209998148Y-65749161D01*
X209998148Y-65749160D01*
X209833401Y-65502599D01*
X208880901Y-64550099D01*
X208634339Y-64385352D01*
X208343500Y-64327500D01*
X203136500Y-64327500D01*
X202845661Y-64385352D01*
X202599099Y-64550099D01*
X200821099Y-66328099D01*
X200656352Y-66574661D01*
X200598500Y-66865500D01*
X200598500Y-67630198D01*
X199710198Y-68518500D01*
X195308554Y-68518500D01*
X195308662Y-68394833D01*
X195166617Y-68051057D01*
X194903827Y-67787808D01*
X194560299Y-67645162D01*
X194478037Y-67645090D01*
X189654514Y-62821567D01*
X191800038Y-62821567D01*
X191942083Y-63165343D01*
X192204873Y-63428592D01*
X192548401Y-63571238D01*
X192920367Y-63571562D01*
X193264143Y-63429517D01*
X193476491Y-63217539D01*
X193476438Y-63278767D01*
X193618483Y-63622543D01*
X193881273Y-63885792D01*
X194224801Y-64028438D01*
X194596767Y-64028762D01*
X194940543Y-63886717D01*
X195203792Y-63623927D01*
X195346438Y-63280399D01*
X195346510Y-63198136D01*
X198513613Y-60031034D01*
X198648943Y-59975117D01*
X198912192Y-59712327D01*
X199054838Y-59368799D01*
X199054910Y-59286536D01*
X202691647Y-55649800D01*
X204542981Y-55649800D01*
X204600073Y-55706992D01*
X204943601Y-55849638D01*
X205315567Y-55849962D01*
X205659343Y-55707917D01*
X205922592Y-55445127D01*
X206065238Y-55101599D01*
X206065562Y-54729633D01*
X205923517Y-54385857D01*
X205660727Y-54122608D01*
X205317199Y-53979962D01*
X204945233Y-53979638D01*
X204601457Y-54121683D01*
X204543238Y-54179800D01*
X202387200Y-54179800D01*
X202105928Y-54235749D01*
X201867476Y-54395077D01*
X198015646Y-58246908D01*
X197934833Y-58246838D01*
X197591057Y-58388883D01*
X197327808Y-58651673D01*
X197185162Y-58995201D01*
X197184913Y-59280840D01*
X196562617Y-59903137D01*
X196423917Y-59567457D01*
X196161127Y-59304208D01*
X195817599Y-59161562D01*
X195445633Y-59161238D01*
X195101857Y-59303283D01*
X195017291Y-59387702D01*
X194984360Y-59394252D01*
X194737799Y-59558999D01*
X192595520Y-61701278D01*
X192550033Y-61701238D01*
X192206257Y-61843283D01*
X191943008Y-62106073D01*
X191800362Y-62449601D01*
X191800038Y-62821567D01*
X189654514Y-62821567D01*
X189457000Y-62624054D01*
X189457000Y-57195867D01*
X189796167Y-57196162D01*
X190139943Y-57054117D01*
X190403192Y-56791327D01*
X190545838Y-56447799D01*
X190546162Y-56075833D01*
X190473000Y-55898767D01*
X190473000Y-55290922D01*
X190748667Y-55291162D01*
X191092443Y-55149117D01*
X191355692Y-54886327D01*
X191498338Y-54542799D01*
X191498440Y-54425152D01*
X198054045Y-47869547D01*
X198187201Y-47924838D01*
X198559167Y-47925162D01*
X198902943Y-47783117D01*
X199166192Y-47520327D01*
X199308838Y-47176799D01*
X199309162Y-46804833D01*
X199167117Y-46461057D01*
X198904327Y-46197808D01*
X198560799Y-46055162D01*
X198188833Y-46054838D01*
X197845057Y-46196883D01*
X197720062Y-46321660D01*
X197657795Y-46334046D01*
X197427454Y-46487954D01*
X190494469Y-53420939D01*
X190473000Y-53420920D01*
X190473000Y-53228919D01*
X190530192Y-53171827D01*
X190672838Y-52828299D01*
X190673162Y-52456333D01*
X190531117Y-52112557D01*
X190268327Y-51849308D01*
X189924799Y-51706662D01*
X189720541Y-51706484D01*
X189720662Y-51567333D01*
X189578617Y-51223557D01*
X189315827Y-50960308D01*
X188972299Y-50817662D01*
X188600333Y-50817338D01*
X188256557Y-50959383D01*
X187993308Y-51222173D01*
X187850662Y-51565701D01*
X187850338Y-51937667D01*
X187987000Y-52268415D01*
X187987000Y-62928500D01*
X188034387Y-63166727D01*
X188042949Y-63209772D01*
X188202277Y-63448223D01*
X193272553Y-68518500D01*
X191324922Y-68518500D01*
X191495392Y-68348327D01*
X191638038Y-68004799D01*
X191638362Y-67632833D01*
X191496317Y-67289057D01*
X191233527Y-67025808D01*
X190889999Y-66883162D01*
X190518033Y-66882838D01*
X190174257Y-67024883D01*
X190065150Y-67133800D01*
X189230000Y-67133800D01*
X188972603Y-67185000D01*
X188948728Y-67189749D01*
X188710276Y-67349077D01*
X187389477Y-68669877D01*
X187230149Y-68908328D01*
X187174200Y-69189600D01*
X187174200Y-70053200D01*
X187187696Y-70121049D01*
X185271531Y-68204884D01*
X185644845Y-68454325D01*
X186276655Y-68580000D01*
X186341345Y-68580000D01*
X186973155Y-68454325D01*
X187508778Y-68096433D01*
X187866670Y-67560810D01*
X187992345Y-66929000D01*
X187866670Y-66297190D01*
X187639501Y-65957208D01*
X187776441Y-65869090D01*
X187921431Y-65656890D01*
X187972440Y-65405000D01*
X187972440Y-63373000D01*
X187928162Y-63137683D01*
X187789090Y-62921559D01*
X187576890Y-62776569D01*
X187325000Y-62725560D01*
X185293000Y-62725560D01*
X185057683Y-62769838D01*
X184841559Y-62908910D01*
X184696569Y-63121110D01*
X184645560Y-63373000D01*
X184645560Y-65405000D01*
X184689838Y-65640317D01*
X184828910Y-65856441D01*
X184977837Y-65958198D01*
X184751330Y-66297190D01*
X184625655Y-66929000D01*
X184751330Y-67560810D01*
X185000771Y-67934124D01*
X183208600Y-66141954D01*
X183208600Y-63957200D01*
X183152651Y-63675928D01*
X183082916Y-63571562D01*
X182993323Y-63437476D01*
X181171684Y-61615837D01*
X181356000Y-61652500D01*
X181742510Y-61575618D01*
X182070178Y-61356678D01*
X184229178Y-59197678D01*
X184448118Y-58870010D01*
X184525000Y-58483500D01*
X184525000Y-48895000D01*
X184448118Y-48508490D01*
X184229178Y-48180822D01*
X183901510Y-47961882D01*
X183515000Y-47885000D01*
X183128490Y-47961882D01*
X182800822Y-48180822D01*
X182581882Y-48508490D01*
X182505000Y-48895000D01*
X182505000Y-58065144D01*
X180641822Y-59928322D01*
X180422882Y-60255990D01*
X180346000Y-60642500D01*
X180382663Y-60826816D01*
X173503205Y-53947359D01*
X173411517Y-53725457D01*
X173148727Y-53462208D01*
X172805199Y-53319562D01*
X172433233Y-53319238D01*
X172089457Y-53461283D01*
X171826208Y-53724073D01*
X171683562Y-54067601D01*
X171683238Y-54439567D01*
X171825283Y-54783343D01*
X172088073Y-55046592D01*
X172431601Y-55189238D01*
X172666396Y-55189443D01*
X181738600Y-64261647D01*
X181738600Y-66446400D01*
X181768084Y-66594623D01*
X181794549Y-66727672D01*
X181953877Y-66966123D01*
X186907500Y-71919747D01*
X186907500Y-72691581D01*
X186850308Y-72748673D01*
X186833765Y-72788514D01*
X186631833Y-72788338D01*
X186288057Y-72930383D01*
X186024808Y-73193173D01*
X185882162Y-73536701D01*
X185881838Y-73908667D01*
X185970000Y-74122036D01*
X185742833Y-74121838D01*
X185399057Y-74263883D01*
X185135808Y-74526673D01*
X184993162Y-74870201D01*
X184992838Y-75242167D01*
X185134883Y-75585943D01*
X185345000Y-75796427D01*
X185345000Y-82865191D01*
X183114548Y-85551872D01*
X183075833Y-85551838D01*
X182732057Y-85693883D01*
X182468808Y-85956673D01*
X182326162Y-86300201D01*
X182325838Y-86672167D01*
X182467883Y-87015943D01*
X182685212Y-87233651D01*
X182201330Y-87556971D01*
X181991000Y-87871752D01*
X181780670Y-87556971D01*
X181294489Y-87232115D01*
X180721000Y-87118041D01*
X180147511Y-87232115D01*
X179661330Y-87556971D01*
X179451000Y-87871752D01*
X179240670Y-87556971D01*
X178754489Y-87232115D01*
X178181000Y-87118041D01*
X177607511Y-87232115D01*
X177121330Y-87556971D01*
X176911000Y-87871752D01*
X176700670Y-87556971D01*
X176214489Y-87232115D01*
X175641000Y-87118041D01*
X175067511Y-87232115D01*
X174581330Y-87556971D01*
X174371000Y-87871752D01*
X174160670Y-87556971D01*
X173674489Y-87232115D01*
X173101000Y-87118041D01*
X172527511Y-87232115D01*
X172041330Y-87556971D01*
X171716474Y-88043152D01*
X171602400Y-88616641D01*
X171602400Y-88675359D01*
X171716474Y-89248848D01*
X172031526Y-89720356D01*
X171877701Y-89784073D01*
X171699073Y-89962702D01*
X171602400Y-90196091D01*
X171602400Y-90900250D01*
X171761150Y-91059000D01*
X172974000Y-91059000D01*
X172974000Y-91039000D01*
X173228000Y-91039000D01*
X173228000Y-91059000D01*
X175514000Y-91059000D01*
X175514000Y-91039000D01*
X175768000Y-91039000D01*
X175768000Y-91059000D01*
X178054000Y-91059000D01*
X178054000Y-91039000D01*
X178308000Y-91039000D01*
X178308000Y-91059000D01*
X180594000Y-91059000D01*
X180594000Y-91039000D01*
X180848000Y-91039000D01*
X180848000Y-91059000D01*
X183134000Y-91059000D01*
X183134000Y-91039000D01*
X183388000Y-91039000D01*
X183388000Y-91059000D01*
X184595469Y-91059000D01*
X184715968Y-90826973D01*
X184467821Y-90297510D01*
X184049839Y-89915992D01*
X184320670Y-89735029D01*
X184645526Y-89248848D01*
X184759600Y-88675359D01*
X184759600Y-88616641D01*
X184645526Y-88043152D01*
X184320670Y-87556971D01*
X183836609Y-87233532D01*
X184053192Y-87017327D01*
X184195838Y-86673799D01*
X184196014Y-86472270D01*
X186601281Y-83575017D01*
X186651910Y-83481571D01*
X186710954Y-83393205D01*
X186717000Y-83362810D01*
X186717000Y-91567000D01*
X186772949Y-91848272D01*
X186932277Y-92086723D01*
X187606000Y-92760447D01*
X187606000Y-92772647D01*
X187281330Y-92989585D01*
X186956474Y-93475766D01*
X186842400Y-94049255D01*
X186842400Y-94418745D01*
X186956474Y-94992234D01*
X187248312Y-95429000D01*
X184353688Y-95429000D01*
X184645526Y-94992234D01*
X184759600Y-94418745D01*
X184759600Y-94049255D01*
X184645526Y-93475766D01*
X184320670Y-92989585D01*
X183834489Y-92664729D01*
X183650834Y-92628198D01*
X184035947Y-92468688D01*
X184467821Y-92074490D01*
X184715968Y-91545027D01*
X184595469Y-91313000D01*
X183388000Y-91313000D01*
X183388000Y-91333000D01*
X183134000Y-91333000D01*
X183134000Y-91313000D01*
X180848000Y-91313000D01*
X180848000Y-91333000D01*
X180594000Y-91333000D01*
X180594000Y-91313000D01*
X178308000Y-91313000D01*
X178308000Y-91333000D01*
X178054000Y-91333000D01*
X178054000Y-91313000D01*
X175768000Y-91313000D01*
X175768000Y-91333000D01*
X175514000Y-91333000D01*
X175514000Y-91313000D01*
X173228000Y-91313000D01*
X173228000Y-91333000D01*
X172974000Y-91333000D01*
X172974000Y-91313000D01*
X171761150Y-91313000D01*
X171602400Y-91471750D01*
X171602400Y-92175909D01*
X171699073Y-92409298D01*
X171877701Y-92587927D01*
X171978816Y-92629810D01*
X171785959Y-92753910D01*
X171640969Y-92966110D01*
X171589960Y-93218000D01*
X171589960Y-95250000D01*
X171623641Y-95429000D01*
X158624827Y-95429000D01*
X158673793Y-90679309D01*
X158664297Y-90629799D01*
X158636287Y-90587883D01*
X158594176Y-90560168D01*
X158549003Y-90551019D01*
X150185115Y-90405882D01*
X150141898Y-89411899D01*
X150151351Y-89403473D01*
X150181577Y-89363126D01*
X150193845Y-89308657D01*
X150193577Y-86418167D01*
X174007338Y-86418167D01*
X174149383Y-86761943D01*
X174412173Y-87025192D01*
X174755701Y-87167838D01*
X175127667Y-87168162D01*
X175471443Y-87026117D01*
X175554705Y-86943000D01*
X178140014Y-86943000D01*
X178158673Y-86961692D01*
X178502201Y-87104338D01*
X178874167Y-87104662D01*
X179217943Y-86962617D01*
X179481192Y-86699827D01*
X179623838Y-86356299D01*
X179624162Y-85984333D01*
X179482117Y-85640557D01*
X179219327Y-85377308D01*
X178875799Y-85234662D01*
X178503833Y-85234338D01*
X178160057Y-85376383D01*
X178013184Y-85523000D01*
X175554876Y-85523000D01*
X175472827Y-85440808D01*
X175129299Y-85298162D01*
X174757333Y-85297838D01*
X174413557Y-85439883D01*
X174150308Y-85702673D01*
X174007662Y-86046201D01*
X174007338Y-86418167D01*
X150193577Y-86418167D01*
X150192496Y-74767440D01*
X155791160Y-74767440D01*
X155791160Y-78267560D01*
X155835438Y-78502877D01*
X155974510Y-78719001D01*
X156186710Y-78863991D01*
X156438600Y-78915000D01*
X159122645Y-78915000D01*
X158986899Y-79002350D01*
X158841909Y-79214550D01*
X158790900Y-79466440D01*
X158790900Y-82966560D01*
X158835178Y-83201877D01*
X158974250Y-83418001D01*
X159186450Y-83562991D01*
X159438340Y-83614000D01*
X162938460Y-83614000D01*
X163173777Y-83569722D01*
X163389901Y-83430650D01*
X163534891Y-83218450D01*
X163585900Y-82966560D01*
X163585900Y-79466440D01*
X163541622Y-79231123D01*
X163402550Y-79014999D01*
X163237990Y-78902560D01*
X163902390Y-78902560D01*
X164061140Y-78743810D01*
X164061140Y-76644500D01*
X164315140Y-76644500D01*
X164315140Y-78743810D01*
X164473890Y-78902560D01*
X166064509Y-78902560D01*
X166297898Y-78805887D01*
X166476527Y-78627259D01*
X166573200Y-78393870D01*
X166573200Y-76803250D01*
X166414450Y-76644500D01*
X164315140Y-76644500D01*
X164061140Y-76644500D01*
X161961830Y-76644500D01*
X161803080Y-76803250D01*
X161803080Y-78393870D01*
X161899753Y-78627259D01*
X162078382Y-78805887D01*
X162110040Y-78819000D01*
X160254415Y-78819000D01*
X160390161Y-78731650D01*
X160535151Y-78519450D01*
X160586160Y-78267560D01*
X160586160Y-74767440D01*
X160562394Y-74641130D01*
X161803080Y-74641130D01*
X161803080Y-76231750D01*
X161961830Y-76390500D01*
X164061140Y-76390500D01*
X164061140Y-74291190D01*
X164315140Y-74291190D01*
X164315140Y-76390500D01*
X166414450Y-76390500D01*
X166573200Y-76231750D01*
X166573200Y-74641130D01*
X166476527Y-74407741D01*
X166297898Y-74229113D01*
X166064509Y-74132440D01*
X164473890Y-74132440D01*
X164315140Y-74291190D01*
X164061140Y-74291190D01*
X163902390Y-74132440D01*
X162311771Y-74132440D01*
X162078382Y-74229113D01*
X161899753Y-74407741D01*
X161803080Y-74641130D01*
X160562394Y-74641130D01*
X160541882Y-74532123D01*
X160402810Y-74315999D01*
X160190610Y-74171009D01*
X159938720Y-74120000D01*
X156438600Y-74120000D01*
X156203283Y-74164278D01*
X155987159Y-74303350D01*
X155842169Y-74515550D01*
X155791160Y-74767440D01*
X150192496Y-74767440D01*
X150191323Y-62130940D01*
X156172160Y-62130940D01*
X156172160Y-65631060D01*
X156216438Y-65866377D01*
X156355510Y-66082501D01*
X156567710Y-66227491D01*
X156819600Y-66278500D01*
X159503645Y-66278500D01*
X159367899Y-66365850D01*
X159222909Y-66578050D01*
X159171900Y-66829940D01*
X159171900Y-70330060D01*
X159216178Y-70565377D01*
X159355250Y-70781501D01*
X159567450Y-70926491D01*
X159819340Y-70977500D01*
X163319460Y-70977500D01*
X163554777Y-70933222D01*
X163770901Y-70794150D01*
X163915891Y-70581950D01*
X163966900Y-70330060D01*
X163966900Y-66829940D01*
X163922622Y-66594623D01*
X163783550Y-66378499D01*
X163618990Y-66266060D01*
X164283390Y-66266060D01*
X164442140Y-66107310D01*
X164442140Y-64008000D01*
X164696140Y-64008000D01*
X164696140Y-66107310D01*
X164854890Y-66266060D01*
X166445509Y-66266060D01*
X166678898Y-66169387D01*
X166857527Y-65990759D01*
X166954200Y-65757370D01*
X166954200Y-64166750D01*
X166795450Y-64008000D01*
X164696140Y-64008000D01*
X164442140Y-64008000D01*
X162342830Y-64008000D01*
X162184080Y-64166750D01*
X162184080Y-65757370D01*
X162280753Y-65990759D01*
X162459382Y-66169387D01*
X162491040Y-66182500D01*
X160635415Y-66182500D01*
X160771161Y-66095150D01*
X160916151Y-65882950D01*
X160967160Y-65631060D01*
X160967160Y-62130940D01*
X160943394Y-62004630D01*
X162184080Y-62004630D01*
X162184080Y-63595250D01*
X162342830Y-63754000D01*
X164442140Y-63754000D01*
X164442140Y-61654690D01*
X164696140Y-61654690D01*
X164696140Y-63754000D01*
X166795450Y-63754000D01*
X166954200Y-63595250D01*
X166954200Y-62004630D01*
X166857527Y-61771241D01*
X166678898Y-61592613D01*
X166445509Y-61495940D01*
X164854890Y-61495940D01*
X164696140Y-61654690D01*
X164442140Y-61654690D01*
X164283390Y-61495940D01*
X162692771Y-61495940D01*
X162459382Y-61592613D01*
X162280753Y-61771241D01*
X162184080Y-62004630D01*
X160943394Y-62004630D01*
X160922882Y-61895623D01*
X160783810Y-61679499D01*
X160571610Y-61534509D01*
X160319720Y-61483500D01*
X156819600Y-61483500D01*
X156584283Y-61527778D01*
X156368159Y-61666850D01*
X156223169Y-61879050D01*
X156172160Y-62130940D01*
X150191323Y-62130940D01*
X150190212Y-50171860D01*
X157778125Y-50571224D01*
X157827993Y-50563829D01*
X157871054Y-50537616D01*
X157900525Y-50496714D01*
X157911796Y-50445424D01*
X157962596Y-44146224D01*
X157952989Y-44096735D01*
X157924885Y-44054882D01*
X157882712Y-44027262D01*
X157836360Y-44018202D01*
X149808000Y-43970128D01*
X149808000Y-36957000D01*
X152304155Y-36957000D01*
X152418229Y-37530489D01*
X152743085Y-38016670D01*
X153057866Y-38227000D01*
X152743085Y-38437330D01*
X152418229Y-38923511D01*
X152304155Y-39497000D01*
X152418229Y-40070489D01*
X152743085Y-40556670D01*
X153229266Y-40881526D01*
X153802755Y-40995600D01*
X154172245Y-40995600D01*
X154745734Y-40881526D01*
X155231915Y-40556670D01*
X155556771Y-40070489D01*
X155670845Y-39497000D01*
X155556771Y-38923511D01*
X155231915Y-38437330D01*
X154917134Y-38227000D01*
X155231915Y-38016670D01*
X155556771Y-37530489D01*
X155670845Y-36957000D01*
X155796655Y-36957000D01*
X155910729Y-37530489D01*
X156235585Y-38016670D01*
X156550366Y-38227000D01*
X156235585Y-38437330D01*
X155910729Y-38923511D01*
X155796655Y-39497000D01*
X155910729Y-40070489D01*
X156235585Y-40556670D01*
X156721766Y-40881526D01*
X157295255Y-40995600D01*
X157664745Y-40995600D01*
X158238234Y-40881526D01*
X158724415Y-40556670D01*
X159049271Y-40070489D01*
X159163345Y-39497000D01*
X159049271Y-38923511D01*
X158724415Y-38437330D01*
X158409634Y-38227000D01*
X158724415Y-38016670D01*
X159049271Y-37530489D01*
X159163345Y-36957000D01*
X159289155Y-36957000D01*
X159403229Y-37530489D01*
X159728085Y-38016670D01*
X160042866Y-38227000D01*
X159728085Y-38437330D01*
X159403229Y-38923511D01*
X159289155Y-39497000D01*
X159403229Y-40070489D01*
X159728085Y-40556670D01*
X160214266Y-40881526D01*
X160787755Y-40995600D01*
X161157245Y-40995600D01*
X161730734Y-40881526D01*
X162216915Y-40556670D01*
X162541771Y-40070489D01*
X162655845Y-39497000D01*
X162541771Y-38923511D01*
X162216915Y-38437330D01*
X161902134Y-38227000D01*
X162216915Y-38016670D01*
X162541771Y-37530489D01*
X162655845Y-36957000D01*
X162781655Y-36957000D01*
X162895729Y-37530489D01*
X163220585Y-38016670D01*
X163535366Y-38227000D01*
X163220585Y-38437330D01*
X162895729Y-38923511D01*
X162781655Y-39497000D01*
X162895729Y-40070489D01*
X163220585Y-40556670D01*
X163706766Y-40881526D01*
X164280255Y-40995600D01*
X164649745Y-40995600D01*
X165223234Y-40881526D01*
X165709415Y-40556670D01*
X166034271Y-40070489D01*
X166148345Y-39497000D01*
X166034271Y-38923511D01*
X165709415Y-38437330D01*
X165394634Y-38227000D01*
X165709415Y-38016670D01*
X166034271Y-37530489D01*
X166148345Y-36957000D01*
X166274155Y-36957000D01*
X166388229Y-37530489D01*
X166713085Y-38016670D01*
X167027866Y-38227000D01*
X166713085Y-38437330D01*
X166388229Y-38923511D01*
X166274155Y-39497000D01*
X166388229Y-40070489D01*
X166713085Y-40556670D01*
X167199266Y-40881526D01*
X167772755Y-40995600D01*
X168142245Y-40995600D01*
X168715734Y-40881526D01*
X169201915Y-40556670D01*
X169526771Y-40070489D01*
X169640845Y-39497000D01*
X169526771Y-38923511D01*
X169201915Y-38437330D01*
X168887134Y-38227000D01*
X169201915Y-38016670D01*
X169526771Y-37530489D01*
X169640845Y-36957000D01*
X169766655Y-36957000D01*
X169880729Y-37530489D01*
X170205585Y-38016670D01*
X170520366Y-38227000D01*
X170205585Y-38437330D01*
X169880729Y-38923511D01*
X169766655Y-39497000D01*
X169880729Y-40070489D01*
X170205585Y-40556670D01*
X170691766Y-40881526D01*
X171265255Y-40995600D01*
X171634745Y-40995600D01*
X172208234Y-40881526D01*
X172694415Y-40556670D01*
X173019271Y-40070489D01*
X173133345Y-39497000D01*
X173019271Y-38923511D01*
X172694415Y-38437330D01*
X172379634Y-38227000D01*
X172694415Y-38016670D01*
X173019271Y-37530489D01*
X173133345Y-36957000D01*
X173259155Y-36957000D01*
X173373229Y-37530489D01*
X173698085Y-38016670D01*
X174012866Y-38227000D01*
X173698085Y-38437330D01*
X173373229Y-38923511D01*
X173259155Y-39497000D01*
X173373229Y-40070489D01*
X173698085Y-40556670D01*
X174184266Y-40881526D01*
X174757755Y-40995600D01*
X175127245Y-40995600D01*
X175700734Y-40881526D01*
X176186915Y-40556670D01*
X176511771Y-40070489D01*
X176625845Y-39497000D01*
X176511771Y-38923511D01*
X176186915Y-38437330D01*
X175872134Y-38227000D01*
X176186915Y-38016670D01*
X176511771Y-37530489D01*
X176625845Y-36957000D01*
X176751655Y-36957000D01*
X176865729Y-37530489D01*
X177190585Y-38016670D01*
X177505366Y-38227000D01*
X177190585Y-38437330D01*
X176865729Y-38923511D01*
X176751655Y-39497000D01*
X176865729Y-40070489D01*
X177190585Y-40556670D01*
X177676766Y-40881526D01*
X178250255Y-40995600D01*
X178619745Y-40995600D01*
X179193234Y-40881526D01*
X179679415Y-40556670D01*
X180004271Y-40070489D01*
X180118345Y-39497000D01*
X180004271Y-38923511D01*
X179679415Y-38437330D01*
X179364634Y-38227000D01*
X179679415Y-38016670D01*
X180004271Y-37530489D01*
X180118345Y-36957000D01*
X181577655Y-36957000D01*
X181691729Y-37530489D01*
X182016585Y-38016670D01*
X182331366Y-38227000D01*
X182016585Y-38437330D01*
X181691729Y-38923511D01*
X181577655Y-39497000D01*
X181691729Y-40070489D01*
X182016585Y-40556670D01*
X182502766Y-40881526D01*
X183076255Y-40995600D01*
X183445745Y-40995600D01*
X184019234Y-40881526D01*
X184505415Y-40556670D01*
X184830271Y-40070489D01*
X184944345Y-39497000D01*
X184830271Y-38923511D01*
X184505415Y-38437330D01*
X184190634Y-38227000D01*
X184505415Y-38016670D01*
X184830271Y-37530489D01*
X184944345Y-36957000D01*
X185070155Y-36957000D01*
X185184229Y-37530489D01*
X185509085Y-38016670D01*
X185823866Y-38227000D01*
X185509085Y-38437330D01*
X185184229Y-38923511D01*
X185070155Y-39497000D01*
X185184229Y-40070489D01*
X185509085Y-40556670D01*
X185995266Y-40881526D01*
X186568755Y-40995600D01*
X186938245Y-40995600D01*
X187511734Y-40881526D01*
X187997915Y-40556670D01*
X188322771Y-40070489D01*
X188436845Y-39497000D01*
X188322771Y-38923511D01*
X187997915Y-38437330D01*
X187683134Y-38227000D01*
X187997915Y-38016670D01*
X188322771Y-37530489D01*
X188436845Y-36957000D01*
X188562655Y-36957000D01*
X188676729Y-37530489D01*
X189001585Y-38016670D01*
X189316366Y-38227000D01*
X189001585Y-38437330D01*
X188676729Y-38923511D01*
X188562655Y-39497000D01*
X188676729Y-40070489D01*
X189001585Y-40556670D01*
X189487766Y-40881526D01*
X190061255Y-40995600D01*
X190430745Y-40995600D01*
X191004234Y-40881526D01*
X191490415Y-40556670D01*
X191815271Y-40070489D01*
X191929345Y-39497000D01*
X191815271Y-38923511D01*
X191490415Y-38437330D01*
X191175634Y-38227000D01*
X191490415Y-38016670D01*
X191815271Y-37530489D01*
X191929345Y-36957000D01*
X192055155Y-36957000D01*
X192169229Y-37530489D01*
X192494085Y-38016670D01*
X192808866Y-38227000D01*
X192494085Y-38437330D01*
X192169229Y-38923511D01*
X192055155Y-39497000D01*
X192169229Y-40070489D01*
X192494085Y-40556670D01*
X192980266Y-40881526D01*
X193553755Y-40995600D01*
X193923245Y-40995600D01*
X194496734Y-40881526D01*
X194982915Y-40556670D01*
X195307771Y-40070489D01*
X195421845Y-39497000D01*
X195307771Y-38923511D01*
X194982915Y-38437330D01*
X194668134Y-38227000D01*
X194982915Y-38016670D01*
X195307771Y-37530489D01*
X195421845Y-36957000D01*
X195547655Y-36957000D01*
X195661729Y-37530489D01*
X195986585Y-38016670D01*
X196301366Y-38227000D01*
X195986585Y-38437330D01*
X195661729Y-38923511D01*
X195547655Y-39497000D01*
X195661729Y-40070489D01*
X195986585Y-40556670D01*
X196472766Y-40881526D01*
X197046255Y-40995600D01*
X197415745Y-40995600D01*
X197989234Y-40881526D01*
X198475415Y-40556670D01*
X198800271Y-40070489D01*
X198914345Y-39497000D01*
X198800271Y-38923511D01*
X198475415Y-38437330D01*
X198160634Y-38227000D01*
X198475415Y-38016670D01*
X198800271Y-37530489D01*
X198914345Y-36957000D01*
X199040155Y-36957000D01*
X199154229Y-37530489D01*
X199479085Y-38016670D01*
X199793866Y-38227000D01*
X199479085Y-38437330D01*
X199154229Y-38923511D01*
X199040155Y-39497000D01*
X199154229Y-40070489D01*
X199479085Y-40556670D01*
X199965266Y-40881526D01*
X200538755Y-40995600D01*
X200908245Y-40995600D01*
X201481734Y-40881526D01*
X201967915Y-40556670D01*
X202292771Y-40070489D01*
X202406845Y-39497000D01*
X202292771Y-38923511D01*
X201967915Y-38437330D01*
X201653134Y-38227000D01*
X201967915Y-38016670D01*
X202292771Y-37530489D01*
X202406845Y-36957000D01*
X202292771Y-36383511D01*
X201967915Y-35897330D01*
X201945720Y-35882500D01*
X202099198Y-35818927D01*
X202277827Y-35640299D01*
X202374500Y-35406910D01*
X202374500Y-34702750D01*
X202215750Y-34544000D01*
X200850500Y-34544000D01*
X200850500Y-34564000D01*
X200596500Y-34564000D01*
X200596500Y-34544000D01*
X199231250Y-34544000D01*
X199072500Y-34702750D01*
X199072500Y-35406910D01*
X199169173Y-35640299D01*
X199347802Y-35818927D01*
X199501280Y-35882500D01*
X199479085Y-35897330D01*
X199154229Y-36383511D01*
X199040155Y-36957000D01*
X198914345Y-36957000D01*
X198800271Y-36383511D01*
X198475415Y-35897330D01*
X198453220Y-35882500D01*
X198606698Y-35818927D01*
X198785327Y-35640299D01*
X198882000Y-35406910D01*
X198882000Y-34702750D01*
X198723250Y-34544000D01*
X197358000Y-34544000D01*
X197358000Y-34564000D01*
X197104000Y-34564000D01*
X197104000Y-34544000D01*
X195738750Y-34544000D01*
X195580000Y-34702750D01*
X195580000Y-35406910D01*
X195676673Y-35640299D01*
X195855302Y-35818927D01*
X196008780Y-35882500D01*
X195986585Y-35897330D01*
X195661729Y-36383511D01*
X195547655Y-36957000D01*
X195421845Y-36957000D01*
X195307771Y-36383511D01*
X194982915Y-35897330D01*
X194960720Y-35882500D01*
X195114198Y-35818927D01*
X195292827Y-35640299D01*
X195389500Y-35406910D01*
X195389500Y-34702750D01*
X195230750Y-34544000D01*
X193865500Y-34544000D01*
X193865500Y-34564000D01*
X193611500Y-34564000D01*
X193611500Y-34544000D01*
X192246250Y-34544000D01*
X192087500Y-34702750D01*
X192087500Y-35406910D01*
X192184173Y-35640299D01*
X192362802Y-35818927D01*
X192516280Y-35882500D01*
X192494085Y-35897330D01*
X192169229Y-36383511D01*
X192055155Y-36957000D01*
X191929345Y-36957000D01*
X191815271Y-36383511D01*
X191490415Y-35897330D01*
X191468220Y-35882500D01*
X191621698Y-35818927D01*
X191800327Y-35640299D01*
X191897000Y-35406910D01*
X191897000Y-34702750D01*
X191738250Y-34544000D01*
X190373000Y-34544000D01*
X190373000Y-34564000D01*
X190119000Y-34564000D01*
X190119000Y-34544000D01*
X188753750Y-34544000D01*
X188595000Y-34702750D01*
X188595000Y-35406910D01*
X188691673Y-35640299D01*
X188870302Y-35818927D01*
X189023780Y-35882500D01*
X189001585Y-35897330D01*
X188676729Y-36383511D01*
X188562655Y-36957000D01*
X188436845Y-36957000D01*
X188322771Y-36383511D01*
X187997915Y-35897330D01*
X187975720Y-35882500D01*
X188129198Y-35818927D01*
X188307827Y-35640299D01*
X188404500Y-35406910D01*
X188404500Y-34702750D01*
X188245750Y-34544000D01*
X186880500Y-34544000D01*
X186880500Y-34564000D01*
X186626500Y-34564000D01*
X186626500Y-34544000D01*
X185261250Y-34544000D01*
X185102500Y-34702750D01*
X185102500Y-35406910D01*
X185199173Y-35640299D01*
X185377802Y-35818927D01*
X185531280Y-35882500D01*
X185509085Y-35897330D01*
X185184229Y-36383511D01*
X185070155Y-36957000D01*
X184944345Y-36957000D01*
X184830271Y-36383511D01*
X184505415Y-35897330D01*
X184483220Y-35882500D01*
X184636698Y-35818927D01*
X184815327Y-35640299D01*
X184912000Y-35406910D01*
X184912000Y-34702750D01*
X184753250Y-34544000D01*
X183388000Y-34544000D01*
X183388000Y-34564000D01*
X183134000Y-34564000D01*
X183134000Y-34544000D01*
X181768750Y-34544000D01*
X181610000Y-34702750D01*
X181610000Y-35406910D01*
X181706673Y-35640299D01*
X181885302Y-35818927D01*
X182038780Y-35882500D01*
X182016585Y-35897330D01*
X181691729Y-36383511D01*
X181577655Y-36957000D01*
X180118345Y-36957000D01*
X180004271Y-36383511D01*
X179679415Y-35897330D01*
X179657220Y-35882500D01*
X179810698Y-35818927D01*
X179989327Y-35640299D01*
X180086000Y-35406910D01*
X180086000Y-34702750D01*
X179927250Y-34544000D01*
X178562000Y-34544000D01*
X178562000Y-34564000D01*
X178308000Y-34564000D01*
X178308000Y-34544000D01*
X176942750Y-34544000D01*
X176784000Y-34702750D01*
X176784000Y-35406910D01*
X176880673Y-35640299D01*
X177059302Y-35818927D01*
X177212780Y-35882500D01*
X177190585Y-35897330D01*
X176865729Y-36383511D01*
X176751655Y-36957000D01*
X176625845Y-36957000D01*
X176511771Y-36383511D01*
X176186915Y-35897330D01*
X176164720Y-35882500D01*
X176318198Y-35818927D01*
X176496827Y-35640299D01*
X176593500Y-35406910D01*
X176593500Y-34702750D01*
X176434750Y-34544000D01*
X175069500Y-34544000D01*
X175069500Y-34564000D01*
X174815500Y-34564000D01*
X174815500Y-34544000D01*
X173450250Y-34544000D01*
X173291500Y-34702750D01*
X173291500Y-35406910D01*
X173388173Y-35640299D01*
X173566802Y-35818927D01*
X173720280Y-35882500D01*
X173698085Y-35897330D01*
X173373229Y-36383511D01*
X173259155Y-36957000D01*
X173133345Y-36957000D01*
X173019271Y-36383511D01*
X172694415Y-35897330D01*
X172672220Y-35882500D01*
X172825698Y-35818927D01*
X173004327Y-35640299D01*
X173101000Y-35406910D01*
X173101000Y-34702750D01*
X172942250Y-34544000D01*
X171577000Y-34544000D01*
X171577000Y-34564000D01*
X171323000Y-34564000D01*
X171323000Y-34544000D01*
X169957750Y-34544000D01*
X169799000Y-34702750D01*
X169799000Y-35406910D01*
X169895673Y-35640299D01*
X170074302Y-35818927D01*
X170227780Y-35882500D01*
X170205585Y-35897330D01*
X169880729Y-36383511D01*
X169766655Y-36957000D01*
X169640845Y-36957000D01*
X169526771Y-36383511D01*
X169201915Y-35897330D01*
X169179720Y-35882500D01*
X169333198Y-35818927D01*
X169511827Y-35640299D01*
X169608500Y-35406910D01*
X169608500Y-34702750D01*
X169449750Y-34544000D01*
X168084500Y-34544000D01*
X168084500Y-34564000D01*
X167830500Y-34564000D01*
X167830500Y-34544000D01*
X166465250Y-34544000D01*
X166306500Y-34702750D01*
X166306500Y-35406910D01*
X166403173Y-35640299D01*
X166581802Y-35818927D01*
X166735280Y-35882500D01*
X166713085Y-35897330D01*
X166388229Y-36383511D01*
X166274155Y-36957000D01*
X166148345Y-36957000D01*
X166034271Y-36383511D01*
X165709415Y-35897330D01*
X165687220Y-35882500D01*
X165840698Y-35818927D01*
X166019327Y-35640299D01*
X166116000Y-35406910D01*
X166116000Y-34702750D01*
X165957250Y-34544000D01*
X164592000Y-34544000D01*
X164592000Y-34564000D01*
X164338000Y-34564000D01*
X164338000Y-34544000D01*
X162972750Y-34544000D01*
X162814000Y-34702750D01*
X162814000Y-35406910D01*
X162910673Y-35640299D01*
X163089302Y-35818927D01*
X163242780Y-35882500D01*
X163220585Y-35897330D01*
X162895729Y-36383511D01*
X162781655Y-36957000D01*
X162655845Y-36957000D01*
X162541771Y-36383511D01*
X162216915Y-35897330D01*
X162194720Y-35882500D01*
X162348198Y-35818927D01*
X162526827Y-35640299D01*
X162623500Y-35406910D01*
X162623500Y-34702750D01*
X162464750Y-34544000D01*
X161099500Y-34544000D01*
X161099500Y-34564000D01*
X160845500Y-34564000D01*
X160845500Y-34544000D01*
X159480250Y-34544000D01*
X159321500Y-34702750D01*
X159321500Y-35406910D01*
X159418173Y-35640299D01*
X159596802Y-35818927D01*
X159750280Y-35882500D01*
X159728085Y-35897330D01*
X159403229Y-36383511D01*
X159289155Y-36957000D01*
X159163345Y-36957000D01*
X159049271Y-36383511D01*
X158724415Y-35897330D01*
X158702220Y-35882500D01*
X158855698Y-35818927D01*
X159034327Y-35640299D01*
X159131000Y-35406910D01*
X159131000Y-34702750D01*
X158972250Y-34544000D01*
X157607000Y-34544000D01*
X157607000Y-34564000D01*
X157353000Y-34564000D01*
X157353000Y-34544000D01*
X155987750Y-34544000D01*
X155829000Y-34702750D01*
X155829000Y-35406910D01*
X155925673Y-35640299D01*
X156104302Y-35818927D01*
X156257780Y-35882500D01*
X156235585Y-35897330D01*
X155910729Y-36383511D01*
X155796655Y-36957000D01*
X155670845Y-36957000D01*
X155556771Y-36383511D01*
X155231915Y-35897330D01*
X155209720Y-35882500D01*
X155363198Y-35818927D01*
X155541827Y-35640299D01*
X155638500Y-35406910D01*
X155638500Y-34702750D01*
X155479750Y-34544000D01*
X154114500Y-34544000D01*
X154114500Y-34564000D01*
X153860500Y-34564000D01*
X153860500Y-34544000D01*
X152495250Y-34544000D01*
X152336500Y-34702750D01*
X152336500Y-35406910D01*
X152433173Y-35640299D01*
X152611802Y-35818927D01*
X152765280Y-35882500D01*
X152743085Y-35897330D01*
X152418229Y-36383511D01*
X152304155Y-36957000D01*
X149808000Y-36957000D01*
X149808000Y-33222000D01*
X152421451Y-33222000D01*
X152336500Y-33427090D01*
G36*
X192100198Y-79248789D02*
X191804399Y-79125962D01*
X191432433Y-79125638D01*
X191088657Y-79267683D01*
X190896306Y-79459698D01*
X190876999Y-79472599D01*
X190864211Y-79491738D01*
X190825408Y-79530473D01*
X190804196Y-79581556D01*
X190712252Y-79719161D01*
X190654400Y-80010000D01*
X190682520Y-80151370D01*
X190682438Y-80245967D01*
X190824483Y-80589743D01*
X191087273Y-80852992D01*
X191430801Y-80995638D01*
X191802767Y-80995962D01*
X192146543Y-80853917D01*
X192330000Y-80670780D01*
X192330000Y-89598500D01*
X192384046Y-89870205D01*
X192422489Y-89927739D01*
X192422338Y-90101167D01*
X192441937Y-90148600D01*
X192288979Y-90148600D01*
X191291944Y-89151564D01*
X191242317Y-89031457D01*
X190979527Y-88768208D01*
X190635999Y-88625562D01*
X190264033Y-88625238D01*
X189920257Y-88767283D01*
X189657008Y-89030073D01*
X189514362Y-89373601D01*
X189514038Y-89745567D01*
X189656083Y-90089343D01*
X189918873Y-90352592D01*
X190040186Y-90402966D01*
X190684721Y-91047500D01*
X189905092Y-91047500D01*
X189368500Y-90510908D01*
X189368500Y-87439549D01*
X189427222Y-87527433D01*
X189962845Y-87885325D01*
X190594655Y-88011000D01*
X190659345Y-88011000D01*
X191291155Y-87885325D01*
X191826778Y-87527433D01*
X192184670Y-86991810D01*
X192310345Y-86360000D01*
X192184670Y-85728190D01*
X191960034Y-85391999D01*
X192002698Y-85374327D01*
X192181327Y-85195699D01*
X192278000Y-84962310D01*
X192278000Y-84105750D01*
X192119250Y-83947000D01*
X190754000Y-83947000D01*
X190754000Y-83967000D01*
X190500000Y-83967000D01*
X190500000Y-83947000D01*
X190480000Y-83947000D01*
X190480000Y-83693000D01*
X190500000Y-83693000D01*
X190500000Y-82327750D01*
X190754000Y-82327750D01*
X190754000Y-83693000D01*
X192119250Y-83693000D01*
X192278000Y-83534250D01*
X192278000Y-82677690D01*
X192181327Y-82444301D01*
X192002698Y-82265673D01*
X191769309Y-82169000D01*
X190912750Y-82169000D01*
X190754000Y-82327750D01*
X190500000Y-82327750D01*
X190341250Y-82169000D01*
X189484691Y-82169000D01*
X189368500Y-82217128D01*
X189368500Y-76517092D01*
X192100198Y-79248789D01*
X192100198Y-79248789D01*
G37*
X192100198Y-79248789D02*
X191804399Y-79125962D01*
X191432433Y-79125638D01*
X191088657Y-79267683D01*
X190896306Y-79459698D01*
X190876999Y-79472599D01*
X190864211Y-79491738D01*
X190825408Y-79530473D01*
X190804196Y-79581556D01*
X190712252Y-79719161D01*
X190654400Y-80010000D01*
X190682520Y-80151370D01*
X190682438Y-80245967D01*
X190824483Y-80589743D01*
X191087273Y-80852992D01*
X191430801Y-80995638D01*
X191802767Y-80995962D01*
X192146543Y-80853917D01*
X192330000Y-80670780D01*
X192330000Y-89598500D01*
X192384046Y-89870205D01*
X192422489Y-89927739D01*
X192422338Y-90101167D01*
X192441937Y-90148600D01*
X192288979Y-90148600D01*
X191291944Y-89151564D01*
X191242317Y-89031457D01*
X190979527Y-88768208D01*
X190635999Y-88625562D01*
X190264033Y-88625238D01*
X189920257Y-88767283D01*
X189657008Y-89030073D01*
X189514362Y-89373601D01*
X189514038Y-89745567D01*
X189656083Y-90089343D01*
X189918873Y-90352592D01*
X190040186Y-90402966D01*
X190684721Y-91047500D01*
X189905092Y-91047500D01*
X189368500Y-90510908D01*
X189368500Y-87439549D01*
X189427222Y-87527433D01*
X189962845Y-87885325D01*
X190594655Y-88011000D01*
X190659345Y-88011000D01*
X191291155Y-87885325D01*
X191826778Y-87527433D01*
X192184670Y-86991810D01*
X192310345Y-86360000D01*
X192184670Y-85728190D01*
X191960034Y-85391999D01*
X192002698Y-85374327D01*
X192181327Y-85195699D01*
X192278000Y-84962310D01*
X192278000Y-84105750D01*
X192119250Y-83947000D01*
X190754000Y-83947000D01*
X190754000Y-83967000D01*
X190500000Y-83967000D01*
X190500000Y-83947000D01*
X190480000Y-83947000D01*
X190480000Y-83693000D01*
X190500000Y-83693000D01*
X190500000Y-82327750D01*
X190754000Y-82327750D01*
X190754000Y-83693000D01*
X192119250Y-83693000D01*
X192278000Y-83534250D01*
X192278000Y-82677690D01*
X192181327Y-82444301D01*
X192002698Y-82265673D01*
X191769309Y-82169000D01*
X190912750Y-82169000D01*
X190754000Y-82327750D01*
X190500000Y-82327750D01*
X190341250Y-82169000D01*
X189484691Y-82169000D01*
X189368500Y-82217128D01*
X189368500Y-76517092D01*
X192100198Y-79248789D01*
M02*
