G04 #@! TF.FileFunction,Soldermask,Top*
%FSLAX46Y46*%
G04 Gerber Fmt 4.6, Leading zero omitted, Abs format (unit mm)*
G04 Created by KiCad (PCBNEW 4.0.1-stable) date 6/25/2016 6:05:23 PM*
%MOMM*%
G01*
G04 APERTURE LIST*
%ADD10C,0.100000*%
%ADD11C,0.150000*%
%ADD12C,2.600000*%
%ADD13R,2.000200X3.000960*%
%ADD14R,3.000960X2.000200*%
%ADD15R,2.000000X2.400000*%
%ADD16R,1.900000X1.650000*%
%ADD17R,3.999180X2.000200*%
%ADD18R,1.997660X2.200860*%
%ADD19R,1.600000X0.680000*%
%ADD20R,0.680000X1.600000*%
%ADD21R,2.940000X1.421080*%
%ADD22R,3.900120X3.900120*%
%ADD23R,2.432000X2.432000*%
%ADD24O,2.432000X2.432000*%
%ADD25R,2.127200X2.432000*%
%ADD26O,2.127200X2.432000*%
%ADD27R,2.127200X2.127200*%
%ADD28O,2.127200X2.127200*%
%ADD29R,1.500000X0.800000*%
%ADD30R,3.600000X1.400000*%
%ADD31R,1.799540X2.200860*%
%ADD32R,2.432000X2.127200*%
%ADD33O,2.432000X2.127200*%
%ADD34R,1.700000X1.900000*%
%ADD35R,1.900000X1.700000*%
%ADD36R,4.057600X2.432000*%
%ADD37R,1.416000X2.432000*%
G04 APERTURE END LIST*
D10*
D11*
X209804000Y-96139000D02*
X211328000Y-96139000D01*
X209804000Y-32512000D02*
X211328000Y-32512000D01*
X149098000Y-96139000D02*
X209804000Y-96139000D01*
X209804000Y-32512000D02*
X149098000Y-32512000D01*
X211328000Y-32512000D02*
X211328000Y-96139000D01*
X149098000Y-96139000D02*
X149098000Y-32512000D01*
D12*
X154686000Y-93408500D03*
D13*
X169545000Y-58206640D03*
X169545000Y-61808360D03*
D14*
X178648360Y-68961000D03*
X175046640Y-68961000D03*
D15*
X197358000Y-66770000D03*
X197358000Y-62770000D03*
D16*
X202862500Y-54483000D03*
X200362500Y-54483000D03*
D17*
X186392820Y-45339000D03*
X180891180Y-45339000D03*
D18*
X153075640Y-57213500D03*
X155915360Y-57213500D03*
D19*
X184138500Y-72799000D03*
X184138500Y-73299000D03*
X184138500Y-73799000D03*
X184138500Y-74299000D03*
X184138500Y-74799000D03*
X184138500Y-75299000D03*
X184138500Y-75799000D03*
X184138500Y-76299000D03*
D20*
X185638500Y-77799000D03*
X186138500Y-77799000D03*
X186638500Y-77799000D03*
X187138500Y-77799000D03*
X187638500Y-77799000D03*
X188138500Y-77799000D03*
X188638500Y-77799000D03*
X189138500Y-77799000D03*
D19*
X190638500Y-76299000D03*
X190638500Y-75799000D03*
X190638500Y-75299000D03*
X190638500Y-74799000D03*
X190638500Y-74299000D03*
X190638500Y-73799000D03*
X190638500Y-73299000D03*
X190638500Y-72799000D03*
D20*
X189138500Y-71299000D03*
X188638500Y-71299000D03*
X188138500Y-71299000D03*
X187638500Y-71299000D03*
X187138500Y-71299000D03*
X186638500Y-71299000D03*
X186138500Y-71299000D03*
X185638500Y-71299000D03*
D21*
X192468500Y-67058540D03*
X192468500Y-64767460D03*
D22*
X164569140Y-63881000D03*
X158569660Y-63881000D03*
X161569400Y-68580000D03*
D23*
X190627000Y-83820000D03*
D24*
X190627000Y-86360000D03*
D22*
X164188140Y-76517500D03*
X158188660Y-76517500D03*
X161188400Y-81216500D03*
D23*
X186309000Y-64389000D03*
D24*
X186309000Y-66929000D03*
D25*
X173101000Y-94234000D03*
D26*
X175641000Y-94234000D03*
X178181000Y-94234000D03*
X180721000Y-94234000D03*
X183261000Y-94234000D03*
D25*
X195961000Y-94234000D03*
D26*
X193421000Y-94234000D03*
X190881000Y-94234000D03*
X188341000Y-94234000D03*
D27*
X203327000Y-84899500D03*
D28*
X203327000Y-87439500D03*
X200787000Y-84899500D03*
X200787000Y-87439500D03*
X198247000Y-84899500D03*
X198247000Y-87439500D03*
D29*
X186189500Y-51083500D03*
X186189500Y-51733500D03*
X186189500Y-52383500D03*
X186189500Y-53033500D03*
X186189500Y-53683500D03*
X186189500Y-54333500D03*
X186189500Y-54983500D03*
X186189500Y-55633500D03*
X186189500Y-56283500D03*
X186189500Y-56933500D03*
X186189500Y-57583500D03*
X186189500Y-58233500D03*
X186189500Y-58883500D03*
X186189500Y-59533500D03*
X191889500Y-59533500D03*
X191889500Y-58883500D03*
X191889500Y-58233500D03*
X191889500Y-57583500D03*
X191889500Y-56933500D03*
X191889500Y-56283500D03*
X191889500Y-55633500D03*
X191889500Y-54983500D03*
X191889500Y-54333500D03*
X191889500Y-53683500D03*
X191889500Y-53033500D03*
X191889500Y-52383500D03*
X191889500Y-51733500D03*
X191889500Y-51083500D03*
D30*
X159604500Y-52355500D03*
X166404500Y-52355500D03*
X166404500Y-48355500D03*
X159604500Y-48355500D03*
D31*
X177538380Y-79987140D03*
X177538380Y-75587860D03*
X175140620Y-75587860D03*
X175140620Y-79987140D03*
D32*
X207645000Y-53467000D03*
D33*
X207645000Y-56007000D03*
X207645000Y-58547000D03*
X207645000Y-61087000D03*
D32*
X174942500Y-34417000D03*
D33*
X174942500Y-36957000D03*
X174942500Y-39497000D03*
D32*
X178435000Y-34417000D03*
D33*
X178435000Y-36957000D03*
X178435000Y-39497000D03*
D32*
X171450000Y-34417000D03*
D33*
X171450000Y-36957000D03*
X171450000Y-39497000D03*
D32*
X167957500Y-34417000D03*
D33*
X167957500Y-36957000D03*
X167957500Y-39497000D03*
D32*
X164465000Y-34417000D03*
D33*
X164465000Y-36957000D03*
X164465000Y-39497000D03*
D32*
X160972500Y-34417000D03*
D33*
X160972500Y-36957000D03*
X160972500Y-39497000D03*
D32*
X157480000Y-34417000D03*
D33*
X157480000Y-36957000D03*
X157480000Y-39497000D03*
D32*
X153987500Y-34417000D03*
D33*
X153987500Y-36957000D03*
X153987500Y-39497000D03*
D32*
X207708500Y-34417000D03*
D33*
X207708500Y-36957000D03*
X207708500Y-39497000D03*
D32*
X204216000Y-34417000D03*
D33*
X204216000Y-36957000D03*
X204216000Y-39497000D03*
D32*
X200723500Y-34417000D03*
D33*
X200723500Y-36957000D03*
X200723500Y-39497000D03*
D32*
X197231000Y-34417000D03*
D33*
X197231000Y-36957000D03*
X197231000Y-39497000D03*
D32*
X193738500Y-34417000D03*
D33*
X193738500Y-36957000D03*
X193738500Y-39497000D03*
D32*
X190246000Y-34417000D03*
D33*
X190246000Y-36957000D03*
X190246000Y-39497000D03*
D32*
X186753500Y-34417000D03*
D33*
X186753500Y-36957000D03*
X186753500Y-39497000D03*
D32*
X183261000Y-34417000D03*
D33*
X183261000Y-36957000D03*
X183261000Y-39497000D03*
D34*
X170180000Y-49196000D03*
X170180000Y-51896000D03*
D16*
X174962500Y-73152000D03*
X177462500Y-73152000D03*
X177907000Y-82359500D03*
X175407000Y-82359500D03*
X200703500Y-78930500D03*
X198203500Y-78930500D03*
D35*
X160257500Y-57213500D03*
X162957500Y-57213500D03*
X200199000Y-56769000D03*
X202899000Y-56769000D03*
X200199000Y-59182000D03*
X202899000Y-59182000D03*
X188261000Y-48387000D03*
X190961000Y-48387000D03*
X202962500Y-49403000D03*
X200262500Y-49403000D03*
X202962500Y-51943000D03*
X200262500Y-51943000D03*
X203026000Y-46990000D03*
X200326000Y-46990000D03*
D27*
X173101000Y-91186000D03*
D28*
X173101000Y-88646000D03*
X175641000Y-91186000D03*
X175641000Y-88646000D03*
X178181000Y-91186000D03*
X178181000Y-88646000D03*
X180721000Y-91186000D03*
X180721000Y-88646000D03*
X183261000Y-91186000D03*
X183261000Y-88646000D03*
D27*
X205168500Y-67373500D03*
D28*
X207708500Y-67373500D03*
X205168500Y-69913500D03*
X207708500Y-69913500D03*
X205168500Y-72453500D03*
X207708500Y-72453500D03*
X205168500Y-74993500D03*
X207708500Y-74993500D03*
D36*
X176911000Y-57213500D03*
D37*
X176911000Y-63817500D03*
X179197000Y-63817500D03*
X174625000Y-63817500D03*
D12*
X208597500Y-93408500D03*
X154686000Y-47434500D03*
X208597500Y-47434500D03*
M02*
